<?xml version="1.0" standalone="no"?>
<!DOCTYPE svg PUBLIC "-//W3C//DTD SVG 20010904//EN"
 "http://www.w3.org/TR/2001/REC-SVG-20010904/DTD/svg10.dtd">
<svg version="1.0" xmlns="http://www.w3.org/2000/svg"
 width="512.000000pt" height="512.000000pt" viewBox="0 0 512.000000 512.000000"
 preserveAspectRatio="xMidYMid meet">
<metadata>
Created by potrace 1.11, written by Peter Selinger 2001-2013
</metadata>
<g transform="translate(0.000000,512.000000) scale(0.100000,-0.100000)"
fill="#000000" stroke="none">
<path d="M0 2560 l0 -2560 2560 0 2560 0 0 2560 0 2560 -2560 0 -2560 0 0
-2560z m4045 2296 c88 -40 149 -133 202 -303 25 -82 27 -101 27 -268 0 -102
-5 -215 -13 -260 -12 -72 -287 -1430 -570 -2805 -60 -294 -119 -560 -131 -590
-69 -176 -171 -313 -265 -356 -66 -31 -153 -32 -232 -2 -85 31 -176 126 -234
243 -27 52 -107 274 -194 532 -81 244 -151 443 -154 443 -3 -1 -64 -177 -135
-392 -71 -215 -145 -423 -164 -462 -114 -228 -317 -279 -514 -129 -128 98
-204 240 -293 548 -171 590 -338 1086 -504 1496 -62 155 -75 212 -68 309 10
158 126 370 284 521 214 207 352 243 438 117 36 -53 138 -367 331 -1013 l27
-90 33 105 c19 58 68 214 110 348 82 265 116 352 176 455 96 165 245 272 377
272 77 -1 108 -15 168 -76 63 -63 106 -155 204 -437 50 -141 100 -284 111
-316 l22 -59 48 229 c26 126 102 497 168 824 66 327 134 640 151 695 57 184
152 331 253 390 98 58 254 72 341 31z"/>
</g>
</svg>
