<svg xmlns="http://www.w3.org/2000/svg" width="319.79" height="319.79" viewBox="0 0 319.79 319.79">
  <title>freespin</title>
  <g id="Layer_2" data-name="Layer 2">
    <g id="Layer_1-2" data-name="Layer 1">
      <g>
        <path d="M159.9,309.14A149.24,149.24,0,0,1,54.37,54.37a149.23,149.23,0,0,1,211.05,211A148.2,148.2,0,0,1,159.9,309.14Z" style="fill: #ed5564"/>
        <path d="M159.9,0a159.89,159.89,0,1,0,159.9,159.9A159.9,159.9,0,0,0,159.9,0ZM274.25,81.59A137.33,137.33,0,0,1,284.91,100a10.65,10.65,0,0,1-10.67-18.43ZM159.9,21.33q5.36,0,10.63.39a10.64,10.64,0,0,1-21.27,0Q154.53,21.32,159.9,21.33ZM45.55,81.59A10.65,10.65,0,0,1,34.88,100,135.79,135.79,0,0,1,45.55,81.59Zm0,156.62a136.57,136.57,0,0,1-10.67-18.43,10.65,10.65,0,0,1,10.67,18.43ZM159.9,298.49c-3.58,0-7.12-.16-10.63-.41a10.64,10.64,0,0,1,21.27,0C167,298.33,163.47,298.49,159.9,298.49Zm53.93-10.9a137.19,137.19,0,0,1-22.17,7.24,32,32,0,0,0-63.52,0A138.51,138.51,0,0,1,61.91,257.9c-1-1-2-2-3-3a32,32,0,0,0-31.79-55,139.22,139.22,0,0,1,0-79.9A32,32,0,0,0,59,65q1.45-1.54,3-3A138,138,0,0,1,128.14,25a32,32,0,0,0,63.52,0,138,138,0,0,1,66.22,36.94q1.5,1.5,3,3a32,32,0,0,0,31.79,55,139.22,139.22,0,0,1,0,79.9,32,32,0,0,0-31.79,55q-1.45,1.52-3,3A137.71,137.71,0,0,1,213.83,287.59Zm56.84-63.73a10.69,10.69,0,0,1,14.24-4.08,136.52,136.52,0,0,1-10.67,18.43A10.67,10.67,0,0,1,270.67,223.86Z" style="fill: #da4453"/>
        <g>
          <path d="M234.52,159.9A74.62,74.62,0,1,1,159.9,85.29,74.63,74.63,0,0,1,234.52,159.9Z" style="fill: #ffce54"/>
          <path d="M42.64,159.9A10.67,10.67,0,1,1,32,149.25,10.67,10.67,0,0,1,42.64,159.9Z" style="fill: #ffce54"/>
          <path d="M298.48,159.9a10.67,10.67,0,1,1-10.67-10.65A10.67,10.67,0,0,1,298.48,159.9Z" style="fill: #ffce54"/>
          <path d="M101.26,261.45a10.65,10.65,0,1,1-14.55,3.9A10.64,10.64,0,0,1,101.26,261.45Z" style="fill: #ffce54"/>
          <path d="M229.18,39.88a10.66,10.66,0,1,1-14.55,3.9A10.66,10.66,0,0,1,229.18,39.88Z" style="fill: #ffce54"/>
          <path d="M218.53,261.45a10.65,10.65,0,1,1-3.9,14.55A10.65,10.65,0,0,1,218.53,261.45Z" style="fill: #ffce54"/>
          <path d="M90.61,39.88a10.66,10.66,0,1,1-3.9,14.57A10.66,10.66,0,0,1,90.61,39.88Z" style="fill: #ffce54"/>
        </g>
      </g>
    </g>
  </g>
</svg>
