<svg xmlns="http://www.w3.org/2000/svg" width="473.15" height="418.2" viewBox="0 0 473.15 418.2">
  <title>withdraw</title>
  <g id="Layer_2" data-name="Layer 2">
    <g id="Layer_1-2" data-name="Layer 1">
      <g>
        <rect x="25.37" y="91.98" width="422.4" height="215" transform="translate(-68.37 146.87) rotate(-30.35)" style="fill: #31978c"/>
        <path d="M336.47,40.56,49.12,208.81c6.25,10.67,2.41,24.54-8.57,31l65,110.93c11-6.43,24.95-3,31.2,7.68L424.06,190.14c-6.25-10.67-2.41-24.54,8.57-31l-65-110.93C356.69,54.67,342.72,51.23,336.47,40.56Z" style="fill: #44c4a1"/>
        <g>
          <ellipse cx="236.58" cy="199.48" rx="57.94" ry="73.34" transform="translate(-68.37 146.88) rotate(-30.35)" style="fill: #31978c"/>
          <circle cx="378.19" cy="116.56" r="13.11" transform="translate(-7.07 207.07) rotate(-30.35)" style="fill: #31978c"/>
        </g>
        <circle cx="94.97" cy="282.43" r="13.11" transform="translate(-129.69 86.69) rotate(-30.35)" style="fill: #3ea69b"/>
        <path d="M263.73,252l-5.26-9a61.86,61.86,0,0,1-38.1,4.31l2.71-16q15.58,2.93,27.54-1.76l-14-23.86q-15.84,4.82-25.47,3.19t-15.85-12.27q-6.23-10.64-2.75-21.76t15.06-18.72l-3.6-6.15,7.87-4.61,3.67,6.27a59.57,59.57,0,0,1,31-5.75l-1.37,16a46,46,0,0,0-21.76,3.16L237,188.28l.37-.22q16.09-5,26-3.19t16.26,12.53q6.3,10.76,2.63,22t-15.84,19.19l5.18,8.85Zm-55.15-74.29a10.19,10.19,0,0,0,.9,8.72,10,10,0,0,0,6.28,5.07q3.85,1,12-.86l-12.46-21.28Q210.1,173.13,208.58,177.74ZM266,216.5a11,11,0,0,0-7.43-14.39q-4.19-.93-12.86,1.17l13,22.13Q264.25,221.35,266,216.5Z" style="fill: #44c4a1"/>
        <rect x="195.57" y="91.98" width="82.02" height="215" transform="translate(-68.37 146.88) rotate(-30.35)" style="fill: #f6c358"/>
        <g>
          <rect x="206.01" y="108.07" width="6.27" height="215" transform="translate(-80.26 135.22) rotate(-30.35)" style="fill: #fff"/>
          <rect x="260.89" y="75.89" width="6.27" height="215" transform="translate(-56.48 158.54) rotate(-30.35)" style="fill: #fff"/>
        </g>
        <rect x="26.85" y="165.26" width="422.4" height="215" transform="translate(-47.21 49.83) rotate(-10.88)" style="fill: #3ea69b"/>
        <path d="M60.22,385.15l-29-150.8a15.36,15.36,0,0,0,12.18-18l354.49-68.14a15.36,15.36,0,0,0,18,12.18l29,150.8a15.36,15.36,0,0,0-12.18,18L78.21,397.33A15.36,15.36,0,0,0,60.22,385.15Z" style="fill: #44c4a1"/>
        <g>
          <ellipse cx="238.06" cy="272.78" rx="57.94" ry="73.34" transform="translate(-47.21 49.84) rotate(-10.88)" style="fill: #3ea69b"/>
          <circle cx="399.19" cy="241.81" r="13.11" transform="translate(-38.47 79.69) rotate(-10.88)" style="fill: #3ea69b"/>
          <circle cx="76.91" cy="303.76" r="13.11" transform="translate(-55.95 19.98) rotate(-10.88)" style="fill: #3ea69b"/>
        </g>
        <path d="M246.13,331.37l-2-10.22a61.86,61.86,0,0,1-37.36-8.63l7.88-14.14q13.72,8,26.55,7.52L236,278.76q-16.54-.73-25.07-5.48t-10.86-16.85q-2.33-12.1,4.65-21.43t20.43-12.63l-1.35-7,9-1.72,1.37,7.13a59.57,59.57,0,0,1,31.13,4.91l-6.62,14.62A46,46,0,0,0,237.09,236l5.06,26.31.42-.08q16.82.69,25.6,5.67t11.15,17.23q2.35,12.25-4.84,21.61t-21.33,12.81l1.94,10.07ZM218.9,242.95a10.19,10.19,0,0,0-2.06,8.52,10,10,0,0,0,4.23,6.88q3.31,2.2,11.65,3.21l-4.65-24.21Q221.86,239.11,218.9,242.95Zm41.25,55.7a11,11,0,0,0-2.21-16q-3.64-2.28-12.51-3.18l4.84,25.18Q256.85,302.62,260.15,298.64Z" style="fill: #44c4a1"/>
      </g>
    </g>
  </g>
</svg>
