<svg xmlns="http://www.w3.org/2000/svg" width="600" height="188" viewBox="0 0 600 188" shape-rendering="geometricPrecision" text-rendering="geometricPrecision" image-rendering="optimizeQuality" fill-rule="evenodd" clip-rule="evenodd"><path d="M32 0h536c9 0 17 4 23 9 5 6 9 14 9 23v124c0 9-4 17-9 23-6 6-14 9-23 9H32c-9 0-17-3-23-9-5-6-9-14-9-23V32c0-9 4-17 9-23 6-5 14-9 23-9zm536 8H32c-7 0-13 3-17 7S8 25 8 32v124c0 7 3 13 7 17 4 5 10 7 17 7h536c7 0 13-2 17-7 4-4 7-10 7-17V32c0-7-3-13-7-17s-10-7-17-7zM218 72h6V54h5c5 0 7 3 8 8 1 6 2 9 3 10h6c-1-1-2-5-4-11-1-4-2-7-6-9 5-1 8-5 8-11 0-3-1-6-3-8-3-2-6-3-12-3-4 0-8 0-11 1v41zm6-37c1-1 2-1 5-1 6 0 10 3 10 8s-4 8-10 8h-5V35zm50 13h-17V35h18v-5h-23v42h24v-4h-19V53h17v-5zm6 22c3 2 7 3 11 3 10 0 15-6 15-12s-4-10-11-12c-6-3-8-5-8-9 0-2 2-6 8-6 4 0 6 1 8 2l1-4c-2-1-5-2-9-2-8 0-14 5-14 11s5 10 11 12 8 4 8 8c0 5-3 8-8 8-4 0-8-2-10-3l-2 4zm33 2h6V56h4c5 0 10-2 13-5 2-2 3-5 3-9 0-3-1-6-3-8-3-3-7-4-12-4s-8 0-11 1v41zm6-37c1 0 3-1 5-1 6 0 10 3 10 9 0 5-4 9-11 9-2 0-3-1-4-1V35zm45-5c-12 0-20 8-20 22 0 13 8 21 19 21s20-8 20-22c0-13-8-21-19-21zm-1 4c9 0 14 9 14 17 0 10-5 18-14 18-8 0-13-8-13-17 0-10 4-18 13-18zm32 38V54c0-7 0-12-1-17 3 5 5 9 8 14l14 21h5V30h-5v18c0 7 0 12 1 17-2-4-5-8-8-13l-13-22h-6v42h5zm34-2c2 2 6 3 10 3 10 0 15-6 15-12s-4-10-11-12c-6-3-8-5-8-9 0-2 2-6 8-6 4 0 6 1 8 2l1-4c-2-1-5-2-9-2-8 0-14 5-14 11s5 10 12 12c5 2 7 4 7 8 0 5-3 8-8 8-4 0-8-2-10-3l-1 4zm32-40v42h6V30h-6zm15 42c2 1 5 1 9 1 7 0 11-1 14-4 2-2 4-5 4-9 0-6-5-9-9-10 5-2 7-5 7-9s-1-6-3-8c-3-2-6-3-12-3-4 0-7 0-10 1v41zm6-37c1-1 2-1 5-1 5 0 9 2 9 7 0 4-4 7-9 7h-5V35zm0 17h4c6 0 11 3 11 8 0 6-5 9-11 9-2 0-3-1-4-1V52zm28 20h24v-4h-18V30h-6v42zm51-24h-16V35h17v-5h-22v42h23v-4h-18V53h16v-5zm-294 68h-24v13h10v15c-1 1-4 1-7 1-12 0-20-9-20-23 0-16 9-24 21-24 7 0 11 2 15 4l3-13c-3-2-10-4-18-4-21 0-36 14-36 37 0 11 3 20 9 27 6 6 14 9 26 9 8 0 17-2 21-4v-38zm44 23l5 18h15l-19-71h-19l-19 71h14l5-18h18zm-16-12l4-15c1-4 2-10 3-14 1 4 2 9 3 14l4 15h-14zm99 30h14l-3-71h-19l-7 24c-2 8-4 17-6 25-1-8-3-17-5-25l-6-24h-20l-4 71h14l1-27c0-9 1-20 1-29 2 9 4 19 6 28l7 27h11l8-28c2-8 5-18 7-27v29l1 27zm25-71v71h15V86h-15zm40 71v-21-31c3 8 7 17 11 25l14 27h15V86h-13v21c0 10 0 20 1 30-3-8-7-17-11-25l-13-26h-17v71h13zm105-41h-23v13h9v15c-1 1-3 1-7 1-11 0-20-9-20-23 0-16 9-24 21-24 7 0 12 2 15 4l3-13c-3-2-9-4-17-4-21 0-37 14-37 37 0 11 3 20 9 27 6 6 14 9 26 9 8 0 17-2 21-4v-38zm-456 40H83v-49h-7c-10 1-15 5-18 20s-6 26-8 29H25c2-5 6-21 9-35 3-11 7-20 15-23v-1c-10-3-20-14-20-30 0-12 4-20 10-26 8-7 20-10 36-10 13 0 25 1 33 3v11c11-9 25-14 42-14 14 0 25 3 30 6l-5 22c-6-3-13-5-26-5-20 0-36 13-36 40 0 26 14 41 35 41 5 0 10-1 12-2v-26h-17V85h41v65c-8 3-22 7-37 7-17 0-29-4-39-11v10zM83 53c-1 0-5-1-11-1-11 0-18 6-18 17s7 18 20 18h9V53z" fill="#505155"/></svg>