<svg xmlns="http://www.w3.org/2000/svg" width="9425.11" height="2595.44"><defs><style>.cls-1{fill:none}.cls-3,.cls-8{fill:#fff}.cls-6{fill:#e82e2d}.cls-9{fill:#e72f2e}</style><clipPath id="clip-path"><circle class="cls-1" cx="1110.73" cy="1373.64" r="1110.73"/></clipPath><clipPath id="clip-path-2"><path class="cls-1" d="M2907.46 262.91c613.43 0 1110.73 497.29 1110.73 1110.73S3520.9 2484.37 2907.46 2484.37s-1110.73-497.29-1110.73-1110.73S2294 262.91 2907.46 262.91z"/></clipPath></defs><g id="Layer_2" data-name="Layer 2"><g id="Layer_1-2" data-name="Layer 1"><g id="Layer_2-2" data-name="Layer 2"><g id="Layer_1-2-2" data-name="Layer 1-2"><path d="M1110.73 262.91c613.43 0 1110.73 497.29 1110.73 1110.73s-497.3 1110.73-1110.73 1110.73S0 1987.08 0 1373.64 497.29 262.91 1110.73 262.91z" fill="#f5ab23"/><path class="cls-3" d="M1110.73 606.27a773.8 773.8 0 0 1 154.82 15.57 762.29 762.29 0 0 1 274.12 115.37 770.07 770.07 0 0 1 278.2 337.79 762.37 762.37 0 0 1 44.64 143.87 776.38 776.38 0 0 1 0 309.64 762.32 762.32 0 0 1-115.37 274.12 770.06 770.06 0 0 1-337.76 278.2 762.34 762.34 0 0 1-143.83 44.65 776.36 776.36 0 0 1-309.63 0 762.29 762.29 0 0 1-274.12-115.4 770.07 770.07 0 0 1-278.2-337.76 762.38 762.38 0 0 1-44.6-143.86 776.36 776.36 0 0 1 0-309.62 762.31 762.31 0 0 1 115.32-274.13 770.08 770.08 0 0 1 337.76-278.2 762.31 762.31 0 0 1 143.83-44.67 773.83 773.83 0 0 1 154.82-15.59m0-156.74c-510.37 0-924.11 413.74-924.11 924.11s413.74 924.1 924.11 924.1 924.1-413.74 924.1-924.1-413.73-924.08-924.1-924.08z"/><g clip-path="url(#clip-path)"><circle cx="2907.46" cy="1373.64" r="1221.8" style="isolation:isolate" opacity=".1" fill="#fff"/></g><path class="cls-6" d="M2907.46 262.91c613.43 0 1110.73 497.29 1110.73 1110.73S3520.9 2484.37 2907.46 2484.37s-1110.73-497.29-1110.73-1110.73S2294 262.91 2907.46 262.91z"/><path class="cls-3" d="M2907.46 596.13c429.4 0 777.51 348.1 777.51 777.51s-348.1 777.51-777.51 777.51S2130 1803.05 2130 1373.64s348.06-777.51 777.46-777.51zM1326.76 1353a1.74 1.74 0 0 1-.33-3.21c63.42-34.08 101-100.51 101-177.36 0-114.51-76.25-187.26-189.92-208a7.92 7.92 0 0 1-6.5-7.79V823.43a11.82 11.82 0 0 0-11.82-11.82h-82.51a11.82 11.82 0 0 0-11.82 11.82v126.88a7.92 7.92 0 0 1-7.92 7.92h-90.3a7.92 7.92 0 0 1-7.92-7.92V823.43a11.82 11.82 0 0 0-11.82-11.82h-82.55a11.82 11.82 0 0 0-11.82 11.82v126.88a7.92 7.92 0 0 1-7.92 7.92h-134a9.68 9.68 0 0 0-9.68 9.68v110.54a9.68 9.68 0 0 0 9.68 9.68h88.55a7.92 7.92 0 0 1 7.92 7.92v555.19a7.92 7.92 0 0 1-7.92 7.92h-78.48a9.68 9.68 0 0 0-9.68 9.68v110.53a9.68 9.68 0 0 0 9.68 9.68h123.93a7.92 7.92 0 0 1 7.92 7.92v126.87a11.82 11.82 0 0 0 11.82 11.82h82.51a11.82 11.82 0 0 0 11.82-11.82V1797a7.92 7.92 0 0 1 7.92-7.92h90.3a7.92 7.92 0 0 1 7.92 7.92v126.86a11.82 11.82 0 0 0 11.82 11.82h82.51a11.82 11.82 0 0 0 11.85-11.79v-131.97a7.92 7.92 0 0 1 6.72-7.82c125.58-19.14 222.87-94.45 222.87-236.1-.02-83.87-43.46-167.74-133.83-195zm-298.4-264.83h136c71.08 0 106.62 43.29 106.62 103s-36.72 106.48-103.07 106.48h-139.56a9.68 9.68 0 0 1-9.68-9.68v-190.13a9.68 9.68 0 0 1 9.65-9.71zm153.81 571h-153.82a9.68 9.68 0 0 1-9.68-9.68V1429a9.68 9.68 0 0 1 9.68-9.68h153.81c77 0 122 50.31 122 119.36 0 70.2-43.8 120.53-122 120.53z"/><path class="cls-6" d="M2912.43 960.54l336 409.36a5.86 5.86 0 0 1 0 7.49l-336 409.36a6.49 6.49 0 0 1-9.93 0l-336-409.36a5.86 5.86 0 0 1 0-7.49l336-409.36a6.49 6.49 0 0 1 9.93 0z"/><g clip-path="url(#clip-path-2)"><rect class="cls-3" x="2734.18" y="182.96" width="346.55" height="266.57" rx="20.33" ry="20.33"/><rect class="cls-3" x="2734.19" y="2297.74" width="346.55" height="266.57" rx="20.33" ry="20.33"/><rect class="cls-3" x="1716.76" y="1200.35" width="266.57" height="346.55" rx="20.33" ry="20.33"/><rect class="cls-3" x="3831.59" y="1200.35" width="266.57" height="346.55" rx="20.33" ry="20.33"/><path class="cls-3" d="M2362.17 2164l-159.75 159.75a20.39 20.39 0 0 1-28.75 0l-216.3-216.3a20.39 20.39 0 0 1 0-28.75l159.75-159.75a20.39 20.39 0 0 1 28.75 0l216.3 216.3a20.39 20.39 0 0 1 0 28.75zM3857.55 668.58L3697.8 828.33a20.39 20.39 0 0 1-28.75 0L3452.75 612a20.39 20.39 0 0 1 0-28.75l159.75-159.72a20.39 20.39 0 0 1 28.75 0l216.3 216.31a20.39 20.39 0 0 1 0 28.74zM2117.11 828.32l-159.75-159.76a20.39 20.39 0 0 1 0-28.75l216.3-216.3a20.39 20.39 0 0 1 28.75 0l159.75 159.75a20.39 20.39 0 0 1 0 28.75l-216.3 216.3a20.39 20.39 0 0 1-28.75.01zM3612.52 2323.72L3452.77 2164a20.39 20.39 0 0 1 0-28.75l216.3-216.3a20.39 20.39 0 0 1 28.75 0l159.75 159.75a20.39 20.39 0 0 1 0 28.75l-216.3 216.3a20.39 20.39 0 0 1-28.75-.03z"/></g><path class="cls-8" d="M4744.53 1241.89c-89.59-32.16-170-54-174.93-103.28v-.61c-.92-43.49 43.87-58.38 92.09-58.38 70.32 0 179.45 40.9 224.26 58.64a6.62 6.62 0 0 0 8.51-3.52l62.8-144.87a6.63 6.63 0 0 0-3.19-8.6c-141.16-68.75-251.68-75.47-303.93-75.47-154.24 0-265.89 89.78-265.89 240.57 0 165.75 146.18 210.64 262.44 248.62 76 24.17 138.12 46 138.12 96.69 0 40.29-50.65 69.06-110.5 69.06-70.77 0-147-29.6-224.48-66.33a6.63 6.63 0 0 0-8.7 2.88l-75.67 142.8a6.63 6.63 0 0 0 2.71 9c102.47 54.42 196.64 84.35 313 84.35 176.11 0 298.12-109.35 298.12-249.78.06-147.38-123.1-202.66-234.76-241.77zm597.92-102.14c-225.86 0-289.83 180.42-289.83 302.64 0 125.71 66.35 301.47 289.83 301.47s289.83-175.76 289.83-301.47c0-122.22-66.34-302.64-289.82-302.64zm0 442.32c-100.1 0-114.07-104.76-114.07-139.68s14-140.84 114.07-140.84c98.94 0 112.91 105.92 112.91 140.84s-14 139.68-112.9 139.68zm790.64-631c-65.37-30.82-126-45.16-171.3-45.16-117.56 0-213 65.35-213 203.06v34.13a6.71 6.71 0 0 1-6.7 6.71h-44.81a6.71 6.71 0 0 0-6.7 6.71v144.12a6.71 6.71 0 0 0 6.7 6.71h44.81a6.71 6.71 0 0 1 6.7 6.71v412.54a6.71 6.71 0 0 0 6.7 6.71H5919a6.71 6.71 0 0 0 6.7-6.71v-412.47a6.71 6.71 0 0 1 6.7-6.71h90.2a6.71 6.71 0 0 0 6.7-6.71v-144.13a6.71 6.71 0 0 0-6.7-6.71h-90.2a6.71 6.71 0 0 1-6.7-6.71v-30.64c0-31.51 22.12-44.35 45.4-44.35s67.49 7.38 107.8 23.14a6.7 6.7 0 0 0 8.69-3.78v-.06l48.91-127.87a6.73 6.73 0 0 0-3.4-8.49zm343.23 616.05a6.7 6.7 0 0 0-8-5.06l-.24.06c-27.48 7.14-45.52 12.09-73.55 12.09-10.48 0-26.77-8.07-26.77-32.29V1314.5a6.67 6.67 0 0 1 6.7-6.63h91.37a6.67 6.67 0 0 0 6.7-6.63v-144.72a6.67 6.67 0 0 0-6.7-6.63h-91.37a6.67 6.67 0 0 1-6.7-6.63v-99.75a6.67 6.67 0 0 0-6.7-6.63h-152.54a6.67 6.67 0 0 0-6.66 6L6191.45 1144a6.67 6.67 0 0 1-6.66 6h-45.45a6.67 6.67 0 0 0-6.7 6.63v144.71a6.67 6.67 0 0 0 6.7 6.63h44.81a6.67 6.67 0 0 1 6.7 6.63v256.29c0 42.67 11.64 162.6 145.5 162.6 23.84 0 83.12-6.58 163.8-28.31a6.64 6.64 0 0 0 4.79-7.82zm511.53-325.48c-89.59-32.16-170-54-174.93-103.28v-.64c-.92-43.49 43.86-58.38 92.09-58.38 70.32 0 179.45 40.9 224.26 58.64a6.62 6.62 0 0 0 8.51-3.52l62.84-144.85a6.63 6.63 0 0 0-3.19-8.6c-141.16-68.75-251.68-75.47-303.93-75.47-154.24 0-265.89 89.78-265.89 240.57 0 165.75 146.18 210.64 262.44 248.62 76 24.17 138.13 46 138.13 96.69 0 40.29-50.65 69.06-110.5 69.06-70.77 0-147-29.6-224.48-66.33a6.63 6.63 0 0 0-8.7 2.88l-75.7 142.81a6.63 6.63 0 0 0 2.71 9c102.47 54.42 196.64 84.35 313 84.35 176.11 0 298.12-109.35 298.12-249.77 0-147.35-123.17-202.58-234.82-241.73zm1082-90.35H7891.3a4.47 4.47 0 0 0-4 2.58L7783 1378.3a4.48 4.48 0 0 1-8.09 0L7665 1147a4.47 4.47 0 0 0-4-2.54h-8.3a4.47 4.47 0 0 0-4 2.54l-109.94 231.38a4.48 4.48 0 0 1-8.09 0L7426.46 1154a4.47 4.47 0 0 0-4-2.58h-178.73a4.43 4.43 0 0 0-4 6.36l279.67 573.11a4.47 4.47 0 0 0 4 2.5h9.6a4.47 4.47 0 0 0 4-2.37l115.85-218.83a4.48 4.48 0 0 1 7.91 0L7776.64 1731a4.47 4.47 0 0 0 4 2.37h9.64a4.47 4.47 0 0 0 4-2.5L8074 1157.65a4.43 4.43 0 0 0-4.08-6.32zm266.28 0h-163.5a6.7 6.7 0 0 0-6.7 6.7v568.6a6.7 6.7 0 0 0 6.7 6.7h163.53a6.7 6.7 0 0 0 6.7-6.7V1158a6.7 6.7 0 0 0-6.69-6.65zM8255.53 858c-53.54 0-94.28 41.9-94.28 94.28 0 53.54 40.74 93.12 94.28 93.12 52.38 0 93.12-39.58 93.12-93.12 0-52.33-40.71-94.24-93.09-94.24zm500.65 526.82c-62-23.69-120.68-36.09-120.68-60.91 0-10.15 7.89-20.3 31.58-20.3 45 0 124 29.14 153.18 41.45a6.49 6.49 0 0 0 8.46-3.35l55.77-126a6.5 6.5 0 0 0-3.12-8.48c-108.83-52.62-190-55.89-219.93-55.89-116.17 0-196.25 67.67-196.25 180.46 0 122.94 104.89 161.29 180.46 183.85 49.63 14.66 75.57 16.92 75.57 38.35 0 15.79-23.69 22.56-46.24 22.56-41.5 0-95.69-19-153.36-46.87a6.49 6.49 0 0 0-8.58 2.87l-64.2 124.26a6.5 6.5 0 0 0 2.53 8.6c82.06 47.41 147.55 67.94 229.24 67.94 124.07 0 215.43-72.19 215.43-178.21-.04-104.87-72.18-144.31-139.86-170.31zm529 0c-62-23.69-120.69-36.09-120.69-60.91 0-10.15 7.9-20.3 31.58-20.3 45 0 124 29.14 153.19 41.45a6.49 6.49 0 0 0 8.46-3.35l55.77-126a6.5 6.5 0 0 0-3.12-8.48c-108.83-52.62-190-55.89-219.93-55.89-116.17 0-196.25 67.67-196.25 180.46 0 122.94 104.9 161.29 180.46 183.85 49.63 14.66 75.57 16.92 75.57 38.35 0 15.79-23.69 22.56-46.24 22.56-41.5 0-95.69-19-153.36-46.87a6.49 6.49 0 0 0-8.58 2.87l-64.18 124.26a6.5 6.5 0 0 0 2.53 8.6c82.06 47.41 147.55 67.94 229.24 67.94 124.07 0 215.43-72.19 215.43-178.21 0-104.89-72.19-144.33-139.86-170.33z"/><path class="cls-9" d="M4738.83 2050.68a5 5 0 0 1-7.07-.17l-.09-.1c-27.63-31.28-79.13-58.37-122.88-58.37-125.53 0-143.06 119-143.06 159s18.23 158.25 143.76 158.25c45.21 0 95-24.63 128-53.32a5 5 0 0 1 7.05.5l.06.07 49.93 60.45a5 5 0 0 1-.38 6.73c-49.79 48.56-108.52 79.4-185.37 79.4-187.24 0-244-147-244-252.08 0-102.23 56.8-251.38 244-251.38 82.32 0 139.8 34.84 188.22 88.13a5 5 0 0 1-.21 6.92zM5004.31 2039.25c119.92 0 129.74 77.76 129.74 149.22v202.37a5 5 0 0 1-5 5h-57.3a5 5 0 0 1-4.74-3.48l-3.78-12.09a5 5 0 0 0-7.68-2.51c-21.18 15.44-49 23.81-77.91 25.09-109.4 4.9-129.74-68.66-129.74-110 0-96 77.84-116.29 150.07-116.29a176.36 176.36 0 0 1 34.66 3.64 5 5 0 0 0 5.92-5c-1.36-43.49-17.4-51.17-46.89-51.17-15.46 0-54.74 8.36-89.46 22.62a5 5 0 0 1-6.45-2.64l-27.09-63.36a5 5 0 0 1 2.35-6.4c40.99-20.59 85.15-35 133.3-35zm34.36 219.59a5 5 0 0 0-3.67-4.79c-10.52-2.83-25.44-6.72-39.81-6.72-28 0-56.8 7.71-56.8 40.63 0 21 19.64 32.23 41.38 32.23 25 0 48.69-13.65 57.92-25.93a5 5 0 0 0 1-3zM5353.54 2175.34c52.6 16.92 119.92 38.78 119.92 119.87 0 64.16-56.1 107.88-131.84 107.88-51.12 0-91.65-13.32-139-40.62a5 5 0 0 1-2-6.61l33.49-66.09a5 5 0 0 1 6.63-2.21c34.35 17.23 69 30.21 97.3 30.21 20.34 0 38.57-8.46 38.57-21.86 0-20.45-26.65-28.91-58.21-38.08-49.79-15.51-108.7-35.25-108.7-109.29 0-68.39 48.39-109.29 119.22-109.29 19.19 0 68.53 4 131.64 34.51a5 5 0 0 1 2.38 6.6l-31.63 69.22a5 5 0 0 1-6.62 2.44c-28.23-13.28-64.59-25.33-84.55-25.33-19.64 0-38.57 4.23-38.57 19 .07 12.72 23.21 20.48 51.97 29.65zM5591.09 1885c30.16 0 53.3 23.81 53.3 53.92 0 30.81-23.14 53.22-53.3 53.22-30.86 0-54-22.41-54-53.22 0-30.16 23.14-53.92 54-53.92zm42 518.16h-85.44a5 5 0 0 1-5-4.95v-339.1a5 5 0 0 1 5-4.95h85.44a5 5 0 0 1 5 4.95v339.1a5 5 0 0 1-5 5zM5803.68 2403.08H5719a5 5 0 0 1-5-5v-348.02a5 5 0 0 1 4.92-5.08H5775a5 5 0 0 1 4.71 3.47l5.07 15.53a4.92 4.92 0 0 0 7.65 2.48c25.45-19.11 54.8-27.21 82.93-27.21 133.24 0 150.78 95.25 150.78 179V2398a5 5 0 0 1-4.92 5.08h-86.92a5 5 0 0 1-5-5V2218.3c0-38.67-5.61-92.39-57.51-92.39-28.55 0-50.5 14.13-62 29.34a5.22 5.22 0 0 0-1.07 3.15V2398a5 5 0 0 1-4.87 5.13zM6420.16 2221.52c0 75.71-40 181.56-174.62 181.56s-174.62-105.85-174.62-181.56c0-73.61 40-182.27 174.62-182.27s174.62 108.66 174.62 182.27zm-94.67 0c0-23.84-9.82-97.44-80-97.44s-80.65 73.61-80.65 97.44 10.52 96.74 80.65 96.74 80-72.91 80-96.74zM6913.15 2100.59c76.44 25.91 173.92 56.72 167.61 161.75-4.91 79.82-76.44 140.74-178.83 140.74-71.84 0-127-16.66-185.65-47.39a5 5 0 0 1-2.07-6.71l38.93-73.35a5 5 0 0 1 6.52-2.16c45.56 21.42 91.13 37.88 137.36 37.88 42.78 0 73.63-18.21 78.54-46.92 5.61-35-30.86-53.92-78.54-68.62-74.34-23.11-173.92-46.92-173.92-153.35 0-89.63 66.62-142.85 159.19-142.85 27.55 0 93.65 6.08 174.4 42.78a5 5 0 0 1 2.52 6.48l-31.93 74.39a5 5 0 0 1-6.45 2.64c-26.57-10.9-85.28-33.9-131.53-33.9-34.27 0-65 11.14-66.61 45.22v.58c1.64 32.75 42.21 46.04 90.46 62.79zM7460.15 2221.63c0 75.66-40 181.44-174.62 181.44s-174.62-105.78-174.62-181.44c0-73.56 40-182.15 174.62-182.15s174.62 108.59 174.62 182.15zm-94.67 0c0-23.82-9.82-97.38-80-97.38s-80.65 73.56-80.65 97.38 10.52 96.68 80.65 96.68 79.94-72.86 79.94-96.68zM7730.5 2004.78a5 5 0 0 1-6.42 2.89c-21.47-8.08-46.33-13.54-62.67-13.54-18.23 0-36.47 9.07-36.47 37v18.08a5 5 0 0 0 5 4.95h55.28a5 5 0 0 1 5 4.95v71.73a5 5 0 0 1-5 4.95h-55.28a5 5 0 0 0-5 4.95v257.4a5 5 0 0 1-5 4.95h-85.43a5 5 0 0 1-5-4.95v-257.4a5 5 0 0 0-5-4.95H7498a5 5 0 0 1-5-4.95v-71.76a5 5 0 0 1 5-4.95h26.53a5 5 0 0 0 5-4.95v-20.88c0-81 56.8-118.64 126.23-118.64 27.64 0 62.41 7.09 96.83 23.14a5 5 0 0 1 2.56 6.22zM7756.08 2132v-73a4.93 4.93 0 0 1 5-4.89h27a4.94 4.94 0 0 0 4.94-4.39l6.1-58.8a4.94 4.94 0 0 1 4.94-4.39H7883a4.93 4.93 0 0 1 5 4.86v57.84a4.93 4.93 0 0 0 5 4.89h56a4.93 4.93 0 0 1 5 4.86v73a4.93 4.93 0 0 1-5 4.89h-56a4.93 4.93 0 0 0-5 4.86V2299c0 16.55 8.42 22.07 19.64 22.07 12.63 0 29.25-5 44.73-9.06a5 5 0 0 1 6.09 3.59v.14l14.11 66.38a4.89 4.89 0 0 1-3.54 5.71c-44.14 12.07-78.74 15.3-93 15.3-76.44 0-83.45-69-83.45-93.79v-167.56a4.93 4.93 0 0 0-5-4.89H7761a4.93 4.93 0 0 1-4.92-4.89zM8251 2050.65h.53a3.91 3.91 0 0 1 3.58 2.31l69 154.71a3.93 3.93 0 0 0 7.17 0l66.25-151.19a3.91 3.91 0 0 1 3.59-2.33h91.55a3.87 3.87 0 0 1 3.54 5.52l-162.57 341.17a3.92 3.92 0 0 1-3.54 2.22 3.92 3.92 0 0 1-3.51-2.15L8254 2256a3.93 3.93 0 0 0-7 0l-73.25 145a3.92 3.92 0 0 1-3.5 2.14 3.92 3.92 0 0 1-3.54-2.23l-161.82-341.22a3.87 3.87 0 0 1 3.54-5.51H8100a3.91 3.91 0 0 1 3.59 2.33l66.28 151.27a3.93 3.93 0 0 0 7.16 0l70.37-154.84a3.91 3.91 0 0 1 3.6-2.29zM8672.63 2039.2c119.92 0 129.74 77.77 129.74 149.24v202.4a5 5 0 0 1-5 5h-57.3a5 5 0 0 1-4.74-3.48l-3.78-12.09a5 5 0 0 0-7.68-2.51c-21.18 15.44-49 23.81-77.91 25.1-109.4 4.9-129.74-68.67-129.74-110 0-96 77.84-116.31 150.07-116.31a176.33 176.33 0 0 1 34.66 3.64 5 5 0 0 0 5.92-5c-1.36-43.5-17.4-51.18-46.89-51.18-15.46 0-54.74 8.36-89.46 22.63a5 5 0 0 1-6.45-2.64l-27.07-63.4a5 5 0 0 1 2.35-6.4c40.92-20.58 85.14-35 133.28-35zm34.37 219.64a5 5 0 0 0-3.67-4.79c-10.52-2.83-25.44-6.72-39.81-6.72-28 0-56.8 7.71-56.8 40.64 0 21 19.64 32.23 41.38 32.23 25 0 48.69-13.65 57.92-25.93a5 5 0 0 0 1-3zM9067.39 2137.84a5 5 0 0 1-5.69 3.37 188.49 188.49 0 0 0-37-4c-22 0-43.39 6.06-56.77 27.42a4.89 4.89 0 0 0-.73 2.59v230.92a5 5 0 0 1-5 4.95h-84.73a5 5 0 0 1-5-4.95v-339.06a5 5 0 0 1 5-4.95h56.14a5 5 0 0 1 4.63 3.16l5 12.89a5 5 0 0 0 7.23 2.43c26.53-15.89 54.38-22.67 84.71-22.67a355.11 355.11 0 0 1 52.66 4.51 4.94 4.94 0 0 1 3.88 6.36zM9208.62 2237.84a5 5 0 0 0-4.89 6c7.19 39.26 32.79 72 76.2 72 28 0 57.9-10.25 83.68-28.94a4.93 4.93 0 0 1 6.89 1.08l40.6 56.61a5.08 5.08 0 0 1-.9 6.87c-40.79 33.52-80.58 51.57-130.29 51.57-133.94 0-175.32-105.67-175.32-182.27 0-74.47 41.38-181.56 175.32-181.56 93.27 0 145.17 60.28 145.17 152.48 0 13.44-1.14 27.45-2.4 41.53a5 5 0 0 1-5 4.57zm4.08-56.74h113.22a5 5 0 0 0 5-5v-.38c-1.8-26.86-12.8-50-51-50.66-36.45 0-60.22 20.16-71.85 49.15a5 5 0 0 0 4.63 6.88z"/><path class="cls-8" d="M4602.51 379.33q-19.54-13.28-45.84-19.27a254.58 254.58 0 0 0-56.52-6H4380.7a16 16 0 0 0-16 16v336.83a16 16 0 0 0 16 16h57.1a16 16 0 0 0 16-16v-107.1a16 16 0 0 1 16-16h28.29a240.35 240.35 0 0 0 55.22-6.25q26.57-6.25 46.88-19.8a98.42 98.42 0 0 0 32.3-35.68q12-22.14 12-54.44 0-31.77-11.2-53.4a93.49 93.49 0 0 0-30.78-34.89zm-52.35 110.44a39.08 39.08 0 0 1-14.33 13.8 64.17 64.17 0 0 1-20.58 7.29 133.53 133.53 0 0 1-24 2.08h-21.52a16 16 0 0 1-16-16v-55a16 16 0 0 1 16-16h23.08a167.76 167.76 0 0 1 23.19 1.56 60.4 60.4 0 0 1 20.06 6.25 36.37 36.37 0 0 1 14.06 13q5.2 8.34 5.21 21.36t-5.16 21.66zm475.35-93.51q-26.84-25-63.81-38.55t-80.22-13.54q-43.25 0-80 13.54T4738 396.26q-26.84 25-41.94 60.69T4681 537q0 43.76 15.11 80t41.89 61.84q26.82 25.79 63.55 39.85t80 14.07q43.23 0 80.22-14.07t63.74-39.85q26.82-25.79 41.94-62t15.11-80q0-44.27-15.11-80t-41.94-60.58zM4979.41 583a106.87 106.87 0 0 1-21.88 36.2 101.5 101.5 0 0 1-33.34 23.7q-19.28 8.59-42.72 8.6t-42.72-8.6a98.55 98.55 0 0 1-33.08-23.7A109.12 109.12 0 0 1 4784 583a131.77 131.77 0 0 1-7.81-46.1 130.44 130.44 0 0 1 7.55-44.8 101.36 101.36 0 0 1 21.62-35.68 103.39 103.39 0 0 1 33.39-23.42q19.27-8.6 42.72-8.6a105.54 105.54 0 0 1 43 8.6 99.81 99.81 0 0 1 33.34 23.44 106.88 106.88 0 0 1 21.62 35.68 126.6 126.6 0 0 1 7.81 44.8 131.77 131.77 0 0 1-7.83 46.1zm636.74-228.95h-59a16 16 0 0 0-15.54 12.23l-56.43 233.13h-1.56l-63-233.53a16 16 0 0 0-15.44-11.83H5337a16 16 0 0 0-15.45 11.86l-62.47 233.5h-1.56l-55.42-233.07a16 16 0 0 0-15.56-12.29h-62a16 16 0 0 0-15.38 20.36l95.63 336.84a16 16 0 0 0 15.46 11.58h64.49a16 16 0 0 0 15.35-11.5l69.57-238h1.56l69.57 238a16 16 0 0 0 15.35 11.5h64a16 16 0 0 0 15.38-11.6l96.1-336.84a16 16 0 0 0-15.4-20.34zm300.57 292.78h-139.4a16 16 0 0 1-16-16v-44.6a16 16 0 0 1 16-16h121.17a16 16 0 0 0 16-16v-39.4a16 16 0 0 0-16-16h-121.18a16 16 0 0 1-16-16v-37.76a16 16 0 0 1 16-16h130a16 16 0 0 0 16-16v-43a16 16 0 0 0-16-16h-216a16 16 0 0 0-16 16v336.82a16 16 0 0 0 16 16h225.36a16 16 0 0 0 16-16v-44a16 16 0 0 0-15.95-16.05zM6207 581.64a16 16 0 0 1 6.87-23q24-10.94 39.27-30.08 20.32-25.52 20.32-63 0-31.77-12-53.14a96.87 96.87 0 0 0-32-34.38 134.91 134.91 0 0 0-45.32-18.49 244.31 244.31 0 0 0-51.83-5.47h-124.7a16 16 0 0 0-16 16v336.81a16 16 0 0 0 16 16h55a16 16 0 0 0 16-16v-114.4a16 16 0 0 1 16-16h4.89a16 16 0 0 1 14 8.32l71 129.75a16 16 0 0 0 14 8.32h66.21a16 16 0 0 0 13.65-24.32zM6179.34 490a39.83 39.83 0 0 1-15.44 13.54 71.89 71.89 0 0 1-20.93 6.51 143.32 143.32 0 0 1-22.51 1.82H6094a16 16 0 0 1-16-16v-54a16 16 0 0 1 16-16h31.64a143.61 143.61 0 0 1 20.67 1.56 61.83 61.83 0 0 1 19.37 6 37.66 37.66 0 0 1 14.13 12.5q5.49 8.08 5.5 21.1 0 14.1-6 23zm399 156.8h-139.4a16 16 0 0 1-16-16v-44.6a16 16 0 0 1 16-16h121.17a16 16 0 0 0 16-16v-39.4a16 16 0 0 0-16-16h-121.22a16 16 0 0 1-16-16v-37.73a16 16 0 0 1 16-16h130a16 16 0 0 0 16-16v-43a16 16 0 0 0-16-16h-216a16 16 0 0 0-16 16v336.82a16 16 0 0 0 16 16h225.41a16 16 0 0 0 16-16v-44a16 16 0 0 0-16-16zm353-253.43q-29.69-21.1-67.72-30.21a329.9 329.9 0 0 0-77.1-9.12h-117.38a16 16 0 0 0-16 16v336.85a16 16 0 0 0 16 16h121.53a269.07 269.07 0 0 0 75-10.68 197.58 197.58 0 0 0 66.44-33.37q29.42-22.66 47.4-57.82t18-83.61q0-52.08-18.23-87.52t-47.95-56.5zM6894.6 589q-10.16 20.84-27.09 33.34a109 109 0 0 1-39.07 18 191.58 191.58 0 0 1-46.1 5.47h-26.2a16 16 0 0 1-16-16v-183.7a16 16 0 0 1 16-16h28.29a189.81 189.81 0 0 1 44.54 5.21 108.58 108.58 0 0 1 38.55 17.45q16.92 12.25 27.09 32.82t10.16 51.83q-.01 30.76-10.17 51.58zm557.4-31.77a85.17 85.17 0 0 0-24-18 101.22 101.22 0 0 0-29.43-9.64v-1q27.08-8.85 43.76-28.91t16.67-50.84q0-28.13-11.46-46.36a86.08 86.08 0 0 0-29.69-28.91 129.7 129.7 0 0 0-40.63-15.11 225.86 225.86 0 0 0-43.76-4.43h-130.89a16 16 0 0 0-16 16v336.86a16 16 0 0 0 16 16h130.91a244.31 244.31 0 0 0 51.83-5.47 138.54 138.54 0 0 0 45.06-18 95.11 95.11 0 0 0 31.78-33.08q12-20.57 12-50.79 0-18.23-6-32.82a84.15 84.15 0 0 0-16.15-25.5zM7272.53 440.9a16 16 0 0 1 16-16h27.77q28.13 0 42.46 8.6t14.31 27.34q0 19.8-13.8 30T7320.46 501h-31.93a16 16 0 0 1-16-16zm106.79 188.47a39.1 39.1 0 0 1-14.85 13.28 68 68 0 0 1-20.32 6.51 134 134 0 0 1-21.62 1.82h-34a16 16 0 0 1-16-16V582.6a16 16 0 0 1 16-16H7322q28.64 0 45.84 8.86t17.16 31.78q0 13.55-5.71 22.14zM7824 354.06h-65.07a16 16 0 0 0-13.85 8l-60.18 104.45a16 16 0 0 1-27.71 0L7597 362.07a16 16 0 0 0-13.86-8h-69.08a16 16 0 0 0-13.4 24.73l119.85 183.83a16 16 0 0 1 2.6 8.73v135.53a16 16 0 0 0 16 16h57.1a16 16 0 0 0 16-16V571.45a16 16 0 0 1 2.69-8.87l122.43-183.65a16 16 0 0 0-13.33-24.87z" opacity=".4"/></g></g></g></g></svg>