<svg version="1.1" xmlns="http://www.w3.org/2000/svg" xmlns:xlink="http://www.w3.org/1999/xlink" x="0px" y="0px"
	 viewBox="0 0 24.3 12.3" style="enable-background:new 0 0 24.3 12.3;" xml:space="preserve">
<path fill="#0F9AF2" d="M0,0h24l-5,6.1l5,6.1H0V0z"/>
<path fill="#FFFFFF" d="M2.9,4.3l2,3v-3c0-0.2,0-0.3,0.1-0.4C5,3.7,5.1,3.7,5.3,3.7c0.1,0,0.3,0,0.3,0.1C5.7,3.9,5.7,4,5.7,4.2v3.9
	c0,0.4-0.2,0.7-0.5,0.7c-0.1,0-0.2,0-0.2,0c-0.1,0-0.1-0.1-0.2-0.1C4.7,8.6,4.6,8.5,4.6,8.5S4.5,8.3,4.4,8.2L2.5,5.3v2.9
	c0,0.2,0,0.3-0.1,0.4C2.3,8.8,2.2,8.8,2,8.8c-0.1,0-0.3,0-0.3-0.1C1.6,8.6,1.5,8.4,1.5,8.3V4.4c0-0.2,0-0.3,0.1-0.4
	c0-0.1,0.1-0.2,0.2-0.3C1.9,3.7,2,3.7,2.1,3.7c0.1,0,0.2,0,0.2,0c0.1,0,0.1,0.1,0.2,0.1c0,0.1,0.1,0.1,0.2,0.2
	C2.8,4.1,2.8,4.2,2.9,4.3z M10.2,4.5H7.9v1.2H10c0.2,0,0.3,0,0.3,0.1c0.1,0.1,0.1,0.2,0.1,0.3s0,0.2-0.1,0.3
	c-0.1,0.1-0.2,0.1-0.3,0.1H7.9v1.4h2.4c0.2,0,0.3,0,0.4,0.1s0.1,0.2,0.1,0.3c0,0.1,0,0.2-0.1,0.3c-0.1,0.1-0.2,0.1-0.4,0.1H7.5
	c-0.2,0-0.4,0-0.5-0.1C6.9,8.5,6.9,8.3,6.9,8.1V4.4c0-0.1,0-0.3,0.1-0.4C7,3.9,7,3.8,7.1,3.8c0.1,0,0.2-0.1,0.4-0.1h2.7
	c0.2,0,0.3,0,0.4,0.1c0.1,0.1,0.1,0.2,0.1,0.3c0,0.1,0,0.2-0.1,0.3C10.4,4.5,10.3,4.5,10.2,4.5z M15.1,8l-0.8-3l-0.8,3
	c-0.1,0.2-0.1,0.4-0.2,0.5c0,0.1-0.1,0.2-0.2,0.3c-0.1,0.1-0.2,0.1-0.4,0.1c-0.1,0-0.2,0-0.3-0.1s-0.1-0.1-0.2-0.2
	c0-0.1-0.1-0.2-0.1-0.3C12.1,8.1,12,8,12,7.9l-0.8-3.4c-0.1-0.2-0.1-0.3-0.1-0.4c0-0.1,0-0.2,0.1-0.3c0.1-0.1,0.2-0.1,0.3-0.1
	c0.2,0,0.3,0.1,0.4,0.2c0.1,0.1,0.1,0.3,0.2,0.5l0.7,2.9l0.7-2.7c0.1-0.2,0.1-0.4,0.1-0.5s0.1-0.2,0.2-0.3s0.2-0.1,0.4-0.1
	c0.2,0,0.3,0,0.4,0.1C14.8,3.9,14.8,4,14.9,4c0,0.1,0.1,0.3,0.1,0.5l0.7,2.7l0.7-2.9c0-0.2,0.1-0.3,0.1-0.4s0.1-0.2,0.1-0.2
	s0.2-0.1,0.3-0.1c0.1,0,0.2,0,0.3,0.1c0.1,0.1,0.1,0.2,0.1,0.3c0,0.1,0,0.2-0.1,0.4l-0.8,3.4c-0.1,0.2-0.1,0.4-0.1,0.5
	c0,0.1-0.1,0.2-0.2,0.3c-0.1,0.1-0.2,0.1-0.4,0.1c-0.2,0-0.3,0-0.4-0.1c-0.1-0.1-0.2-0.2-0.2-0.3C15.2,8.4,15.1,8.2,15.1,8z"/>
</svg>
