<svg xmlns="http://www.w3.org/2000/svg" width="442.4" height="100.472" viewBox="0 0 117.052 26.583" version="1.1" id="svg8"><g id="layer1" transform="translate(-36.724 -166.536)"><g id="g62" transform="matrix(.26458 0 0 .26458 29.104 146.89)"><g id="g24"><path id="path12" d="M277.8 144.6c0 1.6-1.3 3.5-3.9 5.5-2.6 2-7.4 3.1-14.4 3.1s-12.8-2.2-17.3-6.5c-4.5-4.4-6.8-10.1-6.8-17.1 0-7 2.3-12.8 6.8-17.1 4.5-4.4 10.3-6.6 17.4-6.6 7.1 0 11.9 1 14.4 3.1 2.5 2 3.8 3.9 3.8 5.5s-.5 3.1-1.6 4.4c-1.1 1.3-2.3 1.9-3.6 1.9-1.3 0-3.3-.5-6.1-1.5s-4.9-1.5-6.3-1.5c-7.6 0-11.4 3.9-11.4 11.8s3.8 11.8 11.4 11.8c1.4 0 3.5-.5 6.3-1.5s4.9-1.5 6.1-1.5c1.3 0 2.5.6 3.6 1.9 1.1 1.2 1.6 2.7 1.6 4.3z" class="st0" fill="#fff"/><path id="path14" d="M295 144.7l-1.3 3.4c-1.1 3.1-3 4.6-5.7 4.6-2.6 0-4.5-.8-5.6-2.4-1.1-1.6-1.7-3.1-1.7-4.3 0-1.2.3-2.5.8-3.8l13.9-30.5c1.4-3.1 3.5-4.6 6.4-4.6 2.9 0 5 1.5 6.4 4.6l14 30.5c.6 1.3.9 2.5.9 3.8 0 1.3-.6 2.7-1.7 4.3-1.1 1.6-3 2.4-5.7 2.4s-4.6-1.5-5.7-4.6l-1.3-3.4zm9.8-10.8l-2.9-7.9-2.9 7.9z" class="st0" fill="#fff"/><path id="path16" d="M344.2 152.9c-4.3 0-8.5-.7-12.6-2.1-4.1-1.4-6.1-3.8-6.1-7.4 0-3.5 1.6-5.3 4.8-5.3.5 0 2.4.6 5.6 1.9 3.3 1.2 6.1 1.9 8.5 1.9 2.4 0 3.6-1 3.6-3 0-1.3-.8-2.4-2.5-3.3-1.6-.9-3.9-1.8-6.9-2.8-2.9-1-4.8-1.7-5.5-2.2-3.4-2.3-5.1-5.6-5.1-10s1.4-7.9 4.3-10.6c2.8-2.7 6.1-4 9.9-4 3.8 0 7.1.4 9.9 1.3 5.3 1.7 7.4 4.1 6.4 7.4-1 3.3-2.9 4.8-5.6 4.5-.2 0-1.6-.5-4.1-1.4-2.5-.9-4.6-1.4-6.5-1.4-1.9 0-2.9.9-2.9 2.8 0 1.2.8 2.2 2.4 3.1 1.6.9 3.9 1.8 6.8 2.8 2.9 1 4.8 1.8 5.6 2.3 3.5 2.3 5.2 5.8 5.2 10.5s-1.5 8.3-4.5 11c-2.7 2.7-6.3 4-10.7 4z" class="st0" fill="#fff"/><path id="path18" d="M375.7 146.9c0 3.9-2.2 5.9-6.7 5.9s-6.7-2-6.7-5.9V113c0-3.9 2.2-5.9 6.7-5.9s6.7 2 6.7 5.9z" class="st0" fill="#fff"/><path id="path20" d="M406.7 127.5V113c0-3.9 2.2-5.9 6.7-5.9s6.7 2 6.7 5.9v33.9c0 3.9-2.2 5.9-6.7 5.9-2.5 0-4.4-.9-5.9-2.6l-15-17.8v14.5c0 3.9-2.2 5.9-6.7 5.9s-6.7-2-6.7-5.9V113c0-3.9 2.2-5.9 6.7-5.9 2.9 0 4.9.9 6.1 2.8z" class="st0" fill="#fff"/><path id="path22" d="M471.2 129.5c0 7.1-2.3 12.8-6.9 17.1-4.6 4.4-10.4 6.5-17.4 6.5-7 0-12.8-2.2-17.3-6.5-4.5-4.4-6.8-10.1-6.8-17.1 0-7 2.3-12.8 6.8-17.1 4.5-4.4 10.3-6.6 17.4-6.6 7.1 0 12.9 2.2 17.4 6.6 4.6 4.4 6.8 10.1 6.8 17.1zm-16-8.4c-2-2.2-4.7-3.3-8.1-3.3-3.4 0-6.1 1.1-8.1 3.4-2 2.2-3.1 5.1-3.1 8.5 0 3.4 1 6.2 3.1 8.4 2 2.2 4.8 3.3 8.1 3.3 3.4 0 6.1-1.1 8.1-3.3 2-2.2 3.1-5 3.1-8.4 0-3.4-1.1-6.4-3.1-8.6z" class="st0" fill="#fff"/></g><g id="g38"><g id="g28"><path id="path26" d="M74 173.2c-3.5-.3-6.1-3.6-7.8-9.5-1.7-5.4-3.4-10.6-5.1-15.6-1.6 5.2-3.2 10.2-4.8 15-1.7 5.2-4.3 7.2-7.5 6.6-3.3-.7-5.8-3.6-7.7-8.2-3.9-14.4-7.7-26.3-11.4-35.5-.6-1.4-.9-2.9-.9-4.4 0-1.5.6-3.4 1.8-5.8 1.2-2.4 3.3-5 6.4-7.4 3.1-2.4 5.3-1.9 6.5 1.7 2 6.2 4 13 6.1 20.5 1.2-3.9 2.5-8 3.7-12.2 1.7-5.8 4.2-9.7 7.6-11.1 3.4-1.4 6 .4 7.8 5.6 1.3 3.8 2.6 7.8 4 11.9 2.1-10.3 4.2-21 6.3-31.9 1.3-6.5 3.6-10.5 7.1-11.6 3.5-1.1 6-.3 7.4 2.3 1.4 2.5 2.1 5.3 2.2 8.2 0 2.9-.3 6-1 9.4-3.9 19.9-8 40.8-12.4 63-2.1 6.5-4.8 9.4-8.3 9z" class="st1" fill="#ee3661"/></g><g id="g32"><path id="path30" d="M161.5 126.1c-.1 13.8-3.1 25-9.1 34-5.9 9.1-13.4 14.2-22.5 14.6-9.1.4-16.5-4.2-22.4-13.4-5.9-9.1-8.8-20.9-8.9-35.7 0-14.7 2.8-27.1 8.7-37 5.9-9.8 13.6-14.9 22.9-14.3 9.4.7 17 6.6 22.7 16.4 5.9 10 8.7 21.6 8.6 35.4zm-20.6-18.9c-2.6-4.8-6.2-7.5-10.6-7.6-4.4-.2-8 2.2-10.7 7-2.7 4.8-4 10.9-4 18.2 0 7.3 1.3 13.2 4 17.9 2.7 4.7 6.2 6.9 10.6 6.9 4.4-.1 7.9-2.5 10.6-7.1 2.7-4.6 4-10.4 4.1-17.4-.1-7.2-1.4-13.1-4-17.9z" class="st1" fill="#ee3661"/></g><g id="g36"><path id="path34" d="M222.7 132.9c0 8.3-2.5 15-7.8 21.7-5.3 6.7-12.2 11.9-20.7 13.5-8.5 1.6-15.7-1.2-21.3-9-5.6-7.8-8.4-19.1-8.3-32.8.1-13.7 3.1-24.5 8.9-31.2 5.8-6.7 13.1-7.8 21.6-4.1 8.5 3.7 15.2 10.6 20.2 18.4 5 8 7.4 15.2 7.4 23.5zm-18.2-14.8c-2.4-3.9-5.5-6.6-9.6-7.8-4.1-1.1-7.4-.1-10 3.3-2.6 3.4-3.9 8.3-4 14.4-.1 6.1 1.2 11.3 3.7 15.2 2.5 3.9 5.8 5.7 9.9 5.5 4.1-.1 7.3-2.1 9.8-5.4 2.4-3.3 3.7-7.3 3.7-12.1 0-5-1.2-9.2-3.5-13.1z" class="st1" fill="#ee3661"/></g></g></g></g><style id="style10" type="text/css">.st0{fill:#fff}.st1{fill:#ee3661}</style></svg>