<svg xmlns="http://www.w3.org/2000/svg" width="512" height="477.43" viewBox="0 0 512 477.43">
  <title>bonus</title>
  <g id="Layer_2" data-name="Layer 2">
    <g id="Layer_1-2" data-name="Layer 1">
      <g>
        <path d="M469.16,210.43H42.84a8.08,8.08,0,0,0-8.08,8.08V469.35a8.08,8.08,0,0,0,8.08,8.08H469.16a8.08,8.08,0,0,0,8.08-8.08V218.52A8.08,8.08,0,0,0,469.16,210.43Z" style="fill: #f7434c"/>
        <path d="M469.16,210.43H42.84a8.08,8.08,0,0,0-8.08,8.08v32.34H477.25V218.52A8.08,8.08,0,0,0,469.16,210.43Z" style="fill: #db2e37"/>
        <path d="M297.3,210.43H214.7a8.08,8.08,0,0,0-8.08,8.08V469.35a8.08,8.08,0,0,0,8.08,8.08h82.6a8.08,8.08,0,0,0,8.08-8.08V218.52A8.08,8.08,0,0,0,297.3,210.43Z" style="fill: #ffdb57"/>
        <path d="M297.3,210.43H214.7a8.08,8.08,0,0,0-8.08,8.08v32.16h98.77V218.52A8.08,8.08,0,0,0,297.3,210.43Z" style="fill: #f5ba3d"/>
        <path d="M453.41,61.1C445.49,40.43,433,20.26,420,7.11A24.67,24.67,0,0,0,401.42,0c-24.27.56-63.82,31-117.56,90.54A8.08,8.08,0,0,0,281.78,96v42.76a8.08,8.08,0,0,0,8.08,8.08H414.21c27.71,0,39.14-13.48,43.86-24.79C464.36,106.95,462.7,85.31,453.41,61.1Z" style="fill: #ffdb57"/>
        <path d="M458,75.18A8.07,8.07,0,0,0,457,72.85c-12.21-18.46-38.58-11.55-58.56-2.51-58,26.27-82,62.46-83,64a8.08,8.08,0,0,0,6.78,12.49h92c17.63,0,30.71-5.41,38.86-16.09C462.77,118,464.48,98.84,458,75.18Z" style="fill: #ef9325"/>
        <path d="M228.14,90.55C174.41,31,134.85.57,110.58,0A24.63,24.63,0,0,0,92,7.11c-13,13.14-25.53,33.32-33.46,54C49.3,85.31,47.64,106.95,53.93,122c4.71,11.31,16.15,24.79,43.86,24.79H222.14a8.08,8.08,0,0,0,8.08-8.08V96A8.08,8.08,0,0,0,228.14,90.55Z" style="fill: #ffdb57"/>
        <path d="M196.58,134.33c-1-1.53-25-37.72-83-64-20-9-46.35-15.95-58.56,2.51A8.1,8.1,0,0,0,54,75.18c-6.44,23.66-4.73,42.87,5,55.54,8.16,10.67,21.23,16.09,38.86,16.09h92a8.08,8.08,0,0,0,6.78-12.49Z" style="fill: #ef9325"/>
        <path d="M289.86,79.89H222.14A8.08,8.08,0,0,0,214.05,88v50.75a8.08,8.08,0,0,0,8.08,8.08h67.72a8.08,8.08,0,0,0,8.08-8.08V88A8.08,8.08,0,0,0,289.86,79.89Z" style="fill: #f5ba3d"/>
        <path d="M503.92,130.66H8.08A8.08,8.08,0,0,0,0,138.74v79.77a8.08,8.08,0,0,0,8.08,8.08H503.92a8.08,8.08,0,0,0,8.08-8.08V138.74A8.08,8.08,0,0,0,503.92,130.66Z" style="fill: #f7434c"/>
        <rect x="193.9" y="130.66" width="124.2" height="95.94" style="fill: #ffdb57"/>
      </g>
    </g>
  </g>
</svg>
