<?xml version="1.0" encoding="utf-8"?>
<!-- Generator: Adobe Illustrator 22.0.0, SVG Export Plug-In . SVG Version: 6.00 Build 0)  -->
<svg xmlns="http://www.w3.org/2000/svg" xmlns:xlink="http://www.w3.org/1999/xlink" version="1.1" id="Layer_2" x="0px" y="0px" viewBox="0 0 256 256" style="enable-background:new 0 0 256 256;" xml:space="preserve" width="512" height="512">
<style type="text/css">
	.st0{fill:#3A312A;}
	.st1{fill:#D7E057;}
	.st2{fill:#FCE8CB;}
	.st3{fill:#F16C7A;}
	.st4{fill:#87796F;}
	.st5{fill:#8AC6DD;}
	.st6{fill:#D34E5C;}
	.st7{fill:#6CA8BF;}
	.st8{fill-rule:evenodd;clip-rule:evenodd;fill:#FCE8CB;}
	.st9{fill:#695B51;}
	.st10{fill:#B9C239;}
	.st11{fill:#DECAAD;}
	.st12{fill:#FCE8CB;stroke:#3A312A;stroke-width:3;stroke-linecap:round;stroke-linejoin:round;stroke-miterlimit:10;}
	.st13{fill:#F5978A;}
</style>
<g>
	<g>
		<g>
			<path class="st4" d="M215.536,21.917H34.464c-11.249,0-20.368,9.119-20.368,20.368v48.189h221.808V42.285     C235.904,31.036,226.785,21.917,215.536,21.917z"/>
		</g>
	</g>
	<g>
		<g>
			<path class="st0" d="M215.535,20.417H34.464c-12.058,0-21.868,9.81-21.868,21.868v48.189c0,0.829,0.671,1.5,1.5,1.5h221.807     c0.828,0,1.5-0.671,1.5-1.5V42.285C237.403,30.227,227.594,20.417,215.535,20.417z M234.403,88.974H15.596V42.285     c0-10.404,8.464-18.868,18.868-18.868h181.071c10.404,0,18.868,8.464,18.868,18.868V88.974z"/>
		</g>
	</g>
	<g>
		<g>
			<path class="st4" d="M14.1,90.473v111.242c0,11.249,9.119,20.368,20.368,20.368h181.064c11.249,0,20.368-9.119,20.368-20.368     V90.473H14.1z"/>
		</g>
	</g>
	<g>
		<g>
			<path class="st0" d="M235.9,88.973H14.1c-0.829,0-1.5,0.671-1.5,1.5v50.713c0,0.829,0.671,1.5,1.5,1.5c0.829,0,1.5-0.671,1.5-1.5     V91.973h218.8v109.742c0,10.404-8.465,18.868-18.869,18.868H34.468c-10.404,0-18.868-8.464-18.868-18.868v-44.901     c0-0.829-0.671-1.5-1.5-1.5c-0.829,0-1.5,0.671-1.5,1.5v44.901c0,12.058,9.81,21.868,21.868,21.868h181.063     c12.059,0,21.869-9.81,21.869-21.868V90.473C237.4,89.644,236.729,88.973,235.9,88.973z"/>
		</g>
	</g>
	<g>
		<g>
			<path class="st2" d="M30.35,90.473v106.429c0,5.805,4.706,10.511,10.51,10.511H209.14c5.805,0,10.51-4.706,10.51-10.511V90.473     H30.35z"/>
		</g>
	</g>
	<g>
		<g>
			<path class="st0" d="M219.65,88.973H30.35c-0.829,0-1.5,0.671-1.5,1.5v106.43c0,6.623,5.388,12.01,12.01,12.01H209.14     c6.623,0,12.011-5.388,12.011-12.01V90.473C221.15,89.644,220.479,88.973,219.65,88.973z M218.15,196.903     c0,4.968-4.042,9.01-9.011,9.01H40.86c-4.968,0-9.01-4.042-9.01-9.01V91.973h186.3V196.903z"/>
		</g>
	</g>
	<g>
		<g>
			<path class="st3" d="M209.14,38.083H40.86c-5.805,0-10.51,4.706-10.51,10.511v41.879h189.3V48.594     C219.65,42.789,214.944,38.083,209.14,38.083z"/>
		</g>
	</g>
	<g>
		<g>
			<path class="st0" d="M209.14,36.583H89.025c-0.829,0-1.5,0.671-1.5,1.5s0.671,1.5,1.5,1.5H209.14c4.969,0,9.011,4.042,9.011,9.01     v40.379H31.85V48.594c0-4.968,4.042-9.01,9.01-9.01h33.115c0.829,0,1.5-0.671,1.5-1.5s-0.671-1.5-1.5-1.5H40.86     c-6.623,0-12.01,5.388-12.01,12.01v41.879c0,0.829,0.671,1.5,1.5,1.5h189.3c0.828,0,1.5-0.671,1.5-1.5V48.594     C221.15,41.971,215.763,36.583,209.14,36.583z"/>
		</g>
	</g>
	<g>
		<g>
			<path class="st1" d="M97.788,90.583v40.043c0,15.578,12.628,28.207,28.207,28.207c15.578,0,28.207-12.629,28.207-28.207V90.583     H97.788z"/>
		</g>
	</g>
	<g>
		<g>
			<path class="st0" d="M154.201,89.083H97.788c-0.829,0-1.5,0.671-1.5,1.5v40.044c0,16.38,13.326,29.706,29.706,29.706     c16.38,0,29.707-13.326,29.707-29.706V90.583C155.701,89.755,155.029,89.083,154.201,89.083z M152.701,130.627     c0,14.726-11.98,26.706-26.707,26.706c-14.726,0-26.706-11.981-26.706-26.706V92.083h53.413V130.627z"/>
		</g>
	</g>
	<g>
		<g>
			<path class="st4" d="M137.885,136.073l-3.895-13.921c1.968-2.166,3.155-5.055,3.08-8.23c-0.145-6.14-5.146-11.262-11.282-11.539     c-6.786-0.307-12.384,5.104-12.384,11.822c0,3.01,1.133,5.748,2.983,7.837l-3.821,14.047c-0.384,1.411,0.679,2.801,2.141,2.801     h21.042C137.217,138.889,138.281,137.487,137.885,136.073z"/>
		</g>
	</g>
	<g>
		<g>
			<path class="st0" d="M139.329,135.669L139.329,135.669l-3.68-13.152c1.962-2.45,2.994-5.483,2.92-8.63     c-0.165-6.976-5.749-12.688-12.713-13.002c-3.687-0.167-7.173,1.14-9.83,3.68c-2.659,2.541-4.123,5.965-4.123,9.641     c0,2.974,1,5.854,2.831,8.195l-3.616,13.294c-0.307,1.127-0.076,2.305,0.633,3.233c0.709,0.928,1.787,1.461,2.955,1.461h21.042     c1.174,0,2.253-0.536,2.963-1.471C139.42,137.983,139.645,136.799,139.329,135.669z M136.32,137.104     c-0.08,0.106-0.262,0.284-0.572,0.284h-21.042c-0.309,0-0.49-0.177-0.571-0.282c-0.081-0.105-0.204-0.327-0.123-0.625     l3.821-14.047c0.133-0.488,0.011-1.01-0.325-1.388c-1.681-1.896-2.606-4.326-2.606-6.842c0-2.849,1.135-5.503,3.195-7.472     c1.942-1.856,4.46-2.863,7.136-2.863c0.161,0,0.323,0.004,0.485,0.011c5.306,0.24,9.724,4.76,9.849,10.076     c0.063,2.655-0.893,5.208-2.69,7.186c-0.347,0.382-0.474,0.916-0.334,1.413l3.896,13.92     C136.523,136.775,136.401,136.998,136.32,137.104z"/>
		</g>
	</g>
	<g>
		<g>
			<rect x="159.289" y="222.083" class="st4" width="39.061" height="12"/>
		</g>
	</g>
	<g>
		<g>
			<path class="st0" d="M198.351,220.583h-39.061c-0.828,0-1.5,0.671-1.5,1.5v12c0,0.829,0.672,1.5,1.5,1.5h39.061     c0.828,0,1.5-0.671,1.5-1.5v-12C199.851,221.255,199.179,220.583,198.351,220.583z M196.851,232.583h-36.061v-9h36.061V232.583z"/>
		</g>
	</g>
	<g>
		<g>
			<rect x="51.65" y="222.083" class="st4" width="39.061" height="12"/>
		</g>
	</g>
	<g>
		<g>
			<path class="st0" d="M90.711,220.583H51.65c-0.829,0-1.5,0.671-1.5,1.5v12c0,0.829,0.671,1.5,1.5,1.5h39.061     c0.829,0,1.5-0.671,1.5-1.5v-12C92.211,221.255,91.54,220.583,90.711,220.583z M89.211,232.583H53.15v-9h36.061V232.583z"/>
		</g>
	</g>
	<g>
		<g>
			<path class="st11" d="M203.15,91.97V196.9c0,4.97-4.04,9.01-9.01,9.01h15c4.97,0,9.01-4.04,9.01-9.01V91.97H203.15z"/>
		</g>
	</g>
	<g>
		<g>
			<path class="st6" d="M209.14,39.58h-15c4.97,0,9.01,4.05,9.01,9.01v40.38h15V48.59C218.15,43.63,214.11,39.58,209.14,39.58z"/>
		</g>
	</g>
</g>
</svg>
