<svg version="1.1" xmlns="http://www.w3.org/2000/svg" xmlns:xlink="http://www.w3.org/1999/xlink" x="0px" y="0px"
	 viewBox="0 0 24.3 12.3" style="enable-background:new 0 0 24.3 12.3;" xml:space="preserve">
<path fill="#23CB6E" d="M0,0h24l-5,6.1l5,6.1H0V0z"/>
<path fill="#FFFFFF" d="M6.2,4.5H5.1v3.6c0,0.2,0,0.4-0.1,0.5C4.8,8.7,4.7,8.7,4.6,8.7c-0.2,0-0.3-0.1-0.4-0.2C4.1,8.5,4.1,8.3,4.1,8.1
	V4.5H3c-0.2,0-0.3,0-0.4-0.1C2.5,4.3,2.5,4.2,2.5,4.1c0-0.1,0-0.2,0.1-0.3C2.7,3.7,2.8,3.6,3,3.6h3.2c0.2,0,0.3,0,0.4,0.1
	c0.1,0.1,0.1,0.2,0.1,0.3s0,0.2-0.1,0.3C6.5,4.4,6.4,4.5,6.2,4.5z M9.4,3.6c0.5,0,1,0.1,1.3,0.3c0.4,0.2,0.7,0.5,0.8,0.9
	c0.2,0.4,0.3,0.8,0.3,1.4c0,0.4-0.1,0.7-0.2,1.1c-0.1,0.3-0.3,0.6-0.5,0.8c-0.2,0.2-0.5,0.4-0.8,0.5s-0.7,0.2-1,0.2
	c-0.4,0-0.7-0.1-1.1-0.2C8.1,8.4,7.8,8.2,7.6,8C7.4,7.8,7.3,7.5,7.1,7.2C7,6.9,7,6.5,7,6.1C7,5.7,7,5.4,7.2,5.1
	c0.1-0.3,0.3-0.6,0.5-0.8s0.5-0.4,0.8-0.5C8.7,3.6,9,3.6,9.4,3.6z M10.9,6.1c0-0.4-0.1-0.7-0.2-1s-0.3-0.5-0.5-0.6
	C10,4.4,9.7,4.4,9.4,4.4c-0.2,0-0.4,0-0.6,0.1C8.7,4.5,8.5,4.7,8.4,4.8C8.3,5,8.2,5.1,8.1,5.4C8.1,5.6,8,5.8,8,6.1
	c0,0.3,0,0.5,0.1,0.8c0.1,0.2,0.2,0.4,0.3,0.6c0.1,0.2,0.3,0.3,0.5,0.3C9,7.9,9.2,7.9,9.4,7.9c0.3,0,0.5-0.1,0.7-0.2
	c0.2-0.1,0.4-0.3,0.5-0.6C10.8,6.9,10.9,6.5,10.9,6.1z M14.7,6.7h-0.9v1.4c0,0.2,0,0.4-0.1,0.5c-0.1,0.1-0.2,0.2-0.4,0.2
	c-0.2,0-0.3-0.1-0.4-0.2c-0.1-0.1-0.1-0.3-0.1-0.5V4.3c0-0.2,0.1-0.4,0.2-0.5c0.1-0.1,0.3-0.1,0.5-0.1h1.3c0.4,0,0.7,0,0.9,0.1
	C15.8,3.8,16,3.9,16.1,4s0.3,0.3,0.3,0.5s0.1,0.4,0.1,0.6c0,0.5-0.2,0.9-0.5,1.2C15.8,6.6,15.3,6.7,14.7,6.7z M14.5,4.4h-0.7v1.5
	h0.7c0.2,0,0.4,0,0.6-0.1c0.2-0.1,0.3-0.1,0.4-0.2s0.1-0.3,0.1-0.4c0-0.2-0.1-0.4-0.2-0.5C15.2,4.5,14.9,4.4,14.5,4.4z"/>
</svg>
