<svg xmlns="http://www.w3.org/2000/svg" viewBox="0 0 20 19.67"><defs><style>.cls-1{fill-rule:evenodd;}</style></defs><title>1</title><g id="Layer_2" data-name="Layer 2"><g id="Layer_1-2" data-name="Layer 1"><path class="cls-1" d="M13.45.08a2,2,0,0,1,2.47,1.37A2,2,0,0,1,16,2V3.67h2a2,2,0,0,1,2,2v12a2,2,0,0,1-2,2H2a2,2,0,0,1-2-2H0a1.66,1.66,0,0,1,0-.32V5.43A2,2,0,0,1,1.45,3.51ZM8.14,17.67H18v-8H16v4.25a2,2,0,0,1-1.45,1.92ZM18,5.67v2H16v-2ZM2,5.43V17.35l12-3.43V2ZM12,7.67a1,1,0,1,1-1-1A1,1,0,0,1,12,7.67Z"/></g></g></svg>