<svg xmlns="http://www.w3.org/2000/svg" xmlns:xlink="http://www.w3.org/1999/xlink" viewBox="0 0 228.47 228.47"><defs><style>.cls-1{isolation:isolate;}.cls-2{fill:url(#linear-gradient);}.cls-3{fill:url(#linear-gradient-2);}.cls-4{fill:url(#radial-gradient);}.cls-5{fill:url(#radial-gradient-2);}.cls-6{fill:url(#radial-gradient-3);}.cls-7{fill:url(#radial-gradient-4);}.cls-20,.cls-8{mix-blend-mode:multiply;}.cls-8{fill:url(#radial-gradient-5);}.cls-9{fill:#fbe587;}.cls-10{fill:#b71210;}.cls-11{fill:url(#linear-gradient-3);}.cls-12{fill:url(#linear-gradient-4);}.cls-13{fill:url(#linear-gradient-5);}.cls-14{fill:url(#radial-gradient-6);}.cls-15{fill:url(#linear-gradient-6);}.cls-16{fill:url(#linear-gradient-7);}.cls-17{fill:url(#linear-gradient-8);}.cls-18{fill:url(#radial-gradient-7);}.cls-19{mix-blend-mode:color-dodge;fill:url(#linear-gradient-9);}.cls-20{fill:url(#radial-gradient-8);}.cls-21,.cls-22,.cls-23,.cls-24,.cls-25{mix-blend-mode:screen;}.cls-21{fill:url(#radial-gradient-9);}.cls-22{fill:url(#radial-gradient-10);}.cls-23{fill:url(#radial-gradient-11);}.cls-24{fill:url(#radial-gradient-12);}.cls-25{fill:url(#radial-gradient-13);}</style><linearGradient id="linear-gradient" x1="114.24" y1="12.14" x2="114.24" y2="219.26" gradientTransform="translate(114.24 -47.32) rotate(45)" gradientUnits="userSpaceOnUse"><stop offset="0" stop-color="#fbf89c"/><stop offset="0.03" stop-color="#f9f498"/><stop offset="0.07" stop-color="#f5ea8b"/><stop offset="0.1" stop-color="#eed875"/><stop offset="0.14" stop-color="#e3bf57"/><stop offset="0.18" stop-color="#d8a335"/><stop offset="0.22" stop-color="#ca9430"/><stop offset="0.31" stop-color="#a56d22"/><stop offset="0.32" stop-color="#a16921"/><stop offset="0.37" stop-color="#aa7324"/><stop offset="0.44" stop-color="#c38c2d"/><stop offset="0.5" stop-color="#d8a335"/><stop offset="0.56" stop-color="#e5c15a"/><stop offset="0.64" stop-color="#f1df7e"/><stop offset="0.71" stop-color="#f8f194"/><stop offset="0.75" stop-color="#fbf89c"/><stop offset="0.81" stop-color="#fbf89c"/><stop offset="0.83" stop-color="#f8f194"/><stop offset="0.85" stop-color="#f1df7e"/><stop offset="0.89" stop-color="#e5c25a"/><stop offset="0.91" stop-color="#d8a335"/><stop offset="0.95" stop-color="#d9a738"/><stop offset="0.99" stop-color="#dbb242"/><stop offset="1" stop-color="#dcb949"/></linearGradient><linearGradient id="linear-gradient-2" x1="37.82" y1="37.82" x2="180.57" y2="180.57" xlink:href="#linear-gradient"/><radialGradient id="radial-gradient" cx="132" cy="74.93" r="149.78" gradientTransform="translate(114.24 -47.32) rotate(45)" gradientUnits="userSpaceOnUse"><stop offset="0" stop-color="#ff6f50"/><stop offset="0.17" stop-color="#e9523c"/><stop offset="0.41" stop-color="#cd2f24"/><stop offset="0.63" stop-color="#b91512"/><stop offset="0.84" stop-color="#ad0508"/><stop offset="1" stop-color="#a90004"/></radialGradient><radialGradient id="radial-gradient-2" cx="114.24" cy="114.24" r="101.67" gradientUnits="userSpaceOnUse"><stop offset="0.59" stop-color="#333"/><stop offset="0.7" stop-color="#2d2d2d"/><stop offset="0.83" stop-color="#1d1d1d"/><stop offset="0.98" stop-color="#030303"/><stop offset="1"/></radialGradient><radialGradient id="radial-gradient-3" cx="114.24" cy="114.24" r="101.34" gradientTransform="translate(114.24 -47.32) rotate(45)" gradientUnits="userSpaceOnUse"><stop offset="0.48" stop-color="#fff3a6"/><stop offset="0.78" stop-color="#f9df7b"/><stop offset="0.81" stop-color="#f6db77"/><stop offset="0.84" stop-color="#eecf6a"/><stop offset="0.87" stop-color="#e0bc54"/><stop offset="0.9" stop-color="#cda036"/><stop offset="0.94" stop-color="#b57e10"/><stop offset="0.98" stop-color="#e5c35c"/><stop offset="1" stop-color="#f9df7b"/></radialGradient><radialGradient id="radial-gradient-4" cx="114.24" cy="114.24" r="98.93" xlink:href="#radial-gradient-2"/><radialGradient id="radial-gradient-5" cx="109.32" cy="120.28" r="23.06" gradientUnits="userSpaceOnUse"><stop offset="0.25" stop-color="#be8b1e"/><stop offset="1" stop-color="#fff"/></radialGradient><linearGradient id="linear-gradient-3" x1="107.31" y1="97.3" x2="122.76" y2="87.38" gradientUnits="userSpaceOnUse"><stop offset="0" stop-color="#c8992e"/><stop offset="0.15" stop-color="#b57e10"/><stop offset="0.43" stop-color="#f9df7b"/><stop offset="0.59" stop-color="#fff3a6"/><stop offset="0.73" stop-color="#f9df7b"/><stop offset="0.93" stop-color="#b57e10"/><stop offset="0.94" stop-color="#b98416"/><stop offset="1" stop-color="#cda035"/></linearGradient><linearGradient id="linear-gradient-4" x1="-1527.59" y1="-3048.73" x2="-1512.16" y2="-3048.73" gradientTransform="translate(-1405.73 -2958.4) rotate(180)" xlink:href="#linear-gradient-3"/><linearGradient id="linear-gradient-5" x1="107.19" y1="100.83" x2="122.23" y2="86.97" xlink:href="#linear-gradient-3"/><radialGradient id="radial-gradient-6" cx="116.08" cy="77.52" r="27.88" gradientTransform="matrix(1, 0, 0, 1, 0, 0)" xlink:href="#radial-gradient"/><linearGradient id="linear-gradient-6" x1="101.84" y1="101.05" x2="127.54" y2="126.74" gradientTransform="matrix(1, 0, 0, 1, 0, 0)" xlink:href="#linear-gradient"/><linearGradient id="linear-gradient-7" x1="114.16" y1="132.31" x2="114.16" y2="94.71" gradientTransform="matrix(1, 0, 0, 1, 0, 0)" xlink:href="#linear-gradient"/><linearGradient id="linear-gradient-8" x1="99.52" y1="113.37" x2="129.34" y2="113.37" gradientTransform="matrix(1, 0, 0, 1, 0, 0)" xlink:href="#linear-gradient"/><radialGradient id="radial-gradient-7" cx="119.32" cy="107.82" r="14.37" gradientTransform="matrix(1, 0, 0, 1, 0, 0)" xlink:href="#radial-gradient"/><linearGradient id="linear-gradient-9" x1="138.66" y1="88.96" x2="105.35" y2="122.26" gradientUnits="userSpaceOnUse"><stop offset="0" stop-color="#8a8a8a"/><stop offset="0.04" stop-color="gray"/><stop offset="0.27" stop-color="#535353"/><stop offset="0.48" stop-color="#2f2f2f"/><stop offset="0.68" stop-color="#151515"/><stop offset="0.86" stop-color="#050505"/><stop offset="1"/></linearGradient><radialGradient id="radial-gradient-8" cx="110.55" cy="117.92" r="103.46" gradientUnits="userSpaceOnUse"><stop offset="0.81" stop-color="#fff"/><stop offset="0.85" stop-color="#fcfcfc"/><stop offset="0.88" stop-color="#f3f3f3"/><stop offset="0.91" stop-color="#e4e4e4"/><stop offset="0.93" stop-color="#cecece"/><stop offset="0.95" stop-color="#b1b1b1"/><stop offset="0.97" stop-color="#8f8f8f"/><stop offset="0.99" stop-color="#666"/><stop offset="1" stop-color="#4d4d4d"/></radialGradient><radialGradient id="radial-gradient-9" cx="76.72" cy="128.83" r="42.61" gradientTransform="translate(53.58 -19.32) rotate(21.9)" gradientUnits="userSpaceOnUse"><stop offset="0.09" stop-color="#ffc94c"/><stop offset="0.2" stop-color="#a2621e"/><stop offset="0.22" stop-color="#965b1c"/><stop offset="0.29" stop-color="#6e4314"/><stop offset="0.37" stop-color="#4c2e0e"/><stop offset="0.46" stop-color="#301d09"/><stop offset="0.55" stop-color="#1b1005"/><stop offset="0.65" stop-color="#0c0702"/><stop offset="0.76" stop-color="#030201"/><stop offset="0.94"/></radialGradient><radialGradient id="radial-gradient-10" cx="151.94" cy="99.73" r="42.61" gradientTransform="matrix(1, 0, 0, 1, 0, 0)" xlink:href="#radial-gradient-9"/><radialGradient id="radial-gradient-11" cx="97.13" cy="71.38" r="42.61" gradientTransform="translate(78.92 -47.78) rotate(45)" xlink:href="#radial-gradient-9"/><radialGradient id="radial-gradient-12" cx="130.77" cy="157.18" r="42.61" gradientTransform="translate(272.58 9.88) rotate(83.67)" xlink:href="#radial-gradient-9"/><radialGradient id="radial-gradient-13" cx="126.99" cy="103.89" r="23.53" gradientTransform="translate(110.65 -59.37) rotate(45)" gradientUnits="userSpaceOnUse"><stop offset="0" stop-color="#fff1d1"/><stop offset="0.09" stop-color="#ffc94c"/><stop offset="0.2" stop-color="#a2621e"/><stop offset="0.22" stop-color="#965b1c"/><stop offset="0.29" stop-color="#6e4314"/><stop offset="0.37" stop-color="#4c2e0e"/><stop offset="0.46" stop-color="#301d09"/><stop offset="0.55" stop-color="#1b1005"/><stop offset="0.65" stop-color="#0c0702"/><stop offset="0.76" stop-color="#030201"/><stop offset="0.94"/></radialGradient></defs><title>coleso</title><g class="cls-1"><g id="Layer_2" data-name="Layer 2"><g id="Layer_1-2" data-name="Layer 1"><circle class="cls-2" cx="114.24" cy="114.24" r="114.24" transform="translate(-47.32 114.24) rotate(-45)"/><circle class="cls-3" cx="114.24" cy="114.24" r="112.32" transform="translate(-47.32 114.24) rotate(-45)"/><circle class="cls-4" cx="114.24" cy="114.24" r="110.27" transform="translate(-47.32 114.24) rotate(-45)"/><circle class="cls-5" cx="114.24" cy="114.24" r="101.67"/><circle class="cls-6" cx="114.24" cy="114.24" r="98.65" transform="translate(-47.32 114.24) rotate(-45)"/><path class="cls-7" d="M58.52,196l55.72-81.75L32.48,170A99.52,99.52,0,0,0,58.52,196ZM196,170l-81.75-55.71L170,196A99.52,99.52,0,0,0,196,170Zm-81.75,43.22a99.75,99.75,0,0,0,18.41-1.72l-18.41-97.21L95.83,211.45A99.58,99.58,0,0,0,114.24,213.17Zm98.93-98.93a99.58,99.58,0,0,0-1.72-18.41l-97.21,18.41,97.21,18.41A99.75,99.75,0,0,0,213.17,114.24ZM170,32.48l-55.71,81.76L196,58.52A99.52,99.52,0,0,0,170,32.48ZM15.31,114.24A99.75,99.75,0,0,0,17,132.65l97.22-18.41L17,95.83A99.58,99.58,0,0,0,15.31,114.24Zm98.93-98.93A99.58,99.58,0,0,0,95.83,17l18.41,97.22L132.65,17A99.75,99.75,0,0,0,114.24,15.31ZM32.48,58.52l81.76,55.72L58.52,32.48A99.52,99.52,0,0,0,32.48,58.52Z"/><circle class="cls-8" cx="109.32" cy="120.28" r="23.06"/><path class="cls-9" d="M115.66,40.34v2.71h-1.32l-5.5-2.32v-2h5.54v-.87h1.28v.87h2.09v1.58Zm-1.28,0h-3.79l3.79,1.37Z"/><path class="cls-9" d="M117.21,36.48a2.8,2.8,0,0,1-1.88.61h-4a2.87,2.87,0,0,1-1.92-.6,2.63,2.63,0,0,1,0-3.57,2.86,2.86,0,0,1,1.92-.59h4a2.72,2.72,0,0,1,1.87.61,2.57,2.57,0,0,1,0,3.54Zm-1.91-2.43h-3.93a2.17,2.17,0,0,0-.82.13.5.5,0,0,0-.33.52.52.52,0,0,0,.32.54,2.47,2.47,0,0,0,.83.12h3.93q1.11,0,1.11-.66C116.41,34.27,116,34.05,115.3,34.05Z"/><path class="cls-9" d="M117.21,30.51a2.8,2.8,0,0,1-1.88.61h-4a2.87,2.87,0,0,1-1.92-.6,2.23,2.23,0,0,1-.7-1.79,2.22,2.22,0,0,1,.7-1.78,2.87,2.87,0,0,1,1.92-.6h4a2.72,2.72,0,0,1,1.87.62,2.57,2.57,0,0,1,0,3.54Zm-1.91-2.43h-3.93a2.17,2.17,0,0,0-.82.13.49.49,0,0,0-.33.52.52.52,0,0,0,.32.54,2.47,2.47,0,0,0,.83.12h3.93q1.11,0,1.11-.66C116.41,28.3,116,28.08,115.3,28.08Z"/><path class="cls-9" d="M112.52,188.5v-2.71h1.32l5.5,2.32v2h-5.53V191h-1.29v-.87h-2.09V188.5Zm1.29,0h3.79l-3.79-1.37Z"/><path class="cls-9" d="M111,192.36a2.77,2.77,0,0,1,1.87-.61h4a2.87,2.87,0,0,1,1.92.6,2.63,2.63,0,0,1,0,3.57,2.86,2.86,0,0,1-1.92.59h-4a2.75,2.75,0,0,1-1.87-.61,2.59,2.59,0,0,1,0-3.54Zm1.91,2.43h3.92a2.23,2.23,0,0,0,.83-.13.5.5,0,0,0,.33-.52.51.51,0,0,0-.33-.54,2.39,2.39,0,0,0-.83-.12h-3.92q-1.11,0-1.11.66C111.78,194.57,112.15,194.79,112.89,194.79Z"/><path class="cls-9" d="M111,198.34a2.72,2.72,0,0,1,1.87-.62h4a2.87,2.87,0,0,1,1.92.6,2.63,2.63,0,0,1,0,3.57,2.87,2.87,0,0,1-1.92.6h-4a2.76,2.76,0,0,1-1.87-.62,2.58,2.58,0,0,1,0-3.53Zm1.91,2.42h3.92a2.23,2.23,0,0,0,.83-.13.49.49,0,0,0,.33-.52.51.51,0,0,0-.33-.54,2.39,2.39,0,0,0-.83-.12h-3.92q-1.11,0-1.11.66C111.78,200.54,112.15,200.76,112.89,200.76Z"/><path class="cls-9" d="M164.07,117a2.28,2.28,0,0,0,.68-.08.56.56,0,0,0,.33-.29,1.47,1.47,0,0,0,.1-.63v-6.87H167v6.94a3.57,3.57,0,0,1-.18,1.24,1.26,1.26,0,0,1-.63.71,2.63,2.63,0,0,1-1.23.24h-.88Z"/><path class="cls-9" d="M169.62,109.17h2l1.71,8.91h-1.67l-.33-2h-1.41l-.34,2h-1.7Zm1.55,5.83-.53-3.58-.53,3.58Z"/><path class="cls-9" d="M174.6,117.44a3.53,3.53,0,0,1-.6-2.21V112a3.62,3.62,0,0,1,.59-2.23,3.1,3.1,0,0,1,3.95-.08,2.85,2.85,0,0,1,.57,1.91v.74h-1.76v-.82a5,5,0,0,0,0-.64.73.73,0,0,0-.2-.4.66.66,0,0,0-.49-.16.63.63,0,0,0-.64.32,2.45,2.45,0,0,0-.14.93v4a2.09,2.09,0,0,0,.16.94.65.65,0,0,0,.62.3c.31,0,.51-.1.59-.31a2.45,2.45,0,0,0,.14-.93v-.87h1.76v.74a3,3,0,0,1-.57,2,2.32,2.32,0,0,1-1.93.7A2.38,2.38,0,0,1,174.6,117.44Z"/><path class="cls-9" d="M180.22,109.17H182v3.76l1.62-3.76h1.76l-1.67,4,1.8,4.9h-1.84l-1.37-4-.3.48v3.5h-1.8Z"/><path class="cls-9" d="M186.29,109.17h2.83c1.54,0,2.31.86,2.31,2.56a2.39,2.39,0,0,1-.66,1.92,2.74,2.74,0,0,1-1.84.57h-.84v3.86h-1.8Zm2.45,3.77a.91.91,0,0,0,.78-.27,1.75,1.75,0,0,0,.2-1,2.68,2.68,0,0,0-.07-.71.63.63,0,0,0-.28-.4,1.11,1.11,0,0,0-.64-.14h-.64v2.49Z"/><path class="cls-9" d="M192.82,117.46a3.41,3.41,0,0,1-.6-2.18V112a3.31,3.31,0,0,1,.6-2.16,3.16,3.16,0,0,1,4,0,3.29,3.29,0,0,1,.62,2.16v3.34a3.34,3.34,0,0,1-.62,2.17,2.47,2.47,0,0,1-2,.74A2.5,2.5,0,0,1,192.82,117.46Zm2.65-.87a2,2,0,0,0,.16-.86v-4.22a2,2,0,0,0-.16-.85.65.65,0,0,0-.62-.3.65.65,0,0,0-.63.3,2,2,0,0,0-.15.85v4.22a2.06,2.06,0,0,0,.15.87.79.79,0,0,0,1.25,0Z"/><path class="cls-9" d="M199.46,110.51h-1.38v-1.34h4.55v1.34h-1.35v7.57h-1.82Z"/><path class="cls-9" d="M64.12,111.8a2.28,2.28,0,0,0-.68.08.51.51,0,0,0-.33.29,1.49,1.49,0,0,0-.1.64v6.86H61.19v-6.94a3.57,3.57,0,0,1,.18-1.24,1.31,1.31,0,0,1,.64-.71,2.63,2.63,0,0,1,1.23-.24h.88Z"/><path class="cls-9" d="M58.56,119.67h-2l-1.71-8.91h1.67l.33,2h1.41l.34-2h1.7ZM57,113.84l.54,3.59.53-3.59Z"/><path class="cls-9" d="M53.59,111.4a3.53,3.53,0,0,1,.6,2.21v3.19A3.62,3.62,0,0,1,53.6,119a2.43,2.43,0,0,1-2,.75,2.4,2.4,0,0,1-1.93-.67,2.84,2.84,0,0,1-.57-1.9v-.75h1.76v.82a5,5,0,0,0,0,.64.7.7,0,0,0,.2.4.66.66,0,0,0,.49.16.62.62,0,0,0,.64-.32,2.45,2.45,0,0,0,.14-.93v-4a2.07,2.07,0,0,0-.17-.94.63.63,0,0,0-.61-.3.58.58,0,0,0-.6.31,2.71,2.71,0,0,0-.13.93v.87H49.08v-.74a3.08,3.08,0,0,1,.56-2,2.35,2.35,0,0,1,1.94-.7A2.38,2.38,0,0,1,53.59,111.4Z"/><path class="cls-9" d="M48,119.67h-1.8v-3.76l-1.62,3.76H42.79l1.67-4-1.8-4.91H44.5l1.37,4,.3-.48v-3.5H48Z"/><path class="cls-9" d="M41.9,119.67H39.07c-1.54,0-2.31-.85-2.31-2.56a2.41,2.41,0,0,1,.66-1.92,2.72,2.72,0,0,1,1.84-.57h.84v-3.86h1.8Zm-2.45-3.77a.91.91,0,0,0-.78.27,1.69,1.69,0,0,0-.2,1,3.28,3.28,0,0,0,.06.71.69.69,0,0,0,.28.4,1.16,1.16,0,0,0,.65.14h.64V115.9Z"/><path class="cls-9" d="M35.37,111.38a3.42,3.42,0,0,1,.6,2.19v3.32a3.31,3.31,0,0,1-.6,2.16,2.5,2.5,0,0,1-2,.73,2.49,2.49,0,0,1-2-.73,3.35,3.35,0,0,1-.61-2.16v-3.34a3.4,3.4,0,0,1,.61-2.17,2.49,2.49,0,0,1,2-.74A2.5,2.5,0,0,1,35.37,111.38Zm-2.65.87a1.88,1.88,0,0,0-.16.86v4.22a1.81,1.81,0,0,0,.16.85.64.64,0,0,0,.62.3.63.63,0,0,0,.62-.3,1.81,1.81,0,0,0,.16-.85v-4.22a2.06,2.06,0,0,0-.15-.87.63.63,0,0,0-.63-.3A.63.63,0,0,0,32.72,112.25Z"/><path class="cls-9" d="M28.73,118.33h1.38v1.34H25.55v-1.34h1.36v-7.57h1.82Z"/><path class="cls-9" d="M171.53,61.59a2.43,2.43,0,0,1-1.58-.84l-.1-.09L171,59.52a2,2,0,0,0,.7.52.51.51,0,0,0,.54-.19.51.51,0,0,0,.18-.41,1.15,1.15,0,0,0-.25-.52,8.54,8.54,0,0,0-.74-.81l-.63-.64a1,1,0,0,1,0,.59,1.74,1.74,0,0,1-.41.6,1.57,1.57,0,0,1-1.53.51,3.55,3.55,0,0,1-1.68-1.05Q165,56,166.69,54.31a2.13,2.13,0,0,1,1.81-.75,3.38,3.38,0,0,1,1.9,1.06l2.29,2.3a4,4,0,0,1,1.21,2,2.08,2.08,0,0,1-.76,1.9A2.25,2.25,0,0,1,171.53,61.59Zm-1.58-5-1-1a2.22,2.22,0,0,0-.75-.55.51.51,0,0,0-.61.12.52.52,0,0,0-.11.63,3.85,3.85,0,0,0,.73.93,8.45,8.45,0,0,0,.65.59.88.88,0,0,0,.47.22.57.57,0,0,0,.46-.19A.75.75,0,0,0,170,56.63Z"/><path class="cls-9" d="M175.66,57.32a2.76,2.76,0,0,1-1.75-.9l-2.83-2.82a2.85,2.85,0,0,1-.93-1.78,2.64,2.64,0,0,1,2.52-2.53,2.85,2.85,0,0,1,1.78.94l2.82,2.82a2.75,2.75,0,0,1,.89,1.76,2.22,2.22,0,0,1-.75,1.74A2.24,2.24,0,0,1,175.66,57.32Zm.37-3.07-2.78-2.78a2.47,2.47,0,0,0-.67-.49.49.49,0,0,0-.6.14.52.52,0,0,0-.16.61,2.53,2.53,0,0,0,.51.67l2.77,2.78c.53.52,1,.63,1.26.32S176.55,54.78,176,54.25Z"/><path class="cls-9" d="M56.72,167.3a2.5,2.5,0,0,1,1.58.85l.09.09-1.13,1.13a2.16,2.16,0,0,0-.7-.51.52.52,0,0,0-.55.19.5.5,0,0,0-.17.41,1.15,1.15,0,0,0,.25.52,9.68,9.68,0,0,0,.73.81l.64.64a.94.94,0,0,1,0-.59,1.74,1.74,0,0,1,.41-.6,1.57,1.57,0,0,1,1.53-.51,3.6,3.6,0,0,1,1.68,1q2.13,2.13.43,3.82a2.15,2.15,0,0,1-1.82.75,3.35,3.35,0,0,1-1.89-1.07L55.56,172a4,4,0,0,1-1.21-2,2.08,2.08,0,0,1,.75-1.9A2.3,2.3,0,0,1,56.72,167.3Zm1.58,5,1,1a2.34,2.34,0,0,0,.76.55.56.56,0,0,0,.72-.75,3.7,3.7,0,0,0-.74-.93,6.9,6.9,0,0,0-.64-.59.92.92,0,0,0-.47-.22.57.57,0,0,0-.46.19A.73.73,0,0,0,58.3,172.27Z"/><path class="cls-9" d="M52.58,171.58a2.71,2.71,0,0,1,1.76.9l2.83,2.82a2.9,2.9,0,0,1,.93,1.78,2.64,2.64,0,0,1-2.53,2.53,2.9,2.9,0,0,1-1.77-.94L51,175.85a2.73,2.73,0,0,1-.88-1.76,2.23,2.23,0,0,1,.74-1.75A2.28,2.28,0,0,1,52.58,171.58Zm-.36,3.07L55,177.42a2.2,2.2,0,0,0,.67.5.51.51,0,0,0,.6-.14.5.5,0,0,0,.15-.61,2.27,2.27,0,0,0-.5-.67l-2.78-2.78c-.52-.52-.94-.63-1.25-.32S51.69,174.12,52.22,174.65Z"/><path class="cls-9" d="M167.24,171.05l3.89-.82.3-.07a7.39,7.39,0,0,0,1.14-.31,2.11,2.11,0,0,0,.77-.49,1.18,1.18,0,0,0,.35-.58.57.57,0,0,0-.18-.51.66.66,0,0,0-.7-.19,2.15,2.15,0,0,0-.81.56l-.28.29-1.18-1.18.31-.31a3.11,3.11,0,0,1,1.82-1,2.24,2.24,0,0,1,1.82.79,2.36,2.36,0,0,1,.82,1.68,2.39,2.39,0,0,1-.8,1.65,2.9,2.9,0,0,1-1,.69,10.71,10.71,0,0,1-1.51.39l-.22,0-3,.6,1.87,1.87-.95,1-3.22-3.22Z"/><path class="cls-9" d="M171.26,176a2.77,2.77,0,0,1,.89-1.76l2.83-2.82a2.82,2.82,0,0,1,1.77-.94,2.64,2.64,0,0,1,2.53,2.53,2.87,2.87,0,0,1-.94,1.78l-2.82,2.82a2.72,2.72,0,0,1-1.76.89,2.58,2.58,0,0,1-2.5-2.5Zm3.06.37,2.78-2.78a2.27,2.27,0,0,0,.49-.67.51.51,0,0,0-.13-.61.53.53,0,0,0-.61-.15,2.73,2.73,0,0,0-.68.5l-2.77,2.78c-.53.52-.63.94-.32,1.25S173.8,176.88,174.32,176.36Z"/><path class="cls-9" d="M54.3,60.21,56,61.92l-.92.92L52.21,60l.78-.79L59.84,55,61,56.15Z"/><path class="cls-9" d="M57,52.91a2.77,2.77,0,0,1-.89,1.76l-2.83,2.82a2.85,2.85,0,0,1-1.78.94,2.23,2.23,0,0,1-1.76-.78A2.19,2.19,0,0,1,49,55.9a2.9,2.9,0,0,1,.93-1.78l2.83-2.82a2.72,2.72,0,0,1,1.76-.89,2.58,2.58,0,0,1,2.5,2.5Zm-3.06-.37-2.78,2.78a2.53,2.53,0,0,0-.5.67.52.52,0,0,0,.14.61.53.53,0,0,0,.61.15,2.53,2.53,0,0,0,.67-.5l2.78-2.78c.52-.52.63-.94.32-1.25S54.45,52,53.93,52.54Z"/><path class="cls-10" d="M147.19,43.55a3.14,3.14,0,0,1-2.05-.25l-.29-.12.66-1.56.27.11a2.31,2.31,0,0,0,1,.23.58.58,0,0,0,.49-.4.57.57,0,0,0-.07-.63,2.46,2.46,0,0,0-.85-.51,2,2,0,0,0-1.06-.21.84.84,0,0,0-.63.57,1.27,1.27,0,0,0-.13.27l-1.15-.48.11-.24a.9.9,0,0,0,0-.86,1.77,1.77,0,0,0-.84-.59,1.72,1.72,0,0,0-.85-.18.57.57,0,0,0-.47.41.53.53,0,0,0,.07.61,2.06,2.06,0,0,0,.75.49l.36.15-.65,1.56-.45-.18A2.49,2.49,0,0,1,140,40.46a2.37,2.37,0,0,1,.09-1.87,2.47,2.47,0,0,1,1.25-1.4,2.4,2.4,0,0,1,1.88.11,2.54,2.54,0,0,1,1.07.79,1.33,1.33,0,0,1,.29,1,2,2,0,0,1,2.37-.23,3.24,3.24,0,0,1,1.64,1.31,2.14,2.14,0,0,1,0,2A2.21,2.21,0,0,1,147.19,43.55Z"/><path class="cls-10" d="M149.44,38.2a2.75,2.75,0,0,1-2-.16l-3.68-1.54a2.89,2.89,0,0,1-1.54-1.29,2.25,2.25,0,0,1,0-1.93,2.22,2.22,0,0,1,1.34-1.37,2.87,2.87,0,0,1,2,.19l3.68,1.55a2.75,2.75,0,0,1,1.49,1.29,2.58,2.58,0,0,1-1.36,3.26Zm-.83-3L145,33.71a2.08,2.08,0,0,0-.81-.2.51.51,0,0,0-.51.35.53.53,0,0,0,.09.62,2.41,2.41,0,0,0,.72.44l3.63,1.51c.68.29,1.11.23,1.28-.18S149.3,35.51,148.61,35.23Z"/><path class="cls-10" d="M81.09,185.24a3.14,3.14,0,0,1,2,.25l.29.12-.66,1.56-.27-.11a2.31,2.31,0,0,0-1-.23.59.59,0,0,0-.49.41.55.55,0,0,0,.07.62,2.31,2.31,0,0,0,.85.51,1.93,1.93,0,0,0,1.06.21.84.84,0,0,0,.63-.57,1,1,0,0,0,.13-.27l1.15.48-.11.24a.9.9,0,0,0,0,.86,1.76,1.76,0,0,0,.85.59,1.67,1.67,0,0,0,.84.18.57.57,0,0,0,.47-.41.55.55,0,0,0-.06-.61,2.21,2.21,0,0,0-.76-.49l-.36-.15.65-1.56.45.19a2.44,2.44,0,0,1,1.42,1.27,2.37,2.37,0,0,1-.09,1.87A2.47,2.47,0,0,1,87,191.6a2.4,2.4,0,0,1-1.88-.11A2.46,2.46,0,0,1,84,190.7a1.32,1.32,0,0,1-.29-1,2,2,0,0,1-2.37.23,3.19,3.19,0,0,1-1.64-1.31,2.14,2.14,0,0,1,0-2A2.21,2.21,0,0,1,81.09,185.24Z"/><path class="cls-10" d="M78.85,190.59a2.73,2.73,0,0,1,2,.16l3.68,1.54A2.89,2.89,0,0,1,86,193.58a2.22,2.22,0,0,1,0,1.93,2.19,2.19,0,0,1-1.34,1.37,2.87,2.87,0,0,1-2-.19L79,195.14a2.75,2.75,0,0,1-1.49-1.29,2.57,2.57,0,0,1,1.37-3.26Zm.82,3,3.62,1.52a2.08,2.08,0,0,0,.81.2.51.51,0,0,0,.51-.35.53.53,0,0,0-.09-.62,2.41,2.41,0,0,0-.72-.44l-3.63-1.51c-.68-.29-1.11-.23-1.28.18S79,193.28,79.67,193.56Z"/><path class="cls-10" d="M179.73,145.64a1.61,1.61,0,0,1-.28-1.11,4.63,4.63,0,0,1,.4-1.44l1.52.63a3.15,3.15,0,0,0-.3,1.09.54.54,0,0,0,.38.53.57.57,0,0,0,.54,0,1.38,1.38,0,0,0,.41-.49c.12-.22.27-.55.45-1a3.75,3.75,0,0,0,.33-1.18.58.58,0,0,0-.4-.61c-.37-.15-.71,0-1,.45l-1.35-.57,2.06-4.62,3.78,1.58-.57,1.35-2.49-1-.84,1.78a1.15,1.15,0,0,1,.6-.09,2.62,2.62,0,0,1,.78.19,1.55,1.55,0,0,1,1,1.22,3.74,3.74,0,0,1-.37,2.08,6.64,6.64,0,0,1-.85,1.55,2,2,0,0,1-1.08.74,2.48,2.48,0,0,1-1.53-.2A2.69,2.69,0,0,1,179.73,145.64Z"/><path class="cls-10" d="M184.83,147.38a2.73,2.73,0,0,1,.16-2l1.54-3.68a2.92,2.92,0,0,1,1.29-1.55,2.26,2.26,0,0,1,1.93.05,2.22,2.22,0,0,1,1.37,1.34,2.85,2.85,0,0,1-.2,2l-1.54,3.69a2.7,2.7,0,0,1-1.29,1.48,2.16,2.16,0,0,1-1.89,0A2.2,2.2,0,0,1,184.83,147.38Zm3-.82,1.52-3.62a2.38,2.38,0,0,0,.2-.81.5.5,0,0,0-.35-.51.52.52,0,0,0-.63.09,2.63,2.63,0,0,0-.43.72l-1.52,3.62c-.28.69-.22,1.11.18,1.28S187.52,147.24,187.8,146.56Z"/><path class="cls-10" d="M190.34,149.69a2.67,2.67,0,0,1,.16-2L192,144a2.89,2.89,0,0,1,1.29-1.54,2.65,2.65,0,0,1,3.3,1.38,2.87,2.87,0,0,1-.2,2l-1.54,3.69a2.73,2.73,0,0,1-1.29,1.48,2.16,2.16,0,0,1-1.89,0A2.2,2.2,0,0,1,190.34,149.69Zm3-.82,1.52-3.62a2.38,2.38,0,0,0,.2-.81.5.5,0,0,0-.35-.51.52.52,0,0,0-.63.09,2.4,2.4,0,0,0-.43.72l-1.52,3.62c-.28.69-.22,1.11.18,1.28S193,149.55,193.31,148.87Z"/><path class="cls-10" d="M39.05,86.72h.73l.65,0-.49,1.16c-.27,0-.61,0-1,.06a3,3,0,0,0-.9.2l-1.23-.51,3.44-8.22,1.57.66Z"/><path class="cls-10" d="M38,79.1a2.81,2.81,0,0,1-.16,2l-1.55,3.68A2.84,2.84,0,0,1,35,86.29a2.63,2.63,0,0,1-3.29-1.38,2.81,2.81,0,0,1,.19-2l1.54-3.68a2.72,2.72,0,0,1,1.29-1.49,2.19,2.19,0,0,1,1.9,0A2.23,2.23,0,0,1,38,79.1Zm-3,.82-1.51,3.63a2.31,2.31,0,0,0-.21.81.6.6,0,0,0,1,.41,2.4,2.4,0,0,0,.43-.72l1.52-3.62c.29-.68.23-1.11-.18-1.28S35.26,79.24,35,79.92Z"/><path class="cls-10" d="M181.68,83a1.82,1.82,0,0,1-.25.26l-.28.25a3.22,3.22,0,0,0-.47.43l-.48-1.17a10.12,10.12,0,0,0,.67-.76,2.81,2.81,0,0,0,.49-.78l1.23-.5L186,89l-1.58.65Z"/><path class="cls-10" d="M188.13,87.87a1.64,1.64,0,0,1-1-.58,5.09,5.09,0,0,1-.73-1.31l1.52-.62a3.28,3.28,0,0,0,.56,1,.57.57,0,0,0,.65.11.55.55,0,0,0,.36-.39,1.21,1.21,0,0,0-.05-.64c-.07-.24-.2-.58-.37-1a4,4,0,0,0-.6-1.07.6.6,0,0,0-.72-.14c-.37.15-.5.5-.4,1l-1.35.55-1.81-4.73L188,78.5l.55,1.35-2.5,1,.67,1.86a1.15,1.15,0,0,1,.36-.5,2.38,2.38,0,0,1,.69-.41,1.53,1.53,0,0,1,1.56.16,3.78,3.78,0,0,1,1.21,1.73,6.71,6.71,0,0,1,.49,1.7,1.92,1.92,0,0,1-.23,1.28,2.46,2.46,0,0,1-1.23.94A2.52,2.52,0,0,1,188.13,87.87Z"/><path class="cls-10" d="M193,85.5a2.73,2.73,0,0,1-1.28-1.5l-1.51-3.7a2.86,2.86,0,0,1-.18-2A2.61,2.61,0,0,1,193.31,77a2.86,2.86,0,0,1,1.28,1.55l1.51,3.69a2.79,2.79,0,0,1,.14,2A2.59,2.59,0,0,1,193,85.5Zm1.52-2.68L193,79.18a2.27,2.27,0,0,0-.43-.71.51.51,0,0,0-.61-.11.49.49,0,0,0-.37.5,2.21,2.21,0,0,0,.2.82l1.49,3.63c.28.69.62,1,1,.78S194.77,83.5,194.49,82.82Z"/><path class="cls-10" d="M46.58,145.86a2.85,2.85,0,0,1,.25-.25l.28-.25a5.28,5.28,0,0,0,.48-.44l.48,1.17a8.18,8.18,0,0,0-.68.76,2.81,2.81,0,0,0-.49.78l-1.23.5-3.38-8.24,1.58-.65Z"/><path class="cls-10" d="M40.13,141a1.65,1.65,0,0,1,1,.59,5,5,0,0,1,.74,1.3l-1.53.63a3,3,0,0,0-.56-1,.54.54,0,0,0-.65-.11.54.54,0,0,0-.36.38,1.33,1.33,0,0,0,.05.64,10.52,10.52,0,0,0,.38,1,3.48,3.48,0,0,0,.6,1.07.58.58,0,0,0,.71.14c.37-.15.5-.5.4-1l1.35-.56,1.81,4.73-3.79,1.55L39.72,149l2.5-1-.66-1.85a1.17,1.17,0,0,1-.37.49,2.65,2.65,0,0,1-.69.42,1.54,1.54,0,0,1-1.55-.16,3.89,3.89,0,0,1-1.22-1.74,6.77,6.77,0,0,1-.49-1.69,2,2,0,0,1,.24-1.29,2.43,2.43,0,0,1,1.23-.94A2.57,2.57,0,0,1,40.13,141Z"/><path class="cls-10" d="M35.3,143.34a2.78,2.78,0,0,1,1.27,1.51l1.51,3.69a2.86,2.86,0,0,1,.18,2A2.63,2.63,0,0,1,35,151.9a2.88,2.88,0,0,1-1.27-1.55l-1.52-3.7a2.76,2.76,0,0,1-.14-2,2.6,2.6,0,0,1,3.28-1.35ZM33.77,146l1.49,3.63a2.4,2.4,0,0,0,.43.72.6.6,0,0,0,1-.4,2.42,2.42,0,0,0-.21-.81L35,145.53c-.29-.68-.63-.94-1-.78S33.49,145.34,33.77,146Z"/><path class="cls-10" d="M140.94,187.78a3.46,3.46,0,0,1,1.75-1.36l2.93-1.2a4,4,0,0,1,2.29-.36,2.07,2.07,0,0,1,1.44,1.42,2.26,2.26,0,0,1,.13,1.81,2.45,2.45,0,0,1-1.36,1.14l-.14.05-.61-1.48a2.14,2.14,0,0,0,.75-.44.52.52,0,0,0,0-.57.55.55,0,0,0-.32-.33,1.16,1.16,0,0,0-.58,0,7.22,7.22,0,0,0-1,.36l-.84.34a1,1,0,0,1,.53.28,1.84,1.84,0,0,1,.4.62,1.61,1.61,0,0,1-.09,1.6,3.48,3.48,0,0,1-1.57,1.12,4,4,0,0,1-2.32.35,2,2,0,0,1-1.44-1.39A2.12,2.12,0,0,1,140.94,187.78Zm1.68,1.86a3.39,3.39,0,0,0,1.13-.31,6.85,6.85,0,0,0,.79-.37,1,1,0,0,0,.39-.36.53.53,0,0,0,0-.49.73.73,0,0,0-.27-.33,1,1,0,0,0-.37-.15l-1.31.54c-.78.32-1.08.69-.91,1.12A.53.53,0,0,0,142.62,189.64Z"/><path class="cls-10" d="M143.05,193.26a2.8,2.8,0,0,1,1.5-1.28l3.7-1.51a2.86,2.86,0,0,1,2-.18,2.26,2.26,0,0,1,1.33,1.4,2.2,2.2,0,0,1,0,1.91,2.89,2.89,0,0,1-1.56,1.28l-3.69,1.51a2.76,2.76,0,0,1-2,.14,2.58,2.58,0,0,1-1.35-3.27Zm2.69,1.52,3.63-1.49a2.45,2.45,0,0,0,.72-.43.5.5,0,0,0,.1-.61.49.49,0,0,0-.5-.37,2.26,2.26,0,0,0-.82.2l-3.63,1.49c-.69.28-.94.62-.78,1S145.05,195.06,145.74,194.78Z"/><path class="cls-10" d="M89.27,47.22l-3.91-.74-.29-.06a8.22,8.22,0,0,0-1.18-.15,2,2,0,0,0-.9.16,1,1,0,0,0-.54.4.55.55,0,0,0,0,.53.63.63,0,0,0,.56.45,2.27,2.27,0,0,0,1-.2l.37-.16L85,49l-.4.16a3.05,3.05,0,0,1-2.06.21,2.24,2.24,0,0,1-1.38-1.42,2.38,2.38,0,0,1-.1-1.87,2.35,2.35,0,0,1,1.37-1.21,2.88,2.88,0,0,1,1.23-.23,10.54,10.54,0,0,1,1.55.22l.22,0,3,.61-1-2.44,1.24-.51,1.73,4.22Z"/><path class="cls-10" d="M87.48,41.11A2.75,2.75,0,0,1,86,42.39L82.28,43.9a2.89,2.89,0,0,1-2,.18A2.2,2.2,0,0,1,79,42.69a2.23,2.23,0,0,1,0-1.92,2.84,2.84,0,0,1,1.55-1.27L84.17,38a2.76,2.76,0,0,1,2-.14,2.59,2.59,0,0,1,1.35,3.27Zm-2.69-1.52-3.63,1.49a2.4,2.4,0,0,0-.72.43.51.51,0,0,0-.11.61.53.53,0,0,0,.51.38,2.42,2.42,0,0,0,.81-.21l3.64-1.49c.68-.28.94-.62.77-1S85.48,39.31,84.79,39.59Z"/><path class="cls-10" d="M85.21,35.59a2.75,2.75,0,0,1-1.5,1.27L80,38.38a2.91,2.91,0,0,1-2,.17,2.24,2.24,0,0,1-1.33-1.39,2.2,2.2,0,0,1,0-1.91A2.82,2.82,0,0,1,78.21,34l3.69-1.52a2.73,2.73,0,0,1,2-.13,2.16,2.16,0,0,1,1.31,1.36A2.21,2.21,0,0,1,85.21,35.59Zm-2.68-1.52-3.64,1.48a2.47,2.47,0,0,0-.71.43.51.51,0,0,0-.11.61.5.5,0,0,0,.5.38,2.7,2.7,0,0,0,.82-.2L83,35.28c.69-.28,1-.63.78-1S83.21,33.78,82.53,34.07Z"/><path class="cls-11" d="M122.19,103.39V92a15.05,15.05,0,0,0-3.89-10.1l-4.15-4.62L110,81.88A15.05,15.05,0,0,0,106.1,92v11.41Z"/><path class="cls-12" d="M121.86,103V91.92a14.73,14.73,0,0,0-3.73-9.78l-4-4.47-4,4.47a14.73,14.73,0,0,0-3.73,9.78V103Z"/><path class="cls-13" d="M120.66,102.85v-10A13.81,13.81,0,0,0,117.51,84l-3.36-4-3.37,4a13.81,13.81,0,0,0-3.15,8.84v10Z"/><path class="cls-14" d="M120.36,103V93.21a13.74,13.74,0,0,0-3-8.64l-3.21-3.95-3.22,3.95a13.74,13.74,0,0,0-3,8.64V103Z"/><circle class="cls-15" cx="114.16" cy="113.37" r="18.59"/><circle class="cls-16" cx="114.16" cy="113.37" r="18.21"/><circle class="cls-17" cx="114.16" cy="113.37" r="15.04"/><path class="cls-18" d="M128.37,111a14.47,14.47,0,0,0-7.65-10.47,14.69,14.69,0,0,0-12.11-.47C94.82,105.6,98,126.4,112.91,127.7A14.41,14.41,0,0,0,128.37,111Z"/><path class="cls-19" d="M104.34,106.91a19.57,19.57,0,0,1,19.27,16.2A13.51,13.51,0,1,0,102.36,107,18.49,18.49,0,0,1,104.34,106.91Z"/><circle class="cls-20" cx="114.24" cy="114.24" r="99.21"/><circle class="cls-21" cx="76.72" cy="128.83" r="42.61" transform="translate(-42.51 37.91) rotate(-21.9)"/><circle class="cls-22" cx="151.94" cy="99.73" r="42.61"/><circle class="cls-23" cx="97.13" cy="71.38" r="42.61" transform="translate(-22.02 89.59) rotate(-45)"/><circle class="cls-24" cx="130.77" cy="157.18" r="42.61" transform="translate(-39.86 269.83) rotate(-83.67)"/><circle class="cls-25" cx="126.99" cy="103.89" r="23.53" transform="translate(-36.26 120.22) rotate(-45)"/></g></g></g></svg>