<svg xmlns="http://www.w3.org/2000/svg" viewBox="0 0 57 57"><defs><style>.cls-1{fill:none;stroke:#000;stroke-linecap:round;stroke-linejoin:round;stroke-width:4px;}</style></defs><title>7</title><g id="Layer_2" data-name="Layer 2"><g id="mail"><path class="cls-1" d="M4.94,11.94H52.06A3.14,3.14,0,0,1,55,15.25v6.63a3.15,3.15,0,0,1-2.94,3.31H4.94A3.15,3.15,0,0,1,2,21.88V15.25A3.14,3.14,0,0,1,4.94,11.94Z"/><path class="cls-1" d="M4.94,25.19H52.06v26.5a3.14,3.14,0,0,1-3,3.31H7.89a3.14,3.14,0,0,1-2.95-3.31V25.19Z"/><path class="cls-1" d="M16.72,2A16.11,16.11,0,0,1,28.5,11.94"/><path class="cls-1" d="M40.28,2A16.11,16.11,0,0,0,28.5,11.94"/><line class="cls-1" x1="28.5" y1="55" x2="28.5" y2="11.94"/></g></g></svg>