<svg xmlns="http://www.w3.org/2000/svg" viewBox="0 0 256 255.9"><path d="M256 128c0 70.7-57.3 128-128 128S0 198.7 0 128C.1 57.2 57.4 0 128 0s128 57.2 128 128" fill="#ffb446"/><path d="M128 40.4c48.4 0 87.6 39.2 87.6 87.6s-39.2 87.6-87.6 87.6c-48.4 0-87.6-39.2-87.6-87.6S79.7 40.4 128 40.4" fill="#fedf84"/><path d="M111.8 41.9c-52.6 9.8-84.4 64.7-66.3 115.5C33 165.5 20.3 171.1 9 174.9-21 99 27.3 13.7 108.9 1.4c2.1 11.2 3.7 25.1 2.9 40.5" fill="#ffc673"/><path d="M111.8 41.9c-2.5 48.6-27.8 90.6-66.3 115.5-18.1-50.8 13.8-105.7 66.3-115.5" fill="#fee59b"/><path d="M158 129.2c14.1-14 8.8-37.6-9.7-44.4v-8.1c0-4.6-3.7-8.3-8.3-8.3-4.6 0-8.3 3.7-8.3 8.3v6.4h-10v-6.4c0-4.6-3.7-8.3-8.3-8.3-4.6 0-8.3 3.7-8.3 8.3v6.4H96c-4.6 0-8.3 3.7-8.3 8.3s3.7 8.3 8.3 8.3h3.5v59H96c-4.6 0-8.3 3.7-8.3 8.3 0 4.6 3.7 8.3 8.3 8.3h9.4v6.4c0 4.6 3.7 8.3 8.3 8.3 4.6 0 8.3-3.7 8.3-8.3v-6.4h10v6.4c0 4.6 3.7 8.3 8.3 8.3 4.6 0 8.3-3.7 8.3-8.3v-8.1c18.2-6.8 23.5-30.6 9.4-44.4m-11.6-11.8c-3.9 3.9-5.9 3-30.4 3V99.6h23.1c9.2 0 13.9 11.2 7.3 17.8m-7.3 41.2H116v-20.8h23.1c5.7 0 10.4 4.7 10.4 10.4s-4.6 10.4-10.4 10.4" fill="#b57e37"/></svg>