<svg xmlns="http://www.w3.org/2000/svg" viewBox="0 0 163 163"><defs><style>.cls-1{fill:#fff}.cls-2{fill:#f09020}</style></defs><g id="Слой_2" data-name="Слой 2"><g id="Слой_2-2" data-name="Слой 2"><circle cx="58.62" cy="69.63" r="45.37"/><path d="M0 163V0h163L0 163z"/><g id="Layer_1" data-name="Layer 1"><path class="cls-1" d="M63.69 74.52l1.33 15.04v.41l.11.69 4.11-1.1-1.56-16.14-3.99 1.1zM78.39 50.09a6.27 6.27 0 00-4.23 0l-1.1.35-4.4 1.27-1.1.35v.87c.44 5.07.87 10.12 1.34 15.16a14.36 14.36 0 004.1-1.22 35.58 35.58 0 00-.23-4v-1.55l2.9-.81c6.13-2.26 6.19-9.21 2.72-10.42zm-3.19 7l-2.72.81c0-1.33-.34-2.54-.34-3.76a10.82 10.82 0 013.06-.81c1.45 0 1.91 2.89 0 3.76zM82 51.77c0 6.89 8.8 2.08 8.8 5.79 0 1.39-3.18 3.12-3.76.57-1 0-3.47 1-4.34 1.1a3.7 3.7 0 003.65 3.71 8.68 8.68 0 007-2.84c2-2 2.72-6.89-1.8-7.52-1.62 0-6.54.46-5.2-2.2a2.07 2.07 0 012.83-.7 6 6 0 01.46.87l1.1-.35h1.1l1.1-.34c.76 0 1.51 0 .64-1.74-1-4-6.83-2.6-9.09-.75a8.4 8.4 0 00-1.68 1.79 5.87 5.87 0 00-.81 2.61zM96.74 76.83c0 2-3.25 3-3.77.81-1.15.23-2.31.52-3.47.87-.87.29-1.21 0-.52 1.85a3.78 3.78 0 003.3 2 9.22 9.22 0 006.08-1.8c3.18-2.37 4-7.75-.7-8.51-1.33 0-5.38 0-5.38-1.15s0-1.16.69-1.62a1.89 1.89 0 012.32 0 .87.87 0 00.46.86c.46.35 3.76-1.21 4.34-1.21a3.7 3.7 0 00-3.59-3.59 9.11 9.11 0 00-3.93.64 8 8 0 00-3.88 3 4 4 0 00.56 5.7 4.11 4.11 0 001.76.84 22.58 22.58 0 003.29 0c1 0 2.32 0 2.32 1.21zM44.87 69.54c0-.35-.4-.35-.46-.7s.46-.34 1-.92a5.81 5.81 0 002-4.34 4 4 0 00-3.75-4.23h-.36a19.87 19.87 0 00-4.75 1c-1.56.41-2.95.93-4.45 1.33v2.55c0 3.42.58 6.89.92 10.36s0 3.36 1 3.07l3.41-1c0-2.2-.46-3.93-.46-6.13h.81l.92 1.21 3.07 3.77 4.58-1.33zm-4.39-2.26l-1.48.41v-3.77l1.33-.4c1.39-.47 3.3-1 3.3 1.16s-1.88 2.25-3.15 2.6zM38.33 97.61l-3.18-1.91 1-2.66a27.24 27.24 0 001-2.72 7.46 7.46 0 00-1.68.46l-1.68.46c-.81 0-.75 0-1.1 1s-.41 1-.58 1.56a40.72 40.72 0 01-4.6-2.8c-3-2.2 1.1-4.16 1.27-2l1-.29 1.85-.53h1.1c0-3.58-4.52-4.22-8-1.73a5.81 5.81 0 00-2.26 3.82c0 1 .41 2.78 1.34 3 0 .58-.58.58-.93 1a6.33 6.33 0 00-1.62 6.14 3.78 3.78 0 003.3 2.26 10.53 10.53 0 007-2.26c.58-.47 1-1 1.45-1.33 1.74 1.15 1.33 1.1 3 .58a14.59 14.59 0 003.3-1c.41-.24-.22-.66-.98-1.05zm-11.57 1.16a1.86 1.86 0 01-1.33-.35c-1.05-.75-.35-2.6.86-3.65l1.86 1.1L30.06 97a5 5 0 01-3.24 1.62zM65.89 58.71l-.35-.71a7.44 7.44 0 00-1-1.56l-.29-.29-.58-.52a7.85 7.85 0 00-6.83-.75 10.87 10.87 0 00-7.53 9.78c0 7.58 8.22 9.26 13.72 4.22a10.68 10.68 0 002.9-5.44 8.69 8.69 0 00-.04-4.73zm-4 5.15a5.09 5.09 0 01-5.15 3.94c-3.82 0-4.75-7.06 0-9.09 3.82-1.62 6.02 1.51 5.15 5.15zM31.79 67.05a5.86 5.86 0 00-1.5-1.56c-3.76-2.61-8.63 0-13 1.1v2.08l1.22 13.25c0 1.28 0 1 2.55 0l1.21-.4 1.22-.35a6.62 6.62 0 002.31-.69l2.09-1A9.55 9.55 0 0032.66 72a8.23 8.23 0 00-.87-4.95zm-5.15 9.32a7.92 7.92 0 01-3 1.33 1.34 1.34 0 00-1.1.35c-.4.34 0-1.62 0-2.2-.29-2.38-.34-4.4-.69-6.89a12.1 12.1 0 013.76-.81 3.29 3.29 0 013.18 3.3 4.79 4.79 0 01-2.15 4.92zM81 69.48c0 1.74.81 7.87.87 9.72-2.2-2.25-4.28-4.57-6.48-6.77-.35-.35-.64-.75-1-1l-3.58 1c-.41 0-.53 0-.41 1.39.52 5.79.93 9.67 1.33 14.47 0 .64.81 0 2.08 0a9.45 9.45 0 002.19-.75 22.26 22.26 0 00-.47-4.69 17.08 17.08 0 00-.29-3.53 9 9 0 010-1.27l1.86 1.85 5.49 5.79 4.11-1.22-1.5-16.15z"/><path class="cls-2" d="M59.63 105.25a22.69 22.69 0 01-4.86-.35h-1.44a33.32 33.32 0 01-8.46-2.9c-1.5-.75-.86-.81-3.58 0l-2.61.75a35 35 0 008.28 4.4 19.46 19.46 0 002.37.81l1.22.35a37.82 37.82 0 0016.67 0 8.66 8.66 0 002.66-.7 18.36 18.36 0 002.49-.87l2.31-1 2.26-1.16L79 103.4a26.91 26.91 0 003.3-2.49l.52-.35a39.92 39.92 0 004.92-5.15 34.33 34.33 0 004.46-7.24 4.15 4.15 0 00.52-1.27 16.86 16.86 0 00-2.49.64c-2.66.87-2.2 0-3.06 1.73a32.26 32.26 0 01-8.34 9.38 31.93 31.93 0 01-19.22 6.54z"/><path class="cls-1" d="M56.1 88.23a15.5 15.5 0 01-1-2.2l-2.3-6.42a4.82 4.82 0 01-.4-1.39c-1.33.29-2.61.64-3.88 1s-.75.35-.93 1.56L47 85.05v2.2l-.7 4L43 80.77 38.51 82l5.79 14.91 4.51-1.33c.46 0 .41 0 .52-.69l1.51-10.25a67.47 67.47 0 012.66 6.83l.81 2.44 5-1.34 2.78-17.36a30.87 30.87 0 00-3.7 1c-.81.23-.81.41-.87 1.45a93.11 93.11 0 00-1.42 10.57z"/><path class="cls-2" d="M26 59.23a13 13 0 003.35-.81 4 4 0 001.17-.42 5.26 5.26 0 001-1.27 32.13 32.13 0 0143-12.5 5.13 5.13 0 001.56.57 3.31 3.31 0 001.33 0L81 43.49a36.54 36.54 0 00-31.38-5.79 35.65 35.65 0 00-14.35 8.11A36.41 36.41 0 0029.83 52 19.24 19.24 0 0026 59.23zM38.62 9a87.92 87.92 0 00.81 11l1.45 9.78a19.12 19.12 0 00-3-3.76 18.35 18.35 0 00-9-4.63 7.28 7.28 0 00-2.55 0 28.92 28.92 0 019.32 9 28.79 28.79 0 012 3.53A42.1 42.1 0 0139.38 38l3.7-2a36 36 0 019-2.72 41.31 41.31 0 015.21-.58l-.52-1.91a40.12 40.12 0 01-.64-4.51 31.74 31.74 0 012.38-15.16 17.23 17.23 0 00-5.21 6.25 20.11 20.11 0 00-2 9.55v-.62a1.34 1.34 0 010-.4l-3.41-6.26-.76-1.44-.81-1.62c0-.52-.52-.93-.75-1.45A58.53 58.53 0 0038.8 5q-.18 2-.18 4z"/></g></g></g></svg>