<svg xmlns="http://www.w3.org/2000/svg" viewBox="0 0 512 500"><linearGradient id="a" gradientUnits="userSpaceOnUse" x1="244.309" y1="-393.047" x2="244.309" y2="136.563" gradientTransform="translate(-4.604 487.793) scale(1.0667)"><stop offset="0" stop-color="#ffcf95"/><stop offset=".427" stop-color="#ffc954"/><stop offset="1" stop-color="#ffc200"/></linearGradient><path d="M274.8 23.2l67.7 137.2 151.4 22c17.2 2.5 24.1 23.7 11.6 35.8L396.1 325.1 422 475.9c2.9 17.2-15.1 30.2-30.5 22.1L256 426.8 120.6 498c-15.4 8.1-33.4-5-30.5-22.1L116 325.1 6.4 218.3C-6.1 206.1.8 185 18 182.5l151.4-22 67.7-137.2c7.8-15.7 30-15.7 37.7-.1z" fill="url(#a)"/><linearGradient id="b" gradientUnits="userSpaceOnUse" x1="368.716" y1="-324.737" x2="208.617" y2="-324.737" gradientTransform="translate(-4.604 487.793) scale(1.0667)"><stop offset="0" stop-color="#ffc200" stop-opacity="0"/><stop offset=".203" stop-color="#fb0" stop-opacity=".203"/><stop offset=".499" stop-color="#ffa700" stop-opacity=".499"/><stop offset=".852" stop-color="#f80" stop-opacity=".852"/><stop offset="1" stop-color="#ff7800"/></linearGradient><path d="M342.6 160.4L274.8 23.2c-3.9-7.8-11.3-11.7-18.8-11.7v259.8l86.6-110.9z" fill="url(#b)"/><linearGradient id="c" gradientUnits="userSpaceOnUse" x1="396.053" y1="-79.454" x2="353.653" y2="-288.254" gradientTransform="translate(-4.604 487.793) scale(1.0667)"><stop offset="0" stop-color="#ffc200" stop-opacity="0"/><stop offset=".203" stop-color="#fb0" stop-opacity=".203"/><stop offset=".499" stop-color="#ffa700" stop-opacity=".499"/><stop offset=".852" stop-color="#f80" stop-opacity=".852"/><stop offset="1" stop-color="#ff7800"/></linearGradient><path d="M396.1 325.1l109.6-106.8c6.2-6 7.6-14.2 5.4-21.2l-255 74.3 140 53.7z" fill="url(#c)"/><linearGradient id="d" gradientUnits="userSpaceOnUse" x1="190.474" y1="30.27" x2="356.534" y2="-135.79" gradientTransform="translate(-4.604 487.793) scale(1.0667)"><stop offset="0" stop-color="#ffc200" stop-opacity="0"/><stop offset=".203" stop-color="#fb0" stop-opacity=".203"/><stop offset=".499" stop-color="#ffa700" stop-opacity=".499"/><stop offset=".852" stop-color="#f80" stop-opacity=".852"/><stop offset="1" stop-color="#ff7800"/></linearGradient><path d="M413.6 496.4L256 271.3v155.5L391.4 498c7.8 4.1 16.2 2.8 22.2-1.6z" fill="url(#d)"/><linearGradient id="e" gradientUnits="userSpaceOnUse" x1="72.052" y1="-179.721" x2="194.452" y2="-77.321" gradientTransform="translate(-4.604 487.793) scale(1.0667)"><stop offset="0" stop-color="#ffc200" stop-opacity="0"/><stop offset=".203" stop-color="#fb0" stop-opacity=".203"/><stop offset=".499" stop-color="#ffa700" stop-opacity=".499"/><stop offset=".852" stop-color="#f80" stop-opacity=".852"/><stop offset="1" stop-color="#ff7800"/></linearGradient><path d="M256 271.3l-140.1 53.8-25.8 150.8c-1.5 8.5 2.3 16.1 8.3 20.5L256 271.3z" fill="url(#e)"/><linearGradient id="f" gradientUnits="userSpaceOnUse" x1="163.811" y1="-348.638" x2="114.211" y2="-207.838" gradientTransform="translate(-4.604 487.793) scale(1.0667)"><stop offset="0" stop-color="#ffc200" stop-opacity="0"/><stop offset=".203" stop-color="#fb0" stop-opacity=".203"/><stop offset=".499" stop-color="#ffa700" stop-opacity=".499"/><stop offset=".852" stop-color="#f80" stop-opacity=".852"/><stop offset="1" stop-color="#ff7800"/></linearGradient><path d="M1 197l255 74.3-86.6-110.9-151.4 22c-8.7 1.3-14.8 7.4-17 14.6z" fill="url(#f)"/><linearGradient id="g" gradientUnits="userSpaceOnUse" x1="350.521" y1="-333.928" x2="-13.879" y2="-178.728" gradientTransform="translate(-4.604 487.793) scale(1.0667)"><stop offset="0" stop-color="#ffc200" stop-opacity="0"/><stop offset=".203" stop-color="#fb0" stop-opacity=".203"/><stop offset=".499" stop-color="#ffa700" stop-opacity=".499"/><stop offset=".852" stop-color="#f80" stop-opacity=".852"/><stop offset="1" stop-color="#ff7800"/></linearGradient><path d="M115.9 325.1L6.4 218.3c-6.2-6-7.6-14.2-5.4-21.2l255 74.3-140.1 53.7z" fill="url(#g)"/></svg>