<svg xmlns="http://www.w3.org/2000/svg" viewBox="0 0 512 512"><radialGradient id="a" cx="243.569" cy="263.824" r="266.634" gradientTransform="matrix(1 0 0 -1 0 511)" gradientUnits="userSpaceOnUse"><stop offset="0" stop-color="#ffa700"/><stop offset=".323" stop-color="#fca300"/><stop offset=".665" stop-color="#f39600"/><stop offset="1" stop-color="#e58200"/></radialGradient><path d="M512 256c0 141.4-114.6 256-256 256S0 397.4 0 256 114.6 0 256 0s256 114.6 256 256z" fill="url(#a)"/><linearGradient id="b" gradientUnits="userSpaceOnUse" x1="256" y1="295.446" x2="256" y2="-162.015" gradientTransform="matrix(1 0 0 -1 0 511)"><stop offset="0" stop-color="#e58200" stop-opacity="0"/><stop offset=".04" stop-color="#e27f04" stop-opacity=".039"/><stop offset=".467" stop-color="#c15d2f" stop-opacity=".467"/><stop offset=".802" stop-color="#ad4949" stop-opacity=".8"/><stop offset="1" stop-color="#a64153"/></linearGradient><path d="M0 256c0 91.4 47.9 171.5 119.9 216.8h272.2C464.1 427.5 512 347.4 512 256S464.1 84.5 392.1 39.2H119.9C47.9 84.5 0 164.6 0 256z" fill="url(#b)"/><linearGradient id="c" gradientUnits="userSpaceOnUse" x1="256" y1="193.051" x2="256" y2="655.334" gradientTransform="matrix(1 0 0 -1 0 511)"><stop offset="0" stop-color="#e58200" stop-opacity="0"/><stop offset=".04" stop-color="#e27f04" stop-opacity=".039"/><stop offset=".467" stop-color="#c15d2f" stop-opacity=".467"/><stop offset=".802" stop-color="#ad4949" stop-opacity=".8"/><stop offset="1" stop-color="#a64153"/></linearGradient><path d="M0 256c0 65.2 24.4 124.7 64.5 169.9h383C487.6 380.7 512 321.2 512 256s-24.4-124.7-64.5-169.9h-383C24.4 131.3 0 190.8 0 256z" fill="url(#c)"/><linearGradient id="d" gradientUnits="userSpaceOnUse" x1="256" y1="247.26" x2="256" y2="99.415" gradientTransform="matrix(1 0 0 -1 0 511)"><stop offset="0" stop-color="#e58200" stop-opacity="0"/><stop offset=".04" stop-color="#e27f04" stop-opacity=".039"/><stop offset=".467" stop-color="#c15d2f" stop-opacity=".467"/><stop offset=".802" stop-color="#ad4949" stop-opacity=".8"/><stop offset="1" stop-color="#a64153"/></linearGradient><path d="M0 256c0 38.1 8.3 74.2 23.3 106.7h465.5C503.7 330.2 512 294.1 512 256s-8.3-74.2-23.3-106.7H23.3C8.3 181.8 0 217.9 0 256z" fill="url(#d)"/><linearGradient id="e" gradientUnits="userSpaceOnUse" x1="256" y1="199.074" x2="256" y2="450.832" gradientTransform="matrix(1 0 0 -1 0 511)"><stop offset="0" stop-color="#e58200" stop-opacity="0"/><stop offset=".04" stop-color="#e27f04" stop-opacity=".039"/><stop offset=".467" stop-color="#c15d2f" stop-opacity=".467"/><stop offset=".802" stop-color="#ad4949" stop-opacity=".8"/><stop offset="1" stop-color="#a64153"/></linearGradient><path d="M0 256c0 22.1 2.8 43.4 8 63.9h496c5.2-20.4 8-41.8 8-63.9s-2.8-43.4-8-63.9H8c-5.2 20.5-8 41.8-8 63.9z" fill="url(#e)"/><radialGradient id="f" cx="160.75" cy="324.056" r="358.384" gradientTransform="matrix(1 0 0 -1 0 511)" gradientUnits="userSpaceOnUse"><stop offset="0" stop-color="#ffc738"/><stop offset=".284" stop-color="#ffc534"/><stop offset=".539" stop-color="#ffbf29"/><stop offset=".783" stop-color="#ffb417"/><stop offset="1" stop-color="#ffa700"/></radialGradient><path d="M235.7.8C103.8 11.2 0 121.5 0 256s103.8 244.8 235.7 255.2C367.6 500.8 471.3 390.5 471.3 256S367.6 11.2 235.7.8z" fill="url(#f)"/><radialGradient id="g" cx="235.672" cy="255" r="224.174" gradientTransform="matrix(1 0 0 -1 0 511)" gradientUnits="userSpaceOnUse"><stop offset="0" stop-color="#fffcf8"/><stop offset=".949" stop-color="#fffcf8" stop-opacity=".051"/><stop offset="1" stop-color="#fffcf8" stop-opacity="0"/></radialGradient><path d="M248.9 24.2c-8.8-1.2-17.7-1.2-26.5 0C108.3 39.8 20.3 137.6 20.3 256s88 216.2 202.1 231.8c8.8 1.2 17.7 1.2 26.5 0C363.1 472.2 451 374.4 451 256S363.1 39.8 248.9 24.2z" fill="url(#g)"/><radialGradient id="h" cx="264.056" cy="278.958" r="291.192" gradientTransform="matrix(.9201 0 0 -1.0039 9.2 512.102)" gradientUnits="userSpaceOnUse"><stop offset="0" stop-color="#ffa700"/><stop offset=".323" stop-color="#fca300"/><stop offset=".665" stop-color="#f39600"/><stop offset="1" stop-color="#e58200"/></radialGradient><path d="M405.8 256c0-103.2-76.6-186.8-171.2-186.8-94.5 0-171.2 83.6-171.2 186.8S140 442.8 234.6 442.8 405.8 359.2 405.8 256z" fill="url(#h)"/><radialGradient id="i" cx="183.684" cy="319.242" r="273.032" gradientTransform="matrix(1 0 0 -1 0 511)" gradientUnits="userSpaceOnUse"><stop offset="0" stop-color="#ffc738"/><stop offset=".284" stop-color="#ffc534"/><stop offset=".539" stop-color="#ffbf29"/><stop offset=".783" stop-color="#ffb417"/><stop offset="1" stop-color="#ffa700"/></radialGradient><path d="M281.6 76.4c-21.3-6.6-44.1-6.6-65.4 0C144.6 98.6 92.1 170.6 92.1 256c0 87 54.6 160.2 128.4 180.9 18.6 5.2 38.3 5.2 56.9 0C351.2 416.2 405.8 343 405.8 256c0-85.4-52.5-157.4-124.2-179.6z" fill="url(#i)"/><linearGradient id="j" gradientUnits="userSpaceOnUse" x1="349.663" y1="201.069" x2="139.351" y2="249.623" gradientTransform="matrix(1 0 0 -1 0 511)"><stop offset="0" stop-color="#aa6d00" stop-opacity="0"/><stop offset=".635" stop-color="#ec8c00" stop-opacity=".635"/><stop offset="1" stop-color="#e58200"/></linearGradient><path d="M409 276L256.9 147.7c-.2-2.1-2.3-3.8-4.7-3.8h-17.3c-2.6 0-4.7 1.9-4.7 4.2v13.3L212 147.7c-.2-2.1-2.3-3.8-4.7-3.8H190c-2.6 0-4.7 1.9-4.7 4.2v13.3h-14.9c-2.6 0-4.7 1.9-4.7 4.2v13.7c0 2.2 1.9 4 4.3 4.2l15.4 14.8V311h-14.9c-2.6 0-4.7 1.9-4.7 4.2V329c0 2.2 1.9 4 4.3 4.2l107.6 103.7c78-11.5 113.8-91.8 131.3-160.9z" fill="url(#j)"/><path d="M295.6 253.7c-4.5-5.9-11.3-10.4-20.2-13.5 14.9-5.9 22.3-18.6 22.3-38.1 0-15.2-4.8-25.7-14.4-31.7-7.2-4.4-16.1-7.2-26.9-8.3v-13.9c0-2.3-2.1-4.2-4.7-4.2h-17.3c-2.6 0-4.7 1.9-4.7 4.2v13.3h-18.1v-13.3c0-2.3-2.1-4.2-4.7-4.2h-17.3c-2.6 0-4.7 1.9-4.7 4.2v13.3H170c-2.6 0-4.7 1.9-4.7 4.2v13.7c0 2.3 2.1 4.2 4.7 4.2h14.9V311H170c-2.6 0-4.7 1.9-4.7 4.2V329c0 2.3 2.1 4.2 4.7 4.2h14.9v13.3c0 2.3 2.1 4.2 4.7 4.2h17.3c2.6 0 4.7-1.9 4.7-4.2v-13.3h18.1v13.3c0 2.3 2.1 4.2 4.7 4.2h17.3c2.6 0 4.7-1.9 4.7-4.2V333c13.1-.9 23.7-4.7 31.9-11.5 9.4-7.8 14.2-20.4 14.2-37.6v-4.5c-.1-11.2-2.4-19.8-6.9-25.7zm-83.4-70.1h30.7c18 0 27 7.5 27 22.6 0 16.1-8.8 24.2-26.5 24.2h-31.2v-46.8zm62.4 98.4c0 19.4-9.9 29.1-29.6 29.1h-32.8V250H245c9.8 0 17.2 2.2 22.2 6.6 5 4.4 7.5 11.6 7.5 21.6v3.8z" fill="#ffce33"/></svg>