<svg xmlns="http://www.w3.org/2000/svg" width="616.169" height="511.231" viewBox="0 0 163.028 135.263" version="1.1" id="svg8"><g id="layer1" transform="translate(-2.397 -162.089)"><g transform="matrix(1.21389 0 0 1.28791 1.69 -65.554)" id="layer1-6" stroke-width=".8"><g transform="matrix(.33182 0 0 .33745 .572 142.863)" id="g120" stroke-width=".633"><path class="st0" d="M342.7 178.8c0-.1.1-.4.3-.7l20.6-37.2c.6-1 1.6-1.7 2.9-2 1.4-.3 2.9-.3 4.5 0s3 .9 4.1 1.8c1.1.9 1.7 1.9 1.8 3l3.7 42.4v.7c-.2 1.1-1.2 2-2.7 2.5-1.6.5-3.1.6-4.7.3-1.9-.4-2.8-1.3-2.9-2.6l-.5-8.6-13.8-2.9-4 7.7c-.6 1.2-1.9 1.6-3.7 1.2-1.5-.3-2.9-1-4.1-2.2-1.2-1.1-1.7-2.2-1.5-3.4zm17.1-10.7l9.5 2-1-18.5z" id="path12" fill="#9b62cd" stroke-width=".633"/><path class="st1" d="M365.4 386.4L210 370c-6.7-.7-11.6-6.8-10.9-13.5l25.8-245.1c.7-6.7 6.8-11.6 13.5-10.9l155.4 16.3c6.7.7 11.6 6.8 10.9 13.5l-25.8 245.1c-.7 6.8-6.7 11.7-13.5 11z" id="path14" fill="#c7cfe2" stroke-width=".633"/><path class="st0" d="M238.5 165.9c0-.1.1-.4.2-.7l16.6-39.2c.5-1.1 1.4-1.8 2.7-2.3 1.3-.5 2.8-.6 4.4-.4 1.6.2 3.1.6 4.3 1.4 1.2.7 1.9 1.7 2.2 2.8l8.2 41.8c.1.4.1.6.1.7-.1 1.2-.9 2.1-2.5 2.8-1.5.7-3.1 1-4.6.8-1.9-.2-3-1-3.2-2.3l-1.4-8.5-14-1.5-3.1 8.1c-.5 1.2-1.7 1.8-3.6 1.6-1.5-.2-3-.7-4.3-1.7-1.5-1.2-2.1-2.2-2-3.4zm15.8-12.4l9.7 1-3-18.3z" id="path16" fill="#9b62cd" stroke-width=".633"/><path class="st2" d="M246.7 110.8c-6.7-.7-12.8 4.2-13.5 10.9l-25.8 245.1c-.1.9-.1 1.8 0 2.6.8.3 1.7.5 2.6.6l155.4 16.3c6.7.7 12.8-4.2 13.5-10.9l25.8-245.1c.1-.9.1-1.8 0-2.6-.8-.3-1.7-.5-2.6-.6z" id="path18" fill="#d7deed" stroke-width=".633"/><path class="st3" d="M393.8 116.8l-3.4-.4L365 358.2c-.7 6.7-6.8 11.6-13.5 10.9l-152.1-16-.4 3.4c-.7 6.7 4.2 12.8 10.9 13.5l155.4 16.3c6.7.7 12.8-4.2 13.5-10.9l25.8-245.1c.8-6.7-4.1-12.8-10.8-13.5z" id="path20" fill="#d1d8e5" stroke-width=".633"/><path class="st4" d="M333.9 227c.5-1.8.9-3.7 1.1-5.6 1.8-16.8-10.4-31.9-27.3-33.7-16.8-1.8-31.9 10.4-33.7 27.3-.2 1.9-.2 3.9-.1 5.7-15.5-.1-28.9 11.6-30.6 27.4-1.8 16.8 10.4 31.9 27.3 33.7 7.3.8 14.3-1.1 20-4.8-2.4 5.9-5.6 10.9-9.3 14.3-1.7 1.6-1.5 6.1.2 6.3l28.9 3c1.8.2 2.9-4.2 1.5-6.1-2.9-4.1-5.2-9.8-6.5-16.2 4.8 5 11.4 8.4 18.8 9.2 16.8 1.8 31.9-10.4 33.7-27.3 1.8-15.8-8.8-30-24-33.2z" id="path22" fill="#4d5967" stroke-width=".633"/><path d="M358 260.2c-1.8 16.8-16.8 29-33.6 27.3-7.5-.8-14-4.2-18.8-9.2 1.2 6.4 3.5 12.1 6.5 16.2 1.3 1.9.2 6.3-1.5 6.1l-28.9-3c-1.8-.2-1.9-4.7-.2-6.3 1.5-1.4 3-3.1 4.4-5.1 1.9-2.7 3.6-5.8 4.9-9.2-5.7 3.7-12.7 5.6-20 4.8h-.2c-14-1.6-24.2-14.2-22.9-28.3v-.2c1.7-15.8 15-27.5 30.6-27.4-.2-1.9-.1-3.8.1-5.7 1.8-16.8 16.8-29 33.7-27.3.5 0 .9.1 1.4.2 13 2 22.6 13.8 21.8 26.9 0 .5-.1.9-.1 1.4-.2 1.9-.6 3.8-1.1 5.6 1.7.4 3.4.9 5 1.5 6 2.4 11.1 6.6 14.5 11.9 3.4 5.7 5.2 12.6 4.4 19.8z" id="path29" fill="url(#SVGID_1_)" stroke-width=".633"/><path d="M210 370l155.4 16.3c6.7.7 12.8-4.2 13.5-10.9l16.7-159.1-110.5-110.5c-.1-.1-.2-.3-.3-.4l-28.8-3-28.8 3c-1.3 1.7-2.1 3.8-2.4 6.1L199 356.6c-.6 6.7 4.3 12.7 11 13.4z" id="path42" fill="url(#SVGID_2_)" stroke-width=".633"/><path class="st1" d="M302 370l-155.4 16.3c-6.7.7-12.8-4.2-13.5-10.9l-25.8-245.1c-.7-6.7 4.2-12.8 10.9-13.5l155.4-16.3c6.7-.7 12.8 4.2 13.5 10.9l25.8 245.1c.7 6.8-4.2 12.8-10.9 13.5z" id="path44" fill="#c7cfe2" stroke-width=".633"/><path class="st0" d="M132 180.8c0-.1 0-.4.1-.7l8.1-41.8c.2-1.1 1-2.1 2.2-2.8 1.2-.7 2.6-1.2 4.3-1.4 1.6-.2 3.1 0 4.4.4 1.3.5 2.2 1.2 2.7 2.3l16.7 39.2c.1.3.2.6.2.7.1 1.2-.5 2.2-1.8 3.2s-2.8 1.6-4.3 1.7c-1.9.2-3.1-.3-3.6-1.6l-3.1-8.1-14 1.5-1.4 8.5c-.2 1.3-1.3 2.1-3.2 2.3-1.5.2-3.1-.1-4.6-.8-1.8-.5-2.6-1.5-2.7-2.6zm12.9-15.5l9.7-1-6.7-17.3z" id="path46" fill="#9b62cd" stroke-width=".633"/><path class="st2" d="M128.5 125.1c-6.7.7-11.6 6.8-10.9 13.5l25.8 245.1c.1.9.3 1.8.6 2.6.9.1 1.7.1 2.6 0L302 370c6.7-.7 11.6-6.8 10.9-13.5l-25.8-245.1c-.1-.9-.3-1.8-.6-2.6-.9-.1-1.7-.1-2.6 0z" id="path48" fill="#d7deed" stroke-width=".633"/><path d="M221.7 295.9l43.5-53c12.4-15.1 10.2-37.4-4.9-49.8-15.1-12.4-37.4-10.2-49.8 4.9l-4.8 5.8-5.7-4.8c-15.1-12.4-37.4-10.2-49.8 4.9-12.4 15.1-10.2 37.4 4.9 49.8l53 43.5c4.1 3.4 10.2 2.8 13.6-1.3z" id="path50" fill="#e51f82" stroke-width=".633"/><path d="M160.3 257.9l48.6 39.9c4.1 2.7 9.6 1.9 12.8-1.9l43.5-53c11.8-14.3 10.4-35.1-2.6-47.7-14.9-9.9-35.2-7.1-46.8 7L211 208l-5.2-4.2-2.1-1.7c-15-11.1-36.3-8.6-48.3 6-12.4 15.1-10.2 37.4 4.9 49.8z" id="path57" fill="url(#SVGID_3_)" stroke-width=".633"/><path class="st3" d="M273.7 100.5l-3.4.4 25.4 241.7c.7 6.7-4.2 12.8-10.9 13.5l-152.1 16 .4 3.4c.7 6.7 6.8 11.6 13.5 10.9L302 370c6.7-.7 11.6-6.8 10.9-13.5l-25.8-245.1c-.7-6.8-6.7-11.6-13.4-10.9z" id="path59" fill="#d1d8e5" stroke-width=".633"/><path d="M162.6 113.7l-54.8 11.7c-.5 1.5-.7 3.2-.5 4.9l25.8 245.1c.7 6.7 6.8 11.6 13.5 10.9L302 370c6.7-.7 11.6-6.8 10.9-13.5l-11.7-111.2-125.1-125.2c-2.5-4.8-8-7.6-13.5-6.4z" id="path72" fill="url(#SVGID_4_)" stroke-width=".633"/><path class="st1" d="M219 378.8L66.1 411.3c-6.6 1.4-13.2-2.8-14.6-9.5L.3 160.8c-1.4-6.6 2.8-13.2 9.5-14.6l152.9-32.5c6.6-1.4 13.2 2.8 14.6 9.5l51.2 241.1c1.3 6.6-2.9 13.1-9.5 14.5z" id="path74" fill="#c7cfe2" stroke-width=".633"/><path class="st2" d="M20.9 153.4c-6.6 1.4-10.9 7.9-9.5 14.6l51.2 241.1c.2.9.5 1.7.8 2.5.9 0 1.7-.1 2.6-.3l153-32.5c6.6-1.4 10.9-7.9 9.5-14.6l-51.2-241.1c-.2-.9-.5-1.7-.8-2.5-.9 0-1.7.1-2.6.3z" id="path76" fill="#d7deed" stroke-width=".633"/><path class="st4" d="M30.1 208.4v-.7l3.7-42.4c.1-1.2.7-2.2 1.8-3 1.1-.9 2.5-1.4 4.1-1.8 1.6-.3 3.1-.4 4.5 0 1.4.3 2.3 1 2.9 2l20.7 37.2c.2.3.3.6.3.7.2 1.1-.3 2.3-1.5 3.4s-2.6 1.9-4.1 2.2c-1.9.4-3.1 0-3.7-1.2l-4-7.7-13.9 2.9-.5 8.6c-.1 1.3-1.1 2.2-2.9 2.6-1.5.3-3.1.2-4.7-.3s-2.5-1.4-2.7-2.5zm11.2-16.7l9.5-2-8.5-16.5z" id="path78" fill="#4d5967" stroke-width=".633"/><path class="st3" d="M162.6 113.7l-3.3.7 50.5 237.8c1.4 6.6-2.8 13.2-9.5 14.6L50.8 398.6l.7 3.3c1.4 6.6 7.9 10.9 14.6 9.5L219 378.8c6.6-1.4 10.9-7.9 9.5-14.6l-51.2-241.1c-1.5-6.5-8.1-10.8-14.7-9.4z" id="path80" fill="#d1d8e5" stroke-width=".633"/><path class="st4" d="M159.3 241.4L108.6 209c-3.9-2.5-9.2-1.4-11.7 2.6l-32.4 50.7c-9.2 14.4-5 33.6 9.4 42.8 13.1 8.3 30 5.7 40-5.6-.6 5.7-2.1 10.9-4.3 14.8-1.1 2 .4 6.3 2.2 5.9l28.4-6c1.7-.4 1.4-4.9-.4-6.3-3.8-2.8-7.6-7.2-10.6-12.5 14 6.7 31.1 2.1 39.6-11.2 9.2-14.4 4.9-33.6-9.5-42.8z" id="path82" fill="#4d5967" stroke-width=".633"/><path d="M172.9 261.1c1.6 7.7.4 16-4.2 23.2-8.6 13.4-25.7 18-39.6 11.2 1.5 2.6 3.2 5 5 7.1 1.8 2.1 3.7 3.9 5.6 5.3 1.8 1.4 2.2 5.9.4 6.3l-28.4 6c-1.7.4-3.3-3.9-2.2-5.9.8-1.5 1.6-3.1 2.2-4.9 1-3 1.7-6.3 2.1-9.9-4.5 5.1-10.4 8.5-16.8 9.8-6.7 1.4-13.9.6-20.4-2.6-12.1-9.8-15.2-27.3-6.6-40.8l32.4-50.7c2.5-3.9 7.8-5.1 11.7-2.6l46.6 29.8c6.5 4.7 10.7 11.4 12.2 18.7z" id="path89" fill="url(#SVGID_5_)" stroke-width=".633"/></g></g></g><style id="style10" type="text/css">.st0{fill:#9b62cd}.st1{fill:#c7cfe2}.st2{fill:#d7deed}.st3{fill:#d1d8e5}.st4{fill:#4d5967}</style><style id="style122" type="text/css">.st0{fill:#e3e8f4}.st1{fill:#c7cfe2}.st2{fill:#d7deed}.st3{fill:#eff2fa}.st4{fill:#5b5d6e}</style><style type="text/css" id="style10-2">.st0{fill:#9b62cd}.st1{fill:#c7cfe2}.st2{fill:#d7deed}.st3{fill:#d1d8e5}.st4{fill:#4d5967}</style></svg>