<svg xmlns="http://www.w3.org/2000/svg" viewBox="0 0 108.51 108.51"><style>.st2,.st3,.st5{fill-rule:evenodd;clip-rule:evenodd;fill:#f0c087}.st3,.st5{fill:#e6af78}.st5{fill:#ff386a}</style><g id="Capa_1"><path d="M44.07 3.88c2.73-4.39 24.46-8.25 33.32 7.34s4.4 21.05 9.29 26.56c4.89 5.5.29 18.13-3.11 19.24-3.4 1.11-2.03 5.47-.38 7.35 7.07 8.01-3.15 21.51-30.47 21.38C23.52 85.6 17.8 69.9 25.28 65c2.44-1.6 3.39-4.67.71-7.37s-8.84-12.77-3.03-21.03.74-32.73 21.11-32.72z" fill-rule="evenodd" clip-rule="evenodd" fill="#694b4b"/><path d="M63.93 68.07c-.2.31-19.75.62-19.96.93-6.14 8.76-19.4 12.6-29.95 14.95C3.52 86.3 3.11 99.63 3.1 108.51h102.32c-.02-8.88-.21-22.17-10.92-24.56-10.71-2.39-24.75-6.72-30.57-15.88z" fill-rule="evenodd" clip-rule="evenodd" fill="#ffa8be"/><path class="st2" d="M64.51 49.37v25.12c-6.15 10.78-15.37 10.51-20.5 0V49.37c0-13.57 20.5-13.57 20.5 0z"/><path class="st3" d="M64.51 49.37v16.82c-3.88 3.04-7.62 4.74-10.25 4.74s-6.37-1.7-10.25-4.73V49.37c0-13.57 20.5-13.57 20.5 0z"/><path class="st2" d="M54.26 66.74c-6.67 0-20.77-10.49-25.14-25.52-4.4-15.18 3.89-36.94 25.14-36.94S83.8 26.05 79.39 41.22c-4.36 15.02-18.46 25.52-25.13 25.52z"/><ellipse transform="rotate(-66.753 79.7034 44.3635)" class="st2" cx="79.7" cy="44.36" rx="7.32" ry="4.23"/><ellipse transform="rotate(-23.249 28.7866 44.3602)" class="st2" cx="28.79" cy="44.36" rx="4.23" ry="7.32"/><path class="st3" d="M32.36 29.23c-.58-.04-1.54 3.93-1.73 7.72-.11 2.27-.31 7.32 2.31 12.97 2.14 4.61 4.99 7.13 9.16 10.81 0 0 3.58 3.14 7.95 5.02.69.3 1.9.66 2.56.8.2.04.45.08.96.15.47.06.67.08.68.03.01-.04-.12-.1-.33-.24 0 0-.09-.06-.57-.43-6.01-4.62-9.41-8.18-9.41-8.18-1.5-1.57-8.55-8.96-10.55-19.74-.92-4.89-.45-8.87-1.03-8.91z"/><path d="M65.47 17.94c.29 11.65.92 18.65 7.64 15.9s5.45 4.96 4.23 10.47c5.96-7.43 5.26-14.49 3.4-21.67-2.03-7.87-12.27-19.83-21.88-19.61-5.22-.54-13.12.1-21.52 6.05-14.67 10.39-9.77 33.75-5.82 36.51-3.83-21.63 5.54-17.23 12.01-28.54 2.13-4.99 21.63-11.34 21.94.89z" fill-rule="evenodd" clip-rule="evenodd" fill="#5a4146"/><path class="st5" d="M44.01 68.98l-7.32 6.69 9.3 14.44 8.04-7.62zM64.51 68.93l7.31 6.97-9.77 14.21-8.02-7.62z"/><path class="st5" d="M53.21 82.57h2.1v25.94h-2.1zM21.4 108.51c.06-2.01.25-4.43.73-7.39-.91 2.88-1.55 5.29-2 7.39h1.27zM87.11 108.51c-.06-2.01-.25-4.43-.73-7.39.91 2.88 1.55 5.29 2 7.39h-1.27z"/></g></svg>