<svg xmlns="http://www.w3.org/2000/svg" viewBox="0 0 512 512"><linearGradient id="a" gradientUnits="userSpaceOnUse" x1="244.309" y1="128.484" x2="244.309" y2="-480.014" gradientTransform="translate(-4.604 487.79) scale(1.0667)"><stop offset="0" stop-color="#fff"/><stop offset="1" stop-color="#e8efee"/></linearGradient><circle cx="256" cy="256" r="256" fill="url(#a)"/><linearGradient id="b" gradientUnits="userSpaceOnUse" x1="244.309" y1="-551.896" x2="244.309" y2="36.884" gradientTransform="translate(-4.604 487.79) scale(1.0667)"><stop offset="0" stop-color="#fff"/><stop offset="1" stop-color="#e8efee"/></linearGradient><circle cx="256" cy="256" r="247.7" fill="url(#b)"/><linearGradient id="c" gradientUnits="userSpaceOnUse" x1="130.558" y1="-331.048" x2="347.008" y2="-114.598" gradientTransform="translate(-4.604 487.79) scale(1.0667)"><stop offset="0" stop-color="#1acee5"/><stop offset="1" stop-color="#0bbff9"/></linearGradient><circle cx="256" cy="256" r="223.4" fill="url(#c)"/><radialGradient id="d" cx="258.416" cy="-198.976" r="226.11" gradientTransform="translate(-4.604 487.79) scale(1.0667)" gradientUnits="userSpaceOnUse"><stop offset="0" stop-color="#00baff" stop-opacity="0"/><stop offset=".685" stop-color="#00baff" stop-opacity=".69"/><stop offset=".918" stop-color="#00baff" stop-opacity=".92"/><stop offset="1" stop-color="#00baff"/></radialGradient><circle cx="256" cy="256" r="223.4" fill="url(#d)"/><linearGradient id="e" gradientUnits="userSpaceOnUse" x1="283.958" y1="-189.473" x2="180.618" y2="-292.803" gradientTransform="translate(-4.604 487.79) scale(1.0667)"><stop offset="0" stop-color="#0092ff" stop-opacity="0"/><stop offset="1" stop-color="#0092ff"/></linearGradient><path d="M486.9 289.7l-74.7-74.1-21.2 5.2-108.3-107.3c-1.1-2.3-2.9-4.2-5.3-5.3-1.7-3.7-5.5-6.3-9.9-6.3h-3.2c-6 0-10.9 4.9-10.9 10.9v126.7c-4.9 3.8-8.2 9.7-8.2 16.4 0 2.1.3 4.1.9 6l-70.4 70.4c-4.2 4.2-4.2 11.1 0 15.4L304.2 476c94.3-16.2 168.3-91.5 182.7-186.3z" fill="url(#e)"/><linearGradient id="f" gradientUnits="userSpaceOnUse" x1="371.329" y1="-71.33" x2="224.769" y2="-266.45" gradientTransform="translate(-4.604 487.79) scale(1.0667)"><stop offset="0" stop-color="#0092ff" stop-opacity="0"/><stop offset="1" stop-color="#0092ff"/></linearGradient><path d="M476.9 289.7c-14.4 94.8-88.3 170.1-182.5 186.4L168.3 350.2c4.2 4.1 11 4 15.2-.2l73.4-73.4c10.9-.5 19.6-9.5 19.7-20.5l127.8-31.5c1.7-.4 3-1.8 3.4-3.4l69.1 68.5z" fill="url(#f)"/><circle cx="256" cy="252.8" r="224.3" opacity=".17" fill="#3e3ef4"/><linearGradient id="g" gradientUnits="userSpaceOnUse" x1="244.309" y1="-415.674" x2="244.309" y2="-204.986" gradientTransform="translate(-4.604 487.79) scale(1.0667)"><stop offset="0" stop-color="#fff"/><stop offset="1" stop-color="#e8efee"/></linearGradient><path d="M257.6 256h-3.2c-6 0-10.9-4.9-10.9-10.9V112.9c0-6 4.9-10.9 10.9-10.9h3.2c6 0 10.9 4.9 10.9 10.9v132.3c0 5.9-4.9 10.8-10.9 10.8z" fill="url(#g)"/><linearGradient id="h" gradientUnits="userSpaceOnUse" x1="224.028" y1="-193.364" x2="153.738" y2="-123.074" gradientTransform="translate(-4.604 487.79) scale(1.0667)"><stop offset="0" stop-color="#fff"/><stop offset="1" stop-color="#e8efee"/></linearGradient><path d="M257.6 256l2.3 2.3c4.2 4.2 4.2 11.1 0 15.4L183.5 350c-4.2 4.2-11.1 4.2-15.4 0l-2.3-2.3c-4.2-4.2-4.2-11.1 0-15.4l76.4-76.4c4.3-4.1 11.2-4.1 15.4.1z" fill="url(#h)"/><linearGradient id="i" gradientUnits="userSpaceOnUse" x1="240.916" y1="-216.667" x2="412.866" y2="-257.577" gradientTransform="translate(-4.604 487.79) scale(1.0667)"><stop offset="0" stop-color="#d63305"/><stop offset=".366" stop-color="#cf3004"/><stop offset=".899" stop-color="#bc2602"/><stop offset="1" stop-color="#b72401"/></linearGradient><path d="M407.8 219.1c.6 2.5-.9 5-3.4 5.6l-146.1 36c-2.5.6-5-.9-5.6-3.4-.6-2.5.9-5 3.4-5.6l146.1-36c2.5-.6 5 .9 5.6 3.4z" fill="url(#i)"/><linearGradient id="j" gradientUnits="userSpaceOnUse" x1="244.309" y1="-176.976" x2="244.309" y2="-238.056" gradientTransform="translate(-4.604 487.79) scale(1.0667)"><stop offset="0" stop-color="#97aaaa"/><stop offset="1" stop-color="#e8efee"/></linearGradient><circle cx="256" cy="256" r="20.6" fill="url(#j)"/><linearGradient id="k" gradientUnits="userSpaceOnUse" x1="244.309" y1="-422.901" x2="244.309" y2="-371.016" gradientTransform="translate(-4.604 487.79) scale(1.0667)"><stop offset="0" stop-color="#fff"/><stop offset="1" stop-color="#e8efee"/></linearGradient><path d="M256.8 88.8h-1.6c-6.5 0-11.7-5.2-11.7-11.7V62.6c0-6.5 5.2-11.7 11.7-11.7h1.6c6.5 0 11.7 5.2 11.7 11.7v14.5c0 6.5-5.2 11.7-11.7 11.7z" fill="url(#k)"/><linearGradient id="l" gradientUnits="userSpaceOnUse" x1="244.309" y1="-73.846" x2="244.309" y2="-21.966" gradientTransform="translate(-4.604 487.79) scale(1.0667)"><stop offset="0" stop-color="#fff"/><stop offset="1" stop-color="#e8efee"/></linearGradient><path d="M256.8 461.1h-1.6c-6.5 0-11.7-5.2-11.7-11.7v-14.5c0-6.5 5.2-11.7 11.7-11.7h1.6c6.5 0 11.7 5.2 11.7 11.7v14.5c0 6.5-5.2 11.7-11.7 11.7z" fill="url(#l)"/><linearGradient id="m" gradientUnits="userSpaceOnUse" x1="448.327" y1="128.62" x2="396.437" y2="-479.878" gradientTransform="translate(-4.604 487.79) scale(1.0667)"><stop offset="0" stop-color="#fff"/><stop offset="1" stop-color="#e8efee"/></linearGradient><path d="M423.2 256.8v-1.6c0-6.5 5.2-11.7 11.7-11.7h14.5c6.5 0 11.7 5.2 11.7 11.7v1.6c0 6.5-5.2 11.7-11.7 11.7h-14.5c-6.5 0-11.7-5.2-11.7-11.7z" fill="url(#m)"/><linearGradient id="n" gradientUnits="userSpaceOnUse" x1="99.279" y1="128.619" x2="47.401" y2="-479.879" gradientTransform="translate(-4.604 487.79) scale(1.0667)"><stop offset="0" stop-color="#fff"/><stop offset="1" stop-color="#e8efee"/></linearGradient><path d="M50.9 256.8v-1.6c0-6.5 5.2-11.7 11.7-11.7h14.5c6.5 0 11.7 5.2 11.7 11.7v1.6c0 6.5-5.2 11.7-11.7 11.7H62.6c-6.5 0-11.7-5.2-11.7-11.7z" fill="url(#n)"/></svg>