<svg xmlns="http://www.w3.org/2000/svg" height="618.832" width="619.412"><defs><clipPath id="d" clipPathUnits="userSpaceOnUse"><path d="M0 464.124h464.559V0H0z"/></clipPath><clipPath id="e" clipPathUnits="userSpaceOnUse"><path d="M151.317 302.935h282.705V29.738H151.317z"/></clipPath><clipPath id="g" clipPathUnits="userSpaceOnUse"><path d="M0 464.124h464.559V0H0z"/></clipPath><clipPath id="i" clipPathUnits="userSpaceOnUse"><path d="M0 464.124h464.559V0H0z"/></clipPath><clipPath id="j" clipPathUnits="userSpaceOnUse"><path d="M29.635 434.039h404.387V26.124H29.635z"/></clipPath><clipPath id="k" clipPathUnits="userSpaceOnUse"><path d="M231.828 434.039c111.669 0 202.194-91.315 202.194-203.958 0-112.642-90.525-203.957-202.194-203.957-111.667 0-202.193 91.315-202.193 203.957 0 112.643 90.526 203.958 202.193 203.958"/></clipPath><linearGradient id="b" spreadMethod="pad" gradientTransform="scale(588.39056) rotate(90 .284 .11)" gradientUnits="userSpaceOnUse" y2="0" x2="1" y1="0" x1="0"><stop offset="0" stop-color="#fff"/><stop offset="1" stop-color="#e8efee"/></linearGradient><linearGradient id="c" spreadMethod="pad" gradientTransform="scale(569.32422) rotate(-90 .692 .284)" gradientUnits="userSpaceOnUse" y2="0" x2="1" y1="0" x1="0"><stop offset="0" stop-color="#fff"/><stop offset="1" stop-color="#e8efee"/></linearGradient><linearGradient id="f" spreadMethod="pad" gradientTransform="matrix(156.58801 0 0 -156.58801 153.256 232.124)" gradientUnits="userSpaceOnUse" y2="0" x2="1" y1="0" x1="0"><stop offset="0" stop-color="#fff"/><stop offset="1" stop-color="#fff"/></linearGradient><linearGradient id="h" spreadMethod="pad" gradientTransform="matrix(30.906 0 0 -30.906 104.837 343.384)" gradientUnits="userSpaceOnUse" y2="0" x2="1" y1="0" x1="0"><stop offset="0" stop-color="#fff"/><stop offset="1" stop-color="#e8efee"/></linearGradient><radialGradient id="a" spreadMethod="pad" gradientTransform="matrix(218.30406 0 0 -220.20853 245.45 212.239)" gradientUnits="userSpaceOnUse" r="1" cy="0" cx="0" fy="0" fx="0"><stop offset="0" stop-opacity="0" stop-color="#fff"/><stop offset=".685" stop-opacity=".69" stop-color="#fff"/><stop offset=".918" stop-opacity=".92" stop-color="#fff"/><stop offset="1" stop-color="#fff"/></radialGradient><radialGradient id="m" spreadMethod="pad" gradientTransform="matrix(218.30406 0 0 -220.20853 245.45 212.239)" gradientUnits="userSpaceOnUse" r="1" cy="0" cx="0" fy="0" fx="0"><stop offset="0"/><stop offset=".685"/><stop offset=".918"/><stop offset="1"/></radialGradient><mask id="l" height="1" width="1" y="0" x="0" maskUnits="userSpaceOnUse"><path d="M-32768 32767h65535v-65535h-65535z" fill="url(#a)"/></mask></defs><path d="M232.28 464.125C103.995 464.125 0 360.226 0 232.061 0 103.898 103.995 0 232.28 0c128.283 0 232.279 103.898 232.279 232.061 0 128.165-103.996 232.064-232.279 232.064z" fill="url(#b)" transform="matrix(1.33333 0 0 -1.33333 0 618.832)"/><path d="M7.53 232.061C7.53 108.053 108.154 7.523 232.28 7.523c124.125 0 224.75 100.53 224.75 224.538 0 124.011-100.625 224.541-224.75 224.541-124.126 0-224.75-100.53-224.75-224.541" fill="url(#c)" transform="matrix(1.33333 0 0 -1.33333 0 618.832)"/><g clip-path="url(#d)" transform="matrix(1.33333 0 0 -1.33333 0 618.832)"><path d="M406.374 333.06a203.426 203.426 0 01-73.89 73.89L231.55 434.04c-36.743 0-71.223-9.87-100.935-27.093l-73.89-73.89c-17.22-29.71-27.09-64.19-27.09-100.933L56.727 131.19a203.43 203.43 0 0173.89-73.89L231.55 30.21c36.743 0 71.222 9.87 100.934 27.092l73.891 73.89c17.221 29.711 27.092 64.192 27.092 100.935z" fill="#4d5967"/><path d="M29.635 232.124c0-36.743 9.87-71.223 27.092-100.935L231.55 232.124zM130.615 406.949a203.43 203.43 0 01-73.89-73.89L231.55 232.125zM332.485 406.949c-29.712 17.22-64.191 27.09-100.935 27.09V232.126z" fill="#ff4399"/><path d="M130.615 57.3c29.712-17.222 64.192-27.092 100.935-27.092v201.916z" fill="#ff5368"/><path d="M130.615 57.3c29.712-17.222 64.192-27.092 100.935-27.092v201.916zM231.55 232.124h201.915c0 36.743-9.87 71.223-27.092 100.935z" fill="#ff4399"/><path d="M332.485 57.3a203.436 203.436 0 0173.89 73.891L231.55 232.124z" fill="#13abf6"/><g clip-path="url(#e)" opacity=".14"><path d="M163.795 193.006s65.77 50.063 101.134 109.93c60.366-34.919 169.093-65.812 169.093-65.812s0-170.008-171.389-204.52c-31.245-6.292-66.083-2.396-109.377 13.411-7.82 94.567 10.54 146.991 10.54 146.991" fill="#23272b"/></g></g><path d="M153.257 232.124c0-43.517 35.752-78.293 78.293-78.293 42.415 0 78.294 34.652 78.294 78.293 0 43.171-35.123 78.294-78.294 78.294s-78.293-35.123-78.293-78.294" fill="url(#f)" transform="matrix(1.33333 0 0 -1.33333 0 618.832)"/><g clip-path="url(#g)" transform="matrix(1.33333 0 0 -1.33333 0 618.832)"><path d="M271.727 246.65c-5.178 0-9.712-2.72-12.283-6.799h-20.168v20.168c4.079 2.572 6.799 7.105 6.799 12.283 0 8.021-6.505 14.525-14.526 14.525s-14.525-6.504-14.525-14.525c0-5.178 2.719-9.712 6.798-12.283v-20.168h-20.168c-2.572 4.08-7.105 6.798-12.283 6.798-8.021 0-14.525-6.504-14.525-14.525 0-8.02 6.506-14.525 14.525-14.525 5.178 0 9.712 2.72 12.283 6.8h20.168V204.23c-4.08-2.573-6.798-7.106-6.798-12.284 0-8.02 6.504-14.525 14.525-14.525 8.02 0 14.526 6.504 14.526 14.525 0 5.178-2.72 9.712-6.8 12.284v20.168h20.169c2.572-4.08 7.105-6.799 12.283-6.799 8.02 0 14.525 6.504 14.525 14.525s-6.504 14.525-14.525 14.525" fill="#ff4399"/></g><path d="M104.837 343.384c0-8.535 6.919-15.453 15.453-15.453 8.534 0 15.453 6.918 15.453 15.453s-6.919 15.453-15.453 15.453c-8.534 0-15.453-6.918-15.453-15.453" fill="url(#h)" transform="matrix(1.33333 0 0 -1.33333 0 618.832)"/><g clip-path="url(#i)" transform="matrix(1.33333 0 0 -1.33333 0 618.832)"><g clip-path="url(#j)"><g clip-path="url(#k)" opacity=".29"><g mask="url(#l)"><path d="M231.828 434.039c111.669 0 202.194-91.315 202.194-203.958 0-112.642-90.525-203.957-202.194-203.957-111.667 0-202.193 91.315-202.193 203.957 0 112.643 90.526 203.958 202.193 203.958" fill="url(#m)"/></g></g></g></g></svg>