<svg width="80" height="80" xmlns="http://www.w3.org/2000/svg"><g fill="none" fill-rule="evenodd"><path d="M31.56 38.368c-.789.462-1.88.698-3.275.698-1.182 0-2.116-.326-2.813-.99-.698-.664-1.047-1.744-1.047-3.24-1.248 1.496-2.7 2.576-4.365 3.24-1.665.664-3.455.99-5.39.99a14.68 14.68 0 0 1-3.567-.427c-1.125-.282-2.104-.732-2.925-1.34-.821-.607-1.474-1.406-1.958-2.385-.484-.979-.72-2.171-.72-3.567 0-1.575.27-2.858.799-3.859.54-1.001 1.238-1.811 2.115-2.442a9.488 9.488 0 0 1 3.004-1.417 34.282 34.282 0 0 1 3.455-.8 42.19 42.19 0 0 1 3.567-.562c1.125-.124 2.115-.304 2.97-.54.855-.236 1.541-.574 2.037-1.024.495-.45.753-1.102.753-1.958 0-1.001-.19-1.8-.562-2.407a3.833 3.833 0 0 0-1.452-1.396 5.618 5.618 0 0 0-1.98-.641 14.204 14.204 0 0 0-2.172-.158c-1.924 0-3.533.372-4.827 1.103-1.282.731-1.98 2.115-2.092 4.152H6.558c.067-1.71.427-3.162 1.069-4.343a8.02 8.02 0 0 1 2.576-2.87c1.07-.73 2.296-1.26 3.668-1.575 1.373-.326 2.847-.483 4.422-.483 1.25 0 2.487.09 3.725.27 1.237.18 2.351.54 3.353 1.102a6.375 6.375 0 0 1 2.407 2.33c.608 1 .912 2.306.912 3.915V32c0 1.069.067 1.857.191 2.363.124.495.54.754 1.26.754.394 0 .855-.09 1.396-.27v3.521h.022Zm-7.393-14.2c-.574.428-1.317.743-2.25.935-.935.191-1.902.36-2.926.483-1.024.124-2.048.27-3.083.428-1.035.158-1.97.416-2.79.776-.822.36-1.497.867-2.015 1.53-.517.665-.776 1.565-.776 2.701 0 .754.158 1.384.45 1.902.304.517.698.934 1.182 1.26.483.326 1.046.551 1.687.697a9.118 9.118 0 0 0 2.037.214c1.496 0 2.79-.202 3.86-.619 1.068-.416 1.946-.934 2.62-1.552.676-.63 1.182-1.306 1.497-2.037.327-.731.484-1.418.484-2.059v-4.658h.023Z" fill="#FF0800" fill-rule="nonzero"/><path d="M73.742 56.563v-25.34h-4.287v3.961h-.056c-.822-1.541-1.97-2.689-3.432-3.454-1.463-.765-3.072-1.148-4.827-1.148-2.397 0-4.41.45-6.054 1.362-1.642.911-2.97 2.07-3.96 3.488-1.002 1.406-1.71 2.982-2.138 4.714a21.075 21.075 0 0 0-.641 5.064c0 1.89.258 3.69.776 5.39.518 1.698 1.294 3.183 2.33 4.444 1.034 1.271 2.317 2.272 3.859 3.026 1.541.754 3.341 1.125 5.412 1.125 1.789 0 3.476-.405 5.063-1.203 1.586-.8 2.78-2.06 3.567-3.781h.112v1.823c0 1.541-.146 2.948-.45 4.23-.304 1.283-.799 2.386-1.474 3.297a7.11 7.11 0 0 1-2.576 2.138c-1.036.518-2.307.776-3.804.776-.753 0-1.541-.078-2.362-.236a8.341 8.341 0 0 1-2.273-.776 5.68 5.68 0 0 1-1.767-1.395c-.484-.574-.742-1.272-.776-2.093h-4.568c.067 1.496.46 2.768 1.181 3.803a8.426 8.426 0 0 0 2.712 2.52c1.091.642 2.306 1.103 3.645 1.395a19.13 19.13 0 0 0 3.938.428c4.434 0 7.685-1.125 9.756-3.376 2.059-2.25 3.094-5.648 3.094-10.182Zm-12.76-1.34c-1.496 0-2.745-.314-3.746-.933a7.31 7.31 0 0 1-2.408-2.464c-.608-1.013-1.035-2.15-1.283-3.398a19.23 19.23 0 0 1-.371-3.747c0-1.317.146-2.588.45-3.803.304-1.216.787-2.284 1.451-3.218.664-.934 1.508-1.666 2.543-2.228 1.035-.552 2.284-.833 3.747-.833 1.429 0 2.644.281 3.646.855a7.166 7.166 0 0 1 2.441 2.273c.63.945 1.08 2.014 1.362 3.184.28 1.182.427 2.375.427 3.59 0 1.282-.157 2.576-.45 3.86-.304 1.282-.776 2.44-1.418 3.453a7.404 7.404 0 0 1-2.542 2.464c-1.07.63-2.34.946-3.849.946Z" fill="#FF0010" fill-rule="nonzero"/><path fill="#FF1D00" d="M42.248.011H37.59v79.966h4.658z"/><path fill="#FF1D00" d="M31.672.011v4.265l10.576-.012V0zm5.952 75.713V80l10.576-.011-.01-4.265z"/></g></svg>