<svg xmlns="http://www.w3.org/2000/svg" width="48" height="65"><path fill-rule="evenodd" fill-opacity=".349" fill="#A9ABBF" d="M39.486 36.09l-7.662-1.916-.652-2.608c2.05-2.03 3.454-4.818 3.87-7.678a3.006 3.006 0 002.168-2.516l.5-4a2.99 2.99 0 00-1.914-3.172l.184-3.766.748-.75c1.126-1.198 2.06-3.252.108-6.232C35.336 1.162 32.788 0 29.26 0c-1.392 0-4.596 0-7.58 2.004C13.16 2.182 12 6.14 12 10c0 .898.218 2.92.362 4.14a3.003 3.003 0 00-2.072 3.234l.5 4a3.01 3.01 0 002.406 2.574c.414 2.75 1.746 5.448 3.678 7.444l-.696 2.786-7.662 1.916C3.5 37.344 0 51.828 0 57a1 1 0 001 1s11.336 7 23 7c11.331 0 23-7 23-7 .552 0 1-.452 1-1.004 0-5.168-3.5-19.652-8.514-20.906z"/></svg>