<svg width="80" height="80" fill="none" xmlns="http://www.w3.org/2000/svg"><path d="M64.675 21.042c-4.758-1.706-12.83-1.302-12.83-1.302v57.804h7.09V60.093h2.037s3.282 9.385 7.776 13.126C72.455 76.327 80 78.054 80 78.054v-7.07s-5.581-1.727-8.884-5.258c-2.216-2.366-3.221-4.114-4.222-7.254 7.003-3.188 11.037-9.474 11.133-18.339.108-11.892-6.173-16.51-13.352-19.09Zm6.612 17.835c.026 13.47-12.354 13.51-12.351 13.51V26.91s12.305.74 12.34 11.97l.011-.004ZM45.023 2l-.006 75.544h-7.082V56.579H12.476c-.85 2.312-3.434 14.204-4.597 20.965H0S3.454 49.826 15.362 31.36C26.714 13.743 45.023 2 45.023 2ZM14.875 49.13h23.06V17.003c-5.66 5.09-17.07 13.736-23.058 32.125h-.002Z" fill="#06357A"/></svg>