<svg xmlns="http://www.w3.org/2000/svg" width="431.23" height="212.1"><g data-name="Layer 2"><g data-name="Layer 1"><path d="M159.2 123.4v3.4a26.61 26.61 0 0 1-5.3 15.5 41.81 41.81 0 0 1-12.7 11.4 56.52 56.52 0 0 1-13.4 6.3 40.43 40.43 0 0 1-12.1 2.2c-6.1 0-10.7-.8-14-2.3s-5.5-3.5-6.7-5.8a15.27 15.27 0 0 1-1.8-7.1 11.74 11.74 0 0 1 3.3-8.2 8.65 8.65 0 0 1 7.7-2.9 8 8 0 0 1 5.8 3.1 12.83 12.83 0 0 1 2.4 6.7c0 3.1-.5 5.4-1.5 7 8.6-1.6 15.9-5 21.8-10.4s8.9-11.7 8.9-18.9v-1.3c0-4.2-1.8-8.7-5.3-13.4-4-5.1-7.9-10.3-11.9-15.5 0-5.1 5.4-10 16.3-14.6 16.7-7.2 26.8-12.1 30.3-14.6 10.9-7.6 16.3-17.6 16.3-29.9 0-17.2-11.9-25.9-35.8-25.9a90.52 90.52 0 0 0-33.6 6.6C107.1 19.2 95.7 26.1 84 35.6a207.86 207.86 0 0 0-27.4 26.7 232.34 232.34 0 0 0-22.7 31.4 126 126 0 0 0-13.4 29.7 60.94 60.94 0 0 0-2.3 15.9 55.77 55.77 0 0 0 1.7 14.4c2.8 9.2 8.7 13.8 17.6 13.8a22.88 22.88 0 0 0 12-3.5 43.3 43.3 0 0 0 10.9-10.3c5.8-7.6 11.5-17.7 17-30.3l13.1-30.3 3.8-7.8c7.4-13.7 12.7-23 15.9-28 7.9-12 15.1-19.9 21.6-23.5a68.2 68.2 0 0 1 10.7-4.9 28.43 28.43 0 0 1 9.4-1.9c2.5 0 3.9.7 4 2.1.1 1.1-2.8 3.5-8.7 7a44.17 44.17 0 0 0-11.4 10.4q-9.3 11.7-25.2 46.9l-4.5 9.8-9.1 20.4c-3 6.2-4.9 10.2-5.7 12.1a133.22 133.22 0 0 1-11.4 18.2 67.82 67.82 0 0 1-8.9 10.2 53.88 53.88 0 0 1-15.4 10.3 40 40 0 0 1-15.8 3.3 38.28 38.28 0 0 1-21.5-6.5 39.28 39.28 0 0 1-14.7-17.3A40.48 40.48 0 0 1 0 137.2a41.23 41.23 0 0 1 .4-5.3l1.5-8.5a145.86 145.86 0 0 1 4.3-15.3 128.93 128.93 0 0 1 6.3-14.8q19.95-40.95 62.8-67.9c27-17 53.3-25.4 78.9-25.4 17.5 0 31.2 3.2 40.9 9.5s14.6 16 14.6 28.8c0 15.8-7.7 28-23.1 36.5l-50 16.5.4 1.7a75.13 75.13 0 0 1 16.1 12.6c4.1 4.6 6.1 10.5 6.1 17.8Zm136.4-43.2c5.8-9.9 11.2-20.2 16.3-31q8.7-18.45 8.7-24.6c0-1.7-.6-2.5-1.7-2.5-2.5 0-7.2 3.9-14.1 11.8a124.07 124.07 0 0 0-16.4 23.2c-4.1 7.6-7 13.3-8.7 17a185.51 185.51 0 0 0-7.8 19.3 134.74 134.74 0 0 0-6.1 26.3 202.65 202.65 0 0 0 21.6-26.3Zm50.7 5.3c3.3-6.2 6.2-12.3 8.9-18.2 3.4-7.6 5.1-12.8 5.1-15.5 0-2.1-.8-3.2-2.3-3.2-2.3 0-6.2 3.5-11.7 10.6a210.74 210.74 0 0 0-14.2 21.2l-6.4 12.9a108.25 108.25 0 0 0-4.7 12.3 134.76 134.76 0 0 0-3.2 14.6 133.3 133.3 0 0 0 13.8-12.9 87.58 87.58 0 0 0 10.4-14Zm64.4 37.9-14.8 30.3-21.8 45c-2.3 4.7-4.2 7.9-5.9 9.8q-3.15 3.6-6.6 3.6a6.74 6.74 0 0 1-3-.8c-2.8-1.7-4.2-4-4.2-6.8a17.46 17.46 0 0 1 2.3-7.8l22.9-42.8 3.8-7a42.49 42.49 0 0 1-9.5 7c-5.1 2.7-9.5 4-13.4 4s-7.1-1.3-9.3-4a23.51 23.51 0 0 1-4.2-8.7 59.08 59.08 0 0 1-9.1 8.7 45.29 45.29 0 0 1-9.4 5.4 24.66 24.66 0 0 1-9.2 2c-5.8 0-10.7-2.5-14.6-7.4a37.78 37.78 0 0 1-3.8-5.9 40.89 40.89 0 0 1-3 3.3 17.52 17.52 0 0 1-3.4 2.9 62 62 0 0 1-13 7.5 31.76 31.76 0 0 1-12.8 3.1 17.79 17.79 0 0 1-10-2.9 26.07 26.07 0 0 1-7.4-8l-2.1-3.6-4 3.6c-8.3 7.4-16.6 11-24.8 11a17.11 17.11 0 0 1-10-3 25.88 25.88 0 0 1-7.2-8.1l-1.9-3.8-3.8 3.8a36.46 36.46 0 0 1-9.8 6.7 26.78 26.78 0 0 1-10.4 2c-6.6 0-11.2-2.9-13.6-8.7a31.25 31.25 0 0 1-2.5-13.1c0-4.7 1.4-10.4 4.2-17.2a92.91 92.91 0 0 1 9.2-15.8 94.5 94.5 0 0 1 12.8-14.3 80.83 80.83 0 0 1 19.2-13.1 46.79 46.79 0 0 1 20.9-4.9c8.8 0 13.1 3.5 13.1 10.6.3 2.7-.8 5.2-3.4 7.4a7.53 7.53 0 0 1-4.9 2.1 20.23 20.23 0 0 1-5.6-.6 8.77 8.77 0 0 1-3.3-1.8 5.82 5.82 0 0 1-1.7-3.3c-.3-1.4-.7-2.2-1.2-2.3a9 9 0 0 0-1.8-.2c-3.4 0-7.7 2.1-12.9 6.2a72.54 72.54 0 0 0-12.8 13.1 77.87 77.87 0 0 0-9.8 16.6 41.92 41.92 0 0 0-3.7 16.4 15.2 15.2 0 0 0 1 5.9c.6 1.7 2.2 2.5 4.8 2.5q4.65 0 11.7-7.8a123.9 123.9 0 0 0 12.1-16.7q3.15-5.1 6.6-11.1c2.3-4 4-7.2 5.3-9.6q1-1.5 7.8-1.5a27.47 27.47 0 0 1 7 .7c1.8.5 2.6 1.2 2.3 2.2l-8.5 19.3c-2 4.5-3.3 7.6-3.8 9.1-1 2.4-2 5.4-3.2 9.1a9.79 9.79 0 0 0-.4 2.3 3.34 3.34 0 0 0 1.8 3.1 10.71 10.71 0 0 0 4.8 1c2.1 0 5.4-1.7 10-5s7.3-5.8 8.5-7.3v-6c0-1.9 1-16 2.1-20.6a159.35 159.35 0 0 1 4.9-15.8c1.1-2.8 2.3-5.7 3.5-8.6s2.5-5.9 3.9-9a197.25 197.25 0 0 1 28.8-44.7c12.1-14.3 22.5-21.3 31-21.3 4.1 0 7 1.2 8.8 3.5s2.6 5.6 2.6 9.9c0 7.2-2.3 16.5-7 27.8a198.57 198.57 0 0 1-13.4 26.3c-1.6 2.7-3.1 5.2-4.6 7.5s-3.4 5.2-5.6 8.6c-3.7 5.4-7.5 10.4-11.3 15.2s-8.4 9.7-13.7 15L265.9 134a15 15 0 0 0 3.4 9.6c2.3 2.9 5.5 4.3 9.8 4.3q4.2 0 10.8-4.2a51.6 51.6 0 0 0 8.9-7.2l1.5-13.1a109.34 109.34 0 0 1 9.5-30.1l4.5-8.7A157.76 157.76 0 0 1 339.5 50c10.2-10.6 18-15.9 23.3-15.9q5.25 0 7.5 3c1.5 2 2.2 4.9 2.2 8.9 0 6.1-1.7 13.5-5.2 22.2a168.27 168.27 0 0 1-12.6 25.1c-3.5 5.5-7.1 10.7-10.8 15.5a116 116 0 0 1-13.4 14.6 80.52 80.52 0 0 1-11.5 8.7 14.73 14.73 0 0 0-.2 2.5 10.29 10.29 0 0 0 2.2 6.8c1.5 1.8 4.1 2.8 8 2.8 3.4 0 6.9-1.6 10.6-4.9s7.4-8.6 11.2-15.9l1.3-2.5c2.4-4.9 5-9.9 7.8-14.8 2.3-4 4.8-8.2 7.6-12.7l8.7-14.2c.3-.4 1.4-.8 3.3-1.3a26.25 26.25 0 0 1 5.4-.6 22.2 22.2 0 0 1 6.4.7c1.6.5 2 1.4 1.5 2.6a18.86 18.86 0 0 1-1.5 3c-1.6 2.8-3.4 6.1-5.5 9.8-2.7 4.5-5.4 9.4-8.3 14.6-3.4 6.2-6 11.4-7.8 15.5q-4.5 9.6-4.5 14.4c0 2.7 1.1 4 3.4 4 3.4 0 6.6-1.3 9.8-3.8s7.1-7.4 11.9-14.6c3.4-5.1 6.5-10.1 9.3-15.2s5.5-10 8.1-14.9l5.9-12.3a4.75 4.75 0 0 1 3.4-1.6 46.78 46.78 0 0 1 5.5-.3 25.32 25.32 0 0 1 6.8.7c1.7.5 2.3 1.2 1.7 2.2l-5.5 11.2ZM403.2 186.9a7.52 7.52 0 0 1-7.7 7.6 7.14 7.14 0 0 1-5.2-2.3 7.39 7.39 0 0 1-2.2-5.5 7.2 7.2 0 0 1 2.2-5.2 7.36 7.36 0 0 1 5.3-2.3 7 7 0 0 1 5.3 2.2 7.41 7.41 0 0 1 2.3 5.5Zm-1.1 0a6.19 6.19 0 0 0-1.9-4.6 6.6 6.6 0 0 0-4.6-1.9 6.19 6.19 0 0 0-4.6 1.9 6.54 6.54 0 0 0-1.9 4.5 6 6 0 0 0 1.9 4.5 6.13 6.13 0 0 0 4.5 1.9 6.35 6.35 0 0 0 4.6-1.9 5.27 5.27 0 0 0 2-4.4Zm-3.1 4h-1.8l-1.6-3.3h-1.2v3.3h-1.8v-8.1h3c2.3 0 3.5.8 3.5 2.3a2.08 2.08 0 0 1-1.7 2.2Zm-1.8-5.6c0-.8-.6-1.2-1.7-1.2h-1.1v2.3h1.2c1.1 0 1.6-.4 1.6-1.1Z" style="fill:#ed1c29"/><path data-name="&lt;Path&gt;" d="M82.4 184.5h-6v-3.6h17v3.6h-6v15.3h-5ZM112.5 191.8h-8.1v4.5h9.1v3.5H99.4v-18.9H113v3.5h-8.6v3.9h8.1ZM136.3 199.2a16.11 16.11 0 0 1-5.6.8c-7.6 0-11.6-4.1-11.6-9.5 0-6.4 5.4-10 12.1-10a14.36 14.36 0 0 1 5.4.8l-1 3.4a11.4 11.4 0 0 0-4.2-.7c-3.9 0-7 2-7 6.2 0 3.8 2.6 6.1 7 6.1a16.28 16.28 0 0 0 4.2-.6ZM147.9 180.9v7.3h8.2v-7.3h5v18.9h-5v-7.9h-8.2v7.9h-5v-18.9ZM168.7 199.7v-18.9h5.8l4.6 6.9a51.28 51.28 0 0 1 3.6 6.5h.1a65.18 65.18 0 0 1-.4-7.9v-5.5h4.6v18.9h-5.2l-4.7-7.3a55.06 55.06 0 0 1-3.8-6.7h-.1c.2 2.5.2 5.2.2 8.3v5.7Z" style="fill:#8d8c8c"/><path data-name="&lt;Compound Path&gt;" d="M204 200.1c-6.5 0-10.4-4.2-10.4-9.6 0-5.7 4.3-9.9 10.7-9.9 6.8 0 10.5 4.3 10.5 9.5 0 6.2-4.3 10-10.8 10Zm.3-3.4c3.4 0 5.3-2.7 5.3-6.4 0-3.4-1.9-6.3-5.3-6.3s-5.4 2.9-5.4 6.4 2 6.3 5.4 6.3Z" style="fill:#8d8c8c"/><path data-name="&lt;Path&gt;" d="M221.4 180.9h5v15.3h8.8v3.6h-13.8Z" style="fill:#8d8c8c"/><path data-name="&lt;Compound Path&gt;" d="M249.5 200.1c-6.5 0-10.4-4.2-10.4-9.6 0-5.7 4.3-9.9 10.7-9.9 6.8 0 10.5 4.3 10.5 9.5.1 6.2-4.3 10-10.8 10Zm.3-3.4c3.4 0 5.3-2.7 5.3-6.4 0-3.4-1.9-6.3-5.3-6.3s-5.4 2.9-5.4 6.4 2 6.3 5.4 6.3Z" style="fill:#8d8c8c"/><path data-name="&lt;Path&gt;" d="M285.4 198.9a30.59 30.59 0 0 1-7.4 1.1c-4 0-6.9-.9-9-2.5a8.81 8.81 0 0 1-3.1-6.9c0-6.3 5.4-9.9 12.6-9.9a19 19 0 0 1 6.1.9l-1 3.4a12.86 12.86 0 0 0-5.1-.8c-4.2 0-7.3 2-7.3 6.1 0 3.9 2.9 6.2 7 6.2a6.6 6.6 0 0 0 2.4-.3v-4h-3.4v-3.3h8.2v10ZM297.6 180.9v18.9h-5v-18.9ZM318.3 191.8h-8.1v4.5h9.1v3.5h-14.1v-18.9h13.6v3.5h-8.6v3.9h8.1ZM326.1 195.3a14 14 0 0 0 5.5 1.2c2.3 0 3.5-.8 3.5-2s-1-1.8-3.7-2.6c-3.7-1.1-6.1-2.9-6.1-5.6 0-3.2 3.2-5.7 8.4-5.7a13.34 13.34 0 0 1 5.6 1l-1.1 3.4a11.52 11.52 0 0 0-4.6-.9c-2.2 0-3.2.9-3.2 1.8 0 1.2 1.2 1.7 4.1 2.7 3.9 1.2 5.7 3 5.7 5.6 0 3.2-2.8 5.9-8.9 5.9a16.74 16.74 0 0 1-6.3-1.2Z" style="fill:#8d8c8c"/></g></g></svg>