<svg width="92" height="78" fill="none" xmlns="http://www.w3.org/2000/svg"><path d="M38.891 2.223h-.001c-4.961-.816-10.292.769-14.427 2.23l-.037.013-.038.015c-.213.085-.442.171-.683.262-1.834.688-4.352 1.632-5.667 4.42-5.123 10.343-8.395 21.495-7.776 33.353l.09 1.745 1.742.144c8.45.7 17.006-1.155 24.307-5.573l.015-.01.016-.009c3.387-2.135 7.61-5.842 7.838-11.053.203-4.273-2.299-7.442-4.438-9.898.713-1.062 1.492-2.242 2.166-3.45.96-1.726 1.823-3.702 2.05-5.806l.002-.014.002-.014c.33-3.516-2.221-5.87-5.16-6.355Z" fill="#fff" stroke="#000" stroke-width="4"/><mask id="a" fill="#fff"><path d="M26.862 12.503c1.487-.68 3.501-.346 5.098-.32-.59 1.09-1.02 2.686-2.033 3.45-1.302.68-3.014.692-4.444.93.41-1.354.77-2.784 1.379-4.06Z"/></mask><path d="M26.862 12.503c1.487-.68 3.501-.346 5.098-.32-.59 1.09-1.02 2.686-2.033 3.45-1.302.68-3.014.692-4.444.93.41-1.354.77-2.784 1.379-4.06Z" fill="#000"/><path d="m26.862 12.503-1.663-3.638-1.321.604-.626 1.31 3.61 1.724Zm5.098-.32 3.518 1.903 3.137-5.797-6.59-.106-.065 4Zm-2.033 3.45 1.852 3.545.291-.152.264-.198-2.407-3.195Zm-4.444.93L21.655 15.4l-1.869 6.161 6.351-1.053-.654-3.947Zm3.04-.422c-.048.023.13-.064.84-.063.325 0 .677.018 1.114.042.399.022.92.054 1.419.062l.128-8c-.3-.004-.629-.023-1.103-.05-.437-.024-.98-.053-1.544-.054-1.07-.002-2.641.085-4.178.787l3.325 7.276Zm-.081-5.862c-.232.429-.427.867-.565 1.18-.159.358-.258.59-.37.817a2.876 2.876 0 0 1-.194.354c-.024.034.038-.065.207-.193l4.814 6.39c1.298-.977 1.998-2.294 2.363-3.043.197-.403.378-.823.498-1.094.14-.317.22-.488.283-.604l-7.036-3.807Zm-.366 1.808c-.063.032-.297.126-.928.223-.304.046-.618.083-1.02.13-.373.045-.837.1-1.3.176l1.31 7.893c.252-.042.538-.078.93-.124.36-.043.824-.096 1.29-.168.908-.139 2.18-.391 3.42-1.039l-3.702-7.091Zm1.235 5.637c.491-1.62.723-2.58 1.16-3.498l-7.22-3.446c-.78 1.635-1.267 3.535-1.596 4.621l7.655 2.323Z" fill="#000" mask="url(#a)"/><path d="M25.468 28.412c.854-.548 1.721-.73 2.774-.65-.288.467-.528.74-.731.89-.572.315-1.307.537-2.223.715l-.156.03c.105-.422.215-.742.335-.985Z" fill="#000" stroke="#000" stroke-width="4"/><path d="M78.576 2.223h-.001c-4.961-.816-10.292.769-14.427 2.23l-.038.013-.037.015c-.213.085-.442.171-.683.262-1.834.688-4.352 1.632-5.667 4.42-5.123 10.343-8.396 21.495-7.776 33.353l.09 1.745 1.742.144c8.45.7 17.006-1.155 24.307-5.573l.015-.01.016-.009c3.387-2.135 7.61-5.842 7.838-11.053.203-4.273-2.3-7.442-4.438-9.898.713-1.062 1.492-2.242 2.165-3.45.962-1.726 1.824-3.702 2.052-5.806l.001-.014.002-.014c.33-3.516-2.222-5.87-5.16-6.355Z" fill="#fff" stroke="#000" stroke-width="4"/><mask id="b" fill="#fff"><path d="M66.546 12.503c1.488-.68 3.502-.346 5.099-.32-.59 1.09-1.02 2.686-2.033 3.45-1.302.68-3.014.692-4.444.93.41-1.354.77-2.784 1.378-4.06Z"/></mask><path d="M66.546 12.503c1.488-.68 3.502-.346 5.099-.32-.59 1.09-1.02 2.686-2.033 3.45-1.302.68-3.014.692-4.444.93.41-1.354.77-2.784 1.378-4.06Z" fill="#000"/><path d="m66.546 12.503-1.662-3.638-1.322.604-.625 1.31 3.61 1.724Zm5.099-.32 3.518 1.903L78.3 8.29l-6.591-.106-.064 4Zm-2.033 3.45 1.851 3.545.292-.152.263-.198-2.406-3.195Zm-4.444.93L61.34 15.4l-1.869 6.161 6.351-1.053-.654-3.947Zm3.04-.422c-.048.023.13-.064.84-.063.325 0 .677.018 1.114.042.399.022.92.054 1.418.062l.129-8c-.3-.004-.63-.023-1.103-.05-.437-.024-.98-.053-1.544-.054-1.07-.002-2.641.085-4.178.787l3.325 7.276Zm-.081-5.862c-.233.429-.427.867-.565 1.18-.159.358-.259.59-.37.817a2.854 2.854 0 0 1-.194.354c-.024.034.037-.065.207-.193l4.813 6.39c1.299-.977 1.999-2.294 2.364-3.043.197-.403.378-.823.498-1.094.14-.317.22-.488.283-.604l-7.036-3.807Zm-.367 1.808c-.062.032-.296.126-.928.223-.303.046-.617.083-1.02.13-.372.045-.836.1-1.3.176l1.31 7.893c.252-.042.539-.078.93-.124.361-.043.825-.096 1.291-.168.907-.139 2.18-.391 3.42-1.039l-3.703-7.091Zm1.235 5.637c.492-1.62.723-2.58 1.161-3.498l-7.22-3.446c-.78 1.635-1.267 3.535-1.596 4.621l7.655 2.323Z" fill="#000" mask="url(#b)"/><path d="M65.152 28.412c.855-.548 1.722-.73 2.775-.65-.288.467-.528.74-.731.89-.572.315-1.307.537-2.223.715l-.156.03c.105-.422.215-.742.335-.985Z" fill="#000" stroke="#000" stroke-width="4"/><g filter="url(#c)"><path d="M18.466 50.96c2.223.58 3.95 1.87 5.816 3.131-.176.976-.229 1.947-.271 2.932a304.14 304.14 0 0 1 3.093-6.178h7.086c1.533 2.983 2.696 5.162 3.489 6.54.147-2.09.247-4.174.29-6.268 2.318-.057 4.712-.31 7.024-.043.718.047 1.65.64 2.799 1.775 1.088-1.24 2.053-1.856 2.893-1.847 1.408-.079 7.065-.157 18.031-.157.574 0 1.525.165 2.853.495 3.844-.935 7.15-.935 9.92 0 2.246.758 3.733 1.905 4.462 3.441l-2.385 2.98c1.465 1.2 2.26 2.5 2.385 3.897.355 3.96-1.266 5.456-2.896 6.412-2.893 1.696-8.315.984-9.316.908-3.07-.243-6.14.119-9.238.052-3.077-.05-7.692-.05-13.844.005l-2.784-1.314-3.313 1.337-10.089-.014-3.583-1.323-3.027 1.266a417.967 417.967 0 0 0-5.716.014c-2.875-.014-5.744.348-8.59.215-.793-.24-3.07-.853-4.729-2.566-1.64-1.692-2.663-4.477-2.785-5.934-.25-2.977.666-5.064 2.174-6.796a15.757 15.757 0 0 1 2.215-1.875c2.532-1.147 5.304-1.78 8.036-1.086Z" fill="#000"/></g><path d="M18.466 50.96c2.223.58 3.95 1.87 5.816 3.131-.176.976-.229 1.947-.271 2.932a304.14 304.14 0 0 1 3.093-6.178h7.086c1.533 2.983 2.696 5.162 3.489 6.54.147-2.09.247-4.174.29-6.268 2.318-.057 4.712-.31 7.024-.043.718.047 1.65.64 2.799 1.775 1.088-1.24 2.053-1.856 2.893-1.847 1.408-.079 7.065-.157 18.031-.157.574 0 1.525.165 2.853.495 3.844-.935 7.15-.935 9.92 0 2.246.758 3.733 1.905 4.462 3.441l-2.385 2.98c1.465 1.2 2.26 2.5 2.385 3.897.355 3.96-1.266 5.456-2.896 6.412-2.893 1.696-8.315.984-9.316.908-3.07-.243-6.14.119-9.238.052-3.077-.05-7.692-.05-13.844.005l-2.784-1.314-3.313 1.337-10.089-.014-3.583-1.323-3.027 1.266a417.967 417.967 0 0 0-5.716.014c-2.875-.014-5.744.348-8.59.215-.793-.24-3.07-.853-4.729-2.566-1.64-1.692-2.663-4.477-2.785-5.934-.25-2.977.666-5.064 2.174-6.796a15.757 15.757 0 0 1 2.215-1.875c2.532-1.147 5.304-1.78 8.036-1.086Z" fill="#000"/><path d="M21.393 54.895a63.292 63.292 0 0 0-2.413 2.88c-1.337-.405-3.14-1.29-4.497-.59-2.113 1.018-2.194 4.444-.172 5.601.971.576 1.98.466 3.046.286.814-1.266-1.285-1.41-1.97-2.133-.129-.723-.148-1.48-.186-2.212 2.166.028 4.331.028 6.497.014-.005 2.06.323 4.378-.248 6.372-3.293 2.623-9.19 2.513-11.812-1.052-2.342-3.107-1.518-7.819 1.804-9.884 3.255-1.985 6.9-1.285 9.951.718Zm7.297-1.774H33a2957.558 2957.558 0 0 1 5.73 13.54c-.98-.016-2.493-.02-4.54-.01L33 64.943h-4.31l-1.006 1.718h-4.64l5.645-13.54Zm54.11 1.643a261.99 261.99 0 0 0-2.108 2.936c-1.861-.752-3.305-1.693-5.587-.875 1.521.69 1.521.69 2.282 1.04 1.57.605 2.986.678 4.328 1.696 1.88 1.323 1.69 4.493.005 5.892-1.637 1.442-4.226 1.6-6.287 1.342-1.947-.21-3.546-1.08-5.235-1.994.79-.933 1.56-1.88 2.313-2.846 2.199.8 4.05 2.137 6.32.719-2.132-.885-4.845-1.142-6.691-2.537-2.061-1.86-1.152-5.254 1.204-6.396 3.17-1.395 6.563-.666 9.456 1.023Zm-42.575-1.463c1.566.03 3.131.034 4.697.015.91 1.537 1.847 3.05 2.832 4.535.985-1.523 1.942-3.06 2.898-4.597 1.552.062 3.103.09 4.655.09-.043 4.436-.024 8.876-.015 13.312-1.49-.029-2.974-.029-4.464 0 0-2.075-.01-4.146-.123-6.216-1.038 1.38-2 2.808-2.975 4.231-1.014-1.418-2.008-2.846-3.041-4.25-.067 2.075-.1 4.155-.152 6.235a181.613 181.613 0 0 0-4.26-.005c-.171-4.45-.119-8.895-.052-13.35Zm17.523.031c3.807-.062 7.61-.081 11.417.024a436.504 436.504 0 0 0 0 3.545c-2.318.062-4.63.086-6.948.052-.02.434-.043.867-.062 1.3 2.175.052 4.345.062 6.515.076 0 1.052 0 2.103.005 3.155-2.17.024-4.336.033-6.506.1.005.452.005.9.01 1.347 2.35-.01 4.702.01 7.048.09a466.43 466.43 0 0 0-.024 3.627c-3.807-.014-7.62-.024-11.426.005-.1-4.44-.067-8.876-.029-13.321Z" fill="#fff"/><path d="m30.887 57.865 1.443 3.795h-2.818l1.375-3.795Z" fill="#000"/><defs><filter id="c" x="0" y="46.639" width="92" height="30.606" filterUnits="userSpaceOnUse" color-interpolation-filters="sRGB"><feFlood flood-opacity="0" result="BackgroundImageFix"/><feColorMatrix in="SourceAlpha" values="0 0 0 0 0 0 0 0 0 0 0 0 0 0 0 0 0 0 127 0"/><feOffset dy="2"/><feGaussianBlur stdDeviation="3"/><feColorMatrix values="0 0 0 0 0 0 0 0 0 0 0 0 0 0 0 0 0 0 0.455556 0"/><feBlend in2="BackgroundImageFix" result="effect1_dropShadow"/><feBlend in="SourceGraphic" in2="effect1_dropShadow" result="shape"/></filter></defs></svg>