<svg width="80" height="80" fill="none" xmlns="http://www.w3.org/2000/svg"><path d="M20.252 5.525 2.504 23.274a2.05 2.05 0 0 0-.626 1.52 2.23 2.23 0 0 0 .626 1.587l17.657 17.748c.41.394.954.618 1.521.626a2.504 2.504 0 0 0 1.587-.626l17.748-17.747a2.23 2.23 0 0 0 .626-1.588 2.055 2.055 0 0 0-.627-1.52L23.27 5.527a2.235 2.235 0 0 0-1.588-.626 2.056 2.056 0 0 0-1.52.625h.09v-.001Zm4.47-1.386 7.086 7.153a112.51 112.51 0 0 1 9.5-6.706l.38-.245.312.245c.135 0 38 23.828 38 46.517a20.385 20.385 0 0 1-5.7 14.193 19.089 19.089 0 0 1-13.813 5.9 20.81 20.81 0 0 1-11.177-3.241 19.312 19.312 0 0 1-6.08-5.9c1.722 12.92 15.513 13.68 17.1 13.68h.134v1.273h-37.71v-1.273h.135c1.587 0 15.334-.76 17.1-13.68a20.744 20.744 0 0 1-6.08 5.901 20.966 20.966 0 0 1-11.176 3.242 19.09 19.09 0 0 1-13.747-5.924 20.118 20.118 0 0 1-5.7-14.195c.041-2.9.577-5.773 1.588-8.493a39.23 39.23 0 0 1 3.732-7.466L1.14 27.7A4.225 4.225 0 0 1 0 24.793a4.069 4.069 0 0 1 1.14-2.861L19.023 4.049A4.069 4.069 0 0 1 21.749 3c1.072 0 2.102.408 2.885 1.14h.088Z" fill="#2C3689"/></svg>