<svg xmlns="http://www.w3.org/2000/svg" width="755.1057" height="225.96" viewBox="0 0 199.7884 59.7852" id="svg8"><g id="layer1" transform="translate(-2.5374 -35.03)"><g id="g100" transform="matrix(.2434 0 0 .22479 -27.0578 -3.9891)"><g id="Layer_1"><g id="g17" fill="#fff"><path id="path13" d="M275.51 301.05c4.56-6.97 6.89-14.75 6.95-23.37l-.1-60.7c.07-1.35.06-2.6-.04-3.76-.97-11.17-5.57-20.57-13.81-28.19-8.24-7.61-18.01-11.43-29.32-11.43l-40.26-.02.05 127.47zm-26.79-94.77c2.7 2.51 4.21 5.69 4.55 9.54.03.39.07.77.1 1.16l.1 60.7c-.04 4.05-1.46 7.47-4.27 10.26-2.81 2.79-6.22 4.19-10.23 4.18l-11.45-.01-.02-89.6 11.45.01c3.82 0 7.07 1.25 9.77 3.76z"/><path id="path15" d="M285.14 331.74c-.63-7.26-2.84-13.82-6.62-19.68H199l.05 127.45 43.13.02c11.88.01 22.01-4.23 30.38-12.7 8.37-8.47 12.61-18.68 12.72-30.63l-.1-60.7c.07-1.35.06-2.6-.04-3.76zm-28.87 64.44c-.03 4.05-1.45 7.47-4.26 10.26-2.81 2.79-6.13 4.19-9.94 4.19l-14.31-.01.04-89.6 14.43.01c3.66 0 6.84 1.26 9.56 3.76 2.72 2.51 4.24 5.69 4.58 9.54.03.39.07.77.1 1.16z"/></g><g id="g23" fill="#fff"><path id="polygon19" d="M401.09 202.58l28.71-.03-.04 98.21h28.71l.04-98.24 25.84-.04.11-28.9-83.26.1z"/><path id="polygon21" d="M458.4 439.5l.06-127.73h-28.71l-.06 127.76z"/></g><g id="g29" fill="#fff"><path id="polygon25" d="M306.07 173.58l-.04 127.18h74.66l.04-8.68-46.15.02.04-89.59 45.84.05.09-28.9z"/><path id="polygon27" d="M380.73 410.7l-45.99-.11.03-89.59 45.84.04.04-9.27h-74.62l-.04 127.69 74.48.07z"/></g><g id="g61"><g id="g59"><g id="g35"><path id="polygon31" class="st0" fill="#fcc42c" d="M797.23 202.52l28.8-.01-.01 98.25h28.79l.02-98.26 25.91-.01.11-28.91-83.51.03z"/><path id="polygon33" class="st0" fill="#fcc42c" d="M854.79 439.52l.02-127.75h-28.8l-.02 127.76z"/></g><g id="g41"><path id="polygon37" class="st0" fill="#fcc42c" d="M710.95 173.63l-.05 127.13h75.33l-.05-8.68-46.39.03.05-89.59 46.38-.03.1-28.91z"/><path id="polygon39" class="st0" fill="#fcc42c" d="M710.9 311.77l-.05 127.76 28.99-.02.14-118.5 46.39-.03-.06-9.21z"/></g><g id="g47"><path id="path43" d="M634.11 300.76l.1-83.8c.04-4.05 1.47-7.47 4.31-10.27 2.83-2.79 6.16-4.2 10-4.2 3.83 0 7.11 1.25 9.82 3.75s4.23 5.68 4.56 9.54c.03.39.07.77.1 1.16l-.05 83.83h28.6l.05-83.85c.07-1.35.06-2.6-.04-3.76-.96-11.17-5.53-20.56-13.71-28.17-8.19-7.61-17.9-11.4-29.15-11.4-11.83.01-21.9 4.26-30.23 12.74-8.33 8.49-12.56 18.7-12.68 30.65l-.05 83.78z" class="st0" fill="#fcc42c"/><path id="path45" d="M662.94 311.77l-.05 84.39c-.04 4.05-1.48 7.47-4.32 10.26-2.84 2.8-6.19 4.2-10.04 4.2-3.85 0-7.14-1.25-9.85-3.75s-4.24-5.68-4.57-9.54c-.03-.38-.07-.77-.1-1.16l.1-84.41h-28.36l-.05 84.44c-.08 1.35-.06 2.6.03 3.76.96 11.18 5.52 20.57 13.71 28.17 8.18 7.61 17.9 11.4 29.15 11.4 11.82-.01 21.9-4.25 30.23-12.74 8.33-8.48 12.56-18.7 12.68-30.65l.05-84.37z" class="st0" fill="#fcc42c"/></g><g id="g53"><path id="path49" d="M516.26 300.76h47c-5.17-4.33-10.37-8.66-15.62-12.99-9.29-8.48-14.48-19.27-15.57-32.37-.18-2.12-.27-4.34-.27-6.65l.22-31.8c.04-4.05 1.48-7.47 4.3-10.26s6.13-4.19 9.95-4.19c3.81 0 7.07 1.25 9.76 3.75 2.68 2.51 4.19 5.69 4.51 9.54.03.39.07.77.1 1.16l-.04 20.23 28.62-.01.04-20.23c.08-1.35.07-2.6-.02-3.76-.93-11.17-5.48-20.57-13.64-28.18-8.17-7.61-17.88-11.41-29.13-11.41-11.83 0-21.93 4.25-30.28 12.73-8.36 8.49-12.61 18.7-12.77 30.65l-.08 40.47c-.11 3.28-.04 6.46.22 9.54 1.12 13.46 5.35 24.73 12.7 33.78z" class="st0" fill="#fcc42c"/><path id="path51" d="M575.41 311.77h-47.14c5.43 4.53 10.9 9.05 16.41 13.58 9.34 8.48 14.09 19.27 15.18 32.37.18 2.12.12 6.79.15 6.65l.06 31.8c-.05 4.05-1.5 7.47-4.35 10.26-2.85 2.8-6.2 4.19-10.06 4.2-3.86 0-7.14-1.25-9.85-3.75s-4.23-5.68-4.55-9.54c-.03-.38-.07-.77-.1-1.16l.33-20.24-28.62.01-.04 20.24c-.08 1.35-.07 2.6.02 3.76.93 11.18 5.47 20.57 13.64 28.18 8.17 7.61 17.87 11.41 29.13 11.41 11.83 0 21.92-4.24 30.28-12.73 8.36-8.48 12.62-18.7 12.77-30.65l.08-40.47c.11-3.27.03-6.46-.22-9.54-1.13-13.77-5.51-25.23-13.12-34.38z" class="st0" fill="#fcc42c"/></g><path id="polygon55" class="st0" fill="#fcc42c" d="M121.59 355.7v-99.96l50.45 50.44z"/><path id="polygon57" class="st0" fill="#fcc42c" d="M942.41 356.32v-99.97l-50.45 49.98z"/></g></g></g></g></g><style id="style10">.st0{fill:#fcc42c}</style></svg>