<svg width="80" height="80" fill="none" xmlns="http://www.w3.org/2000/svg"><path d="M62.92 39.224h16.76v19.888c-2.416 1.768-4.984 3.056-7.712 3.848-2.728.8-5.576 1.2-8.552 1.2-3.88 0-7.416-.608-10.592-1.824-3.184-1.216-5.904-2.896-8.168-5.048-2.264-2.144-4.008-4.688-5.24-7.632-1.232-2.944-1.84-6.144-1.84-9.593 0-3.51.584-6.743 1.744-9.687 1.168-2.944 2.832-5.48 5-7.616 2.169-2.136 4.784-3.792 7.856-4.984C55.246 16.592 58.68 16 62.481 16c1.958 0 3.807.16 5.527.488a26.98 26.98 0 0 1 4.768 1.328 21.914 21.914 0 0 1 3.992 2.008A21.317 21.317 0 0 1 80 22.344l-3.168 4.816c-.496.752-1.136 1.216-1.928 1.392-.784.176-1.632-.024-2.535-.584-.795-.481-1.61-.93-2.441-1.344a15.391 15.391 0 0 0-2.344-.92 15.603 15.603 0 0 0-2.52-.52c-.888-.112-1.872-.16-2.976-.16-2.048 0-3.897.36-5.527 1.08a11.927 11.927 0 0 0-4.193 3.056c-1.152 1.312-2.04 2.896-2.673 4.736-.623 1.84-.935 3.896-.935 6.16 0 2.504.344 4.72 1.032 6.664.688 1.944 1.664 3.575 2.929 4.92 1.263 1.344 2.767 2.352 4.527 3.056 1.76.704 3.704 1.048 5.84 1.048 1.312 0 2.504-.128 3.576-.392 1.064-.257 2.105-.6 3.12-1.032v-7.144H65.12c-.688 0-1.232-.184-1.616-.552-.392-.368-.584-.833-.584-1.392v-6.008Zm-45.608-22.12c3.248 0 6.016.303 8.304.904 2.28.6 4.144 1.456 5.585 2.552 1.439 1.096 2.495 2.432 3.151 4.008.656 1.576.984 3.328.984 5.264a10.28 10.28 0 0 1-.456 3.056 8.725 8.725 0 0 1-1.424 2.743c-.648.849-1.472 1.633-2.489 2.345-1.016.712-2.23 1.328-3.647 1.84 3.104.752 5.392 1.967 6.88 3.648 1.488 1.68 2.232 3.855 2.232 6.528 0 2-.384 3.863-1.16 5.584-.776 1.72-1.913 3.224-3.408 4.504-1.496 1.28-3.344 2.28-5.537 3-2.199.72-4.703 1.08-7.527 1.08H0V17.104h17.313Zm-6.392 8.168v11.624h5.688c1.208 0 2.297-.089 3.264-.256.968-.169 1.792-.472 2.472-.904a4.192 4.192 0 0 0 1.552-1.776c.352-.752.536-1.705.536-2.84 0-1.12-.144-2.048-.416-2.791-.28-.745-.712-1.346-1.296-1.793-.584-.449-1.32-.776-2.215-.968-.897-.193-1.953-.288-3.185-.288h-6.4v-.009.001Zm7.687 30.655c1.44 0 2.625-.183 3.537-.552.912-.367 1.632-.84 2.144-1.423a4.74 4.74 0 0 0 1.064-1.968 8.713 8.713 0 0 0 .288-2.233c0-.863-.112-1.639-.336-2.327a3.86 3.86 0 0 0-1.16-1.744c-.552-.473-1.272-.84-2.184-1.096-.904-.256-2.048-.384-3.424-.384h-7.623v11.728h7.695Z" fill="#EC1C24"/></svg>