<svg width="72" height="80" fill="none" xmlns="http://www.w3.org/2000/svg"><path d="m31.102 32.916 4.442 2.761c1.399.87 1.334 2.935-.123 3.71l-4.616 2.471-4.616 2.471c-1.456.783-3.203-.304-3.152-1.956l.167-5.232.167-5.232c.05-1.652 1.87-2.623 3.275-1.753l4.456 2.76Z" fill="#26214D"/><path d="M12.45 13.895c9.9-4.188 32.718 16.616 32.718 16.616S17.885-4.272 6.755.439C-4.383 5.156 1.61 48.953 1.61 48.953s.942-30.87 10.84-35.058Z" fill="url(#a)"/><path d="M11.64 14.308c7.238-4.34 18.188-.855 19.47.391 2.834 2.754 10.138 10.493 14.058 15.805 0 0-12.913-11.87-23.97-15.913-4.805-1.761-8.276-.877-9.559-.283Z" fill="url(#b)"/><path d="M56.726 38.293C54.552 48.815 24.465 55.78 24.465 55.78s44.123-2.696 46.572-14.537c2.45-11.847-37-31.797-37-31.797S58.9 27.765 56.726 38.293Z" fill="url(#c)"/><path d="M56.849 37.395c-.536 8.42-9.63 15.456-11.384 15.797-3.877.768-14.391 2.384-20.993 2.594 0 0 17.109-3.884 26.718-10.681 4.166-2.964 5.42-6.32 5.659-7.71Z" fill="url(#d)"/><path d="M15.958 66.908c-8.84-6.109-3.507-36.53-3.507-36.53S-2.296 72.054 7.646 78.93c9.95 6.876 43.718-21.653 43.718-21.653s-26.565 15.747-35.406 9.63Z" fill="url(#e)"/><path d="M16.74 67.372C9.198 63.589 6.278 52.466 6.64 50.719c.81-3.87 3.427-14.18 5.81-20.34 0 0-3.1 17.268-.593 28.768 1.094 5 3.695 7.456 4.884 8.225Z" fill="url(#f)"/><defs><linearGradient id="a" x1="41.271" y1="21.337" x2="-17.903" y2="26.483" gradientUnits="userSpaceOnUse"><stop stop-color="#FEEC34"/><stop offset=".064" stop-color="#FFDD24"/><stop offset=".133" stop-color="#FED117"/><stop offset=".205" stop-color="#FECA0C"/><stop offset=".281" stop-color="#FEC707"/><stop offset=".668" stop-color="#F18F33"/><stop offset=".888" stop-color="#E96031"/><stop offset="1" stop-color="#E4342F"/></linearGradient><linearGradient id="b" x1="28.405" y1="49.522" x2="28.405" y2="14.136" gradientUnits="userSpaceOnUse"><stop stop-color="#FEEC34"/><stop offset=".064" stop-color="#FFDD24"/><stop offset=".133" stop-color="#FED117"/><stop offset=".205" stop-color="#FECA0C"/><stop offset=".281" stop-color="#FEC707"/><stop offset=".668" stop-color="#F18F33"/><stop offset=".888" stop-color="#E96031"/><stop offset="1" stop-color="#E4342F"/></linearGradient><linearGradient id="c" x1="49.167" y1="72.683" x2="46.74" y2="28.463" gradientUnits="userSpaceOnUse"><stop offset=".375" stop-color="#1D9DD9"/><stop offset="1" stop-color="#302D7F"/></linearGradient><linearGradient id="d" x1="15.131" y1="65.975" x2="48.835" y2="46.561" gradientUnits="userSpaceOnUse"><stop offset=".375" stop-color="#1D9DD9"/><stop offset="1" stop-color="#302D7F"/></linearGradient><linearGradient id="e" x1="-10.641" y1="58.883" x2="36.275" y2="51.401" gradientUnits="userSpaceOnUse"><stop stop-color="#49BED6"/><stop offset=".343" stop-color="#6559A2"/><stop offset=".615" stop-color="#4B328A"/><stop offset=".958" stop-color="#29275C"/></linearGradient><linearGradient id="f" x1="11.677" y1="18.163" x2="11.677" y2="72.157" gradientUnits="userSpaceOnUse"><stop stop-color="#49BED6"/><stop offset=".343" stop-color="#6559A2"/><stop offset=".615" stop-color="#4B328A"/><stop offset=".958" stop-color="#29275C"/></linearGradient></defs></svg>