<svg width="80" height="80" fill="none" xmlns="http://www.w3.org/2000/svg"><mask id="a" style="mask-type:alpha" maskUnits="userSpaceOnUse" x="5" y="0" width="71" height="80"><path d="M5 0h70.639v80H5V0Z" fill="#fff"/></mask><g mask="url(#a)"><path fill-rule="evenodd" clip-rule="evenodd" d="M74.65 30.867c-2.37-10.835-9.827-20.112-19.229-25.785-7.379-4.24-16.07-5.68-24.48-4.864-9.241.875-17.956 5.365-24.367 12.008-1.188 1.113-1.982 2.836-1.349 4.452.717 2.654 4.673 3.706 6.382 1.396C16.654 12.66 23.455 8.87 30.835 7.956c8.463-1.021 17.352.808 24.146 6.123 8.927 6.732 14.166 18.053 12.831 29.246-.67 8.99-5.794 17.132-12.808 22.599-6.77 5.261-15.653 7.296-24.085 6.169-6.672-.817-12.97-3.937-17.75-8.641-1.335-1.098-2.464-3.08-4.483-2.638-3.066.175-4.606 4.3-2.518 6.481 5.506 5.977 12.878 10.415 20.915 11.924 9.59 1.745 19.906.663 28.423-4.323 6.64-4.102 12.328-9.866 15.95-16.812 4.261-8.318 5.153-18.146 3.195-27.219" fill="#5BF495"/></g><path fill-rule="evenodd" clip-rule="evenodd" d="M31.717 18.959c-.366-3.751-6.601-4.21-7.334-.436-.38 5.216-.107 10.476-.145 15.714-.09 1.99 1.495 4.034 3.554 4.065 3.925.045 7.875-.32 11.786.129 3.104.754 5.559 3.514 6.191 6.618.847 3.85-1.341 8.082-4.963 9.607-4.43.67-8.958.25-13.411.724-1.22.145-2.378.936-2.83 2.103-1.226 2.288.809 5.437 3.371 5.33 3.759.093 7.525.214 11.291.128 5.605-.19 10.675-3.864 13.283-8.72 1.723-3.31 1.942-7.22 1.357-10.858-1.213-6.296-6.687-11.634-13.1-12.404-3.071-.504-6.137.29-9.012 1.327.016-4.439.185-8.891-.038-13.327" fill="#5BF495"/><path fill-rule="evenodd" clip-rule="evenodd" d="M28.698 50.347c2.547 1.586 6.191-.922 5.81-3.834-.138-2.997-4.033-4.696-6.366-2.83-2.294 1.603-1.96 5.46.556 6.666" fill="#5BF495"/></svg>