<svg width="80" height="43" fill="none" xmlns="http://www.w3.org/2000/svg"><path d="m7.357 17.464-1.111.944.782.944-.168.944-1.668 1.416h-2.36l.169-.944h1.416l.555-.472.168-.944-.389-.472H3.333l.164-.942h1.416l.556-.472.084-.473H3.192l-.556.47-.748 4.25H0l.747-4.25 1.668-1.416h5.193l-.252 1.417h.001Zm6.492 4.248H8.656l-1.164-1.416.746-4.248h1.888l-.747 4.248.388.472h2.36l.832-4.72h1.888l-.998 5.664Zm7.406-.944-.168.944h-6.609l.999-5.665h1.89l-.833 4.721h4.721Zm7.24 0-.169.944h-6.609l.999-5.665h1.89l-.833 4.721h4.721Zm7.735-2.83h-1.89l.168-.944h-2.36l-.555.47-.246 1.416h4.721l-.168.944h-4.72l-.168.944h4.722l-.168.944h-6.607l.747-4.248 1.666-1.416h5.193l-.336 1.888.001.002Zm7.407-.944h-2.361l-.83 4.718h-1.891l.831-4.72h-2.359l.166-.945h6.61l-.169.944.003.003Zm6.988 1.416-1.662 1.416h-2.36l.168-.944h1.416l.551-.472.252-1.416h-2.36l-.556.472-.748 4.248h-1.89l.747-4.248 1.667-1.419h5.193l-.42 2.361.002.002Zm7.24 0-1.663 1.416h.473l.304.944h.472l-.168.945h-1.89l-.61-1.89h-.945l.169-.945h1.418l.55-.472.252-1.417h-2.36l-.557.473-.747 4.248h-1.89l.747-4.248 1.669-1.416h5.192l-.42 2.36.004.002Zm6.91 1.888-1.668 1.417h-5.193l.745-4.251 1.67-1.416h5.193l-.748 4.248v.002Zm-3.67-3.304-.555.47-.58 3.304h2.36l.556-.472.58-3.305-2.36.003Zm10.908 3.304-1.667 1.417h-5.193l.747-4.25 1.667-1.418h5.194l-.748 4.249v.002Zm-3.668-3.304-.556.472-.58 3.304h2.36l.556-.472.58-3.304h-2.36Zm11.319.944h-1.89l.168-.944H75.58l-.556.472-.246 1.416h4.722l-.169.944h-4.717l-.336 1.89h-1.89l.747-4.248 1.67-1.42H80l-.336 1.89Z" fill="#fff"/><path d="M25.164 21.673c.906 3.933 2.398 7.693 4.478 11.28a62.734 62.734 0 0 0 7.05 9.872c-3.865-2.84-6.975-5.849-9.33-9.024-2.354-3.176-4.22-7.218-5.597-12.128h3.399Zm27.056 0c-.756 2.651-1.461 4.634-2.116 5.948-.655 1.315-1.742 3.092-3.261 5.332 1.184-2.56 2.05-4.528 2.597-5.903.548-1.375 1.04-3.167 1.603-5.377h1.177ZM37.245 0c6.14 0 11.8.964 16.98 2.892.427 4.481.269 8.563-.474 12.246h-.52c-.557.54-1.263.932-1.322.987.095-1.502.492-5.388.398-11.469C45.632 3.59 40.61 3.111 37.247 3.22c-5.05.161-10.5.973-13.27 2.363 0 3.226.09 6.411.269 9.556H22.44a369.21 369.21 0 0 0-1.057 4.945c-1.538-5.991-2.042-11.722-1.512-17.19C25.313.963 31.105 0 37.245 0Z" fill="#fff"/></svg>
