<svg width="80" height="53" viewBox="0 0 80 53" fill="none" xmlns="http://www.w3.org/2000/svg">
<path fill-rule="evenodd" clip-rule="evenodd" d="M15.4353 26.7317C15.4976 19.7444 22.0939 10.7613 33.3316 5.84951C53.1167 -2.79517 64.4555 5.1745 67.387 12.7104C70.1201 19.7347 64.7123 32.0675 55.3459 41.2569C62.0376 36.4657 67.4998 31.3186 71.2872 26.3213C76.3138 19.688 78.3932 13.3115 76.483 8.36471C73.6624 1.04669 62.6367 -1.30511 48.6582 0.667368C34.6796 2.63985 23.9419 6.06932 15.3186 10.452C5.72852 15.3248 0.777871 21.1158 0.0698007 27.7219C-0.95729 37.3158 9.32139 50.2109 32.8375 51.8001C45.1956 52.6366 57.05 52.9148 80 47.3436C77.2669 47.4311 15.1824 55.144 15.4353 26.7317Z" fill="#A6CE39"/>
<path fill-rule="evenodd" clip-rule="evenodd" d="M38.2667 37.8974C40.912 37.8986 43.4982 37.1152 45.6982 35.6464C47.8983 34.1776 49.6133 32.0893 50.6264 29.6457C51.6395 27.2021 51.9052 24.513 51.3898 21.9184C50.8745 19.3238 49.6012 16.9403 47.7311 15.0694C45.861 13.1985 43.4781 11.9242 40.8837 11.4077C38.2893 10.8912 35.6001 11.1557 33.156 12.1677C30.712 13.1798 28.623 14.8939 27.1532 17.0933C25.6834 19.2927 24.8989 21.8786 24.8989 24.5238C24.9061 28.0682 26.3172 31.4653 28.8232 33.9718C31.3293 36.4782 34.7262 37.8897 38.2706 37.8974H38.2667Z" fill="#A6CE39"/>
</svg>
