<svg width="80" height="64" fill="none" xmlns="http://www.w3.org/2000/svg"><path d="M79.857 33.6a53.748 53.748 0 0 0-.754-6.271 44.926 44.926 0 0 0-1.148-4.848 35.254 35.254 0 0 0-2.008-5.22 29.52 29.52 0 0 0-2.315-4.048 27.397 27.397 0 0 0-8.715-8.218 29.043 29.043 0 0 0-4.763-2.29 37.67 37.67 0 0 0-6.983-1.91 49.031 49.031 0 0 0-6.496-.729A73.597 73.597 0 0 0 35.07.491c1.026 1.807 2.075 3.61 3.11 5.404.726 1.275 1.463 2.528 2.185 3.797.898 1.576 1.81 3.143 2.715 4.715.396.69.794 1.38 1.19 2.066h-4.61c.964 1.26 1.963 2.491 2.94 3.74 1.142 1.45 2.285 2.9 3.427 4.345l.557.707c-1.103.471-2.213.932-3.318 1.4 1.15 1.602 2.318 3.195 3.479 4.792.907 1.249 1.814 2.497 2.723 3.744 1.07 1.474 2.142 2.943 3.213 4.42.287.398.585.791.883 1.184a20.614 20.614 0 0 1 7.07-.947c2.407.149 4.727.796 6.66 2.27 1.651 1.26 2.819 2.984 3.575 4.885a18.559 18.559 0 0 1 1.071 4.098c.602 4.094.195 8.382-.463 12.45 1.558-.014 3.113 0 4.668 0a96.305 96.305 0 0 0 3.443-17.625c.169-1.7.286-3.403.353-5.112a67.51 67.51 0 0 0-.083-7.224Zm-21.04-9.036a2.77 2.77 0 0 1 1.375-1.716 2.82 2.82 0 0 1 2.201-.195c1.106.371 1.742 1.295 1.928 2.408-.038.777-.214 1.506-.771 2.085-.838.892-2.059 1.1-3.198.671-1.196-.624-1.898-1.913-1.534-3.253Z" fill="url(#a)"/><path d="m48.432 36.426-4.11-4.252c-1.065-1.067-2.06-2.201-3.115-3.279-.813-.827-1.608-1.67-2.42-2.497-.546-.56-1.084-1.126-1.627-1.688 1.803-.35 3.613-.681 5.413-1.051-1.198-1.33-2.406-2.654-3.61-3.982-1.515-1.666-3.018-3.342-4.54-5.008-.473-.514-.938-1.04-1.403-1.563 2.06-.096 4.117-.262 6.177-.373-1.694-1.885-3.378-3.782-5.07-5.682-.989-1.102-1.961-2.217-2.946-3.314-.806-.882-1.55-1.796-2.391-2.641-5.436 2.412-10.565 5.896-14.635 10.35a38.277 38.277 0 0 0-5.539 7.87 40.753 40.753 0 0 0-3.157 7.746 49.093 49.093 0 0 0-1.774 9.4 60.148 60.148 0 0 0-.19 8.238c.053 2.319.443 4.326.095 6.512-.404 2.715-1.7 5.086-3.59 6.991 2.17-.927 3.578-3.285 4.607-5.362.11.507.21 1.014.347 1.524.364 1.393.817 2.765 1.288 4.124a134.323 134.323 0 0 0 1.877 5.055c5.76.024 11.523 0 17.283.018v-.127c.1-1.21.176-2.425.256-3.636-.37.297-.742.59-1.11.889l.145-1.028c.253-1.868.495-3.738.723-5.609-.46.349-.921.697-1.39 1.037l.044-.693a50.021 50.021 0 0 1 1.435-9.316c.06-.229.126-.453.191-.68-.02.312-.04.623-.063.937-.179 2.301-.368 4.602-.532 6.904.58-.518 1.16-1.039 1.744-1.55l-.082.982a559.86 559.86 0 0 0-.402 4.572l-.082.83a58.777 58.777 0 0 0 1.59-1.327c-.07 1.329-.13 2.654-.194 3.983-.06 1.267-.127 2.534-.181 3.801 6.566.04 13.134 0 19.7.024-.593-2.667-1.002-5.34-.96-8.084.021-3.686.83-7.316 2.692-10.481a14.714 14.714 0 0 1 3.677-4.161l-1.684-1.742c-.835-.875-1.667-1.76-2.487-2.66Z" fill="url(#b)"/><defs><linearGradient id="a" x1="60.776" y1="4.576" x2="44.33" y2="58.606" gradientUnits="userSpaceOnUse"><stop stop-color="#FAAC05"/><stop offset=".099" stop-color="#FBA10D"/><stop offset=".166" stop-color="#FB9316"/><stop offset=".274" stop-color="#FB8222"/><stop offset=".372" stop-color="#FC732C"/><stop offset=".427" stop-color="#FC6834"/><stop offset=".507" stop-color="#FD5144"/><stop offset=".582" stop-color="#FD444D"/><stop offset=".659" stop-color="#FD3855"/><stop offset=".746" stop-color="#FD3855"/><stop offset=".813" stop-color="#FE2B5E"/><stop offset=".906" stop-color="#FE1B69"/><stop offset="1" stop-color="#FF007C"/></linearGradient><linearGradient id="b" x1="9.533" y1="15.69" x2="37.15" y2="68.767" gradientUnits="userSpaceOnUse"><stop offset="0" stop-color="#FAAC05"/><stop offset=".106" stop-color="#FBA10D"/><stop offset=".17" stop-color="#FB9316"/><stop offset=".263" stop-color="#FB8222"/><stop offset=".339" stop-color="#FC732C"/><stop offset=".424" stop-color="#FC6834"/><stop offset=".514" stop-color="#FD5144"/><stop offset=".616" stop-color="#FD444D"/><stop offset=".689" stop-color="#FD3855"/><stop offset=".743" stop-color="#FD3855"/><stop offset=".815" stop-color="#FE2B5E"/><stop offset=".899" stop-color="#FE1B69"/><stop offset=".961" stop-color="#FF007C"/></linearGradient></defs></svg>