<svg width="60" height="60" xmlns="http://www.w3.org/2000/svg"><g fill="none"><path fill="#F0F0F0" d="M0 0h60v60H0z"/><path fill="#D80027" d="M0 35.625h24.375V60h11.25V35.625H60v-11.25H35.625V0h-11.25v24.375H0z"/><path d="M47.686 39.13 60 51.444V39.13zm-8.556 0L60 60v-5.902L45.032 39.13zM54.441 60l-15.31-15.312V60z" fill="#0052B4"/><path fill="#F0F0F0" d="M39.13 39.13 60 60v-5.902L45.032 39.13z"/><path fill="#D80027" d="M39.13 39.13 60 60v-5.902L45.032 39.13z"/><path d="M9.41 39.13 0 48.54v-9.41zm11.46 2.654V60H2.654z" fill="#0052B4"/><path fill="#D80027" d="M14.968 39.13 0 54.1V60l20.87-20.87z"/><path d="M12.314 20.87 0 8.556V20.87zm8.556 0L0 0v5.902L14.968 20.87zM5.559 0l15.31 15.312V0z" fill="#0052B4"/><path fill="#F0F0F0" d="M20.87 20.87 0 0v5.902L14.968 20.87z"/><path fill="#D80027" d="M20.87 20.87 0 0v5.902L14.968 20.87z"/><path d="M50.59 20.87 60 11.46v9.41zm-11.46-2.654V0h18.215z" fill="#0052B4"/><path fill="#D80027" d="M45.032 20.87 60 5.9V0L39.13 20.87z"/></g></svg>