<svg width="80" height="80" fill="none" xmlns="http://www.w3.org/2000/svg"><path fill-rule="evenodd" clip-rule="evenodd" d="M74.48 15.36S63.92 0 40.24 0C20.72 0 6 10.88 6 17.28 6 24.64 20.72 28.48 20.72 40H46c0-6.72-22.08-10.24-22.08-24.64 0-13.119 34.24-12.16 50.56 0Z" fill="url(#a)"/><path fill-rule="evenodd" clip-rule="evenodd" d="M74.48 64.639S63.92 80 40.24 80C20.72 80 6 69.12 6 62.72 6 55.36 20.72 51.2 20.72 40H46c0 6.72-22.08 10.24-22.08 24.639 0 13.12 34.24 12.16 50.56 0Z" fill="url(#b)"/><path fill-rule="evenodd" clip-rule="evenodd" d="M6.32 15.04C6 16 6 16.64 6 17.28 6 24.64 20.72 28.48 20.72 40 20.72 51.199 6 55.36 6 62.72c0 .64 0 1.28.32 1.919C4.4 57.599 30 51.52 41.84 45.119 44.4 43.52 46 41.92 46 40s-1.6-3.52-4.16-5.12C30 28.48 4.4 22.398 6.32 15.04Z" fill="url(#c)"/><defs><linearGradient id="a" x1="37.735" y1="41.295" x2="39.451" y2="-1.465" gradientUnits="userSpaceOnUse"><stop stop-color="#0B0A54"/><stop offset=".231" stop-color="#03246D"/><stop offset="1" stop-color="#01ACEE"/></linearGradient><linearGradient id="b" x1="22.272" y1="-14.379" x2="29.331" y2="82.238" gradientUnits="userSpaceOnUse"><stop stop-color="#553704"/><stop offset=".231" stop-color="#792307"/><stop offset="1" stop-color="#FEA702"/></linearGradient><linearGradient id="c" x1="5.639" y1="38.924" x2="46.347" y2="40.275" gradientUnits="userSpaceOnUse"><stop stop-color="#6A0804"/><stop offset=".231" stop-color="#A5080F"/><stop offset="1" stop-color="#FD121B"/></linearGradient></defs></svg>