<svg width="80" height="80" fill="none" xmlns="http://www.w3.org/2000/svg"><path d="M11.09 4.816c24.096-12.89 55.32.703 57.668 33.522C23.982 41.852 18.59 21.692 11.091 4.816Z" fill="url(#a)"/><path d="M11.09 75.184c24.096 12.891 55.32-.703 57.668-33.522-44.776-3.514-50.168 16.635-57.667 33.522Z" fill="url(#b)"/><path d="M60.396 15.055C49.04-.052 28.229-4.349 11 4.846c6.717 15.12 11.746 32.858 44.888 33.873a38.503 38.503 0 0 0 4.83-18.724 38.998 38.998 0 0 0-.322-4.94ZM19.122 58.56c1.004.07 1.928.12 2.912.12A38.643 38.643 0 0 0 54.25 41.402c-19.918.974-29.286 8.212-35.129 17.156v.002Z" fill="url(#c)"/><defs><linearGradient id="a" x1="39.543" y1="25.116" x2="37.353" y2="70.402" gradientUnits="userSpaceOnUse"><stop stop-color="#62E4B8"/><stop offset="1" stop-color="#A8A8A8"/></linearGradient><linearGradient id="b" x1="39.543" y1="66.375" x2="37.353" y2="111.661" gradientUnits="userSpaceOnUse"><stop stop-color="#62E4B8"/><stop offset="1" stop-color="#A8A8A8"/></linearGradient><radialGradient id="c" cx="0" cy="0" r="1" gradientUnits="userSpaceOnUse" gradientTransform="matrix(46.1232 0 0 46.1228 26.01 26.096)"><stop stop-color="#2FBE7B"/><stop offset=".99" stop-color="#38DCA8"/><stop offset="1" stop-color="#787878"/></radialGradient></defs></svg>