<svg width="70" height="80" viewBox="0 0 70 80" fill="none" xmlns="http://www.w3.org/2000/svg">
<path d="M61.3815 46.6717L48.9478 59.1054C48.4019 59.6513 47.5528 59.6513 47.0676 59.1054L42.2761 54.3139C41.7302 53.768 41.7302 52.9189 42.2761 52.4337L53.9213 40.7885C54.3458 40.3639 54.3458 39.6967 53.9213 39.2722L48.7658 34.1168C48.3413 33.6922 47.6741 33.6922 47.2495 34.1168L35.4831 45.8226C34.9978 46.3078 34.2094 46.3078 33.6635 45.8226L28.8113 40.9704C28.2655 40.4246 28.2655 39.5754 28.8113 39.0902L41.245 26.6566C44.9448 22.9568 50.9493 22.9568 54.6491 26.6566L61.3208 33.3283C65.0812 37.0281 65.0812 43.0326 61.3815 46.6717ZM33.7848 72.6308L7.88639 46.7324C4.18662 43.0326 4.18662 37.0281 7.88639 33.2676L33.7848 7.36922C34.27 6.884 34.9978 6.884 35.4224 7.36922L40.3352 12.282C40.8204 12.7672 40.8204 13.6164 40.3352 14.1016L15.2859 39.2115C14.8614 39.6361 14.8614 40.3033 15.2859 40.7278L40.3959 65.8378C40.8811 66.323 40.8811 67.1114 40.3959 67.6573L35.4224 72.6308C34.9978 73.0553 34.2094 73.0553 33.7848 72.6308ZM64.9599 29.6892L35.7863 0.45489C35.1798 -0.15163 34.1487 -0.15163 33.4815 0.45489L4.42922 29.5072C1.57858 32.3578 -0.0590246 36.1789 0.00162738 40.1213C0.00162738 44.003 1.51793 47.5815 4.24727 50.3108L33.4815 79.5451C34.0881 80.1516 35.1191 80.1516 35.7863 79.5451L65.0206 50.3715C70.6612 44.6702 70.6612 35.3904 64.9599 29.6892Z" fill="#EBF4E9"/>
</svg>
