<svg width="60" height="60" xmlns="http://www.w3.org/2000/svg" xmlns:xlink="http://www.w3.org/1999/xlink"><defs><path id="a" d="M0 0h60v60H0z"/></defs><g fill="none" fill-rule="evenodd"><mask id="b" fill="#fff"><use xlink:href="#a"/></mask><use fill="#FFF" fill-rule="nonzero" xlink:href="#a"/><g mask="url(#b)" fill="#D80027" fill-rule="nonzero"><path d="M0-20h15v60H0zm45 0h15v60H45zM34.565 13.288l4.565-2.283-2.282-1.14V7.58l-4.565 2.283L34.565 5.3h-2.282L30 1.875l-2.283 3.424h-2.282l2.282 4.565-4.565-2.283v2.283l-2.282 1.141 4.565 2.283-1.142 2.283h4.566v3.423h2.282v-3.423h4.566z"/></g><g mask="url(#b)" fill-rule="nonzero"><path fill="#F0F0F0" d="M0 70h60V30H0z"/><path fill="#0057B4" d="M0 70h19.8V30H0z"/><path fill="#D70027" d="M40.2 70H60V30H40.2z"/></g></g></svg>