<svg width="80" height="80" fill="none" xmlns="http://www.w3.org/2000/svg"><path d="M57.143 23.458 56.857 23H0v33.657h41.123l3.81-5.714h21.828l3.715 5.294.286.401H80l-1.01-1.467-21.847-31.713ZM35.866 38.58v9.523l-.247.21c-3.047 2.61-7.62 3.943-13.334 3.943C12.095 52.256 6 47.627 6 39.856a11.066 11.066 0 0 1 4.705-9.39 19.886 19.886 0 0 1 11.429-3.086c5.713 0 9.657 1.124 12.627 3.523l.553.458-.457.552-1.905 2.514-.456.572-.573-.476c-1.904-1.658-4.4-2.762-9.79-2.762-7.2 0-10.838 2.666-10.838 8.057 0 5.39 3.543 8.095 10.839 8.095a16.419 16.419 0 0 0 8.856-1.904v-3.62H19.752v-4.533h16.134l-.019.724Zm13.942 5.18 5.945-8.819 6.057 8.82H49.808Z" fill="#0486D1"/></svg>