<svg width="82" height="82" fill="none" xmlns="http://www.w3.org/2000/svg"><path d="M40.972 74.752c18.649 0 33.767-15.118 33.767-33.768 0-18.649-15.118-33.767-33.767-33.767-18.65 0-33.768 15.118-33.768 33.767 0 18.65 15.118 33.768 33.768 33.768Z" fill="url(#a)"/><path d="M22.195 76.295C2.707 65.912-4.678 41.7 5.697 22.21 16.072 2.718 40.28-4.678 59.776 5.69 79.27 16.056 86.677 40.26 76.318 59.76c-10.39 19.5-34.61 26.9-54.122 16.535h-.001Zm34.363-64.63A33.207 33.207 0 1 0 70.29 56.572c8.59-16.194 2.446-36.287-13.732-44.907Z" fill="url(#b)" stroke="#6F6F6E" stroke-width=".682"/><path d="M40.971 71.155c16.664 0 30.172-13.508 30.172-30.17 0-16.664-13.508-30.172-30.172-30.172-16.662 0-30.17 13.508-30.17 30.171s13.507 30.171 30.17 30.171Z" fill="url(#c)"/><path d="M40.993 10.807v2.184a27.994 27.994 0 1 1-.073 55.987 27.994 27.994 0 0 1 .073-55.987v-2.184Zm0 0c-15.25-.022-28.122 11.336-29.997 26.472C9.12 52.414 18.828 66.57 33.623 70.274c14.795 3.703 30.027-4.213 35.503-18.448 5.473-14.234-.53-30.315-13.994-37.48a30.163 30.163 0 0 0-14.138-3.54h-.001Z" fill="url(#d)"/><path opacity=".73" d="M38.633 36.297c9.282-5.2 14.07-14.302 10.693-20.328-3.376-6.027-13.638-6.697-22.92-1.497-9.282 5.2-14.07 14.302-10.693 20.328 3.377 6.027 13.639 6.697 22.92 1.497Z" fill="url(#e)"/><path opacity=".65" d="M38.14 35.823c8.86-4.59 13.53-13.168 10.426-19.159-3.103-5.991-12.802-7.127-21.665-2.538-8.862 4.59-13.53 13.168-10.427 19.159 3.103 5.991 12.802 7.128 21.664 2.538Z" fill="url(#f)"/><defs><radialGradient id="c" cx="0" cy="0" r="1" gradientUnits="userSpaceOnUse" gradientTransform="translate(40.971 40.984) scale(30.1783)"><stop stop-color="#93C01F"/><stop offset=".21" stop-color="#90BE1F"/><stop offset=".37" stop-color="#86B821"/><stop offset=".51" stop-color="#76AE23"/><stop offset=".64" stop-color="#5FA026"/><stop offset=".76" stop-color="#428E2A"/><stop offset=".88" stop-color="#1E792F"/><stop offset=".97" stop-color="#063"/></radialGradient><radialGradient id="d" cx="0" cy="0" r="1" gradientUnits="userSpaceOnUse" gradientTransform="matrix(30.1777 0 0 30.1779 40.97 40.985)"><stop stop-color="#93C01F"/><stop offset=".17" stop-color="#8FBD1F"/><stop offset=".33" stop-color="#83B621"/><stop offset=".5" stop-color="#6FA823"/><stop offset=".66" stop-color="#539626"/><stop offset=".82" stop-color="#2F7E2A"/><stop offset=".99" stop-color="#04622F"/><stop offset="1" stop-color="#005F2F"/></radialGradient><radialGradient id="f" cx="0" cy="0" r="1" gradientUnits="userSpaceOnUse" gradientTransform="rotate(11.567 -159.389 133.408) scale(26.9137 21.1396)"><stop stop-color="#fff"/><stop offset=".27" stop-color="#fff" stop-opacity=".62"/><stop offset=".53" stop-color="#fff" stop-opacity=".28"/><stop offset=".7" stop-color="#fff" stop-opacity=".08"/><stop offset=".79" stop-color="#fff" stop-opacity="0"/></radialGradient><linearGradient id="a" x1="52.526" y1="72.728" x2="29.424" y2="9.248" gradientUnits="userSpaceOnUse"><stop stop-color="#fff"/><stop offset=".23" stop-color="#D2D2D1"/><stop offset=".6" stop-color="#919190"/><stop offset=".86" stop-color="#686868"/><stop offset="1" stop-color="#595958"/></linearGradient><linearGradient id="b" x1="24.167" y1="5.625" x2="57.728" y2="77.951" gradientUnits="userSpaceOnUse"><stop offset=".16" stop-color="#ECECEC"/><stop offset=".41" stop-color="#6A6A6A"/><stop offset=".6" stop-color="#7A7979"/><stop offset=".74" stop-color="#7A7979"/><stop offset="1" stop-color="#7A7979"/></linearGradient><linearGradient id="e" x1="41.417" y1="22.831" x2="34.02" y2="14.264" gradientUnits="userSpaceOnUse"><stop stop-color="#93C01F"/><stop offset=".59" stop-color="#93C01F" stop-opacity=".7"/><stop offset=".64" stop-color="#9DC633" stop-opacity=".72"/><stop offset=".74" stop-color="#B6D568" stop-opacity=".77"/><stop offset=".89" stop-color="#DFECBC" stop-opacity=".84"/><stop offset="1" stop-color="#fff" stop-opacity=".9"/></linearGradient></defs></svg>