<svg width="80" height="80" fill="none" xmlns="http://www.w3.org/2000/svg"><path d="M79.336 39.452H41.023v13.616h22.056c-2.108 4.488-4.881 7.784-8.32 9.888-3.438 2.104-7.662 3.157-12.671 3.158-7.706 0-14.185-2.554-19.434-7.661-5.25-5.107-7.877-11.337-7.88-18.69 0-7.112 2.531-13.153 7.592-18.123 5.06-4.97 11.34-7.455 18.838-7.455 8.601 0 16.132 3.417 22.592 10.252l10.21-10.106c-4.662-5.027-9.427-8.577-14.293-10.65C53.95 1.227 47.754 0 41.13 0 30.226 0 21.087 3.288 13.714 9.863c.04.224 0 .455-.113.653a.987.987 0 0 1-1.044.904 17.186 17.186 0 0 0-2.808 3.11c-.183 1.762-1.92 3.029-3.04 4.362-.211.416-.427.83-.654 1.232-.613 1.083-.972 2.235-1.33 3.419-.336 1.102-.777 2.153-1.166 3.23-.832 2.235-1.166 4.575-1.871 6.843-.38 1.209-.863 2.413-.943 3.692-.08 1.28-.037 2.494-.253 3.74a.777.777 0 0 1-.072.213c1.202 8.087 3.821 16.024 8.686 22.674 4.341 5.938 10.82 10.023 17.545 12.77 7.01 2.864 15.05 3.334 22.478 2.12 7.206-1.178 14.148-4.166 19.046-9.728 4.973-5.65 8.3-12.424 10.14-19.698a.857.857 0 0 1 .642-.663c.333-2.013.5-4.05.498-6.091l-.119-3.193Z" fill="#fff"/><path d="M79.116 47.603a37.768 37.768 0 0 1-4.858 14.018c-3.452 5.973-7.922 10.53-13.41 13.669C55.36 78.428 48.922 80 41.536 80c-7.903 0-14.953-1.717-21.149-5.152a37.22 37.22 0 0 1-9.406-7.371c-.583-.626 5.261 1.376 14.347 2.103 7.256.583 16.873.22 24.839-2.016 8.106-2.275 15.695-6.94 20.832-11.347 5.426-4.663 8.17-9.026 8.117-8.614Z" fill="url(#a)"/><path d="M30.412 78.698a35.12 35.12 0 0 1-11.342-4.404c-4.645-2.826-7.467-6.054-9.38-8.278A37.386 37.386 0 0 1 .684 47.431a40.057 40.057 0 0 1 1.69-20.948c1.719-4.842 4.156-9.062 7.314-12.66a39.862 39.862 0 0 1 4.19-4.098s-1.555 6.91-2.756 15.656c-1.706 12.391 1.207 23.572 1.207 23.572a58.98 58.98 0 0 0 6.666 16.171 57.453 57.453 0 0 0 11.418 13.574Z" fill="url(#b)"/><defs><linearGradient id="a" x1="14.512" y1="66.292" x2="78.776" y2="51.593" gradientUnits="userSpaceOnUse"><stop offset=".01" stop-color="#AAA"/><stop offset="1" stop-color="#F5F5F5"/></linearGradient><linearGradient id="b" x1="13.482" y1="16.931" x2="24.308" y2="71.161" gradientUnits="userSpaceOnUse"><stop offset=".01" stop-color="#AFAFAF"/><stop offset="1" stop-color="#F1F1F1"/></linearGradient></defs></svg>