<svg width="80" height="80" fill="none" xmlns="http://www.w3.org/2000/svg"><path fill-rule="evenodd" clip-rule="evenodd" d="M5.567 74.433V49.1h7.8a2.234 2.234 0 0 0 1.73-.817l.316-.383 3.42 9.25.014.027a2.36 2.36 0 0 0 2.216 1.52h.017c1-.007 1.867-.617 2.217-1.56l11.433-31.3 8.317 13.123a2.226 2.226 0 0 0 1.893 1.043h10.59l5.077 12.284a2.217 2.217 0 0 0 1.923 1.38 2.233 2.233 0 0 0 2.09-1.114l1.99-3.453h7.823v25.333H5.567ZM74.433 5.567v39.45h-8.886c-.8 0-1.547.433-1.944 1.12l-.656 1.133-4.117-9.967a2.234 2.234 0 0 0-2.073-1.383H45.95l-9.773-15.433a2.24 2.24 0 0 0-3.96.326l-.02.05L21.05 51.377l-3-8.107-.09-.153a2.242 2.242 0 0 0-3.663-.29l-1.804 2.19H5.567V5.567h68.866ZM0 80h80V0H0v80Z" fill="#fff"/></svg>