<svg width="80" height="80" fill="none" xmlns="http://www.w3.org/2000/svg"><path d="M43.923 10.563a1.758 1.758 0 0 0 1.77-1.734V3.714a1.758 1.758 0 0 0-3.516 0v5.088a1.76 1.76 0 0 0 1.746 1.761Z" fill="url(#a)"/><path d="M36.888 15.232c.97 0 1.758-.786 1.758-1.757V8.387a1.758 1.758 0 0 0-3.516 0v5.085a1.761 1.761 0 0 0 1.758 1.76Z" fill="url(#b)"/><path d="M36.89 3.466a1.756 1.756 0 0 0 1.758-1.732v.024a1.758 1.758 0 0 0-3.515 0v-.024a1.758 1.758 0 0 0 1.758 1.732Z" fill="url(#c)"/><path d="M50.96 16.59a1.755 1.755 0 0 0 1.758-1.754v.02a1.76 1.76 0 0 0-3.517 0v-.04a1.759 1.759 0 0 0 1.759 1.774Z" fill="url(#d)"/><path d="M65.026 29.618c-.971 0-1.759.787-1.759 1.758v.886a1.761 1.761 0 0 1-3.516-.116V27.76a1.76 1.76 0 0 0-3.517 0v.096a1.758 1.758 0 1 1-3.516 0v-7.353a1.756 1.756 0 0 0-3.512 0v2.803a1.813 1.813 0 0 1-1.765 1.761 1.757 1.757 0 0 1-1.758-1.754V15.39a1.76 1.76 0 0 0-3.519 0v6.893a1.758 1.758 0 0 1-3.516 0v-2.476a1.759 1.759 0 1 0-3.518 0v5.299a1.756 1.756 0 0 1-3 1.243 1.756 1.756 0 0 1-.515-1.243v-7.364a1.758 1.758 0 0 0-3.516 0v11.249a1.758 1.758 0 1 1-3.517 0V26.02a1.759 1.759 0 1 0-3.518 0v8.28a1.76 1.76 0 0 1-3.519 0v-2.723a1.758 1.758 0 0 0-3.516 0L14 34.3v30.455L40.387 80l26.386-15.235V31.38a1.756 1.756 0 0 0-1.747-1.76ZM52.82 59.501h-8.29V53.19h-8.29v6.308h-8.288V39.743h8.289v6.64h8.286v-6.64h8.289V59.5h.002Z" fill="url(#e)"/><defs><linearGradient id="a" x1="14.798" y1="6.26" x2="66.933" y2="6.26" gradientUnits="userSpaceOnUse"><stop stop-color="#EF374E"/><stop offset="1" stop-color="#F89928"/></linearGradient><linearGradient id="b" x1="-3863.68" y1="34028.6" x2="-3129.87" y2="34028.6" gradientUnits="userSpaceOnUse"><stop stop-color="#EF374E"/><stop offset="1" stop-color="#F89928"/></linearGradient><linearGradient id="c" x1="-3880.3" y1="13835.1" x2="-3143.47" y2="13835.1" gradientUnits="userSpaceOnUse"><stop stop-color="#EF374E"/><stop offset="1" stop-color="#F89928"/></linearGradient><linearGradient id="d" x1="-3871.39" y1="13766.5" x2="-3141" y2="13766.5" gradientUnits="userSpaceOnUse"><stop stop-color="#EF374E"/><stop offset="1" stop-color="#F89928"/></linearGradient><linearGradient id="e" x1="-59082.7" y1="252836" x2="-47834.6" y2="252836" gradientUnits="userSpaceOnUse"><stop stop-color="#EF374E"/><stop offset="1" stop-color="#F89928"/></linearGradient></defs></svg>