<svg width="80" height="80" fill="none" xmlns="http://www.w3.org/2000/svg"><path d="M38.516 47.385h12.438v10.16l19.691.52V1.14c0-.622-.31-1.141-.83-1.141H51.784c-.519 0-.83.414-.83 1.14V28.1H38.517V1.14c0-.621-.31-1.14-.828-1.14H19.862c-.519 0-.83.414-.83 1.14v55.68l19.484.518v-9.953ZM41.07 78.97c0 .618.306 1.03.815 1.03h17.622c.51 0 .816-.413.816-1.03V61.161l-19.355-.516.102 18.325ZM10.82 80h17.612c.514 0 .923-.422.923-1.053v-19.17L10 59.355v19.592c0 .632.307 1.053.82 1.053Z" fill="#fff"/></svg>