<svg width="80" height="80" viewBox="0 0 80 80" fill="none" xmlns="http://www.w3.org/2000/svg">
<path fill-rule="evenodd" clip-rule="evenodd" d="M65.9176 4.41422C68.6986 7.72495 69.9788 13.0663 67.5068 17.4364L67.4886 17.6537L69.867 17.447L74.2813 25.3928L72.6038 44.8159L71.1913 44.9482L70.6175 51.7905L71.7652 53.8652L69.8881 73.6661L55.3933 74.7516C55.0247 74.7943 54.6483 74.8327 54.2638 74.8667C53.6344 74.9152 53.0315 74.9503 52.4479 74.9722L40.1585 75.8926L28.8425 76.6604L9.41432 78.3541L5 70.4082L9.06117 22.4688L39.4317 19.8202C37.666 16.9067 38.019 13.1104 39.0785 10.4177C39.8731 8.43124 41.1533 6.62138 42.8748 5.16465C43.228 4.85564 43.6252 4.59078 44.0225 4.41422C44.3316 3.92864 44.7288 3.44306 45.2145 3.08991C46.7595 1.85391 48.8783 1.63319 50.6882 2.47191C51.88 3.04578 52.8954 3.75207 53.7782 4.63493C53.8665 4.56872 53.9548 4.49146 54.0431 4.41421C54.1313 4.33696 54.2196 4.25971 54.3079 4.1935C54.6611 3.8845 55.0583 3.61964 55.4556 3.44306C55.7647 2.95748 56.1619 2.47191 56.6476 2.11877C58.1926 0.882758 60.3114 0.662042 62.1213 1.50076C63.6222 2.20705 64.9024 3.1782 65.9176 4.41422Z" fill="black"/>
<path fill-rule="evenodd" clip-rule="evenodd" d="M55.3673 11.345C55.9854 9.71168 57.089 8.65224 57.6628 8.16667C57.1331 8.91711 57.0447 9.75582 57.3979 10.1531C57.3979 10.1531 57.6628 10.4621 58.1042 10.3738C58.8987 10.2414 59.4285 9.09367 59.561 8.74053C60.0464 7.6811 59.9141 6.70994 59.8258 6.22437C60.3996 6.48922 61.15 6.93066 61.8564 7.76937C63.2689 9.49096 64.4167 12.89 62.5627 15.362C61.3621 17.0028 59.436 17.41 58.9878 17.5047C58.9416 17.5145 58.9111 17.5209 58.8987 17.5251C58.5456 17.6133 57.0447 17.834 55.9411 16.907C54.352 15.5827 54.7493 12.89 55.3673 11.345ZM46.2736 9.18179C45.6998 9.66737 44.5962 10.7268 43.9781 12.3601C43.3601 13.9051 42.9628 16.5979 44.5521 17.9222C45.6555 18.8492 47.1564 18.6285 47.5096 18.5401C47.5219 18.536 47.5522 18.5296 47.5981 18.5199C48.0454 18.4255 49.9725 18.0184 51.1735 16.3772C53.0275 13.9051 51.8798 10.5061 50.4672 8.78451C49.7609 7.94578 49.0104 7.50436 48.4366 7.2395C48.5249 7.72506 48.6573 8.69622 48.1718 9.75566C48.0393 10.1088 47.5096 11.2565 46.715 11.389C46.2736 11.4772 46.0087 11.1682 46.0087 11.1682C45.6555 10.7268 45.6998 9.93223 46.2736 9.18179ZM38.8572 55.3114C39.0338 57.6068 39.8726 59.2402 41.3735 60.2113C42.8743 61.1824 45.567 61.4915 49.3192 61.1383C53.1155 60.8293 55.8524 60.0347 57.574 58.7545C59.2955 57.4745 60.4432 55.6646 61.0171 53.3249C61.5909 50.9854 62.1207 47.0566 62.6063 41.5829C63.0918 36.1092 63.2243 32.2245 63.0477 29.9291C62.827 27.6337 61.9884 26.0004 60.4875 25.0293C58.9424 24.058 56.2938 23.705 52.4975 24.058C48.7012 24.4111 45.9643 25.2058 44.2427 26.4418C42.5212 27.6778 41.4176 29.4876 40.8437 31.8273C40.2699 34.1668 39.7842 38.0955 39.2987 43.6135C38.8572 49.1314 38.6806 53.016 38.8572 55.3114ZM52.4534 50.2791C52.2768 51.5592 52.0561 52.3981 51.7471 52.7511C51.438 53.1042 50.8642 53.3249 49.9814 53.4133C49.1426 53.5015 48.6129 53.3692 48.3922 53.0601C48.1715 52.7511 48.0831 51.9565 48.1274 50.6763C48.1715 49.3963 48.3481 46.7918 48.7012 42.8631C49.0544 38.9343 49.3192 36.3299 49.4958 35.0497C49.6724 33.7695 49.893 32.9309 50.2021 32.5777C50.511 32.2245 51.0407 32.0039 51.8795 31.9155C52.7182 31.8273 53.2479 31.9597 53.5127 32.2686C53.7777 32.5777 53.8659 33.3722 53.8218 34.6524C53.7777 35.9326 53.6011 38.5371 53.2479 42.4658C52.8948 46.3946 52.63 48.9989 52.4534 50.2791ZM25.9675 48.8664L24.7757 62.904L34.1782 62.0652L37.2683 25.8236L27.9099 26.6623L26.7179 40.4791L22.5685 40.8323L23.7604 27.0154L14.402 27.8542L11.312 64.0958L20.6262 63.257L21.818 49.2196L25.9675 48.8664Z" fill="white"/>
</svg>
