<svg width="80" height="62" fill="none" xmlns="http://www.w3.org/2000/svg"><path d="M80 22.522 62.217 0 41.142 17.192H10.477L0 61.073h60.078l8.973-38.55H80ZM33.432 56.06l-5.287-12.62h-6.728l-2.855 12.583H7.603l7.69-33.85H39.07c5.196 0 7.897 3.787 7.09 7.343l-1.443 6.383c-.528 2.336-2.614 4.768-5.45 6.166L44.68 54.56l8.81-37.108h-5.056l13.61-10.44 8.277 10.44H65l-9.18 38.623-22.388-.015Z" fill="#FD3E3E"/><path d="M33.692 31.236h-9.526l-.85 3.74h9.53c2.855-.13 3.633-3.793.846-3.74Z" fill="#FD3E3E"/></svg>