<svg width="80" height="80" fill="none" xmlns="http://www.w3.org/2000/svg"><path fill-rule="evenodd" clip-rule="evenodd" d="M12.108 1h33.768c-4.11 1.22-8.664 1.777-9.33 6.22-3.888 15.996-7.666 31.992-10.442 48.21 1.888.555 7.665 2.334 7.665 2.334L0 57.874s6.665-1.89 8.886-2.556c4.444-16.328 6.887-27.214 9.998-43.876.11-.445 1.22-4.888.666-6.665-.222-.667-.666-1.555-1.333-2-2.112-1.333-3.443-1.444-6.11-1.777ZM54.23 20.563C41.79 26.782 36.568 45 44.122 56.553c1.222 2.221 5.776 3.776 8.887 3.11 3.665-1.22 4.998-2.444 6.998-4.777-.667 3.888-1.444 5.999-3.221 11.553-2.666 5.998-5 11.108-11.109 9.887 2.666-3.444 6.221-6.777 4-11.442-2.111-4.553-8.997-3.333-9.331 2.112-.223 5.108 2.317 10.336 6.998 10.884 2.331.274 3.332.333 5.554.333 7.331-.11 13.996-5.663 15.884-12.885C73.335 50.554 76.225 35.226 80 20.229c-5.33-.11-9.44-.666-13.33 2.112-3.775-3.332-8.218-4.222-12.438-1.779h-.001Zm-1.222 36.546-.11-2.334c.665-11.217 5.108-30.991 6.886-32.213 1.888-1.888 4.332-.667 5.554 1.222-.445 8.109-5.554 25.326-5.554 25.326-1.889 3.666-3.666 7.998-6.776 7.998v.001Z" fill="#334C90"/></svg>