<svg width="403" height="48" xmlns="http://www.w3.org/2000/svg" xmlns:xlink="http://www.w3.org/1999/xlink"><defs><path id="a" d="M.856.195h34.629v44.52H.856z"/><path id="c" d="M0 46.913h402.485V0H0z"/></defs><g transform="translate(.009 .373)" fill="none" fill-rule="evenodd"><path d="m117.61 1.063-8.055 44.595H98.516l-8.64-24.123c-.309.014-.617.03-.925.046l-4.509 24.101h-10.77L81.6 1.123h10.94l8.98 24.816c3.156-8.748 2.956-17.098 5.534-24.876h10.555ZM320.484 18.663c3.667-.065 6.923 1.104 9.192-2.061 1.222-1.705.881-3.763-.227-5.07-2.399-2.83-5.67-1.425-8.965-1.323v8.454Zm-.426 12.907c-.094 4.832.005 4.963 3.762 5.035 5.973.116 7.992-1.111 7.98-4.847-.01-3.404-1.558-4.631-5.983-4.743-5.667-.145-5.667-.145-5.759 4.555Zm-11.18 14.324V.889h7.778c4.491-.001 8.99.16 13.472-.046 4.883-.226 8.402 1.755 10.484 6.036 2.252 4.63 1.285 9.458-2.325 13.263-.454.478-.957.91-1.523 1.445.24.412.37.999.716 1.183 5.425 2.904 6.233 7.61 5.536 13.164-.674 5.375-4.594 9.73-11.197 9.913-7.466.206-14.942.047-22.942.047ZM241.089 11.312c.173 8.245-.541 16.29.408 24.185 8.24 1.438 10.245-1.39 11.097-8.603.253-2.134.206-4.337.012-6.483-.7-7.725-3.551-10.536-11.517-9.099m-11.174 34.615V.885h8.82c2.666 0 5.346.176 7.997-.03C258.12-.039 262.7 8.79 263.588 16.108c.61 5.05.544 10.276.013 15.344-.937 8.924-7.574 14.436-16.633 14.47-5.496.021-10.993.004-17.053.004M282.235 35.901H302v9.703h-31.203V1.245h30.59v8.897h-19.202v7.605h17.852v8.99h-17.8zM119.209 31.158c3.474-.322 6.604-.614 9.953-.926.488 1.488.846 3.092 1.527 4.545 1.382 2.947 4.781 4.29 7.517 2.644 1.417-.853 2.879-2.615 3.104-4.144.17-1.156-1.319-3.004-2.549-3.822-2.47-1.642-5.307-2.719-7.923-4.156-6.507-3.576-8.55-7.636-7.255-14.183C124.852 4.698 129.116.529 135.86.068c3.574-.244 7.367.173 10.807 1.169 4.49 1.301 6.801 5.088 7.936 9.493.489 1.902-.562 2.845-2.399 2.883-2.642.054-5.286.014-7.995.014-.445-1.158-.733-2.464-1.402-3.531-1.244-1.983-4.078-2.694-6.19-1.77-3.007 1.316-3.454 4.394-.693 6.136 2.659 1.677 5.601 2.898 8.364 4.418 3.763 2.071 6.576 4.832 7.605 9.304 1.848 8.029-2.947 17.487-13.188 18.606-3.223.351-6.663-.089-9.847-.832-6.86-1.602-10.348-7.095-9.649-14.8M211.099 16.651l-1.11-.21c-2.012 4.011-4.37 7.883-5.258 12.963 2.534-.18 4.57-.327 6.368-.455V16.651Zm-5.131-15.606h15.542v44.63h-9.69l-.347-6.738c-3.383 0-6.815-.18-10.206.12-.916.081-2.18 1.49-2.464 2.516-1.034 3.727-3.32 4.995-7.005 4.508-1.616-.214-3.283-.036-5.83-.036l20-45ZM158.939 12l1.991-10.863h35.258l-1.666 10.715h-12.238l-5.998 33.73H164.66L170.591 12h-11.652Z" fill="#2F5D92"/><g transform="translate(367 .913)"><mask id="b" fill="#fff"><use xlink:href="#a"/></mask><path fill="#2F5D92" mask="url(#b)" d="M23.777 10.777v33.938H12.75V11.113H.856V.195h34.63v10.582z"/></g><mask id="d" fill="#fff"><use xlink:href="#c"/></mask><path fill="#2F5D92" mask="url(#d)" d="M350.045 45.6h11.384V1.048h-11.384zM61.544 1.076h11.444c-2.075 15.023-5.204 29.62-7.587 44.584H53.584l7.96-44.584"/><path d="M52.837 1.037 49.5 19.44H30.66l3.275-18.403h18.902ZM48.461 27.339 45.124 45.74h-18.84l3.275-18.402h18.902ZM3.275 27.339h18.902L18.84 45.74H0" fill="#FB9B1B" mask="url(#d)"/></g></svg>