<svg width="109" height="19" xmlns="http://www.w3.org/2000/svg"><g fill="none" fill-rule="evenodd"><g fill-rule="nonzero"><path d="M19.067 18.893c.405-.295.667-.763.667-1.29V1.434c0-.527-.262-.994-.667-1.29h15.848c.896 0 1.624.7 1.624 1.563V17.33c0 .863-.728 1.562-1.624 1.562H19.067Z" fill="#636567"/><path d="M19.023 17.326c0 .866-.702 1.567-1.567 1.567H1.78a1.567 1.567 0 0 1-1.568-1.567V1.649C.212.783.914.082 1.78.082h15.676c.865 0 1.567.701 1.567 1.567v15.677" fill="#E2A42E"/><path d="m10.699 9.703-.002-3.378.866-.208v.442s.224-.582.744-.718c.16-.04.24-.016.24-.016v.862s-.196-.009-.453.096c-.32.129-.48.41-.48.838v1.865l-.915.217M6.046 10.813s-.142-.214-.142-.973V8.162l-.45.107v-.691l.45-.108v-.753l.93-.22v.753l.656-.157v.69l-.656.158V9.65c0 .777.205.926.205.926l-.993.237M7.613 8.808c0-.597.085-1.031.266-1.366.215-.396.568-.654 1.083-.772 1.013-.233 1.379.372 1.365 1.183-.005.29-.004.431-.004.431l-1.786.423v.03c0 .567.118.835.474.759.308-.065.393-.26.418-.5.004-.039.005-.137.005-.137l.837-.202s.002.069.001.146c-.007.322-.1 1.121-1.263 1.398-1.102.264-1.396-.415-1.396-1.393M9 7.295c-.296.067-.451.36-.458.845l.899-.216.001-.146c-.001-.366-.114-.559-.442-.483M15.757 6.825c-.034-1.034.23-1.854 1.374-2.115.73-.167 1.006.024 1.146.209.135.176.187.414.187.747l.001.061-.895.215v-.126c0-.395-.109-.545-.393-.473-.338.085-.475.409-.475 1.053l.001.3c0 .654.089.954.479.872.338-.07.384-.37.39-.633l.002-.173.893-.213.001.14c-.002.858-.45 1.4-1.291 1.596-1.157.274-1.384-.4-1.42-1.46M12.609 8.278c0-.783.46-1.03 1.15-1.316.62-.257.632-.384.635-.608.004-.187-.083-.348-.392-.27-.284.072-.36.278-.374.443-.009.088-.006.173-.006.173l-.87.206s-.014-.269.06-.515c.14-.468.552-.783 1.264-.948.926-.213 1.234.193 1.236.826v1.497c0 .724.134.83.134.83l-.854.202s-.08-.165-.115-.307c0 0-.187.471-.832.623-.677.16-1.036-.26-1.036-.836m1.78-1.07s-.178.132-.455.267c-.285.14-.414.311-.414.575 0 .23.142.38.4.316.277-.07.469-.328.469-.686v-.471M1.177 13.157a.544.544 0 0 1-.533-.553c0-.107.03-.21.086-.302l.006-.007.01-.003L2 11.985v.988l-.02.005c-.284.071-.624.152-.695.167a.466.466 0 0 1-.11.012M1.177 14.452a.543.543 0 0 1-.533-.552c0-.108.03-.212.086-.3l.006-.01.01-.002L2 13.28v.99l-.02.005c-.284.07-.624.152-.695.167a.547.547 0 0 1-.11.01M1.177 15.686a.543.543 0 0 1-.533-.553c0-.108.03-.212.086-.3l.006-.01L2 14.514v.988l-.02.005c-.3.075-.634.154-.695.168a.57.57 0 0 1-.11.01M1.014 11.985v-5.38l.987-.232v5.38l-.987.232M3.472 11.542a.61.61 0 0 0-.612-.605.61.61 0 0 0-.612.605v5.033c0 .903.744 1.64 1.657 1.64l1.733-.003.001-2.099v-2.341a.79.79 0 0 0-.355-.66l-1.545-1.038v2.357a.132.132 0 0 1-.264 0l-.003-2.889M4.335 7.766c-.642.148-.885.68-.885.68v-.38l-.894.21v2.434a.915.915 0 0 1 .942.164V9.302c0-.376.19-.677.458-.736.202-.044.371.028.371.386v2.293l.943-.22V8.6c0-.588-.227-.999-.935-.834M17.882 4.338a.587.587 0 0 1 0-1.172.587.587 0 0 1 0 1.172m0-1.099a.513.513 0 1 0 0 1.023.513.513 0 0 0 0-1.023" fill="#1A1919"/><path d="M17.666 3.35h.235c.093 0 .169.048.169.175 0 .088-.039.156-.111.167v.001c.066.007.1.044.104.14 0 .043.001.096.003.138.003.033.018.05.032.058h-.12c-.01-.013-.015-.033-.017-.06-.004-.04-.004-.079-.005-.128-.002-.074-.024-.106-.097-.106h-.086v.294h-.107v-.678Zm.191.303c.068 0 .106-.042.106-.11 0-.073-.03-.11-.1-.11h-.09v.22h.084Z" fill="#1A1919"/><path d="M24.17 9.658c0 .343-.06.646-.183.91a1.393 1.393 0 0 1-.52.61c-.225.143-.48.214-.768.214-.288 0-.542-.069-.765-.206a1.388 1.388 0 0 1-.52-.591 2.085 2.085 0 0 1-.196-.882v-.198c0-.344.06-.648.182-.912.121-.263.295-.466.521-.61.227-.143.484-.215.773-.215.286 0 .541.071.765.213.224.142.398.343.523.605.124.262.187.562.188.9v.162Zm-.827-.148c0-.35-.056-.614-.168-.796a.534.534 0 0 0-.48-.271c-.409 0-.624.318-.647.956l-.003.259c0 .344.055.61.165.794.11.186.273.278.489.278a.527.527 0 0 0 .475-.273c.111-.182.168-.443.17-.785V9.51Zm1.928-.78.026.307a.838.838 0 0 1 .716-.355c.26 0 .456.081.585.244.129.162.196.407.2.734v1.684h-.783v-1.65c0-.132-.025-.23-.076-.291-.051-.062-.144-.093-.278-.093a.369.369 0 0 0-.341.188v1.846h-.781V8.73h.732Zm2.783 2.614h-.783v-3.71h.783v3.71Zm1.305 0h-.783V8.73h.783v2.614Zm-.83-3.288a.37.37 0 0 1 .121-.285.443.443 0 0 1 .313-.111c.128 0 .232.037.313.111.08.074.12.17.12.285a.37.37 0 0 1-.12.285.443.443 0 0 1-.313.111.443.443 0 0 1-.313-.11.37.37 0 0 1-.12-.286Zm2.028.674.026.307a.838.838 0 0 1 .716-.355c.261 0 .456.081.585.244.129.162.196.407.2.734v1.684h-.783v-1.65c0-.132-.025-.23-.076-.291-.051-.062-.144-.093-.278-.093a.369.369 0 0 0-.341.188v1.846h-.781V8.73h.732Zm3.173 2.662c-.385 0-.696-.12-.934-.359-.238-.239-.357-.55-.357-.933v-.068c0-.267.048-.503.143-.708.095-.204.233-.362.416-.474.182-.112.398-.168.648-.168.353 0 .63.114.835.342.204.227.306.545.306.953v.316h-1.553a.594.594 0 0 0 .183.345.53.53 0 0 0 .366.126.69.69 0 0 0 .58-.27l.356.44c-.097.14-.235.25-.413.334a1.35 1.35 0 0 1-.576.124Zm-.088-2.082c-.229 0-.365.158-.408.473h.788V9.72c.003-.13-.029-.231-.095-.303-.067-.071-.162-.107-.285-.107Z" fill="#FFF"/></g><path d="M42.369 7.131a.422.422 0 0 0 .266-.094.302.302 0 0 0 .12-.25c0-.112-.045-.192-.135-.24a.535.535 0 0 0-.251-.074h-.49v.658h.49Zm.46 1.493-.575-1.034h-.376v1.034h-.637V5.951h1.149c.125 0 .247.014.365.042.119.028.227.073.324.135a.695.695 0 0 1 .235.256c.06.108.089.242.089.402 0 .181-.05.331-.152.45a.891.891 0 0 1-.38.26l.71 1.128h-.753ZM39.872 7.32a2.36 2.36 0 0 1 .7-1.676c.216-.212.468-.381.757-.507.289-.125.597-.188.924-.188.327 0 .635.063.924.188.29.126.542.295.757.507a2.36 2.36 0 0 1 .7 1.676c0 .327-.063.633-.188.919a2.376 2.376 0 0 1-2.193 1.43 2.394 2.394 0 0 1-1.681-.684 2.376 2.376 0 0 1-.512-.746 2.26 2.26 0 0 1-.188-.919Zm.376 0c0 .271.052.53.157.773.104.243.247.457.428.642a1.97 1.97 0 0 0 1.42.59 1.967 1.967 0 0 0 1.42-.59c.181-.185.324-.399.428-.642.105-.244.157-.502.157-.773a2.012 2.012 0 0 0-.585-1.42 2.012 2.012 0 0 0-3.268.637 1.967 1.967 0 0 0-.157.783Z" fill="#616161" fill-rule="nonzero"/><path d="M47.654 8.563V5.731h-1.012v-.576h2.709v.576h-1.01v2.832h-.687Zm2.762 0h-.654V6.094h.607v.351c.104-.166.198-.275.28-.328a.515.515 0 0 1 .283-.079.83.83 0 0 1 .43.123l-.202.57a.573.573 0 0 0-.307-.107.363.363 0 0 0-.233.076c-.063.05-.113.141-.15.273-.036.132-.054.408-.054.828v.762Zm1.716-1.716-.593-.107c.067-.238.181-.415.344-.53.163-.114.405-.172.725-.172.292 0 .509.035.651.104a.65.65 0 0 1 .302.262c.058.107.087.302.087.585l-.007.763c0 .217.01.377.031.48.021.103.06.214.118.331h-.647a2.403 2.403 0 0 1-.063-.193 1.174 1.174 0 0 0-.023-.076c-.111.108-.23.19-.358.244a1.026 1.026 0 0 1-.407.081c-.254 0-.454-.069-.6-.207a.688.688 0 0 1-.22-.523c0-.14.033-.264.1-.373a.653.653 0 0 1 .28-.251 2.19 2.19 0 0 1 .52-.153c.305-.057.516-.11.634-.16v-.065c0-.126-.03-.215-.093-.269-.062-.053-.179-.08-.351-.08a.468.468 0 0 0-.272.069.477.477 0 0 0-.158.24Zm.874.53a4.084 4.084 0 0 1-.398.1c-.18.04-.3.077-.355.114a.272.272 0 0 0-.128.23c0 .092.034.171.102.238.068.066.155.1.26.1.118 0 .23-.039.338-.116a.41.41 0 0 0 .155-.217 1.29 1.29 0 0 0 .026-.318v-.13Zm3.55 1.186h-.606v-.362a.98.98 0 0 1-.357.315.916.916 0 0 1-.415.103.94.94 0 0 1-.73-.343c-.201-.228-.303-.547-.303-.957 0-.418.099-.736.296-.954a.963.963 0 0 1 .746-.327c.276 0 .515.115.716.344V5.155h.654v3.408Zm-1.743-1.288c0 .264.036.454.109.572a.494.494 0 0 0 .825.064c.106-.128.159-.319.159-.573 0-.284-.052-.488-.154-.613a.486.486 0 0 0-.393-.187.49.49 0 0 0-.39.185c-.104.123-.156.307-.156.552Zm3.818.502.65.11c-.083.238-.215.42-.396.545-.18.125-.406.187-.678.187-.429 0-.747-.14-.953-.42-.163-.225-.244-.51-.244-.852 0-.409.107-.73.32-.961.215-.232.485-.348.812-.348.368 0 .658.122.87.364.212.243.314.614.305 1.115H57.68c.004.194.057.345.158.452.1.108.226.162.376.162a.4.4 0 0 0 .258-.084.517.517 0 0 0 .159-.27Zm.037-.66c-.005-.189-.054-.333-.147-.431a.45.45 0 0 0-.34-.148.454.454 0 0 0-.353.156.603.603 0 0 0-.137.423h.977Zm1.107.537v-.653h1.283v.653h-1.283Zm1.61-1.56h.603v.337c.216-.262.472-.393.77-.393.158 0 .295.033.411.098a.75.75 0 0 1 .286.295 1.14 1.14 0 0 1 .351-.295.861.861 0 0 1 .403-.098c.181 0 .334.037.46.11.126.074.22.182.281.325.045.105.068.276.068.512v1.578h-.654V7.152c0-.245-.022-.403-.067-.474-.06-.093-.153-.14-.279-.14a.445.445 0 0 0-.258.084.464.464 0 0 0-.175.245c-.035.108-.053.278-.053.51v1.186h-.653V7.21c0-.24-.012-.395-.035-.465a.297.297 0 0 0-.108-.156.342.342 0 0 0-.2-.05.446.446 0 0 0-.445.316c-.034.102-.052.271-.052.509v1.2h-.653v-2.47Zm4.772.753-.593-.107c.067-.238.182-.415.344-.53.163-.114.405-.172.726-.172.291 0 .508.035.65.104a.65.65 0 0 1 .302.262c.058.107.087.302.087.585l-.007.763c0 .217.01.377.032.48.02.103.06.214.117.331h-.646a2.403 2.403 0 0 1-.063-.193 1.175 1.175 0 0 0-.023-.076c-.112.108-.231.19-.359.244a1.026 1.026 0 0 1-.406.081c-.255 0-.455-.069-.602-.207a.688.688 0 0 1-.22-.523c0-.14.034-.264.1-.373a.653.653 0 0 1 .28-.251 2.19 2.19 0 0 1 .52-.153c.306-.057.518-.11.635-.16v-.065c0-.126-.03-.215-.093-.269-.062-.053-.179-.08-.35-.08a.468.468 0 0 0-.273.069.477.477 0 0 0-.158.24Zm.874.53a4.084 4.084 0 0 1-.397.1c-.182.04-.3.077-.356.114a.272.272 0 0 0-.128.23c0 .092.034.171.102.238.069.066.155.1.26.1.119 0 .231-.039.338-.116a.41.41 0 0 0 .156-.217 1.29 1.29 0 0 0 .025-.318v-.13Zm1.912 1.186h-.654V6.094h.607v.351c.104-.166.197-.275.28-.328a.515.515 0 0 1 .283-.079.83.83 0 0 1 .43.123l-.202.57a.573.573 0 0 0-.307-.107.363.363 0 0 0-.233.076c-.063.05-.113.141-.15.273-.036.132-.054.408-.054.828v.762Zm1.204 0V5.155h.653v1.809l.765-.87h.805l-.844.902.904 1.567h-.704l-.621-1.109-.305.319v.79h-.653Zm3.844-1.27c0-.216.053-.426.16-.63.107-.202.258-.357.455-.464.196-.107.415-.16.656-.16.374 0 .68.12.919.363s.358.55.358.92c0 .373-.12.683-.362.929a1.222 1.222 0 0 1-.91.368c-.226 0-.442-.051-.648-.153a1.053 1.053 0 0 1-.468-.45 1.499 1.499 0 0 1-.16-.722Zm.67.036c0 .245.057.432.174.562.116.13.26.196.43.196a.55.55 0 0 0 .429-.196c.115-.13.173-.319.173-.567 0-.242-.058-.428-.173-.558a.55.55 0 0 0-.43-.195.554.554 0 0 0-.43.195c-.116.13-.174.318-.174.563Zm2.103-1.235h.363v-.186c0-.208.022-.363.066-.465a.524.524 0 0 1 .245-.25.937.937 0 0 1 .45-.096c.185 0 .368.027.546.083l-.088.456a1.29 1.29 0 0 0-.3-.037c-.095 0-.163.022-.204.066-.04.044-.061.13-.061.255v.174h.488v.514h-.488v1.955h-.654V6.608h-.363v-.514Zm3.179 2.47v-3.41h.688v3.41h-.688Zm3.585 0h-.653v-1.26c0-.267-.014-.44-.042-.518a.363.363 0 0 0-.363-.248.524.524 0 0 0-.304.093.469.469 0 0 0-.185.247c-.033.102-.05.291-.05.567v1.118h-.653V6.094h.606v.363c.216-.28.487-.419.814-.419a.98.98 0 0 1 .395.078c.12.052.21.118.271.199a.72.72 0 0 1 .128.274c.024.103.036.25.036.44v1.534Zm1.795-2.47v.52h-.446v.996c0 .202.004.319.013.352.008.034.028.061.058.083.03.022.067.032.11.032.06 0 .148-.02.263-.062l.056.507a1.299 1.299 0 0 1-.516.097.819.819 0 0 1-.319-.06.465.465 0 0 1-.208-.153.606.606 0 0 1-.092-.254 3.167 3.167 0 0 1-.02-.46V6.614h-.3v-.52h.3v-.492l.655-.38v.871h.446Zm1.884 1.683.65.11c-.083.238-.215.42-.396.545-.18.125-.406.187-.678.187-.429 0-.747-.14-.953-.42-.163-.225-.244-.51-.244-.852 0-.409.107-.73.32-.961.215-.232.485-.348.812-.348.368 0 .658.122.87.364.212.243.314.614.305 1.115h-1.637c.004.194.057.345.158.452.1.108.226.162.376.162a.4.4 0 0 0 .259-.084.517.517 0 0 0 .158-.27Zm.037-.66c-.005-.189-.054-.333-.147-.431a.45.45 0 0 0-.34-.148.454.454 0 0 0-.353.156.603.603 0 0 0-.137.423h.977Zm1.807 1.446h-.654V6.094h.607v.351c.104-.166.197-.275.28-.328a.515.515 0 0 1 .283-.079.83.83 0 0 1 .43.123l-.202.57a.573.573 0 0 0-.307-.107.363.363 0 0 0-.233.076c-.063.05-.113.141-.15.273-.036.132-.054.408-.054.828v.762Zm1.715-1.716-.592-.107c.066-.238.18-.415.344-.53.162-.114.404-.172.725-.172.292 0 .509.035.651.104a.65.65 0 0 1 .301.262c.058.107.087.302.087.585l-.007.763c0 .217.011.377.032.48.02.103.06.214.117.331h-.646a2.403 2.403 0 0 1-.063-.193 1.175 1.175 0 0 0-.023-.076c-.112.108-.231.19-.358.244a1.026 1.026 0 0 1-.407.081c-.254 0-.455-.069-.601-.207a.688.688 0 0 1-.22-.523c0-.14.033-.264.1-.373a.653.653 0 0 1 .28-.251 2.19 2.19 0 0 1 .52-.153c.305-.057.517-.11.635-.16v-.065c0-.126-.031-.215-.093-.269-.062-.053-.18-.08-.351-.08a.468.468 0 0 0-.272.069.477.477 0 0 0-.159.24Zm.875.53a4.084 4.084 0 0 1-.398.1c-.181.04-.3.077-.356.114a.272.272 0 0 0-.128.23c0 .092.035.171.103.238.068.066.155.1.26.1.118 0 .23-.039.337-.116a.41.41 0 0 0 .156-.217 1.29 1.29 0 0 0 .026-.318v-.13Zm3.439-.553-.644.116a.467.467 0 0 0-.148-.29.446.446 0 0 0-.299-.098.488.488 0 0 0-.39.169c-.096.112-.145.3-.145.564 0 .292.05.5.148.62.098.121.23.182.396.182a.44.44 0 0 0 .305-.106c.08-.07.135-.192.167-.364l.642.11c-.066.294-.194.516-.383.667-.19.15-.443.225-.76.225-.362 0-.65-.114-.865-.342-.214-.227-.322-.543-.322-.946 0-.408.108-.725.324-.952.215-.227.506-.34.874-.34.3 0 .54.064.717.193.178.13.305.327.383.592Zm4.004.486.667.212c-.102.372-.273.648-.51.829-.238.18-.54.27-.906.27-.453 0-.825-.154-1.116-.463-.292-.31-.437-.732-.437-1.269 0-.567.146-1.008.44-1.322.292-.313.677-.47 1.155-.47.417 0 .755.123 1.016.37.155.145.271.354.349.627l-.682.163a.723.723 0 0 0-.252-.419.723.723 0 0 0-.466-.153.776.776 0 0 0-.615.272c-.158.181-.236.475-.236.881 0 .431.077.738.232.92a.755.755 0 0 0 .605.275.69.69 0 0 0 .472-.174c.132-.116.226-.3.284-.549Zm1.102-.016c0-.217.053-.427.16-.63.107-.203.259-.358.455-.465.196-.107.415-.16.657-.16.373 0 .68.12.918.363.239.243.358.55.358.92 0 .373-.12.683-.362.929a1.222 1.222 0 0 1-.91.368c-.226 0-.442-.051-.647-.153a1.053 1.053 0 0 1-.469-.45 1.499 1.499 0 0 1-.16-.722Zm.67.035c0 .245.057.432.174.562.116.13.26.196.43.196a.55.55 0 0 0 .429-.196c.115-.13.173-.319.173-.567 0-.242-.058-.428-.173-.558a.55.55 0 0 0-.43-.195.554.554 0 0 0-.43.195c-.116.13-.174.318-.174.563Zm3.015 1.234h-.653V6.094h.607v.351c.103-.166.197-.275.28-.328a.515.515 0 0 1 .282-.079.83.83 0 0 1 .43.123l-.202.57a.573.573 0 0 0-.307-.107.363.363 0 0 0-.232.076c-.064.05-.114.141-.15.273-.037.132-.055.408-.055.828v.762Zm1.21-2.469h.608v.363a.912.912 0 0 1 .77-.419c.287 0 .53.113.73.337.2.225.3.538.3.94 0 .412-.1.733-.302.961a.942.942 0 0 1-.733.343.832.832 0 0 1-.37-.081 1.25 1.25 0 0 1-.35-.28v1.245h-.654V6.094Zm.645 1.193c0 .277.056.482.166.615.11.132.244.199.402.199.152 0 .278-.061.379-.183.1-.122.15-.321.15-.599 0-.258-.051-.45-.155-.576a.482.482 0 0 0-.386-.189.501.501 0 0 0-.397.185c-.106.124-.159.306-.159.548Zm2.281 1.276V7.91h.654v.653h-.654ZM46.882 10.87h.688v1.846c0 .293.008.483.025.57.03.14.1.251.21.336.112.084.263.127.455.127.196 0 .343-.04.442-.12.1-.08.16-.178.18-.294.02-.117.03-.31.03-.58V10.87h.688v1.79c0 .41-.019.699-.056.868a.96.96 0 0 1-.206.427 1.04 1.04 0 0 1-.401.278c-.167.07-.386.104-.656.104-.325 0-.572-.038-.74-.113a1.059 1.059 0 0 1-.399-.293.94.94 0 0 1-.193-.378c-.045-.195-.067-.483-.067-.865V10.87Zm3.208 2.704.656-.1a.48.48 0 0 0 .17.29.574.574 0 0 0 .358.098c.169 0 .296-.03.381-.093a.208.208 0 0 0 .086-.174c0-.05-.015-.09-.046-.123a.52.52 0 0 0-.219-.086c-.527-.116-.861-.223-1.002-.319a.636.636 0 0 1-.293-.555c0-.214.084-.394.253-.54.17-.146.431-.218.786-.218.338 0 .59.055.754.165.164.11.277.272.34.488l-.617.114a.38.38 0 0 0-.15-.221.548.548 0 0 0-.315-.077c-.172 0-.295.024-.37.072a.155.155 0 0 0-.074.133c0 .046.022.086.065.118.059.044.262.105.61.184.348.08.591.176.73.29.136.117.204.279.204.487 0 .226-.095.42-.284.583-.189.163-.469.244-.84.244-.336 0-.602-.068-.798-.204a.943.943 0 0 1-.385-.556Zm4.309-.081.65.109c-.083.239-.215.42-.396.545-.18.125-.406.187-.677.187-.43 0-.748-.14-.954-.42-.162-.225-.244-.509-.244-.851 0-.41.107-.73.321-.962.214-.232.484-.347.812-.347.367 0 .657.12.87.363.212.243.313.615.304 1.115h-1.637c.004.194.057.345.158.453.1.107.226.161.377.161a.4.4 0 0 0 .258-.084.517.517 0 0 0 .158-.27Zm.037-.66c-.005-.19-.053-.333-.146-.432a.45.45 0 0 0-.34-.148.454.454 0 0 0-.353.156.603.603 0 0 0-.138.423h.977Zm3.446 1.446h-.607v-.363a.98.98 0 0 1-.357.315.916.916 0 0 1-.415.103.94.94 0 0 1-.729-.343c-.202-.228-.303-.547-.303-.956 0-.419.098-.737.295-.955a.963.963 0 0 1 .746-.326c.276 0 .515.114.717.344v-1.228h.653v3.409Zm-1.744-1.288c0 .263.036.454.11.572a.494.494 0 0 0 .825.063c.105-.127.158-.318.158-.573 0-.283-.051-.488-.154-.612a.486.486 0 0 0-.393-.188.49.49 0 0 0-.389.185c-.105.124-.157.308-.157.553Zm5.336 1.288v-.37a.994.994 0 0 1-1.265.316.645.645 0 0 1-.286-.307c-.059-.132-.088-.314-.088-.546v-1.563h.653v1.135c0 .347.012.56.036.638.024.079.068.14.132.186a.404.404 0 0 0 .242.069.514.514 0 0 0 .48-.32c.033-.09.05-.313.05-.666v-1.042h.653v2.47h-.607Zm3.53 0h-.654v-1.26c0-.267-.013-.44-.041-.518a.363.363 0 0 0-.363-.248.524.524 0 0 0-.305.093.469.469 0 0 0-.185.247c-.033.102-.05.291-.05.567v1.119h-.653v-2.47h.607v.363c.215-.279.487-.418.814-.418a.98.98 0 0 1 .395.077c.12.052.21.119.27.2a.72.72 0 0 1 .129.274c.024.102.036.248.036.439v1.535Zm2.927 0h-.607v-.363a.98.98 0 0 1-.357.315.916.916 0 0 1-.415.103.94.94 0 0 1-.729-.343c-.202-.228-.303-.547-.303-.956 0-.419.098-.737.295-.955a.963.963 0 0 1 .747-.326c.276 0 .514.114.716.344v-1.228h.653v3.409Zm-1.744-1.288c0 .263.037.454.11.572a.494.494 0 0 0 .825.063c.105-.127.158-.318.158-.573 0-.283-.051-.488-.153-.612a.486.486 0 0 0-.393-.188.49.49 0 0 0-.39.185c-.104.124-.157.308-.157.553Zm3.818.502.651.109c-.083.239-.216.42-.396.545-.18.125-.407.187-.678.187-.43 0-.747-.14-.953-.42-.163-.225-.244-.509-.244-.851 0-.41.107-.73.32-.962.214-.232.485-.347.812-.347.367 0 .657.12.87.363.212.243.313.615.304 1.115h-1.637c.005.194.058.345.158.453.101.107.227.161.377.161a.4.4 0 0 0 .258-.084.517.517 0 0 0 .158-.27Zm.037-.66c-.004-.19-.053-.333-.146-.432a.45.45 0 0 0-.34-.148.454.454 0 0 0-.353.156.603.603 0 0 0-.137.423h.976Zm1.807 1.446h-.653v-2.47h.607v.351c.103-.165.197-.275.28-.327a.515.515 0 0 1 .282-.08.83.83 0 0 1 .43.124l-.202.57a.573.573 0 0 0-.307-.108.363.363 0 0 0-.232.076c-.064.05-.114.141-.15.273-.037.132-.055.408-.055.828v.763Zm2.55 0v-3.409h.654v3.409H74.4Zm1.324-2.804v-.605h.653v.605h-.653Zm0 2.804v-2.47h.653v2.47h-.653Zm3.476-1.74-.644.117a.467.467 0 0 0-.148-.291.446.446 0 0 0-.299-.098.488.488 0 0 0-.39.169c-.096.112-.144.3-.144.564 0 .293.049.5.147.62.099.122.23.182.397.182a.44.44 0 0 0 .304-.106c.08-.07.135-.192.168-.364l.641.11c-.066.294-.194.517-.383.667-.19.15-.443.225-.76.225-.362 0-.65-.113-.864-.341-.215-.228-.322-.544-.322-.947 0-.407.107-.725.323-.952.215-.227.507-.34.874-.34.3 0 .54.064.717.194.178.13.305.326.383.591Zm1.925.954.651.109c-.084.239-.216.42-.396.545-.18.125-.407.187-.678.187-.43 0-.747-.14-.953-.42-.163-.225-.245-.509-.245-.851 0-.41.107-.73.321-.962.214-.232.485-.347.812-.347.367 0 .657.12.87.363.212.243.313.615.304 1.115h-1.637c.005.194.057.345.158.453.101.107.227.161.377.161a.4.4 0 0 0 .258-.084.517.517 0 0 0 .158-.27Zm.037-.66c-.004-.19-.053-.333-.146-.432a.45.45 0 0 0-.34-.148.454.454 0 0 0-.353.156.603.603 0 0 0-.137.423h.976Zm3.428 1.446h-.654v-1.26c0-.267-.014-.44-.042-.518a.363.363 0 0 0-.362-.248.524.524 0 0 0-.305.093.469.469 0 0 0-.185.247c-.033.102-.05.291-.05.567v1.119h-.653v-2.47h.607v.363c.215-.279.486-.418.813-.418a.98.98 0 0 1 .396.077c.12.052.21.119.27.2a.72.72 0 0 1 .129.274c.024.102.036.248.036.439v1.535Zm.432-.705.656-.1a.48.48 0 0 0 .17.29.574.574 0 0 0 .358.098c.168 0 .296-.03.38-.093a.208.208 0 0 0 .087-.174c0-.05-.016-.09-.047-.123a.52.52 0 0 0-.218-.086c-.527-.116-.861-.223-1.002-.319a.636.636 0 0 1-.293-.555c0-.214.084-.394.253-.54.17-.146.431-.218.786-.218.338 0 .59.055.753.165.165.11.278.272.34.488l-.616.114a.38.38 0 0 0-.15-.221.548.548 0 0 0-.315-.077c-.172 0-.296.024-.37.072a.155.155 0 0 0-.074.133c0 .046.021.086.065.118.059.044.262.105.61.184.348.08.591.176.729.29.136.117.205.279.205.487 0 .226-.095.42-.284.583-.19.163-.469.244-.84.244-.336 0-.602-.068-.798-.204a.943.943 0 0 1-.385-.556Zm4.309-.081.65.109c-.083.239-.215.42-.396.545-.18.125-.406.187-.678.187-.429 0-.747-.14-.953-.42-.163-.225-.244-.509-.244-.851 0-.41.107-.73.32-.962.215-.232.485-.347.812-.347.368 0 .657.12.87.363.212.243.314.615.304 1.115H88.38c.004.194.057.345.158.453.1.107.226.161.376.161a.4.4 0 0 0 .258-.084.517.517 0 0 0 .159-.27Zm.037-.66c-.005-.19-.054-.333-.147-.432a.45.45 0 0 0-.34-.148.454.454 0 0 0-.353.156.603.603 0 0 0-.137.423h.977Z" fill="#636567"/></g></svg>