<svg width="80" height="80" fill="none" xmlns="http://www.w3.org/2000/svg"><path d="M15.34 6.655a7.035 7.035 0 0 1 4.8 1.803 6.325 6.325 0 0 1 2.032 5.079 6.297 6.297 0 0 1-2.033 5.079 7.035 7.035 0 0 1-4.8 1.829 7.01 7.01 0 0 1-4.799-1.83 6.273 6.273 0 0 1-2.033-5.078 6.273 6.273 0 0 1 2.033-5.08 7.01 7.01 0 0 1 4.8-1.802Zm0-6.655a13.537 13.537 0 0 0-9.093 3.607 12.698 12.698 0 0 0-4.242 9.803 12.698 12.698 0 0 0 4.218 9.83 13.586 13.586 0 0 0 9.117 3.452 13.537 13.537 0 0 0 9.117-3.454 12.697 12.697 0 0 0 4.216-9.803 12.7 12.7 0 0 0-4.19-9.803A13.561 13.561 0 0 0 15.34 0Zm3.835 33.016V79.24h-8.102V32.712c1.302.386 2.655.582 4.013.584a13.89 13.89 0 0 0 4.038-.61l.051.33Z" fill="#FCAF1C"/><path d="M69.868 21.206c-.635-7.974-3.886-14.018-11.987-14.018a9.98 9.98 0 0 0-10.642 9.27v.888c0 17.576 31.264 17.779 31.264 42.82C78.503 72.56 71.391 80 58.541 80c-12.192 0-19.53-8.964-19.735-21.993h7.772c.204 9.168 4.521 14.882 12.826 14.882 7.01 0 11.53-4.52 11.53-12.824 0-17.779-31.264-19.734-31.264-41.957C39.67 7.11 47.29 0 58.44 0c11.149 0 18.539 7.619 19.2 21.13l-7.772.076Z" fill="#898989"/></svg>