<svg xmlns="http://www.w3.org/2000/svg" xmlns:xlink="http://www.w3.org/1999/xlink" width="80" zoomAndPan="magnify" viewBox="0 0 60 60" height="80" preserveAspectRatio="xMidYMid meet" version="1.0"><defs><clipPath id="id1"><path d="M 1.828125 7.710938 L 58 7.710938 L 58 51.960938 L 1.828125 51.960938 Z M 1.828125 7.710938 " clip-rule="nonzero"/></clipPath><clipPath id="id2"><path d="M 30 8 L 58 8 L 58 51.960938 L 30 51.960938 Z M 30 8 " clip-rule="nonzero"/></clipPath></defs><g clip-path="url(#id1)"><path fill="#e82c3a" d="M 57.527344 36.976562 L 49.699219 38.136719 L 57.757812 42.898438 L 47.59375 39.648438 L 49.464844 47.199219 L 43.390625 39.878906 L 42.105469 48.242188 L 38.132812 40.808594 L 35.910156 51.84375 L 33.925781 42.898438 L 33.574219 47.777344 L 31.121094 42.550781 L 29.019531 48.941406 L 27.734375 41.972656 L 26.097656 50.21875 L 24.34375 41.855469 L 20.605469 49.636719 L 21.308594 40.230469 L 16.402344 47.199219 L 16.402344 39.300781 L 12.195312 46.152344 L 13.246094 37.210938 L 6.351562 40.808594 L 12.664062 33.839844 L 1.914062 35.234375 L 11.144531 30.125 L 1.914062 25.015625 L 12.664062 26.40625 L 6.351562 19.441406 L 13.246094 23.039062 L 12.195312 14.097656 L 16.402344 20.949219 L 16.402344 13.050781 L 21.308594 20.019531 L 19.089844 9.101562 L 24.34375 18.394531 L 26.914062 7.710938 L 27.734375 18.277344 L 29.019531 11.308594 L 31.121094 17.699219 L 33.339844 8.40625 L 33.925781 17.347656 L 37.429688 10.148438 L 38.132812 19.441406 L 42.105469 12.007812 L 43.390625 20.367188 L 49.464844 13.050781 L 47.59375 20.601562 L 57.757812 17.347656 L 49.113281 25.128906 L 57.992188 26.40625 L 47.710938 28.847656 L 57.058594 33.609375 L 47.363281 34.539062 Z M 57.527344 36.976562 " fill-opacity="1" fill-rule="nonzero"/></g><path fill="#c40807" d="M 53.554688 23.273438 C 53.4375 22.460938 52.734375 21.761719 51.917969 21.644531 L 38.367188 19.554688 C 33.226562 18.742188 27.851562 18.742188 22.710938 19.554688 L 9.273438 21.644531 C 8.457031 21.761719 7.753906 22.460938 7.636719 23.273438 C 7.289062 25.59375 7.054688 27.917969 7.054688 30.242188 C 7.054688 32.5625 7.289062 34.886719 7.636719 37.210938 C 7.753906 38.023438 8.457031 38.71875 9.273438 38.835938 L 22.828125 40.925781 C 27.96875 41.738281 33.339844 41.738281 38.480469 40.925781 L 52.035156 38.835938 C 52.851562 38.71875 53.554688 38.023438 53.671875 37.210938 C 54.019531 34.886719 54.253906 32.5625 54.253906 30.242188 C 54.136719 27.917969 54.019531 25.59375 53.554688 23.273438 Z M 53.554688 23.273438 " fill-opacity="1" fill-rule="nonzero"/><path fill="#fec111" d="M 30.65625 38.371094 C 28.199219 38.371094 25.746094 38.136719 23.410156 37.789062 L 10.558594 35.933594 C 10.207031 34.074219 10.09375 32.097656 10.09375 30.242188 C 10.09375 28.265625 10.207031 26.40625 10.558594 24.433594 L 23.410156 22.574219 C 25.863281 22.226562 28.316406 21.996094 30.65625 21.996094 C 33.109375 21.996094 35.5625 22.226562 37.898438 22.574219 L 50.75 24.433594 C 51.101562 26.292969 51.21875 28.265625 51.21875 30.242188 C 51.21875 32.214844 51.101562 34.074219 50.75 36.046875 L 37.898438 37.90625 C 35.5625 38.253906 33.109375 38.371094 30.65625 38.371094 Z M 30.65625 38.371094 " fill-opacity="1" fill-rule="nonzero"/><path fill="#e82c3a" d="M 18.152344 26.523438 C 17.453125 26.640625 17.335938 26.640625 17.335938 27.453125 C 17.21875 30.9375 17.6875 32.449219 16.285156 33.492188 C 15.933594 33.839844 15.464844 33.957031 15.117188 34.074219 L 15 33.726562 C 15.582031 33.492188 15.816406 33.144531 15.933594 32.5625 C 16.050781 31.984375 16.050781 31.402344 16.050781 30.707031 L 16.050781 27.453125 C 16.050781 26.640625 15.933594 26.523438 15.234375 26.523438 L 15.234375 26.175781 L 18.269531 26.175781 L 18.269531 26.523438 Z M 18.152344 26.523438 " fill-opacity="1" fill-rule="nonzero"/><path fill="#e82c3a" d="M 21.773438 32.5625 C 21.308594 32.5625 21.074219 32.332031 20.957031 31.984375 C 20.605469 32.214844 20.140625 32.5625 19.90625 32.5625 C 19.089844 32.5625 18.621094 31.867188 18.621094 31.285156 C 18.621094 30.125 20.257812 30.242188 20.957031 29.660156 C 20.957031 29.429688 21.191406 28.382812 20.375 28.382812 C 19.90625 28.382812 19.90625 28.847656 19.789062 29.195312 C 19.554688 30.007812 18.152344 29.195312 19.089844 28.613281 C 19.554688 28.265625 20.140625 28.035156 20.605469 27.917969 C 20.957031 27.917969 21.308594 28.035156 21.660156 28.148438 C 22.945312 28.964844 21.425781 32.097656 22.828125 31.519531 L 22.945312 31.867188 Z M 20.839844 30.125 C 20.257812 30.472656 19.789062 30.589844 19.789062 31.054688 C 19.789062 31.75 20.488281 31.984375 20.839844 31.632812 C 20.839844 31.171875 20.839844 30.589844 20.839844 30.125 Z M 20.839844 30.125 " fill-opacity="1" fill-rule="nonzero"/><path fill="#e82c3a" d="M 27.03125 31.519531 C 25.628906 33.609375 23.175781 32.332031 23.175781 30.472656 C 23.175781 29.078125 24.695312 28.035156 25.863281 28.035156 C 27.617188 28.035156 26.683594 29.542969 26.214844 29.078125 C 25.046875 28.035156 24.34375 28.730469 24.34375 30.007812 C 24.34375 31.285156 25.28125 31.75 25.746094 31.75 C 26.097656 31.75 26.449219 31.632812 26.800781 31.285156 Z M 27.03125 31.519531 " fill-opacity="1" fill-rule="nonzero"/><path fill="#e82c3a" d="M 32.523438 32.449219 C 31.707031 32.449219 31.003906 32.449219 30.769531 32.449219 C 30.769531 32.449219 29.484375 30.589844 29.484375 30.472656 C 29.371094 30.355469 29.371094 30.355469 29.253906 30.355469 C 29.253906 30.355469 29.136719 30.355469 29.136719 30.355469 C 29.136719 31.984375 28.902344 31.984375 29.71875 32.097656 L 29.71875 32.449219 L 27.265625 32.449219 L 27.265625 32.097656 C 28.085938 31.984375 27.734375 32.332031 27.851562 26.871094 C 27.851562 26.292969 27.851562 26.292969 27.265625 26.175781 L 27.265625 25.828125 C 27.851562 25.828125 28.550781 25.710938 29.136719 25.480469 C 29.136719 26.523438 29.136719 28.847656 29.136719 29.890625 C 29.371094 29.777344 29.484375 29.660156 29.71875 29.542969 C 29.953125 29.3125 30.304688 28.847656 30.421875 28.730469 C 30.539062 28.5 30.421875 28.382812 30.070312 28.382812 L 30.070312 28.035156 L 32.171875 27.917969 L 32.171875 28.265625 C 31.238281 28.382812 31.121094 28.613281 30.304688 29.542969 C 30.539062 29.890625 31.472656 31.171875 31.707031 31.519531 C 32.054688 31.867188 32.171875 31.984375 32.523438 31.984375 Z M 32.523438 32.449219 " fill-opacity="1" fill-rule="nonzero"/><path fill="#e82c3a" d="M 32.640625 28.382812 C 33.109375 28.265625 33.808594 28.148438 34.394531 27.917969 C 34.394531 28.148438 34.394531 28.382812 34.394531 28.613281 C 34.859375 28.382812 35.210938 28.035156 35.679688 28.035156 C 36.730469 28.035156 37.429688 28.964844 37.429688 30.007812 C 37.429688 31.867188 35.328125 32.910156 34.394531 32.5625 C 34.394531 34.304688 34.160156 34.304688 35.09375 34.421875 L 35.09375 34.769531 L 32.40625 34.769531 L 32.40625 34.421875 C 32.992188 34.304688 32.992188 34.304688 32.992188 33.726562 C 32.875 28.5 33.226562 28.847656 32.40625 28.730469 L 32.40625 28.382812 Z M 34.394531 31.75 C 36.496094 33.839844 36.730469 27.335938 34.394531 28.964844 Z M 34.394531 31.75 " fill-opacity="1" fill-rule="nonzero"/><path fill="#e82c3a" d="M 40.585938 28.035156 C 41.988281 28.035156 42.804688 29.078125 42.804688 30.242188 C 42.804688 31.867188 41.636719 32.5625 40.46875 32.5625 C 37.429688 32.5625 37.429688 28.035156 40.585938 28.035156 Z M 40.46875 28.382812 C 40 28.382812 39.652344 28.847656 39.652344 30.007812 C 39.652344 31.171875 40 32.097656 40.703125 32.097656 C 41.050781 32.097656 41.519531 31.867188 41.519531 30.472656 C 41.402344 29.195312 41.050781 28.382812 40.46875 28.382812 Z M 40.46875 28.382812 " fill-opacity="1" fill-rule="nonzero"/><path fill="#e82c3a" d="M 45.609375 32.449219 C 45.492188 32.5625 45.257812 32.5625 45.257812 32.5625 C 44.558594 32.5625 44.089844 32.214844 44.089844 31.285156 L 44.089844 28.613281 L 43.507812 28.613281 L 43.390625 28.5 L 43.621094 28.148438 L 43.972656 28.148438 L 43.972656 27.335938 C 44.324219 27.105469 44.792969 26.757812 45.140625 26.523438 L 45.257812 26.640625 C 45.257812 26.871094 45.257812 27.453125 45.257812 28.148438 L 46.191406 28.148438 C 46.308594 28.265625 46.191406 28.5 46.078125 28.613281 L 45.140625 28.613281 L 45.140625 31.054688 C 45.140625 31.867188 45.492188 31.867188 45.609375 31.867188 C 45.726562 31.867188 45.960938 31.867188 46.078125 31.75 L 46.308594 32.097656 Z M 45.609375 32.449219 " fill-opacity="1" fill-rule="nonzero"/><path fill="#ffffff" d="M 52.503906 23.386719 C 52.503906 23.613281 52.421875 23.804688 52.261719 23.964844 C 52.101562 24.121094 51.910156 24.203125 51.683594 24.203125 C 51.457031 24.203125 51.265625 24.121094 51.105469 23.964844 C 50.945312 23.804688 50.867188 23.613281 50.867188 23.386719 C 50.867188 23.164062 50.945312 22.972656 51.105469 22.8125 C 51.265625 22.65625 51.457031 22.574219 51.683594 22.574219 C 51.910156 22.574219 52.101562 22.65625 52.261719 22.8125 C 52.421875 22.972656 52.503906 23.164062 52.503906 23.386719 Z M 52.503906 23.386719 " fill-opacity="1" fill-rule="nonzero"/><path fill="#ffffff" d="M 53.203125 26.988281 C 53.203125 27.214844 53.125 27.40625 52.964844 27.5625 C 52.804688 27.722656 52.609375 27.800781 52.386719 27.800781 C 52.160156 27.800781 51.964844 27.722656 51.808594 27.5625 C 51.648438 27.40625 51.566406 27.214844 51.566406 26.988281 C 51.566406 26.765625 51.648438 26.574219 51.808594 26.414062 C 51.964844 26.253906 52.160156 26.175781 52.386719 26.175781 C 52.609375 26.175781 52.804688 26.253906 52.964844 26.414062 C 53.125 26.574219 53.203125 26.765625 53.203125 26.988281 Z M 53.203125 26.988281 " fill-opacity="1" fill-rule="nonzero"/><path fill="#ffffff" d="M 53.554688 30.242188 C 53.554688 30.464844 53.472656 30.65625 53.3125 30.816406 C 53.15625 30.972656 52.960938 31.054688 52.734375 31.054688 C 52.511719 31.054688 52.316406 30.972656 52.15625 30.816406 C 51.996094 30.65625 51.917969 30.464844 51.917969 30.242188 C 51.917969 30.015625 51.996094 29.824219 52.15625 29.664062 C 52.316406 29.507812 52.511719 29.429688 52.734375 29.429688 C 52.960938 29.429688 53.15625 29.507812 53.3125 29.664062 C 53.472656 29.824219 53.554688 30.015625 53.554688 30.242188 Z M 53.554688 30.242188 " fill-opacity="1" fill-rule="nonzero"/><path fill="#ffffff" d="M 52.503906 36.976562 C 52.503906 37.203125 52.421875 37.394531 52.261719 37.550781 C 52.101562 37.710938 51.910156 37.789062 51.683594 37.789062 C 51.457031 37.789062 51.265625 37.710938 51.105469 37.550781 C 50.945312 37.394531 50.867188 37.203125 50.867188 36.976562 C 50.867188 36.753906 50.945312 36.5625 51.105469 36.402344 C 51.265625 36.242188 51.457031 36.164062 51.683594 36.164062 C 51.910156 36.164062 52.101562 36.242188 52.261719 36.402344 C 52.421875 36.5625 52.503906 36.753906 52.503906 36.976562 Z M 52.503906 36.976562 " fill-opacity="1" fill-rule="nonzero"/><path fill="#ffffff" d="M 53.203125 33.492188 C 53.203125 33.71875 53.125 33.910156 52.964844 34.066406 C 52.804688 34.226562 52.609375 34.304688 52.386719 34.304688 C 52.160156 34.304688 51.964844 34.226562 51.808594 34.066406 C 51.648438 33.910156 51.566406 33.71875 51.566406 33.492188 C 51.566406 33.269531 51.648438 33.078125 51.808594 32.917969 C 51.964844 32.757812 52.160156 32.679688 52.386719 32.679688 C 52.609375 32.679688 52.804688 32.757812 52.964844 32.917969 C 53.125 33.078125 53.203125 33.269531 53.203125 33.492188 Z M 53.203125 33.492188 " fill-opacity="1" fill-rule="nonzero"/><path fill="#ffffff" d="M 48.996094 22.691406 C 48.996094 22.917969 48.917969 23.109375 48.757812 23.265625 C 48.597656 23.425781 48.40625 23.503906 48.179688 23.503906 C 47.953125 23.503906 47.761719 23.425781 47.601562 23.265625 C 47.441406 23.109375 47.363281 22.917969 47.363281 22.691406 C 47.363281 22.46875 47.441406 22.277344 47.601562 22.117188 C 47.761719 21.957031 47.953125 21.878906 48.179688 21.878906 C 48.40625 21.878906 48.597656 21.957031 48.757812 22.117188 C 48.917969 22.277344 48.996094 22.46875 48.996094 22.691406 Z M 48.996094 22.691406 " fill-opacity="1" fill-rule="nonzero"/><path fill="#ffffff" d="M 45.023438 22.109375 C 45.023438 22.335938 44.945312 22.527344 44.785156 22.6875 C 44.625 22.84375 44.433594 22.925781 44.207031 22.925781 C 43.980469 22.925781 43.789062 22.84375 43.628906 22.6875 C 43.46875 22.527344 43.390625 22.335938 43.390625 22.109375 C 43.390625 21.886719 43.46875 21.695312 43.628906 21.535156 C 43.789062 21.378906 43.980469 21.296875 44.207031 21.296875 C 44.433594 21.296875 44.625 21.378906 44.785156 21.535156 C 44.945312 21.695312 45.023438 21.886719 45.023438 22.109375 Z M 45.023438 22.109375 " fill-opacity="1" fill-rule="nonzero"/><path fill="#ffffff" d="M 40.46875 21.183594 C 40.46875 21.40625 40.386719 21.597656 40.230469 21.757812 C 40.070312 21.914062 39.875 21.996094 39.652344 21.996094 C 39.425781 21.996094 39.230469 21.914062 39.074219 21.757812 C 38.914062 21.597656 38.832031 21.40625 38.832031 21.183594 C 38.832031 20.957031 38.914062 20.765625 39.074219 20.605469 C 39.230469 20.449219 39.425781 20.367188 39.652344 20.367188 C 39.875 20.367188 40.070312 20.449219 40.230469 20.605469 C 40.386719 20.765625 40.46875 20.957031 40.46875 21.183594 Z M 40.46875 21.183594 " fill-opacity="1" fill-rule="nonzero"/><path fill="#ffffff" d="M 35.910156 20.601562 C 35.910156 20.824219 35.832031 21.015625 35.671875 21.175781 C 35.511719 21.335938 35.320312 21.414062 35.09375 21.414062 C 34.867188 21.414062 34.675781 21.335938 34.515625 21.175781 C 34.355469 21.015625 34.277344 20.824219 34.277344 20.601562 C 34.277344 20.375 34.355469 20.183594 34.515625 20.027344 C 34.675781 19.867188 34.867188 19.789062 35.09375 19.789062 C 35.320312 19.789062 35.511719 19.867188 35.671875 20.027344 C 35.832031 20.183594 35.910156 20.375 35.910156 20.601562 Z M 35.910156 20.601562 " fill-opacity="1" fill-rule="nonzero"/><path fill="#ffffff" d="M 31.472656 20.367188 C 31.472656 20.59375 31.390625 20.785156 31.234375 20.945312 C 31.074219 21.101562 30.878906 21.183594 30.65625 21.183594 C 30.429688 21.183594 30.234375 21.101562 30.078125 20.945312 C 29.917969 20.785156 29.835938 20.59375 29.835938 20.367188 C 29.835938 20.144531 29.917969 19.953125 30.078125 19.792969 C 30.234375 19.636719 30.429688 19.554688 30.65625 19.554688 C 30.878906 19.554688 31.074219 19.636719 31.234375 19.792969 C 31.390625 19.953125 31.472656 20.144531 31.472656 20.367188 Z M 31.472656 20.367188 " fill-opacity="1" fill-rule="nonzero"/><path fill="#ffffff" d="M 10.324219 23.386719 C 10.324219 23.613281 10.246094 23.804688 10.085938 23.964844 C 9.925781 24.121094 9.734375 24.203125 9.507812 24.203125 C 9.28125 24.203125 9.089844 24.121094 8.929688 23.964844 C 8.769531 23.804688 8.691406 23.613281 8.691406 23.386719 C 8.691406 23.164062 8.769531 22.972656 8.929688 22.8125 C 9.089844 22.65625 9.28125 22.574219 9.507812 22.574219 C 9.734375 22.574219 9.925781 22.65625 10.085938 22.8125 C 10.246094 22.972656 10.324219 23.164062 10.324219 23.386719 Z M 10.324219 23.386719 " fill-opacity="1" fill-rule="nonzero"/><path fill="#ffffff" d="M 9.625 26.988281 C 9.625 27.214844 9.542969 27.40625 9.386719 27.5625 C 9.226562 27.722656 9.03125 27.800781 8.808594 27.800781 C 8.582031 27.800781 8.386719 27.722656 8.230469 27.5625 C 8.070312 27.40625 7.988281 27.214844 7.988281 26.988281 C 7.988281 26.765625 8.070312 26.574219 8.230469 26.414062 C 8.386719 26.253906 8.582031 26.175781 8.808594 26.175781 C 9.03125 26.175781 9.226562 26.253906 9.386719 26.414062 C 9.542969 26.574219 9.625 26.765625 9.625 26.988281 Z M 9.625 26.988281 " fill-opacity="1" fill-rule="nonzero"/><path fill="#ffffff" d="M 9.273438 30.242188 C 9.273438 30.464844 9.195312 30.65625 9.035156 30.816406 C 8.875 30.972656 8.683594 31.054688 8.457031 31.054688 C 8.230469 31.054688 8.039062 30.972656 7.878906 30.816406 C 7.71875 30.65625 7.636719 30.464844 7.636719 30.242188 C 7.636719 30.015625 7.71875 29.824219 7.878906 29.664062 C 8.039062 29.507812 8.230469 29.429688 8.457031 29.429688 C 8.683594 29.429688 8.875 29.507812 9.035156 29.664062 C 9.195312 29.824219 9.273438 30.015625 9.273438 30.242188 Z M 9.273438 30.242188 " fill-opacity="1" fill-rule="nonzero"/><path fill="#ffffff" d="M 10.324219 36.976562 C 10.324219 37.203125 10.246094 37.394531 10.085938 37.550781 C 9.925781 37.710938 9.734375 37.789062 9.507812 37.789062 C 9.28125 37.789062 9.089844 37.710938 8.929688 37.550781 C 8.769531 37.394531 8.691406 37.203125 8.691406 36.976562 C 8.691406 36.753906 8.769531 36.5625 8.929688 36.402344 C 9.089844 36.242188 9.28125 36.164062 9.507812 36.164062 C 9.734375 36.164062 9.925781 36.242188 10.085938 36.402344 C 10.246094 36.5625 10.324219 36.753906 10.324219 36.976562 Z M 10.324219 36.976562 " fill-opacity="1" fill-rule="nonzero"/><path fill="#ffffff" d="M 9.625 33.492188 C 9.625 33.71875 9.542969 33.910156 9.386719 34.066406 C 9.226562 34.226562 9.03125 34.304688 8.808594 34.304688 C 8.582031 34.304688 8.386719 34.226562 8.230469 34.066406 C 8.070312 33.910156 7.988281 33.71875 7.988281 33.492188 C 7.988281 33.269531 8.070312 33.078125 8.230469 32.917969 C 8.386719 32.757812 8.582031 32.679688 8.808594 32.679688 C 9.03125 32.679688 9.226562 32.757812 9.386719 32.917969 C 9.542969 33.078125 9.625 33.269531 9.625 33.492188 Z M 9.625 33.492188 " fill-opacity="1" fill-rule="nonzero"/><path fill="#ffffff" d="M 13.832031 22.691406 C 13.832031 22.917969 13.75 23.109375 13.589844 23.265625 C 13.429688 23.425781 13.238281 23.503906 13.011719 23.503906 C 12.785156 23.503906 12.59375 23.425781 12.433594 23.265625 C 12.273438 23.109375 12.195312 22.917969 12.195312 22.691406 C 12.195312 22.46875 12.273438 22.277344 12.433594 22.117188 C 12.59375 21.957031 12.785156 21.878906 13.011719 21.878906 C 13.238281 21.878906 13.429688 21.957031 13.589844 22.117188 C 13.75 22.277344 13.832031 22.46875 13.832031 22.691406 Z M 13.832031 22.691406 " fill-opacity="1" fill-rule="nonzero"/><path fill="#ffffff" d="M 17.917969 22.109375 C 17.917969 22.335938 17.839844 22.527344 17.679688 22.6875 C 17.519531 22.84375 17.328125 22.925781 17.101562 22.925781 C 16.875 22.925781 16.683594 22.84375 16.523438 22.6875 C 16.363281 22.527344 16.285156 22.335938 16.285156 22.109375 C 16.285156 21.886719 16.363281 21.695312 16.523438 21.535156 C 16.683594 21.378906 16.875 21.296875 17.101562 21.296875 C 17.328125 21.296875 17.519531 21.378906 17.679688 21.535156 C 17.839844 21.695312 17.917969 21.886719 17.917969 22.109375 Z M 17.917969 22.109375 " fill-opacity="1" fill-rule="nonzero"/><path fill="#ffffff" d="M 22.359375 21.183594 C 22.359375 21.40625 22.28125 21.597656 22.121094 21.757812 C 21.960938 21.914062 21.765625 21.996094 21.542969 21.996094 C 21.316406 21.996094 21.121094 21.914062 20.964844 21.757812 C 20.804688 21.597656 20.722656 21.40625 20.722656 21.183594 C 20.722656 20.957031 20.804688 20.765625 20.964844 20.605469 C 21.121094 20.449219 21.316406 20.367188 21.542969 20.367188 C 21.765625 20.367188 21.960938 20.449219 22.121094 20.605469 C 22.28125 20.765625 22.359375 20.957031 22.359375 21.183594 Z M 22.359375 21.183594 " fill-opacity="1" fill-rule="nonzero"/><path fill="#ffffff" d="M 26.914062 20.601562 C 26.914062 20.824219 26.835938 21.015625 26.675781 21.175781 C 26.515625 21.335938 26.324219 21.414062 26.097656 21.414062 C 25.871094 21.414062 25.679688 21.335938 25.519531 21.175781 C 25.359375 21.015625 25.28125 20.824219 25.28125 20.601562 C 25.28125 20.375 25.359375 20.183594 25.519531 20.027344 C 25.679688 19.867188 25.871094 19.789062 26.097656 19.789062 C 26.324219 19.789062 26.515625 19.867188 26.675781 20.027344 C 26.835938 20.183594 26.914062 20.375 26.914062 20.601562 Z M 26.914062 20.601562 " fill-opacity="1" fill-rule="nonzero"/><path fill="#ffffff" d="M 13.832031 37.789062 C 13.832031 38.015625 13.75 38.207031 13.589844 38.363281 C 13.429688 38.523438 13.238281 38.601562 13.011719 38.601562 C 12.785156 38.601562 12.59375 38.523438 12.433594 38.363281 C 12.273438 38.207031 12.195312 38.015625 12.195312 37.789062 C 12.195312 37.566406 12.273438 37.375 12.433594 37.214844 C 12.59375 37.054688 12.785156 36.976562 13.011719 36.976562 C 13.238281 36.976562 13.429688 37.054688 13.589844 37.214844 C 13.75 37.375 13.832031 37.566406 13.832031 37.789062 Z M 13.832031 37.789062 " fill-opacity="1" fill-rule="nonzero"/><path fill="#ffffff" d="M 17.917969 38.371094 C 17.917969 38.59375 17.839844 38.785156 17.679688 38.945312 C 17.519531 39.105469 17.328125 39.183594 17.101562 39.183594 C 16.875 39.183594 16.683594 39.105469 16.523438 38.945312 C 16.363281 38.785156 16.285156 38.59375 16.285156 38.371094 C 16.285156 38.144531 16.363281 37.953125 16.523438 37.796875 C 16.683594 37.636719 16.875 37.558594 17.101562 37.558594 C 17.328125 37.558594 17.519531 37.636719 17.679688 37.796875 C 17.839844 37.953125 17.917969 38.144531 17.917969 38.371094 Z M 17.917969 38.371094 " fill-opacity="1" fill-rule="nonzero"/><path fill="#ffffff" d="M 22.359375 39.183594 C 22.359375 39.410156 22.28125 39.601562 22.121094 39.757812 C 21.960938 39.917969 21.765625 39.996094 21.542969 39.996094 C 21.316406 39.996094 21.121094 39.917969 20.964844 39.757812 C 20.804688 39.601562 20.722656 39.410156 20.722656 39.183594 C 20.722656 38.960938 20.804688 38.769531 20.964844 38.609375 C 21.121094 38.449219 21.316406 38.371094 21.542969 38.371094 C 21.765625 38.371094 21.960938 38.449219 22.121094 38.609375 C 22.28125 38.769531 22.359375 38.960938 22.359375 39.183594 Z M 22.359375 39.183594 " fill-opacity="1" fill-rule="nonzero"/><path fill="#ffffff" d="M 26.914062 39.765625 C 26.914062 39.988281 26.835938 40.179688 26.675781 40.339844 C 26.515625 40.5 26.324219 40.578125 26.097656 40.578125 C 25.871094 40.578125 25.679688 40.5 25.519531 40.339844 C 25.359375 40.179688 25.28125 39.988281 25.28125 39.765625 C 25.28125 39.539062 25.359375 39.347656 25.519531 39.191406 C 25.679688 39.03125 25.871094 38.953125 26.097656 38.953125 C 26.324219 38.953125 26.515625 39.03125 26.675781 39.191406 C 26.835938 39.347656 26.914062 39.539062 26.914062 39.765625 Z M 26.914062 39.765625 " fill-opacity="1" fill-rule="nonzero"/><path fill="#ffffff" d="M 31.472656 39.996094 C 31.472656 40.222656 31.390625 40.414062 31.234375 40.570312 C 31.074219 40.730469 30.878906 40.808594 30.65625 40.808594 C 30.429688 40.808594 30.234375 40.730469 30.078125 40.570312 C 29.917969 40.414062 29.835938 40.222656 29.835938 39.996094 C 29.835938 39.773438 29.917969 39.582031 30.078125 39.421875 C 30.234375 39.261719 30.429688 39.183594 30.65625 39.183594 C 30.878906 39.183594 31.074219 39.261719 31.234375 39.421875 C 31.390625 39.582031 31.472656 39.773438 31.472656 39.996094 Z M 31.472656 39.996094 " fill-opacity="1" fill-rule="nonzero"/><path fill="#ffffff" d="M 48.996094 37.789062 C 48.996094 38.015625 48.917969 38.207031 48.757812 38.363281 C 48.597656 38.523438 48.40625 38.601562 48.179688 38.601562 C 47.953125 38.601562 47.761719 38.523438 47.601562 38.363281 C 47.441406 38.207031 47.363281 38.015625 47.363281 37.789062 C 47.363281 37.566406 47.441406 37.375 47.601562 37.214844 C 47.761719 37.054688 47.953125 36.976562 48.179688 36.976562 C 48.40625 36.976562 48.597656 37.054688 48.757812 37.214844 C 48.917969 37.375 48.996094 37.566406 48.996094 37.789062 Z M 48.996094 37.789062 " fill-opacity="1" fill-rule="nonzero"/><path fill="#ffffff" d="M 45.023438 38.371094 C 45.023438 38.59375 44.945312 38.785156 44.785156 38.945312 C 44.625 39.105469 44.433594 39.183594 44.207031 39.183594 C 43.980469 39.183594 43.789062 39.105469 43.628906 38.945312 C 43.46875 38.785156 43.390625 38.59375 43.390625 38.371094 C 43.390625 38.144531 43.46875 37.953125 43.628906 37.796875 C 43.789062 37.636719 43.980469 37.558594 44.207031 37.558594 C 44.433594 37.558594 44.625 37.636719 44.785156 37.796875 C 44.945312 37.953125 45.023438 38.144531 45.023438 38.371094 Z M 45.023438 38.371094 " fill-opacity="1" fill-rule="nonzero"/><path fill="#ffffff" d="M 40.46875 39.183594 C 40.46875 39.410156 40.386719 39.601562 40.230469 39.757812 C 40.070312 39.917969 39.875 39.996094 39.652344 39.996094 C 39.425781 39.996094 39.230469 39.917969 39.074219 39.757812 C 38.914062 39.601562 38.832031 39.410156 38.832031 39.183594 C 38.832031 38.960938 38.914062 38.769531 39.074219 38.609375 C 39.230469 38.449219 39.425781 38.371094 39.652344 38.371094 C 39.875 38.371094 40.070312 38.449219 40.230469 38.609375 C 40.386719 38.769531 40.46875 38.960938 40.46875 39.183594 Z M 40.46875 39.183594 " fill-opacity="1" fill-rule="nonzero"/><path fill="#ffffff" d="M 35.910156 39.765625 C 35.910156 39.988281 35.832031 40.179688 35.671875 40.339844 C 35.511719 40.5 35.320312 40.578125 35.09375 40.578125 C 34.867188 40.578125 34.675781 40.5 34.515625 40.339844 C 34.355469 40.179688 34.277344 39.988281 34.277344 39.765625 C 34.277344 39.539062 34.355469 39.347656 34.515625 39.191406 C 34.675781 39.03125 34.867188 38.953125 35.09375 38.953125 C 35.320312 38.953125 35.511719 39.03125 35.671875 39.191406 C 35.832031 39.347656 35.910156 39.539062 35.910156 39.765625 Z M 35.910156 39.765625 " fill-opacity="1" fill-rule="nonzero"/><g clip-path="url(#id2)"><path fill="#000000" d="M 51.101562 38.953125 L 52.035156 38.835938 C 52.734375 38.71875 53.203125 38.253906 53.554688 37.675781 L 57.644531 37.09375 L 53.789062 36.164062 C 53.902344 35.46875 54.019531 34.652344 54.019531 33.957031 L 57.058594 33.609375 L 54.136719 32.097656 C 54.136719 31.519531 54.136719 30.820312 54.136719 30.242188 C 54.136719 29.3125 54.136719 28.265625 54.019531 27.335938 L 57.992188 26.40625 L 53.902344 25.828125 C 53.789062 25.015625 53.671875 24.085938 53.554688 23.273438 C 53.4375 22.691406 53.085938 22.226562 52.617188 21.996094 L 57.644531 17.464844 L 47.59375 20.484375 L 49.464844 12.9375 L 43.390625 20.253906 L 42.105469 11.890625 L 38.132812 19.441406 L 37.546875 10.03125 L 34.042969 17.234375 L 33.457031 8.289062 L 31.238281 17.582031 L 30.769531 16.070312 L 30.769531 43.945312 L 31.121094 42.550781 L 33.574219 47.777344 L 33.925781 43.015625 L 35.910156 51.960938 L 38.015625 41.042969 C 38.015625 41.042969 38.015625 41.042969 38.132812 41.042969 L 42.105469 48.359375 L 43.390625 40.230469 L 43.621094 40.230469 L 49.582031 47.429688 L 47.710938 39.878906 L 57.875 43.015625 Z M 51.101562 38.953125 " fill-opacity="0.149" fill-rule="nonzero"/></g></svg>