<svg width="80" height="80" fill="none" xmlns="http://www.w3.org/2000/svg"><path d="M33.576 19.463c4.196-1.032 8.264-1.018 12.44-.019.016-.36.043-.67.044-.982V5.95c0-1.497.335-2.877 1.38-4.008C48.998.261 51.688-.573 53.989.44c1.156.508 2.152 1.193 2.82 2.311.62 1.03.755 2.156.768 3.307.023 2.056.007 4.11.007 6.165v17.224c0 6.617-.002 13.235-.005 19.853 0 1.546-.116 3.08-.871 4.483-.156.288-.328.566-.531.914-1.24-1.117-2.702-1.23-4.2-1.2-.634.012-1.271 0-1.901.056-2.004.185-3.27 1.355-3.63 3.334-.101.562-.15 1.133-.224 1.695-.653.177-12.03.228-13.253.054-.035-.207-.078-.434-.111-.663-.062-.418-.09-.842-.177-1.252-.473-2.053-1.64-3.053-3.722-3.18-.753-.047-1.51-.038-2.265-.04-1.163-.007-2.29.142-3.3.94-.668-.936-1.03-1.949-1.226-3.01a10.428 10.428 0 0 1-.16-1.894c-.008-14.474-.01-28.95-.005-43.424 0-3.047 1.728-5.322 4.554-5.957 3.6-.81 6.992 1.824 7.02 5.492.033 4.23.008 8.461.008 12.692l-.01 1.124Zm-2.6.653V6.036c0-.152 0-.303-.01-.453-.176-1.958-2.055-3.304-3.948-2.828-1.402.354-2.356 1.611-2.357 3.15-.006 5.855-.006 11.71 0 17.564 0 .227.024.452.04.718 1.026-.76 1.952-1.523 2.95-2.17 1.032-.67 2.137-1.229 3.326-1.9Zm23.772 4.093.186-.072V6.035c0-.15 0-.302-.005-.452-.075-1.168-.974-2.424-2.052-2.757-1.253-.387-2.385-.19-3.302.83-.596.661-.858 1.416-.855 2.313.016 4.502.006 9.003.009 13.504 0 .266.027.531.04.785 2.23 1.02 4.28 2.217 5.979 3.95v.001ZM33.697 45.746l-7.547-1.27c-.77 1.35-.141 3.345.822 4.224 1.328 1.21 3.132 1.517 4.52.796 1.684-.872 2.482-2.38 2.205-3.75Zm12.235.02c-.22 1.547.598 2.977 2.027 3.658 1.757.836 3.356.442 4.758-.797 1.002-.885 1.302-2.78.722-4.112l-7.507 1.251Zm-7.118 4.425c-.614 1.158-1.248 1.593-2.684 1.8-.378.054-.842-.008-.796.602.03.388.198.493.92.422 1.24-.122 2.363-.48 3.098-1.593.128-.196.285-.375.442-.587.21.276.382.524.576.753.886 1.036 2.056 1.423 3.379 1.444.313.004.548-.139.578-.453.03-.314-.177-.497-.487-.54-.21-.03-.42-.047-.63-.08-1.124-.184-1.913-.806-2.362-1.73.274-.53.585-.949.716-1.422.187-.668-.117-1.062-.801-1.113a12.483 12.483 0 0 0-1.81-.007c-.73.05-1.05.46-.85 1.163.128.441.437.834.71 1.342ZM53.916 77.56l-3.088-2.99.989-.886h-1.345v4.528h1.65c.757 0 1.513.01 2.267 0 .7-.01.824-.118.91-.83.065-.53.089-1.073.14-1.693l1.716.746c-.125.691-.217 1.4-.388 2.09-.198.797-.79 1.24-1.581 1.265-1.6.045-3.205.068-4.801-.012-1.137-.057-1.607-.637-1.625-1.77-.023-1.385-.006-2.77-.006-4.324-.708 1.097-1.315 2.061-1.947 3.01-.665.985-1.66 1.56-2.693 2.073-1.054.52-2.114 1.021-3.286 1.233l-1.012-1.492c2.947-.64 5.464-1.812 6.84-4.868-1.645-.08-3.165.014-4.734-.06v-4.25l-.88.374-1.02-1.397c2.105-1.14 3.83-3.123 5.335-5.42l1.826.316c.2.551-.508.548-.54 1.067h3.515c1.038-.007 1.095.012 2.005.784l-1.603 2.26c1.688.061 3.265 0 4.9.04v6.234h-3.168l-.08.176c.5.43 1.02.836 1.495 1.291.475.456.899.957 1.407 1.505l-1.197 1h-.001Zm-.272-8.496h-4.218l-.362 2.781h4.584l-.004-2.78ZM43.6 71.84h3.629l.365-2.78h-3.99l-.004 2.78Zm.547-4.514h3.368c1.062 0 1.425-.295 1.746-1.437-.764 0-1.52.068-2.257-.016-1.15-.132-2.055.177-2.68 1.184-.032.052-.061.098-.177.275v-.006Zm-5.992-3.212v1.715h-6.41c-.215.695-.264 3.156-.1 4.551h5.807v1.668h-5.826v5.414h7.336v1.64h-16.46c-.02-.288-.05-.55-.051-.812 0-.235.024-.47.042-.802h7.196V72.09h-5.494v-1.655h5.48v-4.549h-6.23v-1.77l14.71-.002Z" fill="#fff"/><path d="M53.513 61.784c-1.062 1.65-2.664 1.35-3.373.043-.164.214-.3.458-.497.635-.48.432-1.035.6-1.675.383-.663-.224-1.15-.673-1.16-1.36-.015-1.535-.033-3.086.163-4.6.218-1.698 1.278-2.647 2.966-2.794a21.815 21.815 0 0 1 3.703-.01c1.673.141 2.697 1.025 2.947 2.697.225 1.512.22 3.065.22 4.602 0 .797-.58 1.328-1.348 1.493-.787.164-1.39-.156-1.946-1.089Zm-24.41-.036c-1.128 1.555-2.231 1.571-3.31.048-.153.208-.32.406-.497.594-.463.443-.99.68-1.647.461-.658-.22-1.137-.658-1.17-1.352-.076-1.593-.188-3.204.169-4.779.364-1.613 1.373-2.525 3.018-2.645a25.26 25.26 0 0 1 3.433-.017c1.995.126 2.783 1 3.134 3.01.227 1.295.177 2.644.198 3.971.016.918-.485 1.6-1.22 1.81-.733.212-1.355-.06-1.926-.83-.053-.08-.102-.156-.182-.27Zm3.495 11.65 1.187-.876c.885.394 3.058 2.418 3.883 3.63l-1.292 1.06-3.778-3.815Z" fill="#fff"/><path d="M30.978 20.116c-1.19.673-2.294 1.231-3.326 1.9-1 .648-1.925 1.41-2.95 2.171-.017-.265-.04-.49-.042-.718V5.905c0-1.539.955-2.797 2.358-3.15 1.893-.475 3.774.87 3.949 2.833.013.15.01.3.01.452v14.08-.004Zm23.77 4.093C53.05 22.475 51 21.277 48.77 20.26c-.014-.25-.041-.518-.041-.786 0-4.5.007-9.002-.01-13.504 0-.894.26-1.65.856-2.313.917-1.02 2.05-1.217 3.302-.83 1.074.333 1.977 1.593 2.052 2.757.009.15.005.302.005.452v18.102l-.186.072ZM33.697 45.746c.277 1.37-.52 2.878-2.206 3.751-1.388.72-3.194.413-4.52-.796-.963-.879-1.593-2.875-.822-4.224l7.548 1.27Zm12.235.02 7.507-1.252c.58 1.327.28 3.226-.721 4.113-1.403 1.24-3.002 1.633-4.76.796-1.427-.68-2.25-2.105-2.026-3.657Zm-7.118 4.426c-.276-.508-.583-.9-.708-1.345-.201-.704.118-1.114.848-1.163a12.57 12.57 0 0 1 1.81.007c.684.053.989.443.802 1.112-.132.473-.442.894-.717 1.422.45.925 1.24 1.547 2.364 1.73.208.034.42.051.629.08.313.044.516.226.487.54-.03.315-.265.458-.58.453-1.321-.02-2.49-.408-3.377-1.444-.194-.228-.365-.476-.576-.752-.162.212-.32.39-.442.587-.731 1.117-1.86 1.475-3.098 1.593-.722.07-.89-.035-.92-.422-.046-.61.418-.548.796-.603 1.435-.205 2.068-.636 2.682-1.795Zm14.83 18.875v2.781H49.06l.362-2.78h4.22ZM43.6 71.841v-2.78h3.99l-.366 2.78H43.6Zm.547-4.512c.116-.177.148-.222.177-.265.624-1.004 1.526-1.316 2.68-1.184.737.084 1.492.016 2.256.016-.32 1.142-.688 1.435-1.746 1.437l-3.367-.004Z" fill="#000"/></svg>