<svg width="80" height="83" fill="none" xmlns="http://www.w3.org/2000/svg"><path d="M38.246.569s29.156 7.558 34.556 8.998c5.398 1.44 7.287 2.97 7.107 9.63-.179 6.658-.539 27.536-.9 33.294-.36 5.85-.629 9.179-3.418 11.43a9653.054 9653.054 0 0 0-19.348 15.658c-3.959 3.149-8.55 4.229-15.298 1.8-6.749-2.43-28.796-10.17-33.026-11.97-4.32-1.799-5.76-5.849-6.03-11.338C1.62 52.67.45 27.295.09 22.526c-.358-4.77 1.802-9.45 9.9-13.049 8.1-3.6 11.248-5.04 17.277-7.648 5.94-2.61 10.98-1.26 10.98-1.26Z" fill="url(#a)"/><path d="M72.802 9.568c4.229 1.26 4.498 2.79.27 4.95l-18.089 9.358c-3.779 1.98-9.448 3.69-13.677 2.43L5.579 15.597c-4.229-1.26-1.078-3.599 4.681-6.118l15.748-6.93c6.029-2.97 8.459-2.97 12.238-1.89l34.556 8.91Z" fill="url(#b)"/><path d="M48.504 75.8c0 4.228-3.42 6.748-7.65 5.579L7.83 69.41c-4.23-1.17-5.94-5.85-5.94-10.078L0 22.615c0-4.23 1.71-6.298 5.94-5.13l35.004 10.98c4.23 1.17 7.56 4.859 7.56 9.088V75.8Z" fill="url(#c)"/><path d="M79.01 52.494c0 4.41-.18 8.37-3.42 11.429L56.244 79.58c-4.409 2.34-5.849-.54-5.849-4.95l.63-37.166c0-4.409 1.17-8.639 5.58-10.978L76.58 15.42C80 13.08 80 14.7 80 19.2l-.99 33.296v-.001Z" fill="url(#d)"/><path d="M12.597 12.177c0 1.71 3.24 3.15 7.2 3.15s7.198-1.44 7.198-3.15-3.238-3.15-7.199-3.15c-3.958-.09-7.199 1.35-7.199 3.15Z" fill="url(#e)"/><path d="M19.886 9.388c3.779 0 6.93 1.26 7.2 2.97 0-.09.09-.18.09-.27 0-1.71-3.24-3.15-7.2-3.15s-7.199 1.44-7.199 3.15c0 .09 0 .18.09.27.09-1.62 3.15-2.97 7.019-2.97Z" fill="#E50012"/><path d="M19.887 10.56c3.33 0 6.118.988 6.93 2.339.089-.18.178-.36.178-.631-.27-1.62-3.329-2.968-7.199-2.968-3.779 0-6.93 1.26-7.199 2.969 0 .18.09.36.18.63.99-1.26 3.69-2.34 7.11-2.34Z" fill="#CCC"/><path d="M32.755 12.177c0 1.71 3.241 3.15 7.2 3.15 3.958 0 7.2-1.44 7.2-3.15s-3.24-3.15-7.2-3.15c-3.96-.09-7.199 1.35-7.199 3.15h-.001Z" fill="url(#f)"/><path d="M39.954 9.388c3.78 0 6.93 1.26 7.2 2.97 0-.09.09-.18.09-.27 0-1.71-3.24-3.15-7.2-3.15-3.958 0-7.198 1.44-7.198 3.15 0 .09 0 .18.09.27.18-1.62 3.239-2.97 7.018-2.97Z" fill="#E50012"/><path d="M39.955 10.56c3.33 0 6.12.988 6.93 2.339.09-.18.179-.36.179-.631-.27-1.62-3.33-2.968-7.198-2.968-3.87 0-6.93 1.26-7.2 2.969 0 .18.09.36.18.63.99-1.26 3.78-2.34 7.11-2.34Z" fill="#CCC"/><path d="M53.093 12.18c0 1.709 3.15 3.058 7.019 3.058 3.87 0 7.019-1.35 7.019-3.059 0-1.71-3.15-3.06-7.02-3.06-3.868-.09-7.018 1.35-7.018 3.06Z" fill="url(#g)"/><path d="M60.113 9.479c3.69 0 6.75 1.26 6.93 2.88 0-.09.089-.18.089-.18 0-1.71-3.15-3.06-7.02-3.06-3.868 0-7.018 1.35-7.018 3.06 0 .089 0 .18.09.18.18-1.62 3.24-2.88 6.93-2.88h-.001Z" fill="#E50012"/><path d="M60.112 10.649c3.24 0 5.94.99 6.75 2.25.089-.18.18-.36.18-.54-.27-1.62-3.24-2.88-6.93-2.88-3.689 0-6.748 1.26-7.02 2.88 0 .18.091.36.18.54.901-1.26 3.601-2.249 6.84-2.249v-.001Z" fill="#CCC"/><path d="M33.205 56.903c-.63-1.35-1.71-3.33-2.249-4.41-.54-1.079-.631-2.52-.092-3.24.451-.63 1.621-2.069 2.61-3.24l6.21-7.468c.99-1.17.54-2.43-.81-2.88l-7.29-2.34c-1.44-.45-2.608-.72-3.149.09-.81 1.08-1.26 1.89-2.159 3.15l-.9 1.26c-.9 1.17-2.25 3.15-3.15 4.41l-1.71 2.339c-.9 1.17-1.08 3.24-.36 4.589l9.27 18.987c.719 1.62 1.529 2.61 3.69 3.331l6.748 2.429c1.44.45 1.98-.18 1.35-1.53l-8.008-15.477h-.001Z" fill="url(#h)"/><path d="m19.527 63.742-.9-14.49-.63-18.086c-.27-1.802-2.43-3.06-2.43-3.06-1.979-.631-4.409-1.53-6.478-2.16-2.52-.45-2.52 1.62-2.52 1.62.36 7.199 1.35 25.737 1.62 32.575v.18c0 .36.36 2.07 2.16 2.97 1.889.72 4.68 1.53 6.478 2.25.18 0 2.7.45 2.7-1.8Z" fill="url(#i)"/><path d="m20.427 45.473 1.71-2.339c.9-1.17 2.34-3.15 3.149-4.409l.9-1.26c.9-1.17 1.35-2.07 2.16-3.15.539-.81 1.71-.54 3.15-.09l7.289 2.34c.72.18 1.17.63 1.26 1.17.27-.9-.18-1.71-1.26-2.07l-7.29-2.34c-1.44-.45-2.609-.72-3.15.09-.81 1.08-1.259 1.89-2.158 3.15l-.901 1.26c-.9 1.17-2.249 3.15-3.15 4.41l-1.709 2.339c-.63.81-.9 1.98-.81 3.06.09-.72.36-1.53.81-2.16ZM9 61.221v-.179c-.27-6.84-1.26-25.378-1.62-32.576 0 0-.09-2.07 2.52-1.62 2.07.63 4.5 1.53 6.48 2.16 0 0 .359.18.719.539a6.861 6.861 0 0 0-1.62-1.44c-1.98-.63-4.41-1.53-6.479-2.16-2.52-.45-2.52 1.62-2.52 1.62.36 7.2 1.35 25.738 1.62 32.576v.18c0 .36.27 1.62 1.53 2.52-.45-.63-.63-1.35-.63-1.62Z" fill="#E50012"/><path d="M74.6 54.921c0-.09 0-.179-.088-.27L71 36.296c0-.27-.09-.45-.09-.72-.09-.54-.18-1.17-.27-1.71-.09-.72-.269-1.44-.36-2.07-.09-.63-.18-1.26-.36-1.89l-.27-1.35c0-.18 0-.36-.18-.54-.36-.45-1.08-.63-1.62-.539-.18 0-.359.09-.45.09-.089 0-.269.18-.36.18-.45.27-.899.539-1.349.719l-.539.27c-1.621.99-2.07 2.79-2.07 2.79-.18 1.08-.45 2.34-.54 2.88l-.631 3.418-6.029 31.227-.45 1.98v.09c-.09.36-.18 1.35.36 1.529.45.09.72-.179 1.08-.45.36-.27.631-.539.99-.719.27-.18.81-.631 1.8-1.35.9-.72 1.079-1.8 1.079-1.8.63-3.959 1.26-7.739 1.89-11.068l5.85-4.32c.54 3.06.99 5.76 1.35 8.19 0 0 .09.719.99.27.72-.54 1.62-1.26 2.429-1.89.81-.632 1.35-.99 1.709-1.98.092-.72-.179-1.89-.36-2.61Zm-7.739-8.639-2.159 1.53c-.36.27-.63.09-.539-.36l.54-2.88c.09-.449.269-1.259.269-1.709l.99-5.579c.09-.45.18-.45.27 0l1.17 7.649c.09.45-.18 1.08-.54 1.35Z" fill="url(#j)"/><path d="M74.6 54.921c0-.09 0-.179-.09-.27L71 36.296c0-.27-.09-.45-.09-.72-.09-.54-.18-1.17-.27-1.71-.089-.72-.27-1.44-.36-2.07-.09-.63-.18-1.26-.359-1.89l-.27-1.35c0-.18 0-.36-.18-.54-.36-.45-1.08-.63-1.62-.539-.18 0-.36.09-.45.09-.09 0-.27.18-.36.18-.45.27-.9.539-1.35.719l-.54.27c-1.62.99-2.07 2.79-2.07 2.79v.18c.27-.631.81-1.62 1.89-2.25l.54-.27c.45-.27.9-.54 1.35-.72.09 0 .27-.09.36-.18.18-.09.27-.09.45-.09.54-.09 1.26.09 1.62.54.18.18.18.36.18.54l.27 1.35c.09.63.18 1.26.36 1.89.09.72.27 1.44.36 2.07.09.539.18 1.17.269 1.709 0 .27.09.45.09.72l3.51 18.357c0 .09 0 .18.09.27.09.63.36 1.71.27 2.43.09-.18.18-.27.18-.45.18-.809-.09-1.98-.27-2.7Z" fill="#C90018"/><defs><linearGradient id="a" x1="-22.456" y1="-1.453" x2="87.386" y2="69.343" gradientUnits="userSpaceOnUse"><stop offset=".208" stop-color="#EFA26F"/><stop offset=".474" stop-color="#D2000E"/><stop offset="1" stop-color="#7D0000"/></linearGradient><linearGradient id="b" x1="1.224" y1="13.319" x2="118.258" y2="13.319" gradientUnits="userSpaceOnUse"><stop stop-color="#EFA26F"/><stop offset=".559" stop-color="#D2000E"/><stop offset="1" stop-color="#7D0000"/></linearGradient><linearGradient id="c" x1=".751" y1="26.344" x2="70.492" y2="92.035" gradientUnits="userSpaceOnUse"><stop stop-color="#EFA26F"/><stop offset=".559" stop-color="#D2000E"/><stop offset="1" stop-color="#7D0000"/></linearGradient><linearGradient id="d" x1="-17.402" y1="-4.029" x2="91.934" y2="63.462" gradientUnits="userSpaceOnUse"><stop offset=".472" stop-color="#D2000E"/><stop offset=".768" stop-color="#7D0000"/></linearGradient><linearGradient id="e" x1="19.848" y1="9.733" x2="19.848" y2="15.099" gradientUnits="userSpaceOnUse"><stop stop-color="#9E9E9F"/><stop offset=".09" stop-color="#B6B6B6"/><stop offset=".218" stop-color="#D0D0D1"/><stop offset=".359" stop-color="#E5E5E5"/><stop offset=".517" stop-color="#F4F4F4"/><stop offset=".704" stop-color="#FCFCFC"/><stop offset="1" stop-color="#fff"/></linearGradient><linearGradient id="f" x1="39.978" y1="9.733" x2="39.978" y2="15.099" gradientUnits="userSpaceOnUse"><stop stop-color="#9E9E9F"/><stop offset=".09" stop-color="#B6B6B6"/><stop offset=".218" stop-color="#D0D0D1"/><stop offset=".359" stop-color="#E5E5E5"/><stop offset=".517" stop-color="#F4F4F4"/><stop offset=".704" stop-color="#FCFCFC"/><stop offset="1" stop-color="#fff"/></linearGradient><linearGradient id="g" x1="60.097" y1="9.802" x2="60.097" y2="15.019" gradientUnits="userSpaceOnUse"><stop stop-color="#9E9E9F"/><stop offset=".09" stop-color="#B6B6B6"/><stop offset=".218" stop-color="#D0D0D1"/><stop offset=".359" stop-color="#E5E5E5"/><stop offset=".517" stop-color="#F4F4F4"/><stop offset=".704" stop-color="#FCFCFC"/><stop offset="1" stop-color="#fff"/></linearGradient><linearGradient id="h" x1="21.588" y1="43.964" x2="26.688" y2="47.413" gradientUnits="userSpaceOnUse"><stop stop-color="#9E9E9F"/><stop offset=".09" stop-color="#B6B6B6"/><stop offset=".218" stop-color="#D0D0D1"/><stop offset=".359" stop-color="#E5E5E5"/><stop offset=".517" stop-color="#F4F4F4"/><stop offset=".704" stop-color="#FCFCFC"/><stop offset="1" stop-color="#fff"/></linearGradient><linearGradient id="i" x1="6.781" y1="45.76" x2="15.02" y2="45.76" gradientUnits="userSpaceOnUse"><stop stop-color="#9E9E9F"/><stop offset=".09" stop-color="#B6B6B6"/><stop offset=".218" stop-color="#D0D0D1"/><stop offset=".359" stop-color="#E5E5E5"/><stop offset=".517" stop-color="#F4F4F4"/><stop offset=".704" stop-color="#FCFCFC"/><stop offset="1" stop-color="#fff"/></linearGradient><linearGradient id="j" x1="74.062" y1="47.268" x2="52.595" y2="52.194" gradientUnits="userSpaceOnUse"><stop offset=".031" stop-color="#9E9E9F"/><stop offset=".087" stop-color="#B6B6B6"/><stop offset=".166" stop-color="#D0D0D1"/><stop offset=".252" stop-color="#E5E5E5"/><stop offset=".349" stop-color="#F4F4F4"/><stop offset=".464" stop-color="#FCFCFC"/><stop offset=".646" stop-color="#fff"/></linearGradient></defs></svg>