<svg width="80" height="61" fill="none" xmlns="http://www.w3.org/2000/svg"><path d="M69.148 30.978C75.141 30.978 80 35.837 80 41.83v7.44c0 5.993-4.859 10.852-10.852 10.852h-.055c-5.993 0-10.852-4.858-10.852-10.852v-7.44c0-5.993 4.859-10.852 10.852-10.852h.055ZM29.378.754l.054.02c5.833 2.24 8.746 8.783 6.507 14.616l-14.01 36.495c-2.238 5.833-8.781 8.746-14.614 6.507l-.054-.02C1.43 56.131-1.485 49.588.754 43.755L14.764 7.26c2.239-5.83 8.782-8.745 14.615-6.506Zm27.63 0 .054.02c5.833 2.24 8.746 8.783 6.507 14.616L49.56 51.885c-2.239 5.833-8.782 8.746-14.615 6.507l-.053-.02c-5.833-2.24-8.746-8.783-6.507-14.616L42.394 7.261C44.633 1.43 51.176-1.485 57.009.754Z" fill="#F2F2F2"/></svg>