<svg width="80" height="80" fill="none" xmlns="http://www.w3.org/2000/svg"><path fill-rule="evenodd" clip-rule="evenodd" d="M77.339 52.924 80 54.874 0 65.796l77.339-12.872Z" fill="#4B4B4D"/><path fill-rule="evenodd" clip-rule="evenodd" d="M80 54.874 0 65.796 77.704 57.5 80 54.874Z" fill="#373435"/><path fill-rule="evenodd" clip-rule="evenodd" d="m22.103 45.857-5.777-31.602L39.756 13l24.328 1.309-5.546 31.37.837-.178c2.545 1.388 5.083 2.777 7.629 4.166-8.386 6.48-17.368 12.453-26.715 18.133a261.994 261.994 0 0 1-26.652-18.133l7.273-4.23 1.193.42Z" fill="#373435"/><path fill-rule="evenodd" clip-rule="evenodd" d="m50.189 53.904 6.498-3.757L40.29 60.642v-2.804l5.546-2.207V44.904l4.353 9Zm3.756-34.976 8.768-3.302c-.48 2.866-.952 5.742-1.433 8.617-.036-4.566-2.769-6-7.335-5.314v-.001Zm-1.727 22.308c4.041-1.718 6.552-3.596 7.095-6.498l-2.626 15.409-4.47-8.91Zm1.13-11.358c.543-3.703-3.471-2.012-7.299-.392v7.006c3.329-.935 6.632-2.056 7.3-6.614Z" fill="#376CB3"/><path fill-rule="evenodd" clip-rule="evenodd" d="m24.631 51.357-3.578-4.503c-1.54.97-3.072 1.95-4.612 2.92 7.317 6.168 15.125 11.51 23.19 16.423l-15-14.84Z" fill="#4B4B4D"/><path fill-rule="evenodd" clip-rule="evenodd" d="m40.112 24.154-22.121-8.528 6.168 35.135 3.908 1.71 12.223 7.246-.178-35.563Z" fill="#4B4B4D"/><path fill-rule="evenodd" clip-rule="evenodd" d="m40.112 24.154-5.048-1.95-5.01 7.816-3.766-11.198-8.296-3.196 21.65-1.317 23.072 1.317-22.602 8.528ZM28.067 52.47l-2.679-1.07c4.406 3.161 9.383 6.242 14.902 9.24v-2.803l-5.368-2.082-.053-15.746-4.114 6.56-4.237-10.015 1.55 15.917v-.001Z" fill="#00AFEF"/><path fill-rule="evenodd" clip-rule="evenodd" d="m56.847 49.195-.16.952 7.966-.347-5.617-2.626-2.19 2.02Z" fill="#4B4B4D"/><path fill-rule="evenodd" clip-rule="evenodd" d="M77.339 52.924 80 54.874l-14.145 1.931-2.065-1.629 13.549-2.252Z" fill="#00AFEF"/><path fill-rule="evenodd" clip-rule="evenodd" d="m80 54.874-14.145 1.931-.836 2.048L77.703 57.5 80 54.874Z" fill="#376CB3"/></svg>