<svg xmlns="http://www.w3.org/2000/svg" xml:space="preserve" width="600" height="222" style="shape-rendering:geometricPrecision;text-rendering:geometricPrecision;image-rendering:optimizeQuality;fill-rule:evenodd;clip-rule:evenodd"><defs><linearGradient id="b" gradientUnits="userSpaceOnUse" x1="149.043" y1="178.09" x2="149.043" y2="47.178"><stop offset="0" style="stop-opacity:1;stop-color:#353536"/><stop offset=".631" style="stop-opacity:1;stop-color:#b0b2b3"/><stop offset="1" style="stop-opacity:1;stop-color:#8a8b8d"/></linearGradient><linearGradient id="a" gradientUnits="userSpaceOnUse" x1="458.231" y1="221.979" x2="458.231" y2="0"><stop offset="0" style="stop-opacity:1;stop-color:#557d2b"/><stop offset=".6" style="stop-opacity:1;stop-color:#659524"/><stop offset=".31" style="stop-opacity:1;stop-color:#557d2b"/><stop offset=".6" style="stop-opacity:1;stop-color:#9ac13a"/><stop offset=".71" style="stop-opacity:1;stop-color:#76ad1c"/><stop offset="1" style="stop-opacity:1;stop-color:#76ad1c"/></linearGradient></defs><path d="M514 47h86v25h-30v106h-26V72h-30V47zm-111 0h23l51 80V47h26v131h-23l-51-80v80h-26V47zm-82 0h68v25h-60v28h51v25h-51v28h60v25h-68v44h-5V0h5v47z" style="fill:url(#a);fill-rule:nonzero"/><path d="M114 47h86v25h-59v28h51v25h-51v28h59v25h-86V47zM0 47h24l50 80V47h26v131H77L26 98v80H0V47zm212 0h86v25h-30v106h-26V72h-30V47z" style="fill:url(#b);fill-rule:nonzero"/></svg>