<svg width="80" height="80" fill="none" xmlns="http://www.w3.org/2000/svg"><path fill-rule="evenodd" clip-rule="evenodd" d="M27.55 74.385h26.026L40.563 61.21 27.551 74.385Z" fill="#72C05D"/><path fill-rule="evenodd" clip-rule="evenodd" d="M27.55 74.385h13.015V61.21L27.55 74.385Z" fill="#34B677"/><path fill-rule="evenodd" clip-rule="evenodd" d="m45.07 56.356 17.465 17.68L80 56.357l-17.465-17.68-17.465 17.68Z" fill="#72C05D"/><path fill-rule="evenodd" clip-rule="evenodd" d="M62.535 56.356H45.07l17.465 17.68L80 56.357H62.535Z" fill="#26B574"/><path fill-rule="evenodd" clip-rule="evenodd" d="M62.535 38.676v35.36L45.07 56.357l17.465-17.68Z" fill="#34B677"/><path fill-rule="evenodd" clip-rule="evenodd" d="M54.342 56.356h8.193v17.68L45.07 56.357h9.272Z" fill="#009169"/><path fill-rule="evenodd" clip-rule="evenodd" d="M58.223 56.356s1.294-.431 2.587-1.724c1.294-1.294 1.725-2.588 1.725-2.588s.485 1.347 1.725 2.588c1.24 1.239 2.588 1.723 2.588 1.723s-1.294.328-2.588 1.726-1.725 2.587-1.725 2.587-.215-.862-1.51-2.37c-1.293-1.51-2.802-1.942-2.802-1.942" fill="#FEFEFE"/><path fill-rule="evenodd" clip-rule="evenodd" d="m62.535 49.029-7.327 7.326 7.327 7.328 7.326-7.328-7.326-7.326Zm0-4.319 11.647 11.645-11.647 11.647-11.646-11.647L62.536 44.71h-.001Z" fill="#090204"/><path fill-rule="evenodd" clip-rule="evenodd" d="m17.465 38.676 17.465 17.68-17.465 17.68L0 56.357l17.465-17.68Z" fill="#72C05D"/><path fill-rule="evenodd" clip-rule="evenodd" d="M17.465 56.356H34.93l-17.465 17.68L0 56.357h17.465Z" fill="#26B574"/><path fill-rule="evenodd" clip-rule="evenodd" d="M17.465 38.676v35.36L0 56.357l17.465-17.68Z" fill="#34B677"/><path fill-rule="evenodd" clip-rule="evenodd" d="M9.27 56.356h8.194v17.68L0 56.357h9.27Z" fill="#009169"/><path fill-rule="evenodd" clip-rule="evenodd" d="M13.152 56.356s1.295-.431 2.588-1.724c1.294-1.294 1.724-2.588 1.724-2.588s.486 1.347 1.726 2.588c1.24 1.239 2.587 1.723 2.587 1.723s-1.294.328-2.587 1.726c-1.294 1.398-1.726 2.587-1.726 2.587s-.215-.862-1.509-2.37c-1.293-1.51-2.803-1.942-2.803-1.942" fill="#FEFEFE"/><path fill-rule="evenodd" clip-rule="evenodd" d="m17.465 49.029-7.328 7.326 7.328 7.328 7.327-7.328-7.327-7.326Zm0-4.319L29.11 56.354 17.465 68.001 5.818 56.354 17.465 44.71v.001Z" fill="#090204"/><path fill-rule="evenodd" clip-rule="evenodd" d="m40.282 6 22.817 23.098-22.817 23.1-22.818-23.1L40.282 6Z" fill="#72C05D"/><path fill-rule="evenodd" clip-rule="evenodd" d="M40.281 29.098H63.1l-22.819 23.1-22.817-23.1h22.817Z" fill="#26B574"/><path fill-rule="evenodd" clip-rule="evenodd" d="M40.282 6v46.197L17.464 29.098 40.282 6Z" fill="#34B677"/><path fill-rule="evenodd" clip-rule="evenodd" d="M29.577 29.098h10.704v23.1l-22.817-23.1h12.113Z" fill="#009169"/><path fill-rule="evenodd" clip-rule="evenodd" d="M34.648 29.098s1.69-.563 3.38-2.254c1.69-1.689 2.254-3.38 2.254-3.38s.633 1.762 2.254 3.381c1.618 1.62 3.38 2.254 3.38 2.254s-1.691.426-3.381 2.253c-1.69 1.827-2.254 3.38-2.254 3.38s-.282-1.126-1.971-3.098c-1.69-1.972-3.662-2.536-3.662-2.536Z" fill="#FEFEFE"/><path fill-rule="evenodd" clip-rule="evenodd" d="M40.28 18.864 30.048 29.098l10.234 10.233 10.234-10.233-10.234-10.234Zm0-4.32 14.554 14.554-14.553 14.553-14.554-14.554 14.554-14.553Z" fill="#090204"/></svg>