<svg width="80" height="53" fill="none" xmlns="http://www.w3.org/2000/svg"><path d="M23.132 0h.752c1.111.242 1.977 1.014 2.202 2.145.237 1.035-.354 1.947-.74 2.86-6.73 15.107-13.463 30.216-20.188 45.326-.384.897-1.138 1.524-2.11 1.674-1.38.217-2.74-.756-2.995-2.125-.227-1.04.32-1.88.71-2.795C7.327 32.353 13.888 17.62 20.45 2.887c.302-.645.547-1.394.99-1.955.432-.535 1.035-.784 1.692-.932Z" fill="#B9D531"/><path d="M57.954 0h.645c1.134.209 2.022.994 2.254 2.138.228 1.039-.306 1.867-.698 2.777-6.546 14.689-13.087 29.38-19.632 44.07-.273.599-.504 1.232-.84 1.797-.636 1.065-2.055 1.542-3.206 1.07-.966-.364-1.624-1.28-1.702-2.303-.084-.87.463-1.77.795-2.553A209316.8 209316.8 0 0 0 55.2 2.928c.318-.678.576-1.491 1.069-2.059.44-.507 1.038-.746 1.685-.869Z" fill="#49BFA1"/><path d="M66.594 0h.96c1.061.306 1.92 1.047 2.116 2.17.193 1.082-.32 1.864-.727 2.81C62.193 20.123 55.45 35.272 48.7 50.417c-.477 1.096-1.656 1.766-2.842 1.588-1.215-.18-2.194-1.23-2.262-2.459-.077-.884.425-1.698.762-2.487C51.108 31.915 57.85 16.768 64.6 1.623 64.98.74 65.69.255 66.594 0Z" fill="#67C8CA"/><path d="M27.722 11.718c1.098.29 1.92 1.295 1.962 2.434.06.856-.398 1.605-.726 2.365-4.835 10.855-9.67 21.714-14.502 32.57-.272.593-.499 1.234-.851 1.783-.659 1.001-2.023 1.436-3.137.986a2.676 2.676 0 0 1-1.716-2.307c-.079-.85.423-1.69.75-2.45 4.837-10.855 9.668-21.715 14.504-32.572.27-.589.495-1.236.857-1.776a2.65 2.65 0 0 1 2.86-1.033Z" fill="#B9D531"/><path d="M30.382 23.582c1.333-.013 2.507 1.096 2.6 2.418.093.928-.39 1.702-.738 2.525-3.022 6.857-6.036 13.716-9.055 20.573-.268.594-.494 1.24-.85 1.786-.664.997-2.027 1.423-3.14.968-1.02-.379-1.697-1.391-1.707-2.473-.008-.806.486-1.649.796-2.383 3.186-7.24 6.374-14.48 9.556-21.72.425-1.034 1.41-1.725 2.538-1.694Z" fill="#90CA69"/><path d="M35.289 36.41c.963.743 1.26 2.073.783 3.183-1.425 3.217-2.883 6.46-4.314 9.681-.233.52-.442 1.078-.747 1.562-.59.934-1.817 1.403-2.88 1.113-1.09-.277-1.931-1.276-1.987-2.403-.082-.915.466-1.78.813-2.6 1.267-2.849 2.545-5.691 3.805-8.542.333-.73.596-1.53 1.271-2.024a2.677 2.677 0 0 1 3.256.03Z" fill="#49BFA1"/><path d="M60.342 35.868c1.227.172 2.204 1.242 2.262 2.48.06.825-.347 1.528-.668 2.257-1.245 2.765-2.473 5.539-3.71 8.307-.274.6-.509 1.228-.833 1.802-.553 1.004-1.83 1.531-2.933 1.241-1.103-.27-1.953-1.265-2.002-2.408-.079-.938.46-1.785.815-2.623 1.407-3.15 2.811-6.301 4.215-9.45a2.694 2.694 0 0 1 2.854-1.606Z" fill="#67C8CA"/><path d="M69.604 36c.986.353 1.697 1.296 1.74 2.348.073.91-.476 1.794-.825 2.612-1.186 2.654-2.368 5.312-3.555 7.967-.29.632-.533 1.312-.9 1.904-.583.937-1.812 1.404-2.872 1.12-1.097-.277-1.938-1.275-1.995-2.407-.068-.86.378-1.618.712-2.38 1.241-2.767 2.474-5.537 3.709-8.306.286-.628.528-1.316.912-1.892.658-.972 1.976-1.375 3.074-.967Zm8.181-.12c1.145.188 2.054 1.151 2.194 2.3.127.894-.344 1.707-.691 2.495-1.444 3.215-2.882 6.458-4.32 9.677-.447 1.055-1.463 1.73-2.617 1.679a2.68 2.68 0 0 1-2.478-2.158c-.24-1.073.404-2.044.803-2.99 1.409-3.145 2.81-6.313 4.22-9.452a2.665 2.665 0 0 1 2.889-1.55Z" fill="#E08BBB"/></svg>