<svg width="80" height="80" fill="none" xmlns="http://www.w3.org/2000/svg"><path d="M49.77 51.129c-1.136 1.02-1.337 2.718-.334 3.941 1.004 1.155 2.676 1.36 3.88.34 4.615-3.873 7.225-9.583 7.225-15.63 0-11.214-8.964-20.32-20-20.32-11.037 0-20 9.106-20 20.32 0 6.184 2.741 11.96 7.491 15.834 1.204.95 2.876.747 3.88-.408.936-1.224.735-2.922-.402-3.942-10.77-8.63-4.749-26.232 8.963-26.232 13.579 0 19.666 17.33 9.298 26.097Zm8.406 13.218c7.333-5.559 12.094-14.643 12.094-24.81 0-1.56-1.158-2.781-2.638-2.781-1.479 0-2.637 1.221-2.637 2.78 0 8.406-3.925 15.796-9.844 20.337-1.157.881-1.479 2.644-.578 3.864.771 1.221 2.38 1.492 3.603.61Z" fill="#00269A"/><path d="M29 1.667c-1.47.398-2.27 1.922-1.87 3.38.4 1.458 1.937 2.254 3.405 1.856C52.498.408 74.527 16.78 74.527 39.443c0 1.525 1.202 2.718 2.738 2.718C78.8 42.16 80 40.969 80 39.445c.067-26.246-25.5-45.333-51-37.778Z" fill="#00269A"/><path d="M59.512 16.548C39.695.518 9.73 14.536 9.73 40.021c0 16.7 13.663 30.25 30.505 30.25 1.556 0 2.774-1.209 2.774-2.751 0-1.542-1.218-2.75-2.774-2.75-13.798 0-24.959-11.133-24.959-24.748 0-20.858 24.553-32.26 40.72-19.182 1.218.94 2.908.806 3.923-.402.946-1.207.812-2.951-.406-3.89Z" fill="#00269A"/><path d="M2.763 37.838c-1.55 0-2.763 1.19-2.763 2.71C0 62.29 18.059 80 40.23 80c9.434 0 18.597-3.238 25.807-9.185 1.145-.992 1.348-2.644.338-3.834-1.011-1.122-2.696-1.322-3.909-.33-6.2 5.089-14.15 7.93-22.305 7.93-19.137 0-34.702-15.265-34.702-34.034.067-1.52-1.146-2.709-2.696-2.709Z" fill="#00269A"/></svg>