<svg xmlns="http://www.w3.org/2000/svg" xml:space="preserve" width="600" height="102" style="shape-rendering:geometricPrecision;text-rendering:geometricPrecision;image-rendering:optimizeQuality;fill-rule:evenodd;clip-rule:evenodd"><defs><style>.fil1{fill:#c32728}.fil0{fill:#288fcc}</style></defs><g id="Layer_x0020_1"><g id="_358955154064"><path class="fil0" d="M108 45c0-2-1-3-3-3H95c-3 0-4 2-4 4v18c0 3 2 4 4 4h10c1 0 1 0 2-1 1 0 1-1 1-2V45zm-30-2c0-5 1-8 3-11 1-1 3-1 4-2 2-1 3-1 5-1h19c8 0 12 4 12 13v28c0 3-1 6-4 8-2 2-5 4-8 4H91v20H78V43zM145 66s0 1 1 1c0 1 1 1 2 1h10c2 0 3-1 4-2v-4c0-2-2-3-4-3h-13v7zm17-21c0-2-2-3-4-3h-26V29h29c9 0 13 4 14 12v28c-1 4-2 7-4 9-2 3-5 4-8 4h-18c-9 0-13-4-13-12V59c0-8 4-12 12-13h18v-1zM211 88c1 0 2 0 3-1s1-1 1-2v-3h-17c-2 0-4-1-5-1-1-1-3-2-4-3s-2-3-3-4c-1-2-1-4-1-6V29h13v35c0 3 1 4 4 4h9c1 0 2 0 3-1 0 0 1-1 1-2V29h13v58c0 4-1 8-3 11-3 2-6 4-9 4h-31V88h26zM238 68h23c2 0 4-1 4-2v-1c0-1 0-1-1-2 0-1-1-1-2-1h-11c-4 0-6-1-9-4-2-2-4-4-4-7V41c0-8 5-12 13-12h27v13h-23c-3 0-4 1-4 3v1c0 2 1 2 4 2h12c3 1 5 2 8 4 2 2 3 5 3 8v10c0 3-1 5-4 8-1 2-2 2-3 3-2 1-3 1-6 1h-27V68zM300 66l1 1c1 1 2 1 3 1h10c2 0 3-1 3-2v-4c0-2-1-3-3-3h-13c0 1-1 2-1 3v4zm17-21c0-2-1-3-3-3h-27V29h30c9 0 13 4 13 12v28c0 4-1 7-3 9-2 3-5 4-9 4h-18c-8 0-13-4-13-12V59c0-8 5-12 13-13h17v-1zM341 21c0-3 1-6 4-9 2-2 6-3 10-3h8v13h-5c-3 0-4 1-4 4v3h9v13h-9v40h-13V21zM400 45v-1s0-1-1-1c0-1-1-1-2-1h-9c-1 0-2 0-3 1s-1 2-1 3v5l16-6zm-16 19v1c0 1 0 2 1 2 0 1 1 1 2 1h26v14h-28c-3 0-5-1-6-1-2-1-3-1-4-3-2-1-3-2-3-4-1-1-1-3-1-6V41c0-8 4-12 13-12h17c8 0 12 4 13 13v10l-30 12zM441 82c-2 0-4 0-5-1-2 0-4-1-5-2-2-2-3-3-4-5s-1-4-1-7V37c1-2 2-3 3-5 2-1 3-2 5-3 2 0 4-1 6-1h20v4h-20c-3 0-6 0-8 2-2 1-3 4-3 8v25c0 1 0 3 1 5 0 1 1 3 2 4 2 1 3 2 5 2 1 0 3 1 4 1h19v3h-19zM511 49h-26c-3 0-6 1-7 3-2 2-3 5-3 8v12c1 2 1 3 3 4 2 2 4 3 7 3h16c7 0 10-4 10-11V49zm3 18v6c-1 1-1 3-3 5-3 2-6 4-10 4h-16c-4 0-7-1-9-4-3-2-4-6-4-10v-8c0-9 4-14 13-14h26v-3c0-3-1-6-2-8-1-1-3-2-4-3h-33v-4h27c2 0 4 1 6 1 1 0 2 1 3 1 1 1 2 1 3 3 2 3 3 6 3 10v24zM544 32c-8 0-11 4-11 11v39h-3V43c0-10 4-15 14-15h4v4h-4zM596 32h-29c-2 0-3 1-4 3-2 1-3 3-3 4s-1 3-1 5v24c0 4 2 7 4 8 1 1 3 2 4 2s3 1 5 1h11c4 0 7-1 9-3 3-2 4-5 4-9V32zm4 35c-1 10-6 15-17 15h-11c-3 0-5 0-7-1-2 0-4-2-5-3-2-2-3-4-3-6-1-1-1-3-1-6V44c0-11 6-16 16-16h24V11h4v56z"/><path class="fil1" d="M6 27c1-1 2-1 3-1 2-9 10-16 19-16 10 0 18 7 19 16 3 0 6 1 8 3v-5C53 11 42 0 28 0S2 11 1 26v3c2-1 3-2 5-2zM44 29H12c-2 0-3 0-5 1s-3 1-4 2c-2 3-3 6-3 11v25c0 4 1 8 3 10 1 1 2 2 4 3 2 0 3 1 5 1h32c8 0 12-5 12-14V42c0-9-4-13-12-13z"/></g></g></svg>