<svg width="80" height="66" fill="none" xmlns="http://www.w3.org/2000/svg"><mask id="a" style="mask-type:alpha" maskUnits="userSpaceOnUse" x="0" y="0" width="80" height="66"><path d="M65.07 65.607H6.135c-5.041-.198-7.407-2.926-5.45-7.432L24.12 4.285C25.49 1.134 29-.596 32.432.186L74.43 9.77c3.714.847 6.11 4.351 5.465 7.999l-7.412 42.02c-.612 3.47-3.785 5.962-7.413 5.818Z" fill="#3E95A0"/></mask><g mask="url(#a)"><path d="M65.07 65.607H6.135c-5.042-.198-7.407-2.926-5.45-7.432L24.12 4.285C25.49 1.134 29-.596 32.431.186L74.43 9.77c3.714.847 6.11 4.351 5.465 7.999l-7.412 42.02c-.612 3.47-3.785 5.962-7.413 5.818Z" fill="#3E95A0"/><path d="M78.283 11.913c-.953-1.226-2.373-1.818-4.042-2.213L33.03.331c-4.066-1.152-7.618.908-9.01 3.918L1.156 57.104a9.027 9.027 0 0 1-.335.681c-.664 1.271-1.058 3.329-.682 4.418l78.145-50.29Z" fill="#B6CD3A"/><path d="M25.635 2.014a7.239 7.239 0 0 0-1.62 2.235L1.155 57.104a9.048 9.048 0 0 1-.335.681c-.664 1.271-1.058 3.329-.682 4.417l45.47-29.267L25.634 2.014Z" fill="#F8A600"/><path d="M28.341 45.867c-1.531 5.913-6.308 8.878-14.33 8.893l-1.68 15.107c-.052.426-.274.649-.664.666l-5.595.293c-.39-.037-.586-.204-.586-.507l4.608-40.3a.703.703 0 0 1 .693-.614c3.32-.302 6.49-.452 9.51-.452 6.002 0 9.002 2.876 9.002 8.63 0 3.144-.319 5.905-.958 8.284ZM16.194 35.16l-1.517 13.452c3.07 0 5.14-.64 6.206-1.918 1.066-1.28 1.6-3.765 1.598-7.459 0-1.42-.382-2.467-1.146-3.143-.764-.676-1.74-1.013-2.93-1.011-1.19 0-1.927.026-2.21.079Zm21.976-5.301-4.56 40.114c-.054.426-.285.648-.694.666l-5.486.187c-.392 0-.587-.17-.586-.507l4.608-40.3a.703.703 0 0 1 .692-.614l5.328-.185c.465.018.698.23.698.639Zm20.472 16.008c-1.527 5.913-6.304 8.878-14.33 8.893l-1.678 15.107c-.053.426-.275.649-.665.666l-5.594.293c-.391-.037-.586-.204-.586-.507l4.608-40.3a.701.701 0 0 1 .692-.614c3.32-.302 6.49-.452 9.51-.452 6 0 9.002 2.876 9.003 8.63 0 3.144-.32 5.905-.96 8.284ZM46.498 35.16l-1.514 13.452c3.072 0 5.141-.64 6.208-1.918 1.066-1.28 1.598-3.765 1.597-7.459 0-1.42-.382-2.467-1.145-3.143-.763-.676-1.74-1.013-2.93-1.011-1.193 0-1.932.026-2.216.079Zm27.371-5.334 3.117 40.116c0 .408-.231.63-.693.665l-5.558.219c-.373 0-.56-.169-.56-.507l-.4-8.79-6.046.24-2 8.204a1.039 1.039 0 0 1-.213.505.756.756 0 0 1-.48.161l-5.514.187c-.356 0-.533-.169-.532-.507l11.693-40.3c.124-.39.364-.595.72-.614l5.858-.213c.373.018.578.232.608.634Zm-5.035 10.975-3.722 15.295 4.421-.16-.699-15.135Z" fill="#fff"/></g></svg>