<svg width="70" height="80" fill="none" xmlns="http://www.w3.org/2000/svg"><path fill-rule="evenodd" clip-rule="evenodd" d="M7.964 9.6H58.85L70 0v72c.004 4.414-3.562 7.996-7.964 8H7.964a7.96 7.96 0 0 1-5.634-2.346A8.004 8.004 0 0 1 0 72V17.6a8.004 8.004 0 0 1 2.33-5.654A7.96 7.96 0 0 1 7.964 9.6Z" fill="#002E5B"/><path d="M37.98 52.856a5.773 5.773 0 0 0 1.92-1.854c.509-.815.86-1.72 1.036-2.666.202-1.02.304-2.057.303-3.097 0-1.042-.11-2.08-.329-3.098a8.287 8.287 0 0 0-1.086-2.717 6.085 6.085 0 0 0-1.947-1.93 5.422 5.422 0 0 0-2.907-.736 5.52 5.52 0 0 0-2.957.736 5.912 5.912 0 0 0-1.92 1.905 7.92 7.92 0 0 0-1.036 2.69 16.089 16.089 0 0 0-.303 3.15c-.001 1.04.109 2.08.328 3.097a8 8 0 0 0 1.062 2.666 6.107 6.107 0 0 0 7.836 1.854Zm-9.327-20.82v3.351h.1a7.908 7.908 0 0 1 3.337-3.098 10.205 10.205 0 0 1 4.45-.964 11.285 11.285 0 0 1 5.306 1.17 10.994 10.994 0 0 1 3.69 3.097 13.132 13.132 0 0 1 2.174 4.494c.476 1.746.714 3.549.707 5.359a18.125 18.125 0 0 1-.707 5.078 12.957 12.957 0 0 1-2.149 4.316 10.648 10.648 0 0 1-3.589 2.996 10.766 10.766 0 0 1-5.03 1.118 10.142 10.142 0 0 1-4.474-.99 8.475 8.475 0 0 1-3.362-2.92h-.1v12.44h-7.178V32.037h6.825Z" fill="#FDE428"/></svg>