<svg width="80" height="80" fill="none" xmlns="http://www.w3.org/2000/svg"><path d="M44.306 19.875c-.35-.37-.652-.346-.944-.346-6.254 0-12.508.002-18.762 0-2.185 0-4.16.711-5.998 1.821-3.67 2.218-6.147 5.292-7.375 9.503-1.872 6.415-3.949 12.772-6.048 19.119-2 6.047 1.737 10.88 7.639 10.464 3.17-.225 6.369-.023 9.555-.05.992-.01 1.974-.022 2.966-.315 5.114-1.51 8.283-4.996 9.985-9.884 1.253-3.598 2.342-7.255 3.438-10.905.419-1.387 1.011-2.735 1.212-4.174-.606-.39-1.21-.213-1.78-.216-3.125-.02-6.252-.033-9.379.003-1.108.012-2.411-.436-3.276.221-.848.646-.832 2-1.17 3.05-.717 2.218-1.408 4.444-2.13 6.73 1.734.36 3.383-.102 5.02.33-.486 1.529-.954 2.915-1.359 4.32-.147.505-.3.85-.91.847-3.115-.015-6.231-.006-9.553-.006.671-2.152 1.272-4.104 1.885-6.05 1.41-4.474 2.82-8.948 4.238-13.42.435-1.377.445-1.378 1.943-1.383 1.357-.004 2.713 0 4.07 0 4.189 0 8.379.008 12.567-.013.464-.003 1.048.253 1.29-.537.938-3.075 1.93-6.131 2.876-9.11Zm5.8 40.472c2.298.029 4.668.399 6.88-.146 5.742-1.416 9.851-4.86 11.72-10.613 1.99-6.132 3.902-12.29 5.825-18.445.488-1.563.902-3.126.98-4.804.213-4.664-3.709-7.575-7.387-7.48-3.418.089-6.841.014-10.26.024-.644.003-1.285.003-1.928.173-5.837 1.55-9.834 5.073-11.717 10.872a576.096 576.096 0 0 0-2.324 7.375c-1.37 4.423-2.83 8.822-4.07 13.28-1.623 5.834 2.38 9.912 6.977 9.772 1.767-.053 3.536-.008 5.304-.008ZM8.036 26.283c2.702-5.282 6.817-8.892 12.502-10.71.58-.186 1.325.064 1.756-.573H70.09c.106.26.345.258.573.31 4.598 1.044 7.525 3.84 8.82 8.375.243.848.085 1.77.517 2.576-.216 2.272-.578 4.501-1.334 6.68-.956 2.758-1.675 5.597-2.591 8.369-1.394 4.21-2.44 8.534-4.153 12.639-2.666 4.735-6.436 8.19-11.61 10.022a16.314 16.314 0 0 1-5.526.962c-14.323-.02-28.648-.067-42.97.02-5.027.03-10.748-3.471-11.542-9.787-.05-.405-.18-.8-.274-1.202.065-2.782.862-5.398 1.72-8.018 2.135-6.544 4.007-13.174 6.315-19.663" fill="#000"/><path d="M64.466 29.592c-2.777 0-5.301-.005-7.826.003-1.628.004-1.622.015-2.086 1.507-1.046 3.354-2.106 6.704-3.147 10.059-.935 3.015-1.855 6.035-2.836 9.228 2.093 0 4.027.024 5.963-.008 1.11-.02 2.414.414 3.282-.196.868-.612.83-1.996 1.164-3.047 1.819-5.743 3.599-11.496 5.486-17.546ZM50.107 60.347c-1.767 0-3.538-.046-5.304.008-4.597.14-8.6-3.938-6.977-9.771 1.24-4.46 2.699-8.858 4.07-13.28a563.274 563.274 0 0 1 2.324-7.376c1.883-5.797 5.88-9.322 11.718-10.872.642-.17 1.283-.17 1.927-.173 3.42-.01 6.84.065 10.26-.024 3.678-.095 7.6 2.817 7.387 7.48-.077 1.68-.492 3.241-.98 4.803-1.923 6.155-3.835 12.314-5.825 18.446-1.869 5.753-5.978 9.197-11.722 10.613-2.21.545-4.58.175-6.878.145Zm-5.801-40.472c-.945 2.977-1.938 6.035-2.876 9.109-.242.79-.826.534-1.29.536-4.188.022-8.378.012-12.567.012-1.357.001-2.713-.002-4.07.003-1.497.004-1.508.006-1.943 1.382a7586.044 7586.044 0 0 0-4.238 13.42c-.613 1.946-1.214 3.896-1.885 6.05 3.322 0 6.438-.009 9.553.006.61.003.763-.34.91-.847.405-1.405.873-2.791 1.359-4.32-1.637-.433-3.286.032-5.02-.33.722-2.286 1.413-4.512 2.13-6.73.338-1.05.322-2.404 1.17-3.05.866-.657 2.168-.209 3.276-.22a514.54 514.54 0 0 1 9.38-.005c.57.004 1.173-.174 1.78.217-.202 1.439-.794 2.787-1.212 4.174-1.097 3.65-2.188 7.307-3.439 10.904-1.703 4.89-4.871 8.374-9.985 9.886-.992.292-1.974.305-2.966.313-3.186.028-6.385-.174-9.555.05-5.902.418-9.64-4.417-7.639-10.463 2.1-6.347 4.176-12.704 6.047-19.119 1.229-4.211 3.705-7.285 7.377-9.503 1.837-1.11 3.812-1.821 5.997-1.82h18.762c.292 0 .594-.024.944.345" fill="#E62727"/><path d="M64.466 29.592c-1.887 6.05-3.666 11.803-5.486 17.546-.333 1.051-.296 2.435-1.165 3.047-.866.61-2.17.176-3.281.196-1.936.032-3.87.008-5.963.008.981-3.193 1.9-6.213 2.836-9.228 1.041-3.355 2.102-6.705 3.147-10.059.464-1.492.457-1.503 2.085-1.507 2.525-.008 5.052-.003 7.827-.003" fill="#000"/></svg>