<svg width="80" height="80" xmlns="http://www.w3.org/2000/svg"><path d="M68.93 30.327c-.044-.103-.07-.206-.115-.314-2.703-6.352-12.962-8.28-24.789-5.368l-1.94-1.163c5.822-2.407 11.623-3.669 16.48-3.324 7.249.514 10.794 4.478 10.364 10.169ZM58.415 43.676c-7.573 9.274-21.31 15.69-30.616 15.027-9.306-.662-10.724-8.737-3.137-18.006.15-.193.314-.376.474-.569V51.76a3.45 3.45 0 0 0 1.604 3.072 3.38 3.38 0 0 0 3.439.095l27.908-16.329a3.215 3.215 0 0 0 1.538-2.807 3.212 3.212 0 0 0-1.64-2.749L46.68 26.78a25.069 25.069 0 0 1 8.592-1.1c9.306.675 10.72 8.728 3.142 17.997Zm-35.45 20.015c-8.557-.617-11.965-6.035-9.75-13.42a8.427 8.427 0 0 0 .66 3.502c3.346 7.892 18.36 8.948 33.532 2.411.315-.134.625-.281.931-.411-8.53 5.288-18.018 8.442-25.391 7.918h.017Zm9.863-41.274L51.542 33.74a2.209 2.209 0 0 1 1.11 1.874 2.21 2.21 0 0 1-1.03 1.92L32.713 48.602a2.303 2.303 0 0 1-2.343-.073 2.35 2.35 0 0 1-1.087-2.097l-.088-21.984a2.446 2.446 0 0 1 1.241-2.043 2.4 2.4 0 0 1 2.375.012h.017Zm43.307 4.102c-3.921-9.256-20.215-11.296-37.843-5.305l-7.834-4.73a3.538 3.538 0 0 0-3.518-.032 3.606 3.606 0 0 0-1.835 3.03v7.641C9.923 35.87 1.109 48.441 4.863 57.307 9.21 67.54 28.685 68.94 48.36 60.44s32.118-23.706 27.775-33.92Z" fill="#FFF" fill-rule="nonzero"/></svg>