<svg width="54" height="16" xmlns="http://www.w3.org/2000/svg" xmlns:xlink="http://www.w3.org/1999/xlink"><defs><path id="a" d="M.018.095h23.564v14.713H.018z"/></defs><g fill="none" fill-rule="evenodd"><g transform="translate(26.885 .509)"><mask id="b" fill="#fff"><use xlink:href="#a"/></mask><path d="M13.068 1.531c-.103-.109-.192-.102-.278-.102H7.264c-.643 0-1.225.21-1.766.537-1.082.653-1.811 1.559-2.173 2.799-.551 1.89-1.163 3.762-1.781 5.63-.59 1.782.512 3.206 2.25 3.083.934-.066 1.876-.007 2.814-.015.292-.002.582-.006.874-.092 1.506-.445 2.44-1.472 2.94-2.912.37-1.06.69-2.137 1.014-3.212.123-.408.297-.805.357-1.229-.179-.115-.357-.063-.524-.064-.921-.006-1.842-.01-2.763.001-.327.004-.71-.128-.965.065-.25.19-.245.59-.345.899-.211.653-.415 1.309-.627 1.982.51.106.996-.03 1.478.097-.143.45-.28.859-.4 1.273-.043.149-.088.25-.268.25-.917-.005-1.835-.003-2.814-.003.198-.634.375-1.208.556-1.782.415-1.318.83-2.635 1.248-3.952.128-.406.131-.406.572-.408h1.2c1.233 0 2.467.003 3.7-.004.137 0 .309.075.38-.158.277-.905.569-1.806.847-2.683m1.709 11.92c.677.01 1.375.118 2.026-.042 1.692-.417 2.902-1.432 3.452-3.126.587-1.806 1.15-3.62 1.716-5.433.144-.46.266-.92.289-1.415.062-1.374-1.093-2.231-2.176-2.203-1.007.026-2.015.004-3.022.007-.19 0-.379 0-.568.051-1.72.456-2.897 1.495-3.451 3.202-.235.722-.46 1.447-.685 2.173-.404 1.302-.833 2.598-1.199 3.911-.478 1.718.702 2.92 2.056 2.878.52-.015 1.041-.002 1.562-.002M2.385 3.418C3.181 1.863 4.393.8 6.068.264c.17-.055.39.02.517-.169h14.078c.031.077.102.076.168.092 1.355.307 2.217 1.13 2.599 2.466.071.25.025.522.152.76-.064.669-.17 1.325-.393 1.967-.282.812-.493 1.648-.763 2.465-.41 1.24-.719 2.513-1.223 3.722-.786 1.395-1.896 2.413-3.42 2.953a4.805 4.805 0 0 1-1.627.283c-4.22-.006-8.439-.02-12.658.005-1.48.01-3.165-1.022-3.399-2.882-.015-.12-.053-.236-.08-.354.019-.82.253-1.59.506-2.362.63-1.927 1.18-3.88 1.86-5.792" fill="#000" mask="url(#b)"/></g><path d="M48.088 12.076c.504-1.209.813-2.482 1.223-3.722.27-.817.481-1.653.763-2.465.223-.642.33-1.298.393-1.968.468.004.936.002 1.405.012.627.013 1.118.29 1.522.767.182.215.226.497.411.701v1.252c-.31.468-.344 1.03-.511 1.546-.176.54-.295 1.1-.458 1.645-.436 1.466-1.835 2.285-3.033 2.235-.571-.023-1.144-.003-1.715-.003M21.335 6.874h1.429c.128 0 .229-.02.276-.173.125-.406.265-.808.409-1.24-.507-.067-.971-.016-1.433-.036-.183-.008-.239.118-.284.248-.129.371-.248.746-.397 1.2m3.178 3.326c.34 0 .65-.011.958.004.234.011.335-.084.394-.308.17-.65.375-1.293.546-1.944.187-.712-.144-1.163-.866-1.191a13.969 13.969 0 0 0-1.197 0c-.774.037-1.324.455-1.59 1.147-.278.72-.445 1.483-.666 2.245.316.086.612.013.899.052.292.039.393-.112.458-.358a55.86 55.86 0 0 1 .439-1.544c.043-.145.078-.314.292-.302.308.016.62-.04.953.044l-.62 2.155M10.256 5.307c-.355 0-.616.024-.87-.007-.307-.037-.426.099-.51.372-.337 1.107-.709 2.204-1.036 3.314-.114.386-.304.758-.325 1.213 1.16 0 2.286-.004 3.412.003.2 0 .269-.104.319-.27.135-.446.296-.886.416-1.336.274-1.027.497-.854-.708-.877-.211-.004-.315.093-.371.284-.073.248-.168.49-.24.739-.037.13-.085.223-.24.214-.307-.019-.62.045-.968-.055l1.12-3.594m7.698 2.427.744-2.427c-.381 0-.69.01-1-.004-.193-.008-.268.075-.321.253-.234.777-.481 1.55-.728 2.322-.114.356.001.648.246.898.148.152.375.16.568.254-.035.4-.27.743-.294 1.152.082.006.15.02.218.016.326-.019.717.125.96-.064.193-.15.225-.52.306-.799.064-.222.173-.338.415-.394.654-.153 1.096-.562 1.304-1.209.164-.51.337-1.016.487-1.53.296-1.009.471-.886-.692-.897-.204-.002-.312.066-.37.274-.12.432-.27.855-.407 1.283-.31.968-.31.969-1.338.917-.016 0-.031-.014-.098-.045m-14.58 2.465c.29 0 .6-.006.909.002.18.005.265-.054.325-.243.094-.293.095-.673.328-.856.255-.202.635-.056.96-.074.987-.054 1.578-.487 1.892-1.414.116-.343.227-.689.317-1.04.2-.776-.167-1.255-.971-1.266-.641-.008-1.284.02-1.924-.01-.33-.015-.444.119-.532.41-.41 1.355-.842 2.702-1.27 4.05-.04.13-.11.252-.033.441m8.289-.04c.34.074.653.016.96.043.21.019.319-.07.376-.26.07-.232.153-.459.217-.692.036-.13.083-.23.236-.221.307.016.62-.051.93.047.008.393-.26.714-.238 1.123.308 0 .602-.01.895.003.227.01.333-.07.401-.299.337-1.124.702-2.24 1.043-3.364.21-.696-.161-1.205-.887-1.23a13.436 13.436 0 0 0-1.145.001c-.767.04-1.347.437-1.6 1.133-.443 1.214-.793 2.462-1.188 3.716M29.27 3.927c-.68 1.912-1.232 3.865-1.861 5.792-.252.772-.487 1.543-.507 2.362l-13.347-.006c-3.598 0-7.195.001-10.793-.002-.242 0-.49.005-.726-.043C.697 11.762.21 10.664.46 9.538c.26-1.164.598-2.312.918-3.462.385-1.386 1.785-2.164 2.918-2.16 8.325.026 16.65.012 24.975.011" fill="#2785C3"/><path d="M45.892 4.902c-.818 0-1.562-.001-2.306.001-.479.002-.477.005-.614.444-.308.988-.62 1.974-.927 2.963-.276.888-.546 1.777-.835 2.718.616 0 1.186.007 1.756-.003.327-.005.711.123.967-.057.255-.18.245-.588.343-.898.535-1.691 1.06-3.386 1.616-5.168m-4.23 9.059c-.52 0-1.042-.013-1.562.002-1.354.041-2.534-1.16-2.056-2.878.366-1.313.796-2.609 1.2-3.912.224-.725.45-1.45.684-2.172.555-1.707 1.732-2.746 3.451-3.202.19-.05.378-.05.568-.051 1.007-.003 2.015.02 3.022-.007 1.084-.028 2.238.83 2.176 2.203-.023.495-.145.955-.289 1.415-.566 1.813-1.13 3.627-1.716 5.433-.55 1.694-1.76 2.709-3.452 3.126-.651.16-1.35.051-2.026.043M39.953 2.04c-.278.877-.57 1.778-.847 2.683-.07.233-.243.157-.38.158-1.233.007-2.467.004-3.7.004h-1.2c-.44.002-.444.002-.572.408-.418 1.317-.833 2.634-1.248 3.952-.18.574-.358 1.148-.555 1.782.978 0 1.896-.002 2.813.002.18.001.225-.1.268-.25.12-.413.257-.822.4-1.272-.482-.127-.967.01-1.478-.097.212-.673.416-1.33.627-1.982.1-.31.095-.708.345-.899.255-.193.638-.061.965-.065.92-.01 1.842-.007 2.763 0 .167 0 .345-.052.524.063-.06.424-.234.82-.357 1.23-.323 1.074-.644 2.151-1.013 3.211-.502 1.44-1.435 2.467-2.941 2.912-.292.086-.582.09-.874.092-.938.008-1.88-.051-2.814.015-1.738.123-2.84-1.301-2.25-3.082.618-1.87 1.23-3.742 1.781-5.631.362-1.24 1.092-2.146 2.173-2.8.54-.326 1.123-.536 1.766-.536h5.526c.086 0 .175-.007.278.102" fill="#E62727"/><path d="M45.892 4.902c-.556 1.782-1.08 3.477-1.616 5.168-.098.31-.088.717-.343.898-.256.18-.64.052-.967.057-.57.01-1.14.003-1.756.003.289-.94.56-1.83.835-2.718.307-.989.619-1.975.927-2.963.137-.44.135-.442.614-.444.744-.002 1.488 0 2.306 0" fill="#000"/><path d="M13.714 7.763c.016-.094.024-.163.04-.23.238-1.033.338-1.097 1.452-.935l-.055.197c-.31 1.034-.31 1.034-1.437.968M5.366 7.787c-.055-.177 0-.25.025-.331.315-1.011.315-1.012 1.436-.863-.091.314-.186.625-.272.939-.046.172-.136.263-.326.257-.29-.01-.58-.002-.863-.002" fill="#2785C3"/></g></svg>