<svg width="80" height="80" fill="none" xmlns="http://www.w3.org/2000/svg"><path fill-rule="evenodd" clip-rule="evenodd" d="M40.133 79.999a27.9 27.9 0 1 1 27.666-27.898c.064 15.343-12.322 27.834-27.665 27.898h-.002Zm0-52.866c-13.703.114-24.753 11.254-24.753 24.96 0 13.703 11.049 24.844 24.752 24.957v.008h.009c13.787-.002 24.962-11.18 24.96-24.967-.003-13.787-11.181-24.962-24.968-24.96v.002Zm8.384 15.25c-9.491.596-13.346-10.68-4.758-11.217 9.145-.573 14.04 10.602 4.758 11.215v.002ZM38.316 21.267a27.349 27.349 0 0 0-13.523 4.118c-.6-1.91-3.247-9.036-10.067-12.99a14.036 14.036 0 0 1 11.578 7.373S23.66 8.524 24.385 0c5.362 6.606 9.484 17.405 9.484 17.405a14.218 14.218 0 0 1 5.428-12.68c-3.466 7.26-1.522 14.763-.98 16.542h-.002Z" fill="#F79520"/></svg>