<svg data-name="3" xmlns="http://www.w3.org/2000/svg" width="216" height="94"><path data-name="2" d="m214.931 58.729-.65-3.729L213 58.729h-1L210.733 55l-.659 3.729h-1.12l1-5.888h1.119l1.4 4.121 1.41-4.121H215l1 5.888h-1.069zm-7.406 0h-1.159v-4.808H205.3v-1.109h3.328v1.109h-1.1v4.808zm-15.8 10.675H188.5v-7.232l-5-9.448h3.468l3.169 6 3.158-6h3.428l-5 9.458V69.4zm-9.2 0-1.329-3.434h-6.927l-1.359 3.424h-3.358l6.516-16.67h3.279l6.536 16.68h-3.358zm-4.8-12.255-2.279 5.72h4.547zM159.7 52.724h3.209v13.609h4.707v3.022h-7.946zm-5.527 9.39a14.808 14.808 0 0 1-3.408.265v7.064h-3.238V52.724h3.388a11.48 11.48 0 0 1 4 .5 4.07 4.07 0 0 1 2 1.629 4.972 4.972 0 0 1 .71 2.708 4.483 4.483 0 0 1-.93 2.943 4.822 4.822 0 0 1-2.521 1.61zm-.459-6a4.411 4.411 0 0 0-2.059-.334h-.91l.02 3.454h1a5.685 5.685 0 0 0 1.689-.167 1.5 1.5 0 0 0 .749-.559 1.625 1.625 0 0 0 .27-.982 1.511 1.511 0 0 0-.758-1.407zm-24.917-1.06a5.757 5.757 0 0 0-5.867 5.641v.158a6 6 0 0 0 .749 3.022 5.361 5.361 0 0 0 2.129 2.07 6.288 6.288 0 0 0 3.058.756 6.428 6.428 0 0 0 2.629-.53 9.386 9.386 0 0 0 2.619-1.963l2.238 2.3a12.253 12.253 0 0 1-3.628 2.551 10.083 10.083 0 0 1-3.9.717 9.091 9.091 0 0 1-6.636-2.463 8.84 8.84 0 0 1 1.949-14.149 9.617 9.617 0 0 1 4.707-1.207 10.072 10.072 0 0 1 7.546 3.414l-2.3 2.13a7.206 7.206 0 0 0-5.29-2.442zm7.606.3v.02l-.01-.011zm-22.677-2.993h3.278v17.024h-3.278V52.37zm-5.787 17.024h-3.3V55.54h-3.079v-3.17h9.585v3.17h-3.205v13.854zm-9.455 0-1.359-3.5H90.05l-1.409 3.5h-3.429l6.737-17.024h3.3l6.7 17.024h-3.458zm-4.837-12.51-2.329 5.887h4.628zM78.166 58.6l-3.688 10.793h-2.9L67.96 58.649l-1.9 10.793h-3.258l3.008-17.073h3.218l4 11.873 4.058-11.873h3.218l2.909 17.024h-3.189zm-21.1 10.175a8.839 8.839 0 0 1-4.4 1.05 9.917 9.917 0 0 1-4.817-1.148 8.5 8.5 0 0 1-3.338-3.326 9 9 0 0 1-1.229-4.592 8.448 8.448 0 0 1 2.278-5.888 9.075 9.075 0 0 1 7-2.943 10.875 10.875 0 0 1 4.228.824 9.7 9.7 0 0 1 3.278 2.394l-2.328 2.257a6.925 6.925 0 0 0-5.148-2.3 5.935 5.935 0 0 0-4.287 1.668 5.411 5.411 0 0 0-1.729 4.052 5.552 5.552 0 0 0 1.789 4.18 6.153 6.153 0 0 0 4.427 1.717 5.505 5.505 0 0 0 2.889-.706 5 5 0 0 0 1.889-2.208h-5v-3.042H61.3v.717a8.583 8.583 0 0 1-4.232 7.295zm-19.09-2.885h-7l-1.409 3.5h-3.468l6.686-17.024h3.348L42.8 69.39h-3.428zm-3.488-9.007L32.16 62.77h4.64zm-13.982 12.51-3.9-7.212h-.3v7.212h-3.318V52.37h3.5a11.777 11.777 0 0 1 4.088.5 4.175 4.175 0 0 1 2 1.668 5.042 5.042 0 0 1 .739 2.767 4.643 4.643 0 0 1-.819 2.806 5 5 0 0 1-2.509 1.717l4.108 7.565h-3.588zm-.46-12.118a1.591 1.591 0 0 0-1.079-1.57 6.126 6.126 0 0 0-1.759-.166H16.3l-.01 3.483h1a4.07 4.07 0 0 0 2.169-.4 1.51 1.51 0 0 0 .589-1.346zM6.774 61.916a15.026 15.026 0 0 1-3.478.265v7.212H0V52.37h3.5a11.737 11.737 0 0 1 4.1.511 4.145 4.145 0 0 1 2 1.668 5.086 5.086 0 0 1 .73 2.757 4.577 4.577 0 0 1-.95 2.943 4.924 4.924 0 0 1-2.604 1.668zm-.5-6.073a4.506 4.506 0 0 0-2.049-.3H3.3v3.483h1a5.787 5.787 0 0 0 1.719-.177 1.517 1.517 0 0 0 .76-.579 1.663 1.663 0 0 0 .279-.981 1.542 1.542 0 0 0-.782-1.445z" fill="#fff" fill-rule="evenodd"/><path data-name="1" d="M171.485 94a32.782 32.782 0 1 1 32.507-32.781A32.645 32.645 0 0 1 171.485 94zm0-62.117a29.327 29.327 0 0 0 0 58.652v.01h.01a29.332 29.332 0 0 0-.01-58.664zm9.852 17.918c-11.153.7-15.682-12.549-5.591-13.18 10.746-.673 16.496 12.457 5.591 13.179zM169.35 24.99a32.136 32.136 0 0 0-15.891 4.838c-.705-2.244-3.814-10.617-11.829-15.264a16.493 16.493 0 0 1 13.606 8.664s-3.108-13.211-2.254-23.227c6.3 7.762 11.143 20.452 11.143 20.452a16.708 16.708 0 0 1 6.377-14.9c-4.072 8.53-1.788 17.347-1.152 19.437z" fill="#f79520" fill-rule="evenodd"/></svg>