<svg width="80" height="47" fill="none" xmlns="http://www.w3.org/2000/svg"><path d="M22.59 0H0v46.446h10.897V9.902h11.629c4.85 0 8.097 3.396 8.097 7.507 0 4.11-3.25 7.436-8.098 7.444H14.22l7.69 9.868.704.031c12.344 0 18.981-7.78 18.981-17.343C41.595 7.846 34.951 0 22.591 0Z" fill="#2A4349"/><path d="M80 32.79c0 9.887-8.93 13.646-19.152 13.646a41.48 41.48 0 0 1-19.903-4.78l4.022-8.867c4.852 2.298 10.845 4.022 15.881 4.022 6.505 0 8.037-2.234 8.037-4.022 0-7.845-26.954-3.383-26.954-20.286 0-8.03 7.916-12.499 19.074-12.499A38.395 38.395 0 0 1 78.823 4.09l-3.767 8.413a35.857 35.857 0 0 0-14.094-3.25c-4.015 0-7.973.71-7.973 3.704C53.018 19.397 80 16.97 80 32.789Z" fill="#2A4349"/></svg>