<svg width="80" height="80" fill="none" xmlns="http://www.w3.org/2000/svg"><path d="M1.229 17.58h9.216c3.687-.122 7.25.246 10.692 1.352 2.212.86 3.932 2.458 5.161 4.424 1.352 2.212 1.966 4.793 1.843 7.374.123 2.826-.737 5.652-2.457 7.864-1.72 2.09-4.056 3.687-6.76 4.424-2.949.615-6.02.86-9.093.738v19.047H1.229V17.581Zm8.725 17.697h2.703c1.475.122 3.073-.123 4.547-.492.86-.246 1.475-.86 1.966-1.475.492-.737.738-1.72.738-2.58.123-1.598-.615-3.073-2.09-3.81-1.72-.737-3.686-1.106-5.53-.86H9.832l.123 9.216Z" fill="url(#a)"/><path d="M10.445 17.58c3.687-.122 7.25.246 10.692 1.352 2.212.86 3.932 2.458 5.161 4.424 1.352 2.212 1.966 4.793 1.843 7.374.123 2.826-.737 5.652-2.457 7.864-1.72 2.09-4.056 3.687-6.76 4.424-2.949.615-6.02.86-9.093.738v19.047H1.229V17.581h9.216Zm-.491 17.697h2.703c1.475.122 3.073-.123 4.547-.492.86-.246 1.475-.86 1.966-1.475.492-.737.738-1.72.738-2.58.123-1.598-.615-3.073-2.09-3.81-1.72-.737-3.686-1.106-5.53-.86H9.832l.123 9.216Zm.369-18.925H0V64.4h11.183V45.23c2.703.122 5.53-.246 8.233-.738 2.95-.737 5.53-2.458 7.373-4.793 1.844-2.457 2.827-5.53 2.827-8.725.123-2.826-.614-5.652-2.09-8.11-1.35-2.212-3.317-3.933-5.775-4.916-3.564-1.229-7.373-1.72-11.183-1.474l-.245-.123Zm.737 10.937h1.229c1.597-.123 3.318.123 4.792.737.983.615 1.598 1.598 1.475 2.826 0 .615-.123 1.352-.492 1.844a3.84 3.84 0 0 1-1.351 1.106 11.398 11.398 0 0 1-4.056.368h-1.474l-.123-6.881Z" fill="#000"/><path d="m75.576 24.954-6.39 6.39c-3.318-3.932-8.357-6.267-13.518-6.39a15.19 15.19 0 0 0-11.183 4.424c-2.949 2.826-4.423 6.882-4.3 10.937-.123 4.178 1.597 8.233 4.67 11.183 3.071 3.072 7.25 4.67 11.55 4.547 2.704.122 5.285-.615 7.497-1.844 2.212-1.474 3.932-3.44 4.915-5.898H55.791v-8.234h22.857v1.72a21.402 21.402 0 0 1-2.703 11.06c-1.844 3.441-4.67 6.268-7.988 8.234-3.564 1.966-7.496 2.95-11.551 2.826-4.424.123-8.848-.983-12.658-3.072-3.686-1.966-6.882-4.915-8.97-8.602a24.523 24.523 0 0 1-3.196-12.043c-.123-5.776 2.09-11.429 6.022-15.73 4.67-5.284 11.428-8.11 18.433-7.864 3.81 0 7.619.737 11.06 2.212 3.195 1.474 6.021 3.563 8.479 6.144Z" fill="url(#b)"/><path d="M55.914 16.352c3.81 0 7.62.737 11.06 2.212 3.318 1.474 6.144 3.686 8.602 6.39l-6.39 6.39c-3.318-3.932-8.357-6.267-13.518-6.39a15.19 15.19 0 0 0-11.182 4.424c-2.95 2.826-4.424 6.882-4.302 10.937-.122 4.178 1.598 8.233 4.67 11.183 3.072 3.072 7.25 4.67 11.552 4.547 2.703.122 5.284-.615 7.496-1.844 2.212-1.474 3.932-3.44 4.915-5.898H55.791v-8.234h22.857v1.72a21.402 21.402 0 0 1-2.703 11.06c-1.844 3.441-4.67 6.268-7.988 8.234-3.564 1.966-7.496 2.95-11.551 2.826-4.424.123-8.848-.983-12.658-3.072-3.686-1.966-6.882-4.915-8.97-8.602a24.523 24.523 0 0 1-3.196-12.043c-.123-5.776 2.09-11.429 6.022-15.73 4.67-5.284 11.428-8.11 18.433-7.864l-.123-.246Zm0-.983c-7.373-.246-14.5 2.826-19.293 8.356-4.179 4.547-6.39 10.445-6.39 16.59 0 4.424 1.228 8.848 3.44 12.657 2.212 3.933 5.407 7.128 9.217 9.217a26.186 26.186 0 0 0 13.272 3.195c4.3.123 8.48-.983 12.166-2.95 3.563-2.088 6.513-5.038 8.479-8.601C78.894 50.269 80 46.09 80 41.913v-3.196H54.685V49.41h12.289c-.983 1.474-2.212 2.703-3.687 3.563-2.089 1.23-4.547 1.844-6.881 1.72-3.933.124-7.865-1.351-10.692-4.177-2.826-2.704-4.3-6.39-4.3-10.2-.124-3.687 1.474-7.373 4.177-9.831 2.704-2.704 6.514-4.178 10.323-4.055 4.916 0 9.462 2.089 12.657 5.652l.86.983.984-.86 6.39-6.39.86-.86-.86-.86c-2.458-2.827-5.53-5.039-8.97-6.636C64.024 15.86 59.968 15 55.79 15l.123.369Z" fill="#000"/><defs><linearGradient id="a" x1="14.693" y1="64.12" x2="14.693" y2="16.285" gradientUnits="userSpaceOnUse"><stop stop-color="#DFDCDC"/><stop offset="1" stop-color="#fff"/></linearGradient><linearGradient id="b" x1="55.118" y1="64.12" x2="55.118" y2="16.285" gradientUnits="userSpaceOnUse"><stop stop-color="#D02627"/><stop offset=".99" stop-color="#ED2A24"/></linearGradient></defs></svg>