<svg width="80" height="80" fill="none" xmlns="http://www.w3.org/2000/svg"><path fill-rule="evenodd" clip-rule="evenodd" d="M40.269 0C62.282 0 80 17.718 80 40.269 80 62.282 62.282 80 40.269 80c-14.497 0-26.31-6.98-33.826-18.255 6.98-9.664 13.423-20.403 19.329-31.678 0 0-1.61 35.436 10.738 35.973 9.665 2.148 22.014-27.92 22.014-27.92-1.074 0 9.127 17.719 11.812 16.108 1.073-.537-1.611-4.295-3.759-9.127-2.147-4.832-3.221-11.276-3.758-13.96-.537-4.295 0-5.906-3.222-6.443-2.684-.537-3.758 1.61-5.369 5.37-4.832 10.737-13.96 29.53-17.181 28.992-4.832-1.073-3.758-41.342-3.758-44.563.536-3.222 0-4.833-2.148-5.906-3.758 0-5.37 4.295-6.443 6.98-8.054 13.96-15.57 26.845-23.087 36.51C.537 48.322 0 44.026 0 40.267 0 17.719 17.718 0 40.269 0Z" fill="#F29201"/></svg>