<svg width="49" height="80" fill="none" xmlns="http://www.w3.org/2000/svg"><path d="M48.564 43.573V18.056c0-7.486-2.28-10.87-4.895-13.173C40.704 2.276 35.406 0 24.282 0S7.86 2.285 4.895 4.883C2.28 7.186 0 10.57 0 18.056v26.03A17.924 17.924 0 0 0 5.75 57.24l6.969 6.441a1.58 1.58 0 0 0 2.343-.217L20.97 55.5a1.58 1.58 0 0 0-.198-2.103l-4.94-4.563a10.548 10.548 0 0 1-3.381-7.738V23.41c0-5.359 2.056-7.654 2.835-8.26.896-.698 2.793-2.36 8.997-2.36s8.101 1.662 8.997 2.36c.78.606 2.835 2.901 2.835 8.26v16.684c0 2.714-.873 5.356-2.49 7.535L18.91 67.484a1.583 1.583 0 0 0 .198 2.105l5.174 4.798 2.083 1.926 1.367 1.265 1.71 1.58c.582.541 1.35.842 2.145.842h13.89a1.58 1.58 0 0 0 1.073-2.742L35.533 67.062l9.503-12.814a17.915 17.915 0 0 0 3.528-10.675Z" fill="#FF7800"/></svg>