<svg width="271" height="145" xmlns="http://www.w3.org/2000/svg"><path d="M56.756 117.637c-1.385-3.976-10.225-17.886-14.37-23.293 2.929-1.338 4.734-1.89 7.12-4.94 3.096-3.349 3.349-9.214 3.349-12.236-.908-11.31-12.554-15.79-19.42-15.585H1.215C.636 61.583 0 62.677 0 63.388v54.67c0 .468.29 1.806 1.085 1.759H15.96c1.001-.543 1.086-1.759 1.132-2.432 0 0 .16-17.54.16-19.833 0 0 1.852.056 4.742.056 2.89 0 6.287 5.277 6.913 6.034l8.504 12.152s2.638 3.892 3.05 3.892h15.81c.907-.29.785-1.085.486-2.049ZM30.179 83.932s-11.45.046-12.826 0v-8.84s10.833.149 12.985.149c2.142 0 5.37 1.179 5.37 4.34 0 3.163-3.995 4.35-5.53 4.35Zm78.908 23.48v10.833c0 .86-.711 1.572-1.572 1.572H60.442c-.861 0-1.572-.711-1.572-1.572V63.304c0-.86.711-1.571 1.572-1.571h46.203c.86 0 1.572.71 1.572 1.571v10.16c0 .86-.711 1.571-1.572 1.571H76.167v7.568h28.327c.86 0 1.571.711 1.571 1.572v10.543c0 .86-.71 1.571-1.571 1.571H76.167v9.57h31.348a1.547 1.547 0 0 1 1.572 1.553Zm51.517-38.785c-7.4-7.596-21.254-7.044-21.254-7.044l-21.226.093-3.06.047c-.86 0-1.571.711-1.571 1.572v54.941c0 .86.71 1.571 1.572 1.571h21.497s7.793.085 9.804-.42c9.299-.842 13.826-6.203 16.006-8.71 2.432-2.769 6.539-9.299 6.539-20.693 0-11.394-3.47-16.399-8.307-21.357Zm-10.206 29.917c-1.759 5.95-7.634 7.456-8.897 7.371h-10.889V75.727c0-.084 6.37.085 9.383.085 3.012 0 5.894 1.197 6.642 1.786 6.876 5.36 4.098 19.524 3.76 20.946Zm120.378-70.218c-.253-1.506-2.348-19.935-2.489-22.451-.42-4.107-2.292-3.939-4.63-3.77-7.746-.019-63.258.252-70.957 0-6.193-.206-25.885-1.927-27.643-2.096-1.759-.168-2.432 2.433-2.77 3.686 0 0-8.793 31.582-9.719 34.772-.926 3.18 1.17 4.191 2.348 4.696 0 0 23.125 8.625 25.052 9.215 0 0 1.59.673 3.602.42 2.011-.252 2.844-3.6 3.012-3.853.169-.253 1.254-3.686 1.675-4.444 2.516-4.696 5.528-4.444 7.54-4.612l28.57-1.759s.252.842.336 1.422c-3.77 4.107-15.248 19.44-17.175 22.368-7.203 10.393-20.104 29.655-24.884 48.841-4.771 16.67-4.023 27.644-4.191 30.497-.168 2.844 2.18 3.18 3.517 3.18 0 0 39.459-.42 41.05-.504 1.59-.085 2.095-1.422 2.095-2.349 0-.926.084-4.939.42-12.647.422-12.395 2.517-21.535 3.434-25.137 4.94-19.102 13.658-32.34 17.091-38.205 3.434-5.865 9.383-13.91 22.452-30.328 1.506-1.75 2.685-3.256 2.264-6.942Zm-96.346 7.625-6.286-13.406 7.736-11.31 7.175 12.236-8.625 12.48Z" fill="#DA2128" fill-rule="nonzero"/></svg>