<svg width="76" height="80" fill="none" xmlns="http://www.w3.org/2000/svg"><path d="M4.37 80h48.382a4.465 4.465 0 0 0 4.507-4.417V72.08H.001v3.502A4.348 4.348 0 0 0 4.37 80Zm30.757-53.807H22.132v19.492h12.995V26.193Zm14.417 0H38.376v19.492h11.168V26.193Zm-30.66 0H7.716v19.492h11.168V26.193Zm52.182 6.497H60.508v15.635h10.558V32.69Z" fill="#FF4949"/><path d="M57.26 4.417A4.465 4.465 0 0 0 52.751 0H4.37A4.348 4.348 0 0 0 0 4.417v64.415h57.258V4.417h.002ZM6.057 15.026h45.005a1.624 1.624 0 1 1 0 3.248H6.058a1.625 1.625 0 0 1 0-3.248h-.001Zm45.005 41.827H6.058a1.625 1.625 0 0 1 0-3.249h45.005a1.625 1.625 0 0 1 0 3.249h-.001Zm1.73-9.543a1.625 1.625 0 0 1-1.625 1.624H6.092a1.624 1.624 0 0 1-1.624-1.624V24.569a1.624 1.624 0 0 1 1.624-1.625h45.076a1.623 1.623 0 0 1 1.624 1.625V47.31Zm14.01-33.498v17.051h3.25v-16.92c3.045-.632 5.53-3.426 5.53-6.769a6.904 6.904 0 1 0-8.78 6.638Z" fill="#FF4949"/><path d="M10.335 32.1h3.276c.53 0 .924.145 1.18.433.255.289.383.662.383 1.12v1.044c0 .547-.105.97-.316 1.269-.21.298-.626.447-1.247.447h-3.276V32.1Zm2.75 1.194h-1.127v1.91h1.127c.26 0 .436-.066.526-.2a.877.877 0 0 0 .135-.5v-.508a.877.877 0 0 0-.135-.5c-.09-.134-.266-.202-.526-.202Zm-2.9 6.716h.15v-3.462h4.253c.57 0 .992.122 1.262.365.27.244.406.61.406 1.097v2h.15v-2c0-.517-.15-.913-.45-1.186-.301-.274-.757-.41-1.368-.41h-.166c.361-.11.601-.311.722-.605.12-.293.18-.669.18-1.127v-1.03c0-.487-.14-.892-.42-1.216-.281-.323-.712-.485-1.293-.485h-3.426v8.06-.001Zm1.232 1.343H9.103c-.19 0-.328-.042-.413-.127-.086-.084-.128-.221-.128-.41v-9.67c0-.19.042-.326.128-.41.085-.085.222-.128.413-.128h5.004c1.122 0 1.896.232 2.322.694.425.463.638 1.062.638 1.798v.687c0 .418-.062.773-.188 1.067a1.165 1.165 0 0 1-.653.634c.54.06.979.279 1.315.657.335.378.503.88.503 1.507v3.164c0 .189-.043.326-.128.41-.085.085-.223.127-.413.127h-2.33c-.19 0-.327-.042-.412-.127-.086-.084-.128-.221-.128-.41v-2.283c0-.22-.043-.38-.128-.485-.085-.105-.233-.157-.443-.157h-2.104v2.925c0 .189-.043.326-.128.41-.085.085-.223.127-.413.127Zm21.345 0h-8.289c-.206 0-.355-.042-.447-.127-.093-.084-.139-.221-.139-.41v-9.67c0-.19.046-.326.139-.41.092-.085.241-.128.447-.128h2.524c.207 0 .356.043.448.127.092.085.139.221.139.41v7.388h2.23v-2.418c0-.189.046-.326.139-.41.092-.085.241-.127.448-.127h2.36c.207 0 .356.042.448.127.093.084.139.221.139.41v4.7c0 .19-.046.327-.139.411-.092.085-.241.127-.447.127Zm-7.1-9.402v8.06h5.992v-3.09h-.162v2.94h-5.667v-7.91h-.163Zm22.441 9.402h-4.992c-1.32 0-2.3-.248-2.94-.746-.639-.497-.958-1.264-.958-2.298v-4.656c0-1.035.32-1.801.959-2.299.639-.497 1.619-.746 2.94-.746h3.961c.2 0 .346.043.436.127.09.085.135.221.135.41v1.806c0 .19-.045.326-.135.41-.09.085-.235.128-.436.128h-3.296c-.328 0-.57.062-.73.186-.158.124-.237.31-.237.56V37.8c0 .25.06.433.182.553.122.119.304.179.547.179h1.537v-2.328c0-.19.045-.326.135-.41.09-.085.235-.128.436-.128h2.456c.2 0 .346.043.436.127.09.085.134.222.134.41v4.612c0 .189-.044.326-.134.41-.09.085-.235.127-.436.127v.001Zm-4.31-1.343h3.153v-3h-.158v2.85h-2.995c-1.067 0-1.783-.133-2.148-.402-.364-.269-.546-.726-.546-1.373v-4.179c0-.656.163-1.121.49-1.395.328-.274.957-.41 1.887-.41h2.741v-.15h-2.741c-1.015 0-1.69.15-2.029.448-.338.298-.507.8-.507 1.507v4.179c0 .348.04.644.119.888.08.244.224.443.436.597.211.154.502.266.871.336.37.07.846.104 1.427.104Z" fill="#000"/></svg>