<svg width="84" height="83" fill="none" xmlns="http://www.w3.org/2000/svg"><path fill-rule="evenodd" clip-rule="evenodd" d="M5.707 9.258c-.114.043 0 61.487 0 61.487h17.784V50.57l1.593-.172s3.816 5.287 6.008 20.26c.05.349 18.962 0 18.962 0s-2.023-18.24-9.043-28.316c-.07-.096 12.611-10.389 5.426-27.838.005 0-7.539-17.023-40.73-5.245Z" fill="#000" stroke="#000" stroke-width="1.33" stroke-miterlimit="3.86"/><path fill-rule="evenodd" clip-rule="evenodd" d="M19.888 20.603s6.435-2.764 6.435 2.85c0 0-.087 6.258-6.344 6.258l-.09-9.108ZM2.051 6.159c-.115.039 0 61.486 0 61.486h17.783v-20.19l1.597-.172s3.814 5.29 6.005 20.26c.051.35 18.958 0 18.958 0s-2.02-18.238-9.042-28.332c-.069-.1 12.611-10.393 5.425-27.837.007.015-7.534-16.994-40.726-5.224v.009Z" fill="#000" stroke="#000" stroke-width="3" stroke-linejoin="round"/><path fill-rule="evenodd" clip-rule="evenodd" d="M19.888 20.603s6.435-2.764 6.435 2.85c0 0-.087 6.258-6.344 6.258l-.09-9.108ZM2.051 6.159c-.115.039 0 61.486 0 61.486h17.783v-20.19l1.597-.172s3.814 5.29 6.005 20.26c.051.35 18.958 0 18.958 0s-2.02-18.238-9.042-28.332c-.069-.1 12.611-10.393 5.425-27.837.007.015-7.534-16.994-40.726-5.224v.009Z" fill="#000" stroke="#000" stroke-width="3" stroke-linejoin="round"/><path fill-rule="evenodd" clip-rule="evenodd" d="M19.888 20.604s6.435-2.764 6.435 2.85c0 0-.087 6.258-6.344 6.258l-.09-9.108ZM2.051 6.16c-.115.039 0 61.077 0 61.077h17.783V47.466l1.597-.172s3.814 4.886 6.005 19.86c.051.35 18.958 0 18.958 0s-2.02-17.837-9.042-27.916c-.069-.1 12.611-10.393 5.425-27.838.007-.01-7.534-17.017-40.726-5.247v.009-.002Z" fill="url(#a)"/><path fill-rule="evenodd" clip-rule="evenodd" d="M15.973 33.066c1.639 0 13.513-.266 13.513-9.645 0-8.74-8.717-9.124-13.513-5.196v14.842Zm7.464 9.476c-2.48.531-4.984.927-7.506 1.188v20.128a.202.202 0 0 1-.193.195H5.083a.199.199 0 0 1-.193-.195s-.02-13.866-.03-27.73V8.42c0-.13.197-.034.197-.034l-.058-.184c14.748-4.626 23.38-3.468 28.332-1.09a13.753 13.753 0 0 1 4.986 3.887c.378.48.711.993.994 1.534.117.218.218.444.302.676 2.924 7.836 1.145 14.112-1.362 18.416a24.78 24.78 0 0 1-3.762 4.952c-.558.564-1.038.995-1.374 1.287-.172.147-.302.253-.395.332 7.694 10.654 9.527 25.39 9.527 25.39s-.07.213-.187.217c0 0-2.713.087-5.45.13-1.254.026-2.51.026-3.765 0-.52 0-.954-.025-1.262-.048a2.99 2.99 0 0 1-.38-.052.994.994 0 0 1-.134-.036.248.248 0 0 1-.152-.172 78.637 78.637 0 0 0-4.74-15.645 50.383 50.383 0 0 0-1.981-4.141c-.254-.468-.458-.82-.603-1.059a9.137 9.137 0 0 1-.157-.238Z" fill="#ED2027"/><path fill-rule="evenodd" clip-rule="evenodd" d="M23.437 42.541c-3.015.655-6.723 1.107-7.506 1.189v20.128a.202.202 0 0 1-.193.195H5.083a.199.199 0 0 1-.193-.195l.82-.948h8.888a.196.196 0 0 0 .194-.193v-20.11a71.84 71.84 0 0 0 7.505-1.188c.039.056.09.135.157.241.138.226.33.555.566.988a50.71 50.71 0 0 1 2.016 4.22 78.626 78.626 0 0 1 4.742 15.63.233.233 0 0 0 .15.169.48.48 0 0 0 .135.042c.089.016.218.034.382.045l1.259.023c.268.014-.368.022 0 .029 1.03.018 2.41 0 3.768 0 2.727-.042 5.448-.126 5.448-.126.115 0 .188-.218.188-.218s-1.833-14.738-9.529-25.393c.095-.072.227-.187.395-.331.338-.302.817-.723 1.375-1.288a24.785 24.785 0 0 0 3.802-4.937c2.507-4.303 4.288-10.567 1.361-18.417a5.063 5.063 0 0 0-.3-.674 9.94 9.94 0 0 0-.995-1.534 9.93 9.93 0 0 0-.429-.518 12.11 12.11 0 0 1 1.568 1.658c.378.48.71.992.994 1.534.117.217.218.443.301.675 2.925 7.836 1.146 14.112-1.361 18.417a24.784 24.784 0 0 1-3.801 4.924c-.558.564-1.038.995-1.374 1.287-.172.148-.302.253-.395.332 7.694 10.654 9.527 25.39 9.527 25.39s-.07.213-.187.217c0 0-2.713.087-5.45.13a91.6 91.6 0 0 1-3.765 0c-.52 0-.954-.025-1.262-.048a2.973 2.973 0 0 1-.38-.052.994.994 0 0 1-.134-.036.248.248 0 0 1-.152-.172l-.175-.862-.302-.022c-.163 0-.3-.03-.38-.045a.543.543 0 0 1-.134-.041.23.23 0 0 1-.151-.169 78.634 78.634 0 0 0-4.741-15.646 51.103 51.103 0 0 0-1.981-4.142l.383-.157Zm3.432-25.357c-2.956-2.239-7.76-1.507-10.896 1.05v14.831c-.524.03-.922 1.206-1.139 1.206V17.09c3.577-2.927 9.34-3.454 12.035.093Z" fill="#000"/><path fill-rule="evenodd" clip-rule="evenodd" d="M72.541 60.466c-.715-1.966-2.465-3.34-5.248-4.125a19.422 19.422 0 0 0-5.196-.644c-3.64 0-6.638.879-8.996 2.634-2.357 1.757-3.524 4.384-3.5 7.882 0 3.537 1.268 6.04 3.804 7.512a17.012 17.012 0 0 0 8.666 2.207c3.168 0 5.769-.582 7.8-1.743 2.026-1.17 3.273-2.69 3.742-4.583h-10.47v-4.8H82V80.24h-6.268l-.954-3.61a20.945 20.945 0 0 1-4.913 2.889c-2.502.978-5.574 1.466-9.217 1.463-5.994 0-10.906-1.32-14.739-3.96-3.993-2.656-5.99-6.283-5.99-10.882 0-4.66 2.018-8.395 6.052-11.2 4.036-2.81 9.363-4.214 15.982-4.214 5.753 0 10.37.93 13.85 2.79 3.482 1.859 5.489 4.166 6.022 6.924l-9.284.025Z" fill="#000" stroke="#000" stroke-width="3" stroke-linejoin="round"/><path fill-rule="evenodd" clip-rule="evenodd" d="M71.854 59.09c-.72-1.96-2.471-3.333-5.252-4.125a19.583 19.583 0 0 0-5.191-.644c-3.647 0-6.644.878-8.996 2.634-2.35 1.757-3.514 4.387-3.49 7.892 0 3.544 1.27 6.045 3.81 7.507a16.89 16.89 0 0 0 8.66 2.21c3.176 0 5.776-.58 7.8-1.741 2.024-1.162 3.273-2.69 3.748-4.583H62.458v-4.8H81.31v15.434h-6.264l-.954-3.608a21.065 21.065 0 0 1-4.912 2.892c-2.495.972-5.567 1.46-9.212 1.46-6 0-10.915-1.32-14.745-3.96-3.99-2.649-5.984-6.279-5.984-10.887 0-4.61 2.026-8.342 6.078-11.197 4.024-2.808 9.35-4.212 15.98-4.212 5.754 0 10.37.93 13.852 2.788 3.482 1.86 5.487 4.168 6.016 6.924l-9.31.016Z" fill="#000" stroke="#000" stroke-width="3" stroke-linejoin="round"/><path fill-rule="evenodd" clip-rule="evenodd" d="M71.854 59.09c-.72-1.96-2.471-3.333-5.252-4.125a19.583 19.583 0 0 0-5.191-.644c-3.647 0-6.644.878-8.996 2.634-2.35 1.757-3.514 4.387-3.49 7.892 0 3.544 1.27 6.045 3.81 7.507a16.89 16.89 0 0 0 8.66 2.21c3.176 0 5.776-.58 7.8-1.741 2.024-1.162 3.273-2.69 3.748-4.583H62.458v-4.8H81.31v15.434h-6.264l-.954-3.608a21.065 21.065 0 0 1-4.912 2.892c-2.495.972-5.567 1.46-9.212 1.46-6 0-10.915-1.32-14.745-3.96-3.99-2.649-5.984-6.279-5.984-10.887 0-4.61 2.026-8.342 6.078-11.197 4.024-2.808 9.35-4.212 15.98-4.212 5.754 0 10.37.93 13.852 2.788 3.482 1.86 5.487 4.168 6.016 6.924l-9.31.016Z" fill="#000" stroke="#000" stroke-width="3" stroke-linejoin="round"/><path fill-rule="evenodd" clip-rule="evenodd" d="M71.854 59.09c-.72-1.96-2.471-3.333-5.252-4.125a19.583 19.583 0 0 0-5.191-.644c-3.647 0-6.644.878-8.996 2.634-2.35 1.757-3.514 4.387-3.49 7.892 0 3.544 1.27 6.045 3.81 7.507a16.89 16.89 0 0 0 8.66 2.21c3.176 0 5.776-.58 7.8-1.741 2.024-1.162 3.273-2.69 3.748-4.583H62.458v-4.8H81.31v15.434h-6.264l-.954-3.608a21.065 21.065 0 0 1-4.912 2.892c-2.495.972-5.567 1.46-9.212 1.46-6 0-10.915-1.32-14.745-3.96-3.99-2.649-5.984-6.279-5.984-10.887 0-4.61 2.026-8.342 6.078-11.197 4.024-2.808 9.35-4.212 15.98-4.212 5.754 0 10.37.93 13.852 2.788 3.482 1.86 5.487 4.168 6.016 6.924l-9.31.016Z" fill="#FFF000"/><path d="M57.434 4.71a10.247 10.247 0 0 1 9.489 6.284 10.316 10.316 0 1 1-9.489-6.285Zm.027 2.028a8.229 8.229 0 0 0-7.14 12.357 8.243 8.243 0 0 0 7.143 4.096 8.233 8.233 0 0 0 7.755-11.418 8.231 8.231 0 0 0-7.755-5.04l-.003.005Zm-2.43 13.71h-2.234V9.568h5.157a4.771 4.771 0 0 1 2.019.38 2.73 2.73 0 0 1 1.232 1.088 3.12 3.12 0 0 1 .416 1.631 2.83 2.83 0 0 1-.777 1.989 3.44 3.44 0 0 1-2.153 1.024c.445.16.839.435 1.146.793.427.568.813 1.165 1.155 1.788l1.284 2.188h-2.745l-.905-1.75a12.746 12.746 0 0 0-1.066-1.74 2.489 2.489 0 0 0-.883-.769 2.617 2.617 0 0 0-1.083-.202h-.573l.01 4.461Zm0-9.143v2.95h1.775a4.18 4.18 0 0 0 1.83-.302c.418-.2.627-.616.627-1.244a1.172 1.172 0 0 0-.546-1.016 3.078 3.078 0 0 0-1.697-.374l-1.99-.014Z" fill="#000" stroke="#000" stroke-width="4"/><path d="M57.434 4.71a10.247 10.247 0 0 1 9.489 6.284 10.316 10.316 0 1 1-9.489-6.285Zm.027 2.028a8.229 8.229 0 0 0-7.14 12.357 8.243 8.243 0 0 0 7.143 4.096 8.233 8.233 0 0 0 7.755-11.418 8.231 8.231 0 0 0-7.755-5.04l-.003.005Zm-2.43 13.71h-2.234V9.568h5.157a4.771 4.771 0 0 1 2.019.38 2.73 2.73 0 0 1 1.232 1.088 3.12 3.12 0 0 1 .416 1.631 2.83 2.83 0 0 1-.777 1.989 3.44 3.44 0 0 1-2.153 1.024c.445.16.839.435 1.146.793.427.568.813 1.165 1.155 1.788l1.284 2.188h-2.745l-.905-1.75a12.746 12.746 0 0 0-1.066-1.74 2.489 2.489 0 0 0-.883-.769 2.617 2.617 0 0 0-1.083-.202h-.573l.01 4.461Zm0-9.143v2.95h1.775a4.18 4.18 0 0 0 1.83-.302c.418-.2.627-.616.627-1.244a1.172 1.172 0 0 0-.546-1.016 3.078 3.078 0 0 0-1.697-.374l-1.99-.014Z" fill="#000" stroke="#000" stroke-width="2"/><path d="M57.434 4.71a10.247 10.247 0 0 1 9.489 6.284 10.316 10.316 0 1 1-9.489-6.285Zm.027 2.028a8.229 8.229 0 0 0-7.14 12.357 8.243 8.243 0 0 0 7.143 4.096 8.233 8.233 0 0 0 7.755-11.418 8.231 8.231 0 0 0-7.755-5.04l-.003.005Zm-2.43 13.71h-2.234V9.568h5.157a4.771 4.771 0 0 1 2.019.38 2.73 2.73 0 0 1 1.232 1.088 3.12 3.12 0 0 1 .416 1.631 2.83 2.83 0 0 1-.777 1.989 3.44 3.44 0 0 1-2.153 1.024c.445.16.839.435 1.146.793.427.568.813 1.165 1.155 1.788l1.284 2.188h-2.745l-.905-1.75a12.746 12.746 0 0 0-1.066-1.74 2.489 2.489 0 0 0-.883-.769 2.617 2.617 0 0 0-1.083-.202h-.573l.01 4.461Zm0-9.143v2.95h1.775a4.18 4.18 0 0 0 1.83-.302c.418-.2.627-.616.627-1.244a1.172 1.172 0 0 0-.546-1.016 3.078 3.078 0 0 0-1.697-.374l-1.99-.014Z" fill="#fff"/><defs><linearGradient id="a" x1="5869.07" y1="21937" x2="15209.5" y2="12869.6" gradientUnits="userSpaceOnUse"><stop stop-color="#fff"/><stop offset=".06" stop-color="#E2F4FD"/><stop offset=".13" stop-color="#E2F4FD"/><stop offset=".28" stop-color="#F6FBFD"/><stop offset=".37" stop-color="#A7DCDB"/><stop offset=".44" stop-color="#F2FAFE"/><stop offset=".64" stop-color="#E2F4FD"/><stop offset=".79" stop-color="#EFF9FE"/><stop offset=".9" stop-color="#A7DCDB"/><stop offset="1" stop-color="#fff"/></linearGradient></defs></svg>