<svg xmlns="http://www.w3.org/2000/svg" xml:space="preserve" width="600" height="205" style="shape-rendering:geometricPrecision;text-rendering:geometricPrecision;image-rendering:optimizeQuality;fill-rule:evenodd;clip-rule:evenodd" viewBox="0 0 594 203"><defs><style>.fil0{fill:#852164}</style></defs><g id="Layer_x0020_1"><g id="_358723741344"><path class="fil0" d="M0 71c0 60 71 57 82 61 14 5 13 30-19 30-17 0-31-2-47-7-4-1-8-3-12-4v45c12 6 53 7 70 7 44 0 84-30 73-75-11-49-75-44-84-49-11-5-11-19 1-24 16-7 48 0 64 5 5 2 10 4 14 5V22c-7-2-11-4-25-7-20-4-28-4-48-4C33 11 0 35 0 71z"/><path d="M161 21v180h52v-54c1 2 0 1 1 3l5 9c2 4 4 8 6 13s8 23 8 29h63c-1-2-2-6-3-9l-12-27c-25-51-20-24 2-67 4-6 15-29 16-37h-59c-2 10-21 43-27 48V11c-10 0-44 10-52 10z" style="fill:#852065"/><path d="M472 20v181h50V11c-8 0-39 8-50 9z" style="fill:#862064"/><path class="fil0" d="M544 20v181h50V11c-6 0-44 9-50 9z"/><path d="M305 121v80h50v-60c0-28 4-39 32-39V60c-9 0-1-1-16 0-15 2-26 2-42 12-14 9-24 26-24 49z" style="fill:#862164"/><path class="fil0" d="M402 201h50V62h-50z"/><path d="M403 23c0 8 1 13 7 19 22 22 57-11 34-35-15-16-41-2-41 16z" style="fill:#862165"/></g></g></svg>