<svg width="77" height="80" viewBox="0 0 77 80" fill="none" xmlns="http://www.w3.org/2000/svg">
<path d="M57.4472 37.1586H57.2866L51.8544 52.7141H48.255L42.8228 37.1586H42.6622L41.4083 52.8746H35.3662L37.7441 26.359H44.1723L50.0538 41.6582L55.9354 26.359H62.3636L64.7415 52.8746H58.6994L57.4472 37.1586Z" fill="#231F20"/>
<path d="M30.9794 28.8667L28.5366 33.6875C28.5366 33.6875 25.9008 31.8562 23.1693 31.8562C21.1125 31.8562 20.0192 32.7889 20.0192 34.2341C20.0192 35.7117 22.527 36.7726 25.5472 38.0589C28.5042 39.3128 31.7499 41.8188 31.7499 45.29C31.7499 51.6208 26.9291 53.8398 21.7548 53.8398C15.5521 53.8398 11.7922 50.3362 11.7922 50.3362L14.8142 45.2575C14.8142 45.2575 18.3503 48.247 21.3055 48.247C22.6226 48.247 25.1303 48.1189 25.1303 45.6436C25.1303 43.715 22.3015 42.8472 19.1531 41.2721C15.9706 39.6971 14.1069 37.2218 14.1069 34.4579C14.1069 29.509 18.4784 26.359 22.7524 26.359C27.5732 26.3607 30.9794 28.8667 30.9794 28.8667Z" fill="#231F20"/>
<path d="M76.2675 37.3303C76.2374 35.9014 75.8143 33.8505 75.5044 32.6342C75.3148 31.8805 75.7241 32.2157 76.1565 33.4921C75.738 31.5498 75.0721 29.4712 74.9264 29.4712C74.7715 29.4712 74.8593 29.7717 74.8316 29.8966C74.7206 29.6261 74.568 28.974 74.3853 28.5047C74.1588 27.9405 73.916 27.6098 74.0848 28.1231C74.3992 29.0526 75.6224 33.9776 75.7542 34.8493C75.6224 34.3799 75.4767 33.8458 75.3727 33.4805C74.0825 28.9602 72.5379 25.3855 70.524 21.6629C70.6789 21.7947 70.7506 21.8525 70.8454 21.9403C70.8662 21.7276 70.8824 21.5588 70.9124 21.2883C71.3217 21.8825 71.6824 22.3866 72.0338 22.8999C71.3078 20.9576 70.0199 19.3252 68.9563 17.6396C68.9124 17.7136 68.8754 17.7714 68.8176 17.8593C67.5944 16.1668 65.9528 14.754 65.2869 12.754C65.2568 12.8418 65.236 12.8927 65.2129 12.9598C65.125 11.9701 63.8348 12.5505 63.9666 11.5308C64.7134 11.9193 65.9597 12.9366 66.5609 13.4869C67.1551 14.028 67.4187 14.0372 67.6314 14.0581C67.8141 14.0789 67.4187 13.7367 67.5436 13.6257C67.7054 13.4869 69.3008 15.6026 70.1147 16.5205C67.865 11.4938 61.874 9.66257 57.6612 6.44631C46.6135 -0.726123 31.7577 -2.57126 19.9331 4.29134C19.406 4.59886 18.6869 5.05437 18.3793 5.25784C18.0649 5.45669 18.7447 5.24397 18.7747 5.27171C18.4533 5.49137 18.1666 5.69022 17.8221 5.93069C17.4706 6.17347 18.2106 5.99774 18.0418 6.11335C17.866 6.23821 17.214 7.13997 18.0926 6.55961C18.9713 5.98156 19.9678 5.32258 20.495 5.32258C21.0222 5.32258 18.3932 6.80238 17.4244 7.4313C15.9076 8.42092 14.5596 9.29956 13.6948 9.90767C12.9688 10.421 12.222 10.9412 12.0601 10.8233C11.7734 10.6106 12.7931 9.77587 12.9179 9.58627C13.1168 9.28568 11.8196 10.1204 12.1202 9.80593C12.4208 9.49147 14.0532 7.94461 15.1238 7.13997C15.8567 6.58273 16.3099 6.25439 16.296 6.01855C16.2729 5.78502 15.5423 6.16422 14.7492 6.5966C9.01956 9.74581 7.03571 16.398 4.44143 21.908C4.67496 21.8941 4.86686 21.8779 5.1582 21.8571C4.54316 23.1681 3.75932 24.3335 3.6414 25.7555C3.93505 25.5427 4.09459 25.2491 4.44835 25.1404C4.58709 25.6028 4.3235 26.026 4.22176 26.4653C4.25876 26.4722 4.28881 26.4861 4.31656 26.4954C4.49228 26.026 4.66801 25.5566 4.8368 25.0965C4.98247 25.1104 5.1004 25.1173 5.24606 25.1335C4.76282 28.6434 4.38824 32.1232 3.43561 35.5592L3.47954 35.5152C2.65871 38.0425 3.7362 40.5419 3.41249 43.2287H3.31769C3.09109 41.9108 2.62173 40.6206 2.90844 39.2356C2.86451 39.2934 2.82058 39.3535 2.70959 39.4853C2.6726 39.1107 2.62866 38.7592 2.59167 38.424C2.56161 38.1673 2.22634 38.1673 2.24715 38.3939C2.37201 39.7997 2.04136 41.1847 2.47374 42.6137C2.53155 42.4148 2.58472 42.2113 2.61247 42.1165C3.05872 44.2345 4.19401 49.326 3.88649 48.6809C3.57897 48.0358 3.3963 47.1271 3.14659 46.3502C3.46105 49.1109 4.45067 51.7191 5.44722 54.2926C5.3663 54.2995 5.13971 54.1099 4.96398 53.6983C4.86225 53.4486 4.59865 53.4556 4.64258 53.6105C4.81831 54.1677 5.30156 55.0533 5.55128 55.5735C5.41254 55.1342 5.25762 54.607 5.30156 54.533C5.92354 55.266 6.59176 56.7088 7.00796 57.4788C7.42646 58.2487 8.90627 60.8777 7.92359 59.4996C6.94091 58.1216 4.853 55.3377 3.8495 52.9723C3.54892 52.2763 3.37319 51.2358 3.22752 51.2289C3.08185 51.222 3.10959 51.5434 3.08878 51.6613C2.99398 51.5295 2.9778 50.8844 2.86219 50.9283C2.65641 51.0023 3.44718 53.8371 3.21365 53.4486C2.98705 53.0602 2.55467 51.2867 2.45987 50.7595C2.5408 51.8948 2.86912 52.9284 2.84138 53.2058C1.88875 51.696 2.32113 50.0705 2.32113 49.2635C2.34425 49.7607 2.43906 50.2902 2.58472 50.6116C2.4668 49.7329 2.64254 48.8011 2.60554 48.5306C2.57548 48.2601 2.19628 48.4797 2.21709 48.8011C2.1431 48.6323 2.12229 48.3387 2.02749 48.3618C1.93963 48.3757 1.93963 48.6924 1.92575 48.882C1.87489 48.808 1.86795 48.6762 1.80783 48.7202C1.74078 48.7572 1.78702 49.5341 1.60204 49.4092C1.50031 49.3514 1.59511 48.7063 1.60204 48.1421C1.60898 47.6219 1.53499 47.1756 1.43326 47.2126C1.2136 47.2866 1.39626 47.5502 1.33152 48.3549C1.27371 49.0878 0.642482 48.0242 0.693351 48.5098C0.71416 48.6855 0.524566 49.2566 0.670234 49.9225C0.808966 50.5884 0.64017 51.5919 0.80896 51.4093C0.977751 51.2335 0.910692 51.1156 1.03555 51.0208C1.07255 51.0717 1.04943 51.2266 1.14655 51.1757C1.24135 51.1179 1.22053 50.9121 1.2714 50.7295C4.10615 67.2709 19.4614 74.8549 34.1647 79.3591C34.0468 79.41 33.9658 79.447 33.8872 79.4839C51.7559 82.9268 70.0916 68.6189 74.9333 52.1723C75.0582 51.7399 75.3519 50.0636 75.5484 48.8543C74.8964 51.0231 74.4431 50.963 74.457 50.8104C74.6327 49.3607 74.8316 48.371 75.1969 47.6959C76.2444 46.0542 75.5992 41.8715 75.2779 41.6587C75.0281 41.4969 74.9333 41.8645 74.9125 41.8645C74.9426 41.5339 75.0304 40.4425 74.7807 40.9697C74.5911 41.3581 75.2339 51 71.9668 55.1226C71.835 52.5145 73.2408 50.0173 74.0038 47.4808C73.983 47.4739 73.9599 47.467 73.946 47.46C73.7472 47.7745 73.5576 48.0982 73.3449 48.4497C73.3217 48.3479 73.3009 48.2739 73.2871 48.2069C73.0235 48.3618 73.0674 48.8011 72.6419 48.8219C72.7367 48.2878 72.8316 47.7814 72.9194 47.2751C70.8015 51.1202 70.0685 56.0013 67.2129 59.5459C66.7227 60.154 67.6014 58.0522 68.1147 56.6371C68.5771 55.3909 68.4893 54.8359 67.6314 56.3944C66.6279 58.2256 64.7666 60.4684 63.2359 61.8881C57.8138 66.9148 51.5293 71.4259 43.7927 71.6965V71.7473H44.4748C38.981 72.3855 32.5993 71.8861 27.5009 69.5276C27.5079 69.5045 27.5241 69.4906 27.531 69.4768C28.2501 69.7334 29.7738 70.5381 29.7137 70.1589C29.6906 69.997 27.7645 69.4051 25.7437 68.4594C22.9829 67.1623 19.8753 65.4189 19.6695 65.2501C19.3112 64.9564 20.0349 65.7033 20.0071 65.7333C16.125 63.0373 13.422 58.6996 11.348 54.3041C11.0335 53.6452 10.5063 53.1619 10.1988 52.422C9.97912 51.8948 9.86814 50.9121 9.92826 50.8243C10.178 50.415 9.56987 50.0035 9.61381 50.6624C9.62768 50.933 10.0392 52.6116 10.3167 53.3954C10.4346 53.7261 10.0462 53.0509 9.8982 52.6555C8.91552 50.0266 8.82766 49.5572 8.61725 48.6115C8.61725 51.2844 10.6104 55.5203 10.9179 56.2602C10.4924 55.9666 9.87739 55.125 9.59299 54.2671C9.8797 55.2776 10.178 56.1215 10.1572 56.4499C8.70742 53.8648 7.55594 48.2809 7.20449 48.2809C6.85997 48.3017 7.21143 49.1664 7.24149 49.5849C6.39985 48.3179 5.86342 44.3039 6.17094 43.2773C6.39754 38.6922 7.11663 33.9961 8.72823 29.6723C8.72823 29.6654 8.72824 29.6492 8.73517 29.6423C8.74211 29.6122 8.75828 29.5844 8.76522 29.5544C10.1433 25.8849 12.1641 22.4837 15.066 19.6721C15.0451 19.6582 15.022 19.6351 14.9989 19.6212C14.4856 20.0744 13.9815 20.523 13.4682 20.9692C14.0625 18.9923 16.2082 17.9587 16.999 16.2084C16.962 16.1853 16.9319 16.1645 16.8972 16.1413C17.3227 15.7529 17.755 15.3644 18.2452 14.9113C17.3805 15.3066 16.955 16.2153 15.9816 16.2731C18.4718 13.4523 22.1274 11.043 24.8974 9.40823C24.6408 9.56315 24.6639 10.0603 25.1679 10.236C25.6304 10.3979 25.9888 9.54696 26.5969 9.30649C30.3773 7.79663 34.4583 7.98161 38.1949 8.69839C34.1809 7.26251 29.0386 7.70183 27.9241 7.96542C29.1334 7.36425 30.9068 7.43824 31.5866 7.40125C43.1984 6.80008 54.2299 14.4049 60.963 23.6352C61.3376 24.1485 62.1122 25.3716 62.4128 26.2734C62.5377 26.6549 63.2336 27.878 63.4741 27.7023C63.7169 27.5266 63.3284 26.5532 62.8359 25.9659C62.1631 25.1682 61.7585 24.1924 60.9238 22.6918C61.7006 23.6144 62.3087 24.3335 62.9677 25.1242C61.444 22.4721 57.6196 18.6339 57.2173 17.5425C59.4162 19.1472 61.0925 21.2282 62.4914 23.4918C63.7446 25.5289 65.0117 28.2179 65.7817 29.8434C65.8765 30.0492 65.9366 30.1648 65.9643 30.2018C65.8973 29.9683 64.8221 27.4549 64.8059 27.4549C64.1539 25.3901 63.0117 23.434 62.0521 21.4247C62.6741 21.9588 62.5931 21.9658 62.7781 21.7993C62.9608 21.6305 61.7446 20.1299 61.518 19.1541C62.3087 20.3842 63.0995 21.6236 63.9365 22.9346C63.7469 22.4652 63.592 22.0698 63.4302 21.6744C63.4533 21.6675 63.4741 21.6536 63.4972 21.6444C64.4868 22.8675 65.4672 24.0907 66.4499 25.3138C65.5412 23.4248 64.0313 21.8779 63.1319 20.0466C63.1897 20.0166 63.2429 19.9958 63.2938 19.9657C64.1354 21.3438 65.9898 23.1011 66.399 23.6352C66.8083 24.1693 65.5273 21.9288 66.0614 22.5438C66.5956 23.1589 67.4164 24.3311 67.5921 24.5878C67.7678 24.8444 67.9066 24.8514 67.68 24.5207C67.4534 24.1901 65.9505 22.0374 65.0857 20.7912C65.1158 20.7704 65.1435 20.7472 65.1736 20.7241C67.3863 23.6028 69.4881 26.6295 70.7344 30.0584C69.4303 24.8791 65.6499 20.7773 62.5885 16.5136C64.1423 17.7437 65.2105 19.3923 66.5146 20.8282C66.5377 20.805 66.5655 20.7912 66.5955 20.7704C66.4129 20.4328 66.2302 20.0883 66.0452 19.753C68.954 22.2802 70.924 29.3509 71.1159 29.811C71.2986 30.2642 70.9841 28.8515 70.7644 27.885C70.5448 26.9185 70.9194 27.1821 70.9101 27.8549C70.9032 28.5278 71.9205 30.47 71.3194 31.5036C71.2685 31.4226 71.2246 31.3417 71.1367 31.1891C71.6269 32.6759 71.4442 34.2158 72.0223 35.5777C72.2998 37.8714 72.1471 40.1627 72.0153 42.4426C72.0362 42.4426 72.0662 42.4356 72.0893 42.4356C72.1772 41.7327 72.272 41.0298 72.3599 40.3338H72.4547V41.1477C72.5865 39.8945 72.3668 38.5257 72.82 37.3742C72.9009 38.0402 72.9818 38.7084 73.0697 39.3673C73.1206 39.3673 73.1714 39.3604 73.2246 39.3535C73.4951 36.5557 73.1946 33.7718 72.9102 30.9879C72.9541 30.981 72.9911 30.981 73.0281 30.9741C73.0859 31.3556 73.146 31.7279 73.2107 32.1903C73.2847 32.0146 73.3217 31.9198 73.3726 31.8018C73.7102 32.6967 73.8258 33.64 74.42 34.41C74.2443 33.3834 74.4871 32.403 74.494 31.3764C74.9565 32.5556 75.1761 34.8123 75.2709 35.0181C75.3657 35.2239 75.3727 34.8563 75.3449 34.7846C75.6663 35.7372 75.9021 38.572 75.916 38.1326C75.9368 37.6933 75.9461 36.8794 75.8212 35.3719C75.916 35.7025 76.1056 36.2598 76.2675 37.3303ZM66.2811 63.7841C65.6869 64.2235 65.6221 64.2304 66.3551 63.3148C67.0881 62.3991 68.6927 59.8488 69.3008 58.7505C69.9089 57.6522 69.1898 60.0985 69.7471 59.095C70.2974 58.0915 70.6858 57.6221 71.3286 55.2128C71.3864 55.9758 70.5957 59.058 69.5852 60.7945C68.5817 62.5379 66.6256 64.5818 65.8927 65.4327C65.1597 66.2906 67.2407 63.5136 68.0014 62.5679C68.7644 61.6222 69.2106 60.7945 69.3702 60.3991C68.5979 61.4835 66.8684 63.3448 66.2811 63.7841ZM11.778 58.1794C12.7075 60.7135 16.5758 64.605 18.4441 65.5923C15.3735 64.2743 12.8139 62.4569 12.3861 61.6176C12.111 61.0766 12.5572 61.1806 12.9549 61.6523C13.3642 62.1379 13.5769 62.3668 14.2336 62.7645C12.6798 60.7621 11.9884 59.4511 11.778 58.1794ZM23.8939 4.48094C22.9783 4.76765 22.1505 5.02199 23.2211 4.44395C24.1806 3.93064 26.3055 3.17686 26.7009 3.57919C27.0963 3.97457 24.8096 4.18729 23.8939 4.48094ZM55.534 14.3332C57.4092 14.6708 57.7098 16.8096 58.341 17.4038C57.1687 16.3194 55.9895 15.117 55.534 14.3332ZM61.2636 17.1471C60.8752 16.8258 60.7226 16.2754 60.7226 16.2754C61.0162 16.4951 61.6891 17.3298 61.807 17.4685C61.9226 17.6073 61.6452 17.4685 61.2636 17.1471Z" fill="#BE202E"/>
<path d="M8.00684 33.1429C8.25424 31.9498 8.50165 30.759 8.74674 29.5659C8.77911 29.5729 8.81148 29.5798 8.84616 29.5867C8.61726 30.7937 8.38834 31.9983 8.15943 33.2053C8.10857 33.1845 8.0577 33.1637 8.00684 33.1429Z" fill="#BE202E"/>
<path d="M3.44016 35.5568C3.35461 34.632 3.45172 33.721 3.63208 32.8169C3.66445 32.8192 3.69681 32.8238 3.72918 32.8261C3.63207 33.7372 3.53727 34.6458 3.44016 35.5568Z" fill="#BE202E"/>
<path d="M68.7436 53.4694C68.4662 53.985 68.1263 54.9585 68.7436 54.4313C69.361 53.9041 69.0234 52.9446 68.7436 53.4694Z" fill="#BE202E"/>
<path d="M73.5251 46.7594C73.7471 46.1536 73.5644 44.9073 73.8673 45.6588C74.1702 46.4103 73.1737 47.7213 73.5251 46.7594Z" fill="#BE202E"/>
<path d="M0.621674 48.1907C0.804338 48.5583 0.665605 46.5282 0.360395 46.5421C0.052873 46.5582 -0.0835505 46.771 0.0528691 47.3652C0.191601 47.9618 0.473694 47.8947 0.621674 48.1907Z" fill="#BE202E"/>
<path d="M1.14891 46.1883C1.04717 45.9293 0.679519 45.1016 0.804377 44.9281C0.929236 44.757 1.0911 44.8241 1.2044 45.2033C1.31769 45.5825 1.26452 46.4842 1.14891 46.1883Z" fill="#BE202E"/>
<path d="M6.5894 46.7224C6.62871 46.5629 6.78594 46.0496 6.67958 45.9733C6.57322 45.897 6.46917 45.9571 6.43449 46.1837C6.3998 46.4103 6.54547 46.9028 6.5894 46.7224Z" fill="#BE202E"/>
<path d="M1.4333 44.1097C1.74314 44.0889 1.52116 44.475 1.35468 44.6253C1.26913 44.7062 1.07491 44.1351 1.4333 44.1097Z" fill="#BE202E"/>
<path d="M2.38131 47.6681C2.62641 47.7306 2.45994 47.9572 2.33277 48.0265C2.26571 48.0635 2.09691 47.5965 2.38131 47.6681Z" fill="#BE202E"/>
<path d="M66.6442 29.6608C66.4152 29.1012 67.0303 30.225 67.4141 31.277C67.643 31.899 67.8511 32.4193 67.7378 32.736C67.5367 33.3025 67.1806 30.9695 66.6442 29.6608Z" fill="#BE202E"/>
<path d="M67.1828 26.523C67.5898 27.2699 67.8511 27.6676 68.0106 27.5982C68.1701 27.5288 68.2395 27.1866 68.0106 26.8884C67.7817 26.5901 66.9516 26.0999 67.1828 26.523Z" fill="#BE202E"/>
<path d="M68.6464 27.781C68.7435 28.0793 69.2753 27.9428 69.051 27.6399C68.8268 27.337 68.54 27.455 68.6464 27.781Z" fill="#BE202E"/>
<path d="M73.893 44.1744C73.9184 44.4449 73.4097 44.4333 73.4907 44.1351C73.5739 43.8345 73.8652 43.8784 73.893 44.1744Z" fill="#BE202E"/>
<path d="M75.368 48.8081C75.4859 48.4035 75.116 48.3364 75.0813 48.711C75.0443 49.1202 75.2501 49.2127 75.368 48.8081Z" fill="#BE202E"/>
<path d="M72.8941 46.6207C73.0027 47.1618 72.2605 47.6103 72.2998 46.9074C72.3368 46.2045 72.7738 46.0265 72.8941 46.6207Z" fill="#BE202E"/>
<path d="M16.2845 5.36652C16.6151 5.16999 17.3111 4.84397 17.1978 4.62893C17.0845 4.4139 16.5203 4.83472 16.2845 5.07056C16.0487 5.30641 15.9562 5.56306 16.2845 5.36652Z" fill="#BE202E"/>
<path d="M9.52832 49.9318C9.32484 49.8254 9.49362 49.578 9.6208 49.6566C9.74565 49.7376 9.79191 50.0682 9.52832 49.9318Z" fill="#BE202E"/>
<path d="M64.3549 28.1023C64.1677 28.1416 64.3388 28.6826 64.5538 28.6063C64.7665 28.53 64.5677 28.056 64.3549 28.1023Z" fill="#BE202E"/>
<path d="M67.1804 25.3185C66.9931 25.3578 67.0602 25.6445 67.2729 25.5682C67.4879 25.4919 67.3955 25.2722 67.1804 25.3185Z" fill="#BE202E"/>
<path d="M66.5586 28.6919C66.4892 28.4375 67.2268 29.0896 67.0441 29.4017C66.8615 29.7139 66.6696 29.0942 66.5586 28.6919Z" fill="#BE202E"/>
<path d="M24.0212 10.7609C23.7321 10.9066 23.4154 11.1262 23.746 11.2072C24.0766 11.2881 24.3749 11.1147 24.4443 10.8626C24.5113 10.6106 24.3125 10.6129 24.0212 10.7609Z" fill="#BE202E"/>
</svg>
