<svg xmlns="http://www.w3.org/2000/svg" xmlns:xlink="http://www.w3.org/1999/xlink" width="80" zoomAndPan="magnify" viewBox="0 0 60 60" height="80" preserveAspectRatio="xMidYMid meet" version="1.0"><defs><clipPath id="id1"><path d="M 58.238281 10.835938 L 60 10.835938 L 60 15.613281 L 58.238281 15.613281 Z M 58.238281 10.835938 " clip-rule="nonzero"/></clipPath><clipPath id="id2"><path d="M 58.558594 11.394531 L 60 11.394531 L 60 15.613281 L 58.558594 15.613281 Z M 58.558594 11.394531 " clip-rule="nonzero"/></clipPath><clipPath id="id3"><path d="M 4.355469 55.742188 L 9.449219 55.742188 L 9.449219 57.75 L 4.355469 57.75 Z M 4.355469 55.742188 " clip-rule="nonzero"/></clipPath><clipPath id="id4"><path d="M 50.917969 55.742188 L 56.089844 55.742188 L 56.089844 57.75 L 50.917969 57.75 Z M 50.917969 55.742188 " clip-rule="nonzero"/></clipPath></defs><path fill="#eda82e" d="M 57.804688 24.441406 L 54.613281 24.441406 L 54.613281 30.914062 L 57.804688 30.914062 C 58.457031 30.914062 58.988281 29.464844 58.988281 27.679688 C 58.988281 25.890625 58.457031 24.441406 57.804688 24.441406 " fill-opacity="1" fill-rule="nonzero"/><path fill="#b76629" d="M 58.148438 24.582031 C 58.570312 25.078125 58.867188 26.222656 58.867188 27.558594 C 58.867188 29.347656 58.335938 30.796875 57.683594 30.796875 L 54.613281 30.796875 L 54.613281 30.914062 L 57.804688 30.914062 C 58.457031 30.914062 58.988281 29.464844 58.988281 27.679688 C 58.988281 26.222656 58.632812 24.988281 58.148438 24.582031 " fill-opacity="1" fill-rule="nonzero"/><path fill="#ffbb33" d="M 58.695312 26.109375 L 58.6875 26.109375 C 58.21875 26.207031 57.730469 26.105469 57.332031 25.820312 L 59.484375 14.070312 L 60.847656 14.363281 L 58.695312 26.109375 " fill-opacity="1" fill-rule="nonzero"/><path fill="#b76629" d="M 60.710938 14.332031 L 58.59375 25.890625 L 58.585938 25.890625 C 58.164062 25.976562 57.730469 25.902344 57.359375 25.679688 L 57.332031 25.820312 C 57.730469 26.105469 58.21875 26.207031 58.6875 26.109375 L 58.695312 26.109375 L 60.847656 14.363281 L 60.710938 14.332031 " fill-opacity="1" fill-rule="nonzero"/><g clip-path="url(#id1)"><path fill="#660000" d="M 62.925781 13.664062 C 62.675781 14.9375 61.441406 15.765625 60.167969 15.515625 C 58.894531 15.261719 58.070312 14.027344 58.320312 12.753906 C 58.570312 11.480469 59.804688 10.652344 61.078125 10.90625 C 62.351562 11.15625 63.175781 12.390625 62.925781 13.664062 " fill-opacity="1" fill-rule="nonzero"/></g><g clip-path="url(#id2)"><path fill="#54020a" d="M 62.183594 11.457031 C 62.480469 11.941406 62.601562 12.53125 62.480469 13.128906 C 62.230469 14.402344 60.996094 15.230469 59.722656 14.980469 C 59.296875 14.894531 58.917969 14.699219 58.617188 14.429688 C 58.949219 14.972656 59.496094 15.378906 60.167969 15.515625 C 61.441406 15.765625 62.675781 14.9375 62.925781 13.664062 C 63.09375 12.820312 62.785156 11.988281 62.183594 11.457031 " fill-opacity="1" fill-rule="nonzero"/></g><path fill="#8c1019" d="M 61.421875 11.824219 C 61.554688 12.371094 61.058594 13.058594 60.3125 13.363281 C 59.570312 13.667969 58.859375 13.46875 58.726562 12.921875 C 58.59375 12.378906 59.09375 11.6875 59.835938 11.382812 C 60.582031 11.082031 61.289062 11.277344 61.421875 11.824219 " fill-opacity="1" fill-rule="nonzero"/><path fill="#ffbb33" d="M 55.613281 19.527344 L 51.449219 19.527344 L 51.449219 35.832031 L 55.613281 35.832031 C 56.464844 35.832031 57.152344 32.183594 57.152344 27.679688 C 57.152344 23.175781 56.464844 19.527344 55.613281 19.527344 " fill-opacity="1" fill-rule="nonzero"/><path fill="#b76629" d="M 55.71875 19.546875 C 56.28125 20.769531 56.679688 23.6875 56.679688 27.089844 C 56.679688 31.59375 55.992188 35.242188 55.140625 35.242188 L 51.449219 35.242188 L 51.449219 35.832031 L 55.613281 35.832031 C 56.460938 35.832031 57.148438 32.261719 57.152344 27.679688 C 57.152344 23.097656 56.515625 19.859375 55.71875 19.546875 " fill-opacity="1" fill-rule="nonzero"/><path fill="#660000" d="M 53.183594 13.089844 C 41.054688 0.00390625 19.433594 0 7.300781 13.078125 C 5.949219 13.023438 4.992188 14.144531 4.992188 15.492188 L 4.992188 40.503906 C 4.992188 42.042969 6.238281 43.285156 7.773438 43.285156 L 52.65625 43.285156 C 54.191406 43.285156 55.4375 42.042969 55.4375 40.503906 L 55.4375 15.492188 C 55.4375 14.105469 54.421875 12.953125 53.183594 13.089844 " fill-opacity="1" fill-rule="nonzero"/><path fill="#ffbb33" d="M 51.261719 15.757812 L 9.167969 15.757812 C 8.488281 15.757812 7.9375 16.3125 7.9375 16.992188 L 7.9375 39.316406 C 7.9375 40 8.488281 40.550781 9.167969 40.550781 L 51.261719 40.550781 C 51.941406 40.550781 52.496094 40 52.496094 39.316406 L 52.496094 16.992188 C 52.496094 16.3125 51.941406 15.757812 51.261719 15.757812 " fill-opacity="1" fill-rule="nonzero"/><path fill="#f9a653" d="M 22.34375 39.414062 L 8.933594 39.414062 L 8.933594 38.21875 L 22.34375 38.21875 L 22.34375 39.414062 " fill-opacity="1" fill-rule="nonzero"/><path fill="#b76629" d="M 22.34375 18.09375 L 8.933594 18.09375 L 8.933594 16.894531 L 22.34375 16.894531 L 22.34375 18.09375 " fill-opacity="1" fill-rule="nonzero"/><path fill="#e09346" d="M 22.34375 39.414062 L 21.144531 38.21875 L 10.128906 38.21875 L 8.933594 39.414062 L 8.933594 16.894531 L 10.128906 18.09375 L 21.144531 18.09375 L 22.34375 16.894531 L 22.34375 39.414062 " fill-opacity="1" fill-rule="nonzero"/><path fill="#f4f3f2" d="M 21.144531 38.21875 L 10.128906 38.21875 L 9.996094 35.960938 C 9.6875 30.761719 9.6875 25.546875 9.996094 20.351562 L 10.128906 18.09375 L 21.144531 18.09375 L 21.28125 20.351562 C 21.589844 25.546875 21.589844 30.761719 21.28125 35.960938 L 21.144531 38.21875 " fill-opacity="1" fill-rule="nonzero"/><path fill="#c42625" d="M 17.472656 24.875 C 18.007812 24.835938 18.394531 24.320312 18.394531 24.320312 L 19.289062 24.320312 C 19.289062 24.320312 19.371094 26.398438 18.0625 27.921875 C 16.484375 29.761719 16.957031 31.988281 16.957031 31.988281 L 14.144531 31.988281 C 14.144531 31.988281 14.097656 29.335938 16.105469 27.648438 C 17.253906 26.554688 17.40625 25.9375 17.40625 25.9375 C 17.40625 25.9375 16.71875 26.484375 15.96875 26.433594 C 15.523438 26.441406 14.75 26.074219 14.457031 26.695312 C 14.410156 26.789062 14.382812 27.226562 14.382812 27.226562 L 12.929688 27.242188 L 12.929688 24.320312 L 14.40625 24.320312 L 14.398438 24.863281 C 14.398438 24.863281 14.953125 24.113281 16.277344 24.488281 C 16.640625 24.589844 17.148438 24.902344 17.472656 24.875 " fill-opacity="1" fill-rule="nonzero"/><path fill="#282828" d="M 14.246094 31.890625 L 16.839844 31.890625 C 16.769531 31.398438 16.605469 29.46875 17.988281 27.859375 C 19.101562 26.5625 19.1875 24.839844 19.191406 24.417969 L 18.441406 24.417969 C 18.335938 24.546875 17.96875 24.9375 17.480469 24.976562 C 17.25 24.992188 16.957031 24.867188 16.675781 24.746094 C 16.523438 24.679688 16.375 24.617188 16.25 24.582031 C 15.011719 24.234375 14.5 24.894531 14.480469 24.921875 L 14.296875 25.164062 L 14.304688 24.417969 L 13.03125 24.417969 L 13.03125 27.140625 L 14.289062 27.128906 C 14.300781 26.980469 14.328125 26.734375 14.367188 26.652344 C 14.617188 26.125 15.152344 26.214844 15.585938 26.289062 C 15.726562 26.3125 15.855469 26.335938 15.964844 26.335938 C 16.675781 26.382812 17.339844 25.867188 17.34375 25.859375 L 17.570312 25.679688 L 17.503906 25.960938 C 17.496094 25.988281 17.332031 26.621094 16.171875 27.722656 C 14.4375 29.179688 14.261719 31.402344 14.246094 31.890625 Z M 17.082031 32.089844 L 14.046875 32.089844 L 14.046875 31.992188 C 14.046875 31.964844 14.019531 29.269531 16.039062 27.574219 C 16.695312 26.953125 17.019531 26.484375 17.175781 26.207031 C 16.894531 26.367188 16.441406 26.5625 15.960938 26.53125 C 15.84375 26.535156 15.703125 26.511719 15.550781 26.484375 C 15.070312 26.402344 14.71875 26.371094 14.546875 26.738281 C 14.523438 26.78125 14.496094 27.03125 14.480469 27.234375 L 14.472656 27.324219 L 12.832031 27.339844 L 12.832031 24.222656 L 14.507812 24.222656 L 14.5 24.625 C 14.769531 24.414062 15.34375 24.121094 16.304688 24.390625 C 16.441406 24.429688 16.59375 24.496094 16.757812 24.566406 C 17.015625 24.675781 17.28125 24.792969 17.464844 24.777344 C 17.949219 24.738281 18.3125 24.265625 18.316406 24.261719 L 18.34375 24.222656 L 19.386719 24.222656 L 19.390625 24.316406 C 19.394531 24.402344 19.457031 26.449219 18.136719 27.988281 C 16.609375 29.765625 17.050781 31.949219 17.054688 31.96875 L 17.082031 32.089844 " fill-opacity="1" fill-rule="nonzero"/><path fill="#282828" d="M 14.109375 20.515625 C 14.167969 20.484375 14.199219 20.445312 14.199219 20.402344 L 14.199219 19.355469 C 14.199219 19.3125 14.167969 19.273438 14.109375 19.242188 C 14.046875 19.210938 13.976562 19.195312 13.890625 19.195312 L 13.625 19.195312 L 13.625 20.5625 L 13.890625 20.5625 C 13.976562 20.5625 14.046875 20.546875 14.109375 20.515625 " fill-opacity="1" fill-rule="nonzero"/><path fill="#282828" d="M 19.246094 18.25 L 19.246094 18.789062 C 19.246094 18.964844 19.066406 19.085938 18.710938 19.160156 C 19.066406 19.238281 19.246094 19.359375 19.246094 19.53125 L 19.246094 20.457031 C 19.246094 20.527344 19.304688 20.5625 19.421875 20.5625 L 19.4375 20.5625 L 19.4375 20.632812 L 19.171875 20.632812 C 18.8125 20.632812 18.632812 20.539062 18.632812 20.34375 L 18.632812 19.355469 C 18.632812 19.3125 18.605469 19.273438 18.542969 19.242188 C 18.484375 19.210938 18.414062 19.195312 18.328125 19.195312 L 18.0625 19.195312 L 18.0625 20.5625 L 18.253906 20.5625 L 18.253906 20.632812 L 17.261719 20.632812 L 17.261719 20.5625 L 17.449219 20.5625 L 17.449219 18.09375 L 16.464844 18.09375 L 16.914062 20.5625 L 17.105469 20.5625 L 17.105469 20.632812 L 16.113281 20.632812 L 16.113281 20.5625 L 16.304688 20.5625 L 16.164062 19.753906 L 15.617188 19.753906 L 15.464844 20.5625 L 15.652344 20.5625 L 15.652344 20.632812 L 15.078125 20.632812 L 15.078125 20.5625 L 15.269531 20.5625 L 15.757812 18.09375 L 14.742188 18.09375 C 14.785156 18.140625 14.808594 18.191406 14.808594 18.25 L 14.808594 18.789062 C 14.808594 18.964844 14.632812 19.085938 14.277344 19.160156 C 14.632812 19.238281 14.808594 19.359375 14.808594 19.53125 L 14.808594 20.226562 C 14.808594 20.339844 14.71875 20.433594 14.539062 20.515625 C 14.363281 20.59375 14.144531 20.632812 13.890625 20.632812 L 12.824219 20.632812 L 12.824219 20.5625 L 13.015625 20.5625 L 13.015625 18.09375 L 12.34375 18.09375 L 12.34375 20.570312 C 12.34375 20.894531 12.617188 21.160156 12.945312 21.160156 L 19.277344 21.160156 C 19.605469 21.160156 19.878906 20.894531 19.878906 20.570312 L 19.878906 18.09375 L 19.179688 18.09375 C 19.222656 18.140625 19.246094 18.191406 19.246094 18.25 " fill-opacity="1" fill-rule="nonzero"/><path fill="#282828" d="M 13.625 19.125 L 13.890625 19.125 C 13.976562 19.125 14.046875 19.109375 14.109375 19.078125 C 14.167969 19.046875 14.199219 19.007812 14.199219 18.964844 L 14.199219 18.09375 L 13.625 18.09375 L 13.625 19.125 " fill-opacity="1" fill-rule="nonzero"/><path fill="#282828" d="M 15.902344 18.175781 L 15.625 19.683594 L 16.15625 19.683594 Z M 15.902344 18.175781 " fill-opacity="1" fill-rule="nonzero"/><path fill="#282828" d="M 18.0625 19.125 L 18.328125 19.125 C 18.414062 19.125 18.484375 19.109375 18.542969 19.078125 C 18.605469 19.046875 18.632812 19.007812 18.632812 18.964844 L 18.632812 18.09375 L 18.0625 18.09375 L 18.0625 19.125 " fill-opacity="1" fill-rule="nonzero"/><path fill="#282828" d="M 20.105469 20.738281 C 20.105469 21.105469 19.816406 21.40625 19.46875 21.40625 L 12.753906 21.40625 C 12.40625 21.40625 12.117188 21.105469 12.117188 20.738281 L 12.117188 18.09375 L 11.652344 18.09375 L 11.652344 20.949219 C 11.652344 21.371094 11.976562 21.71875 12.367188 21.71875 L 19.855469 21.71875 C 20.25 21.71875 20.570312 21.371094 20.570312 20.949219 L 20.570312 18.09375 L 20.105469 18.09375 L 20.105469 20.738281 " fill-opacity="1" fill-rule="nonzero"/><path fill="#ffffff" d="M 12.753906 21.40625 L 19.46875 21.40625 C 19.816406 21.40625 20.105469 21.105469 20.105469 20.738281 L 20.105469 18.09375 L 19.878906 18.09375 L 19.878906 20.570312 C 19.878906 20.894531 19.605469 21.160156 19.277344 21.160156 L 12.945312 21.160156 C 12.617188 21.160156 12.34375 20.894531 12.34375 20.570312 L 12.34375 18.09375 L 12.117188 18.09375 L 12.117188 20.738281 C 12.117188 21.105469 12.40625 21.40625 12.753906 21.40625 " fill-opacity="1" fill-rule="nonzero"/><path fill="#ffffff" d="M 13.625 19.195312 L 13.890625 19.195312 C 13.976562 19.195312 14.046875 19.210938 14.109375 19.242188 C 14.167969 19.273438 14.199219 19.3125 14.199219 19.355469 L 14.199219 20.402344 C 14.199219 20.445312 14.167969 20.484375 14.109375 20.515625 C 14.046875 20.546875 13.976562 20.5625 13.890625 20.5625 L 13.625 20.5625 Z M 12.824219 20.5625 L 12.824219 20.632812 L 13.890625 20.632812 C 14.144531 20.632812 14.363281 20.59375 14.539062 20.515625 C 14.71875 20.433594 14.808594 20.339844 14.808594 20.226562 L 14.808594 19.53125 C 14.808594 19.359375 14.632812 19.238281 14.277344 19.160156 C 14.632812 19.085938 14.808594 18.964844 14.808594 18.789062 L 14.808594 18.25 C 14.808594 18.191406 14.785156 18.140625 14.742188 18.09375 L 14.199219 18.09375 L 14.199219 18.964844 C 14.199219 19.007812 14.167969 19.046875 14.109375 19.078125 C 14.046875 19.109375 13.976562 19.125 13.890625 19.125 L 13.625 19.125 L 13.625 18.09375 L 13.015625 18.09375 L 13.015625 20.5625 L 12.824219 20.5625 " fill-opacity="1" fill-rule="nonzero"/><path fill="#ffffff" d="M 15.902344 18.175781 L 16.15625 19.683594 L 15.625 19.683594 Z M 15.078125 20.5625 L 15.078125 20.632812 L 15.652344 20.632812 L 15.652344 20.5625 L 15.464844 20.5625 L 15.617188 19.753906 L 16.164062 19.753906 L 16.304688 20.5625 L 16.113281 20.5625 L 16.113281 20.632812 L 17.105469 20.632812 L 17.105469 20.5625 L 16.914062 20.5625 L 16.464844 18.09375 L 15.757812 18.09375 L 15.269531 20.5625 L 15.078125 20.5625 " fill-opacity="1" fill-rule="nonzero"/><path fill="#ffffff" d="M 17.261719 20.5625 L 17.261719 20.632812 L 18.253906 20.632812 L 18.253906 20.5625 L 18.0625 20.5625 L 18.0625 19.195312 L 18.328125 19.195312 C 18.414062 19.195312 18.484375 19.210938 18.542969 19.242188 C 18.605469 19.273438 18.632812 19.3125 18.632812 19.355469 L 18.632812 20.34375 C 18.632812 20.539062 18.8125 20.632812 19.171875 20.632812 L 19.4375 20.632812 L 19.4375 20.5625 L 19.421875 20.5625 C 19.304688 20.5625 19.246094 20.527344 19.246094 20.457031 L 19.246094 19.53125 C 19.246094 19.359375 19.066406 19.238281 18.710938 19.160156 C 19.066406 19.085938 19.246094 18.964844 19.246094 18.789062 L 19.246094 18.25 C 19.246094 18.191406 19.222656 18.140625 19.179688 18.09375 L 18.632812 18.09375 L 18.632812 18.964844 C 18.632812 19.007812 18.605469 19.046875 18.542969 19.078125 C 18.484375 19.109375 18.414062 19.125 18.328125 19.125 L 18.0625 19.125 L 18.0625 18.09375 L 17.449219 18.09375 L 17.449219 20.5625 L 17.261719 20.5625 " fill-opacity="1" fill-rule="nonzero"/><path fill="#efc825" d="M 12.375 37.417969 C 12.316406 37.675781 12.308594 37.945312 12.339844 38.21875 L 19.007812 38.21875 C 18.691406 37.429688 18.042969 36.683594 17.140625 36.175781 C 15.644531 35.332031 13.941406 35.417969 13.007812 36.300781 C 12.648438 36.1875 12.285156 36.28125 12.136719 36.546875 C 11.984375 36.8125 12.09375 37.167969 12.375 37.417969 " fill-opacity="1" fill-rule="nonzero"/><path fill="#333333" d="M 12.234375 38.21875 L 12.433594 38.21875 C 12.40625 37.953125 12.414062 37.691406 12.472656 37.4375 L 12.484375 37.382812 L 12.441406 37.34375 C 12.1875 37.121094 12.101562 36.8125 12.222656 36.597656 C 12.308594 36.441406 12.492188 36.351562 12.707031 36.351562 C 12.792969 36.351562 12.886719 36.367188 12.976562 36.394531 L 13.03125 36.414062 L 13.074219 36.375 C 14.003906 35.496094 15.652344 35.453125 17.09375 36.261719 C 17.953125 36.746094 18.589844 37.457031 18.90625 38.21875 L 19.117188 38.21875 C 18.796875 37.386719 18.117188 36.613281 17.1875 36.089844 C 15.699219 35.25 13.976562 35.292969 12.980469 36.191406 C 12.589844 36.089844 12.210938 36.210938 12.050781 36.5 C 11.886719 36.785156 11.976562 37.171875 12.265625 37.453125 C 12.214844 37.703125 12.207031 37.960938 12.234375 38.21875 " fill-opacity="1" fill-rule="nonzero"/><path fill="#66c655" d="M 14.394531 36.742188 C 13.28125 37.09375 12.222656 36.613281 12.222656 36.613281 C 12.222656 36.613281 12.722656 35.132812 13.835938 34.78125 C 14.953125 34.429688 16.144531 35.054688 16.144531 35.054688 C 16.144531 35.054688 15.511719 36.390625 14.394531 36.742188 " fill-opacity="1" fill-rule="nonzero"/><path fill="#333333" d="M 12.347656 36.558594 C 12.617188 36.660156 13.480469 36.925781 14.367188 36.648438 C 15.265625 36.363281 15.847656 35.398438 16.007812 35.097656 C 15.714844 34.96875 14.757812 34.597656 13.867188 34.875 C 12.964844 35.160156 12.476562 36.242188 12.347656 36.558594 Z M 13.523438 36.972656 C 12.78125 36.972656 12.214844 36.71875 12.179688 36.707031 L 12.101562 36.667969 L 12.128906 36.582031 C 12.148438 36.519531 12.65625 35.046875 13.808594 34.6875 C 14.949219 34.328125 16.140625 34.941406 16.1875 34.964844 L 16.273438 35.011719 L 16.234375 35.097656 C 16.207031 35.152344 15.570312 36.476562 14.425781 36.835938 C 14.113281 36.933594 13.804688 36.972656 13.523438 36.972656 " fill-opacity="1" fill-rule="nonzero"/><path fill="#f9a653" d="M 36.921875 39.414062 L 23.507812 39.414062 L 23.507812 38.21875 L 36.921875 38.21875 L 36.921875 39.414062 " fill-opacity="1" fill-rule="nonzero"/><path fill="#b76629" d="M 36.921875 18.09375 L 23.507812 18.09375 L 23.507812 16.894531 L 36.921875 16.894531 L 36.921875 18.09375 " fill-opacity="1" fill-rule="nonzero"/><path fill="#e09346" d="M 36.921875 39.414062 L 35.722656 38.21875 L 24.707031 38.21875 L 23.507812 39.414062 L 23.507812 16.894531 L 24.707031 18.09375 L 35.722656 18.09375 L 36.921875 16.894531 L 36.921875 39.414062 " fill-opacity="1" fill-rule="nonzero"/><path fill="#f4f3f2" d="M 35.722656 38.21875 L 24.707031 38.21875 L 24.574219 35.960938 C 24.261719 30.761719 24.261719 25.546875 24.574219 20.351562 L 24.707031 18.09375 L 35.722656 18.09375 L 35.859375 20.351562 C 36.167969 25.546875 36.167969 30.761719 35.859375 35.960938 L 35.722656 38.21875 " fill-opacity="1" fill-rule="nonzero"/><path fill="#c42625" d="M 31.574219 24.875 C 32.109375 24.835938 32.5 24.320312 32.5 24.320312 L 33.394531 24.320312 C 33.394531 24.320312 33.476562 26.398438 32.167969 27.921875 C 30.589844 29.761719 31.0625 31.988281 31.0625 31.988281 L 28.25 31.988281 C 28.25 31.988281 28.199219 29.335938 30.207031 27.648438 C 31.359375 26.554688 31.511719 25.9375 31.511719 25.9375 C 31.511719 25.9375 30.820312 26.484375 30.070312 26.433594 C 29.625 26.441406 28.851562 26.074219 28.558594 26.695312 C 28.515625 26.789062 28.484375 27.226562 28.484375 27.226562 L 27.035156 27.242188 L 27.035156 24.320312 L 28.511719 24.320312 L 28.503906 24.863281 C 28.503906 24.863281 29.054688 24.113281 30.382812 24.488281 C 30.742188 24.589844 31.253906 24.902344 31.574219 24.875 " fill-opacity="1" fill-rule="nonzero"/><path fill="#282828" d="M 28.351562 31.890625 L 30.945312 31.890625 C 30.875 31.398438 30.710938 29.46875 32.089844 27.859375 C 33.203125 26.5625 33.292969 24.839844 33.296875 24.417969 L 32.546875 24.417969 C 32.4375 24.546875 32.074219 24.9375 31.582031 24.976562 C 31.355469 24.992188 31.0625 24.867188 30.78125 24.746094 C 30.625 24.679688 30.480469 24.617188 30.355469 24.582031 C 29.117188 24.234375 28.605469 24.894531 28.582031 24.921875 L 28.402344 25.164062 L 28.410156 24.417969 L 27.132812 24.417969 L 27.132812 27.140625 L 28.394531 27.128906 C 28.40625 26.980469 28.429688 26.734375 28.46875 26.652344 C 28.71875 26.125 29.257812 26.214844 29.6875 26.289062 C 29.832031 26.3125 29.960938 26.335938 30.070312 26.335938 C 30.777344 26.382812 31.441406 25.867188 31.449219 25.859375 L 31.675781 25.679688 L 31.605469 25.960938 C 31.597656 25.988281 31.433594 26.621094 30.277344 27.722656 C 28.539062 29.179688 28.367188 31.402344 28.351562 31.890625 Z M 31.183594 32.089844 L 28.152344 32.089844 L 28.152344 31.992188 C 28.148438 31.964844 28.121094 29.269531 30.144531 27.574219 C 30.796875 26.953125 31.121094 26.484375 31.277344 26.207031 C 30.996094 26.367188 30.546875 26.5625 30.066406 26.53125 C 29.949219 26.535156 29.804688 26.511719 29.65625 26.484375 C 29.175781 26.402344 28.820312 26.371094 28.648438 26.738281 C 28.628906 26.78125 28.597656 27.03125 28.585938 27.234375 L 28.578125 27.324219 L 26.933594 27.339844 L 26.933594 24.222656 L 28.609375 24.222656 L 28.605469 24.625 C 28.875 24.414062 29.449219 24.121094 30.410156 24.390625 C 30.546875 24.429688 30.699219 24.496094 30.859375 24.566406 C 31.117188 24.675781 31.382812 24.792969 31.566406 24.777344 C 32.054688 24.738281 32.414062 24.265625 32.417969 24.261719 L 32.449219 24.222656 L 33.488281 24.222656 L 33.492188 24.316406 C 33.496094 24.402344 33.5625 26.449219 32.242188 27.988281 C 30.714844 29.765625 31.15625 31.949219 31.160156 31.96875 L 31.183594 32.089844 " fill-opacity="1" fill-rule="nonzero"/><path fill="#66c655" d="M 29.527344 34.703125 C 30.617188 34.554688 31.523438 35.164062 31.523438 35.164062 C 31.523438 35.164062 30.828125 36.460938 29.738281 36.609375 C 28.644531 36.761719 27.640625 35.996094 27.640625 35.996094 C 27.640625 35.996094 28.433594 34.855469 29.527344 34.703125 " fill-opacity="1" fill-rule="nonzero"/><path fill="#333333" d="M 31.394531 35.195312 C 31.160156 35.058594 30.40625 34.675781 29.539062 34.796875 C 28.660156 34.917969 27.96875 35.722656 27.773438 35.976562 C 28.023438 36.140625 28.851562 36.636719 29.722656 36.519531 C 30.605469 36.398438 31.230469 35.46875 31.394531 35.195312 Z M 30.371094 34.628906 C 31.058594 34.746094 31.546875 35.066406 31.574219 35.085938 L 31.644531 35.132812 L 31.605469 35.207031 C 31.574219 35.261719 30.875 36.546875 29.75 36.703125 C 28.632812 36.855469 27.625 36.101562 27.582031 36.070312 L 27.511719 36.015625 L 27.5625 35.941406 C 27.597656 35.894531 28.394531 34.765625 29.511719 34.609375 C 29.816406 34.570312 30.109375 34.582031 30.371094 34.628906 " fill-opacity="1" fill-rule="nonzero"/><path fill="#75629b" d="M 33.09375 38.21875 C 32.894531 37.585938 32.5 36.953125 31.933594 36.410156 C 30.554688 35.097656 28.667969 34.839844 27.71875 35.835938 C 27.160156 36.425781 27.050781 37.316406 27.339844 38.21875 L 33.09375 38.21875 " fill-opacity="1" fill-rule="nonzero"/><path fill="#333333" d="M 27.425781 38.21875 C 27.136719 37.335938 27.234375 36.464844 27.777344 35.894531 C 28.152344 35.5 28.675781 35.3125 29.261719 35.3125 C 30.109375 35.3125 31.078125 35.710938 31.875 36.46875 C 32.425781 36.992188 32.808594 37.609375 33.007812 38.21875 L 33.175781 38.21875 C 32.976562 37.566406 32.574219 36.90625 31.988281 36.351562 C 30.578125 35.007812 28.636719 34.753906 27.660156 35.78125 C 27.085938 36.382812 26.96875 37.296875 27.253906 38.21875 L 27.425781 38.21875 " fill-opacity="1" fill-rule="nonzero"/><path fill="#66c655" d="M 26.964844 18.09375 C 26.617188 18.808594 26.625 19.617188 26.625 19.617188 C 26.625 19.617188 27.78125 19.722656 28.71875 19.023438 C 29.054688 18.777344 29.289062 18.433594 29.453125 18.09375 L 26.964844 18.09375 " fill-opacity="1" fill-rule="nonzero"/><path fill="#333333" d="M 29.339844 18.09375 C 29.183594 18.40625 28.964844 18.71875 28.660156 18.945312 C 27.914062 19.5 27.011719 19.527344 26.726562 19.523438 C 26.738281 19.285156 26.792969 18.648438 27.074219 18.09375 L 26.851562 18.09375 C 26.523438 18.800781 26.523438 19.570312 26.523438 19.617188 L 26.527344 19.707031 L 26.613281 19.714844 C 26.652344 19.71875 27.269531 19.769531 27.972656 19.527344 C 28.238281 19.433594 28.515625 19.300781 28.78125 19.105469 C 29.144531 18.835938 29.394531 18.460938 29.5625 18.09375 L 29.339844 18.09375 " fill-opacity="1" fill-rule="nonzero"/><path fill="#333333" d="M 28.738281 18.09375 L 28.605469 19.0625 L 28.800781 19.089844 L 28.9375 18.09375 L 28.738281 18.09375 " fill-opacity="1" fill-rule="nonzero"/><path fill="#c42625" d="M 33.824219 18.90625 C 33.75 18.585938 33.585938 18.304688 33.363281 18.09375 L 31.152344 18.09375 C 30.761719 18.46875 30.566406 19.03125 30.691406 19.601562 C 30.882812 20.46875 31.742188 21.011719 32.605469 20.820312 C 33.46875 20.628906 34.015625 19.773438 33.824219 18.90625 " fill-opacity="1" fill-rule="nonzero"/><path fill="#333333" d="M 33.921875 18.886719 C 33.851562 18.578125 33.703125 18.308594 33.5 18.09375 L 33.210938 18.09375 C 33.460938 18.300781 33.652344 18.585938 33.726562 18.929688 C 33.90625 19.738281 33.394531 20.542969 32.582031 20.722656 C 31.773438 20.902344 30.96875 20.390625 30.789062 19.582031 C 30.664062 19.007812 30.882812 18.441406 31.304688 18.09375 L 31.015625 18.09375 C 30.644531 18.488281 30.46875 19.054688 30.597656 19.625 C 30.800781 20.539062 31.710938 21.121094 32.625 20.917969 C 33.542969 20.714844 34.125 19.804688 33.921875 18.886719 " fill-opacity="1" fill-rule="nonzero"/><path fill="#c42625" d="M 30.105469 19.785156 C 30.296875 20.652344 29.753906 21.507812 28.886719 21.699219 C 28.023438 21.890625 27.167969 21.34375 26.976562 20.480469 C 26.785156 19.617188 27.328125 18.757812 28.195312 18.566406 C 29.058594 18.375 29.914062 18.921875 30.105469 19.785156 " fill-opacity="1" fill-rule="nonzero"/><path fill="#333333" d="M 28.214844 18.664062 C 27.40625 18.84375 26.894531 19.648438 27.074219 20.457031 C 27.25 21.269531 28.058594 21.78125 28.867188 21.601562 C 29.675781 21.421875 30.1875 20.617188 30.007812 19.808594 C 29.828125 18.996094 29.023438 18.484375 28.214844 18.664062 Z M 28.910156 21.796875 C 27.992188 22 27.082031 21.417969 26.878906 20.5 C 26.675781 19.585938 27.257812 18.671875 28.171875 18.46875 C 29.089844 18.265625 30 18.847656 30.203125 19.765625 C 30.40625 20.679688 29.824219 21.59375 28.910156 21.796875 " fill-opacity="1" fill-rule="nonzero"/><path fill="#f9a653" d="M 51.496094 39.414062 L 38.085938 39.414062 L 38.085938 38.21875 L 51.496094 38.21875 L 51.496094 39.414062 " fill-opacity="1" fill-rule="nonzero"/><path fill="#b76629" d="M 51.496094 18.09375 L 38.085938 18.09375 L 38.085938 16.894531 L 51.496094 16.894531 L 51.496094 18.09375 " fill-opacity="1" fill-rule="nonzero"/><path fill="#e09346" d="M 51.496094 39.414062 L 50.300781 38.21875 L 39.285156 38.21875 L 38.085938 39.414062 L 38.085938 16.894531 L 39.285156 18.09375 L 50.300781 18.09375 L 51.496094 16.894531 L 51.496094 39.414062 " fill-opacity="1" fill-rule="nonzero"/><path fill="#f4f3f2" d="M 50.300781 38.21875 L 39.285156 38.21875 L 39.148438 35.960938 C 38.839844 30.761719 38.839844 25.546875 39.148438 20.351562 L 39.285156 18.09375 L 50.300781 18.09375 L 50.433594 20.351562 C 50.746094 25.546875 50.746094 30.761719 50.433594 35.960938 L 50.300781 38.21875 " fill-opacity="1" fill-rule="nonzero"/><path fill="#c42625" d="M 46.152344 24.777344 C 46.6875 24.734375 47.074219 24.222656 47.074219 24.222656 L 47.972656 24.222656 C 47.972656 24.222656 48.054688 26.296875 46.746094 27.824219 C 45.167969 29.660156 45.640625 31.890625 45.640625 31.890625 L 42.828125 31.890625 C 42.828125 31.890625 42.777344 29.238281 44.785156 27.550781 C 45.9375 26.457031 46.085938 25.839844 46.085938 25.839844 C 46.085938 25.839844 45.398438 26.382812 44.648438 26.335938 C 44.203125 26.339844 43.429688 25.972656 43.136719 26.59375 C 43.09375 26.6875 43.0625 27.128906 43.0625 27.128906 L 41.613281 27.140625 L 41.613281 24.222656 L 43.085938 24.222656 L 43.082031 24.765625 C 43.082031 24.765625 43.632812 24.015625 44.960938 24.386719 C 45.320312 24.488281 45.828125 24.804688 46.152344 24.777344 " fill-opacity="1" fill-rule="nonzero"/><path fill="#282828" d="M 42.925781 31.792969 L 45.523438 31.792969 C 45.453125 31.296875 45.285156 29.367188 46.667969 27.757812 C 47.78125 26.460938 47.867188 24.742188 47.875 24.320312 L 47.125 24.320312 C 47.015625 24.449219 46.648438 24.835938 46.160156 24.875 C 45.929688 24.894531 45.640625 24.769531 45.359375 24.648438 C 45.203125 24.582031 45.058594 24.519531 44.933594 24.484375 C 43.695312 24.136719 43.179688 24.796875 43.160156 24.824219 L 42.980469 25.066406 L 42.988281 24.320312 L 41.710938 24.320312 L 41.710938 27.039062 L 42.96875 27.03125 C 42.984375 26.878906 43.007812 26.632812 43.046875 26.554688 C 43.296875 26.023438 43.835938 26.117188 44.265625 26.191406 C 44.40625 26.214844 44.539062 26.238281 44.648438 26.234375 C 45.355469 26.28125 46.019531 25.765625 46.027344 25.761719 L 46.25 25.582031 L 46.183594 25.863281 C 46.175781 25.886719 46.011719 26.519531 44.855469 27.621094 C 43.117188 29.082031 42.945312 31.300781 42.925781 31.792969 Z M 45.761719 31.988281 L 42.730469 31.988281 L 42.726562 31.894531 C 42.726562 31.867188 42.699219 29.171875 44.722656 27.472656 C 45.375 26.851562 45.699219 26.386719 45.855469 26.109375 C 45.574219 26.269531 45.125 26.464844 44.640625 26.433594 C 44.527344 26.4375 44.382812 26.410156 44.234375 26.386719 C 43.753906 26.304688 43.398438 26.273438 43.226562 26.636719 C 43.203125 26.683594 43.175781 26.933594 43.160156 27.136719 L 43.15625 27.226562 L 41.511719 27.242188 L 41.511719 24.121094 L 43.1875 24.121094 L 43.183594 24.527344 C 43.449219 24.316406 44.027344 24.023438 44.984375 24.292969 C 45.125 24.332031 45.277344 24.398438 45.4375 24.464844 C 45.695312 24.578125 45.960938 24.691406 46.144531 24.679688 C 46.628906 24.640625 46.992188 24.167969 46.996094 24.160156 L 47.027344 24.121094 L 48.066406 24.121094 L 48.070312 24.21875 C 48.074219 24.304688 48.140625 26.351562 46.820312 27.886719 C 45.292969 29.667969 45.730469 31.847656 45.738281 31.871094 L 45.761719 31.988281 " fill-opacity="1" fill-rule="nonzero"/><path fill="#282828" d="M 44.304688 37.402344 L 44.839844 37.402344 L 44.585938 35.894531 Z M 44.304688 37.402344 " fill-opacity="1" fill-rule="nonzero"/><path fill="#282828" d="M 40.796875 35.644531 C 40.796875 35.277344 41.085938 34.976562 41.4375 34.976562 L 48.148438 34.976562 C 48.5 34.976562 48.785156 35.277344 48.785156 35.644531 L 48.785156 38.21875 L 49.25 38.21875 L 49.25 35.433594 C 49.25 35.007812 48.929688 34.664062 48.535156 34.664062 L 41.046875 34.664062 C 40.65625 34.664062 40.335938 35.007812 40.335938 35.433594 L 40.335938 38.21875 L 40.796875 38.21875 L 40.796875 35.644531 " fill-opacity="1" fill-rule="nonzero"/><path fill="#282828" d="M 44.296875 37.472656 L 44.15625 38.21875 L 44.972656 38.21875 L 44.847656 37.472656 L 44.296875 37.472656 " fill-opacity="1" fill-rule="nonzero"/><path fill="#282828" d="M 47.316406 37.074219 C 47.316406 37.03125 47.285156 36.992188 47.226562 36.964844 C 47.164062 36.933594 47.09375 36.917969 47.007812 36.917969 L 46.742188 36.917969 L 46.742188 38.21875 L 47.367188 38.21875 C 47.332031 38.175781 47.316406 38.125 47.316406 38.0625 L 47.316406 37.074219 " fill-opacity="1" fill-rule="nonzero"/><path fill="#282828" d="M 42.789062 35.683594 C 42.730469 35.652344 42.65625 35.636719 42.570312 35.636719 L 42.308594 35.636719 L 42.308594 36.84375 L 42.570312 36.84375 C 42.65625 36.84375 42.730469 36.828125 42.789062 36.796875 C 42.847656 36.765625 42.878906 36.730469 42.878906 36.683594 L 42.878906 35.792969 C 42.878906 35.75 42.847656 35.714844 42.789062 35.683594 " fill-opacity="1" fill-rule="nonzero"/><path fill="#282828" d="M 47.226562 35.683594 C 47.164062 35.652344 47.09375 35.636719 47.007812 35.636719 L 46.742188 35.636719 L 46.742188 36.84375 L 47.007812 36.84375 C 47.09375 36.84375 47.164062 36.828125 47.226562 36.796875 C 47.285156 36.765625 47.316406 36.730469 47.316406 36.683594 L 47.316406 35.792969 C 47.316406 35.75 47.285156 35.714844 47.226562 35.683594 " fill-opacity="1" fill-rule="nonzero"/><path fill="#282828" d="M 47.957031 35.21875 L 41.628906 35.21875 C 41.296875 35.21875 41.023438 35.484375 41.023438 35.808594 L 41.023438 38.21875 L 41.695312 38.21875 L 41.695312 35.636719 L 41.503906 35.636719 L 41.503906 35.5625 L 42.570312 35.5625 C 42.824219 35.5625 43.042969 35.601562 43.222656 35.683594 C 43.402344 35.761719 43.492188 35.859375 43.492188 35.96875 L 43.492188 36.507812 C 43.492188 36.683594 43.3125 36.804688 42.957031 36.878906 C 43.3125 36.957031 43.492188 37.082031 43.492188 37.25 L 43.492188 37.949219 C 43.492188 38.050781 43.414062 38.140625 43.257812 38.21875 L 43.964844 38.21875 L 44.488281 35.5625 L 45.101562 35.5625 L 45.585938 38.21875 L 46.132812 38.21875 L 46.132812 35.636719 L 45.941406 35.636719 L 45.941406 35.5625 L 47.007812 35.5625 C 47.261719 35.5625 47.480469 35.601562 47.660156 35.683594 C 47.835938 35.761719 47.925781 35.859375 47.925781 35.96875 L 47.925781 36.507812 C 47.925781 36.683594 47.75 36.804688 47.394531 36.878906 C 47.75 36.957031 47.925781 37.082031 47.925781 37.25 L 47.925781 38.175781 C 47.925781 38.191406 47.929688 38.207031 47.9375 38.21875 L 48.558594 38.21875 L 48.558594 35.808594 C 48.558594 35.484375 48.289062 35.21875 47.957031 35.21875 " fill-opacity="1" fill-rule="nonzero"/><path fill="#282828" d="M 42.878906 38.125 L 42.878906 37.074219 C 42.878906 37.03125 42.847656 36.992188 42.789062 36.964844 C 42.730469 36.933594 42.65625 36.917969 42.570312 36.917969 L 42.308594 36.917969 L 42.308594 38.21875 L 42.820312 38.21875 C 42.859375 38.191406 42.878906 38.160156 42.878906 38.125 " fill-opacity="1" fill-rule="nonzero"/><path fill="#ffffff" d="M 48.148438 34.976562 L 41.4375 34.976562 C 41.085938 34.976562 40.796875 35.277344 40.796875 35.644531 L 40.796875 38.21875 L 41.023438 38.21875 L 41.023438 35.808594 C 41.023438 35.484375 41.296875 35.21875 41.628906 35.21875 L 47.957031 35.21875 C 48.289062 35.21875 48.558594 35.484375 48.558594 35.808594 L 48.558594 38.21875 L 48.785156 38.21875 L 48.785156 35.644531 C 48.785156 35.277344 48.5 34.976562 48.148438 34.976562 " fill-opacity="1" fill-rule="nonzero"/><path fill="#ffffff" d="M 42.878906 36.683594 C 42.878906 36.730469 42.847656 36.765625 42.789062 36.796875 C 42.730469 36.828125 42.65625 36.84375 42.570312 36.84375 L 42.308594 36.84375 L 42.308594 35.636719 L 42.570312 35.636719 C 42.65625 35.636719 42.730469 35.652344 42.789062 35.683594 C 42.847656 35.714844 42.878906 35.75 42.878906 35.792969 Z M 43.492188 37.949219 L 43.492188 37.25 C 43.492188 37.082031 43.3125 36.957031 42.957031 36.878906 C 43.3125 36.804688 43.492188 36.683594 43.492188 36.507812 L 43.492188 35.96875 C 43.492188 35.859375 43.402344 35.761719 43.222656 35.683594 C 43.042969 35.601562 42.824219 35.5625 42.570312 35.5625 L 41.503906 35.5625 L 41.503906 35.636719 L 41.695312 35.636719 L 41.695312 38.21875 L 42.308594 38.21875 L 42.308594 36.917969 L 42.570312 36.917969 C 42.65625 36.917969 42.730469 36.933594 42.789062 36.964844 C 42.847656 36.992188 42.878906 37.03125 42.878906 37.074219 L 42.878906 38.125 C 42.878906 38.160156 42.859375 38.191406 42.820312 38.21875 L 43.257812 38.21875 C 43.414062 38.140625 43.492188 38.050781 43.492188 37.949219 " fill-opacity="1" fill-rule="nonzero"/><path fill="#ffffff" d="M 44.304688 37.402344 L 44.585938 35.894531 L 44.839844 37.402344 Z M 44.488281 35.5625 L 43.964844 38.21875 L 44.15625 38.21875 L 44.296875 37.472656 L 44.847656 37.472656 L 44.972656 38.21875 L 45.585938 38.21875 L 45.101562 35.5625 L 44.488281 35.5625 " fill-opacity="1" fill-rule="nonzero"/><path fill="#ffffff" d="M 47.316406 36.683594 C 47.316406 36.730469 47.285156 36.765625 47.226562 36.796875 C 47.164062 36.828125 47.09375 36.84375 47.007812 36.84375 L 46.742188 36.84375 L 46.742188 35.636719 L 47.007812 35.636719 C 47.09375 35.636719 47.164062 35.652344 47.226562 35.683594 C 47.285156 35.714844 47.316406 35.75 47.316406 35.792969 Z M 47.925781 37.25 C 47.925781 37.082031 47.75 36.957031 47.394531 36.878906 C 47.75 36.804688 47.925781 36.683594 47.925781 36.507812 L 47.925781 35.96875 C 47.925781 35.859375 47.835938 35.761719 47.660156 35.683594 C 47.480469 35.601562 47.261719 35.5625 47.007812 35.5625 L 45.941406 35.5625 L 45.941406 35.636719 L 46.132812 35.636719 L 46.132812 38.21875 L 46.742188 38.21875 L 46.742188 36.917969 L 47.007812 36.917969 C 47.09375 36.917969 47.164062 36.933594 47.226562 36.964844 C 47.285156 36.992188 47.316406 37.03125 47.316406 37.074219 L 47.316406 38.0625 C 47.316406 38.125 47.332031 38.175781 47.367188 38.21875 L 47.9375 38.21875 C 47.929688 38.207031 47.925781 38.191406 47.925781 38.175781 L 47.925781 37.25 " fill-opacity="1" fill-rule="nonzero"/><path fill="#efc825" d="M 48.082031 19.410156 C 48.175781 18.988281 48.144531 18.535156 48.003906 18.09375 L 41.285156 18.09375 C 41.488281 19.066406 42.214844 20.042969 43.316406 20.660156 C 44.816406 21.507812 46.523438 21.417969 47.457031 20.527344 C 47.816406 20.640625 48.175781 20.546875 48.324219 20.28125 C 48.476562 20.015625 48.367188 19.65625 48.082031 19.410156 " fill-opacity="1" fill-rule="nonzero"/><path fill="#333333" d="M 48.113281 18.09375 L 47.90625 18.09375 C 48.042969 18.527344 48.078125 18.96875 47.988281 19.386719 L 47.976562 19.445312 L 48.019531 19.484375 C 48.269531 19.707031 48.363281 20.015625 48.238281 20.234375 C 48.117188 20.449219 47.804688 20.535156 47.488281 20.433594 L 47.429688 20.417969 L 47.390625 20.457031 C 46.460938 21.339844 44.808594 21.390625 43.363281 20.574219 C 42.304688 19.976562 41.585938 19.042969 41.382812 18.09375 L 41.183594 18.09375 C 41.382812 19.113281 42.144531 20.113281 43.265625 20.746094 C 43.980469 21.152344 44.75 21.351562 45.464844 21.351562 C 46.246094 21.351562 46.964844 21.113281 47.484375 20.640625 C 47.875 20.738281 48.25 20.617188 48.410156 20.332031 C 48.574219 20.042969 48.484375 19.65625 48.191406 19.375 C 48.273438 18.957031 48.238281 18.519531 48.113281 18.09375 " fill-opacity="1" fill-rule="nonzero"/><path fill="#f4a05b" d="M 9.707031 28.054688 L 8.933594 26.628906 L 9.777344 26.195312 L 11.46875 28.054688 L 9.707031 28.054688 " fill-opacity="1" fill-rule="nonzero"/><path fill="#c16f2d" d="M 11.46875 28.054688 L 9.707031 28.054688 L 8.933594 29.480469 L 9.773438 29.917969 L 11.46875 28.054688 " fill-opacity="1" fill-rule="nonzero"/><path fill="#ffbb33" d="M 8.65625 28.054688 L 8.65625 26.4375 L 11.460938 28.054688 L 10.058594 28.867188 L 8.65625 29.675781 L 8.65625 28.054688 " fill-opacity="1" fill-rule="nonzero"/><path fill="#f4a05b" d="M 50.726562 28.054688 L 51.496094 26.628906 L 50.652344 26.195312 L 48.960938 28.054688 L 50.726562 28.054688 " fill-opacity="1" fill-rule="nonzero"/><path fill="#c16f2d" d="M 48.960938 28.054688 L 50.726562 28.054688 L 51.496094 29.484375 L 50.65625 29.917969 L 48.960938 28.054688 " fill-opacity="1" fill-rule="nonzero"/><path fill="#ffbb33" d="M 51.773438 28.054688 L 51.773438 26.4375 L 48.96875 28.054688 L 50.371094 28.867188 L 51.773438 29.675781 L 51.773438 28.054688 " fill-opacity="1" fill-rule="nonzero"/><path fill="#a36019" d="M 45.601562 42.769531 C 45.398438 42.769531 45.191406 42.695312 45.03125 42.542969 C 44.695312 42.226562 44.683594 41.699219 45 41.367188 C 45.160156 41.191406 45.382812 41.105469 45.601562 41.105469 C 45.808594 41.105469 46.011719 41.179688 46.171875 41.332031 C 46.507812 41.648438 46.523438 42.175781 46.207031 42.507812 C 46.042969 42.683594 45.824219 42.769531 45.601562 42.769531 M 45.601562 41.265625 C 45.425781 41.265625 45.246094 41.335938 45.113281 41.476562 C 44.859375 41.746094 44.871094 42.171875 45.140625 42.425781 C 45.269531 42.546875 45.4375 42.609375 45.601562 42.609375 C 45.78125 42.609375 45.957031 42.539062 46.089844 42.398438 C 46.34375 42.128906 46.332031 41.703125 46.0625 41.449219 C 45.933594 41.328125 45.769531 41.265625 45.601562 41.265625 " fill-opacity="1" fill-rule="nonzero"/><path fill="#ddbc30" d="M 45.601562 42.609375 C 45.4375 42.609375 45.269531 42.546875 45.140625 42.425781 C 44.871094 42.171875 44.859375 41.746094 45.113281 41.476562 C 45.246094 41.335938 45.425781 41.265625 45.601562 41.265625 C 45.769531 41.265625 45.933594 41.328125 46.0625 41.449219 C 46.332031 41.703125 46.34375 42.128906 46.089844 42.398438 C 45.957031 42.539062 45.78125 42.609375 45.601562 42.609375 " fill-opacity="1" fill-rule="nonzero"/><path fill="#ffdf24" d="M 45.941406 41.582031 C 46.136719 41.765625 46.144531 42.078125 45.957031 42.273438 C 45.773438 42.472656 45.460938 42.480469 45.265625 42.292969 C 45.066406 42.109375 45.058594 41.796875 45.246094 41.601562 C 45.433594 41.402344 45.742188 41.394531 45.941406 41.582031 " fill-opacity="1" fill-rule="nonzero"/><path fill="#fff0a4" d="M 45.820312 41.707031 C 45.945312 41.828125 45.953125 42.027344 45.832031 42.15625 C 45.710938 42.28125 45.511719 42.289062 45.386719 42.167969 C 45.257812 42.046875 45.253906 41.847656 45.371094 41.71875 C 45.492188 41.59375 45.691406 41.585938 45.820312 41.707031 " fill-opacity="1" fill-rule="nonzero"/><path fill="#a36019" d="M 14.828125 42.769531 C 14.621094 42.769531 14.417969 42.695312 14.257812 42.542969 C 13.921875 42.226562 13.90625 41.699219 14.222656 41.367188 C 14.386719 41.191406 14.609375 41.105469 14.828125 41.105469 C 15.03125 41.105469 15.238281 41.179688 15.398438 41.332031 C 15.734375 41.648438 15.746094 42.175781 15.433594 42.507812 C 15.269531 42.683594 15.046875 42.769531 14.828125 42.769531 M 14.828125 41.265625 C 14.648438 41.265625 14.472656 41.335938 14.339844 41.476562 C 14.085938 41.746094 14.097656 42.171875 14.367188 42.425781 C 14.496094 42.546875 14.664062 42.609375 14.828125 42.609375 C 15.003906 42.609375 15.183594 42.539062 15.316406 42.398438 C 15.570312 42.128906 15.558594 41.703125 15.289062 41.449219 C 15.160156 41.328125 14.992188 41.265625 14.828125 41.265625 " fill-opacity="1" fill-rule="nonzero"/><path fill="#ddbc30" d="M 14.828125 42.609375 C 14.664062 42.609375 14.496094 42.546875 14.367188 42.425781 C 14.097656 42.171875 14.085938 41.746094 14.339844 41.476562 C 14.472656 41.335938 14.648438 41.265625 14.828125 41.265625 C 14.992188 41.265625 15.160156 41.328125 15.289062 41.449219 C 15.558594 41.703125 15.570312 42.128906 15.316406 42.398438 C 15.183594 42.539062 15.003906 42.609375 14.828125 42.609375 " fill-opacity="1" fill-rule="nonzero"/><path fill="#ffdf24" d="M 15.164062 41.582031 C 15.363281 41.765625 15.371094 42.078125 15.183594 42.273438 C 15 42.472656 14.6875 42.480469 14.492188 42.292969 C 14.292969 42.109375 14.285156 41.796875 14.472656 41.601562 C 14.65625 41.402344 14.96875 41.394531 15.164062 41.582031 " fill-opacity="1" fill-rule="nonzero"/><path fill="#fff0a4" d="M 15.046875 41.707031 C 15.171875 41.828125 15.179688 42.027344 15.058594 42.15625 C 14.9375 42.28125 14.738281 42.289062 14.609375 42.167969 C 14.484375 42.046875 14.476562 41.847656 14.597656 41.71875 C 14.71875 41.59375 14.917969 41.585938 15.046875 41.707031 " fill-opacity="1" fill-rule="nonzero"/><path fill="#f99595" d="M 38.480469 41.332031 C 38.8125 41.648438 38.828125 42.175781 38.511719 42.507812 C 38.195312 42.84375 37.671875 42.859375 37.335938 42.542969 C 37.003906 42.226562 36.988281 41.699219 37.304688 41.367188 C 37.621094 41.03125 38.148438 41.015625 38.480469 41.332031 " fill-opacity="1" fill-rule="nonzero"/><path fill="#f77c7c" d="M 38.371094 41.449219 C 38.640625 41.703125 38.652344 42.128906 38.394531 42.398438 C 38.140625 42.667969 37.714844 42.679688 37.449219 42.425781 C 37.179688 42.171875 37.167969 41.746094 37.421875 41.476562 C 37.675781 41.207031 38.101562 41.195312 38.371094 41.449219 " fill-opacity="1" fill-rule="nonzero"/><path fill="#f95555" d="M 38.246094 41.582031 C 38.441406 41.765625 38.453125 42.078125 38.265625 42.273438 C 38.078125 42.472656 37.769531 42.480469 37.570312 42.292969 C 37.375 42.109375 37.367188 41.796875 37.550781 41.601562 C 37.738281 41.402344 38.050781 41.394531 38.246094 41.582031 " fill-opacity="1" fill-rule="nonzero"/><path fill="#dd2f2f" d="M 38.125 41.707031 C 38.253906 41.828125 38.257812 42.027344 38.140625 42.15625 C 38.019531 42.28125 37.816406 42.289062 37.691406 42.167969 C 37.5625 42.046875 37.558594 41.847656 37.679688 41.71875 C 37.800781 41.59375 38 41.585938 38.125 41.707031 " fill-opacity="1" fill-rule="nonzero"/><path fill="#f99595" d="M 23.09375 41.332031 C 23.425781 41.648438 23.441406 42.175781 23.125 42.507812 C 22.808594 42.84375 22.285156 42.859375 21.949219 42.542969 C 21.617188 42.226562 21.601562 41.699219 21.917969 41.367188 C 22.234375 41.03125 22.757812 41.015625 23.09375 41.332031 " fill-opacity="1" fill-rule="nonzero"/><path fill="#f77c7c" d="M 22.984375 41.449219 C 23.25 41.703125 23.261719 42.128906 23.007812 42.398438 C 22.753906 42.667969 22.328125 42.679688 22.058594 42.425781 C 21.789062 42.171875 21.777344 41.746094 22.035156 41.476562 C 22.289062 41.207031 22.714844 41.195312 22.984375 41.449219 " fill-opacity="1" fill-rule="nonzero"/><path fill="#f95555" d="M 22.859375 41.582031 C 23.054688 41.765625 23.0625 42.078125 22.878906 42.273438 C 22.691406 42.472656 22.382812 42.480469 22.183594 42.292969 C 21.988281 42.109375 21.980469 41.796875 22.164062 41.601562 C 22.351562 41.402344 22.660156 41.394531 22.859375 41.582031 " fill-opacity="1" fill-rule="nonzero"/><path fill="#dd2f2f" d="M 22.738281 41.707031 C 22.867188 41.828125 22.871094 42.027344 22.75 42.15625 C 22.632812 42.28125 22.429688 42.289062 22.304688 42.167969 C 22.175781 42.046875 22.171875 41.847656 22.292969 41.71875 C 22.410156 41.59375 22.613281 41.585938 22.738281 41.707031 " fill-opacity="1" fill-rule="nonzero"/><path fill="#a36019" d="M 6.476562 21.078125 C 6.273438 21.078125 6.066406 21.003906 5.90625 20.851562 C 5.570312 20.535156 5.558594 20.007812 5.871094 19.675781 C 6.035156 19.5 6.257812 19.414062 6.476562 19.414062 C 6.683594 19.414062 6.886719 19.488281 7.046875 19.640625 C 7.382812 19.957031 7.398438 20.484375 7.082031 20.816406 C 6.917969 20.992188 6.695312 21.078125 6.476562 21.078125 M 6.476562 19.574219 C 6.300781 19.574219 6.121094 19.644531 5.988281 19.785156 C 5.734375 20.054688 5.746094 20.480469 6.015625 20.734375 C 6.144531 20.855469 6.3125 20.917969 6.476562 20.917969 C 6.65625 20.917969 6.832031 20.847656 6.964844 20.707031 C 7.21875 20.4375 7.207031 20.011719 6.9375 19.757812 C 6.808594 19.636719 6.640625 19.574219 6.476562 19.574219 " fill-opacity="1" fill-rule="nonzero"/><path fill="#ddbc30" d="M 6.476562 20.917969 C 6.3125 20.917969 6.144531 20.855469 6.015625 20.734375 C 5.746094 20.480469 5.734375 20.054688 5.988281 19.785156 C 6.121094 19.644531 6.300781 19.574219 6.476562 19.574219 C 6.640625 19.574219 6.808594 19.636719 6.9375 19.757812 C 7.207031 20.011719 7.21875 20.4375 6.964844 20.707031 C 6.832031 20.847656 6.65625 20.917969 6.476562 20.917969 " fill-opacity="1" fill-rule="nonzero"/><path fill="#ffdf24" d="M 6.8125 19.890625 C 7.011719 20.074219 7.019531 20.386719 6.832031 20.582031 C 6.648438 20.78125 6.335938 20.789062 6.140625 20.601562 C 5.941406 20.417969 5.933594 20.105469 6.121094 19.910156 C 6.308594 19.710938 6.617188 19.703125 6.8125 19.890625 " fill-opacity="1" fill-rule="nonzero"/><path fill="#fff0a4" d="M 6.695312 20.015625 C 6.820312 20.136719 6.828125 20.335938 6.707031 20.464844 C 6.585938 20.589844 6.386719 20.597656 6.257812 20.476562 C 6.132812 20.355469 6.125 20.15625 6.246094 20.027344 C 6.367188 19.902344 6.566406 19.894531 6.695312 20.015625 " fill-opacity="1" fill-rule="nonzero"/><path fill="#a36019" d="M 6.476562 36.472656 C 6.273438 36.472656 6.066406 36.394531 5.90625 36.242188 C 5.570312 35.929688 5.558594 35.402344 5.871094 35.066406 C 6.035156 34.894531 6.257812 34.808594 6.476562 34.808594 C 6.683594 34.808594 6.886719 34.882812 7.046875 35.035156 C 7.382812 35.351562 7.398438 35.878906 7.082031 36.210938 C 6.917969 36.382812 6.695312 36.472656 6.476562 36.472656 M 6.476562 34.96875 C 6.300781 34.96875 6.121094 35.039062 5.988281 35.179688 C 5.734375 35.449219 5.746094 35.871094 6.015625 36.128906 C 6.144531 36.25 6.3125 36.3125 6.476562 36.3125 C 6.65625 36.3125 6.832031 36.242188 6.964844 36.101562 C 7.21875 35.832031 7.207031 35.40625 6.9375 35.152344 C 6.808594 35.027344 6.640625 34.96875 6.476562 34.96875 " fill-opacity="1" fill-rule="nonzero"/><path fill="#ddbc30" d="M 6.476562 36.3125 C 6.3125 36.3125 6.144531 36.25 6.015625 36.128906 C 5.746094 35.871094 5.734375 35.449219 5.988281 35.179688 C 6.121094 35.039062 6.300781 34.96875 6.476562 34.96875 C 6.640625 34.96875 6.808594 35.027344 6.9375 35.152344 C 7.207031 35.40625 7.21875 35.832031 6.964844 36.101562 C 6.832031 36.242188 6.65625 36.3125 6.476562 36.3125 " fill-opacity="1" fill-rule="nonzero"/><path fill="#ffdf24" d="M 6.8125 35.28125 C 7.011719 35.46875 7.019531 35.78125 6.832031 35.976562 C 6.648438 36.175781 6.335938 36.183594 6.140625 35.996094 C 5.941406 35.808594 5.933594 35.5 6.121094 35.300781 C 6.308594 35.105469 6.617188 35.097656 6.8125 35.28125 " fill-opacity="1" fill-rule="nonzero"/><path fill="#fff0a4" d="M 6.695312 35.410156 C 6.820312 35.53125 6.828125 35.730469 6.707031 35.855469 C 6.585938 35.984375 6.386719 35.988281 6.257812 35.871094 C 6.132812 35.75 6.125 35.550781 6.246094 35.421875 C 6.367188 35.292969 6.566406 35.289062 6.695312 35.410156 " fill-opacity="1" fill-rule="nonzero"/><path fill="#f99595" d="M 7.046875 27.324219 C 7.382812 27.636719 7.398438 28.164062 7.082031 28.5 C 6.765625 28.832031 6.238281 28.847656 5.90625 28.53125 C 5.570312 28.214844 5.558594 27.6875 5.871094 27.355469 C 6.1875 27.023438 6.714844 27.007812 7.046875 27.324219 " fill-opacity="1" fill-rule="nonzero"/><path fill="#f77c7c" d="M 6.9375 27.4375 C 7.207031 27.695312 7.21875 28.121094 6.964844 28.386719 C 6.710938 28.65625 6.285156 28.667969 6.015625 28.414062 C 5.746094 28.160156 5.734375 27.734375 5.988281 27.464844 C 6.242188 27.195312 6.667969 27.183594 6.9375 27.4375 " fill-opacity="1" fill-rule="nonzero"/><path fill="#f95555" d="M 6.8125 27.570312 C 7.011719 27.757812 7.019531 28.066406 6.832031 28.265625 C 6.648438 28.460938 6.335938 28.46875 6.140625 28.285156 C 5.941406 28.097656 5.933594 27.785156 6.121094 27.589844 C 6.308594 27.394531 6.617188 27.382812 6.8125 27.570312 " fill-opacity="1" fill-rule="nonzero"/><path fill="#dd2f2f" d="M 6.695312 27.695312 C 6.820312 27.816406 6.828125 28.015625 6.707031 28.144531 C 6.585938 28.273438 6.386719 28.277344 6.257812 28.15625 C 6.132812 28.035156 6.125 27.835938 6.246094 27.710938 C 6.367188 27.582031 6.566406 27.578125 6.695312 27.695312 " fill-opacity="1" fill-rule="nonzero"/><path fill="#a36019" d="M 53.960938 21.078125 C 53.753906 21.078125 53.550781 21.003906 53.390625 20.851562 C 53.054688 20.535156 53.039062 20.007812 53.355469 19.675781 C 53.519531 19.5 53.742188 19.414062 53.960938 19.414062 C 54.167969 19.414062 54.371094 19.488281 54.53125 19.640625 C 54.867188 19.957031 54.878906 20.484375 54.566406 20.816406 C 54.402344 20.992188 54.179688 21.078125 53.960938 21.078125 M 53.960938 19.574219 C 53.78125 19.574219 53.605469 19.644531 53.472656 19.785156 C 53.21875 20.054688 53.230469 20.480469 53.5 20.734375 C 53.628906 20.855469 53.796875 20.917969 53.960938 20.917969 C 54.140625 20.917969 54.316406 20.847656 54.449219 20.707031 C 54.703125 20.4375 54.691406 20.011719 54.421875 19.757812 C 54.292969 19.636719 54.125 19.574219 53.960938 19.574219 " fill-opacity="1" fill-rule="nonzero"/><path fill="#ddbc30" d="M 53.960938 20.917969 C 53.796875 20.917969 53.628906 20.855469 53.5 20.734375 C 53.230469 20.480469 53.21875 20.054688 53.472656 19.785156 C 53.605469 19.644531 53.78125 19.574219 53.960938 19.574219 C 54.125 19.574219 54.292969 19.636719 54.421875 19.757812 C 54.691406 20.011719 54.703125 20.4375 54.449219 20.707031 C 54.316406 20.847656 54.140625 20.917969 53.960938 20.917969 " fill-opacity="1" fill-rule="nonzero"/><path fill="#ffdf24" d="M 54.296875 19.890625 C 54.496094 20.074219 54.503906 20.386719 54.316406 20.582031 C 54.132812 20.78125 53.820312 20.789062 53.625 20.601562 C 53.425781 20.417969 53.417969 20.105469 53.605469 19.910156 C 53.789062 19.710938 54.101562 19.703125 54.296875 19.890625 " fill-opacity="1" fill-rule="nonzero"/><path fill="#fff0a4" d="M 54.179688 20.015625 C 54.304688 20.136719 54.3125 20.335938 54.191406 20.464844 C 54.070312 20.589844 53.871094 20.597656 53.742188 20.476562 C 53.617188 20.355469 53.609375 20.15625 53.730469 20.027344 C 53.851562 19.902344 54.050781 19.894531 54.179688 20.015625 " fill-opacity="1" fill-rule="nonzero"/><path fill="#a36019" d="M 53.960938 36.472656 C 53.753906 36.472656 53.550781 36.394531 53.390625 36.242188 C 53.054688 35.929688 53.039062 35.402344 53.355469 35.066406 C 53.519531 34.894531 53.742188 34.808594 53.960938 34.808594 C 54.167969 34.808594 54.371094 34.882812 54.53125 35.035156 C 54.867188 35.351562 54.878906 35.878906 54.566406 36.210938 C 54.402344 36.382812 54.179688 36.472656 53.960938 36.472656 M 53.960938 34.96875 C 53.78125 34.96875 53.605469 35.039062 53.472656 35.179688 C 53.21875 35.449219 53.230469 35.871094 53.5 36.128906 C 53.628906 36.25 53.796875 36.3125 53.960938 36.3125 C 54.140625 36.3125 54.316406 36.242188 54.449219 36.101562 C 54.703125 35.832031 54.691406 35.40625 54.421875 35.152344 C 54.292969 35.027344 54.125 34.96875 53.960938 34.96875 " fill-opacity="1" fill-rule="nonzero"/><path fill="#ddbc30" d="M 53.960938 36.3125 C 53.796875 36.3125 53.628906 36.25 53.5 36.128906 C 53.230469 35.871094 53.21875 35.449219 53.472656 35.179688 C 53.605469 35.039062 53.78125 34.96875 53.960938 34.96875 C 54.125 34.96875 54.292969 35.027344 54.421875 35.152344 C 54.691406 35.40625 54.703125 35.832031 54.449219 36.101562 C 54.316406 36.242188 54.140625 36.3125 53.960938 36.3125 " fill-opacity="1" fill-rule="nonzero"/><path fill="#ffdf24" d="M 54.296875 35.28125 C 54.496094 35.46875 54.503906 35.78125 54.316406 35.976562 C 54.132812 36.175781 53.820312 36.183594 53.625 35.996094 C 53.425781 35.808594 53.417969 35.5 53.605469 35.300781 C 53.789062 35.105469 54.101562 35.097656 54.296875 35.28125 " fill-opacity="1" fill-rule="nonzero"/><path fill="#fff0a4" d="M 54.179688 35.410156 C 54.304688 35.53125 54.3125 35.730469 54.191406 35.855469 C 54.070312 35.984375 53.871094 35.988281 53.742188 35.871094 C 53.617188 35.75 53.609375 35.550781 53.730469 35.421875 C 53.851562 35.292969 54.050781 35.289062 54.179688 35.410156 " fill-opacity="1" fill-rule="nonzero"/><path fill="#f99595" d="M 54.53125 27.324219 C 54.867188 27.636719 54.878906 28.164062 54.566406 28.5 C 54.25 28.832031 53.722656 28.847656 53.390625 28.53125 C 53.054688 28.214844 53.039062 27.6875 53.355469 27.355469 C 53.671875 27.023438 54.199219 27.007812 54.53125 27.324219 " fill-opacity="1" fill-rule="nonzero"/><path fill="#f77c7c" d="M 54.421875 27.4375 C 54.691406 27.695312 54.703125 28.121094 54.449219 28.386719 C 54.195312 28.65625 53.769531 28.667969 53.5 28.414062 C 53.230469 28.160156 53.21875 27.734375 53.472656 27.464844 C 53.726562 27.195312 54.152344 27.183594 54.421875 27.4375 " fill-opacity="1" fill-rule="nonzero"/><path fill="#f95555" d="M 54.296875 27.570312 C 54.496094 27.757812 54.503906 28.066406 54.316406 28.265625 C 54.132812 28.460938 53.820312 28.46875 53.625 28.285156 C 53.425781 28.097656 53.417969 27.785156 53.605469 27.589844 C 53.789062 27.394531 54.101562 27.382812 54.296875 27.570312 " fill-opacity="1" fill-rule="nonzero"/><path fill="#dd2f2f" d="M 54.179688 27.695312 C 54.304688 27.816406 54.3125 28.015625 54.191406 28.144531 C 54.070312 28.273438 53.871094 28.277344 53.742188 28.15625 C 53.617188 28.035156 53.609375 27.835938 53.730469 27.710938 C 53.851562 27.582031 54.050781 27.578125 54.179688 27.695312 " fill-opacity="1" fill-rule="nonzero"/><path fill="#a36019" d="M 30.214844 42.769531 C 30.007812 42.769531 29.804688 42.695312 29.644531 42.542969 C 29.308594 42.226562 29.296875 41.699219 29.609375 41.367188 C 29.773438 41.191406 29.996094 41.105469 30.214844 41.105469 C 30.421875 41.105469 30.625 41.179688 30.785156 41.332031 C 31.121094 41.648438 31.132812 42.175781 30.820312 42.507812 C 30.65625 42.683594 30.433594 42.769531 30.214844 42.769531 M 30.214844 41.265625 C 30.039062 41.265625 29.859375 41.335938 29.726562 41.476562 C 29.472656 41.746094 29.484375 42.171875 29.753906 42.425781 C 29.882812 42.546875 30.050781 42.609375 30.214844 42.609375 C 30.394531 42.609375 30.570312 42.539062 30.703125 42.398438 C 30.957031 42.128906 30.945312 41.703125 30.675781 41.449219 C 30.546875 41.328125 30.378906 41.265625 30.214844 41.265625 " fill-opacity="1" fill-rule="nonzero"/><path fill="#ddbc30" d="M 30.214844 42.609375 C 30.050781 42.609375 29.882812 42.546875 29.753906 42.425781 C 29.484375 42.171875 29.472656 41.746094 29.726562 41.476562 C 29.859375 41.335938 30.039062 41.265625 30.214844 41.265625 C 30.378906 41.265625 30.546875 41.328125 30.675781 41.449219 C 30.945312 41.703125 30.957031 42.128906 30.703125 42.398438 C 30.570312 42.539062 30.394531 42.609375 30.214844 42.609375 " fill-opacity="1" fill-rule="nonzero"/><path fill="#ffdf24" d="M 30.550781 41.582031 C 30.75 41.765625 30.757812 42.078125 30.570312 42.273438 C 30.386719 42.472656 30.074219 42.480469 29.878906 42.292969 C 29.679688 42.109375 29.671875 41.796875 29.859375 41.601562 C 30.042969 41.402344 30.355469 41.394531 30.550781 41.582031 " fill-opacity="1" fill-rule="nonzero"/><path fill="#fff0a4" d="M 30.433594 41.707031 C 30.558594 41.828125 30.566406 42.027344 30.445312 42.15625 C 30.324219 42.28125 30.125 42.289062 29.996094 42.167969 C 29.871094 42.046875 29.863281 41.847656 29.984375 41.71875 C 30.105469 41.59375 30.304688 41.585938 30.433594 41.707031 " fill-opacity="1" fill-rule="nonzero"/><path fill="#f99595" d="M 30.816406 13.820312 C 30.480469 13.507812 29.957031 13.519531 29.640625 13.855469 C 29.324219 14.1875 29.339844 14.714844 29.671875 15.03125 C 30.007812 15.347656 30.53125 15.332031 30.847656 15 C 31.164062 14.664062 31.148438 14.136719 30.816406 13.820312 " fill-opacity="1" fill-rule="nonzero"/><path fill="#f77c7c" d="M 30.703125 13.9375 C 30.4375 13.683594 30.011719 13.695312 29.757812 13.964844 C 29.5 14.234375 29.511719 14.660156 29.78125 14.914062 C 30.050781 15.167969 30.476562 15.15625 30.730469 14.886719 C 30.984375 14.617188 30.972656 14.195312 30.703125 13.9375 " fill-opacity="1" fill-rule="nonzero"/><path fill="#f95555" d="M 30.582031 14.070312 C 30.382812 13.882812 30.074219 13.890625 29.886719 14.089844 C 29.699219 14.285156 29.710938 14.597656 29.90625 14.78125 C 30.101562 14.96875 30.414062 14.960938 30.601562 14.765625 C 30.785156 14.566406 30.777344 14.257812 30.582031 14.070312 " fill-opacity="1" fill-rule="nonzero"/><path fill="#dd2f2f" d="M 30.460938 14.195312 C 30.335938 14.078125 30.132812 14.082031 30.011719 14.207031 C 29.894531 14.335938 29.898438 14.535156 30.027344 14.65625 C 30.152344 14.777344 30.351562 14.769531 30.472656 14.644531 C 30.59375 14.515625 30.589844 14.316406 30.460938 14.195312 " fill-opacity="1" fill-rule="nonzero"/><path fill="#f99595" d="M 46.171875 13.726562 C 46.507812 14.042969 46.523438 14.570312 46.207031 14.90625 C 45.890625 15.238281 45.363281 15.253906 45.03125 14.9375 C 44.695312 14.621094 44.683594 14.09375 44.996094 13.761719 C 45.3125 13.425781 45.839844 13.414062 46.171875 13.726562 " fill-opacity="1" fill-rule="nonzero"/><path fill="#f77c7c" d="M 46.0625 13.84375 C 46.332031 14.101562 46.34375 14.523438 46.089844 14.792969 C 45.835938 15.0625 45.410156 15.074219 45.140625 14.820312 C 44.871094 14.566406 44.859375 14.140625 45.113281 13.871094 C 45.371094 13.601562 45.792969 13.589844 46.0625 13.84375 " fill-opacity="1" fill-rule="nonzero"/><path fill="#f95555" d="M 45.941406 13.976562 C 46.136719 14.164062 46.144531 14.472656 45.957031 14.671875 C 45.773438 14.867188 45.460938 14.875 45.265625 14.6875 C 45.066406 14.503906 45.058594 14.191406 45.246094 13.996094 C 45.433594 13.796875 45.742188 13.789062 45.941406 13.976562 " fill-opacity="1" fill-rule="nonzero"/><path fill="#dd2f2f" d="M 45.820312 14.101562 C 45.945312 14.222656 45.953125 14.421875 45.832031 14.550781 C 45.710938 14.675781 45.511719 14.683594 45.382812 14.5625 C 45.257812 14.441406 45.253906 14.242188 45.371094 14.113281 C 45.492188 13.988281 45.691406 13.980469 45.820312 14.101562 " fill-opacity="1" fill-rule="nonzero"/><path fill="#f99595" d="M 15.398438 13.726562 C 15.734375 14.042969 15.746094 14.570312 15.433594 14.90625 C 15.117188 15.238281 14.589844 15.253906 14.257812 14.9375 C 13.921875 14.621094 13.90625 14.09375 14.222656 13.761719 C 14.539062 13.425781 15.066406 13.414062 15.398438 13.726562 " fill-opacity="1" fill-rule="nonzero"/><path fill="#f77c7c" d="M 15.289062 13.84375 C 15.558594 14.101562 15.570312 14.523438 15.316406 14.792969 C 15.058594 15.0625 14.636719 15.074219 14.367188 14.820312 C 14.097656 14.566406 14.085938 14.140625 14.339844 13.871094 C 14.59375 13.601562 15.019531 13.589844 15.289062 13.84375 " fill-opacity="1" fill-rule="nonzero"/><path fill="#f95555" d="M 15.164062 13.976562 C 15.363281 14.164062 15.371094 14.472656 15.183594 14.671875 C 14.996094 14.867188 14.6875 14.875 14.492188 14.6875 C 14.292969 14.503906 14.285156 14.191406 14.472656 13.996094 C 14.65625 13.796875 14.96875 13.789062 15.164062 13.976562 " fill-opacity="1" fill-rule="nonzero"/><path fill="#dd2f2f" d="M 15.046875 14.101562 C 15.171875 14.222656 15.175781 14.421875 15.058594 14.550781 C 14.9375 14.675781 14.738281 14.683594 14.609375 14.5625 C 14.484375 14.441406 14.476562 14.242188 14.597656 14.113281 C 14.71875 13.988281 14.917969 13.980469 15.046875 14.101562 " fill-opacity="1" fill-rule="nonzero"/><path fill="#a36019" d="M 37.910156 15.164062 C 37.703125 15.164062 37.496094 15.089844 37.335938 14.9375 C 37.003906 14.621094 36.988281 14.09375 37.304688 13.761719 C 37.46875 13.589844 37.6875 13.5 37.910156 13.5 C 38.113281 13.5 38.320312 13.574219 38.480469 13.726562 C 38.8125 14.042969 38.828125 14.570312 38.511719 14.90625 C 38.347656 15.078125 38.128906 15.164062 37.910156 15.164062 M 37.910156 13.660156 C 37.730469 13.660156 37.554688 13.730469 37.421875 13.871094 C 37.167969 14.140625 37.179688 14.566406 37.449219 14.820312 C 37.578125 14.941406 37.742188 15.003906 37.910156 15.003906 C 38.085938 15.003906 38.265625 14.933594 38.394531 14.792969 C 38.652344 14.523438 38.640625 14.101562 38.371094 13.84375 C 38.238281 13.722656 38.074219 13.660156 37.910156 13.660156 " fill-opacity="1" fill-rule="nonzero"/><path fill="#ddbc30" d="M 37.910156 15.003906 C 37.742188 15.003906 37.578125 14.941406 37.449219 14.820312 C 37.179688 14.566406 37.167969 14.140625 37.421875 13.871094 C 37.554688 13.730469 37.730469 13.660156 37.910156 13.660156 C 38.074219 13.660156 38.238281 13.722656 38.371094 13.84375 C 38.640625 14.101562 38.652344 14.523438 38.394531 14.792969 C 38.265625 14.933594 38.085938 15.003906 37.910156 15.003906 " fill-opacity="1" fill-rule="nonzero"/><path fill="#ffdf24" d="M 38.246094 13.976562 C 38.441406 14.164062 38.453125 14.472656 38.265625 14.671875 C 38.078125 14.867188 37.769531 14.875 37.570312 14.6875 C 37.375 14.503906 37.367188 14.191406 37.550781 13.996094 C 37.738281 13.796875 38.050781 13.789062 38.246094 13.976562 " fill-opacity="1" fill-rule="nonzero"/><path fill="#fff0a4" d="M 38.125 14.101562 C 38.253906 14.222656 38.257812 14.421875 38.136719 14.550781 C 38.019531 14.675781 37.816406 14.683594 37.691406 14.5625 C 37.5625 14.441406 37.558594 14.242188 37.679688 14.113281 C 37.796875 13.988281 38 13.980469 38.125 14.101562 " fill-opacity="1" fill-rule="nonzero"/><path fill="#a36019" d="M 22.519531 15.164062 C 22.316406 15.164062 22.109375 15.089844 21.949219 14.9375 C 21.617188 14.621094 21.601562 14.09375 21.917969 13.761719 C 22.082031 13.589844 22.300781 13.5 22.523438 13.5 C 22.726562 13.5 22.933594 13.574219 23.09375 13.726562 C 23.425781 14.042969 23.441406 14.570312 23.125 14.90625 C 22.960938 15.078125 22.742188 15.164062 22.519531 15.164062 M 22.523438 13.660156 C 22.34375 13.660156 22.164062 13.730469 22.035156 13.871094 C 21.777344 14.140625 21.789062 14.566406 22.058594 14.820312 C 22.191406 14.941406 22.355469 15.003906 22.519531 15.003906 C 22.699219 15.003906 22.875 14.933594 23.007812 14.792969 C 23.261719 14.523438 23.25 14.101562 22.984375 13.84375 C 22.851562 13.722656 22.6875 13.660156 22.523438 13.660156 " fill-opacity="1" fill-rule="nonzero"/><path fill="#ddbc30" d="M 22.519531 15.003906 C 22.355469 15.003906 22.191406 14.941406 22.058594 14.820312 C 21.789062 14.566406 21.777344 14.140625 22.035156 13.871094 C 22.164062 13.730469 22.34375 13.660156 22.523438 13.660156 C 22.6875 13.660156 22.851562 13.722656 22.984375 13.84375 C 23.25 14.101562 23.261719 14.523438 23.007812 14.792969 C 22.875 14.933594 22.699219 15.003906 22.519531 15.003906 " fill-opacity="1" fill-rule="nonzero"/><path fill="#ffdf24" d="M 22.859375 13.976562 C 23.054688 14.164062 23.0625 14.472656 22.878906 14.671875 C 22.691406 14.867188 22.382812 14.875 22.183594 14.6875 C 21.988281 14.503906 21.976562 14.191406 22.164062 13.996094 C 22.351562 13.796875 22.660156 13.789062 22.859375 13.976562 " fill-opacity="1" fill-rule="nonzero"/><path fill="#fff0a4" d="M 22.738281 14.101562 C 22.867188 14.222656 22.871094 14.421875 22.75 14.550781 C 22.632812 14.675781 22.429688 14.683594 22.304688 14.5625 C 22.175781 14.441406 22.171875 14.242188 22.292969 14.113281 C 22.410156 13.988281 22.613281 13.980469 22.738281 14.101562 " fill-opacity="1" fill-rule="nonzero"/><path fill="#a36019" d="M 30.242188 5.394531 C 30.105469 5.394531 29.964844 5.34375 29.855469 5.242188 C 29.628906 5.027344 29.617188 4.667969 29.832031 4.441406 C 29.945312 4.324219 30.09375 4.261719 30.242188 4.261719 C 30.382812 4.261719 30.523438 4.316406 30.632812 4.417969 C 30.859375 4.632812 30.871094 4.992188 30.65625 5.21875 C 30.542969 5.335938 30.394531 5.394531 30.242188 5.394531 M 30.242188 4.371094 C 30.121094 4.371094 30 4.421875 29.910156 4.515625 C 29.738281 4.699219 29.746094 4.988281 29.929688 5.160156 C 30.019531 5.246094 30.128906 5.285156 30.242188 5.285156 C 30.363281 5.285156 30.484375 5.238281 30.574219 5.144531 C 30.75 4.960938 30.742188 4.671875 30.558594 4.496094 C 30.46875 4.414062 30.355469 4.371094 30.242188 4.371094 " fill-opacity="1" fill-rule="nonzero"/><path fill="#ddbc30" d="M 30.242188 5.285156 C 30.128906 5.285156 30.019531 5.246094 29.929688 5.160156 C 29.746094 4.988281 29.738281 4.699219 29.910156 4.515625 C 30 4.421875 30.121094 4.371094 30.242188 4.371094 C 30.355469 4.371094 30.46875 4.414062 30.558594 4.496094 C 30.742188 4.671875 30.75 4.960938 30.574219 5.144531 C 30.484375 5.238281 30.363281 5.285156 30.242188 5.285156 " fill-opacity="1" fill-rule="nonzero"/><path fill="#ffdf24" d="M 30.472656 4.585938 C 30.339844 4.460938 30.128906 4.464844 30 4.601562 C 29.875 4.734375 29.878906 4.945312 30.015625 5.070312 C 30.148438 5.199219 30.359375 5.191406 30.488281 5.058594 C 30.613281 4.925781 30.609375 4.714844 30.472656 4.585938 " fill-opacity="1" fill-rule="nonzero"/><path fill="#fff0a4" d="M 30.390625 4.671875 C 30.304688 4.589844 30.167969 4.59375 30.085938 4.679688 C 30.003906 4.769531 30.007812 4.902344 30.097656 4.984375 C 30.183594 5.066406 30.316406 5.0625 30.398438 4.976562 C 30.480469 4.890625 30.476562 4.753906 30.390625 4.671875 " fill-opacity="1" fill-rule="nonzero"/><path fill="#a36019" d="M 19.539062 7.460938 C 19.398438 7.460938 19.261719 7.410156 19.152344 7.304688 C 18.921875 7.089844 18.914062 6.730469 19.128906 6.503906 C 19.238281 6.386719 19.390625 6.328125 19.539062 6.328125 C 19.679688 6.328125 19.820312 6.378906 19.929688 6.484375 C 20.15625 6.699219 20.164062 7.054688 19.949219 7.28125 C 19.839844 7.402344 19.691406 7.460938 19.539062 7.460938 M 19.539062 6.4375 C 19.417969 6.4375 19.296875 6.484375 19.207031 6.578125 C 19.035156 6.761719 19.042969 7.050781 19.226562 7.226562 C 19.3125 7.308594 19.425781 7.351562 19.539062 7.351562 C 19.660156 7.351562 19.78125 7.300781 19.871094 7.207031 C 20.042969 7.023438 20.035156 6.734375 19.855469 6.5625 C 19.765625 6.476562 19.652344 6.4375 19.539062 6.4375 " fill-opacity="1" fill-rule="nonzero"/><path fill="#ddbc30" d="M 19.539062 7.351562 C 19.425781 7.351562 19.3125 7.308594 19.226562 7.226562 C 19.042969 7.050781 19.035156 6.761719 19.207031 6.578125 C 19.296875 6.484375 19.417969 6.4375 19.539062 6.4375 C 19.652344 6.4375 19.765625 6.476562 19.855469 6.5625 C 20.035156 6.734375 20.042969 7.023438 19.871094 7.207031 C 19.78125 7.300781 19.660156 7.351562 19.539062 7.351562 " fill-opacity="1" fill-rule="nonzero"/><path fill="#ffdf24" d="M 19.769531 6.652344 C 19.902344 6.777344 19.910156 6.988281 19.78125 7.125 C 19.65625 7.257812 19.445312 7.261719 19.308594 7.136719 C 19.175781 7.007812 19.171875 6.796875 19.296875 6.664062 C 19.421875 6.53125 19.636719 6.523438 19.769531 6.652344 " fill-opacity="1" fill-rule="nonzero"/><path fill="#fff0a4" d="M 19.6875 6.738281 C 19.773438 6.820312 19.777344 6.957031 19.695312 7.042969 C 19.613281 7.128906 19.476562 7.132812 19.390625 7.050781 C 19.304688 6.96875 19.300781 6.832031 19.382812 6.746094 C 19.464844 6.660156 19.601562 6.65625 19.6875 6.738281 " fill-opacity="1" fill-rule="nonzero"/><path fill="#a36019" d="M 10.203125 12.746094 C 10.0625 12.746094 9.921875 12.695312 9.8125 12.589844 C 9.585938 12.375 9.574219 12.019531 9.789062 11.789062 C 9.902344 11.671875 10.050781 11.613281 10.203125 11.613281 C 10.339844 11.613281 10.480469 11.664062 10.589844 11.769531 C 10.816406 11.984375 10.828125 12.34375 10.613281 12.570312 C 10.5 12.6875 10.351562 12.746094 10.203125 12.746094 M 10.203125 11.722656 C 10.082031 11.722656 9.960938 11.769531 9.871094 11.867188 C 9.695312 12.050781 9.703125 12.339844 9.886719 12.511719 C 9.976562 12.59375 10.089844 12.636719 10.203125 12.636719 C 10.324219 12.636719 10.441406 12.589844 10.53125 12.492188 C 10.707031 12.3125 10.699219 12.023438 10.515625 11.847656 C 10.425781 11.765625 10.3125 11.722656 10.203125 11.722656 " fill-opacity="1" fill-rule="nonzero"/><path fill="#ddbc30" d="M 10.203125 12.636719 C 10.089844 12.636719 9.976562 12.59375 9.886719 12.511719 C 9.703125 12.339844 9.695312 12.050781 9.871094 11.867188 C 9.960938 11.769531 10.082031 11.722656 10.203125 11.722656 C 10.3125 11.722656 10.425781 11.765625 10.515625 11.847656 C 10.699219 12.023438 10.707031 12.3125 10.53125 12.492188 C 10.441406 12.589844 10.324219 12.636719 10.203125 12.636719 " fill-opacity="1" fill-rule="nonzero"/><path fill="#ffdf24" d="M 10.429688 11.9375 C 10.566406 12.0625 10.570312 12.277344 10.445312 12.410156 C 10.316406 12.542969 10.105469 12.550781 9.972656 12.421875 C 9.835938 12.296875 9.832031 12.085938 9.957031 11.949219 C 10.085938 11.816406 10.296875 11.808594 10.429688 11.9375 " fill-opacity="1" fill-rule="nonzero"/><path fill="#fff0a4" d="M 10.347656 12.023438 C 10.4375 12.105469 10.441406 12.242188 10.359375 12.328125 C 10.277344 12.414062 10.140625 12.417969 10.054688 12.335938 C 9.96875 12.253906 9.960938 12.117188 10.042969 12.03125 C 10.125 11.945312 10.261719 11.941406 10.347656 12.023438 " fill-opacity="1" fill-rule="nonzero"/><path fill="#a36019" d="M 50.101562 12.746094 C 49.960938 12.746094 49.820312 12.695312 49.710938 12.589844 C 49.484375 12.375 49.476562 12.019531 49.691406 11.789062 C 49.800781 11.671875 49.949219 11.613281 50.101562 11.613281 C 50.242188 11.613281 50.378906 11.664062 50.488281 11.769531 C 50.71875 11.984375 50.726562 12.34375 50.511719 12.570312 C 50.402344 12.6875 50.25 12.746094 50.101562 12.746094 M 50.101562 11.722656 C 49.980469 11.722656 49.859375 11.769531 49.769531 11.867188 C 49.59375 12.050781 49.605469 12.339844 49.785156 12.511719 C 49.875 12.59375 49.988281 12.636719 50.101562 12.636719 C 50.222656 12.636719 50.34375 12.589844 50.433594 12.492188 C 50.605469 12.3125 50.597656 12.023438 50.414062 11.847656 C 50.328125 11.765625 50.214844 11.722656 50.101562 11.722656 " fill-opacity="1" fill-rule="nonzero"/><path fill="#ddbc30" d="M 50.101562 12.636719 C 49.988281 12.636719 49.875 12.59375 49.785156 12.511719 C 49.605469 12.339844 49.59375 12.050781 49.769531 11.867188 C 49.859375 11.769531 49.980469 11.722656 50.101562 11.722656 C 50.214844 11.722656 50.328125 11.765625 50.414062 11.847656 C 50.597656 12.023438 50.605469 12.3125 50.433594 12.492188 C 50.34375 12.589844 50.222656 12.636719 50.101562 12.636719 " fill-opacity="1" fill-rule="nonzero"/><path fill="#ffdf24" d="M 50.332031 11.9375 C 50.464844 12.0625 50.46875 12.277344 50.34375 12.410156 C 50.214844 12.542969 50.003906 12.550781 49.871094 12.421875 C 49.738281 12.296875 49.730469 12.085938 49.859375 11.949219 C 49.984375 11.816406 50.195312 11.808594 50.332031 11.9375 " fill-opacity="1" fill-rule="nonzero"/><path fill="#fff0a4" d="M 50.25 12.023438 C 50.335938 12.105469 50.339844 12.242188 50.257812 12.328125 C 50.175781 12.414062 50.039062 12.417969 49.953125 12.335938 C 49.867188 12.253906 49.863281 12.117188 49.945312 12.03125 C 50.027344 11.945312 50.164062 11.941406 50.25 12.023438 " fill-opacity="1" fill-rule="nonzero"/><path fill="#a36019" d="M 40.855469 7.460938 C 40.714844 7.460938 40.578125 7.410156 40.46875 7.304688 C 40.238281 7.089844 40.230469 6.730469 40.445312 6.503906 C 40.554688 6.386719 40.707031 6.328125 40.855469 6.328125 C 40.996094 6.328125 41.136719 6.378906 41.246094 6.484375 C 41.472656 6.699219 41.480469 7.054688 41.265625 7.28125 C 41.15625 7.402344 41.007812 7.460938 40.855469 7.460938 M 40.855469 6.4375 C 40.734375 6.4375 40.613281 6.484375 40.523438 6.578125 C 40.351562 6.761719 40.359375 7.050781 40.542969 7.226562 C 40.628906 7.308594 40.742188 7.351562 40.855469 7.351562 C 40.976562 7.351562 41.097656 7.300781 41.1875 7.207031 C 41.359375 7.023438 41.351562 6.734375 41.171875 6.5625 C 41.082031 6.476562 40.96875 6.4375 40.855469 6.4375 " fill-opacity="1" fill-rule="nonzero"/><path fill="#ddbc30" d="M 40.855469 7.351562 C 40.742188 7.351562 40.628906 7.308594 40.542969 7.226562 C 40.359375 7.050781 40.351562 6.761719 40.523438 6.578125 C 40.613281 6.484375 40.734375 6.4375 40.855469 6.4375 C 40.96875 6.4375 41.082031 6.476562 41.171875 6.5625 C 41.351562 6.734375 41.359375 7.023438 41.1875 7.207031 C 41.097656 7.300781 40.976562 7.351562 40.855469 7.351562 " fill-opacity="1" fill-rule="nonzero"/><path fill="#ffdf24" d="M 41.085938 6.652344 C 41.21875 6.777344 41.226562 6.988281 41.097656 7.125 C 40.972656 7.257812 40.761719 7.261719 40.625 7.136719 C 40.492188 7.007812 40.488281 6.796875 40.613281 6.664062 C 40.738281 6.53125 40.953125 6.523438 41.085938 6.652344 " fill-opacity="1" fill-rule="nonzero"/><path fill="#fff0a4" d="M 41.003906 6.738281 C 41.089844 6.820312 41.09375 6.957031 41.011719 7.042969 C 40.929688 7.128906 40.792969 7.132812 40.707031 7.050781 C 40.621094 6.96875 40.617188 6.832031 40.699219 6.746094 C 40.78125 6.660156 40.917969 6.65625 41.003906 6.738281 " fill-opacity="1" fill-rule="nonzero"/><path fill="#f99595" d="M 25.296875 4.984375 C 25.523438 5.199219 25.53125 5.558594 25.316406 5.785156 C 25.101562 6.011719 24.746094 6.023438 24.515625 5.808594 C 24.289062 5.59375 24.28125 5.234375 24.496094 5.007812 C 24.710938 4.78125 25.070312 4.769531 25.296875 4.984375 " fill-opacity="1" fill-rule="nonzero"/><path fill="#f77c7c" d="M 25.21875 5.0625 C 25.402344 5.238281 25.410156 5.527344 25.238281 5.710938 C 25.066406 5.894531 24.777344 5.902344 24.59375 5.726562 C 24.410156 5.554688 24.402344 5.265625 24.574219 5.082031 C 24.75 4.898438 25.039062 4.890625 25.21875 5.0625 " fill-opacity="1" fill-rule="nonzero"/><path fill="#f95555" d="M 25.136719 5.152344 C 25.269531 5.28125 25.277344 5.492188 25.148438 5.625 C 25.023438 5.757812 24.8125 5.765625 24.675781 5.636719 C 24.542969 5.511719 24.535156 5.300781 24.664062 5.164062 C 24.789062 5.03125 25.003906 5.027344 25.136719 5.152344 " fill-opacity="1" fill-rule="nonzero"/><path fill="#dd2f2f" d="M 25.054688 5.238281 C 25.140625 5.320312 25.144531 5.457031 25.0625 5.542969 C 24.980469 5.628906 24.84375 5.632812 24.757812 5.550781 C 24.671875 5.46875 24.667969 5.332031 24.75 5.246094 C 24.832031 5.160156 24.96875 5.15625 25.054688 5.238281 " fill-opacity="1" fill-rule="nonzero"/><path fill="#f99595" d="M 14.742188 8.761719 C 14.96875 8.976562 14.980469 9.335938 14.765625 9.5625 C 14.550781 9.789062 14.191406 9.800781 13.964844 9.585938 C 13.738281 9.371094 13.726562 9.011719 13.941406 8.785156 C 14.15625 8.558594 14.515625 8.546875 14.742188 8.761719 " fill-opacity="1" fill-rule="nonzero"/><path fill="#f77c7c" d="M 14.667969 8.84375 C 14.851562 9.015625 14.859375 9.304688 14.6875 9.488281 C 14.511719 9.671875 14.222656 9.679688 14.039062 9.507812 C 13.855469 9.332031 13.847656 9.042969 14.023438 8.859375 C 14.195312 8.675781 14.484375 8.667969 14.667969 8.84375 " fill-opacity="1" fill-rule="nonzero"/><path fill="#f95555" d="M 14.582031 8.929688 C 14.71875 9.058594 14.722656 9.269531 14.597656 9.402344 C 14.46875 9.539062 14.257812 9.542969 14.125 9.417969 C 13.992188 9.289062 13.984375 9.078125 14.109375 8.945312 C 14.238281 8.8125 14.449219 8.804688 14.582031 8.929688 " fill-opacity="1" fill-rule="nonzero"/><path fill="#dd2f2f" d="M 14.503906 9.019531 C 14.589844 9.097656 14.59375 9.234375 14.511719 9.324219 C 14.429688 9.410156 14.292969 9.414062 14.207031 9.332031 C 14.121094 9.25 14.117188 9.113281 14.199219 9.027344 C 14.277344 8.941406 14.414062 8.9375 14.503906 9.019531 " fill-opacity="1" fill-rule="nonzero"/><path fill="#f99595" d="M 46.332031 8.761719 C 46.558594 8.976562 46.570312 9.335938 46.355469 9.5625 C 46.140625 9.789062 45.78125 9.800781 45.554688 9.585938 C 45.328125 9.371094 45.316406 9.011719 45.53125 8.785156 C 45.746094 8.558594 46.105469 8.546875 46.332031 8.761719 " fill-opacity="1" fill-rule="nonzero"/><path fill="#f77c7c" d="M 46.257812 8.84375 C 46.441406 9.015625 46.449219 9.304688 46.273438 9.488281 C 46.101562 9.671875 45.8125 9.679688 45.628906 9.507812 C 45.445312 9.332031 45.4375 9.042969 45.609375 8.859375 C 45.785156 8.675781 46.074219 8.667969 46.257812 8.84375 " fill-opacity="1" fill-rule="nonzero"/><path fill="#f95555" d="M 46.171875 8.929688 C 46.304688 9.058594 46.3125 9.269531 46.1875 9.402344 C 46.058594 9.539062 45.847656 9.542969 45.714844 9.417969 C 45.578125 9.289062 45.574219 9.078125 45.699219 8.945312 C 45.828125 8.8125 46.039062 8.804688 46.171875 8.929688 " fill-opacity="1" fill-rule="nonzero"/><path fill="#dd2f2f" d="M 46.089844 9.019531 C 46.175781 9.097656 46.179688 9.234375 46.097656 9.324219 C 46.019531 9.410156 45.882812 9.414062 45.792969 9.332031 C 45.707031 9.25 45.703125 9.113281 45.785156 9.027344 C 45.867188 8.941406 46.003906 8.9375 46.089844 9.019531 " fill-opacity="1" fill-rule="nonzero"/><path fill="#f99595" d="M 35.914062 4.984375 C 36.140625 5.199219 36.148438 5.558594 35.933594 5.785156 C 35.71875 6.011719 35.363281 6.023438 35.132812 5.808594 C 34.90625 5.59375 34.898438 5.234375 35.113281 5.007812 C 35.328125 4.78125 35.683594 4.769531 35.914062 4.984375 " fill-opacity="1" fill-rule="nonzero"/><path fill="#f77c7c" d="M 35.835938 5.0625 C 36.019531 5.238281 36.027344 5.527344 35.855469 5.710938 C 35.683594 5.894531 35.394531 5.902344 35.210938 5.726562 C 35.027344 5.554688 35.019531 5.265625 35.191406 5.082031 C 35.363281 4.898438 35.652344 4.890625 35.835938 5.0625 " fill-opacity="1" fill-rule="nonzero"/><path fill="#f95555" d="M 35.753906 5.152344 C 35.886719 5.28125 35.894531 5.492188 35.765625 5.625 C 35.640625 5.757812 35.429688 5.765625 35.292969 5.636719 C 35.160156 5.511719 35.152344 5.300781 35.28125 5.164062 C 35.40625 5.03125 35.621094 5.027344 35.753906 5.152344 " fill-opacity="1" fill-rule="nonzero"/><path fill="#dd2f2f" d="M 35.671875 5.238281 C 35.757812 5.320312 35.761719 5.457031 35.679688 5.542969 C 35.597656 5.628906 35.460938 5.632812 35.375 5.550781 C 35.289062 5.46875 35.285156 5.332031 35.367188 5.246094 C 35.449219 5.160156 35.585938 5.15625 35.671875 5.238281 " fill-opacity="1" fill-rule="nonzero"/><path fill="#fff0a4" d="M 20.410156 11.683594 C 20.792969 11.820312 21.355469 11.933594 21.941406 11.933594 C 22.816406 11.933594 23.328125 11.667969 23.328125 11.28125 C 23.328125 10.925781 22.972656 10.722656 22.082031 10.523438 C 21 10.304688 20.332031 9.980469 20.332031 9.441406 C 20.332031 8.847656 21.1875 8.40625 22.472656 8.40625 C 23.152344 8.40625 23.644531 8.496094 23.9375 8.59375 L 23.703125 8.996094 C 23.484375 8.929688 23.042969 8.816406 22.445312 8.816406 C 21.539062 8.816406 21.195312 9.125 21.195312 9.386719 C 21.195312 9.742188 21.597656 9.917969 22.511719 10.121094 C 23.632812 10.371094 24.203125 10.683594 24.203125 11.242188 C 24.203125 11.832031 23.445312 12.339844 21.882812 12.339844 C 21.246094 12.339844 20.546875 12.234375 20.195312 12.097656 L 20.410156 11.683594 " fill-opacity="1" fill-rule="nonzero"/><path fill="#fff0a4" d="M 25.371094 8.46875 L 26.226562 8.46875 L 26.226562 11.871094 L 29.054688 11.871094 L 29.054688 12.285156 L 25.371094 12.285156 L 25.371094 8.46875 " fill-opacity="1" fill-rule="nonzero"/><path fill="#fff0a4" d="M 30.144531 10.398438 C 30.144531 11.214844 30.910156 11.945312 32.257812 11.945312 C 33.613281 11.945312 34.378906 11.226562 34.378906 10.359375 C 34.378906 9.601562 33.691406 8.808594 32.265625 8.808594 C 30.851562 8.808594 30.144531 9.5625 30.144531 10.398438 Z M 35.28125 10.335938 C 35.28125 11.652344 33.898438 12.347656 32.207031 12.347656 C 30.460938 12.347656 29.230469 11.566406 29.230469 10.410156 C 29.230469 9.199219 30.539062 8.40625 32.304688 8.40625 C 34.113281 8.40625 35.28125 9.207031 35.28125 10.335938 " fill-opacity="1" fill-rule="nonzero"/><path fill="#fff0a4" d="M 37.40625 8.886719 L 35.390625 8.886719 L 35.390625 8.46875 L 40.292969 8.46875 L 40.292969 8.886719 L 38.269531 8.886719 L 38.269531 12.285156 L 37.40625 12.285156 L 37.40625 8.886719 " fill-opacity="1" fill-rule="nonzero"/><g clip-path="url(#id3)"><path fill="#212121" d="M 8.46875 55.800781 L 5.347656 55.800781 C 4.8125 55.800781 4.371094 56.238281 4.371094 56.777344 C 4.371094 57.3125 4.8125 57.753906 5.347656 57.753906 L 8.46875 57.753906 C 9.003906 57.753906 9.441406 57.3125 9.441406 56.777344 C 9.441406 56.238281 9.003906 55.800781 8.46875 55.800781 " fill-opacity="1" fill-rule="nonzero"/></g><g clip-path="url(#id4)"><path fill="#212121" d="M 55.074219 55.800781 L 51.957031 55.800781 C 51.417969 55.800781 50.980469 56.238281 50.980469 56.777344 C 50.980469 57.3125 51.417969 57.753906 51.957031 57.753906 L 55.074219 57.753906 C 55.609375 57.753906 56.050781 57.3125 56.050781 56.777344 C 56.050781 56.238281 55.609375 55.800781 55.074219 55.800781 " fill-opacity="1" fill-rule="nonzero"/></g><path fill="#660000" d="M 0.535156 51.855469 L 0.535156 54.097656 C 0.535156 55.578125 1.734375 56.777344 3.210938 56.777344 L 57.210938 56.777344 C 58.6875 56.777344 59.886719 55.578125 59.886719 54.097656 L 59.886719 51.855469 L 0.535156 51.855469 " fill-opacity="1" fill-rule="nonzero"/><path fill="#a01526" d="M 59.632812 50.546875 L 56.152344 44.972656 C 55.496094 43.925781 54.347656 43.285156 53.109375 43.285156 L 7.386719 43.285156 C 6.152344 43.285156 5 43.925781 4.347656 44.972656 L 0.863281 50.546875 C 0.0234375 51.890625 0.992188 53.636719 2.578125 53.636719 L 57.921875 53.636719 C 59.507812 53.636719 60.472656 51.890625 59.632812 50.546875 " fill-opacity="1" fill-rule="nonzero"/><path fill="#5b0101" d="M 15.574219 47.835938 C 15.574219 47.566406 15.390625 47.34375 15.167969 47.34375 C 13.792969 47.34375 9.308594 47.34375 7.9375 47.34375 C 7.714844 47.34375 7.53125 47.5625 7.53125 47.832031 C 7.53125 48.207031 7.527344 48.65625 7.527344 48.660156 C 7.527344 49.171875 9.328125 49.589844 11.550781 49.589844 C 13.773438 49.589844 15.574219 49.171875 15.574219 48.660156 C 15.574219 48.65625 15.574219 48.207031 15.574219 47.835938 " fill-opacity="1" fill-rule="nonzero"/><path fill="#660000" d="M 15.46875 47.800781 C 15.46875 47.582031 15.292969 47.40625 15.074219 47.40625 C 13.734375 47.40625 9.367188 47.40625 8.03125 47.40625 C 7.8125 47.40625 7.636719 47.582031 7.636719 47.800781 C 7.632812 48.097656 7.632812 48.460938 7.632812 48.464844 C 7.632812 48.878906 9.386719 49.214844 11.550781 49.214844 C 13.714844 49.214844 15.46875 48.878906 15.46875 48.464844 C 15.46875 48.460938 15.46875 48.101562 15.46875 47.800781 " fill-opacity="1" fill-rule="nonzero"/><path fill="#b2b2b2" d="M 15.257812 46.597656 L 7.851562 46.597656 L 7.84375 47.601562 C 7.84375 47.992188 9.503906 48.308594 11.550781 48.308594 C 13.597656 48.308594 15.257812 47.992188 15.257812 47.601562 L 15.257812 46.597656 " fill-opacity="1" fill-rule="nonzero"/><path fill="#d8d8d8" d="M 11.550781 45.925781 C 9.503906 45.925781 7.84375 46.242188 7.84375 46.636719 C 7.84375 47.027344 9.503906 47.34375 11.550781 47.34375 C 13.597656 47.34375 15.257812 47.027344 15.257812 46.636719 C 15.257812 46.242188 13.597656 45.925781 11.550781 45.925781 " fill-opacity="1" fill-rule="nonzero"/><path fill="#b2b2b2" d="M 11.550781 46.027344 C 9.796875 46.027344 8.378906 46.300781 8.378906 46.636719 C 8.378906 46.96875 9.796875 47.242188 11.550781 47.242188 C 13.304688 47.242188 14.726562 46.96875 14.726562 46.636719 C 14.726562 46.300781 13.304688 46.027344 11.550781 46.027344 " fill-opacity="1" fill-rule="nonzero"/><path fill="#d8d8d8" d="M 8.058594 46.957031 L 8.058594 47.734375 C 8.152344 47.796875 8.246094 47.847656 8.4375 47.875 L 8.4375 47.09375 C 8.292969 47.078125 8.058594 46.949219 8.058594 46.957031 " fill-opacity="1" fill-rule="nonzero"/><path fill="#5b0101" d="M 26.601562 47.835938 C 26.601562 47.566406 26.417969 47.34375 26.195312 47.34375 C 24.820312 47.34375 20.339844 47.34375 18.964844 47.34375 C 18.742188 47.34375 18.5625 47.5625 18.558594 47.832031 C 18.558594 48.207031 18.554688 48.65625 18.554688 48.660156 C 18.554688 49.171875 20.355469 49.589844 22.578125 49.589844 C 24.800781 49.589844 26.601562 49.171875 26.601562 48.660156 C 26.601562 48.65625 26.601562 48.207031 26.601562 47.835938 " fill-opacity="1" fill-rule="nonzero"/><path fill="#660000" d="M 26.496094 47.800781 C 26.496094 47.582031 26.320312 47.40625 26.101562 47.40625 C 24.761719 47.40625 20.394531 47.40625 19.058594 47.40625 C 18.839844 47.40625 18.664062 47.582031 18.664062 47.800781 C 18.664062 48.097656 18.660156 48.460938 18.660156 48.464844 C 18.660156 48.878906 20.414062 49.214844 22.578125 49.214844 C 24.746094 49.214844 26.5 48.878906 26.5 48.464844 C 26.5 48.460938 26.5 48.101562 26.496094 47.800781 " fill-opacity="1" fill-rule="nonzero"/><path fill="#b2b2b2" d="M 26.285156 46.597656 L 18.878906 46.597656 L 18.871094 47.601562 C 18.871094 47.992188 20.53125 48.308594 22.578125 48.308594 C 24.628906 48.308594 26.285156 47.992188 26.285156 47.601562 L 26.285156 46.597656 " fill-opacity="1" fill-rule="nonzero"/><path fill="#d8d8d8" d="M 22.578125 45.925781 C 20.53125 45.925781 18.871094 46.242188 18.871094 46.636719 C 18.871094 47.027344 20.53125 47.34375 22.578125 47.34375 C 24.628906 47.34375 26.289062 47.027344 26.289062 46.636719 C 26.289062 46.242188 24.628906 45.925781 22.578125 45.925781 " fill-opacity="1" fill-rule="nonzero"/><path fill="#b2b2b2" d="M 22.578125 46.027344 C 20.828125 46.027344 19.40625 46.300781 19.40625 46.636719 C 19.40625 46.96875 20.828125 47.242188 22.578125 47.242188 C 24.332031 47.242188 25.753906 46.96875 25.753906 46.636719 C 25.753906 46.300781 24.332031 46.027344 22.578125 46.027344 " fill-opacity="1" fill-rule="nonzero"/><path fill="#d8d8d8" d="M 19.085938 46.957031 L 19.085938 47.734375 C 19.179688 47.796875 19.277344 47.847656 19.464844 47.875 L 19.464844 47.09375 C 19.324219 47.078125 19.085938 46.949219 19.085938 46.957031 " fill-opacity="1" fill-rule="nonzero"/><path fill="#5b0101" d="M 37.628906 47.835938 C 37.628906 47.566406 37.449219 47.34375 37.222656 47.34375 C 35.847656 47.34375 31.367188 47.34375 29.996094 47.34375 C 29.769531 47.34375 29.589844 47.5625 29.589844 47.832031 C 29.585938 48.207031 29.585938 48.65625 29.585938 48.660156 C 29.585938 49.171875 31.386719 49.589844 33.609375 49.589844 C 35.828125 49.589844 37.632812 49.171875 37.632812 48.660156 C 37.632812 48.65625 37.628906 48.207031 37.628906 47.835938 " fill-opacity="1" fill-rule="nonzero"/><path fill="#660000" d="M 37.527344 47.800781 C 37.527344 47.582031 37.347656 47.40625 37.132812 47.40625 C 35.792969 47.40625 31.425781 47.40625 30.085938 47.40625 C 29.871094 47.40625 29.695312 47.582031 29.691406 47.800781 C 29.691406 48.097656 29.6875 48.460938 29.6875 48.464844 C 29.6875 48.878906 31.441406 49.214844 33.609375 49.214844 C 35.773438 49.214844 37.527344 48.878906 37.527344 48.464844 C 37.527344 48.460938 37.527344 48.101562 37.527344 47.800781 " fill-opacity="1" fill-rule="nonzero"/><path fill="#b2b2b2" d="M 37.3125 46.597656 L 29.90625 46.597656 L 29.902344 47.601562 C 29.902344 47.992188 31.558594 48.308594 33.609375 48.308594 C 35.65625 48.308594 37.316406 47.992188 37.316406 47.601562 L 37.3125 46.597656 " fill-opacity="1" fill-rule="nonzero"/><path fill="#d8d8d8" d="M 33.609375 45.925781 C 31.558594 45.925781 29.898438 46.242188 29.898438 46.636719 C 29.898438 47.027344 31.558594 47.34375 33.609375 47.34375 C 35.65625 47.34375 37.316406 47.027344 37.316406 46.636719 C 37.316406 46.242188 35.65625 45.925781 33.609375 45.925781 " fill-opacity="1" fill-rule="nonzero"/><path fill="#b2b2b2" d="M 33.609375 46.027344 C 31.855469 46.027344 30.433594 46.300781 30.433594 46.636719 C 30.433594 46.96875 31.855469 47.242188 33.609375 47.242188 C 35.359375 47.242188 36.78125 46.96875 36.78125 46.636719 C 36.78125 46.300781 35.359375 46.027344 33.609375 46.027344 " fill-opacity="1" fill-rule="nonzero"/><path fill="#d8d8d8" d="M 30.117188 46.957031 L 30.117188 47.734375 C 30.210938 47.796875 30.304688 47.847656 30.492188 47.875 L 30.492188 47.09375 C 30.351562 47.078125 30.117188 46.949219 30.117188 46.957031 " fill-opacity="1" fill-rule="nonzero"/><path fill="#5b0101" d="M 53.101562 47.863281 C 53.101562 47.496094 52.855469 47.195312 52.550781 47.195312 C 50.675781 47.195312 44.558594 47.195312 42.6875 47.195312 C 42.382812 47.195312 42.136719 47.492188 42.132812 47.863281 C 42.132812 48.371094 42.128906 48.984375 42.128906 48.988281 C 42.128906 49.6875 44.585938 50.257812 47.617188 50.257812 C 50.648438 50.257812 53.105469 49.6875 53.105469 48.988281 C 53.105469 48.984375 53.105469 48.371094 53.101562 47.863281 " fill-opacity="1" fill-rule="nonzero"/><path fill="#660000" d="M 52.960938 47.816406 C 52.960938 47.519531 52.722656 47.277344 52.421875 47.277344 C 50.597656 47.277344 44.640625 47.277344 42.8125 47.277344 C 42.515625 47.277344 42.277344 47.515625 42.273438 47.816406 C 42.273438 48.222656 42.269531 48.71875 42.269531 48.722656 C 42.269531 49.285156 44.664062 49.746094 47.617188 49.746094 C 50.570312 49.746094 52.964844 49.285156 52.964844 48.722656 C 52.964844 48.71875 52.964844 48.226562 52.960938 47.816406 " fill-opacity="1" fill-rule="nonzero"/><path fill="#ce9515" d="M 52.671875 46.175781 L 42.566406 46.175781 L 42.558594 47.542969 C 42.558594 48.078125 44.824219 48.511719 47.617188 48.511719 C 50.410156 48.511719 52.675781 48.078125 52.675781 47.542969 L 52.671875 46.175781 " fill-opacity="1" fill-rule="nonzero"/><path fill="#efb21b" d="M 47.617188 45.257812 C 44.824219 45.257812 42.558594 45.691406 42.558594 46.226562 C 42.558594 46.761719 44.824219 47.195312 47.617188 47.195312 C 50.410156 47.195312 52.675781 46.761719 52.675781 46.226562 C 52.675781 45.691406 50.410156 45.257812 47.617188 45.257812 " fill-opacity="1" fill-rule="nonzero"/><path fill="#e2a61e" d="M 47.617188 45.398438 C 45.226562 45.398438 43.289062 45.769531 43.289062 46.226562 C 43.289062 46.683594 45.226562 47.054688 47.617188 47.054688 C 50.007812 47.054688 51.945312 46.683594 51.945312 46.226562 C 51.945312 45.769531 50.007812 45.398438 47.617188 45.398438 " fill-opacity="1" fill-rule="nonzero"/><path fill="#efb21b" d="M 42.851562 46.667969 L 42.851562 47.722656 C 42.980469 47.8125 43.109375 47.878906 43.367188 47.917969 L 43.367188 46.851562 C 43.175781 46.828125 42.851562 46.652344 42.851562 46.667969 " fill-opacity="1" fill-rule="nonzero"/></svg>