<svg width="80" height="80" fill="none" xmlns="http://www.w3.org/2000/svg"><path d="m38.79 4.934 20.342 52.44-9.27 9.29H27.755l-9.424-9.29L38.79 4.934Zm0-4.934L16.232 57.837l10.783 10.628h23.599l10.61-10.648L38.788 0Z" fill="#BE0000"/><path d="M37.306 44.366c-3.054-1.986-12.739 2.524-12.739 2.524l-3.797 9.636 4.549 4.558c1.128-1.032 16.796-13.567 11.988-16.72v.002Z" fill="#BE0000"/><path d="M39.705 11.824s-2.419 7.334-4.615 13.886c-3.074 9.087-2.15 11.66 2.004 10.378 5.955-1.821 10.233-4.828 11.63 1.86 1.485 7.728-5.636 15.12-11.755 20.611-2.67 2.38-5.743 4.656-7.622 6.033h19.802l7.911-8.085-17.355-44.683Z" fill="#BE0000"/><path d="M9.775 80c-.55 0-1.06-.106-1.531-.308A3.26 3.26 0 0 1 7 78.719l.636-.54c.25.317.569.588.935.78.376.193.79.29 1.233.29.27 0 .511-.049.743-.135a1.73 1.73 0 0 0 .568-.357c.156-.152.277-.336.356-.54.086-.207.13-.43.126-.655 0-.212-.039-.395-.115-.568a1.322 1.322 0 0 0-.31-.415 1.993 1.993 0 0 0-.452-.318 6.049 6.049 0 0 0-.56-.25l-.991-.386a4.752 4.752 0 0 1-.675-.318 2.746 2.746 0 0 1-.569-.434 1.865 1.865 0 0 1-.385-.606 2.027 2.027 0 0 1-.144-.81c0-.299.067-.597.193-.858.124-.26.297-.482.52-.684a2.5 2.5 0 0 1 .78-.453c.311-.114.641-.17.973-.164.492 0 .916.068 1.253.213.328.144.655.337.944.606l-.54.617a2.37 2.37 0 0 0-.741-.491 2.29 2.29 0 0 0-.925-.174 2.183 2.183 0 0 0-.627.097 1.52 1.52 0 0 0-.49.29 1.38 1.38 0 0 0-.339.442 1.284 1.284 0 0 0-.124.559c0 .183.038.347.105.491.068.145.164.26.27.376.115.106.25.203.405.29.154.086.327.154.501.23l.964.386c.25.096.482.212.722.337.231.125.434.28.627.463s.318.395.423.645c.107.242.155.54.155.877 0 .338-.067.665-.203.954-.135.29-.327.56-.578.781-.24.221-.52.386-.857.51-.309.145-.666.203-1.032.203Zm3.807-8.587h2.679c.279 0 .55.02.809.068.26.048.482.116.684.212.376.202.694.492.954.877.26.386.386.858.386 1.407a2.939 2.939 0 0 1-.463 1.628c-.134.205-.297.39-.482.55-.183.145-.376.26-.588.337a3.134 3.134 0 0 1-.587.125c-.203.02-.453.03-.762.03h-1.744v3.199h-.876l-.01-8.433Zm2.63 4.492c.222 0 .405 0 .55-.01.148-.011.294-.044.433-.097a1.15 1.15 0 0 0 .386-.231c.116-.106.221-.24.318-.386a2.145 2.145 0 0 0 .299-1.156c0-.414-.077-.761-.242-1.021a1.632 1.632 0 0 0-.607-.598c-.27-.154-.646-.23-1.108-.23H14.45v3.737l1.763-.008Zm3.98 3.198h5.203v.752h-5.193l-.01-.752Zm.01-7.69h5.193v.753h-5.193v-.753Zm0 3.73h4.991v.762h-4.992v-.762Zm9.606-4.124 3.77 8.827h-.965l-2.804-6.707-2.833 6.707h-.964l3.797-8.827Zm5.522 8.827h-.876v-8.442h3.006c.27 0 .54.02.79.058a2.423 2.423 0 0 1 1.686 1.119c.251.395.376.867.376 1.397 0 .385-.057.732-.183 1.04-.125.309-.27.588-.462.81a1.964 1.964 0 0 1-.646.52 1.845 1.845 0 0 1-.723.222c.357.55.713 1.088 1.06 1.638.347.55.694 1.08 1.04 1.629H39.35c-.338-.54-.685-1.06-1.012-1.6-.337-.54-.675-1.07-1.012-1.61v-.751c.251 0 .453 0 .616-.01.145-.01.31-.039.483-.096.144-.048.279-.125.404-.231.126-.116.222-.241.318-.395.087-.155.155-.328.203-.54a2.49 2.49 0 0 0 .077-.608c0-.394-.077-.732-.222-1.001a1.605 1.605 0 0 0-.616-.627 1.524 1.524 0 0 0-.51-.173 3.09 3.09 0 0 0-.608-.048h-2.13l-.01 7.7Z" fill="#fff"/><path d="M49.034 79.104h5.203v.742h-5.194l-.01-.742Zm5.203-7.69h-5.195v.752h5.195v-.753Zm-.202 3.73h-4.992v.76h4.991v-.76Zm-7.247-3.73v3.729H42.25v-3.73h-.867v8.433h.867v-3.941h4.54v3.94h.876v-8.432h-.878Zm11.901-.395 3.767 8.827h-.963l-2.804-6.707-2.823 6.707h-.964l3.786-8.827h.001Zm4.644.394h2.38c.154 0 .338.01.569.02.222.01.424.038.636.077.455.084.894.24 1.3.462.405.22.765.515 1.061.868.299.347.54.771.713 1.224.173.453.26.982.26 1.532 0 .52-.077 1.012-.231 1.455-.15.435-.372.842-.655 1.204-.273.36-.61.667-.993.906a4.399 4.399 0 0 1-1.234.54 2.654 2.654 0 0 1-.646.106c-.221.02-.471.02-.75.02h-2.4l-.01-8.414Zm2.361 7.69c.241 0 .463-.01.675-.018.202-.02.394-.049.578-.097a3.045 3.045 0 0 0 1.744-1.195c.212-.29.376-.617.492-.973.118-.377.176-.77.173-1.166 0-.453-.058-.877-.183-1.253a3.401 3.401 0 0 0-.511-1.002 2.762 2.762 0 0 0-.81-.723 3.428 3.428 0 0 0-1.589-.491c-.203-.01-.396-.02-.569-.02H64.22v6.938h1.474Zm5.656-1.348c-.588 0-1.059.472-1.059 1.06 0 .587.471 1.06 1.06 1.06.588 0 1.06-.473 1.06-1.06 0-.588-.472-1.06-1.06-1.06Zm0 1.918a.86.86 0 0 1-.857-.858.86.86 0 0 1 .858-.858.86.86 0 0 1 .857.858.86.86 0 0 1-.858.858Z" fill="#BE0000"/><path d="m71.785 79.383-.328-.366c.173-.039.29-.212.29-.385 0-.242-.203-.396-.434-.396h-.395v1.157h.163v-.357h.212l.308.347h.184Zm-.704-1.012h.203c.202 0 .308.116.308.26 0 .145-.115.26-.308.26h-.203v-.52Z" fill="#BE0000"/></svg>