<svg width="80" height="61" fill="none" xmlns="http://www.w3.org/2000/svg"><path fill-rule="evenodd" clip-rule="evenodd" d="M.214 38.652v-3.074h8.114v3.578c0 3.275 1.265 4.913 3.794 4.913h.033c2.505 0 3.76-1.633 3.76-4.897 0-1.865-.54-3.614-1.624-5.247a23.319 23.319 0 0 0-3.881-4.479L6.343 25.25c-1.681-1.468-3.087-3.287-4.219-5.456-1.133-2.17-1.7-4.572-1.7-7.207 0-4.056 1.07-7.166 3.208-9.334C5.769 1.083 8.674 0 12.343 0c3.67 0 6.488 1.083 8.455 3.25 1.968 2.167 2.952 5.277 2.952 9.33v1.608h-7.484v-2.095c0-3.286-1.322-4.93-3.969-4.93S8.328 8.81 8.328 12.096c0 1.376.289 2.688.864 3.937a13.093 13.093 0 0 0 2.24 3.376 40.813 40.813 0 0 0 3.036 2.971 77.58 77.58 0 0 1 3.274 3.08 31.188 31.188 0 0 1 2.987 3.445c.912 1.224 1.655 2.67 2.23 4.337.573 1.669.86 3.481.86 5.44 0 4.045-1.007 7.148-3.02 9.31-2.015 2.16-4.857 3.242-8.529 3.242-3.671 0-6.6-1.083-8.782-3.25C1.304 45.818.214 42.706.214 38.652ZM36.219 24.709h3.758c1.287 0 2.253-.362 2.898-1.084.644-.721.966-1.945.966-3.67v-7.513c0-1.725-.322-2.941-.966-3.652-.645-.711-1.61-1.066-2.898-1.066H36.22v16.985Zm-7.904 25.965V.561H39.96c7.856 0 11.785 4.14 11.785 12.418v6.51c0 8.255-3.926 12.385-11.776 12.385h-3.75v18.8h-7.904ZM63.337 23.136h3.09c1.594 0 2.783-.408 3.567-1.223.784-.816 1.176-2.178 1.176-4.09v-4.927c.023-3.447-1.312-5.172-4.005-5.172h-3.828v15.412Zm-7.904 27.539V.559H67.36c4.067 0 7.038.945 8.907 2.833 1.871 1.889 2.807 4.791 2.807 8.708v3.95c0 5.153-1.725 8.545-5.175 10.177 3.496 1.47 5.245 5.025 5.245 10.667v8.025c0 2.559.281 4.477.843 5.756h-8.013c-.465-1.419-.71-3.465-.733-6.14v-7.85c0-2.279-.404-3.914-1.212-4.901-.809-.99-2.126-1.483-3.953-1.483h-2.739v20.374h-7.904ZM0 60.852h80v-6.897H0v6.897Z" fill="#fff"/></svg>