<svg width="80" height="77" fill="none" xmlns="http://www.w3.org/2000/svg"><path d="M71.633 34.666h-61.48v2.379h2.1V65.21h13.939v-5.709h-7.829V37.045h53.27v-2.38ZM0 0v5.804h4.487v23.599h6.11V5.804h4.487V0H0Zm66.062 0v29.403H80v-5.71h-7.828v-6.09h6.205v-5.709h-6.205v-6.09H80V0H66.062Zm1.276 54.267c1.24-1.427 1.91-3.33 1.91-5.328 0-4.663-3.82-8.469-8.498-8.469h-6.587v29.403h6.682c5.06 0 9.165-4.092 9.165-9.135 0-2.57-.954-4.853-2.672-6.47Zm-6.874-8.088a2.766 2.766 0 0 1 2.769 2.76 2.766 2.766 0 0 1-2.77 2.76h-.095v-5.424h.096v-.096Zm3.532 14.559c0 1.903-1.528 3.33-3.341 3.33h-.287v-6.756h.287c1.813 0 3.34 1.523 3.34 3.426ZM27.112 0C33.126 0 37.9 4.853 37.9 10.752c0 3.426-1.528 6.376-4.01 8.374l5.155 10.277h-6.778l-3.914-7.993c-.477.095-.859.095-1.24.095h-.478v7.898h-6.11V0h6.587Zm-.477 5.804v10.087h.095c2.769 0 5.06-2.284 5.06-5.043 0-2.76-2.291-5.044-5.06-5.044h-.095ZM54.32 21.79a2.766 2.766 0 0 1-2.769 2.76c-1.527 0-2.864-1.237-2.864-2.76V0h-6.11v21.315c0 4.852 4.01 8.849 8.879 8.849s8.878-3.997 8.878-8.85V0h-6.11v21.79h.096Zm-5.3 52.174h22.613v2.38h-61.48v-2.38h18.794l6.314-29.022h7.446l6.313 29.022Zm-6.21 0-.676-2.95h-6.3l-.677 2.95h7.654Zm-3.73-17.793-1.91 9.04h3.819l-1.91-9.04Z" fill="#fff"/></svg>