<svg width="80" height="80" fill="none" xmlns="http://www.w3.org/2000/svg"><path fill-rule="evenodd" clip-rule="evenodd" d="M22.692 52.535.407 30.293A1.335 1.335 0 0 1 1.36 28h22.285c.735 0 1.341.606 1.341 1.341v22.242c0 1.168-1.428 1.774-2.293.952m5.018-.952V29.34c0-.735.606-1.341 1.341-1.341h22.285a1.335 1.335 0 0 1 .952 2.293L30.004 52.535c-.865.822-2.293.216-2.293-.952Zm27.304 0V29.34c0-.735.606-1.341 1.341-1.341h22.285a1.335 1.335 0 0 1 .952 2.293L57.308 52.535c-.865.822-2.293.216-2.293-.952" fill="#E23535"/></svg>