<svg width="80" height="64" viewBox="0 0 80 64" fill="none" xmlns="http://www.w3.org/2000/svg">
<path d="M12.3902 56.2286L13.8245 56.4782C31.4723 59.9931 49.8984 59.8364 67.5168 56.2481C65.2845 58.172 62.6998 59.5231 59.9682 60.5903C51.5286 63.8262 41.963 64.5017 33.0339 63.6157C25.9748 62.8373 17.966 60.8547 12.3902 56.2286ZM0 0L14.1182 0.0640746L24.8489 32.7945L36.539 0.015121L43.4904 0.0493885L55.3763 32.2804L65.9258 0.0200164L80 0.0249117L61.2899 52.1801C58.9891 52.2356 57.2708 52.2127 56.1351 52.1116C52.4587 51.7248 49.2033 49.1401 47.9599 45.6644C46.9579 42.9066 45.4632 38.7635 43.4757 33.235L55.0777 32.9119L39.9755 23.6891C36.477 33.3786 33.8547 40.6466 32.1087 45.493C31.1932 48.0974 29.2547 50.2268 26.7238 51.343C25.1148 52.0903 22.4061 52.3416 18.5975 52.0969L0 0Z" fill="#824CE2"/>
</svg>
