<svg width="586" height="384" xmlns="http://www.w3.org/2000/svg"><g fill="none" fill-rule="evenodd"><path d="M252.808 56.62c-2.525-7.175-4.986-14.229-6.962-21.437-2.029-7.403-3.547-14.91-4.69-22.49-.636-4.222-.54-4.346 3.513-5.757 8.197-2.85 16.558-5.093 25.147-6.404 3.976-.607 4.173-.478 4.712 3.596 2.27 17.15 7.076 33.552 14.388 49.217.828 1.772 1.275 4.664 3.178 4.756 2.42.117 2.734-2.949 3.604-4.8 7.28-15.495 12.06-31.734 14.258-48.723.594-4.588.724-4.697 5.344-4.012 8.602 1.277 16.918 3.707 25.122 6.507 3.736 1.274 3.665 1.43 3.078 5.488-1.964 13.575-5.489 26.745-10.142 39.634-.523 1.45-2.119 3.178-.556 4.547 1.232 1.077 2.808-.32 4.134-.872 13.403-5.568 25.128-13.649 35.454-23.807.476-.467.944-.94 1.418-1.41 3.78-3.746 3.77-3.732 7.99-.212 6.28 5.234 12.307 10.73 17.572 17.004 2.66 3.17 2.631 3.222-.118 6.101-20.103 21.05-44.372 34.87-72.604 41.803-1.295.317-2.612.557-3.886.941-3.052.923-3.266 1.58-.93 3.965 7.724 7.88 16.255 14.801 25.436 20.907 2.863 1.904 2.97 1.83 6.311-1.294 14.125-13.205 30.062-23.698 47.641-31.679 5.151-2.339 10.461-4.345 15.77-6.31 3.598-1.334 4.197-1.024 5.68 2.554 3.321 8.014 6.163 16.193 7.982 24.696.817 3.822.767 4.006-3.124 5.381-8.508 3.008-16.685 6.707-24.488 11.246a156.992 156.992 0 0 0-14.592 9.624c-1.297.962-3.37 1.75-3.158 3.537.267 2.227 2.775 2.066 4.4 2.581a162.443 162.443 0 0 0 36.703 7.12c9.415.725 7.586.426 6.841 8.414-.697 7.47-2.149 14.836-4.267 22.046-1.129 3.841-1.236 3.988-5.22 3.698a192.175 192.175 0 0 1-40.238-7.3c-33.306-9.772-62.113-27.1-86.662-51.59-4.8-4.789-3.918-5.319-9.074-.123-26.067 26.264-57.026 44.09-92.827 53.434a187.037 187.037 0 0 1-32.966 5.54c-5.14.394-5.068.251-6.512-4.552-2.315-7.697-3.469-15.6-4.37-23.55-.6-5.297-.498-5.473 5.108-5.866 12.181-.852 24.142-2.878 35.845-6.376 2.074-.62 4.132-1.297 6.173-2.018 1.763-.624 1.964-1.788.596-2.95a73.633 73.633 0 0 0-5.955-4.54c-11.042-7.576-22.765-13.838-35.442-18.253-4.407-1.535-4.446-1.602-3.403-6.025 1.915-8.122 4.362-16.073 7.765-23.714 1.894-4.25 1.961-4.359 6.29-2.863 14.405 4.98 27.917 11.748 40.614 20.183 8.071 5.362 15.575 11.422 22.751 17.91 3.185 2.881 3.182 2.834 6.72.473a150.917 150.917 0 0 0 22.786-18.63c.825-.823 1.677-1.628 2.418-2.523 1.177-1.424.644-2.452-.936-3.024-.935-.339-1.924-.532-2.897-.757-28.698-6.609-53.279-20.518-73.809-41.613-.465-.478-.92-.964-1.39-1.436-1.24-1.25-1.477-2.522-.22-3.937 6.542-7.366 13.546-14.242 21.306-20.333 1.6-1.256 2.691-.526 3.85.667 3.947 4.066 8.038 7.972 12.492 11.498 8.42 6.666 17.57 12.052 27.547 16.024.887.354 1.801.921 3.501.088" fill="#E6642B"/><path d="M291.84 282.233c-4.16 0-8.33.172-12.48-.052-3.674-.197-4.196-.886-4.208-4.645-.044-12.657-.154-25.317.055-37.97.067-4.087-1.106-7.27-3.602-10.478-13.797-17.732-27.424-35.598-41.076-53.443-3.49-4.563-3.43-4.596 1.893-7.156 6.907-3.321 13.674-6.892 20.174-10.971 4.919-3.086 4.95-3.025 8.35 1.412a64884.762 64884.762 0 0 0 27.645 36.064c3.688 4.808 3.786 4.797 7.366.12 9.41-12.294 18.822-24.588 28.246-36.872 2.88-3.754 2.94-3.803 6.775-1.39 7.339 4.619 14.99 8.642 22.82 12.352 3.406 1.613 3.509 2.13 1.227 5.12-14.143 18.525-28.26 37.069-42.545 55.482-2.188 2.82-3.154 5.6-3.118 9.118.133 12.656.06 25.314.043 37.97-.006 4.564-.16 4.945-4.59 5.244-4.306.29-8.648.064-12.973.064l-.001.03" fill="#E6642B"/><path d="M119.134 363.62c0 2.996-.086 5.996.034 8.988.068 1.697-.585 2.862-1.862 3.83-11.386 8.632-27.108 8.757-36.685 2.784-9.08-5.664-12.682-14.076-12.488-24.513.334-18.069 16.363-28.863 32.15-26.804 5.592.73 10.676 2.356 15.233 5.671 1.523 1.108 1.866 2.231.45 3.66-.467.471-.831 1.042-1.285 1.528-1.579 1.686-2.487 4.346-4.725 4.967-2.179.605-3.697-1.828-5.599-2.754-6.266-3.052-13.686-2.277-18.16 2.037-5.491 5.294-6.948 13.293-3.683 20.212 2.898 6.141 8.815 9.396 15.946 8.79 2.343-.2 4.606-.688 6.736-1.713 1.259-.606 2.084-1.394 2.282-2.958.556-4.415-.066-5.206-4.519-5.308-8.689-.199-7.22 1.561-7.373-7.848-.032-1.946.226-3.116 2.641-3.06 5.991.14 11.988.103 17.981.03 2.163-.027 2.97.858 2.907 2.971-.092 3.16-.023 6.326-.023 9.49h.042ZM194.371 363.372c0 3-.082 6.001.03 8.995.07 1.867-.686 3.065-2.114 4.203-9.56 7.624-25.186 9.008-35.895 3.092-10.536-5.822-15.833-19.376-12.319-31.526 3.986-13.786 16.634-21.998 30.995-20.317 5.59.655 10.687 2.331 15.267 5.635 1.767 1.274 1.998 2.495.446 4.047-.47.47-.845 1.03-1.285 1.53-1.428 1.616-2.58 3.85-4.375 4.673-2.134.98-3.613-1.733-5.495-2.62-6.58-3.103-14.937-2.667-19.937 3.656-5.143 6.504-5.167 15.632.18 22.145 4.252 5.178 13.83 6.83 20.241 3.488 2.104-1.097 3.268-5.158 2.12-7.367-.337-.649-.896-.939-1.58-.975-.998-.053-2.008.031-2.993-.093-2.237-.282-5.322 1.217-6.535-.896-1.348-2.352-.44-5.533-.399-8.355.015-1.012.753-1.446 1.67-1.452 6.661-.039 13.323-.054 19.986-.068 1.463-.003 2.031.801 2.018 2.211-.03 3.331-.01 6.663-.01 9.994h-.016ZM458.33 328.096c6.609-.32 12.208 1.604 17.396 4.823 2.67 1.656 2.707 1.958.796 4.652-1.428 2.014-2.314 4.952-4.556 5.715-2.117.722-3.973-1.955-6.182-2.62-1.906-.574-3.766-1.322-5.692-1.806-2.183-.55-4.344-.16-6.268.964-3.044 1.777-3.091 5.5.035 7.167 2.026 1.079 4.334 1.656 6.554 2.332 4.132 1.256 8.336 2.252 12.167 4.39 5.222 2.915 7.317 7.286 7.117 13.202-.203 5.99-2.378 10.746-7.752 13.517-8.088 4.17-16.413 3.43-24.658.389-3.122-1.152-6.005-2.835-8.646-4.903-1.316-1.03-1.578-2.021-.276-3.265.718-.687 1.304-1.51 1.974-2.247 1.223-1.347 2.233-3.17 3.759-3.89 1.97-.93 2.983 1.593 4.52 2.418 3.745 2.01 7.602 3.32 11.883 3.275 1.52-.015 2.994-.21 4.353-.91 3.444-1.77 3.665-5.431.344-7.43-2.871-1.727-6.201-2.333-9.36-3.34-2.53-.806-5.142-1.403-7.592-2.4-5.38-2.188-8.568-6.06-8.885-12.093-.34-6.482 1.563-11.802 7.378-15.26 3.698-2.198 7.73-2.965 11.59-2.68M0 331.747c3.908-.825 7.896-.199 11.836-.42 1.891-.106 2.512 1.413 3.267 2.661 2.668 4.416 5.275 6.035 7.921 10.466.847 1.417 1.744 2.804 2.59 4.158 1.673-.014 1.921-1.334 2.476-2.234 3.06-4.958 6.161-9.895 9.046-14.954 1.11-1.946 2.336-3.034 4.667-2.946 3.297.126 6.602.033 9.713.033.963 1.75-.15 2.564-.719 3.461-5.263 8.292-10.5 16.601-15.887 24.812-1.802 2.745-2.813 5.502-2.64 8.847.222 4.318.1 8.657.052 12.986-.04 3.644-.087 3.644-3.518 3.782-8.607.347-9.124.307-8.472-8.043.702-8.982-1.71-13.666-7.042-20.79-4.276-5.714-7.786-12.004-11.586-18.068-.687-1.098-1.72-2.068-1.704-3.75M546.23 355.038c0-7.49-.027-14.98.011-22.472.02-3.947.072-3.947 3.734-4.037 8.423-.209 8.42-.209 8.424 8.32.005 10.153-.003 20.306.036 30.46.014 3.836.066 3.886 3.754 3.907 6.492.037 12.983-.03 19.475.017 3.47.026 3.561.094 3.537 3.662-.065 9.034.958 7.446-7.23 7.514-9.32.077-18.64.038-27.963 0-3.732-.016-3.802-.075-3.827-3.903-.05-7.822-.014-15.646-.014-23.468h.063ZM517.88 355.39c.004 7.667.029 15.332-.007 22.997-.02 3.954-.07 3.954-3.72 4.04-8.636.206-8.66.206-8.674-8.597-.025-13.497-.027-26.995-.013-40.492.005-4.76.037-4.76 4.504-4.81 7.906-.091 7.906-.091 7.906 7.867 0 6.332 0 12.664.004 18.996M323.584 353.583c-4.646 1.76-9.505.734-14.273.822-1.272.024-1.47-1.113-1.48-2.15-.018-1.822-.005-3.645-.005-5.959.137-7.999-1.248-6.602 7.408-6.754 2.659-.047 5.303.047 7.86.89 2.999.985 4.746 3.135 4.993 6.131.244 2.958-1.523 5.891-4.503 7.02m5.988 10.12c.999-.739 1.363-1.092 1.793-1.313 7.525-3.87 10.307-11.82 8.717-20.01-1.535-7.904-6.703-12.246-15.901-13.4-8.788-1.105-17.642-.24-26.461-.482-2.217-.06-2.271 1.382-2.27 2.997.017 15.997.032 31.994-.012 47.99-.005 2.036.53 3.12 2.805 2.97a47.546 47.546 0 0 1 6.494.002c2.433.175 3.23-.826 3.136-3.187-.144-3.662-.054-7.332-.033-10.998.005-.98.01-1.979 1.155-2.496 2.88-1.299 7.678.098 9.59 2.883 2.643 3.846 5.247 7.715 7.86 11.58.746 1.101 1.375 2.231 3.03 2.2 3.909-.07 7.818-.023 12.873-.023l-12.776-18.713M257.397 357.168c-.67 8.202-6.635 13.671-15.348 14.053-.997.044-1.998.006-2.997.006-7.228-.045-6.237.75-6.29-6.459-.05-6.66-.012-13.32-.019-19.98-.007-6.02-.162-5.235 5.502-5.218 1.99.007 4.014.054 5.964.408 8.631 1.563 13.898 8.498 13.188 17.19m-10.106-27.999c-8.113-1.343-16.299-.369-24.446-.66-2.187-.078-2.3 1.326-2.299 2.953.025 15.994.073 31.988-.004 47.982-.01 2.555 1.101 3.092 3.328 3.003 3.16-.126 6.33-.032 9.495-.032v-.018c3.332 0 6.676.18 9.993-.037 8.484-.554 16.05-3.41 21.287-10.398 12.563-16.764 3.333-39.37-17.354-42.793M383.227 359.442c2.234-5.384 4.178-10.066 6.481-15.619 2.684 5.58 4.605 10.35 6.332 15.62h-12.813Zm33.54 18.717c-6.174-14.557-12.34-29.116-18.54-43.66-3.336-7.826-1.924-5.885-9.762-6.332-3.199-.183-4.696 1.064-5.885 3.916-6.342 15.21-12.87 30.34-19.324 45.503-.616 1.45-1.48 2.865-1.157 4.847 3.211 0 6.201-.1 9.18.035 2.02.092 3.022-.772 3.65-2.596.755-2.2 1.776-4.308 2.595-6.489.722-1.92 1.85-2.92 4.075-2.869 5.493.127 10.992.097 16.488.023 1.948-.027 3.106.731 3.773 2.538.865 2.34 1.841 4.638 2.792 6.946.515 1.252 1.062 2.42 2.773 2.392 3.45-.058 6.901-.018 10.223-.018.507-1.927-.373-3.037-.882-4.236Z" fill="#F4F4F4"/></g></svg>