<svg width="440" height="57" xmlns="http://www.w3.org/2000/svg"><g fill="#FFF" fill-rule="nonzero"><path d="M358.86 3.86c4.45-3.62 10.65-3.12 15.97-2.34-.21 2.99-.38 5.99-.49 8.99-2.63-.6-6.67-1.3-8.01 1.8-.83 2.81-.38 5.8-.46 8.68 2.57.01 5.15.01 7.74.02-.01 2.66-.01 5.32-.01 7.98-2.58.01-5.16.01-7.73.02-.01 8.66-.01 17.32 0 25.98-3.5.02-6.99.01-10.48-.01.02-8.66.01-17.31.01-25.97-2.34-.01-4.67-.01-7.01-.02.01-2.66.01-5.32.01-7.98 2.33-.01 4.66-.01 7-.02.21-5.73-1.15-12.7 3.46-17.13ZM121.74 2h10.52c.03 10.78-.03 21.55.03 32.32 3.87-4.42 7.69-8.89 11.55-13.32 4.33 0 8.66.01 13-.01-4.66 5.02-9.12 10.22-13.64 15.37 4.74 6.14 9.16 12.53 13.94 18.65-4.42-.01-8.84-.02-13.25 0-3.92-5.72-7.66-11.56-11.6-17.26-.05 5.75-.01 11.5-.03 17.25h-10.52c-.01-17.67-.01-35.33 0-53ZM1 5c9.83.54 20.02-1.38 29.56 1.66 7.06 2.42 9.25 12.09 4.9 17.81-1.6 2.12-4.06 3.3-6.55 4.05 2.53.76 5.24 1.45 7.2 3.34 5.11 4.64 5.25 13.72.07 18.36-3.76 3.54-9.15 4.6-14.15 4.78-7.01.03-14.02-.02-21.03 0V5Zm11 9.01v10.98c3.74-.15 7.61.51 11.25-.54 4.22-1.13 4.86-8.02.64-9.59-3.76-1.52-7.94-.66-11.89-.85Zm0 20v11.98c4.39-.24 8.95.64 13.23-.57 4.21-1.26 5.33-7.8 1.37-10.02-4.48-2.35-9.76-1.11-14.6-1.39ZM177.54 5c13.02 0 26.04-.01 39.07.01-.01 3.33-.01 6.65 0 9.98-4.73.02-9.45-.03-14.18.07.08 13.31.02 26.62.03 39.94H191.6c0-13.33-.01-26.66.01-39.99-4.7-.02-9.39-.01-14.07-.01-.01-3.33-.01-6.67 0-10Z"/><path d="M44.01 25.27c6.46-5.13 15.65-6.89 23.39-3.84 4.81 1.94 6.93 7.3 7.16 12.15.38 7.13.08 14.27.18 21.41-3.25.01-6.51.01-9.76.01.02-.98.07-2.95.09-3.94-4.47 5.75-13.67 6.57-19.37 2.25-5.45-4.22-4.79-13.94 1.32-17.23 5.54-3.02 12.1-3.09 18.25-3.13-.45-2.43-1.8-4.83-4.33-5.54-4.15-1.55-8.29.81-11.27 3.56-1.87-1.92-3.76-3.81-5.66-5.7Zm9.8 16.55c-2.28 1.31-2.37 5.27.13 6.37 3.1 1.7 7.21.7 9.64-1.71 1.66-1.74 1.31-4.31 1.53-6.49-3.8.04-7.99-.42-11.3 1.83ZM91.63 25.36c4.9-7.71 19.07-7.34 21.77 2.03 2.04 9.04.67 18.42 1.06 27.61H104c-.03-6.02.06-12.03-.02-18.05-.08-2.57-.19-5.75-2.61-7.31-2.57-1.37-6.29-.78-7.92 1.77-1.22 1.94-1.2 4.32-1.3 6.54-.07 5.68.01 11.36-.02 17.05H81.74c-.01-11.34-.01-22.67 0-34 3.34 0 6.68 0 10.03.01-.04 1.09-.11 3.26-.14 4.35ZM231.06 21.11c2.62-1.41 5.68-1.09 8.54-1.13-.02 3.25-.02 6.5.08 9.75-3.35-.82-7.24-1.43-10.24.7-2.53 1.62-3 4.83-3.13 7.6-.14 5.65.01 11.31-.05 16.97h-10.52c-.01-11.34-.01-22.67 0-34 3.51 0 7.03 0 10.55.01-.03 1.73-.07 3.46-.12 5.2 1.41-1.88 2.71-4.03 4.89-5.1ZM243.02 25.3c6.41-5.18 15.63-6.9 23.35-3.88 4.82 1.92 6.96 7.29 7.19 12.14.38 7.14.07 14.29.18 21.43-3.26.01-6.51.01-9.76.01.02-.98.07-2.95.09-3.94-4.45 5.74-13.62 6.57-19.33 2.29-5.49-4.2-4.85-13.96 1.28-17.27 5.54-3.02 12.1-3.1 18.25-3.13-.45-2.46-1.84-4.88-4.41-5.57-4.12-1.47-8.23.82-11.15 3.6-1.89-1.9-3.78-3.8-5.69-5.68Zm9.79 16.52c-1.86 1.12-2.2 3.73-1.07 5.49 3 2.81 8.05 1.93 10.81-.79 1.69-1.73 1.34-4.33 1.56-6.53-3.8.03-7.99-.42-11.3 1.83ZM289.63 25.35c4.92-7.71 19.1-7.32 21.78 2.07 2.02 9.03.66 18.4 1.05 27.58H302c-.04-6.03.06-12.06-.02-18.08-.1-2.4-.16-5.17-2.08-6.91-2.54-1.89-6.76-1.3-8.48 1.44-1.19 1.93-1.18 4.28-1.27 6.47-.07 5.69.01 11.38-.02 17.08h-10.4c0-11.34 0-22.67.01-34 3.34 0 6.68 0 10.03.01-.04 1.08-.1 3.25-.14 4.34ZM324.05 22.07c6.76-3.5 15.65-2.62 21.53 2.25-2.15 2.15-4.3 4.29-6.45 6.43-2.31-2.05-5.66-3.83-8.69-2.2-1.66.62-2.1 3.51-.19 4.11 4.31 1.92 9.59 1.57 13.35 4.75 5.1 4.15 3.82 13.3-2 16.22-7.52 3.8-17.38 3.22-24.09-2.04 2.11-2.38 4.22-4.76 6.36-7.13 2.25 2.02 4.96 4.03 8.19 3.57 2.03.13 5.47-1.26 3.84-3.81-4.53-3.1-11-1.98-15.03-6.08-4.44-4.67-2.44-13.21 3.18-16.07ZM382.1 24.07c6.64-5.12 17.3-5.93 23.59.22 4.4 4.31 5.08 10.86 4.79 16.71-8.17.06-16.34-.13-24.51.11 1.08 3.57 3.9 7.1 7.98 6.94 3.19.26 5.67-1.91 7.71-4.06 2.46 1.78 4.92 3.57 7.37 5.39-6.71 7.96-19.69 8.86-27.51 2.06-8.06-6.8-7.8-20.92.58-27.37Zm3.75 9.84c4.8.14 9.6.1 14.41.07-.54-1.97-1.18-4.14-3.16-5.11-4.29-2.51-10.24.19-11.25 5.04ZM431.72 20.81c2.48-1.09 5.25-.77 7.88-.83-.02 3.25-.02 6.5.08 9.75-4.52-1.48-11.31-1.16-12.79 4.33-1.31 6.88-.32 13.97-.63 20.94h-10.52c-.01-11.34-.01-22.67 0-34 3.51 0 7.03 0 10.55.01-.03 1.73-.07 3.46-.12 5.2 1.54-2.07 3.02-4.46 5.55-5.4Z"/></g></svg>