<svg width="80" height="80" xmlns="http://www.w3.org/2000/svg"><defs><linearGradient x1="76.333%" y1="54.334%" x2="11.411%" y2="23.012%" id="a"><stop stop-color="#DA001F" offset="0%"/><stop stop-color="#DA001F" stop-opacity="0" offset="100%"/></linearGradient><linearGradient x1="54.337%" y1="23.663%" x2="23.015%" y2="88.585%" id="b"><stop stop-color="#DA001F" offset="0%"/><stop stop-color="#DA001F" stop-opacity="0" offset="100%"/></linearGradient><linearGradient x1="23.664%" y1="45.667%" x2="88.586%" y2="76.989%" id="c"><stop stop-color="#DA001F" offset="0%"/><stop stop-color="#DA001F" stop-opacity="0" offset="100%"/></linearGradient><linearGradient x1="45.663%" y1="76.329%" x2="76.985%" y2="11.406%" id="d"><stop stop-color="#DA001F" offset="0%"/><stop stop-color="#DA001F" stop-opacity="0" offset="100%"/></linearGradient></defs><g fill-rule="nonzero" fill="none"><path d="M31.744 19.854l12.704 13.901 7.035-16.202-3.58.41C41.037 6.806 31.296 2.81 24.883 1.126 13.398-1.886 3.045 2.034.05 3.536c8.041-1.459 15.694-.12 22.402 3.346 5.712 2.952 10.211 6.943 13.896 12.42l-4.603.552z" transform="translate(23.491 2.03)" fill="url(#a)"/><path d="M19.876 19.75L33.777 7.046 17.575.011l.41 3.58C6.828 10.457 2.832 20.2 1.148 26.611c-3.012 11.485.907 21.838 2.41 24.834-1.459-8.041-.12-15.694 3.346-22.402 2.952-5.712 6.943-10.211 12.42-13.895l.552 4.602z" transform="translate(2.008 3.834)" fill="url(#b)"/><path d="M19.761 13.934L7.057.033.022 16.235l3.58-.41c6.866 11.158 16.608 15.153 23.02 16.837 11.485 3.012 21.838-.907 24.834-2.41-8.041 1.459-15.694.12-22.402-3.346-5.712-2.952-10.211-6.942-13.895-12.42l4.602-.552z" transform="translate(3.757 42.974)" fill="url(#c)"/><path d="M13.912 31.733L.011 44.443l16.203 7.035-.41-3.58C26.96 41.03 30.957 31.29 32.64 24.877c3.012-11.485-.907-21.839-2.41-24.834 1.46 8.04.12 15.694-3.346 22.401-2.952 5.713-6.942 10.212-12.42 13.896l-.552-4.608z" transform="translate(43.17 23.513)" fill="url(#d)"/><path d="M18.214 40.008l.01.011c.323.328 5.62 5.62 5.62 5.62h15.29v15.29l.01.01 8.01-8.019-.012-7.276h7.281v-6.636h-7.286l.01-19.914-4.006-3.99-24.927 24.904zm20.914-1h-9.014l9.014-9.014v9.014zm6.653-19.164v.02l-.02-.02h.02z" fill="#fff"/></g></svg>