<svg width="80" height="80" fill="none" xmlns="http://www.w3.org/2000/svg"><path d="M48.465 79.16a42.112 42.112 0 0 1-20.227-.863c-.386-.074-.42-.305-.317-.637.498-1.612.975-3.23 1.47-4.842.522-1.698 1.026-3.401 1.559-5.096.132-.421.027-.598-.396-.731a29.318 29.318 0 0 1-10.29-5.7c-.517-.44-1.037-.886-1.511-1.376-.266-.274-.46-.324-.747-.021-1.185 1.25-2.482 2.39-3.694 3.61-1.177 1.186-2.442 2.28-3.604 3.474-.181.186-.368.43-.691.242a41.886 41.886 0 0 1-6.68-9.336A39.092 39.092 0 0 1 0 49.11c.154-.3.46-.32.731-.39 3.114-.778 6.227-1.568 9.336-2.34.157-.038.312-.086.47-.117.385-.078.478-.306.396-.67a20.621 20.621 0 0 1-.48-3.297 37.055 37.055 0 0 1 .01-4.674c.143-1.806.472-3.593.982-5.332.17-.609.107-.672-.575-.877-3.211-.964-6.417-1.95-9.623-2.932-.83-.254-.826-.263-.55-1.107.05-.152.106-.302.16-.454a41.4 41.4 0 0 1 3.725-7.907 39.401 39.401 0 0 1 6.653-8.131c.144-.134.287-.276.42-.415.317-.204.459.093.6.251 1.008 1.123 2.013 2.226 3.019 3.354 1.268 1.416 2.532 2.835 3.83 4.226.738.791.755.782 1.598.107a28.612 28.612 0 0 1 11.502-5.637c.44-.102.483-.315.396-.691-.593-2.607-1.124-5.227-1.712-7.835-.172-.77-.297-1.552-.492-2.317-.255-.991-.227-1.03.735-1.182a42.12 42.12 0 0 1 19.801.98c.31.133.22.376.144.595-.655 2.085-1.251 4.19-1.905 6.279-.43 1.37-.816 2.752-1.252 4.118-.174.545-.144.594.4.775a29.027 29.027 0 0 1 9.354 5.191 18.508 18.508 0 0 1 1.983 1.823c.278.306.519.32.806.01.915-.987 1.96-1.84 2.899-2.804 1.613-1.659 3.352-3.187 4.97-4.842.143-.152.287-.455.604-.251a41.258 41.258 0 0 1 8.101 12.156 39.337 39.337 0 0 1 2.011 5.825c.19.263-.07.3-.204.364-.35.141-.712.248-1.083.317-3.141.747-6.26 1.58-9.395 2.359-1.373.337-1.069.321-.888 1.376.234 1.357.392 2.586.392 4.107v2.497c0 1.582-.18 3-.485 4.475-.098.474-.216.947-.356 1.41-.12.392-.02.591.388.708 1.673.477 3.333 1.005 5 1.502 1.911.575 3.822 1.133 5.722 1.73.233.074.501.124.501.459a41.213 41.213 0 0 1-3.563 8.154 39.434 39.434 0 0 1-7.553 9.38c-.252.233-.42.016-.587-.124-.483-.408-.855-.921-1.274-1.386-1.524-1.692-3.064-3.368-4.58-5.068-.56-.629-1.118-1.26-1.698-1.867-.252-.266-.423-.225-.671-.007a29.063 29.063 0 0 1-5.495 3.854 28.21 28.21 0 0 1-6.025 2.428c-.808.217-.821.213-.643 1.056.697 3.282 1.418 6.558 2.116 9.84.037.176.06.354.099.529.059.258-.04.41-.3.468Z" fill="#243171"/><path d="M33.363 27.582c-1.468.31-2.825.873-3.824 2.024-1.334 1.535-1.601 3.335-.775 5.162s2.503 2.377 4.388 2.423c1.08-.027 2.154 0 3.237-.011.165-.167.083-.375.085-.562.011-4.523.026-9.049.016-13.57 0-.486.115-.632.619-.628 3.447.029 6.894-.019 10.341.047 1.708.033 3.226.795 4.674 1.642 2.897 1.695 4.412 4.263 4.74 7.577.339 3.387-.774 6.166-3.407 8.33-.19.157-.4.272-.043.5 3.16 2.011 4.246 5.968 3.101 9.624-1.423 4.536-4.647 6.907-9.23 7.612-.495.076-1.005.09-1.498.163-.304.046-.37-.07-.368-.347.012-1.561.015-3.123.009-4.685 0-.287.08-.39.38-.43 1.8-.277 3.314-1.055 4.31-2.636.93-1.478 1.3-3.025.194-4.575-1.049-1.467-2.5-2.298-4.321-2.357-1.093-.039-2.19.03-3.283 0-.486-.013-.64.118-.642.62-.02 3.841-.07 7.682-.113 11.521-.01.826-.043 1.65-.044 2.475 0 .313-.076.444-.424.43a1252.36 1252.36 0 0 0-7.964-.203c-1.166-.03-2.331-.058-3.498-.092-.16.003-.32-.024-.47-.079-2.849-1.261-5.33-2.976-6.92-5.745-.935-1.63-1.197-3.392-.939-5.252.197-1.413.453-2.793 1.281-4.006a7.615 7.615 0 0 1 2.112-2.122c.369-.243.331-.381.018-.661-1.672-1.494-2.92-3.27-3.352-5.508-.441-2.28.2-4.391 1.252-6.372 1.807-3.385 4.73-5.079 8.51-5.376.575-.08 1.15-.03 1.724-.027a.451.451 0 0 1 .173.423c.011 1.35.011 2.7 0 4.05a.642.642 0 0 1-.095.353c.024.046.047.091.075.135a.106.106 0 0 1-.03.133Z" fill="#EE412C"/><path d="m33.265 22.524-1.75-.014c.644-.166 1.293-.099 1.951-.08.144.143.12.329.12.504V27c0 .171.099.415-.194.481h-.032c-.075-1.458-.012-2.917-.036-4.375-.009-.194.046-.393-.059-.582Z" fill="#EE412C"/><path d="M33.386 27.486c.099-.076.092-.186.092-.287 0-1.586-.004-3.172-.012-4.758l.118-.013c.125.438.046.884.052 1.327.014 1.107.007 2.216 0 3.324 0 .172.059.357-.062.518l-.213-.007a.358.358 0 0 1 .025-.104Z" fill="#EE412C"/><path d="m33.575 27.59.009-5.17c.144.102.11.253.11.392v4.39c0 .142.03.294-.119.389Z" fill="#EE412C"/><path d="M36.445 47.701c0 1.4-.01 2.797.007 4.196 0 .363-.09.503-.478.495-1.38-.023-2.762 0-4.142-.02-1.592-.028-3.396-1.74-3.7-3.425-.161-.885-.07-1.764.067-2.62.201-1.256 1.12-2.002 2.183-2.567.944-.501 1.93-.824 3.034-.741.86.05 1.724.053 2.585.01.421-.013.522.144.507.531-.026.7-.007 1.4-.007 2.099V47.7h-.056Zm5.738-15.369c0-1.399.01-2.798 0-4.197 0-.36.085-.508.477-.5 1.165.025 2.337-.067 3.495.037 1.498.132 3.996 1.363 4.274 3.244.239 1.615.358 3.242-.882 4.575-.933 1.005-2.056 1.632-3.54 1.502a16.167 16.167 0 0 0-3.017 0c-.74.075-.877-.108-.861-.686.034-1.325.011-2.652.011-3.977l.043.002Z" fill="#243171"/></svg>