<svg width="80" height="31" viewBox="0 0 80 31" fill="none" xmlns="http://www.w3.org/2000/svg">
<path d="M0 9.91197V18.912L22.144 18.928L44.28 18.952L44.304 24.616L44.32 30.272H62.16H80V15.592V0.911971H40H0V9.91197ZM78.88 9.91197V17.792H40H1.12V9.91197V2.03197H40H78.88V9.91197ZM51.84 24.032V26.192H53.88H55.92V26.792V27.392H53.04H50.16V24.632V21.872H51H51.84V24.032ZM58.64 24.632V27.392H57.8H56.96V24.632V21.872H57.8H58.64V24.632ZM62.36 23.968L63.4 26.072L64.44 23.968L65.472 21.872H66.424H67.368L66.84 22.848C66.552 23.392 65.896 24.632 65.376 25.608L64.44 27.392H63.4H62.36L61.48 25.736C61 24.824 60.336 23.576 60.016 22.976L59.432 21.872H60.376H61.328L62.36 23.968ZM74.24 22.392V22.912H72.04H69.84V23.472V24.032H71.96H74.08V24.552V25.072H71.96H69.84V25.672V26.272H72.04H74.24V26.832V27.392H71.2H68.16V24.632V21.872H71.2H74.24V22.392Z" fill="#29CCCC"/>
<rect y="0.911987" width="80" height="18.1481" fill="#FF4100"/>
<path d="M5.76001 9.91198V13.152H6.88001H8.00001L8.01601 11.848L8.04001 10.552H12.048C15.888 10.552 16.072 10.56 16.232 10.704C16.48 10.928 16.456 11.336 16.192 11.544C15.984 11.712 15.896 11.712 12.368 11.712H8.76001L9.48001 12.432L10.2 13.152H13.528C16.624 13.152 16.904 13.144 17.368 12.992C17.952 12.816 18.4 12.48 18.592 12.08C18.752 11.744 18.76 11.056 18.608 10.76C18.376 10.312 17.832 9.95198 17.24 9.85598C17.128 9.83998 17.208 9.76798 17.536 9.60798C18.192 9.28798 18.464 8.79998 18.36 8.13598C18.288 7.64798 17.824 7.14398 17.216 6.89598L16.76 6.71198L11.264 6.68798L5.76001 6.66398V9.91198ZM15.752 8.19998C16.24 8.37598 16.24 8.96798 15.752 9.14398C15.576 9.19998 14.312 9.23198 11.752 9.23198H8.00001V8.67198V8.11198H11.752C14.312 8.11198 15.576 8.14398 15.752 8.19998Z" fill="black"/>
<path d="M20.256 7.40802L20.28 8.15202L26.344 8.17602L32.4 8.19202V7.43202V6.67202H26.32H20.232L20.256 7.40802Z" fill="black"/>
<path d="M33.6 7.51193V8.35193H35.736H37.88L37.04 7.51193L36.2 6.67193H34.904H33.6V7.51193Z" fill="black"/>
<path d="M38.72 9.91198V13.152H39.84H40.96L40.976 10.768L41 8.39198L43.544 8.36798L46.08 8.35198V7.51198V6.67198H42.4H38.72V9.91198Z" fill="black"/>
<path d="M47.44 7.43202V8.19202H53.52H59.6V7.43202V6.67202H53.52H47.44V7.43202Z" fill="black"/>
<path d="M61.28 9.91198V13.152H62.44H63.6V10.712V8.27198H67.304C69.6 8.27198 71.112 8.30398 71.296 8.35198C71.64 8.44798 71.84 8.68798 71.84 8.99998C71.84 9.69598 71.768 9.71198 68.584 9.71198H65.88L65.12 10.472L64.36 11.232H67H69.64L70.6 12.192L71.56 13.152H72.96H74.36L73.336 12.128L72.32 11.112L72.728 10.96C73.632 10.64 74.24 9.67198 74.128 8.71998C74.032 7.87198 73.528 7.27998 72.584 6.89598L72.12 6.71198L66.704 6.68798L61.28 6.66398V9.91198Z" fill="black"/>
<path d="M20.24 9.912V10.672H26.32H32.4V9.912V9.152H26.32H20.24V9.912Z" fill="black"/>
<path d="M47.44 9.912V10.672H53.52H59.6V9.912V9.152H53.52H47.44V9.912Z" fill="black"/>
<path d="M20.296 11.688C20.264 11.712 20.24 12.056 20.24 12.448V13.152H26.32H32.4V12.392V11.632H26.376C23.056 11.632 20.32 11.656 20.296 11.688Z" fill="black"/>
<path d="M47.496 11.688C47.464 11.712 47.44 12.056 47.44 12.448V13.152H53.52H59.6V12.392V11.632H53.576C50.256 11.632 47.52 11.656 47.496 11.688Z" fill="black"/>
</svg>
