<svg width="80" height="80" fill="none" xmlns="http://www.w3.org/2000/svg"><path fill-rule="evenodd" clip-rule="evenodd" d="M8.344 0H72.55a2.342 2.342 0 0 1 2.342 2.342v75.315A2.342 2.342 0 0 1 72.549 80H8.343A2.342 2.342 0 0 1 6 77.657V2.343A2.342 2.342 0 0 1 8.342 0h.002ZM22.06 66.856h20.493c6.15-.049 10.79-1.394 13.921-4.04 3.134-2.643 4.7-6.597 4.7-11.86 0-2.903-.706-5.362-2.116-7.379-1.41-2.017-3.431-3.394-6.067-4.131 2.335-.935 4.102-2.386 5.305-4.353 1.202-1.968 1.803-4.342 1.803-7.122 0-4.82-1.694-8.497-5.08-11.03-3.386-2.534-8.328-3.8-14.824-3.8H22.061v53.715ZM34.23 44.02h8.53c4.184.024 6.276 2.275 6.276 6.752 0 1.943-.59 3.45-1.769 4.519-1.178 1.07-2.866 1.604-5.062 1.604H34.23V44.02Zm0-8.485V23.14h5.964c2.73 0 4.705.498 5.93 1.495 1.225.995 1.838 2.624 1.838 4.887 0 1.968-.567 3.455-1.7 4.465-1.132 1.007-3.027 1.525-5.686 1.55H34.23v-.002Z" fill="#FFC927"/></svg>