<svg width="43" height="20" xmlns="http://www.w3.org/2000/svg"><defs><path id="a" d="M0 .02h42.177v19.834H0z"/></defs><g fill="none" fill-rule="evenodd"><path d="M.88 1.746c.095-.192.187-.385.283-.576C1.69.12 2.966-.25 3.948.363c.929.58 1.189 1.907.551 2.816-.82 1.171-2.677 1.019-3.336-.275-.097-.19-.188-.382-.282-.574v-.584Z" fill="#EE5538"/><path d="M27.747 12.385c0-.947.009-1.894-.006-2.84a2.286 2.286 0 0 0-.132-.78.976.976 0 0 0-.96-.655c-.456 0-.791.236-.96.655-.087.219-.134.469-.135.706-.01 1.917-.009 3.835-.001 5.753 0 .19.04.387.1.567.158.471.514.742.959.759.466.017.876-.264 1.034-.757.073-.226.094-.475.097-.714.01-.898.004-1.796.004-2.694m-2.255-6.596c.567-.25 1.05-.53 1.569-.676 1.215-.344 2.382.12 2.96 1.246.312.61.572 1.322.588 1.995.07 2.768.055 5.54.022 8.31-.006.49-.2.995-.388 1.461-.686 1.712-3.067 1.735-4.116.925-.17-.132-.33-.28-.49-.415-.058.028-.128.04-.134.068-.166.743-.165.745-.924.749-.462.002-.924.006-1.385-.002-.655-.01-.655-.014-.668-.637V1.244c.001-.646.008-.651.628-.659.583-.007 1.167.016 1.75-.006.418-.015.55.169.547.564-.012 1.288-.006 2.576-.001 3.864.001.257.027.514.042.782M15.735 9.706c-.003 1.131-.003 1.131 1.16 1.13.216 0 .438.022.649-.016.11-.02.284-.15.284-.23 0-.6.033-1.214-.083-1.795-.125-.624-.572-.88-1.104-.8-.52.078-.864.475-.903 1.06-.015.216-.003.434-.003.651Zm-3.023 2.97c0-.876-.003-1.751 0-2.627a7.167 7.167 0 0 1 .62-2.898c.606-1.375 1.603-2.176 3.173-2.085.554.032 1.133.015 1.655.17 1.685.503 2.65 1.851 2.678 3.661.019 1.265.008 2.53.002 3.794-.003.606-.012.621-.603.626-1.265.01-2.53 0-3.794.005-.815.004-.826.01-.819.803.005.484-.022.986.099 1.445.083.313.339.662.617.827.71.42 1.393.075 1.49-.745.046-.4.2-.48.543-.473.632.014 1.264.004 1.896.006.23 0 .41.02.46.329.233 1.462-1.024 3.525-2.468 3.885-1.02.254-2.08.28-3.083-.102-1.552-.59-2.312-1.813-2.429-3.413-.077-1.064-.014-2.139-.014-3.208h-.023ZM6.157 3.673c.41-.95.509-1.87.198-2.814-.123-.374.094-.428.378-.384 2.149.338 3.935 1.518 4.475 4.07.1.473.158.962.16 1.445.012 2.748.02 5.497-.013 8.246-.014 1.131-.338 2.208-.903 3.194-.847 1.478-2.146 2.116-3.834 2.023-.335-.018-.482-.142-.477-.483.01-.827.01-1.654 0-2.481-.005-.31.136-.39.427-.447 1.025-.2 1.409-.624 1.502-1.66.057-.628.063-1.262.066-1.894.007-1.922.002-3.844.002-5.766 0-.146.002-.292 0-.438-.026-1.574-.444-2.14-1.98-2.61M37.27 8.874c0-2.09-.001-4.18.001-6.27 0-.745.004-.747.772-.753.51-.003 1.021-.005 1.531.001.741.01.758.026.763.796.006.85.017 1.701-.003 2.551-.01.44.156.616.597.597.51-.022 1.02.003 1.53 0 .304-.001.436.131.427.442-.014.51-.014 1.021 0 1.531.009.314-.13.44-.43.439-.535-.002-1.07.014-1.604.003-.375-.008-.518.157-.516.524.01 1.92-.009 3.84.018 5.76.012.872.335 1.559 1.31 1.76.115.023.257.27.262.419.027.752.005 1.506.015 2.26.005.374-.172.494-.53.521-1.942.151-3.591-1.102-3.984-3.086a8.597 8.597 0 0 1-.152-1.59c-.017-1.968-.007-3.937-.007-5.905" fill="#6A6A6A"/><path d="M4.48 12.624c0 2.017.002 4.035 0 6.052 0 .734-.004.738-.704.746-.559.006-1.118.005-1.677 0-.724-.006-.73-.01-.73-.72-.002-2.309 0-4.618 0-6.927 0-1.823.012-3.647-.01-5.47-.005-.437.107-.61.569-.585.654.036 1.312.003 1.968.01.575.007.582.014.583.622.004 2.09.002 4.181.002 6.272" fill="#EE5538"/><path d="M32.42 12.547c-.001-2.041-.003-4.082 0-6.123.001-.703.008-.705.729-.708.632-.003 1.264.01 1.895-.003.315-.007.446.122.429.429-.007.12.001.242.001.364v12.099c0 .84-.004.842-.84.847-.534.002-1.068.009-1.603-.003-.585-.014-.607-.03-.609-.634-.007-2.09-.003-4.179-.003-6.268M35.907 2.01c.009 1.125-.78 1.942-1.9 1.965-1.163.024-1.998-.78-2.003-1.93-.006-1.11.89-2.025 1.968-2.008 1.082.018 1.927.879 1.935 1.972" fill="#6A6A6A"/></g></svg>