<svg width="80" height="80" fill="none" xmlns="http://www.w3.org/2000/svg"><mask id="a" style="mask-type:alpha" maskUnits="userSpaceOnUse" x="0" y="22" width="11" height="35"><path d="M0 22.11h10.422v34.828H0V22.109Z" fill="#fff"/></mask><g mask="url(#a)"><path fill-rule="evenodd" clip-rule="evenodd" d="M6.645 22.11c1.912 0 3.777 1.342 3.777 3.31 0 2.014-1.864 3.357-3.777 3.357-1.912 0-3.778-1.342-3.778-3.356 0-1.968 1.865-3.31 3.777-3.31l.001-.002ZM3.633 36.644H0v-5.517h9.753v25.81h-6.12V36.645Z" fill="#2D6024"/></g><path fill-rule="evenodd" clip-rule="evenodd" d="M34.074 39.462h13.48v14.104c-1.96 1.344-6.74 4.126-13.337 4.126-10.804 0-19.265-7.676-19.265-17.846C14.952 29.675 23.413 22 34.217 22c5.736 0 9.992 2.063 12.62 3.646v7.004c-3.155-2.783-8.03-4.894-12.62-4.894-7.6 0-12.906 5.23-12.906 12.09 0 6.86 5.305 12.089 12.906 12.089 2.343 0 4.78-.576 7.123-1.583v-5.325h-7.266v-5.566.001Z" fill="#2D6024"/><path fill-rule="evenodd" clip-rule="evenodd" d="M62.408 29.083H51.222v-5.757H80v5.757H68.814v28.592h-6.406V29.083Z" fill="#606060"/></svg>