<svg width="80" height="80" fill="none" xmlns="http://www.w3.org/2000/svg"><path d="M15.744 7.641v29.364H8.919V7.641h6.825Zm-8.896-.054v29.417H0V7.587h6.848Zm64.515 0v17.736S60.036 12.685 58.481 11.266a16.372 16.372 0 0 0-11.46-4.26c-5.9 0-9.587 2.353-11.58 4.315a16.277 16.277 0 0 0-4.573 11.132 14.906 14.906 0 0 0 4.604 10.904 16.317 16.317 0 0 0 11.524 4.314c4.966 0 8.692-1.671 11.446-4.314 2.055-1.976 3.5-4.5 4.165-7.272l9.61 10.927h5.805V7.58l-6.66.008h.001ZM53.477 28.91a8.99 8.99 0 0 1-6.566 2.509 8.771 8.771 0 0 1-9.045-9.022 8.984 8.984 0 0 1 2.613-6.643 9.132 9.132 0 0 1 6.48-2.473 9.531 9.531 0 0 1 6.51 2.51 9.204 9.204 0 0 1 2.574 6.6 8.754 8.754 0 0 1-2.566 6.517v.002Z" fill="#6C2186"/><path d="M24.044 24.97a9.289 9.289 0 0 0 4.118-2.227 8 8 0 0 0 2.306-5.986 8.934 8.934 0 0 0-2.573-6.613c-1.42-1.318-3.765-2.588-7.538-2.588H8.92v5.2h9.492c.887 0 2.66 0 3.766.855a3.797 3.797 0 0 1 1.373 3.138 3.767 3.767 0 0 1-1.107 2.809c-1.152 1.145-2.839 1.207-4.079 1.207h-1.569v4.707l8.002 11.493h8.331L24.044 24.97Zm40.415 30.525v5.812h7.712a7.233 7.233 0 0 1-2.252 3.679c-.706.605-2.353 1.672-5.491 1.672a8.51 8.51 0 0 1-6.346-2.433 12.771 12.771 0 0 1-3.546-7.304 12.77 12.77 0 0 1 3.546-7.302 8.504 8.504 0 0 1 6.346-2.424c3.138 0 4.754 1.082 5.491 1.686a7.225 7.225 0 0 1 2.04 3.044l6.103-2.942a15.116 15.116 0 0 0-2.753-4.08c-3.483-3.592-7.46-4.25-11.178-4.25-3.72 0-7.807.611-11.477 4.345a15.479 15.479 0 0 0-1.57 1.906v.047a10.089 10.089 0 0 0-1.466-1.78c-3.139-3.036-7.24-4.534-12.136-4.534-6.276 0-10.151 2.479-12.269 4.573a9.645 9.645 0 0 0-1.451 1.952l-.063-.108a14.668 14.668 0 0 0-1.302-1.39c-3.86-3.686-8.23-4.266-12.371-4.266H0v31.08h10.198c2.628 0 8.04-.33 12.371-4.707.339-.324.66-.664.965-1.02a16.58 16.58 0 0 0 1.569 1.86c2.118 2.101 6.024 4.572 12.277 4.572 4.895 0 8.982-1.49 12.136-4.526a10.754 10.754 0 0 0 1.474-1.78v.039c.474.677.998 1.317 1.57 1.914 3.67 3.734 7.71 4.338 11.476 4.338 3.765 0 7.656-.651 11.14-4.243 3.483-3.594 4.785-9.336 4.785-13.117v-.33l-15.502.016v.001Zm-45.09 3.522c-.299.784-1.154 3.71-3.028 5.27-2.354 1.962-5.64 2.08-7.147 2.08H7.217V47.374h1.977c2.211 0 5.264.354 7.617 2.684 1.223 1.215 2.353 3.436 2.817 6.7 0 .32.094.642.148.956-.164.542-.29.98-.407 1.301v.002Zm26.405 2.902a8.812 8.812 0 0 1-1.499 2.008 10.127 10.127 0 0 1-6.918 2.66 9.68 9.68 0 0 1-6.865-2.66 8.067 8.067 0 0 1-.988-1.144 19.115 19.115 0 0 1-2.354-5.83 18.97 18.97 0 0 1 2.353-5.828 7.94 7.94 0 0 1 .989-1.145 9.664 9.664 0 0 1 6.865-2.66 10.13 10.13 0 0 1 6.918 2.66 9.168 9.168 0 0 1 1.498 2.008 13.73 13.73 0 0 1 1.64 3.922c.078.337.157.674.228 1.011-.071.33-.15.668-.228 1.005a13.73 13.73 0 0 1-1.639 3.993Z" fill="#6C2186"/><path fill-rule="evenodd" clip-rule="evenodd" d="m62.616 26.17-8.488-9.75s4.063 5.358.346 11.28l3.302 6.19a14.23 14.23 0 0 0 4.84-7.72Z" fill="url(#a)"/><path fill-rule="evenodd" clip-rule="evenodd" d="M16.92 25.653c2.4.307 4.835.114 7.155-.565l9.053 12.026h-8.316l-7.891-11.461Z" fill="url(#b)"/><path fill-rule="evenodd" clip-rule="evenodd" d="M54.395 55.84c.047.336.094.705.157 1.081a12.89 12.89 0 0 1 3.547-7.303 8.527 8.527 0 0 1 6.352-2.424c3.138 0 4.707 1.083 5.492 1.687a7.193 7.193 0 0 1 2.048 3.043l6.102-2.941a15.24 15.24 0 0 0-2.753-4.08c-3.483-3.592-7.46-4.252-11.178-4.252-3.72 0-7.806.613-11.477 4.347a15.372 15.372 0 0 0-1.569 1.906v.047a23.91 23.91 0 0 1 3.28 8.889Z" fill="url(#c)"/><path fill-rule="evenodd" clip-rule="evenodd" d="M48.292 60.122c-.236-1.058-.424-2.133-.651-3.2-.071.33-.15.666-.228 1.004a13.966 13.966 0 0 1-1.639 3.922 8.807 8.807 0 0 1-1.499 2.009 10.127 10.127 0 0 1-6.918 2.66 9.68 9.68 0 0 1-6.865-2.66 8.063 8.063 0 0 1-.988-1.146 19.117 19.117 0 0 1-2.354-5.829c-.305-1.239-.43-3.318-.894-4.949l-6.119 7.059c1.044 3.711 2.833 7.476 4.966 9.617 2.133 2.144 6.016 4.575 12.27 4.575 4.895 0 8.988-1.49 12.135-4.526a10.658 10.658 0 0 0 1.481-1.782 18.613 18.613 0 0 1-2.697-6.754Z" fill="url(#d)"/><path fill-rule="evenodd" clip-rule="evenodd" d="M64.46 55.494v5.813h7.712a7.233 7.233 0 0 1-2.253 3.679c-.706.603-2.353 1.672-5.49 1.672a8.51 8.51 0 0 1-6.347-2.433c-2.746-2.66-3.412-6.071-3.71-8.385-.385-2.723-2.119-8.035-4.856-10.662-3.138-3.028-7.24-4.527-12.128-4.527-6.276 0-10.16 2.48-12.277 4.574a13.556 13.556 0 0 0-1.459 1.922 19.127 19.127 0 0 1 1.639 3.295 55.798 55.798 0 0 1 1.804 6.48 18.876 18.876 0 0 1 2.402-5.83c.295-.41.625-.792.987-1.144a9.688 9.688 0 0 1 6.873-2.66 10.127 10.127 0 0 1 6.91 2.66 8.867 8.867 0 0 1 1.498 2.009 13.728 13.728 0 0 1 1.64 3.922c.337 1.412.572 2.815.879 4.212a16.301 16.301 0 0 0 2.746 6.8c.472.676.998 1.313 1.569 1.908 3.67 3.734 7.71 4.337 11.477 4.337 3.765 0 7.656-.65 11.139-4.244C78.698 65.3 80 59.557 80 55.777v-.33l-15.54.047Z" fill="url(#e)"/><path fill-rule="evenodd" clip-rule="evenodd" d="M19.368 59.017c-.298.784-1.153 3.71-3.027 5.27-2.354 1.962-5.64 2.08-7.147 2.08h-.188a22.428 22.428 0 0 0-1.107 6.118h2.299c2.628 0 8.04-.33 12.371-4.706.339-.326.661-.67.965-1.028a21.41 21.41 0 0 1-3.742-9.037c-.18.542-.306.98-.424 1.301v.002Z" fill="url(#f)"/><path fill-rule="evenodd" clip-rule="evenodd" d="M64.46 55.494v5.813h7.711a7.232 7.232 0 0 1-2.252 3.679c-.706.605-2.353 1.672-5.491 1.672a8.51 8.51 0 0 1-6.346-2.433 12.771 12.771 0 0 1-3.546-7.304c-.07.377-.117.739-.164 1.075a23.988 23.988 0 0 1-3.382 8.88v.04c.474.677.998 1.317 1.57 1.914 3.67 3.734 7.71 4.338 11.476 4.338 3.765 0 7.656-.651 11.14-4.243 3.483-3.594 4.785-9.336 4.785-13.117v-.33l-15.502.016Z" fill="#6C2186"/><path fill-rule="evenodd" clip-rule="evenodd" d="M8.92 12.796h6.824v5.263H8.919v-5.264Z" fill="url(#g)"/><defs><linearGradient id="a" x1="54.878" y1="26.348" x2="64.334" y2="24.122" gradientUnits="userSpaceOnUse"><stop stop-opacity="0"/><stop offset="1" stop-opacity=".5"/></linearGradient><linearGradient id="b" x1="25.134" y1="32.482" x2="20.925" y2="21.701" gradientUnits="userSpaceOnUse"><stop stop-opacity="0"/><stop offset="1" stop-opacity=".5"/></linearGradient><linearGradient id="c" x1="64.553" y1="46.389" x2="55.599" y2="67.357" gradientUnits="userSpaceOnUse"><stop stop-opacity="0"/><stop offset="1" stop-opacity=".5"/></linearGradient><linearGradient id="d" x1="36.877" y1="61.805" x2="43.493" y2="47.714" gradientUnits="userSpaceOnUse"><stop stop-opacity="0"/><stop offset="1" stop-opacity=".5"/></linearGradient><linearGradient id="e" x1="37.576" y1="56.648" x2="11.571" y2="56.648" gradientUnits="userSpaceOnUse"><stop stop-opacity="0"/><stop offset="1" stop-opacity=".5"/></linearGradient><linearGradient id="f" x1="13.739" y1="69.524" x2="25.483" y2="59.438" gradientUnits="userSpaceOnUse"><stop stop-opacity="0"/><stop offset="1" stop-opacity=".5"/></linearGradient><linearGradient id="g" x1="12.625" y1="17.968" x2="12.625" y2="10.613" gradientUnits="userSpaceOnUse"><stop stop-opacity="0"/><stop offset="1" stop-opacity=".5"/></linearGradient></defs></svg>