<svg width="80" height="80" viewBox="0 0 80 80" fill="none" xmlns="http://www.w3.org/2000/svg">
<path fill-rule="evenodd" clip-rule="evenodd" d="M38.1714 38.6791C38.1714 38.6791 40.0118 32.2694 41.5032 25.828C43.7402 16.1342 44.9143 3.99702 37.3781 1.07776C24.8602 -3.7771 21.9092 9.34372 21.9092 9.34372C21.9092 9.34372 8.36005 4.47299 8.0586 19.815C7.93168 25.955 12.7548 29.1598 18.7203 31.7617C27.6843 35.6805 38.1714 38.6791 38.1714 38.6791Z" fill="#FD5827"/>
<path fill-rule="evenodd" clip-rule="evenodd" d="M60.7957 7.72542C45.2633 6.44031 41.059 37.9969 41.059 37.9969C41.059 37.9969 72.8059 51.3557 78.5651 38.9964C84.3243 26.6372 70.8862 22.9246 70.8862 22.9246C70.8862 22.9246 76.3439 9.01053 60.7957 7.72542Z" fill="#0D3B55"/>
<path fill-rule="evenodd" clip-rule="evenodd" d="M40.2022 40.1388C40.2022 40.1388 28.3507 73.8213 40.7099 78.6445C53.7832 83.7532 57.2419 70.1881 57.2419 70.1881C57.2419 70.1881 74.218 74.9795 71.9651 59.2409C69.9343 45.1206 40.2022 40.1388 40.2022 40.1388Z" fill="#FD5827"/>
<path fill-rule="evenodd" clip-rule="evenodd" d="M37.5369 39.9642C37.5369 39.9642 9.02646 26.9227 1.95043 40.5513C-5.12561 54.1798 9.32791 56.9404 9.32791 56.9404C9.32791 56.9404 6.02787 70.3944 19.3708 72.0761C32.7137 73.7579 37.5369 39.9642 37.5369 39.9642Z" fill="#FD5827"/>
</svg>
