<svg width="80" height="68" fill="none" xmlns="http://www.w3.org/2000/svg"><g clip-path="url(#clip0)"><path d="M30.86 1.8c4.11 1.843 7.239 5.203 9.14 9.232 2.167-4.636 6.017-8.325 10.931-9.94 5.246-1.769 11.239-1.32 16.266.936 4.584 2.046 8.368 5.708 10.543 10.215 3.894 8.006 2.689 18.164-3.093 24.972-2.426 2.83-6.095 5.182-9.897 5.416 1.014-.821 2.034-1.547 2.894-2.545 2.195-2.491 3.488-5.807 3.84-9.082.32-3.01-.137-6.204-1.748-8.814-1.805-2.922-5.102-4.798-8.491-5.209-1.82-.261-3.566.05-5.324.502 1.382.808 2.693 1.636 3.7 2.909 2.245 2.715 2.839 6.584 1.539 9.849-.772 2.015-2.208 3.587-3.966 4.815 1.212 2.614 2.474 5.203 3.652 7.833-3.034.37-5.58-.23-8.208-1.717-.157 1.252-.475 2.114-1.133 3.183.607 1.9 1.457 2.94 3.071 4.093-1.252.22-2.433.278-3.703.245.683 1.483 1.536 2.582 2.724 3.695a24.841 24.841 0 01-3.133.18c.01.265.017.53.027.794 1.444.679 2.894 1.351 4.341 2.026.939-2.012 1.874-4.025 2.816-6.037 2.307 1.055 4.614 2.107 6.921 3.166-.915 1.969-1.822 3.937-2.73 5.909-.317.61-.584 1.242-1.287 1.493-.972.346-1.805-.037-2.693-.417-2.494-1.158-4.99-2.329-7.498-3.462.226 1.873.71 3.346 1.625 5.002-.901-.081-1.935-.084-2.782-.427-.778-.316-1.372-.934-1.98-1.487-.01 2.23.216 4.337.916 6.465-2.53-.532-4.386-1.316-6.482-2.816.697 1.218 1.297 2.372 2.407 3.285.638.543 1.354.879 2.092 1.259-3.437.146-6.659-.014-9.618-1.951-2.515-1.613-3.915-4.151-4.597-6.992a17.68 17.68 0 00-1.068 3.662c-2.454-2.535-2.833-6.224-1.659-9.448a34.101 34.101 0 01-2.819-.21c1.208-1.12 2.03-2.19 2.723-3.683-1.259.024-2.443-.034-3.689-.247 1.642-1.192 2.427-2.172 3.072-4.107-.676-1.076-.99-1.917-1.144-3.19-2.655 1.53-5.14 2.094-8.214 1.734 1.19-2.623 2.443-5.216 3.658-7.83-1.205-.892-2.314-1.852-3.109-3.139-1.867-2.898-2.038-6.723-.457-9.78 1.05-2.115 2.805-3.537 4.843-4.657-1.82-.471-3.628-.777-5.512-.478-4.201.573-7.98 3.312-9.355 7.378-2.188 6.438.256 14.454 6.051 18.241-3.614-.197-7.133-2.365-9.525-4.975-7.12-7.9-7.72-20.644-1.205-29.088C10.451.708 21.863-2.228 30.86 1.801z" fill="#fff"/><path d="M48.266 17.327c-1.28.665-2.502 1.327-3.505 2.382-1.174 1.165-1.922 2.6-2.468 4.144-1.62-.315-2.959-.326-4.576-.006-.533-1.426-1.185-2.766-2.24-3.886-1.047-1.178-2.361-1.928-3.753-2.634 1.221-1.262 2.566-2.345 4.245-2.953 4.294-1.629 9.263-.512 12.297 2.953zM25.905 20.348c2.228-.781 4.788-.306 6.566 1.238 2.072 1.748 2.87 4.67 1.966 7.222-.946 2.756-3.73 4.643-6.659 4.466-3.13-.125-5.843-2.572-6.283-5.654-.502-3.122 1.416-6.248 4.41-7.273zM49.781 20.313c2.645-.889 5.645.017 7.358 2.2 1.67 2.07 1.905 5.066.58 7.37-1.31 2.35-4.027 3.714-6.706 3.344-3.037-.37-5.518-2.919-5.788-5.95-.331-3.054 1.628-6.017 4.556-6.964z" fill="#707070"/><path d="M31.877 22.859c1.314 1.354 1.447 2.996 1.393 4.799-.598-1.05-1.055-2.047-2.048-2.794-1.789-1.38-4.4-1.387-6.195-.013-1.01.736-1.467 1.744-2.037 2.81-.113-1.802.055-3.469 1.375-4.82 1.987-2.137 5.536-2.13 7.512.018zM55.71 22.923c1.265 1.35 1.395 2.956 1.3 4.724-.608-1.1-1.065-2.131-2.14-2.874-1.761-1.276-4.26-1.266-6.007.03-1.054.733-1.512 1.755-2.061 2.861-.195-1.826.037-3.533 1.389-4.88 2.013-2.111 5.583-2.043 7.518.139z" fill="#fff"/><path d="M38.17 26.656c1.246-.4 2.444-.24 3.697-.006.167 2.243.768 4.364 2.215 6.129 1.221 1.598 2.873 2.514 4.655 3.37-2.024-.353-3.717-.923-5.553-1.826 1.898 2.338 3.894 3.61 6.833 4.34 0 .734.017 1.467-.004 2.2.137 1.887-2.26 3.183-2.102 5.05.007 2.077.024 4.154.014 6.23-2.205-1.017-4.406-2.043-6.611-3.06 0-1.755-.004-3.51 0-5.264 1.105-1.066 2.249-2.101 3.341-3.18.512-.547 1.051-1.005.99-1.826-.39-.835-1.369-.743-2.147-.794-2.396 0-4.792-.004-7.188 0-.672.04-1.467 0-1.948.556-.345.78.174 1.3.655 1.846 1.188 1.202 2.454 2.332 3.672 3.506-.003 1.72.004 3.438-.007 5.159-2.204 1.014-4.402 2.036-6.604 3.058-.04-2.39.072-4.8-.04-7.178-.437-1.15-1.605-2.064-1.97-3.252-.153-.994-.071-2.032-.088-3.037 2.856-.757 4.702-2.016 6.487-4.34-1.669.783-3.273 1.364-5.078 1.757 2.246-1.038 4.201-2.413 5.41-4.622.914-1.503 1.098-3.122 1.371-4.816z" fill="#707070"/><path d="M36.215 39.027c.938-.207 1.88-.214 2.836-.207 1.607.02 3.126-.105 4.72.21-1.02 1.066-2.304 1.11-3.7 1.16-1.423-.013-2.77-.152-3.856-1.163z" fill="#000"/><path d="M39.996 51.268c2.56 1.113 5.075 2.342 7.614 3.502-2.167 1.972-4.924 3.058-7.873 2.97-2.771-.034-5.31-1.137-7.355-2.963 2.536-1.167 5.055-2.392 7.614-3.509z" fill="#707070"/></g><defs><clipPath id="clip0"><path fill="#fff" d="M0 0h80v68H0z"/></clipPath></defs></svg>