<svg width="80" height="77" fill="none" xmlns="http://www.w3.org/2000/svg"><path d="M79.597 0H57.574v7.532a.4.4 0 0 0 .4.4h21.623a.4.4 0 0 0 .4-.4V.4a.4.4 0 0 0-.4-.4M15.282 15.853V31.31a.4.4 0 0 0 .4.4h10.509a.4.4 0 0 0 .4-.4v-7.47a7.977 7.977 0 0 0-7.977-7.978h-1.163v-.032c5.306-.13 9.14-.928 9.14-8.206 0-7.609-4.909-7.55-11.31-7.609H.4a.4.4 0 0 0-.4.4v30.9a.4.4 0 0 0 .4.4h10.51a.4.4 0 0 0 .397-.4V6.029a2.038 2.038 0 0 1 1.923-2.062 1.98 1.98 0 0 1 2.041 1.98l.01 9.906ZM30.895 0H52.92a.4.4 0 0 1 .4.4v7.132a.4.4 0 0 1-.4.4H38.818v3.962h14.098a.4.4 0 0 1 .4.4v7.128a.4.4 0 0 1-.4.4H31.295a.4.4 0 0 1-.4-.4V0Zm0 31.716H52.92a.4.4 0 0 0 .4-.4v-7.129a.4.4 0 0 0-.4-.4H31.295a.4.4 0 0 0-.4.4v7.53Zm26.679 0H79.6a.4.4 0 0 0 .4-.4v-7.129a.4.4 0 0 0-.4-.4H65.497v-3.964h14.097a.4.4 0 0 0 .4-.4v-7.13a.4.4 0 0 0-.4-.4h-21.62a.4.4 0 0 0-.4.4v19.423ZM.013 33.938l3.846 41.61a.535.535 0 0 0 .535.487h14.13a.535.535 0 0 0 .538-.585l-3.839-41.61a.539.539 0 0 0-.535-.491H.548a.537.537 0 0 0-.535.589m21.839 42.097h14.14a.538.538 0 0 0 .535-.488l3.846-41.61a.538.538 0 0 0-.535-.588H25.705a.535.535 0 0 0-.535.488l-3.853 41.606a.534.534 0 0 0 .535.585m42.877-42.672h-5.336c-8.618.08-15.221.934-15.221 10.24V64.94c0 10.08 6.607 11.002 15.221 11.088h5.336c8.618-.086 15.22-1.009 15.22-11.088V43.597c0-9.307-6.606-10.162-15.22-10.24Zm0 13.336v21.34a2.668 2.668 0 1 1-5.336 0v-26.68a2.668 2.668 0 1 1 5.336 0v5.34Z" fill="#fff"/></svg>