<svg width="271" height="129" xmlns="http://www.w3.org/2000/svg"><g fill="none" fill-rule="evenodd"><path d="M150.61 72.655c-8.232 14.1-23.412 23.567-40.82 23.567-26.14 0-47.323-21.371-47.323-47.716 0-26.346 21.2-47.734 47.34-47.734 17.889 0 33.463 10.017 41.507 24.784l-13.533 8.233c-5.265-10.154-15.814-17.1-27.975-17.1-17.426 0-31.542 14.236-31.542 31.817 0 17.563 14.133 31.816 31.542 31.816 11.698 0 21.886-6.414 27.34-15.934l13.465 8.267Zm6.827-31.285h-47.545v15.9h47.545v-15.9Z" fill="#047DD8" fill-rule="nonzero"/><path d="M79.019 59.877c-1.08-3.053-2.762-5.934-5.077-8.25-5.231-5.471-14.082-9.142-21.148-11.217-4.511-1.338-9.04-2.659-13.55-3.997-3.705-1.097-7.685-1.972-11.03-4.03-1.251-.772-2.452-1.733-3.207-3.002-1.423-2.538-.943-3.962-.514-5.694 1.27-3.756 5.66-6.02 9.28-6.69 4.596-.857 8.867-.428 13.412.824 3.739 1.029 7.05 3.019 10.205 5.248.498.36 1.441 1.115 2.453 2.024.086-.154.189-.291.274-.446a55.242 55.242 0 0 1 8.422-12.88c-2.127-1.87-4.905-3.757-7.684-5.386-3.396-1.99-6.74-3.585-10.548-4.529-8.096-2.024-16.655-2.11-24.425.858-7.495 2.864-14.253 8.919-16.757 16.672-1.252 3.876-1.647 9.022-.652 13.018.995 4.03 4.014 8.73 7.152 11.457 4.083 3.534 10.343 6.638 15.814 8.32 4.271 1.303 8.542 2.623 12.813 3.927 3.465 1.063 7.032 1.955 10.411 3.276 3.43 1.338 5.66 2.418 7.101 5.986 1.458 3.636.326 6.758-2.333 9.33-3.173 3.054-6.689 4.597-11.869 5.66-4.476.91-9.33.36-13.824-.651-7.547-1.681-14.305-6.432-18.902-12.71a31.522 31.522 0 0 1-1.783-2.761L0 72.758c4.51 7.41 11.097 14.065 18.764 18.164 9.468 5.077 20.548 6.792 30.96 4.854a45.901 45.901 0 0 0 16.911-6.86c10.857-7.582 16.5-17.444 12.384-29.039" fill="#047DD8"/><path fill="#000" d="M165.602 0h16.706v16.689h-16.706zM165.602 20.068h16.706v16.689h-16.706zM165.602 40.153h16.706v16.689h-16.706zM165.602 60.203h16.706v16.689h-16.706zM165.602 80.288h16.706v16.706h-16.706z"/><path fill="#3A3A3A" d="M185.635 0h16.689v16.706h-16.689zM185.635 20.068h16.689v16.689h-16.689zM185.635 40.153h16.689v16.689h-16.689zM185.635 60.203h16.689v16.689h-16.689zM185.635 80.288h16.689v16.689h-16.689z"/><path fill="#717171" d="M205.686 0h16.706v16.706h-16.706zM205.686 20.068h16.706v16.689h-16.706zM205.686 40.153h16.706v16.689h-16.706z"/><path fill="#FE1A45" d="M205.686 60.203h16.706v16.689h-16.706z"/><path fill="#717171" d="M205.686 80.288h16.706v16.689h-16.706z"/><path fill="#047DD8" d="M225.736 0h16.689v16.689h-16.689z"/><path fill="#A3A3A3" d="M225.736 20.068h16.689v16.689h-16.689zM225.736 40.153h16.689v16.689h-16.689zM225.736 60.203h16.689v16.706h-16.689zM225.736 80.288h16.689v16.706h-16.689z"/><path fill="#BBB" d="M245.787 0h16.706v16.706h-16.706zM245.787 20.068h16.706v16.689h-16.706zM245.787 40.153h16.706v16.689h-16.706zM245.787 60.203h16.706v16.689h-16.706zM245.787 80.288h16.706v16.689h-16.706z"/><path d="m.292 123.888 2.315-3.293c1.407 1.458 3.568 2.71 6.312 2.71 2.35 0 3.448-1.046 3.448-2.195 0-3.448-11.424-1.047-11.424-8.508 0-3.293 2.848-6.037 7.53-6.037 3.156 0 5.763.96 7.736 2.761l-2.35 3.156c-1.613-1.51-3.757-2.195-5.78-2.195-1.784 0-2.796.772-2.796 1.972 0 3.122 11.389 1.012 11.389 8.422 0 3.619-2.607 6.363-7.942 6.363-3.825-.017-6.569-1.286-8.438-3.156M18.353 116.77c0-6.123 4.613-10.257 10.582-10.257 4.34 0 6.878 2.35 8.267 4.854l-3.636 1.784c-.84-1.612-2.624-2.881-4.648-2.881-3.636 0-6.243 2.761-6.243 6.517 0 3.757 2.624 6.518 6.243 6.518 2.024 0 3.808-1.286 4.648-2.882l3.636 1.75c-1.406 2.47-3.927 4.871-8.267 4.871-5.969-.017-10.582-4.168-10.582-10.274M39.724 106.839h4.219v19.845h-4.219zM47.922 126.684v-19.845h14.03v3.722h-9.81v4.15h9.605v3.723h-9.605v4.528h9.81v3.722zM79.207 126.684l-9.45-12.95v12.95h-4.22v-19.845h4.34l9.193 12.452V106.84h4.22v19.845zM91.317 126.684V110.56h-5.798v-3.722h15.832v3.722h-5.78v16.123zM103.563 106.839h4.219v19.845h-4.219zM111.762 126.684v-19.845h14.03v3.722h-9.81v4.15h9.604v3.723h-9.605v8.25zM128.759 106.839h4.219v19.845h-4.219zM135.929 116.77c0-6.123 4.614-10.257 10.583-10.257 4.339 0 6.877 2.35 8.267 4.854l-3.62 1.784c-.84-1.612-2.624-2.881-4.647-2.881-3.637 0-6.244 2.761-6.244 6.517 0 3.757 2.624 6.518 6.244 6.518 2.023 0 3.807-1.286 4.648-2.882l3.619 1.75c-1.407 2.47-3.928 4.871-8.267 4.871-5.97-.017-10.583-4.168-10.583-10.274M164.006 116.77c0-6.277 4.752-10.257 10.583-10.257 4.1 0 6.69 2.076 8.182 4.425l-3.482 1.904c-.926-1.389-2.624-2.59-4.7-2.59-3.636 0-6.243 2.762-6.243 6.518s2.624 6.518 6.243 6.518c1.75 0 3.396-.772 4.202-1.51v-2.384h-5.23v-3.687h9.45v7.615c-2.024 2.264-4.854 3.722-8.422 3.722-5.831-.017-10.583-4.03-10.583-10.274" fill="#3A3A3A"/><path d="m199.768 126.684-1.252-3.362h-8.507l-1.252 3.362h-4.786l7.65-19.845h5.3l7.65 19.845h-4.803Zm-5.488-15.625-3.088 8.541h6.192l-3.104-8.541Z" fill="#3A3A3A" fill-rule="nonzero"/><path fill="#3A3A3A" d="M223.626 126.684v-14.322l-5.591 14.322h-1.852l-5.592-14.322v14.322h-4.22v-19.845h5.918l4.82 12.401 4.82-12.4h5.951v19.844zM231.91 126.684v-19.845h14.048v3.722h-9.828v4.15h9.605v3.723h-9.605v4.528h9.828v3.722zM248.034 123.888l2.315-3.293c1.407 1.458 3.568 2.71 6.312 2.71 2.35 0 3.448-1.046 3.448-2.195 0-3.448-11.424-1.047-11.424-8.508 0-3.293 2.865-6.037 7.53-6.037 3.156 0 5.763.96 7.736 2.761l-2.35 3.156c-1.595-1.492-3.74-2.178-5.763-2.178-1.784 0-2.796.772-2.796 1.972 0 3.122 11.389 1.012 11.389 8.422 0 3.619-2.607 6.363-7.942 6.363-3.859-.034-6.586-1.303-8.455-3.173"/><path d="M266.283.069v.428h-.823V2.66h-.515V.497h-.823V.07h2.161Zm2.796 2.607-.103-1.527c-.017-.206-.017-.446-.017-.72h-.034c-.069.223-.155.532-.223.772l-.463 1.44h-.532l-.463-1.475c-.052-.188-.12-.514-.189-.737h-.034c0 .24-.017.48-.017.72l-.103 1.527h-.498l.189-2.59h.772l.446 1.269c.068.206.103.394.171.652h.017c.069-.223.12-.463.19-.635l.445-1.286h.738l.205 2.59h-.497Z" fill="#000" fill-rule="nonzero"/></g></svg>