<svg width="80" height="80" fill="none" xmlns="http://www.w3.org/2000/svg"><path fill-rule="evenodd" clip-rule="evenodd" d="M5.221 0h36.517a21.98 21.98 0 0 1 6.11.834l.031.009C61.768 4.88 71.712 13.62 78.082 26.578c.327.667 1.042 1.543.305 2.183-.737.642-1.45-.235-2.103-.613-4.052-2.34-8.312-4.071-13.015-4.447-11.853-.949-23.728-.2-35.592-.427-1.422-.026-1.916.67-2.007 2.058-.153 2.362 1.24 2.56 3.033 2.56a8629.86 8629.86 0 0 1 36.337-.015 23.79 23.79 0 0 1 4.514.34 11.229 11.229 0 0 1 9.228 11.209c.008 12.417.008 24.834 0 37.254 0 3.29-.027 3.313-3.366 3.315-10.839.007-21.676.007-32.514 0C26.445 79.986 9.09 68.265 2.877 52.96c-.26-.64-.915-1.413-.32-1.993.752-.732 1.46.15 2.087.525 4.665 2.807 9.65 4.643 15.123 4.69 11.072.095 22.151.064 33.228.09 1.453.003 2.454-.358 2.48-2.135.026-1.907-1.055-2.224-2.6-2.284-10.037-.394-20.076-.119-30.115-.16-3.422-.013-6.84.32-10.267-.051-5.632-.606-10.408-5.368-10.452-11.03-.095-12.485 0-24.973.035-37.46A3.154 3.154 0 0 1 5.22 0Z" fill="url(#a)"/><defs><linearGradient id="a" x1="78.796" y1="50.291" x2="1.617" y2="31.238" gradientUnits="userSpaceOnUse"><stop stop-color="#34BCD5"/><stop offset="1" stop-color="#A1509E"/></linearGradient></defs></svg>