<svg xmlns="http://www.w3.org/2000/svg" viewBox="0 0 400 512"><title>fortuna</title><g id="Layer_2" data-name="Layer 2"><g id="Layer_1-2" data-name="Layer 1"><path d="M400,229A200,200,0,0,0,255,36.68V0H145V36.68A200.07,200.07,0,0,0,0,229c0,80.32,47.59,149.71,116.05,181.5L102.57,482H74v30H326V482H297.43L284,410.5C352.41,378.71,400,309.32,400,229ZM332.25,122.18A170.35,170.35,0,0,1,369.33,214H242.42a45.2,45.2,0,0,0-8.23-14.21L297.64,89.87A170.43,170.43,0,0,1,332.25,122.18ZM175,30h50V45.79l-25,25-25-25ZM152.52,65.73,200,113.21l47.49-47.48a168.94,168.94,0,0,1,24.19,9.11L208.22,184.77a44.26,44.26,0,0,0-16.44,0L128.32,74.85A168.66,168.66,0,0,1,152.52,65.73ZM215,229a15,15,0,1,1-15-15A15,15,0,0,1,215,229ZM68.32,121.47a170.78,170.78,0,0,1,34-31.61l63.46,109.93A45,45,0,0,0,157.58,214H30.67A170.34,170.34,0,0,1,68.32,121.47Zm34.06,246.62A170,170,0,0,1,30.67,244H157.58a45.2,45.2,0,0,0,8.23,14.21ZM133.09,482l11.48-60.82a200.36,200.36,0,0,0,110.86,0L266.91,482ZM200,399a169,169,0,0,1-71.67-15.87l63.45-109.9a44.26,44.26,0,0,0,16.44,0l63.45,109.9A169,169,0,0,1,200,399Zm97.62-30.91L234.19,258.21A45,45,0,0,0,242.42,244H369.33A170,170,0,0,1,297.62,368.09Z"/></g></g></svg>