<svg xmlns="http://www.w3.org/2000/svg" viewBox="0 0 20 20"><defs><style>.cls-1{fill-rule:evenodd;}</style></defs><title>2</title><g id="Layer_2" data-name="Layer 2"><g id="Layer_1-2" data-name="Layer 1"><path class="cls-1" d="M3.5,5A3.75,3.75,0,0,1,3,3,3,3,0,0,1,6,0a4.36,4.36,0,0,1,4,3.11A4.36,4.36,0,0,1,14,0a3,3,0,0,1,3,3,3.75,3.75,0,0,1-.5,2H18a2,2,0,0,1,2,2V9a2,2,0,0,1-2,2v7a2,2,0,0,1-2,2H4a2,2,0,0,1-2-2V11A2,2,0,0,1,0,9V7A2,2,0,0,1,2,5ZM9,7H2V9H9Zm9,2H11V7h7ZM9,18V11H4v7Zm7,0H11V11h5ZM6,2A1,1,0,0,0,5,3C5,4.25,6,4.85,8.43,5,8.16,3.11,7.16,2,6,2Zm5.5,3c.27-1.86,1.27-3,2.43-3a1,1,0,0,1,1,1C14.93,4.25,13.91,4.85,11.5,5Z"/></g></g></svg>