<svg height="512" viewBox="0 0 497 497" width="512" xmlns="http://www.w3.org/2000/svg"><path d="M338.31 357.952S411.363 387.305 411.363 497H85.637c0-109.695 73.053-139.048 73.053-139.048z" fill="#5bd6fd"/><path d="M182.69 357.952h-24S85.637 387.305 85.637 497h24c0-109.695 73.053-139.048 73.053-139.048z" fill="#00c4fc"/><path d="M19.504 26.618h31.385v145.113H19.504zM446.111 26.618h31.385v145.113h-31.385z" fill="#ffa2e7"/><circle cx="66.633" cy="185.793" fill="#f9f097" r="57.731"/><circle cx="430.367" cy="185.793" fill="#f9f097" r="57.731"/><circle cx="248.5" cy="185.793" fill="#5bd6fd" r="181.867"/><path d="M96.633 185.794c0-95.391 73.443-173.618 166.867-181.247-4.948-.404-9.948-.62-15-.62-100.442 0-181.867 81.424-181.867 181.867 0 100.442 81.425 181.867 181.867 181.867 5.052 0 10.053-.216 15-.62-93.424-7.629-166.867-85.857-166.867-181.247z" fill="#00c4fc"/><path d="M117.814 134.175v193.467c0 29.664 24.047 53.711 53.711 53.711h153.95c29.664 0 53.711-24.047 53.711-53.711V134.175z" fill="#77718c"/><path d="M117.814 181.572a50.246 50.246 0 0016.359 2.736h228.654c5.725 0 11.225-.972 16.359-2.736v-47.396H117.814z" fill="#5c586f"/><path d="M362.827 100.315H134.173c-11.31 0-20.479 9.169-20.479 20.479v13.035c0 11.31 9.169 20.479 20.479 20.479h228.654c11.31 0 20.479-9.169 20.479-20.479v-13.035c0-11.31-9.169-20.479-20.479-20.479z" fill="#f9f097"/><ellipse cx="248.527" cy="228.679" fill="#423e4f" rx="19.443" ry="21.757"/><path d="M191.284 223.162a7.5 7.5 0 01-7.5-7.5c0-4.851-3.946-8.797-8.797-8.797s-8.796 3.946-8.796 8.797a7.5 7.5 0 01-15 0c0-13.122 10.675-23.797 23.796-23.797s23.797 10.675 23.797 23.797a7.5 7.5 0 01-7.5 7.5zM336.96 223.162a7.5 7.5 0 01-7.5-7.5c0-4.851-3.946-8.797-8.797-8.797s-8.797 3.946-8.797 8.797a7.5 7.5 0 01-15 0c0-13.122 10.675-23.797 23.797-23.797s23.797 10.675 23.797 23.797a7.5 7.5 0 01-7.5 7.5z" fill="#423e4f"/><path d="M19.504 81.007a56.435 56.435 0 0015.692 2.229c5.445 0 10.706-.788 15.693-2.229V26.618H19.504z" fill="#ff8ce2"/><circle cx="35.196" cy="26.618" fill="#f9f097" r="26.618"/><path d="M446.111 81.007c4.987 1.441 10.248 2.229 15.692 2.229s10.706-.788 15.692-2.229V26.618H446.11v54.389z" fill="#ff8ce2"/><circle cx="461.804" cy="26.618" fill="#f9f097" r="26.618"/><path d="M288.193 427.649H208.86c-17.932 0-32.469 14.537-32.469 32.469V497h144.271v-36.882c.001-17.932-14.536-32.469-32.469-32.469z" fill="#ffa2e7"/><path d="M238.86 427.648h-30c-17.932 0-32.469 14.537-32.469 32.469V497h30v-36.882c0-17.932 14.537-32.47 32.469-32.47z" fill="#ff8ce2"/><path d="M130.892 497v-48.428a7.5 7.5 0 0115 0V497z" fill="#00c4fc"/><g><path d="M351.108 497v-48.428a7.5 7.5 0 0115 0V497z" fill="#00c4fc"/></g><circle cx="248.5" cy="54.143" fill="#f9f097" r="19.47"/></svg>