<svg xmlns="http://www.w3.org/2000/svg" viewBox="0 0 21 21"><defs><style>.cls-1{fill:none;stroke:#374257;stroke-linecap:round;stroke-linejoin:round;}.cls-2{fill:#f6b142;}</style></defs><title>bonus</title><g id="Layer_2" data-name="Layer 2"><g id="Layer_1-2" data-name="Layer 1"><circle class="cls-1" cx="10.5" cy="10.5" r="10"/><path class="cls-2" d="M14,8h-.59a.84.84,0,0,0,.14-.41A1,1,0,0,0,13,6.55a1,1,0,0,0-1.12.19l-.75.67a.78.78,0,0,0-1.16,0l-.75-.67A1,1,0,0,0,8,6.55a1,1,0,0,0-.61,1.07A.84.84,0,0,0,7.57,8H7a.52.52,0,0,0-.52.53v.79a.25.25,0,0,0,.26.26h7.56a.25.25,0,0,0,.26-.26V8.56A.52.52,0,0,0,14,8ZM9.71,7.94V8H8.47A.52.52,0,0,1,8,7.38.54.54,0,0,1,8.25,7a.51.51,0,0,1,.57.09l.89.81Zm3.34-.39a.53.53,0,0,1-.54.48H11.29V7.94h0l.88-.79a.52.52,0,0,1,.88.41Z"/><path class="cls-2" d="M7,10.14V14a.53.53,0,0,0,.53.53H10v-4.4Z"/><path class="cls-2" d="M11,10.14v4.4h2.46A.53.53,0,0,0,14,14V10.14Z"/></g></g></svg>