<svg width="80" height="80" fill="none" xmlns="http://www.w3.org/2000/svg"><path fill-rule="evenodd" clip-rule="evenodd" d="M20 6h60L62.121 74.334h-60l9.092-35.074-5.758 4.536L0 48.028l1.515-5.743 4.243-15.723 1.515-6.048 3.03 4.233 3.636 4.837L20 6Z" fill="#000"/><path fill-rule="evenodd" clip-rule="evenodd" d="M51.82 24.444c-3.032 10.885 5.15 12.397 3.03 20.258-.607 2.722-1.82 3.629-3.334 3.629-1.213 0-1.818-.907-1.213-3.629l.91-3.023h-3.94l-.909 2.722c-1.515 6.046-.302 9.675 3.94 9.675s7.273-3.629 8.788-9.675c3.03-10.886-4.849-12.398-3.031-20.26.91-3.023 1.819-3.93 3.334-3.93 1.212 0 1.818.907.908 3.93l-.302 1.815h3.939l.303-1.512c1.818-6.047.607-9.675-3.636-9.675-4.242 0-7.273 3.628-8.788 9.675Z" fill="#FF0"/><path fill-rule="evenodd" clip-rule="evenodd" d="M22.122 9.023h26.06l-6.06 24.19H15.758l6.364-24.19Zm19.091 26.609-6.062 24.19H8.789l6.364-24.19h26.06Z" fill="#fff"/><path opacity=".2" fill-rule="evenodd" clip-rule="evenodd" d="M50.606 9.023h26.061l-6.062 24.19H44.243l6.364-24.19h-.001Zm19.091 26.609-6.06 24.19H37.273l6.364-24.19h26.06Z" fill="#fff"/><path fill-rule="evenodd" clip-rule="evenodd" d="M32.728 19.909c1.515 0 1.817 1.209 1.211 3.93l-.606 2.42c-.909 3.023-2.121 4.233-3.939 4.233h-1.819l2.728-10.584h2.425Zm-4.546 16.327c2.12 0 2.425 1.21 1.515 4.838l-.91 3.628c-.605 3.025-1.817 3.931-3.333 3.931H23.03l3.03-12.397h2.122Zm6.06-22.072h-6.667L16.97 54.379h6.97c4.546 0 7.576-3.328 9.394-9.677l.91-3.326c.909-4.232.909-7.257-1.212-8.466 2.423-1.512 3.938-3.93 5.15-8.163l.305-1.512c1.515-6.048.302-9.071-4.243-9.071Zm-.909 6.955c0-.303-.302-.605-.605-.605h-1.819l-2.121 9.07h.606c.606 0 1.213 0 1.515-.604.606-.605 1.213-1.513 1.515-3.024l.607-2.116c.302-1.513.302-2.42.302-2.722v.001Zm-3.939 16.327c-.303-.302-.606-.605-1.212-.605h-1.515l-2.728 10.886h1.516c.607 0 .91 0 1.516-.605.302-.302.605-1.21 1.212-2.721l.909-3.629c.303-1.511.606-2.722.303-3.327v.001Zm-1.819-24.189h6.668c2.726 0 4.242.907 5.151 2.72.91 1.815.607 4.235-.303 7.56l-.303 1.512c-.606 2.117-1.212 3.93-2.121 5.14a7.144 7.144 0 0 1-2.424 2.721c.909.908 1.211 1.814 1.211 3.025.304 1.511 0 3.628-.606 5.744l-.909 3.327c-.908 3.325-2.121 5.744-3.636 7.558-1.818 1.815-3.939 2.721-6.364 2.721h-8.181l.302-1.21 10.607-40.214.303-.604h.605Z" fill="#fff"/><path d="M32.728 19.909c1.515 0 1.817 1.209 1.211 3.93l-.606 2.42c-.909 3.023-2.121 4.233-3.939 4.233h-1.819l2.728-10.584h2.425Zm-4.546 16.327c2.12 0 2.425 1.21 1.515 4.838l-.91 3.628c-.605 3.025-1.817 3.931-3.333 3.931H23.03l3.03-12.397h2.122Zm6.06-22.072h-6.667L16.97 54.379h6.97c4.546 0 7.576-3.328 9.394-9.677l.91-3.326c.909-4.232.909-7.257-1.212-8.466 2.423-1.512 3.938-3.93 5.15-8.163l.305-1.512c1.515-6.048.302-9.071-4.243-9.071Z" fill="#2B2A29"/><path fill-rule="evenodd" clip-rule="evenodd" d="m8.181 26.56 5.758 7.862-10 7.863L8.18 26.561Zm19.295 37.524c.884 0 1.549.883 1.328 1.766v.22c.884.221 1.326.883 1.105 1.766-.221 1.105-1.328 1.767-2.212 1.767-.664 0-1.327-.443-1.327-1.105-.442.662-1.328 1.105-1.99 1.105-.886 0-1.55-.662-1.328-1.767.22-.882 1.105-1.545 2.211-1.766v-.22c.221-.883 1.329-1.766 2.213-1.766Z" fill="#FF0"/><path fill-rule="evenodd" clip-rule="evenodd" d="m26.59 70.706-.441-1.766-1.106 1.766h1.548Zm29.2-6.622c.443 0 2.656 2.207 2.213 3.752-.222 1.105-1.106 1.767-2.212 1.767-.664 0-1.106-.443-1.328-1.105-.442.662-1.105 1.105-1.77 1.105-1.105 0-1.769-.662-1.327-1.767.443-1.766 3.761-3.751 4.425-3.751v-.001Z" fill="#FF0"/><path fill-rule="evenodd" clip-rule="evenodd" d="m54.684 70.706-.22-1.766-1.327 1.766h1.547Zm-14.6-.443c-.884 0-3.096-2.206-2.654-4.193.221-.882 1.328-1.765 2.434-1.765.885 0 1.327.44 1.327 1.103.664-.662 1.327-1.103 2.212-1.103.885 0 1.55.882 1.327 1.765-.442 2.207-3.981 4.195-4.645 4.195v-.002Zm-26.103-6.18c.665 1.325 1.329 2.208 2.434 3.312-1.548.882-2.655 1.765-3.982 3.09-.663-1.325-1.326-2.208-2.434-3.09 1.55-1.104 2.656-1.987 3.982-3.311Z" fill="#FF0"/></svg>