<svg width="60" height="60" xmlns="http://www.w3.org/2000/svg"><g fill="none" fill-rule="evenodd"><path fill="#0052B4" d="M0 0h60v60H0z"/><path d="M53.037 26.976h2.515l-2.035 1.478.777 2.392-2.034-1.478-2.035 1.478.777-2.392-2.035-1.478h2.516l.777-2.392.777 2.392Zm-6.592 14.113h3.48l-2.815 2.044 1.075 3.309-2.815-2.045-2.814 2.045 1.075-3.309-2.814-2.044h3.478l1.075-3.309 1.075 3.309Zm.112-22.053h2.997l-2.425 1.762.926 2.85-2.424-1.762-2.425 1.762.926-2.85-2.424-1.762h2.996l.927-2.85.926 2.85Zm-6.48 8.777h3.478l-2.814 2.044 1.075 3.308-2.814-2.044-2.815 2.044 1.075-3.308-2.814-2.044h3.479l1.075-3.309 1.075 3.309Z" fill="#D80027" stroke="#FFF" stroke-width=".5"/><path d="m52.26 25.393-.596 1.833h-1.927l1.56 1.133-.597 1.833 1.56-1.133 1.559 1.133-.596-1.833 1.56-1.133h-1.928l-.595-1.833Zm4.062 1.333-2.51 1.824.958 2.95-2.51-1.823-2.51 1.824.958-2.951-2.51-1.824H51.3l.959-2.951.959 2.95h3.103ZM45.37 38.59l-.893 2.749h-2.89l2.338 1.699-.893 2.75 2.338-1.7 2.34 1.7-.894-2.75 2.339-1.7h-2.891l-.894-2.749Zm5.324 2.249-3.29 2.39 1.256 3.867-3.29-2.39-3.29 2.39 1.257-3.867-3.29-2.39h4.067l1.256-3.868 1.257 3.868h4.067ZM45.63 16.995l-.744 2.291h-2.409l1.95 1.416-.745 2.292 1.949-1.417 1.949 1.417-.745-2.292 1.95-1.416h-2.41l-.744-2.29Zm4.693 1.791-2.9 2.107 1.108 3.41-2.9-2.108-2.9 2.108 1.107-3.41-2.9-2.107h3.585l1.108-3.409 1.107 3.41h3.585Zm-11.321 6.527-.894 2.75h-2.89l2.338 1.699-.893 2.749 2.339-1.7 2.338 1.7-.893-2.75 2.339-1.698h-2.89l-.894-2.75Zm1.256 2.25h4.067l-3.29 2.39 1.257 3.867-3.29-2.39-3.29 2.39 1.256-3.867-3.29-2.39h4.067l1.257-3.868 1.256 3.868Z" fill="#FFF" fill-rule="nonzero"/><path fill="#F0F0F0" d="M30 0v5.73l-4.705 4.705H30v9.13h-6.157L30 25.723V30h-2.78l-7.655-7.656V30h-9.13v-9.108L1.328 30H0v-5.73l4.705-4.704H0v-9.13h6.157L0 4.278V0h2.78l7.655 7.657V0h9.13v9.11L28.672 0z"/><path fill="#D80027" d="M0 17.813h12.188V30h5.625V17.813H30v-5.625H17.813V0h-5.625v12.188H0z"/><path fill="#0052B4" d="M19.565 19.566 30 30v-2.95l-7.484-7.484z"/><path fill="#F0F0F0" d="M19.565 19.566 30 30v-2.95l-7.484-7.484z"/><path d="M19.565 19.566 30 30v-2.95l-7.484-7.484zm-12.081 0L0 27.05V30l10.434-10.434z" fill="#D80027"/><path fill="#0052B4" d="M10.435 10.435 0 0v2.951l7.484 7.484z"/><path fill="#F0F0F0" d="M10.435 10.435 0 0v2.951l7.484 7.484z"/><path d="M10.435 10.435 0 0v2.951l7.484 7.484zm12.081 0L30 2.95V0L19.566 10.434z" fill="#D80027"/></g></svg>