<svg width="120" height="20" xmlns="http://www.w3.org/2000/svg"><g fill="none" fill-rule="evenodd"><g fill-rule="nonzero"><path d="M19.143 19.177a1.6 1.6 0 0 0 .67-1.294V1.646a1.6 1.6 0 0 0-.67-1.294H46.92c.9 0 1.63.702 1.63 1.569v15.688c0 .867-.73 1.568-1.63 1.568H19.143Z" fill="#636567"/><path d="M24.183 9.902a3.214 3.214 0 0 0-.022-.3.768.768 0 0 0-.058-.22.307.307 0 0 0-.116-.137.35.35 0 0 0-.19-.047.322.322 0 0 0-.307.19.68.68 0 0 0-.063.19c-.013.07-.02.139-.02.209v.115h.776Zm-.776.45v.237c0 .088.007.173.02.256a.837.837 0 0 0 .063.22c.03.064.068.115.115.154a.271.271 0 0 0 .176.057c.129 0 .222-.045.28-.137.06-.092.1-.23.122-.418h.681c-.014.345-.106.607-.275.786-.168.18-.434.27-.797.27-.275 0-.49-.046-.643-.138a.853.853 0 0 1-.34-.363 1.43 1.43 0 0 1-.136-.505 6.377 6.377 0 0 1-.024-.561c0-.198.013-.389.041-.572.027-.183.082-.346.165-.49a.895.895 0 0 1 .354-.34c.154-.084.36-.126.616-.126.22 0 .4.035.542.107a.817.817 0 0 1 .332.302c.081.13.136.288.165.473.03.185.044.391.044.618v.17h-1.5Zm3.436-.549v.649h-1.55v-.649h1.55Zm2.815-2.012v.649h-.857v3.276h-.792V8.44h-.858v-.65h2.507Zm-.088.967h.726v.396h.01c.078-.143.171-.257.281-.343a.63.63 0 0 1 .402-.13.897.897 0 0 1 .137.012v.725a2.752 2.752 0 0 0-.236-.01.737.737 0 0 0-.198.027.528.528 0 0 0-.182.09.454.454 0 0 0-.132.165.569.569 0 0 0-.05.25v1.776h-.758V8.758Zm3.21 1.48a.68.68 0 0 1-.164.096 1.067 1.067 0 0 1-.16.052c-.153.033-.263.088-.33.165a.466.466 0 0 0-.098.313.6.6 0 0 0 .066.291c.044.081.117.121.22.121a.554.554 0 0 0 .159-.024.42.42 0 0 0 .264-.223.462.462 0 0 0 .044-.209v-.583Zm-1.385-.572v-.072c0-.172.028-.316.083-.431a.754.754 0 0 1 .223-.28.884.884 0 0 1 .33-.155c.126-.03.26-.046.404-.046.227 0 .41.022.55.065.139.044.247.107.324.187.077.081.129.177.156.289.028.112.042.234.042.366v1.555c0 .14.006.248.019.325.013.077.037.16.074.247h-.726a.629.629 0 0 1-.057-.151 6.242 6.242 0 0 1-.036-.157h-.011c-.088.154-.19.254-.305.3a1.231 1.231 0 0 1-.448.069.744.744 0 0 1-.336-.069.568.568 0 0 1-.22-.19.851.851 0 0 1-.12-.272 1.299 1.299 0 0 1 .005-.66c.03-.1.074-.186.135-.258a.735.735 0 0 1 .23-.179c.094-.047.207-.09.339-.126l.429-.116a.458.458 0 0 0 .236-.12c.044-.052.066-.127.066-.226a.406.406 0 0 0-.08-.267c-.053-.064-.144-.096-.272-.096-.117 0-.205.035-.264.105a.421.421 0 0 0-.088.28v.083h-.682Zm2.65-.908h.726v.347h.011a.77.77 0 0 1 .313-.322.927.927 0 0 1 .44-.101c.242 0 .428.065.558.197.13.132.195.347.195.644v2.193h-.758v-2.04c0-.153-.026-.26-.077-.321-.052-.06-.134-.09-.248-.09-.267 0-.401.162-.401.489v1.962h-.759V8.758Zm3.304 1.99v.1a.46.46 0 0 0 .102.31c.068.079.166.118.294.118.118 0 .211-.029.28-.088.07-.058.105-.146.105-.263 0-.096-.027-.168-.082-.218a.64.64 0 0 0-.193-.118l-.533-.192a1.013 1.013 0 0 1-.473-.31.8.8 0 0 1-.16-.515c0-.12.02-.235.061-.343a.722.722 0 0 1 .193-.284c.088-.08.2-.144.338-.192.137-.048.303-.071.497-.071.345 0 .6.073.764.22.165.146.248.353.248.62v.122h-.682c0-.154-.025-.267-.074-.339-.05-.071-.137-.107-.261-.107a.408.408 0 0 0-.25.08c-.072.053-.108.133-.108.24 0 .072.023.138.07.197.045.059.132.108.26.149l.457.153c.238.081.406.186.505.317.1.13.149.307.149.53a.944.944 0 0 1-.083.41.803.803 0 0 1-.228.288.894.894 0 0 1-.346.165c-.134.033-.281.05-.443.05-.212 0-.39-.02-.53-.06a.774.774 0 0 1-.336-.182.655.655 0 0 1-.173-.294 1.41 1.41 0 0 1-.05-.388v-.104h.682ZM39.4 9.276h-.385v-.517h.385v-.335c0-.132.018-.244.055-.335a.53.53 0 0 1 .157-.22.622.622 0 0 1 .25-.118 1.41 1.41 0 0 1 .33-.036c.135 0 .27.005.407.016v.54a.415.415 0 0 0-.077-.006h-.072c-.106 0-.181.018-.225.055-.044.036-.066.097-.066.181v.258h.44v.517h-.44v2.441H39.4v-2.44Zm2.886.627a3.214 3.214 0 0 0-.022-.3.768.768 0 0 0-.057-.22.307.307 0 0 0-.116-.137.35.35 0 0 0-.19-.047.322.322 0 0 0-.307.19.68.68 0 0 0-.064.19c-.012.07-.019.139-.019.209v.115h.775Zm-.775.45v.237c0 .088.007.173.02.256a.837.837 0 0 0 .063.22c.029.064.067.115.115.154a.271.271 0 0 0 .176.057c.128 0 .222-.045.28-.137.059-.092.1-.23.121-.418h.682c-.015.345-.106.607-.275.786-.168.18-.434.27-.797.27-.275 0-.49-.046-.643-.138a.853.853 0 0 1-.341-.363 1.43 1.43 0 0 1-.135-.505 6.377 6.377 0 0 1-.025-.561c0-.198.014-.389.042-.572.027-.183.082-.346.165-.49a.895.895 0 0 1 .354-.34c.154-.084.36-.126.616-.126.22 0 .4.035.541.107a.817.817 0 0 1 .333.302c.08.13.136.288.165.473.03.185.044.391.044.618v.17h-1.5Zm1.897-1.594h.726v.396h.01c.077-.143.17-.257.28-.343a.63.63 0 0 1 .402-.13.897.897 0 0 1 .138.012v.725a2.752 2.752 0 0 0-.237-.01.737.737 0 0 0-.198.027.528.528 0 0 0-.181.09.454.454 0 0 0-.132.165.569.569 0 0 0-.05.25v1.776h-.758V8.758Z" fill="#FFF"/><path d="M19.1 17.549c0 .87-.706 1.574-1.574 1.574H1.786c-.87 0-1.574-.705-1.574-1.574V1.809C.212.939.917.235 1.787.235h15.739c.868 0 1.574.704 1.574 1.574v15.74" fill="#E2A42E"/><path d="m10.741 9.896-.001-3.392.869-.21v.444s.225-.584.747-.72c.16-.041.241-.016.241-.016v.865s-.197-.009-.455.097c-.32.129-.482.41-.482.84v1.873l-.919.219M6.07 11.01s-.143-.215-.143-.977V8.348l-.451.108V7.76l.452-.107v-.757l.933-.222v.757l.659-.157v.693l-.66.158v1.716c0 .78.206.93.206.93l-.997.238M7.643 8.997c0-.6.085-1.036.267-1.372.216-.398.57-.657 1.087-.775 1.018-.234 1.385.374 1.37 1.188-.004.29-.003.433-.003.433l-1.793.425v.029c0 .57.118.839.476.762.309-.065.395-.26.419-.501.004-.04.006-.138.006-.138l.84-.203s.002.07.001.146c-.008.324-.1 1.127-1.268 1.404-1.106.265-1.402-.416-1.402-1.398m1.391-1.52c-.297.068-.453.362-.46.849l.903-.217c.002-.022.002-.07.002-.147-.002-.367-.115-.56-.445-.485M15.82 7.005c-.034-1.037.232-1.861 1.38-2.123.733-.168 1.01.024 1.15.21.136.177.188.415.188.75l.001.062-.899.215v-.126c0-.397-.108-.548-.394-.476-.34.086-.477.411-.477 1.058l.001.301c0 .657.09.958.48.875.34-.07.387-.371.392-.635l.003-.174.896-.213.001.14c-.002.862-.452 1.405-1.296 1.603-1.162.275-1.39-.403-1.425-1.467M12.66 8.464c0-.786.46-1.034 1.153-1.321.623-.258.636-.386.639-.61.003-.188-.084-.35-.394-.271-.285.072-.36.28-.376.444-.008.089-.005.175-.005.175l-.874.206s-.014-.27.06-.517c.14-.47.555-.786 1.27-.952.929-.214 1.239.194 1.24.829V7.95c0 .727.135.833.135.833l-.858.204s-.08-.166-.115-.309c0 0-.188.473-.835.626-.68.16-1.04-.261-1.04-.84m1.786-1.073s-.178.132-.456.267c-.286.14-.416.313-.416.578 0 .23.143.381.402.317.277-.07.47-.33.47-.69v-.472M1.18 13.363a.546.546 0 0 1-.534-.555.57.57 0 0 1 .086-.303l.006-.007.01-.003 1.26-.308v.992l-.02.005c-.285.071-.627.152-.697.167a.468.468 0 0 1-.11.012M1.18 14.664a.545.545 0 0 1-.534-.554c0-.11.03-.213.086-.302l.006-.01.01-.002 1.26-.309v.993l-.02.005c-.285.072-.627.154-.697.168a.549.549 0 0 1-.11.01M1.18 15.902a.546.546 0 0 1-.534-.554c0-.109.03-.213.086-.302l.006-.01 1.27-.31v.992l-.02.005c-.301.076-.637.154-.697.168a.572.572 0 0 1-.11.011M1.018 12.187V6.784l.99-.232v5.402l-.99.233M3.485 11.742a.612.612 0 0 0-.614-.608.612.612 0 0 0-.615.608v5.053c0 .907.747 1.646 1.664 1.646l1.74-.002.001-2.108v-2.35a.793.793 0 0 0-.357-.663l-1.551-1.042v2.366a.132.132 0 0 1-.264 0l-.004-2.9M4.351 7.95c-.644.149-.888.684-.888.684V8.25l-.898.212.001 2.443a.919.919 0 0 1 .946.165V9.493c0-.378.19-.68.459-.74.203-.044.373.029.373.389v2.302l.946-.221V8.788c0-.59-.228-1.003-.939-.837M17.954 4.508a.59.59 0 0 1 0-1.177.59.59 0 0 1 0 1.177m0-1.103a.515.515 0 1 0 0 1.028.515.515 0 0 0 0-1.028" fill="#1A1919"/><path d="M17.737 3.517h.26c.102 0 .185.048.185.175 0 .088-.042.157-.122.168v.001c.072.007.11.045.114.14.002.044.002.097.005.139.002.033.02.05.035.058h-.132c-.012-.012-.018-.032-.02-.06-.005-.04-.004-.079-.005-.129-.002-.074-.027-.106-.107-.106h-.095v.295h-.118v-.68Zm.21.304c.076 0 .117-.042.117-.111 0-.073-.033-.11-.11-.11h-.1v.22h.094Z" fill="#1A1919"/></g><path d="M53.184 7.18a.422.422 0 0 0 .267-.094.302.302 0 0 0 .12-.251c0-.111-.046-.192-.136-.24a.535.535 0 0 0-.25-.073h-.492v.658h.491Zm.46 1.493-.575-1.034h-.376v1.034h-.637V6h1.15c.124 0 .246.013.365.041.118.028.226.073.323.136a.695.695 0 0 1 .235.256c.06.108.09.242.09.402 0 .18-.051.33-.152.449a.891.891 0 0 1-.381.261l.71 1.128h-.752Zm-2.956-1.305a2.36 2.36 0 0 1 .7-1.676c.216-.213.468-.382.757-.507.29-.125.597-.188.924-.188.328 0 .636.063.925.188.289.125.54.294.757.506a2.36 2.36 0 0 1 .7 1.677c0 .327-.063.633-.189.918a2.376 2.376 0 0 1-2.193 1.431 2.394 2.394 0 0 1-1.681-.684 2.376 2.376 0 0 1-.512-.747 2.26 2.26 0 0 1-.188-.918Zm.376 0c0 .271.053.529.157.772.104.244.247.458.428.643a1.97 1.97 0 0 0 1.42.59 1.967 1.967 0 0 0 1.42-.59c.182-.185.324-.399.429-.643.104-.243.156-.501.156-.772 0-.279-.052-.54-.156-.784a2.012 2.012 0 0 0-.428-.637 2.012 2.012 0 0 0-3.269.637 1.967 1.967 0 0 0-.157.784Z" fill="#616161" fill-rule="nonzero"/><path d="M58.469 8.612V5.78h-1.012v-.577h2.71v.577h-1.01v2.832h-.688Zm2.762 0h-.653v-2.47h.607v.352c.103-.166.197-.275.28-.328a.515.515 0 0 1 .282-.08.83.83 0 0 1 .43.124l-.202.57a.573.573 0 0 0-.307-.107.363.363 0 0 0-.232.075c-.064.05-.114.142-.15.274-.037.131-.055.407-.055.827v.763Zm1.716-1.716-.593-.107c.067-.239.182-.415.344-.53.163-.115.405-.172.726-.172.291 0 .508.034.65.103a.65.65 0 0 1 .302.263c.058.106.087.301.087.585l-.007.762c0 .217.01.377.032.48.02.104.06.214.117.332h-.646a2.403 2.403 0 0 1-.063-.193 1.175 1.175 0 0 0-.023-.077c-.112.109-.231.19-.359.244a1.026 1.026 0 0 1-.406.082c-.255 0-.455-.07-.602-.207a.688.688 0 0 1-.22-.523c0-.14.034-.264.1-.374a.653.653 0 0 1 .28-.25 2.19 2.19 0 0 1 .52-.153c.306-.057.518-.11.635-.16v-.066c0-.125-.03-.215-.093-.268-.062-.054-.179-.08-.35-.08a.468.468 0 0 0-.273.068.477.477 0 0 0-.158.241Zm.874.53a4.084 4.084 0 0 1-.397.1c-.182.039-.3.077-.356.114a.272.272 0 0 0-.128.23c0 .092.034.17.102.237.069.067.155.1.26.1.119 0 .231-.038.338-.116a.41.41 0 0 0 .156-.216 1.29 1.29 0 0 0 .025-.319v-.13Zm3.55 1.186h-.606v-.363a.98.98 0 0 1-.357.315.916.916 0 0 1-.415.104.94.94 0 0 1-.729-.343c-.202-.229-.303-.548-.303-.957 0-.419.098-.737.295-.955a.963.963 0 0 1 .746-.326c.276 0 .515.115.716.344V5.203h.654v3.409Zm-1.743-1.288c0 .263.036.454.11.572a.494.494 0 0 0 .825.064c.105-.128.158-.32.158-.573 0-.284-.051-.488-.154-.613a.486.486 0 0 0-.393-.187.49.49 0 0 0-.39.185c-.104.123-.156.307-.156.552Zm3.818.502.65.11c-.083.238-.215.42-.396.545-.18.124-.406.187-.677.187-.43 0-.747-.14-.954-.421-.162-.225-.244-.509-.244-.851 0-.41.107-.73.321-.962.214-.231.485-.347.812-.347.367 0 .657.121.87.364.212.242.313.614.304 1.115h-1.637c.005.193.057.344.158.452.1.108.226.161.377.161a.4.4 0 0 0 .258-.083.517.517 0 0 0 .158-.27Zm.037-.66c-.005-.19-.053-.333-.146-.432a.45.45 0 0 0-.34-.147.454.454 0 0 0-.353.155.603.603 0 0 0-.137.424h.976Zm1.107.537v-.654h1.283v.654H70.59Zm1.611-1.56h.602v.337c.216-.262.472-.393.77-.393.158 0 .295.032.412.097a.75.75 0 0 1 .286.296 1.14 1.14 0 0 1 .35-.296.861.861 0 0 1 .403-.097c.181 0 .335.037.46.11.126.074.22.182.282.325.045.105.067.276.067.511v1.579h-.653V7.2c0-.245-.023-.403-.068-.475-.06-.093-.153-.14-.279-.14a.445.445 0 0 0-.258.084.464.464 0 0 0-.174.246c-.036.107-.054.278-.054.51v1.186h-.653V7.259c0-.24-.012-.396-.035-.465a.297.297 0 0 0-.108-.156.342.342 0 0 0-.199-.051c-.1 0-.191.027-.272.081a.446.446 0 0 0-.173.235c-.035.102-.052.272-.052.51v1.199H72.2v-2.47Zm4.771.753-.593-.107c.067-.239.182-.415.345-.53.162-.115.404-.172.725-.172.291 0 .508.034.651.103a.65.65 0 0 1 .301.263c.058.106.087.301.087.585l-.007.762c0 .217.01.377.032.48.02.104.06.214.117.332h-.646a2.403 2.403 0 0 1-.063-.193 1.174 1.174 0 0 0-.023-.077c-.112.109-.231.19-.358.244a1.026 1.026 0 0 1-.407.082c-.254 0-.455-.07-.601-.207a.688.688 0 0 1-.22-.523c0-.14.033-.264.1-.374a.653.653 0 0 1 .28-.25 2.19 2.19 0 0 1 .52-.153c.305-.057.517-.11.635-.16v-.066c0-.125-.031-.215-.093-.268-.062-.054-.18-.08-.351-.08a.468.468 0 0 0-.272.068.477.477 0 0 0-.159.241Zm.875.53a4.084 4.084 0 0 1-.398.1c-.181.039-.3.077-.356.114a.272.272 0 0 0-.128.23c0 .092.035.17.103.237.068.067.155.1.26.1.118 0 .23-.038.337-.116a.41.41 0 0 0 .156-.216 1.29 1.29 0 0 0 .026-.319v-.13Zm1.91 1.186h-.652v-2.47h.606v.352c.104-.166.198-.275.28-.328a.515.515 0 0 1 .283-.08.83.83 0 0 1 .43.124l-.202.57a.573.573 0 0 0-.307-.107.363.363 0 0 0-.232.075c-.064.05-.114.142-.15.274-.037.131-.055.407-.055.827v.763Zm1.205 0V5.203h.654v1.81l.765-.87h.804l-.844.902.905 1.567h-.705l-.62-1.11-.305.32v.79h-.654Zm3.844-1.27c0-.217.053-.427.16-.63.107-.203.259-.358.455-.465.196-.107.415-.16.657-.16.373 0 .68.121.918.364.239.242.358.549.358.92 0 .373-.12.682-.361.928a1.222 1.222 0 0 1-.91.369c-.227 0-.443-.051-.648-.154a1.053 1.053 0 0 1-.469-.45 1.499 1.499 0 0 1-.16-.722Zm.67.035c0 .245.058.433.174.563.116.13.26.195.43.195a.55.55 0 0 0 .429-.195c.115-.13.173-.32.173-.567 0-.242-.058-.428-.173-.558a.55.55 0 0 0-.429-.196.554.554 0 0 0-.43.196c-.116.13-.175.317-.175.562Zm2.104-1.234h.362v-.186c0-.208.023-.363.067-.465a.524.524 0 0 1 .244-.25.937.937 0 0 1 .45-.097c.186 0 .368.028.546.084l-.088.456a1.29 1.29 0 0 0-.3-.038c-.095 0-.162.022-.204.067-.04.044-.061.129-.061.254v.175h.488v.513h-.488v1.956h-.654V6.656h-.362v-.513Zm3.178 2.469V5.203h.688v3.409h-.688Zm3.586 0h-.654v-1.26c0-.267-.014-.44-.042-.518a.363.363 0 0 0-.362-.247.524.524 0 0 0-.305.093.469.469 0 0 0-.185.246c-.033.102-.05.292-.05.568v1.118h-.653v-2.47h.607v.363c.215-.279.486-.418.814-.418a.98.98 0 0 1 .395.078c.12.052.21.118.27.198a.72.72 0 0 1 .129.275c.024.102.036.249.036.44v1.534Zm1.795-2.47v.521h-.447v.996c0 .201.004.319.013.352.008.033.028.06.058.082.03.022.067.033.11.033.061 0 .149-.021.263-.063l.056.507a1.299 1.299 0 0 1-.516.098.819.819 0 0 1-.319-.06.465.465 0 0 1-.208-.153.606.606 0 0 1-.092-.255 3.167 3.167 0 0 1-.02-.46V6.663h-.3v-.52h.3v-.491l.655-.381v.872h.447Zm1.883 1.684.651.11c-.084.238-.216.42-.396.545-.181.124-.407.187-.678.187-.43 0-.747-.14-.954-.421-.162-.225-.244-.509-.244-.851 0-.41.107-.73.321-.962.214-.231.485-.347.812-.347.367 0 .657.121.87.364.212.242.313.614.304 1.115H97.07c.005.193.057.344.158.452.1.108.226.161.377.161a.4.4 0 0 0 .258-.083.517.517 0 0 0 .158-.27Zm.037-.66c-.004-.19-.053-.333-.146-.432a.45.45 0 0 0-.34-.147.454.454 0 0 0-.353.155.603.603 0 0 0-.137.424h.976Zm1.807 1.446h-.654v-2.47h.607v.352c.104-.166.198-.275.28-.328a.515.515 0 0 1 .283-.08.83.83 0 0 1 .43.124l-.202.57a.573.573 0 0 0-.307-.107.363.363 0 0 0-.233.075c-.063.05-.113.142-.15.274-.036.131-.054.407-.054.827v.763Zm1.716-1.716-.593-.107c.067-.239.181-.415.344-.53.163-.115.405-.172.725-.172.292 0 .509.034.651.103a.65.65 0 0 1 .302.263c.058.106.087.301.087.585l-.007.762c0 .217.01.377.031.48.021.104.06.214.118.332h-.647a2.403 2.403 0 0 1-.063-.193 1.174 1.174 0 0 0-.023-.077c-.111.109-.23.19-.358.244a1.026 1.026 0 0 1-.407.082c-.254 0-.454-.07-.6-.207a.688.688 0 0 1-.22-.523c0-.14.033-.264.1-.374a.653.653 0 0 1 .28-.25 2.19 2.19 0 0 1 .52-.153c.305-.057.516-.11.634-.16v-.066c0-.125-.031-.215-.093-.268-.062-.054-.179-.08-.351-.08a.468.468 0 0 0-.272.068.477.477 0 0 0-.158.241Zm.874.53a4.084 4.084 0 0 1-.398.1c-.18.039-.3.077-.355.114a.272.272 0 0 0-.128.23c0 .092.034.17.102.237.068.067.155.1.26.1.118 0 .23-.038.338-.116a.41.41 0 0 0 .155-.216 1.29 1.29 0 0 0 .026-.319v-.13Zm3.439-.553-.644.116a.467.467 0 0 0-.148-.29.446.446 0 0 0-.299-.098.488.488 0 0 0-.389.168c-.097.113-.145.3-.145.564 0 .293.049.5.147.62.099.122.23.182.397.182a.44.44 0 0 0 .304-.106c.08-.07.135-.191.168-.363l.641.109c-.066.294-.194.517-.383.667-.19.15-.443.226-.76.226-.362 0-.65-.114-.864-.342-.215-.228-.322-.543-.322-.946 0-.408.107-.725.323-.953.215-.227.507-.34.874-.34.3 0 .54.065.717.194.178.13.305.327.383.592Zm4.004.486.667.211c-.102.372-.272.649-.51.83-.238.18-.54.27-.906.27-.452 0-.825-.155-1.116-.464-.291-.31-.437-.732-.437-1.268 0-.568.146-1.008.44-1.322.292-.314.678-.47 1.155-.47.417 0 .756.122 1.016.369.155.146.271.355.349.628l-.681.162a.723.723 0 0 0-.253-.418.723.723 0 0 0-.466-.154.776.776 0 0 0-.615.272c-.157.182-.236.476-.236.882 0 .43.078.737.233.92a.755.755 0 0 0 .604.275.69.69 0 0 0 .472-.175c.132-.116.226-.299.284-.548ZM111 7.342c0-.217.053-.427.16-.63.107-.203.259-.358.455-.465.196-.107.415-.16.657-.16.373 0 .68.121.918.364.239.242.358.549.358.92 0 .373-.12.682-.361.928a1.222 1.222 0 0 1-.91.369c-.227 0-.443-.051-.648-.154a1.053 1.053 0 0 1-.469-.45 1.499 1.499 0 0 1-.16-.722Zm.67.035c0 .245.058.433.174.563.116.13.26.195.43.195a.55.55 0 0 0 .43-.195c.115-.13.172-.32.172-.567 0-.242-.057-.428-.173-.558a.55.55 0 0 0-.429-.196.554.554 0 0 0-.43.196c-.116.13-.174.317-.174.562Zm3.015 1.235h-.653v-2.47h.607v.352c.104-.166.197-.275.28-.328a.515.515 0 0 1 .282-.08.83.83 0 0 1 .43.124l-.202.57a.573.573 0 0 0-.307-.107.363.363 0 0 0-.232.075c-.064.05-.114.142-.15.274-.036.131-.055.407-.055.827v.763Zm1.21-2.47h.609v.363a.912.912 0 0 1 .77-.418c.286 0 .53.112.73.337.2.225.3.538.3.94 0 .412-.102.732-.303.96a.942.942 0 0 1-.732.344.832.832 0 0 1-.371-.082 1.25 1.25 0 0 1-.35-.279v1.244h-.654V6.143Zm.646 1.193c0 .278.055.483.165.615.11.133.244.2.402.2.152 0 .278-.062.38-.183.1-.122.15-.322.15-.599 0-.259-.052-.451-.156-.577a.482.482 0 0 0-.386-.188.501.501 0 0 0-.397.185c-.106.123-.158.306-.158.547Zm2.28 1.277v-.653h.654v.653h-.653Zm-61.125 2.306h.688v1.846c0 .293.009.483.026.57.03.139.1.25.21.335.111.085.263.127.455.127.195 0 .342-.04.442-.12.099-.08.158-.178.179-.294.02-.116.03-.31.03-.579v-1.885h.688v1.79c0 .41-.019.698-.056.867a.96.96 0 0 1-.206.428 1.04 1.04 0 0 1-.4.278c-.168.069-.387.103-.656.103-.326 0-.573-.037-.74-.112a1.059 1.059 0 0 1-.4-.293.94.94 0 0 1-.193-.378c-.045-.196-.067-.484-.067-.865v-1.818Zm3.209 2.704.655-.1a.48.48 0 0 0 .17.29.574.574 0 0 0 .358.098c.17 0 .296-.031.381-.093a.208.208 0 0 0 .086-.174c0-.05-.015-.091-.046-.124a.52.52 0 0 0-.219-.086c-.527-.116-.86-.222-1.002-.318a.636.636 0 0 1-.293-.556c0-.214.085-.394.254-.54.169-.145.43-.218.786-.218.338 0 .589.055.753.165.164.11.277.273.34.488l-.617.114a.38.38 0 0 0-.15-.22.548.548 0 0 0-.315-.077c-.172 0-.295.024-.37.072a.155.155 0 0 0-.074.132c0 .047.022.086.065.119.06.043.263.105.61.184.349.079.592.176.73.29.136.117.204.279.204.486 0 .227-.094.421-.283.584-.19.163-.47.244-.84.244-.336 0-.602-.068-.799-.205a.943.943 0 0 1-.384-.555Zm4.308-.082.651.11c-.084.238-.216.42-.396.545-.18.125-.407.187-.678.187-.43 0-.747-.14-.953-.42-.163-.226-.245-.51-.245-.852 0-.41.107-.73.321-.961.214-.232.485-.348.812-.348.367 0 .657.121.87.364.212.243.313.614.304 1.115h-1.637c.005.194.057.344.158.452.101.108.227.162.377.162a.4.4 0 0 0 .258-.084.517.517 0 0 0 .158-.27Zm.037-.66c-.004-.19-.053-.333-.146-.431a.45.45 0 0 0-.34-.148.454.454 0 0 0-.353.156.603.603 0 0 0-.137.423h.976Zm3.446 1.446h-.607v-.363a.98.98 0 0 1-.357.316.916.916 0 0 1-.415.103.94.94 0 0 1-.729-.343c-.202-.229-.303-.548-.303-.957 0-.418.098-.736.295-.954a.963.963 0 0 1 .747-.327c.276 0 .514.115.716.344v-1.227h.653v3.408Zm-1.744-1.288c0 .264.037.454.11.572a.494.494 0 0 0 .825.064c.105-.128.158-.319.158-.573 0-.284-.051-.488-.153-.613a.486.486 0 0 0-.393-.187.49.49 0 0 0-.39.185c-.104.123-.157.307-.157.552Zm5.337 1.288v-.37a.994.994 0 0 1-1.265.316.645.645 0 0 1-.286-.306c-.06-.132-.089-.314-.089-.547v-1.562h.654v1.135c0 .347.012.56.036.638.024.078.068.14.131.186a.404.404 0 0 0 .242.068.514.514 0 0 0 .481-.32c.033-.09.049-.312.049-.665v-1.042h.653v2.47h-.606Zm3.53 0h-.654v-1.26c0-.267-.014-.44-.042-.517a.363.363 0 0 0-.363-.248.524.524 0 0 0-.304.093.469.469 0 0 0-.185.246c-.034.103-.05.292-.05.568v1.118h-.654v-2.47h.607v.364c.216-.28.487-.419.814-.419a.98.98 0 0 1 .395.078c.12.052.21.118.271.199a.72.72 0 0 1 .128.274c.024.102.036.249.036.44v1.534Zm2.926 0h-.606v-.363a.98.98 0 0 1-.357.316.916.916 0 0 1-.415.103.94.94 0 0 1-.73-.343c-.202-.229-.303-.548-.303-.957 0-.418.099-.736.296-.954a.963.963 0 0 1 .746-.327c.276 0 .515.115.716.344v-1.227h.653v3.408Zm-1.743-1.288c0 .264.036.454.109.572a.494.494 0 0 0 .825.064c.106-.128.158-.319.158-.573 0-.284-.05-.488-.153-.613a.486.486 0 0 0-.393-.187.49.49 0 0 0-.39.185c-.104.123-.156.307-.156.552Zm3.818.502.65.11c-.083.238-.215.42-.396.545-.18.125-.406.187-.678.187-.429 0-.747-.14-.953-.42-.163-.226-.244-.51-.244-.852 0-.41.107-.73.32-.961.215-.232.485-.348.812-.348.368 0 .657.121.87.364.212.243.314.614.304 1.115H79.87c.004.194.057.344.158.452.1.108.226.162.376.162a.4.4 0 0 0 .258-.084.517.517 0 0 0 .159-.27Zm.037-.66c-.005-.19-.054-.333-.147-.431a.45.45 0 0 0-.34-.148.454.454 0 0 0-.353.156.603.603 0 0 0-.137.423h.977Zm1.806 1.446h-.653v-2.47h.607v.352c.104-.166.197-.275.28-.328a.515.515 0 0 1 .283-.079.83.83 0 0 1 .43.123l-.203.57a.573.573 0 0 0-.307-.107.363.363 0 0 0-.232.076c-.064.05-.114.141-.15.273-.036.132-.055.407-.055.828v.762Zm2.551 0v-3.408h.653v3.408h-.653Zm1.323-2.804v-.604h.653v.604h-.653Zm0 2.804v-2.47h.653v2.47h-.653Zm3.476-1.739-.644.116a.467.467 0 0 0-.148-.29.446.446 0 0 0-.298-.098.488.488 0 0 0-.39.169c-.097.112-.145.3-.145.563 0 .293.05.5.148.621.098.121.23.182.396.182a.44.44 0 0 0 .305-.106c.079-.07.134-.192.167-.364l.642.11c-.067.294-.195.516-.384.666-.19.15-.442.226-.76.226-.361 0-.65-.114-.864-.342-.215-.228-.322-.543-.322-.946 0-.408.108-.725.323-.952.216-.227.507-.34.874-.34.301 0 .54.064.718.193.177.13.305.327.382.592Zm1.925.953.651.11c-.083.238-.215.42-.396.545-.18.125-.407.187-.678.187-.43 0-.747-.14-.953-.42-.163-.226-.244-.51-.244-.852 0-.41.107-.73.32-.961.215-.232.485-.348.812-.348.367 0 .657.121.87.364.212.243.314.614.304 1.115h-1.637c.005.194.058.344.159.452.1.108.226.162.376.162a.4.4 0 0 0 .258-.084.517.517 0 0 0 .158-.27Zm.038-.66c-.005-.19-.054-.333-.147-.431a.45.45 0 0 0-.34-.148.454.454 0 0 0-.353.156.603.603 0 0 0-.137.423h.977Zm3.427 1.446h-.654v-1.26c0-.267-.013-.44-.041-.517a.363.363 0 0 0-.363-.248.524.524 0 0 0-.305.093.469.469 0 0 0-.185.246c-.033.103-.05.292-.05.568v1.118h-.653v-2.47h.607v.364c.215-.28.487-.419.814-.419a.98.98 0 0 1 .395.078c.12.052.21.118.27.199a.72.72 0 0 1 .129.274c.024.102.036.249.036.44v1.534Zm.432-.704.656-.1a.48.48 0 0 0 .17.29.574.574 0 0 0 .358.098c.169 0 .296-.031.381-.093a.208.208 0 0 0 .086-.174c0-.05-.015-.091-.046-.124a.52.52 0 0 0-.219-.086c-.527-.116-.861-.222-1.002-.318a.636.636 0 0 1-.293-.556c0-.214.084-.394.253-.54.17-.145.431-.218.786-.218.338 0 .59.055.754.165.164.11.277.273.34.488l-.617.114a.38.38 0 0 0-.15-.22.548.548 0 0 0-.315-.077c-.172 0-.295.024-.37.072a.155.155 0 0 0-.074.132c0 .047.022.086.065.119.059.043.262.105.61.184s.591.176.73.29c.136.117.204.279.204.486 0 .227-.095.421-.284.584-.189.163-.469.244-.84.244-.336 0-.602-.068-.798-.205a.943.943 0 0 1-.385-.555Zm4.309-.082.65.11c-.083.238-.215.42-.396.545-.18.125-.406.187-.677.187-.43 0-.747-.14-.954-.42-.162-.226-.244-.51-.244-.852 0-.41.107-.73.321-.961.214-.232.484-.348.812-.348.367 0 .657.121.87.364.212.243.313.614.304 1.115h-1.637c.004.194.057.344.158.452.1.108.226.162.377.162a.4.4 0 0 0 .258-.084.517.517 0 0 0 .158-.27Zm.037-.66c-.005-.19-.053-.333-.146-.431a.45.45 0 0 0-.34-.148.454.454 0 0 0-.353.156.603.603 0 0 0-.138.423h.977Z" fill="#636567"/></g></svg>