<svg width="80" height="58" fill="none" xmlns="http://www.w3.org/2000/svg"><path d="M5.18 5.321C8.278 2.096 12.663.161 17.178.032c1.42 0 2.968-.129 4.387.13 2.708.515 5.546 1.547 7.61 3.353.903.903 1.677 1.935 2.451 2.967V.806h8.901v36.507c-.258 4.644-1.419 9.417-4.257 13.158-2.322 2.967-5.805 5.03-9.546 6.063-2.966.774-6.063.903-9.03.903-4.644-.258-9.545-1.032-13.544-3.612-1.29-.774-2.451-1.677-3.612-2.71l5.805-7.74c2.064 1.936 4.386 3.484 7.095 4.516 2.967 1.032 6.191 1.16 9.159.645 2.837-.516 5.675-2.064 7.094-4.773 1.677-3.096 1.548-6.837 1.548-10.32-2.193 3.096-5.934 4.773-9.674 5.289-1.42.258-2.838.129-4.258.129-5.16-.258-10.19-2.838-13.415-6.966C1.569 28.799.279 25.058.02 21.317c0-1.806-.13-3.74.258-5.547.387-3.74 2.064-7.61 4.902-10.449Zm14.061 3.354c-3.482.258-6.836 2.193-8.384 5.29-1.677 3.095-1.935 6.965-.516 10.061 1.16 2.58 3.225 4.644 5.934 5.676 4.515 1.806 10.19.645 13.286-3.354 1.806-2.45 2.451-5.676 2.064-8.643-.258-2.322-1.29-4.644-2.967-6.192-2.58-2.45-6.192-3.225-9.417-2.838Z" fill="#fff"/><path d="M69.938.935a2126.158 2126.158 0 0 0-9.417 26.187A2224.138 2224.138 0 0 0 49.943.935H39.365s6.58 15.222 8.901 20.64l6.58 15.48c.257.645.644 1.29.773 1.935-.903 2.322-1.806 4.644-2.838 6.837-.645 1.29-1.806 2.322-3.096 2.709-2.58.774-5.418.387-7.998-.516-.387 2.838-.774 5.676-1.16 8.643 3.87 1.032 7.868 1.29 11.867.516 2.193-.516 4.386-1.677 5.934-3.354 2.064-2.193 3.225-5.031 4.257-7.74C68.39 31.12 74.195 16.286 80 1.322v-.258H69.938V.935Z" fill="#fff"/></svg>