<svg width="80" height="80" fill="none" xmlns="http://www.w3.org/2000/svg"><path d="m33.134 12.582.054 8.18-18.565 12.783-.045-8.172 18.556-12.791Zm24.679 7.926.054 8.182-6.767 4.655-.045-8.181 6.758-4.656Z" fill="#257C6E"/><path d="m51.054 25.163.045 8.182-17.91-12.582-.055-8.181 17.92 12.582v-.001Z" fill="#005648"/><path d="m3.887 27.266.045 8.172a4.36 4.36 0 0 1-1.044-.984l-.045-8.171c.264.346.609.674 1.045.983h-.001Zm-1.045-.992.046 8.172a2.917 2.917 0 0 1-.6-1.786l-.046-8.172c0 .657.2 1.249.6 1.786Z" fill="#257C6E"/><path d="m32.344 32.533.045 8.173-6.658-4.683-.053-8.172 6.666 4.682Z" fill="#005648"/><path d="m35.569 30.31.045 8.173-3.226 2.223-.044-8.173 3.225-2.223Z" fill="#257C6E"/><path d="m40.655 33.881.045 8.182-5.085-3.582-.046-8.17 5.086 3.571Z" fill="#005648"/><path d="m65.224 35.013.054 8.18-9.473-6.65-.045-8.18 9.465 6.65h-.001Zm-38.311 8.426.045 8.172L3.933 35.44l-.045-8.172 23.025 16.171Z" fill="#257C6E"/><path d="m17.203 43.057.045 8.181-6.131 4.217-.046-8.171 6.132-4.227Z" fill="#257C6E"/><path d="m1.662 50.071.045 8.174a4.39 4.39 0 0 1-1.045-.994l-.045-8.173c.254.365.609.694 1.045.994ZM.609 49.09l.045 8.172a3.025 3.025 0 0 1-.609-1.84L0 47.248c0 .674.2 1.285.609 1.84v.001Z" fill="#007E6E"/><path d="m24.042 50.802.046 8.181-3.925-2.76-.053-8.173 3.932 2.752Zm31.327-15.99.045 8.18-23.206 15.99-.046-8.182L55.37 34.81Z" fill="#257C6E"/><path d="m32.161 50.8.045 8.172c-1.126.776-2.479 1.166-4.069 1.166-1.588 0-2.942-.382-4.05-1.165l-.045-8.173c1.107.775 2.452 1.167 4.05 1.167 1.589 0 2.943-.392 4.07-1.167Z" fill="#257C6E"/><path d="m32.162 50.8.045 8.172c-1.126.776-2.479 1.166-4.069 1.166-.862 0-1.662-.108-2.38-.346l-.045-8.172a7.847 7.847 0 0 0 2.38.347c1.589 0 2.943-.392 4.07-1.167Zm-6.459.829.046 8.172a6.28 6.28 0 0 1-1.416-.655l-.046-8.173a6.65 6.65 0 0 0 1.416.656Z" fill="#257C6E"/><path d="m24.296 50.973.045 8.173c-.082-.055-.173-.11-.254-.174l-.045-8.172c.081.065.163.118.254.173Z" fill="#257C6E"/><path d="m26.268 67.363.045 8.173L1.708 58.253l-.045-8.181 24.605 17.292Z" fill="#007E6E"/><path d="m79.938 35.94.053 8.182-45.577 31.431-.045-8.18L79.938 35.94Z" fill="#257C6E"/><path d="m34.369 67.373.045 8.171c-1.126.776-2.48 1.158-4.069 1.15-1.588-.01-2.933-.393-4.023-1.168l-.046-8.171c1.09.765 2.434 1.156 4.024 1.166 1.589.01 2.942-.374 4.069-1.148Z" fill="#257C6E"/><path d="m34.37 67.374.045 8.172c-1.126.775-2.48 1.158-4.069 1.148a7.801 7.801 0 0 1-2.37-.346l-.045-8.172a7.79 7.79 0 0 0 2.37.347c1.589.008 2.942-.374 4.069-1.149Zm-6.45.8.045 8.173a6.196 6.196 0 0 1-1.407-.647l-.046-8.172c.436.273.91.482 1.408.646Z" fill="#257C6E"/><path d="m26.522 67.527.045 8.172-.245-.163-.046-8.173c.073.054.154.11.246.164Z" fill="#257C6E"/><path d="M79.937 35.94 34.369 67.373c-1.126.774-2.48 1.156-4.07 1.148-1.588-.01-2.933-.392-4.023-1.166L1.662 50.07C.554 49.296 0 48.35.009 47.246c0-1.11.572-2.05 1.69-2.824l8.81-6.067 6.693 4.701-6.13 4.217 15.43 10.841s.037.047.12.102c.262.182 1.016.547 2.742.382 1.79-.164 3.179-1.084 3.252-1.13l32.606-22.466-9.465-6.651 6.758-4.655 17.42 12.244h.002Z" fill="#5BCEAA"/><path d="M79.936 35.943 34.37 67.373c-1.127.774-2.48 1.157-4.069 1.148-1.59-.01-2.934-.392-4.025-1.166L1.662 50.072a2.958 2.958 0 0 1-.181-.137c-.02-.018-.037-.027-.055-.045-.045-.037-.082-.064-.119-.1-.017-.02-.035-.028-.053-.046-.037-.037-.082-.072-.119-.11l-.037-.036c-.053-.045-.099-.1-.144-.145l-.028-.028c-.036-.036-.072-.082-.109-.118C.8 49.288.79 49.27.772 49.26c-.028-.036-.055-.073-.091-.11a2.97 2.97 0 0 1-.662-1.913l.044 8.173a3.024 3.024 0 0 0 .626 1.868c.01.018.03.035.038.045a.958.958 0 0 0 .09.11c.019.017.027.035.046.045.036.037.073.082.108.118l.028.027.145.147c.01.01.028.027.046.035.036.037.082.074.117.11.02.019.037.027.055.045.037.037.082.064.119.1.017.02.035.029.054.047.063.045.118.09.182.137L26.33 75.526c1.09.766 2.435 1.156 4.025 1.165 1.588.01 2.95-.372 4.069-1.146L80 44.114l-.064-8.172Z" fill="url(#a)"/><path d="M14.333 67.119 1.698 58.246a3.194 3.194 0 0 1-.182-.137c-.017-.02-.035-.028-.053-.047a1.1 1.1 0 0 1-.119-.1c-.018-.018-.036-.027-.054-.045-.036-.036-.082-.073-.118-.11-.019-.008-.027-.027-.045-.035-.055-.046-.1-.1-.146-.147L.954 57.6c-.036-.037-.073-.082-.11-.119-.018-.02-.027-.036-.045-.045a.909.909 0 0 0-.09-.11.197.197 0 0 0-.037-.045c-.01-.01-.018-.02-.018-.028a3.025 3.025 0 0 1-.609-1.84L0 47.239c0 .684.209 1.303.626 1.868.01.019.029.037.037.046a.9.9 0 0 0 .09.11c.02.018.028.036.046.045.037.036.073.081.109.118l.028.027.144.146.037.037c.036.036.082.073.118.109.019.019.037.028.054.046.037.037.082.064.119.1.018.018.036.027.055.045.063.046.117.092.18.137l13.143 9.229s-.553 7.827-.453 7.817Z" fill="url(#b)"/><path d="m9.282 39.194 1.218-.838 6.703 4.7.009 1.715 9.745 6.84-.045-8.17L3.887 27.268l.045 8.172 5.35 3.753Z" fill="url(#c)"/><path d="m57.812 20.509-6.758 4.655-17.92-12.582-18.556 12.793 19.037 13.364 7.048-4.857-5.086-3.57-3.225 2.223-6.666-4.684 10.027-6.842 19.665 13.812-23.216 15.98c-1.126.774-2.48 1.166-4.069 1.166-1.59 0-2.943-.382-4.051-1.165l-3.933-2.752 6.794-4.61L3.888 27.268c-1.108-.774-1.653-1.722-1.645-2.816.01-1.102.582-2.04 1.699-2.815l23.924-16.49C28.973 4.382 30.318 4 31.916 4c1.59 0 2.944.382 4.051 1.166l21.845 15.343Z" fill="#58D9B5"/><path d="m65.224 35.013.053 8.18-9.472-6.65-.045-8.18 9.465 6.65h-.001Z" fill="url(#d)"/><path d="M55.368 34.812 32.162 50.801c-1.126.775-2.48 1.167-4.069 1.167-.862 0-1.663-.11-2.38-.347a6.289 6.289 0 0 1-1.417-.655c-.081-.055-.172-.11-.254-.174L20.11 48.05l.045 8.172 3.933 2.761c.08.054.164.118.254.173.436.273.908.491 1.416.655a7.856 7.856 0 0 0 2.38.347c1.59 0 2.953-.392 4.07-1.165l23.205-16-.045-8.18Z" fill="url(#e)"/><path d="M79.936 35.943 34.37 67.373c-1.127.774-2.48 1.157-4.069 1.148-1.59-.01-2.934-.392-4.025-1.166L1.662 50.072a2.958 2.958 0 0 1-.181-.137c-.02-.018-.037-.027-.055-.045-.045-.037-.082-.064-.119-.1-.017-.02-.035-.028-.053-.046-.037-.037-.082-.072-.119-.11l-.037-.036c-.053-.045-.099-.1-.144-.145l-.028-.028c-.036-.036-.072-.082-.109-.118C.8 49.288.79 49.27.772 49.26c-.028-.036-.055-.073-.091-.11a2.97 2.97 0 0 1-.662-1.913l.044 8.173a3.024 3.024 0 0 0 .626 1.868c.01.018.03.035.038.045a.958.958 0 0 0 .09.11c.019.017.027.035.046.045.036.037.073.082.108.118l.028.027.145.147c.01.01.028.027.046.035.036.037.082.074.117.11.02.019.037.027.055.045.037.037.082.064.119.1.017.02.035.029.054.047.063.045.118.09.182.137L26.33 75.526c1.09.766 2.435 1.156 4.025 1.165 1.588.01 2.95-.372 4.069-1.146L80 44.114l-.064-8.172Z" fill="url(#f)"/><path d="M55.368 34.812 32.162 50.801c-1.126.775-2.48 1.167-4.069 1.167-.862 0-1.663-.11-2.38-.347a6.289 6.289 0 0 1-1.417-.655c-.081-.055-.172-.11-.254-.174L20.11 48.05l.045 8.172 3.933 2.761c.08.054.164.118.254.173.436.273.908.491 1.416.655a7.856 7.856 0 0 0 2.38.347c1.59 0 2.953-.392 4.07-1.165l23.205-16-.045-8.18Z" fill="url(#g)"/><path d="m79.938 35.942-45.57 31.431c-1.127.775-2.48 1.157-4.069 1.149-1.589-.01-2.934-.392-4.024-1.166L1.663 50.073C.555 49.298 0 48.351.01 47.248c0-1.111.572-2.05 1.69-2.824l8.81-6.068 6.693 4.702-6.13 4.217 15.43 10.842s.037.046.12.1c.262.184 1.016.547 2.742.383 1.79-.164 3.179-1.084 3.252-1.13l32.607-22.466-9.465-6.651 6.758-4.656 17.42 12.245Z" fill="#58D9B5"/><defs><linearGradient id="a" x1=".002" y1="56.322" x2="79.988" y2="56.322" gradientUnits="userSpaceOnUse"><stop offset=".189" stop-color="#005648"/><stop offset=".414" stop-color="#257C6E"/><stop offset=".685" stop-color="#005648"/></linearGradient><linearGradient id="b" x1=".002" y1="57.185" x2="14.79" y2="57.185" gradientUnits="userSpaceOnUse"><stop offset=".037" stop-color="#079180"/><stop offset=".077" stop-color="#057E6E"/><stop offset=".137" stop-color="#026859"/><stop offset=".194" stop-color="#015B4C"/><stop offset=".246" stop-color="#005648"/><stop offset="1" stop-color="#005648"/></linearGradient><linearGradient id="c" x1="3.883" y1="39.439" x2="26.955" y2="39.439" gradientUnits="userSpaceOnUse"><stop offset=".315" stop-color="#257C6E"/><stop offset=".785" stop-color="#005648"/></linearGradient><linearGradient id="d" x1="55.76" y1="35.776" x2="65.275" y2="35.776" gradientUnits="userSpaceOnUse"><stop stop-color="#005648"/><stop offset=".73" stop-color="#257C6E"/></linearGradient><linearGradient id="e" x1="20.112" y1="47.481" x2="55.417" y2="47.481" gradientUnits="userSpaceOnUse"><stop offset=".06" stop-color="#005648"/><stop offset=".093" stop-color="#095F51"/><stop offset=".189" stop-color="#1D7466"/><stop offset=".252" stop-color="#257C6E"/><stop offset=".397" stop-color="#146B5D"/><stop offset=".538" stop-color="#005648"/></linearGradient><linearGradient id="f" x1=".002" y1="56.322" x2="79.988" y2="56.322" gradientUnits="userSpaceOnUse"><stop offset=".25" stop-color="#005648" stop-opacity="0"/><stop offset=".377" stop-color="#11AA94"/><stop offset=".577" stop-color="#005648" stop-opacity="0"/></linearGradient><linearGradient id="g" x1="20.112" y1="47.481" x2="55.417" y2="47.481" gradientUnits="userSpaceOnUse"><stop stop-color="#005648" stop-opacity="0"/><stop offset=".27" stop-color="#11AA94"/><stop offset=".581" stop-color="#005648" stop-opacity="0"/></linearGradient></defs></svg>