<svg width="411" height="72" xmlns="http://www.w3.org/2000/svg"><path d="M58.249 7.71c-.464.365-.918.741-1.362 1.127C49.301 15.438 44.499 25.155 44.499 36c0 10.844 4.802 20.561 12.388 27.162a37 37 0 0 0 1.362 1.127 37 37 0 0 0 1.362-1.127C67.197 56.561 71.999 46.844 71.999 36c0-10.845-4.802-20.562-12.388-27.163a36.014 36.014 0 0 0-1.362-1.127ZM80.498 0a35.831 35.831 0 0 0-19.929 6.016c.292.239.587.475.87.721A38.78 38.78 0 0 1 74.784 36 38.786 38.786 0 0 1 61.44 65.262c-.282.244-.579.481-.871.721a35.831 35.831 0 0 0 19.929 6.016c19.882 0 36-16.118 36-35.999 0-19.883-16.118-36-36-36ZM55.059 65.262c.281.244.578.481.87.721A35.824 35.824 0 0 1 36 72C16.117 72 0 55.881 0 36 0 16.118 16.117 0 36 0c7.37 0 14.222 2.216 19.929 6.016-.292.239-.587.475-.87.72A38.784 38.784 0 0 0 41.714 36a38.78 38.78 0 0 0 13.345 29.262Zm133.338-29.107c0-4.207 2.754-7.663 7.262-7.663 4.308 0 7.213 3.306 7.213 7.663s-2.905 7.663-7.213 7.663c-4.508 0-7.262-3.455-7.262-7.663Zm19.383 0v-11.97h-5.209v2.904c-1.653-2.153-4.157-3.505-7.563-3.505-6.712 0-11.97 5.259-11.97 12.571 0 7.313 5.258 12.572 11.97 12.572 3.406 0 5.91-1.352 7.563-3.506v2.906h5.209V36.155Zm175.905 0c0-4.207 2.755-7.663 7.263-7.663 4.307 0 7.212 3.306 7.212 7.663s-2.905 7.663-7.212 7.663c-4.508 0-7.263-3.455-7.263-7.663Zm25.211 10.835v.376h.347a.339.339 0 0 0 .189-.047c.047-.031.071-.079.071-.144a.157.157 0 0 0-.071-.139.33.33 0 0 0-.189-.046h-.347Zm.35-.265c.181 0 .321.04.42.121.097.08.146.191.146.329a.384.384 0 0 1-.117.289.565.565 0 0 1-.333.14l.462.532h-.362l-.428-.529h-.138v.529h-.302v-1.411h.652Zm-.089 1.896a1.147 1.147 0 0 0 .83-.347 1.178 1.178 0 0 0 .343-.838c0-.164-.031-.317-.091-.462a1.212 1.212 0 0 0-.252-.376 1.202 1.202 0 0 0-.372-.251 1.146 1.146 0 0 0-.458-.092 1.195 1.195 0 0 0-.846.343 1.176 1.176 0 0 0-.343.838 1.172 1.172 0 0 0 .343.838 1.195 1.195 0 0 0 .846.347Zm0-2.704a1.55 1.55 0 0 1 1.424.929c.081.185.122.381.122.59 0 .209-.041.405-.122.589a1.574 1.574 0 0 1-.823.81 1.494 1.494 0 0 1-.601.121 1.545 1.545 0 0 1-1.107-.45 1.535 1.535 0 0 1-.329-.481 1.444 1.444 0 0 1-.121-.589c0-.209.04-.405.121-.59.08-.185.191-.346.329-.484a1.551 1.551 0 0 1 1.107-.445Zm-6.088-9.762V14.568h-5.209v12.521c-1.653-2.153-4.157-3.505-7.564-3.505-6.712 0-11.97 5.259-11.97 12.571 0 7.313 5.258 12.572 11.97 12.572 3.407 0 5.911-1.352 7.564-3.506v2.906h5.209V36.155Zm-130.677-7.913c3.356 0 5.51 2.103 6.061 5.81h-12.422c.551-3.456 2.655-5.81 6.361-5.81Zm.101-4.658c-7.013 0-11.921 5.108-11.921 12.571 0 7.614 5.108 12.572 12.271 12.572 3.607 0 6.912-.901 9.818-3.355l-2.555-3.858c-2.004 1.604-4.558 2.505-6.963 2.505-3.355 0-6.411-1.553-7.162-5.86h17.781c.05-.652.1-1.302.1-2.004-.05-7.463-4.657-12.571-11.369-12.571Zm62.858 12.571c0-4.207 2.755-7.663 7.263-7.663 4.307 0 7.213 3.306 7.213 7.663s-2.906 7.663-7.213 7.663c-4.508 0-7.263-3.455-7.263-7.663Zm19.384 0v-11.97h-5.209v2.904c-1.652-2.153-4.157-3.505-7.564-3.505-6.711 0-11.97 5.259-11.97 12.571 0 7.313 5.259 12.572 11.97 12.572 3.407 0 5.912-1.352 7.564-3.506v2.906h5.209V36.155Zm-48.785 0c0 7.263 5.059 12.572 12.773 12.572 3.606 0 6.01-.802 8.614-2.855l-2.504-4.207c-1.954 1.403-4.007 2.153-6.261 2.153-4.156-.049-7.212-3.055-7.212-7.663 0-4.608 3.056-7.613 7.212-7.663 2.254 0 4.307.751 6.261 2.154l2.504-4.207c-2.604-2.054-5.008-2.855-8.614-2.855-7.714 0-12.773 5.309-12.773 12.571Zm67.117-12.571c-3.006 0-4.959 1.402-6.311 3.505v-2.904h-5.159v23.942h5.209V34.703c0-3.957 1.703-6.161 5.109-6.161 1.052 0 2.154.15 3.255.601l1.603-4.908c-1.151-.451-2.654-.651-3.706-.651Zm-139.542 2.504c-2.505-1.653-5.961-2.504-9.767-2.504-6.061 0-9.968 2.904-9.968 7.663 0 3.907 2.906 6.311 8.264 7.062l2.455.351c2.855.4 4.207 1.151 4.207 2.504 0 1.853-1.903 2.905-5.459 2.905-3.606 0-6.211-1.152-7.965-2.504l-2.454 4.057c2.856 2.103 6.462 3.105 10.369 3.105 6.912 0 10.918-3.256 10.918-7.813 0-4.208-3.155-6.412-8.364-7.163l-2.454-.351c-2.254-.3-4.057-.751-4.057-2.353 0-1.754 1.703-2.805 4.558-2.805 3.055 0 6.01 1.152 7.463 2.053l2.254-4.207Zm67.166-2.504c-3.005 0-4.958 1.402-6.311 3.505v-2.904h-5.159v23.942h5.209V34.703c0-3.957 1.703-6.161 5.11-6.161 1.051 0 2.153.15 3.255.601l1.603-4.908c-1.152-.451-2.655-.651-3.707-.651Zm-44.427.601h-8.515v-7.263h-5.258v7.263h-4.859v4.758h4.859v10.919c0 5.559 2.153 8.865 8.313 8.865 2.255 0 4.859-.701 6.512-1.853l-1.502-4.457c-1.554.901-3.257 1.352-4.608 1.352-2.605 0-3.457-1.603-3.457-4.008V28.943h8.515v-4.758Zm-77.835 23.942V33.1c0-5.66-3.606-9.466-9.416-9.516-3.055-.05-6.211.901-8.414 4.257-1.653-2.654-4.258-4.257-7.914-4.257-2.555 0-5.059.751-7.012 3.556v-2.955h-5.21v23.942h5.26V34.853c0-4.157 2.304-6.361 5.86-6.361 3.456 0 5.209 2.254 5.209 6.311v13.324h5.259V34.853c0-4.157 2.404-6.361 5.86-6.361 3.556 0 5.259 2.254 5.259 6.311v13.324h5.259Zm-63.056 10.18V56.91h-.364l-.42.961-.42-.961h-.364v1.397h.257v-1.054l.394.909h.267l.393-.911v1.056h.257Zm-2.31 0v-1.159h.467v-.235h-1.19v.235h.468v1.159h.255Z" fill="#FEFEFE" fill-rule="evenodd"/></svg>