<svg xmlns="http://www.w3.org/2000/svg" xmlns:xlink="http://www.w3.org/1999/xlink" width="80" zoomAndPan="magnify" viewBox="0 0 60 60" height="80" preserveAspectRatio="xMidYMid meet" version="1.0"><defs><clipPath id="id1"><path d="M 2.765625 16.980469 L 57.515625 16.980469 L 57.515625 40.980469 L 2.765625 40.980469 Z M 2.765625 16.980469 " clip-rule="nonzero"/></clipPath></defs><g clip-path="url(#id1)"><path fill="#9f00fc" d="M 52.304688 40.980469 L 2.777344 40.980469 L 7.976562 16.980469 L 57.503906 16.980469 Z M 52.304688 40.980469 " fill-opacity="1" fill-rule="nonzero"/></g><path fill="#ffffff" d="M 16.21875 27.1875 L 14.0625 37.242188 L 10.996094 37.242188 L 14.597656 20.71875 L 17.683594 20.71875 L 18.734375 30.40625 L 20.847656 20.71875 L 23.914062 20.71875 L 20.3125 37.242188 L 17.390625 37.242188 Z M 26.464844 20.71875 L 33.621094 20.71875 L 33.03125 23.472656 L 28.960938 23.472656 L 28.074219 27.464844 L 31.96875 27.464844 L 31.355469 30.21875 L 27.480469 30.21875 L 26.53125 34.5 L 30.601562 34.5 L 30.011719 37.253906 L 22.851562 37.253906 Z M 40.726562 26.589844 L 37.046875 37.242188 L 33.90625 37.242188 L 34.714844 20.71875 L 37.804688 20.71875 L 36.753906 31.789062 L 40.757812 20.71875 L 43.1875 20.71875 L 42.355469 31.789062 L 46.109375 20.71875 L 49.296875 20.71875 L 42.894531 37.242188 L 39.75 37.242188 Z M 40.726562 26.589844 " fill-opacity="1" fill-rule="nonzero"/></svg>