<svg width="80" height="80" xmlns="http://www.w3.org/2000/svg"><path d="M34.66 57.105c-.092-.138-.024-.553-.047-.622-.022-.069 0-.253 0-.3 0-.068.046-.091.023-.137-.023-.07-.045-.138-.023-.208.023-.046-.022-.092-.045-.115-.023-.046-.023-.092 0-.16.045-.07.091-.116.114-.208.023-.046.023-.07-.023-.092-.091-.07-.091-.162-.068-.277.022-.092.045-.345 0-.414-.023 0-.023.046-.046.046l-.046-.023-.023.023c-.069.092-.091.184-.183.276-.092.07-.114.115-.183.207a.545.545 0 0 0-.046.185c.023.138-.023.276-.069.414-.068.23-.091.484-.16.714-.046.161-.091.3-.091.46l.938 2.765c-.023-.139-.023-.3-.046-.438l.023-.07c0-.091-.023-.16-.023-.299 0-.207.023-.644 0-.829v-.161c0-.092-.023-.138-.023-.207a.58.58 0 0 1 .046-.23c.023-.093 0-.116 0-.162s0-.069.023-.115l-.023-.023Zm6.18-31.713c0 .23.046.53.16.898-.023.369-.023.668-.023.898-.183 6.15-.297 10.571-.343 13.289-.023 2.372.137 4.86.114 6.794 0 .345-.137.345-.137.69 0 .323.137.646.137.945a573.85 573.85 0 0 1-.137 5.827c-.023.345-.252.207-.252.53-.046 1.589.183 2.994.16 3.73 0 .277-.114.76-.343 1.221-.137.3-.412.645-.435.645.023 0 .069.161.16.484 0 .161-.046.23-.137.23l.069.415c0 .069-.275.276-.07.276h.138v.369l-.068.414c.045 0 .068.07.091.23l-.091.576.16.277.435.368.229.368.206.484-.344.875v1.06c.023.391.046.69.046.875.046.944.137 2.372.252 4.284.069.138-.275 2.141-.229 2.44h-6.455v-.137c-.023 0-.023.023-.023.069l-.137-.07h-.206l-.298.07c0-.046-.183-.115-.55-.23-.045 0-.068.092-.068.299h-.069l-.091-.07c0 .047-.023.07-.069.07h-.137c-.16 0-.367.023-.618.092-.115 0-.298-.161-.573-.484h-.274a1.56 1.56 0 0 1-.504-.092c-.229.115-.366.161-.435.161v-.069c-.48-.069-.71-.16-.71-.276-.022 0-.022.023-.022.092-.206 0-.298-.138-.298-.414h-.229v.299h-.503l.068.161c-.206 0-.389.161-.572.484h-.366l-.344-.07c-.045.047-.137.07-.274.07h-1.305V75c-.092-.046-.275-.092-.572-.161a1.71 1.71 0 0 1-.55.092h-.412l-.412-.092-.023.161-.412-.07c-.046 0-.091.024-.16.07 0-.046-.023-.07-.069-.07h-.068l-.092.07v-.07l-.687.07-.274-.07c-.16.047-.32.07-.481.07-.183 0-.366-.023-.55-.07l-.343.07-.412-.07c-.069.047-.114.07-.16.07a.385.385 0 0 1-.229-.07l-.343.07h-4.075l-.572-.07c0 .047-.023.07-.069.07l-.343-.07h-.069a.368.368 0 0 0-.206.07.385.385 0 0 0-.229-.07h-.412c-.137 0-.275-.022-.435-.091a.924.924 0 0 1-.435.092h-1.785l-.092.069c0-.046-.023-.07-.068-.07h-.344c-.206 0-.526-.022-.961-.091 0 .069-.023.092-.069.092 0-.07-.023-.092-.069-.092h-.686l-.344.092c0-.07-.251-.092-.778-.092-.32 0-.48-.092-.48-.3l-.092.07v-.23h-.23l-.16.16c0-.069-.068-.23-.228-.483h.16c-.046-.323-.114-.576-.206-.76 0-.23 0-.53.023-.898L6 72.236c.069-.875.137-1.312.206-1.312 0-.023-.023-.093-.092-.23v-1.705c0-.115.023-.161.092-.161a20.414 20.414 0 0 1-.092-1.06l.07-.483a.754.754 0 0 1-.07-.23c0-.277.023-.553.07-.83l-.07-.414c0-.046.023-.208.07-.484-.092-.138-.138-.414-.161-.829.023-.3.023-.576.023-.83v-.16l-.023-.139h.366V6.415c.16 0 .23-.093.23-.277l.686-.069c.114 0 .252.046.435.161.091 0 .251-.046.48-.16l.092.068c.206-.046.32-.069.343-.069.138 0 .23.023.298.07l.343-.07h1.374l.343.07c.046-.047.137-.07.275-.07h.915l.367.07c0-.047.023-.07.068-.07l.092.07.343-.07h1.786L15.27 6c0 .046.16.092.503.138.069-.046.115-.069.16-.069l.275.07a.593.593 0 0 1 .16-.07l.344.07.137-.07a1.5 1.5 0 0 0 .687.161l.275-.092c0 .07.023.092.068.092.023 0 .069-.023.16-.092.184.07.298.092.344.092.32-.069.504-.092.55-.092l.228.184h.23v-.184l.274.092h.137l.092-.092c0 .092.16.138.48.161l.206-.069.435.092c.069 0 .16-.046.275-.16 0 .068.023.091.069.091h.16c.069 0 .092-.046.092-.16.251.114.412.16.48.16 0-.115.023-.16.092-.16 0 .16.091.23.274.23.046 0 .07-.047.07-.162a8.93 8.93 0 0 1 .892-.092c.114 0 .16.07.16.23l.343-.069.115.092c.206-.046.366-.069.504-.069h.572l.412.07.023-.162.297.092h.573l.412.07c0-.047.022-.07.068-.07l.344.07.503-.07.275.07a.517.517 0 0 1 .298-.07h.091c.275 0 .48.046.618.162 0-.07.046-.116.16-.162v.23h.16c.184-.16.321-.23.413-.23.892.115 1.373.162 1.442.162.023 0 .023.046.023.138h.229v-.138h.824c.206 0 .457-.023.778-.093a.29.29 0 0 0 .229.093l.206-.093c.16.07.32.093.48.093h.092v.138a.75.75 0 0 1 .435-.138h.137l.206.23h.344v-.161h.068c.07 0 .092.069.092.23h.137c0-.161.046-.23.16-.23l.07-.162h.16c.16.093.228.208.228.346h.092c.091 0 .16-.023.229-.092l.091.092.618-.23v.23h-.091v.069h.16c0-.161.092-.23.275-.23h.068l.344.069.572-.07h.16l.092-.068v.115h.16v-.23h.16v.16c0 .116-.045.162-.16.162v.138c.16 0 .23.046.23.161h.09l.138-.069-.023-.322c.046 0 .069-.023.069-.07.183.162.32.231.435.231.091 0 .137-.046.137-.161.183 0 .298.184.343.576 0 .207.115.345.367.414 0-.115.045-.161.137-.161 0 .483.046.714.16.714-.046.115-.091.437-.137.99.046 0 .069.023.069.07h-.092v.851c.092 0 .16.185.206.576l-.092.07v3.062c-.389 5.413-.572 8.268-.572 8.568l-.023.16h.023c0 .07 0 .093-.023.093l.092.3v.069l-.275.506c0 .161.023.23.092.23h.068l.092-.092c0 .277.069.415.229.415l-.16.415c.023 0 .068.023.16.092 0 .115-.069.184-.23.23v.138l.413-.069h.023v.622h.023Zm-1.97 39.567s0-.023 0 0c0-.023 0-.023 0 0v-.046c-.023-.3-.275-.254-.458-.507l-.023-.023v-.046c-.022 0-.022-.023-.045-.023-.023-.07-.046-.161-.069-.208.046 0 .092 0 .092-.023.022-.138-.023-.23-.023-.322 0-.115-.046-.184-.069-.345-.023-.185-.046-.23-.046-.323 0-.138-.023-.138-.023-.276-.023-.507-.091-.921-.091-1.52 0-.046-.023-.323-.092-.369-.068-.069-.046-.23-.046-.276-.022-.138 0-.161-.022-.207-.07-.116-.023-.185-.046-.277v-.092c0-.253.023-.437 0-.852a3.47 3.47 0 0 0-.046-.507l-.069-.46c-.045-.23-.045-.46-.068-.691v-.115c0-.116-.023-.23-.046-.346 0-.069-.046-.046-.046-.161v-.092s0-.023-.023-.023v-.046c0-.023-.023-.023-.023-.046h.046c.023 0 .046 0 .046-.023.046-.023 0-.093 0-.116 0-.069-.023-.115-.023-.184-.046-.46-.16-1.313-.16-1.888 0-.277-.069-.484-.092-.898 0-.07-.023-.185-.023-.23-.023-.139.046-.438.046-.438 0-.139 0-.254.069-.392.091-.207.114-.391.16-.622.046-.184.046-.391.092-.576.022-.069.045-.16.045-.16l-.045-.024v-.115c.045-.207.068-.414.091-.622 0-.138.023-.276.069-.414.046-.115.091-.23.114-.369.046-.23.023-.46-.023-.69-.023-.162-.091-.323-.114-.507a1.09 1.09 0 0 0-.092-.369l-.091-.207c0-.161-.023-.507-.069-.576-.046-.069-.069-.161-.137-.138-.069.023-.115.023-.16.023-.046 0-.092 0-.115.023-.046.023-.092 0-.137 0-.046 0-.046.046-.069.023-.046 0-.092-.023-.137.023-.046.046-.023.046-.069.115-.046.07.023.161.046.23.023.047.046.185.091.23.046.047.069 0 .138.047.068.046.137.069.137.115.023.07.023.115.046.184.046.185.023.392 0 .576-.023.253 0 .484-.046.737a.85.85 0 0 0 .023.415c.023.046 0 .092-.023.138-.046.092-.092.207-.16.3-.069.091-.115.206-.16.299-.046.092-.07.184-.115.276v.023l-.046-.023s-.068.276-.16.414a1.12 1.12 0 0 1-.252.323c-.068.046-.229.115-.297.023-.023.023-.023.023-.069.046a1.396 1.396 0 0 1-.114-.369.175.175 0 0 0 .045-.092v-.046c0-.046-.023-.115-.023-.16.046 0 .07-.14.07-.185 0-.07.022-.207 0-.277 0-.046-.024-.069-.047-.092h-.045v-.092c0-.023-.023-.046-.046-.092v-.092c0 .023.023.046.023.07 0-.024-.023-.047-.023-.07.023.023.023.07.023.115a.332.332 0 0 0-.046-.161c0-.023 0-.046-.023-.07-.023-.045-.092-.137-.114-.206.045.046.068.069.114.138-.069-.161-.069-.23-.229-.277l.046-.046c-.046.023-.069.023-.115.046.023-.023.023-.046 0-.092.023.115-.251.046-.32.023-.114 0-.183 0-.298-.046l.046.046c-.046 0-.091 0-.114-.046 0 .046.023.07.068.092h-.045.022a.324.324 0 0 0-.137.046c-.046 0-.069 0-.091-.023a.241.241 0 0 0 .068.092c-.068.047-.137.093-.16.185-.023 0-.023.023-.046.023h.046v.023l.046-.046h.046c-.023.069-.07.115-.092.184h-.023.023v.023s-.023 0-.023.023h.023c-.023.046-.046.07-.046.115 0-.023.023-.023.023-.046.023 0 .023-.023.046-.023 0 .023-.023.046-.023.092l.046-.046c.023.23.023.254.091.46h.023c-.023 0-.023 0-.046.024-.022.023 0 .046.023.092.046.069.115.184.138.23.023.046.114.161.16.138v.046c.023.07.046.139.069.185l.023.023c.022.023.045.023.068.023v.023a.713.713 0 0 1 .069.3h-.046v.137s0 .023-.023.046c-.023 0-.023 0-.023.024v.023l-.023.023c-.022.023-.091.023-.137.046-.092.046-.137 0-.206.092a8.44 8.44 0 0 0-.39.115c-.09.023-.16.138-.205.23-.137.254-.115.438-.206.691-.023.092-.046.207-.069.3-.023.046-.023.092-.046.138-.022.046-.068.16-.068.16l.023.024s-.023.07-.023.092c-.069.207-.138.392-.183.599-.023.138-.046.276-.115.391-.069.116-.069.208-.114.346-.023.023-.023.069-.023.092l-3.892-11.561c3.16-1.613 4.99-5.873 5.517-12.829v-2.21c0-5.781-3.113-10.019-9.34-12.713h-.366v.621l-.961-.621H11.7l-.893.621c0-.414-.137-.621-.435-.621l-.48 1.128V29.4c0 .415.16.622.48.622l-.48 1.06v5.504l.48 1.128c-.32 0-.48.185-.48.553.32 0 .48.161.48.507h-.48l.48 1.128-.48 1.129c.32.737.48 1.266.48 1.612 0 .414-.16.622-.48.622l.48 2.763v9.858c0 .368-.16.552-.48.552l.48 1.06v7.208c.092.714.366 1.06.847 1.06h8.08V47.64h1.328l2.335 7.968 2.61 9.12.961.507h10.072l-.939-2.787c.023-.092.023-.161.046-.276.046-.276.092-.714.092-1.083 0-.16-.069-.138-.069-.184.023-.115.069-.276.115-.437.022-.139 0-.323 0-.369 0-.092.045-.599.068-.944v-.023c0-.046.023-.115.023-.161 0-.092.023-.139.023-.139.023-.299.046-.598.229-.806.39.507.275.53.458 1.083.091.391.183.76.252 1.267.022.115.068.207.068.322.023.161.023.414.023.576.023.46.115 1.06.252 1.589.046.138 0 .23 0 .368 0 .162.091.3.114.438.023.322.023.368.138.553.023 0 .023 0 .045-.023 0 .046-.022.092-.022.16v.301l.206.115h.114c.115.092.137.185.183.23a.428.428 0 0 0 .252.116h.069c.16.023.297 0 .389-.046.091.023.16-.023.137-.115ZM27.288 31.656 20.17 26.89a.768.768 0 0 0-.389-.115.764.764 0 0 0-.755.76v9.511c0 .415.343.76.755.76.138 0 .275-.046.39-.092l7.118-4.744a.795.795 0 0 0 .39-.668.738.738 0 0 0-.39-.645Zm46.806-5.536c-.922-6.164-5.877-9.545-14.865-10.12-5.001.138-9.426.253-13.229.368.3 18.192.346 28.496.138 30.888l.369-.138-.438 5.704.369-.138c-.092 1.057-.138 5.45-.138 13.178L57.27 66V50.039c.645-.138 2.789-.345 6.453-.621 5.992-1.012 9.61-4.876 10.832-11.638.507-2.668.576-5.014.23-7.084l-.69-4.576Zm-7.859 7.727-8.228 5.451c-.138.07-.3.115-.437.115a.874.874 0 0 1-.876-.874V27.615a.875.875 0 0 1 1.313-.759l8.251 5.45a.86.86 0 0 1 .438.76.89.89 0 0 1-.46.781Z" fill="#DA291C"/></svg>