<svg xmlns="http://www.w3.org/2000/svg" viewBox="0 0 512 512"><path d="M367.775 19.058c-3.286 0-6.552.113-9.787.33L256.103 492.88c5.862-3.41 255.866-150.2 255.897-329.576 0-79.653-64.572-144.246-144.225-144.246z" fill="#e0230d"/><path d="M357.988 19.388c63.006 5.027 112.805 67.549 112.805 143.916-.031 179.19-209.364 325.867-214.69 329.576-.072.041-.103.062-.103.062S0 344.802 0 163.284C0 83.63 64.572 19.058 144.225 19.058c45.081 0 85.33 20.686 111.775 53.085 24.518-30.04 60.894-50.004 101.988-52.755z" fill="#ff5440"/></svg>