<svg xmlns="http://www.w3.org/2000/svg" width="610" height="585.28"><defs><style>.cls-1{fill:#11aaf8}</style></defs><g id="Слой_2" data-name="Слой 2"><g id="Capa_1" data-name="Capa 1"><path class="cls-1" d="M131.54 137.28a11.91 11.91 0 01-8.27-3.29l-16.17-15.54a10.9 10.9 0 01.29-15.87 12.05 12.05 0 0116.25 0l16.17 15.53a10.92 10.92 0 010 15.88 11.9 11.9 0 01-8.27 3.29zM83.07 90.74a11.92 11.92 0 01-8.28-3.3L24.12 38.78a10.92 10.92 0 010-15.87 12 12 0 0116.53 0l50.68 48.66a10.91 10.91 0 010 15.88 12 12 0 01-8.26 3.29zM494.64 485.91a11.91 11.91 0 01-8.27-3.29l-16.17-15.53a10.91 10.91 0 010-15.89 12 12 0 0116.54 0l16.18 15.53a10.92 10.92 0 010 15.88 12 12 0 01-8.26 3.29zM577.65 565.58a11.86 11.86 0 01-8.27-3.29l-50.67-48.66a10.9 10.9 0 010-15.87 12 12 0 0116.53 0l50.68 48.66a10.92 10.92 0 010 15.88 11.94 11.94 0 01-8.27 3.28zM478.46 137.28A11.47 11.47 0 01466.78 126a11 11 0 013.41-7.92l16.17-15.53a12 12 0 0116.54 0 10.92 10.92 0 010 15.88L486.76 134a11.92 11.92 0 01-8.3 3.28zM526.94 90.74a11.48 11.48 0 01-11.69-11.24 11 11 0 013.42-7.93l50.68-48.66a12 12 0 0116.53-.28 10.91 10.91 0 01.29 15.88l-.28.27-50.68 48.66a11.89 11.89 0 01-8.27 3.3zM115.37 485.91a11.47 11.47 0 01-11.69-11.23 11 11 0 013.42-7.94l16.17-15.53a12 12 0 0116.55 0 10.92 10.92 0 010 15.89l-16.17 15.53a12 12 0 01-8.28 3.28zM32.39 565.58a11.47 11.47 0 01-11.69-11.23 11 11 0 013.42-7.93l50.67-48.66a12 12 0 0116.54-.28 10.91 10.91 0 01.29 15.88l-.29.27-50.68 48.66a11.84 11.84 0 01-8.26 3.29zM598.12 461.9a12 12 0 01-5.72-1.45l-79.24-42.74a11 11 0 01-4.74-15.21 11.94 11.94 0 0115.84-4.5 3.9 3.9 0 01.35.19l79.25 42.72a11 11 0 014.47 15.29 11.76 11.76 0 01-10.21 5.73zM91.11 188.49a12 12 0 01-5.72-1.44L6.14 144.32a11 11 0 01-4.74-15.21 12 12 0 0115.85-4.56l.35.19 79.24 42.74a11 11 0 014.49 15.28 11.78 11.78 0 01-10.22 5.73zM140.36 585.28A11.45 11.45 0 01128.68 574a10.85 10.85 0 011.49-5.48l44.52-76.1a12 12 0 0115.92-4.29 11 11 0 014.47 15.29l-44.51 76.09a11.75 11.75 0 01-10.21 5.73zM425.12 98.46a11.47 11.47 0 01-11.68-11.24 10.92 10.92 0 011.49-5.48l44.5-76.09a12 12 0 0116-4.16 11 11 0 014.44 15.15l-44.56 76.09a11.78 11.78 0 01-10.19 5.73zM11.88 461.9A11.48 11.48 0 01.17 450.68a11.16 11.16 0 016-9.8l79.25-42.73a12 12 0 0116.07 3.74 11 11 0 01-3.89 15.43c-.24.14-.48.27-.73.39L17.6 460.45a12 12 0 01-5.72 1.45zM518.89 188.49a11.46 11.46 0 01-11.69-11.21 11.14 11.14 0 016-9.8l79.24-42.73a12 12 0 0116 4 11 11 0 01-4.19 15.37l-.35.18-79.25 42.73a12 12 0 01-5.72 1.44zM469.64 585.28a11.76 11.76 0 01-10.21-5.73l-44.5-76.09a11 11 0 014.46-15.29 12 12 0 0115.92 4.29l44.51 76.1a11 11 0 01-4.48 15.29 12 12 0 01-5.71 1.43zM184.88 98.46a11.78 11.78 0 01-10.19-5.73l-44.5-76.09a11 11 0 014.61-15.25 12 12 0 0115.78 4.26l44.5 76.09A11 11 0 01190.6 97a12.14 12.14 0 01-5.7 1.43z"/><path d="M250.5 549a15 15 0 01-14.5-18.62l50.72-204.17H150a15 15 0 01-14-20.42l100.27-259.2a15 15 0 0114-9.59h138A15 15 0 01402 58l-59.42 134.81H460a15 15 0 0112.62 23.1l-209.49 326.2A15 15 0 01250.5 549z" fill="#ffe645"/><path d="M460 192.81H342.58L402 58.05a15 15 0 00-13.73-21H315v424.31l157.62-245.45a15 15 0 00-12.62-23.1z" fill="#ffcf2c"/></g></g></svg>