<svg version="1.1" id="Capa_1" xmlns="http://www.w3.org/2000/svg" x="0" y="0" viewBox="0 0 464 464" xml:space="preserve"><style>.st3{fill:#ee2849}.st4{fill:#db493f}.st7{fill:#1f9342}</style><path d="M18.5 71.9h427c10.2 0 18.5 8.3 18.5 18.5v283c0 10.2-8.3 18.5-18.5 18.5h-427C8.3 391.9 0 383.7 0 373.5v-283c0-10.3 8.3-18.6 18.5-18.6z" fill="#faa41b"/><path d="M18.5 71.9h427c10.2 0 18.5 8.3 18.5 18.5v283c0 10.2-8.3 18.5-18.5 18.5h-427C8.3 391.9 0 383.7 0 373.5v-283c0-10.3 8.3-18.6 18.5-18.6z" fill="#f7cd7d"/><path opacity=".66" fill="#d38413" d="M32 296l133.2 59.7V214.3L128 200l-96 96" id="Слой_2"/><path class="st3" d="M100 152c-7.5 0-14.8 3.1-20 8.5-10.8-11.1-28.5-11.3-39.6-.5-11.1 10.8-11.3 28.5-.5 39.6C45.2 205 52.4 208 60 208h40c15.5 0 28-12.5 28-28s-12.5-28-28-28zm-52 28c0-6.6 5.4-12 12-12s12 5.4 12 12v12H60c-6.6 0-12-5.4-12-12zm52 12H88v-12c0-6.6 5.4-12 12-12s12 5.4 12 12-5.4 12-12 12z"/><path class="st4" d="M409 360H177.5c-10.9 0-19.7-8.8-19.7-19.7V126.1c0-10.9 8.8-19.7 19.7-19.7H409c10.9 0 19.7 8.8 19.7 19.7v214.1c0 11-8.8 19.8-19.7 19.8z"/><path d="M32 200h96v96H32v-96z" fill="#eff2fa"/><path class="st3" d="M64 200h32v96H64v-96z"/><path d="M377.4 224c-.5 0-1 .1-1.5.2l9.5-9.5c8.8-8.8 8.8-23.1.1-31.9-2.8-2.8-6.4-4.9-10.2-5.9l2.2-2.2c8.8-8.8 8.8-23.2 0-32s-23.2-8.8-32 0L328 160.2c0-.5.2-1 .2-1.5 0-12.5-10.1-22.6-22.6-22.6-6 0-11.8 2.4-16 6.6l-17.5 17.5c0-.5.2-1 .2-1.5 0-12.5-10.1-22.6-22.6-22.6-6 0-11.8 2.4-16 6.6l-34.8 34.8c-8.8 8.8-8.8 23.2 0 32 4.2 4.2 10 6.6 16 6.6.5 0 1-.1 1.5-.2l-17.5 17.5c-8.8 8.8-8.8 23.2 0 32 4.2 4.2 10 6.6 16 6.6.5 0 1-.1 1.5-.2l-17.5 17.5c-8.8 8.8-8.8 23.2 0 32s23.2 8.8 32 0l10.1-10.2c3.2 12 15.5 19.3 27.5 16.1 3.9-1 7.4-3 10.3-5.9l17.5-17.5c0 .5-.2 1-.2 1.5 0 12.5 10.1 22.6 22.6 22.6 6 0 11.8-2.4 16-6.6l58.8-58.8c8.8-8.8 8.8-23.2 0-32-4.4-4.1-10.2-6.5-16.1-6.5z" fill="#f5f6f7"/><path class="st7" d="M264 208c4.4 0 8 3.6 8 8h16c0-10.1-6.4-19.1-16-22.5V184h-16v9.5c-12.5 4.4-19 18.1-14.6 30.5 3.4 9.6 12.5 16 22.6 16 4.4 0 8 3.6 8 8s-3.6 8-8 8-8-3.6-8-8h-16c0 10.1 6.4 19.1 16 22.5v9.5h16v-9.5c12.5-4.4 19-18.1 14.6-30.5-3.4-9.6-12.5-16-22.6-16-4.4 0-8-3.6-8-8s3.6-8 8-8zM328 224c-4.4 0-8-3.6-8-8s3.6-8 8-8 8 3.6 8 8h16c0-10.1-6.4-19.1-16-22.5V184h-16v9.5c-12.5 4.4-19 18.1-14.6 30.5 3.4 9.6 12.5 16 22.6 16 4.4 0 8 3.6 8 8s-3.6 8-8 8-8-3.6-8-8h-16c0 10.1 6.4 19.1 16 22.5v9.5h16v-9.5c12.5-4.4 19-18.1 14.6-30.5-3.4-9.6-12.4-16-22.6-16z"/></svg>