<svg height="512" viewBox="0 0 497 497" width="512" xmlns="http://www.w3.org/2000/svg"><path d="M369.42 426.16c8.96 18.7 15.32 42.1 15.32 70.84H112.26c0-28.74 6.36-52.14 15.32-70.84z" fill="#ffb78c"/><path d="M452.141 236.267a206.668 206.668 0 002.246-30.38C454.387 92.36 362.026 0 248.5 0S42.613 92.36 42.613 205.887c0 10.321.773 20.463 2.246 30.38z" fill="#c6ade3"/><path d="M268.5.974a207.253 207.253 0 00-20-.974C134.974 0 42.613 92.36 42.613 205.887c0 10.32.773 20.463 2.246 30.38h40a206.668 206.668 0 01-2.246-30.38C82.613 99.108 164.324 11.064 268.5.974z" fill="#b08bd7"/><path d="M439.553 254.603s10.622 35.971-10.477 57.396c-13.075 13.277-22.303 29.988-25.256 48.387-3.351 20.882-16.546 44.49-57.59 50.179H150.77c-41.044-5.689-54.238-29.297-57.59-50.179-2.953-18.399-12.181-35.11-25.256-48.387-21.099-21.425-10.477-57.396-10.477-57.396z" fill="#c6ade3"/><path d="M133.18 360.386c-2.953-18.399-12.181-35.11-25.256-48.387-21.099-21.425-10.477-57.396-10.477-57.396h-40s-10.622 35.971 10.477 57.396C81 325.276 90.227 341.987 93.18 360.386c3.351 20.882 16.546 44.49 57.59 50.179h40c-41.044-5.689-54.238-29.296-57.59-50.179z" fill="#b08bd7"/><circle cx="417.931" cy="236.267" fill="#ffcabd" r="42.126"/><path d="M343.04 388.01c-16.1-16.84-30.72-24.14-30.72-24.14H184.68s-14.62 7.3-30.72 24.14l13.66 28.463 80.88 25.864 77.1-25.864z" fill="#ffb78c"/><path d="M174.214 399.284a146.108 146.108 0 019.746-11.273c16.099-16.839 30.717-24.139 30.72-24.14h-30s-12.007 5.996-26.242 19.653a145.471 145.471 0 00-4.479 4.487z" fill="#ff995d"/><path d="M418.943 205.768a58.026 58.026 0 00-8.524-30.239c-12.603-20.572-43.526-50.901-116.405-51.368-41.811-.268-75.394-12.104-100.985-26.711-32.942-18.802-75.078-7.503-93.536 25.632-14.184 25.463-22.03 54.941-21.401 86.301 1.868 93.199 79.162 167.988 172.374 166.935 93.228-1.054 168.478-76.955 168.478-170.432l-.001-.118z" fill="#ffdcce"/><path d="M108.092 209.384c-.628-31.36 7.217-60.837 21.401-86.301 9.783-17.562 26.217-28.986 44.408-33.05-28.672-6.421-59.383 6.079-74.408 33.05-11.863 21.297-19.27 45.407-21.016 71.072-22.992.318-41.534 19.044-41.534 42.112 0 23.266 18.861 42.126 42.126 42.126 5.496 0 10.066-1.064 13.857-2.979 27.006 60.044 87.817 101.692 157.539 100.904 4.411-.05 8.782-.269 13.106-.648-85.48-7.51-153.726-78.781-155.479-166.286z" fill="#ffcabd"/><path d="M353.856 168.546c-17.077-1.752-36.545.839-55.836 8.352-20.902 8.14-38.035 20.68-49.52 34.862-11.484-14.182-28.618-26.722-49.52-34.862-19.292-7.513-38.759-10.104-55.836-8.352-24.169 2.479-35.408 31.339-19.283 49.511 11.394 12.84 27.486 24.098 46.778 31.612 23.22 9.043 46.693 4.119 65.947-2.531a36.453 36.453 0 0123.827 0c19.255 6.65 42.727 11.574 65.947 2.531 19.292-7.513 35.383-18.771 46.778-31.612 16.126-18.172 4.887-47.031-19.282-49.511z" fill="#ffb78c"/><path d="M176.558 227.421a7.5 7.5 0 01-7.5-7.5v-13.824c0-4.142 3.357-7.5 7.5-7.5s7.5 3.358 7.5 7.5v13.824a7.5 7.5 0 01-7.5 7.5zM320.442 227.421a7.5 7.5 0 01-7.5-7.5v-13.824c0-4.142 3.357-7.5 7.5-7.5s7.5 3.358 7.5 7.5v13.824a7.5 7.5 0 01-7.5 7.5zM248.5 289.322a32.659 32.659 0 01-24.622-11.213 7.5 7.5 0 0111.309-9.856c3.361 3.857 8.214 6.069 13.313 6.069s9.951-2.212 13.313-6.069a7.501 7.501 0 0111.309 9.856 32.66 32.66 0 01-24.622 11.213z" fill="#423e4f"/><path d="M142.26 497c0-28.74 6.36-52.14 15.32-70.84h-30c-6.16 12.856-11.091 27.934-13.571 45.441-1.127 7.958-1.749 16.417-1.749 25.398h30z" fill="#ff995d"/><path d="M369.42 426.16L248.5 471.67l-120.92-45.51a146.704 146.704 0 0126.38-38.15l94.54 35.58 94.54-35.58c9.12 9.52 18.7 22.11 26.38 38.15z" fill="#f9f097"/><path d="M157.58 426.16a146.703 146.703 0 0118.882-29.682l-22.502-8.468a146.53 146.53 0 00-17.063 21.541 146.979 146.979 0 00-9.317 16.609l25.784 9.704a148.597 148.597 0 014.216-9.704z" fill="#fccb88"/><path d="M437.719 78.467l-8.606-12.22a11.126 11.126 0 01-1.338-10.266l5.187-14.018c3.2-8.646-4.904-17.209-13.713-14.489l-14.281 4.409a11.126 11.126 0 01-10.177-1.9l-11.728-9.265c-7.234-5.715-17.882-.654-18.018 8.565l-.22 14.945a11.123 11.123 0 01-4.952 9.091l-12.436 8.291c-7.671 5.114-6.148 16.805 2.578 19.782l14.146 4.827a11.121 11.121 0 017.116 7.519l4.043 14.39c2.494 8.876 14.083 11.04 19.611 3.661l8.962-11.961a11.125 11.125 0 019.35-4.445l14.935.602c9.211.373 14.85-9.98 9.541-17.518z" fill="#f9f097"/></svg>