<svg height="512" viewBox="0 0 497 497" width="512" xmlns="http://www.w3.org/2000/svg"><path d="M458.343 176.001C440.744 76.122 353.347 0 248.5 0S56.256 76.122 38.658 176h419.685z" fill="#ff748f"/><path d="M263.5.526a215.327 215.327 0 00-15-.526C143.653 0 56.256 76.122 38.658 176h30C85.41 80.926 165.409 7.381 263.5.526z" fill="#fd5f7e"/><path d="M449.222 192.859s59.222 183.23-92.005 218.128H139.783c-151.227-34.898-92.005-218.128-92.005-218.128z" fill="#ff748f"/><path d="M77.778 192.859h-30s-59.222 183.23 92.005 218.128h30C18.557 376.089 77.778 192.859 77.778 192.859z" fill="#fd5f7e"/><path d="M334.591 368.644s62.46 39.524 62.46 128.356H99.95c0-88.832 62.46-128.356 62.46-128.356z" fill="#ffdcce"/><path d="M192.409 368.644h-30S99.949 408.167 99.949 497h30c.001-88.833 62.46-128.356 62.46-128.356z" fill="#ffcabd"/><path d="M248.5 106.42c-68.318-73.76-148.097 8.295-148.097 8.295-18.748 28.17-29.681 61.988-29.681 98.364 0 98.184 79.594 177.778 177.778 177.778s177.778-79.594 177.778-177.778c0-36.376-10.934-70.195-29.682-98.365-.063-.065-79.804-82.026-148.096-8.294z" fill="#ffdcce"/><path d="M100.722 213.078c0-36.376 10.934-70.193 29.681-98.364 0 0 29.864-30.712 68.694-37.666-52.316-10.031-98.694 37.666-98.694 37.666-18.748 28.17-29.681 61.988-29.681 98.364 0 98.184 79.594 177.778 177.778 177.778 5.053 0 10.054-.222 15-.636-91.163-7.617-162.778-84.011-162.778-177.142z" fill="#ffcabd"/><path d="M453.834 97.16c-11.374-19.567-36.749-25.774-56.043-13.944L248.5 174.744 99.209 83.215c-19.295-11.829-44.67-5.623-56.043 13.944-10.139 17.443-15.946 37.715-15.946 59.346 0 65.325 52.95 118.275 118.265 118.275 44.194 0 82.718-24.234 103.015-60.135 20.298 35.901 58.821 60.135 103.015 60.135 65.315 0 118.265-52.95 118.265-118.275 0-21.63-5.807-41.902-15.946-59.345z" fill="#77718c"/><path d="M427.706 140.117c-2.583-12.058-16.42-17.854-26.934-11.409l-96.38 59.089c-10.482 6.427-11.638 21.344-2.115 29.122l.191.156c14 11.36 30.959 17.364 49.047 17.364 42.967 0 77.923-34.961 77.923-77.933 0-5.568-.589-11.057-1.732-16.389zM69.294 140.117c2.583-12.058 16.42-17.854 26.934-11.409l96.381 59.089c10.482 6.427 11.638 21.344 2.115 29.122l-.191.156c-14 11.36-30.959 17.364-49.047 17.364-42.967 0-77.923-34.961-77.923-77.933a78.095 78.095 0 011.731-16.389z" fill="#ffdcce"/><path d="M97.562 166.506c0-5.568.589-11.057 1.731-16.389 1.329-6.205 5.642-10.745 10.945-12.819l-14.011-8.59c-10.513-6.445-24.35-.649-26.934 11.409a78.229 78.229 0 00-1.731 16.389c0 39.904 30.148 72.88 68.857 77.388-23.21-13.511-38.857-38.649-38.857-67.388z" fill="#ffcabd"/><path d="M150.945 218.136a7.5 7.5 0 01-7.5-7.5v-17.777a7.5 7.5 0 0115 0v17.777a7.5 7.5 0 01-7.5 7.5zM346.055 218.136a7.5 7.5 0 01-7.5-7.5v-17.777a7.5 7.5 0 0115 0v17.777a7.5 7.5 0 01-7.5 7.5zM248.5 287.86a31.856 31.856 0 01-24.017-10.938 7.5 7.5 0 0111.309-9.855c3.208 3.682 7.84 5.793 12.708 5.793s9.5-2.112 12.709-5.793a7.5 7.5 0 0111.309 9.855A31.86 31.86 0 01248.5 287.86z" fill="#423e4f"/><path d="M321.919 435.278c-7.433 9.073-21.31 9.073-28.743 0l-8.543-10.429c-3.418-4.172-9.799-4.172-13.217 0l-8.543 10.429c-7.433 9.073-21.31 9.073-28.743 0l-8.543-10.429c-3.418-4.172-9.799-4.172-13.217 0l-8.543 10.429c-7.433 9.073-21.31 9.073-28.743 0-5.086-6.209-15.152-2.612-15.152 5.414V497h177.142v-56.308c-.003-8.026-10.069-11.622-15.155-5.414z" fill="#ff748f"/></svg>