<?xml version="1.0" standalone="no"?>
<!DOCTYPE svg PUBLIC "-//W3C//DTD SVG 1.1//EN" "http://www.w3.org/Graphics/SVG/1.1/DTD/svg11.dtd" >
<svg xmlns="http://www.w3.org/2000/svg">
<metadata>Generated by IcoMoon</metadata>
<defs>
<font id="icon-woo" horiz-adv-x="1024">
<font-face units-per-em="1024" ascent="870.4" descent="-153.6" />
<missing-glyph horiz-adv-x="1024" />
<glyph unicode="&#x20;" horiz-adv-x="0" d="" />
<glyph unicode="&#xe900;" glyph-name="bitcoin" d="M847.995 358.765c-26.442 32.148-63.256 54.914-105.271 63.189l-1.152 0.189c49.12 24.192 82.321 73.896 82.321 131.354 0 9.692-0.945 19.164-2.747 28.327l0.152-0.925c-1.832 26.221-9.752 50.253-22.343 71.152l0.4-0.716c-12.708 20.003-29.702 36.202-49.772 47.617l-0.696 0.365c-19.682 11.515-42.445 20.987-66.507 27.233l-1.882 0.415c-24.456 6.336-53.511 11.244-83.256 13.729l-1.956 0.132v155.173h-93.623v-150.747c-16.457 0-40.96-0.402-74.24-1.243v151.991h-93.623v-155.063c-13.531-0.402-33.28-0.622-58.88-0.622l-129.097 0.622v-100.937h67.657c1.785 0.232 3.85 0.365 5.946 0.365 24.586 0 44.908-18.255 48.152-41.95l0.028-0.253v-176.567c0.311 0.006 0.678 0.010 1.045 0.010 2.987 0 5.92-0.23 8.783-0.672l-0.319 0.041h-9.509v-247.333c-0.662-17.535-15.037-31.499-32.673-31.499-0.986 0-1.962 0.044-2.926 0.129l0.125-0.009h-67.291l-19.017-112.603h121.783c7.68 0 18.651 0 33.28-0.256s25.6-0.329 32.914-0.329v-157.074h93.623v155.063c17.189-0.439 41.691-0.622 74.24-0.622v-154.441h93.623v156.891c32.522 1.429 62.988 4.726 92.838 9.829l-4.335-0.613c27.953 4.998 52.743 12.367 76.287 22.135l-2.413-0.887c22.661 9.047 42.158 21.193 59.092 36.17l-0.212-0.184c16.24 15.191 29.428 33.413 38.699 53.795l0.433 1.062c10.244 22.449 17.269 48.508 19.684 75.891l0.065 0.909c1.751 9.471 2.752 20.368 2.752 31.499 0 37.346-11.27 72.060-30.595 100.926l0.414-0.658zM429.252 633.050c2.926 0 10.606 0 24.137 0.293s23.771 0.402 32.549 0.622c0.823 0.007 1.796 0.011 2.77 0.011 11.516 0 22.9-0.562 34.127-1.66l-1.423 0.113c14.161-1.101 26.93-2.851 39.455-5.286l-2.152 0.348c12.833-2.76 23.961-6.249 34.633-10.621l-1.353 0.49c11.305-4.043 21.034-9.911 29.342-17.336l-0.085 0.075c7.607-7.224 13.869-15.778 18.428-25.302l0.223-0.517c4.857-10.083 7.695-21.923 7.695-34.427 0-0.548-0.005-1.095-0.016-1.641l0.001 0.082c0.005-0.329 0.007-0.717 0.007-1.107 0-10.875-2.015-21.28-5.692-30.862l0.199 0.59c-3.618-9.425-9.244-17.378-16.389-23.64l-0.068-0.058c-6.711-5.865-14.118-11.341-21.955-16.189l-0.719-0.414c-8.429-4.959-18.198-8.892-28.558-11.275l-0.699-0.135c-12.069-2.853-22.309-5.12-31.451-6.729-9.697-1.74-21.161-2.959-32.827-3.388l-0.453-0.013c-13.531-0.622-23.771-1.024-30.354-1.243s-16.457 0-28.526 0l-20.846 0.329v188.891zM684.887 214.052c-3.867-9.448-8.917-17.586-15.089-24.725l0.095 0.112c-6.623-7.407-14.498-13.53-23.319-18.074l-0.452-0.212c-7.938-4.353-17.463-8.7-27.31-12.39l-1.581-0.52c-9.388-3.273-20.823-6.253-32.557-8.376l-1.455-0.218c-13.166-2.487-24.503-4.206-34.377-5.266s-21.943-1.829-35.84-2.45-24.503-0.914-32.183-0.914-17.189 0-29.257 0.293-19.017 0.293-22.309 0.293v207.982c3.291 0 12.8 0.219 28.891 0.622s28.891 0.622 39.131 0.622 24.137-0.622 42.057-1.865c16.637-0.951 32.071-2.919 47.151-5.877l-2.168 0.354c15.713-3.377 29.055-7.294 41.987-12.059l-2.125 0.685c13.316-4.486 24.85-10.863 34.971-18.937l-0.229 0.176c9.253-7.775 16.854-17.175 22.433-27.803l0.241-0.504c5.767-11.216 9.147-24.474 9.147-38.522 0-0.304-0.002-0.608-0.005-0.912v0.046c0.009-0.455 0.015-0.991 0.015-1.528 0-10.776-2.156-21.048-6.059-30.41l0.193 0.523z" />
<glyph unicode="&#xe901;" glyph-name="blackjack" d="M996.425 706.853l-326.766 36.937 232.046-568.43c4.181-10.102 6.61-21.833 6.61-34.131 0-38.777-24.14-71.915-58.211-85.207l-0.622-0.214-315.282-123.831 366.299-41.399c0.547-0.036 1.185-0.056 1.829-0.056s1.282 0.020 1.915 0.061l-0.087-0.004c0.024 0 0.052 0 0.080 0 7.319 0 14.056 2.491 19.41 6.672l-0.070-0.053c6.306 4.904 10.606 12.128 11.615 20.369l0.015 0.147 88.795 755.2c0.113 0.989 0.177 2.135 0.177 3.296 0 15.935-12.105 29.044-27.621 30.632l-0.131 0.011zM843.63 152.576l-288.146 705.829c-3.192 7.618-9.113 13.563-16.511 16.71l-0.202 0.076c-3.625 1.556-7.844 2.46-12.275 2.46-4.191 0-8.192-0.809-11.857-2.28l0.214 0.076-495.287-194.487c-11.556-4.49-19.599-15.523-19.599-28.435 0-4.119 0.818-8.047 2.301-11.629l-0.074 0.202 288.146-705.829c3.171-7.631 9.099-13.584 16.511-16.711l0.202-0.076c3.627-1.567 7.85-2.481 12.286-2.487h0.002c0.007 0 0.015 0 0.024 0 4.18 0 8.169 0.819 11.815 2.306l-0.209-0.075 495.287 194.487c11.556 4.49 19.599 15.523 19.599 28.435 0 4.119-0.818 8.047-2.301 11.629l0.074-0.202zM490.167 264.887c-5.682-5.607-13.493-9.070-22.112-9.070-0.031 0-0.061 0-0.092 0h-0.873c-6.51 0-160.914 5.778-210.651 128-4.614 11.134-7.293 24.065-7.293 37.621 0 42.672 26.546 79.143 64.025 93.8l0.685 0.236c11.353 4.602 24.522 7.273 38.314 7.273 7.147 0 14.127-0.717 20.871-2.083l-0.671 0.113c11.545 15.977 27.215 28.316 45.461 35.561l0.692 0.242c11.346 4.629 24.511 7.315 38.303 7.315 42.851 0 79.646-25.932 95.546-62.959l0.258-0.676c49.883-122.331-57.856-230.839-62.574-235.374z" />
<glyph unicode="&#xe902;" glyph-name="live-games" d="M907.871-85.826c-49.866 99.668-133.855 176.078-236.318 214.953l-2.995 0.997v62.616c51.541 2.844 148.708 15.815 205.672 73.69 5.204 5.248 8.42 12.475 8.42 20.453 0 13.36-9.019 24.614-21.301 28.006l-0.204 0.048c-0.872 0.228-75.852 25.79-60.909 178.252 2.758 22.615 4.331 48.797 4.331 75.347 0 34.725-2.692 68.82-7.878 102.090l0.475-3.699c-6.71 51.745-27.541 97.683-58.454 134.959l0.351-0.436c-28.64 31.629-69.856 51.414-115.694 51.414-1.554 0-3.102-0.023-4.644-0.068l0.227 0.005h-5.689c-31.765 26.835-73.175 43.146-118.396 43.146-1.043 0-2.085-0.009-3.124-0.026l0.157 0.002c-32.635-0.339-63.661-6.827-92.105-18.355l1.69 0.605-1.289-0.455c-44.204-14.744-81.11-41.497-107.965-76.388l-0.389-0.526c-44.753-58.899-66.143-146.204-63.526-259.3s-16.156-168.77-32.313-195.432c-5.99-12.428-16.27-21.995-28.877-26.916l-0.364-0.125c-0.584 0.045-1.264 0.071-1.95 0.071-10.293 0-19.237-5.775-23.769-14.262l-0.071-0.145c-2.098-3.94-3.331-8.617-3.331-13.581 0-6.818 2.324-13.093 6.224-18.076l-0.049 0.064c14.595-18.468 32.912-33.326 53.887-43.59l0.915-0.405c45.764-23.217 99.673-37.138 156.755-37.923l0.258-0.003v-59.544c-105.184-40.699-188.786-117.647-237.106-215.179l-1.144-2.554c-1.818-3.701-2.881-8.055-2.881-12.657 0-5.737 1.652-11.089 4.507-15.604l-0.071 0.12c5.337-8.249 14.473-13.643 24.872-13.691h737.666c0.040 0 0.087 0 0.134 0 16.149 0 29.241 13.092 29.241 29.241 0 4.681-1.1 9.104-3.055 13.027l0.077-0.17z" />
<glyph unicode="&#xe903;" glyph-name="new-games" d="M489.992 312.015c-26.045-41.055-41.506-91.056-41.506-144.666 0-101.18 55.070-189.497 136.871-236.614l1.323-0.702c42.663-25.449 94.090-40.495 149.029-40.495 102.891 0 193.457 52.769 246.111 132.72l0.686 1.108c26.038 41.058 41.495 91.058 41.495 144.667 0 101.186-55.062 189.513-136.86 236.648l-1.322 0.704c-42.656 25.428-94.067 40.46-148.99 40.46-102.903 0-193.48-52.768-246.149-132.721l-0.686-1.108zM899.34 206.076c0.556-2.167 0.875-4.654 0.875-7.217 0-5.995-1.748-11.583-4.761-16.281l0.072 0.121c-4.443-7.002-11.354-12.094-19.486-14.080l-0.219-0.045-131.965-31.111c-2.294-0.563-4.929-0.887-7.64-0.887-6.104 0-11.824 1.641-16.744 4.505l0.159-0.084-109.47 64.165c-9.154 5.337-15.208 15.109-15.208 26.294 0 5.96 1.719 11.518 4.688 16.207l-0.073-0.125c5.924 8.996 15.978 14.853 27.4 14.853 6.107 0 11.824-1.674 16.714-4.589l-0.15 0.083 97.959-57.137 119.112 28.074c2.335 0.607 5.015 0.956 7.777 0.956 14.714 0 27.115-9.899 30.907-23.401l0.055-0.226zM408.1 290.051c-2.366 2.578-4.273 5.544-6.815 8.016l-81.22 78.254-81.22-78.324c-28.891-27.467-46.86-66.185-46.86-109.101 0-0.031 0-0.062 0-0.093v0.005-52.017h193.693c-0.953 10.205-1.589 20.517-1.589 30.97 0.101 44.127 8.913 86.167 24.81 124.532l-0.798-2.172zM608.185 878.368h-576.24c-0.311 0.012-0.677 0.017-1.045 0.017-17.065 0-30.899-13.834-30.899-30.899s13.834-30.899 30.899-30.899c0.367 0 0.733 0.007 1.097 0.019l-0.053-0.002h32.029v-113.885c0.017-77.323 32.362-147.089 84.251-196.519l0.111-0.104 62.434-60.244-62.434-60.244c-51.998-49.537-84.342-119.301-84.363-196.62v-113.889h-32.029c-0.311 0.012-0.677 0.017-1.045 0.017-17.065 0-30.899-13.834-30.899-30.899s13.834-30.899 30.899-30.899c0.367 0 0.733 0.007 1.097 0.019l-0.053-0.002h391.022c-9.61 17.588-18.182 38.074-24.617 59.486l-0.597 2.312h-269.756v113.885c0.037 60.139 25.186 114.397 65.527 152.861l0.084 0.080 85.105 82.068c5.749 5.529 9.321 13.286 9.321 21.877s-3.572 16.348-9.309 21.867l-0.010 0.010-85.105 82.032c-40.439 38.535-65.593 92.799-65.612 152.938v113.889h384.172v-113.885c-0.051-60.143-25.212-114.4-65.562-152.861l-0.084-0.080-85.105-82.103c-5.745-5.517-9.315-13.262-9.315-21.842s3.57-16.324 9.304-21.831l0.011-0.010 77.689-74.793c12.272 18.516 25.254 34.673 39.555 49.553l-0.109-0.115-49.015 47.32 62.399 60.315c52.021 49.499 84.381 119.245 84.399 196.55v113.889h31.994c0.677-0.053 1.466-0.083 2.262-0.083 17.065 0 30.899 13.834 30.899 30.899s-13.834 30.899-30.899 30.899c-0.846 0-1.684-0.034-2.512-0.101l0.109 0.007z" />
<glyph unicode="&#xe904;" glyph-name="payments" d="M897.587 418.458h62.157v36.403c0 87.659-71.061 158.72-158.72 158.72v0h-642.304c-53.458 1.257-96.314 44.891-96.314 98.534s42.856 97.277 96.197 98.532l0.117 0.002h706.56c16.57 0 30.003 13.433 30.003 30.003s-13.433 30.003-30.003 30.003v0h-706.56c-87.659 0-158.72-71.061-158.72-158.72v-655.616c0-87.659 71.061-158.72 158.72-158.72v0h642.662c87.659 0 158.72 71.061 158.72 158.72v36.403h-62.157c-104.069 0.116-188.402 84.449-188.518 188.507v0.011c0 103.987 84.531 137.37 188.518 137.37v0zM1024 358.4v-205.875h-126.413c-70.986 0-128.534 57.531-128.563 128.509v0.003c0 71.014 57.6 77.363 128.563 77.363h126.413zM1024 358.4l-167.066 314.931h-698.214c-1.030-0.098-2.228-0.154-3.438-0.154-21.293 0-38.554 17.261-38.554 38.554s17.261 38.554 38.554 38.554c1.21 0 2.408-0.056 3.59-0.165l-0.152 0.011h698.419c19.761-1.822 35.116-18.318 35.116-38.4s-15.354-36.578-34.964-38.389l-0.152-0.011z" />
<glyph unicode="&#xe905;" glyph-name="promotions" d="M278.235 676.571h-44.568c-0.117 0-0.255 0.001-0.393 0.001-43.542 0-80.57-27.894-94.187-66.788l-0.213-0.7c-79.033-11.463-139.066-78.751-139.066-160.061s60.034-148.598 138.194-159.957l0.872-0.104c13.814-39.591 50.832-67.487 94.366-67.487 0.15 0 0.301 0 0.451 0.001h44.545c40.326 0 81.432-1.902 122.441-5.266v465.627c-41.009-3.365-82.115-5.266-122.441-5.266zM133.51 357.035c-39.058 13.036-66.714 49.271-66.714 91.965s27.656 78.929 66.031 91.767l0.683 0.198v-183.93zM454.315 8.29l-23.893 139.752c-45.527 5.222-98.427 8.265-152.012 8.387h-44.742c-2.194 0-4.389 0.244-6.632 0.341l31.11-179.102c8.765-46.55 49.103-81.294 97.555-81.294 0.435 0 0.869 0.003 1.302 0.008l-0.066-0.001c0.472-0.008 1.028-0.013 1.585-0.013 53.565 0 96.987 43.423 96.987 96.987 0 5.359-0.435 10.616-1.27 15.738l0.075-0.56zM957.147 871.619c-0.248 0.003-0.541 0.005-0.835 0.005-36.103 0-65.428-29.021-65.92-65.007v-715.188c0-36.895 29.909-66.804 66.804-66.804s66.804 29.909 66.804 66.804v0 715.191c-0.519 36.012-29.833 65.006-65.92 65.006-0.328 0-0.655-0.002-0.982-0.007l0.049 0.001zM467.432 688.957v-479.866c132.851-17.707 252.972-49.169 366.661-93.491l-10.699 3.672v659.7c-102.998-40.729-223.115-72.242-347.89-89.075l-8.072-0.891z" />
<glyph unicode="&#xe906;" glyph-name="search" d="M958.629-66.796l-263.168 280.97c67.111 69.159 108.702 164.47 108.702 269.548 0 210.55-166.833 381.952-371.791 381.952-205.036 0-371.87-171.402-371.87-381.952 0-210.629 166.833-381.952 371.87-381.952 89.954 0 172.505 33.083 236.938 87.906l263.719-281.758c3.466-3.702 8.113-5.593 12.761-5.593 4.411 0 8.822 1.733 12.288 5.12 7.010 6.932 7.247 18.432 0.551 25.758zM432.372 138.162c-185.58 0-336.423 155.018-336.423 345.561s150.843 345.561 336.423 345.561c185.423 0 336.345-155.018 336.345-345.561s-150.922-345.561-336.345-345.561z" />
<glyph unicode="&#xe907;" glyph-name="close" d="M1020.858-100.189l-24.204-24.204-484.631 484.166-484.631-484.166-24.25 24.204 484.631 484.212-484.631 484.166 24.25 24.204 484.631-484.166 484.631 484.166 24.204-24.204-484.631-484.166 484.631-484.212z" />
<glyph unicode="&#xe908;" glyph-name="roulette" d="M511.671 896h-0.018c0.116 0 0.231 0 0.347 0 282.77 0 512-229.23 512-512v0c0-282.77-229.23-512-512-512s-512 229.23-512 512c0 282.654 229.043 511.813 511.671 512zM766.867 763.099l1.557-1.004c-49.273 33.64-105.545 57.784-169.055 70.27l-11.447-57.051 2.53-0.421c52.931-10.55 102.067-31.626 143.756-60.069l32.658 48.238zM423.936 832.402l-2.872-0.474c-60.681-12.020-116.991-36.189-164.735-68.865l32.293-48.457-1.372-0.883c43.057 29.362 92.191 50.474 147.658 61.482l-10.971 57.161zM132.389 639.086l1 1.549c-33.685-49.258-57.866-105.53-70.376-169.046l57.125-11.447 0.42 2.527c10.54 52.935 31.618 102.073 60.069 143.759l-48.238 32.622zM180.773 161.024l0.881-1.367c-29.391 43.049-50.527 92.181-61.553 147.653l-57.198-10.971 0.479-2.878c12.087-60.592 36.301-116.809 69.007-164.473zM256.476 5.010l-1.549 1c49.248-33.673 105.508-57.842 169.010-70.34l11.447 57.051-2.53 0.42c-52.929 10.542-102.065 31.605-143.756 60.032l-32.622-48.201zM599.406-64.293l2.858 0.47c60.693 11.965 117.010 36.115 164.748 68.797l-32.293 48.457 1.371 0.883c-43.054-29.374-92.187-50.498-147.656-61.518l10.971-57.125zM890.953 129.024l-0.998-1.545c33.678 49.23 57.848 105.48 70.338 168.969l-57.088 11.447-0.42-2.527c-10.54-52.935-31.618-102.073-60.069-143.759l48.238-32.622zM960.439 471.845l-0.479 2.878c-12.085 60.593-36.3 116.81-69.007 164.473l-48.494-32.256-0.879 1.362c29.401-43.037 50.529-92.175 61.514-147.648zM738.524 384.841c-0.042 29.573-24.004 53.536-53.573 53.577h-0.004c-13.481-0.063-25.763-5.143-35.087-13.467l0.052 0.046h-69.486c-7.167 12.199-17.058 22.090-28.88 29.052l-0.377 0.206v69.486c8.289 9.387 13.349 21.796 13.349 35.386 0 29.59-23.987 53.577-53.577 53.577s-53.577-23.987-53.577-53.577c0-13.59 5.060-25.998 13.399-35.444l-0.050 0.058v-69.486c-12.204-7.161-22.097-17.053-29.052-28.88l-0.205-0.377h-69.486c-9.377 8.266-21.764 13.312-35.331 13.312-29.57 0-53.541-23.971-53.541-53.541s23.971-53.541 53.541-53.541c13.566 0 25.954 5.046 35.389 13.363l-0.059-0.051h69.486c7.178-12.191 17.066-22.079 28.88-29.051l0.377-0.206v-69.486c-8.268-9.275-13.337-21.559-13.385-35.025v-0.010c0-29.59 23.987-53.577 53.577-53.577s53.577 23.987 53.577 53.577v0c-0.048 13.477-5.117 25.761-13.431 35.088l0.046-0.053v69.486c12.183 7.189 22.068 17.074 29.051 28.88l0.207 0.377h69.486c9.272-8.274 21.557-13.344 35.027-13.385h0.009c0.011 0 0.024 0 0.037 0 29.61 0 53.614 24.004 53.614 53.614 0 0.039 0 0.077 0 0.116v-0.006zM336.713 358.071c-14.785 0-26.77 11.985-26.77 26.77s11.985 26.77 26.77 26.77c14.785 0 26.77-11.985 26.77-26.77v0c-0.042-14.761-12.007-26.713-26.768-26.734h-0.002zM510.83 585.618c14.769-0.021 26.734-11.998 26.734-26.77 0-14.785-11.985-26.77-26.77-26.77s-26.77 11.985-26.77 26.77v0c0 14.805 12.002 26.807 26.807 26.807v0zM510.83 184.064c-14.769 0.021-26.734 11.998-26.734 26.77 0 14.785 11.985 26.77 26.77 26.77s26.77-11.985 26.77-26.77v0c-0.042-14.774-12.027-26.734-26.807-26.734 0 0 0 0 0 0v0zM510.83 331.301c-29.59 0-53.577 23.987-53.577 53.577s23.987 53.577 53.577 53.577c29.59 0 53.577-23.987 53.577-53.577 0-0.013 0-0.026 0-0.039v0.002c-0.062-29.55-24.021-53.483-53.575-53.504h-0.002zM684.947 358.071c-14.769 0.021-26.734 11.998-26.734 26.77 0 14.785 11.985 26.77 26.77 26.77s26.77-11.985 26.77-26.77v0c-0.021-14.769-11.998-26.734-26.77-26.734-0.013 0-0.026 0-0.039 0h0.002zM180.992 387.328c0-0.054 0-0.119 0-0.183 0-182.629 148.050-330.679 330.679-330.679s330.679 148.050 330.679 330.679c0 182.629-148.050 330.679-330.679 330.679v0c-182.493-0.146-330.408-147.984-330.679-330.433v-0.026zM207.47 387.328c0 0.065 0 0.142 0 0.219 0 168.006 136.195 304.201 304.201 304.201s304.201-136.195 304.201-304.201c0-168.006-136.195-304.201-304.201-304.201v0c-167.883 0.145-303.951 136.15-304.201 303.994v0.024z" />
<glyph unicode="&#xe909;" glyph-name="top-games" d="M0 624.238h1023.707v-678.802h-1023.707v678.802zM65.829 656.603l0.116 0.013c-0.999-0.136-2.019-0.206-3.055-0.206-10.556 0-19.407 7.295-21.82 17.272l0.036 0.149c2.493 8.942 10.697 15.503 20.434 15.503 1.518 0 3-0.16 4.289-0.438l891.728-0.025c1.428 0.303 2.909 0.463 4.428 0.463 9.737 0 17.942-6.561 20.47-15.652l-0.031-0.153c-2.381-9.824-11.233-17.119-21.788-17.119-1.036 0-2.056 0.070-2.939 0.194h-891.648zM132.059 721.225c-11.374 0-32.987-10.862-32.914 0l0.092 0.341c4.783 15.331 17.027 27.37 32.823 31.952h759.552c11.374 0 28.891 9.728 28.891-1.243l-0.049-0.271c-3.192-14.71-14.251-26.488-28.842-30.778h-759.515zM198.107 785.883l-0.438 0.269c-12.711 8.329-23.674 19.106-32.476 32.060l-0.251 0.103c5.089-2.327 10.747-3.623 16.708-3.623s11.619 1.297 16.457 3.52h627.456c11.264 0 32.914 10.971 32.914 0l-0.092-0.342c-4.79-15.335-17.029-27.381-32.822-31.987h-627.419zM717.458 304.603c5.765 5.748 9.332 13.698 9.332 22.481 0 3.494-0.564 6.855-1.607 9.999l0.064-0.224c-3.523 11.233-13.033 19.569-24.699 21.337l-0.17 0.021-104.082 15.433c-4.562 0.726-8.321 3.614-10.241 7.562l-0.036 0.081-46.519 96.183c-5.001 10.446-15.488 17.533-27.63 17.533s-22.629-7.086-27.55-17.349l-0.079-0.184-46.555-96.183c-1.951-4.033-5.712-6.924-10.199-7.633l-0.078-0.010-104.082-15.433c-11.84-1.804-21.349-10.151-24.81-21.177l-0.059-0.218c-0.992-2.928-1.565-6.301-1.565-9.808 0-8.765 3.577-16.695 9.352-22.409l0.003-0.003 75.301-74.898c2.557-2.555 4.139-6.086 4.139-9.986 0-0.813-0.069-1.61-0.201-2.385l0.012 0.083-17.81-105.728c-0.317-1.674-0.498-3.599-0.498-5.567 0-7.639 2.73-14.641 7.268-20.083l-0.041 0.050c5.696-6.853 14.222-11.184 23.759-11.184 5.218 0 10.134 1.296 14.442 3.585l-0.167-0.081 93.074 49.957c1.836 0.977 4.014 1.551 6.327 1.551s4.491-0.574 6.401-1.587l-0.074 0.036 93.111-49.957c4.142-2.292 9.080-3.646 14.333-3.657h0.003c9.531 0.038 18.030 4.427 23.618 11.282l0.044 0.056c4.5 5.383 7.232 12.379 7.232 20.012 0 1.975-0.183 3.908-0.533 5.781l0.030-0.194-17.774 105.728c-0.13 0.717-0.205 1.541-0.205 2.383 0 3.871 1.574 7.374 4.117 9.904l0.001 0.001z" />
<glyph unicode="&#xe90a;" glyph-name="tournaments" d="M1008.748 677.187c-12.759 29.63-37.903 51.841-68.732 60.35l-0.738 0.174c-7.311 1.543-15.711 2.427-24.317 2.427-18.105 0-35.297-3.91-50.777-10.933l0.773 0.314c0.377 21.558 0.701 43.116 0.808 65.644l-1.509 19.995h-711.033v-20.049c0-22.582 0.377-44.301 0.755-65.59-14.691 6.673-31.858 10.563-49.934 10.563-8.612 0-17.017-0.883-25.131-2.563l0.798 0.138c-31.559-8.698-56.698-30.903-69.208-59.842l-0.262-0.681c-7.572-15.604-11.998-33.941-11.998-53.312 0-18.924 4.224-36.861 11.78-52.92l-0.321 0.76c46.857-85.418 121.755-150.538 212.072-183.757l2.753-0.886c37.307-53.117 91.725-92.016 155.127-108.864l1.922-0.434c24.352-6.384 42.374-27.27 44.396-52.663l0.013-0.208c-0.957-22.164-13.663-41.155-32.012-50.987l-0.325-0.159h-18.055c-0.21 0.002-0.458 0.003-0.706 0.003-39.286 0-71.19-31.604-71.674-70.775v-12.927c0.046-11.267 2.831-21.873 7.723-31.201l-0.178 0.373h-117.491c-0.193 0.002-0.422 0.003-0.651 0.003-33.271 0-60.288-26.774-60.681-59.951v-46.386h755.119v46.349c-0.424 33.221-27.454 59.988-60.735 59.988-0.21 0-0.42-0.001-0.629-0.003h-117.459c4.689 8.96 7.47 19.561 7.545 30.804v12.905c-0.515 39.223-32.431 70.821-71.728 70.821-0.248 0-0.496-0.001-0.744-0.004h-17.855c-18.689 9.974-31.403 28.975-32.333 51.023l-0.004 0.123c2.028 25.588 20.026 46.467 43.942 52.778l0.413 0.093c65.344 17.237 119.775 56.148 156.465 108.42l0.585 0.879c93.096 34.085 168.017 99.211 213.843 182.587l1.036 2.056c7.21 15.276 11.418 33.183 11.418 52.072 0 19.426-4.451 37.812-12.389 54.195l0.324-0.741zM47.697 586.644c-5.372 10.86-8.515 23.646-8.515 37.166 0 13.033 2.921 25.384 8.143 36.434l-0.221-0.519c7.473 18.788 22.785 33.075 41.786 39.002l0.467 0.126c4.019 0.588 8.658 0.923 13.376 0.923 19.533 0 37.723-5.75 52.969-15.651l-0.378 0.23c-0.002-0.624-0.003-1.363-0.003-2.102 0-84.827 14.248-166.327 40.48-242.237l-1.565 5.208c-62.968 31.191-113.292 79.867-145.676 139.676l-0.864 1.744zM643.234 133.928c0.097 0.001 0.211 0.002 0.326 0.002 17.102 0 30.991-13.758 31.203-30.809v-12.901c-0.212-17.072-14.101-30.829-31.203-30.829-0.114 0-0.229 0.001-0.343 0.002h-267.624c-0.097-0.001-0.211-0.002-0.326-0.002-17.102 0-30.991 13.758-31.203 30.809v12.901c0.212 17.072 14.101 30.829 31.203 30.829 0.114 0 0.229-0.001 0.343-0.002h267.678zM971.399 586.644c-33.308-61.542-83.659-110.212-144.724-140.555l-1.923-0.865c24.668 70.614 38.916 152.017 38.916 236.748 0 0.838-0.001 1.675-0.004 2.512v-0.13c14.834 9.675 32.992 15.43 52.495 15.43 4.733 0 9.387-0.339 13.939-0.994l-0.52 0.061c19.546-5.988 34.93-20.294 42.259-38.683l0.156-0.444c4.977-10.534 7.882-22.883 7.882-35.911 0-13.517-3.128-26.304-8.699-37.676l0.224 0.506z" />
<glyph unicode="&#xe90b;" glyph-name="video-slots" d="M511.735 877.037c-264.274-10.418-474.567-227.179-474.567-493.056 0-272.506 220.91-493.416 493.416-493.416s493.416 220.91 493.416 493.416c0 0.007 0 0.013 0 0.020v-0.001c-5.505 273.512-228.526 493.126-502.84 493.126-3.327 0-6.647-0.032-9.959-0.097l0.496 0.008zM688.811 357.869l-256.152-154.093c-4.846-2.932-10.7-4.667-16.959-4.667-5.688 0-11.042 1.433-15.72 3.957l0.176-0.087c-9.806 5.181-16.397 15.273-16.498 26.914v308.162c0.095 11.667 6.687 21.772 16.331 26.885l0.166 0.080c4.492 2.44 9.836 3.875 15.514 3.875 6.274 0 12.14-1.751 17.134-4.792l-0.146 0.082 256.152-154.055c8.994-5.375 14.922-15.061 14.922-26.131s-5.929-20.755-14.784-26.054l-0.138-0.077z" />
<glyph unicode="&#xe90c;" glyph-name="search-bold" d="M998.873 18.196l-222.444 222.444c-1.182 1.182-2.599 1.969-3.781 3.072 43.528 65.251 69.46 145.471 69.46 231.748 0 232.698-188.639 421.337-421.337 421.337s-421.337-188.639-421.337-421.337c0-232.698 188.639-421.337 421.337-421.337 86.18 0 166.317 25.874 233.066 70.277l-1.548-0.969c1.103-1.26 1.969-2.599 3.151-3.781l222.444-222.444c15.482-15.482 36.87-25.058 60.495-25.058 47.249 0 85.553 38.303 85.553 85.553 0 23.625-9.576 45.013-25.058 60.495v0zM420.943 200.074c-151.913 0-275.062 123.15-275.062 275.062s123.15 275.062 275.062 275.062c151.913 0 275.062-123.15 275.062-275.062 0-0.028 0-0.055 0-0.083v0.004c-0.045-151.879-123.177-274.983-275.062-274.983v0z" />
<glyph unicode="&#xe90d;" glyph-name="all" d="M968.236 102.523l-435.912-230.712v559.059l447.176 226.393v-535.507c0-8.147-4.363-15.583-11.264-19.233zM633.922 401.398c-23.507 0-40.648-27.158-40.648-64.512 0-37.398 17.141-64.557 40.648-64.557 23.597 0 40.648 27.158 40.648 64.557 0 37.354-17.052 64.512-40.648 64.512zM837.208 293.878c-23.552 0-40.648-27.158-40.648-64.557s17.096-64.557 40.648-64.557c23.507 0 40.648 27.158 40.648 64.557s-17.141 64.557-40.648 64.557zM76.421 688.785l427.186 205.468c5.343 2.582 11.442 2.582 16.785 0l427.186-205.468-435.601-220.516-435.556 220.516zM572.972 659.579c0 24.932-25.645 43.008-60.995 43.008-35.306 0-60.95-18.076-60.95-43.008 0-24.977 25.645-43.053 60.95-43.053 35.35 0 60.995 18.076 60.995 43.053zM491.675-128.188l-435.912 230.712c-6.901 3.651-11.264 11.086-11.264 19.233v535.507l447.176-226.393v-559.059zM135.278 272.329c-23.552 0-40.604-27.158-40.604-64.512 0-37.398 17.052-64.557 40.604-64.557 23.597 0 40.693 27.158 40.693 64.557 0 37.354-17.096 64.512-40.693 64.512zM257.268 346.68c-23.597 0-40.693-27.114-40.693-64.557 0-37.398 17.096-64.512 40.693-64.512 23.552 0 40.648 27.114 40.648 64.512 0 37.443-17.096 64.557-40.648 64.557zM379.213 422.946c-23.597 0-40.648-27.158-40.648-64.557s17.052-64.512 40.648-64.512c23.552 0 40.648 27.114 40.648 64.512s-17.096 64.557-40.648 64.557z" />
<glyph unicode="&#xe90e;" glyph-name="close-bold" d="M602.232 384.241l402.552 402.974c11.603 11.588 18.78 27.604 18.78 45.297 0 35.356-28.661 64.017-64.017 64.017-17.663 0-33.655-7.153-45.237-18.721l-402.551-402.913-402.613 402.914c-11.382 10.517-26.657 16.967-43.439 16.967-35.396 0-64.090-28.694-64.090-64.090 0-16.797 6.462-32.085 17.035-43.513l-0.039 0.042 402.613-402.974-402.613-402.914c-11.535-11.596-18.665-27.584-18.665-45.237 0-35.363 28.614-64.043 63.952-64.15h0.010c16.384 0 32.768 6.264 45.237 18.733l402.613 402.974 402.552-402.974c11.563-11.607 27.561-18.79 45.237-18.79s33.674 7.182 45.235 18.788l0.002 0.002c11.618 11.592 18.805 27.62 18.805 45.327s-7.187 33.735-18.804 45.326l-402.553 402.915z" />
<glyph unicode="&#xe90f;" glyph-name="support" d="M885.226 75.823h1.267c-24.576-75.727-96.744-130.682-181.687-130.682h-96.402c-51.98 0-94.256 41.593-94.256 92.746s42.277 92.746 94.256 92.746c51.98 0 94.256-41.593 94.256-92.746 0-11.898-2.292-23.26-6.485-33.743h8.63c50.907 0 95.037 28.965 116.59 70.9-46.227 5.803-82.359 44.081-82.359 91.575v284.527c0 47.007 35.304 84.748 80.36 91.429-41.838 128.049-163.498 221.233-307.396 221.233s-265.557-93.184-307.444-221.233c45.056-6.631 80.36-44.422 80.36-91.429v-284.527c0-51.542-42.423-92.794-94.256-92.794h-32.134c-87.431 0-158.526 70.022-158.526 155.99v158.135c0 80.458 62.465 146.091 141.995 154.332 43.642 161.207 192.659 280.577 370.005 280.577s326.363-119.37 369.956-280.577c79.531-8.241 142.044-73.875 142.044-154.332v-158.135c0-79.336-60.758-144.287-138.776-153.99z" />
<glyph unicode="&#xe910;" glyph-name="vip" d="M933.849 60.53h-843.662l-89.657 472.121c-2.332 12.459 3.413 25.145 14.393 31.516 11.036 6.428 24.86 5.177 34.532-3.072l230.798-196.21 206.45 324.437c5.518 8.647 15.019 13.881 25.316 13.881 10.24 0 19.797-5.234 25.316-13.881l206.393-324.437 230.798 196.21c9.728 8.249 23.552 9.444 34.532 3.072s16.782-19.058 14.393-31.516l-89.6-472.121zM415.591 799.573c0 53.191 43.236 96.427 96.427 96.427 53.134 0 96.37-43.236 96.37-96.427 0-53.134-43.236-96.37-96.37-96.37-53.191 0-96.427 43.236-96.427 96.37zM645.422 631.239c73.5-19.911 140.459-55.808 196.892-103.822l-84.935-72.192-111.957 176.014zM181.721 527.417c56.377 48.014 123.335 83.911 196.892 103.822l-111.957-176.014-84.935 72.192zM927.591-98.020c0-16.555-13.426-29.98-29.98-29.98h-771.186c-16.555 0-29.98 13.426-29.98 29.98v98.532h831.147v-98.532z" />
<glyph unicode="&#xe911;" glyph-name="split-1" d="M968.363 865.963v1.593h-913.237v-1.593c-29.582-2.162-51.598-27.193-55.125-57.572v-680.391c0-12.288 3.015-38.4 8.021-47.73 9.728-10.923 43.122-9.159 48.868-9.159h341.333l-8.476-111.957h-62.635c-15.531 0-27.534-12.857-27.534-29.355s12.004-29.355 27.534-29.355h369.266c15.549 0.249 28.059 12.913 28.059 28.498 0 0.301-0.005 0.601-0.014 0.9l0.001-0.044c0 16.498-12.516 29.355-28.046 29.355l-70.599-1.82v113.778h341.333c23.552 0 36.978-12.459 48.356 9.159 5.177 9.785 8.533 20.252 8.533 31.972v696.149c-3.527 30.379-27.079 55.41-55.637 57.572zM910.222 753.778v-568.889c0-3.755 5.291 26.681 0 0h-796.444c-3.527 0-10.695-7.339 0 0l-1.764 561.266v5.348h799.46l-1.252 2.276z" />
<glyph unicode="&#xe912;" glyph-name="split-2" d="M1015.467 80.27c-11.378-21.618-24.804-9.159-48.356-9.159h-341.333v-113.778l70.599 1.82c15.531 0 28.046-12.857 28.046-29.355s-12.516-29.355-28.046-29.355h-369.266c-15.531 0-27.534 12.857-27.534 29.355s12.004 29.355 27.534 29.355h62.635l8.476 111.957h-341.333c-5.746 0-39.14-1.764-48.868 9.159-5.006 9.33-8.021 35.442-8.021 47.73v680.391c3.527 30.379 25.543 55.41 55.125 57.572v1.593h913.237v-1.593c28.558-2.162 52.11-27.193 55.637-57.572v-696.149c0-11.719-3.356-22.187-8.533-31.972zM910.222 184.889v566.613h-341.333v-566.613h341.333zM112.014 746.155l1.764-561.266h341.333v566.613h-343.097v-5.348z" />
<glyph unicode="&#xe913;" glyph-name="split-4" d="M1015.467 80.27c-11.378-21.618-24.804-9.159-48.356-9.159h-341.333v-113.778l70.599 1.82c15.531 0 28.046-12.857 28.046-29.355s-12.516-29.355-28.046-29.355h-369.266c-15.531 0-27.534 12.857-27.534 29.355s12.004 29.355 27.534 29.355h62.635l8.476 111.957h-341.333c-5.746 0-39.14-1.764-48.868 9.159-5.006 9.33-8.021 35.442-8.021 47.73v680.391c3.527 30.379 25.543 55.41 55.125 57.572v1.593h913.237v-1.593c28.558-2.162 52.11-27.193 55.637-57.572v-696.149c0-11.719-3.356-22.187-8.533-31.972zM455.111 184.889v227.556h-342.073l0.74-227.556h341.333zM112.014 751.502v-5.348l0.683-219.932h342.414v225.28h-343.097zM910.222 751.502h-341.333v-225.28h341.333v225.28zM910.222 412.444h-341.333v-227.556h341.333v227.556z" />
<glyph unicode="&#xe914;" glyph-name="poker" d="M794.697 639.269l92.965 92.891c83.456-89.637 131.913-206.336 136.485-328.704h-131.511c-4.425 87.552-39.022 170.862-97.938 235.813zM531.237 764.635v131.401c122.478-4.571 239.214-52.955 328.923-136.375l-92.965-92.928c-64.987 58.88-148.334 93.477-235.959 97.902zM746.057 384.549c0-129.573-105.106-234.606-234.752-234.606s-234.752 105.033-234.752 234.606c0 129.573 105.106 234.569 234.752 234.569s234.752-104.997 234.752-234.569zM511.305 514.597c-166.875-106.423-120.613-201.216-76.434-215.333 25.015-8.009 47.616-0.256 61.952 14.629-1.097-20.809-4.169-46.409-12.178-60.709h53.321c-8.009 14.299-11.081 39.899-12.215 60.709 14.373-14.885 36.974-22.638 61.952-14.629 44.215 14.117 90.478 108.91-76.398 215.333zM164.645 760.759c89.563 82.725 205.824 130.743 327.717 135.278v-131.438c-87.040-4.389-169.911-38.546-234.752-96.768l-92.965 92.928zM130.962 403.456h-131.474c4.571 122.953 53.431 240.091 137.582 329.874l92.928-92.855c-59.575-65.097-94.574-148.919-99.035-237.019zM228.901 128.805l-92.928-92.891c-83.456 89.637-131.913 206.299-136.485 328.667h131.511c4.389-87.515 38.985-170.825 97.902-235.776zM256.402 101.303c64.987-58.88 148.37-93.44 235.959-97.865v-131.401c-122.441 4.571-239.177 52.955-328.923 136.375l92.965 92.891zM861.33 9.545c-89.856-84.078-207.067-132.901-330.094-137.509v131.401c88.174 4.462 172.032 39.424 237.166 98.962l92.928-92.855zM892.635 364.581h131.511c-4.535-121.819-52.59-237.97-135.387-327.497l-92.965 92.928c58.258 64.768 92.453 147.602 96.841 234.569z" />
<glyph unicode="&#xe915;" glyph-name="live-chat" d="M874.018 21.914c-96.734-96.7-225.246-149.879-362.086-149.879-84.924 0-168.414 20.992-242.62 60.894-55.125-37.956-121.207-59.597-184.047-59.597-12.663 0-24.883 1.058-36.284 2.765-20.787 3.243-36.659 19.319-39.902 40.107-2.97 20.582 7.543 40.755 26.18 49.971 30.686 14.985 57.719 46.285 80.657 93.252-166.229 201.967-152.713 499.985 33.929 686.524 96.734 96.7 225.246 150.084 362.086 150.084s265.353-53.385 362.086-150.084c96.768-96.7 149.948-225.553 149.948-362.121 0-136.602-53.18-265.216-149.948-361.916zM726.46 552.994h-429.056c-16.077 0-28.945-12.868-28.945-28.945s12.868-28.945 28.945-28.945h429.056c16.077 0 28.945 12.868 28.945 28.945s-13.073 28.945-28.945 28.945zM726.46 412.979h-429.056c-16.077 0-28.945-12.868-28.945-28.945s12.868-28.945 28.945-28.945h429.056c16.077 0 28.945 12.868 28.945 28.945s-13.073 28.945-28.945 28.945zM726.46 272.964h-429.056c-16.077 0-28.945-12.868-28.945-28.945s12.868-28.945 28.945-28.945h429.056c16.077 0 28.945 12.868 28.945 28.945s-13.073 28.945-28.945 28.945z" />
<glyph unicode="&#xe916;" glyph-name="filters" d="M633.817 107.52c-13.077-44.977-55.178-77.981-104.999-77.981s-91.924 33.003-104.999 77.981h-423.817v59.037h423.817c13.077 44.938 55.178 77.942 104.999 77.942s91.924-33.003 104.999-77.942h390.183v-59.037h-390.183zM528.817 185.463c-27.136 0-49.231-21.701-49.231-48.443 0-26.703 22.095-48.443 49.231-48.443s49.231 21.741 49.231 48.443c0 26.742-22.095 48.443-49.231 48.443zM192.315 276.519c-49.821 0-91.924 33.003-104.999 77.981h-87.316v59.037h87.316c13.077 44.938 55.178 77.942 104.999 77.942s91.924-33.003 104.999-77.942h726.684v-59.037h-726.684c-13.077-44.977-55.178-77.981-104.999-77.981zM192.315 432.443c-27.136 0-49.231-21.741-49.231-48.443s22.095-48.403 49.231-48.403c27.136 0 49.191 21.701 49.191 48.403s-22.056 48.443-49.191 48.443zM747.638 523.5c-49.821 0-91.924 33.003-104.999 77.942h-642.638v59.077h642.638c13.077 44.938 55.178 77.942 104.999 77.942s91.924-33.003 104.999-77.942h171.363v-59.077h-171.363c-13.077-44.938-55.178-77.942-104.999-77.942zM747.638 679.424c-27.097 0-49.191-21.741-49.191-48.443s22.056-48.443 49.191-48.443c27.136 0 49.231 21.741 49.231 48.443s-22.095 48.443-49.231 48.443z" />
<glyph unicode="&#xe917;" glyph-name="heart-outline" d="M742.4 852.48c-87.040 0-174.080-40.96-230.4-107.52-56.32 66.56-143.36 107.52-230.4 107.52-158.72 0-281.6-122.88-281.6-281.6 0-194.56 174.080-353.28 440.32-588.8l71.68-66.56 71.68 66.56c261.12 240.64 440.32 399.36 440.32 588.8 0 158.72-122.88 281.6-281.6 281.6zM517.12 53.76h-5.12l-5.12 5.12c-245.76 220.162-404.48 363.52-404.48 512 0 102.4 76.8 179.2 179.2 179.2 76.8 0 153.6-51.2 184.32-122.88h97.28c25.6 71.68 102.4 122.88 179.2 122.88 102.4 0 179.2-76.8 179.2-179.2 0-148.48-158.72-291.838-404.48-517.12z" />
<glyph unicode="&#xe918;" glyph-name="heart-fill" d="M742.5 852.43c-87.14 0-174.080-40.96-230.5-107.42-56.42 66.66-143.36 107.42-230.5 107.42-158.62 0-281.5-122.88-281.5-281.5 0-194.56 174.080-353.18 440.32-588.7l71.68-66.46 71.68 66.46c261.22 240.54 440.32 399.159 440.32 588.7 0 158.62-122.88 281.5-281.5 281.5z" />
<glyph unicode="&#xe919;" glyph-name="arrow" d="M768.836 854.048l-465.028-470.049 465.028-470.016c4.393-4.453 7.106-10.572 7.106-17.325s-2.713-12.873-7.108-17.328l0.003 0.003c-4.367-4.418-10.428-7.153-17.127-7.153s-12.76 2.736-17.125 7.151l-0.002 0.002-479.727 484.914c-4.214 4.366-6.81 10.317-6.81 16.875 0 1.014 0.062 2.014 0.183 2.996l-0.012-0.118c-0.109 0.866-0.171 1.868-0.171 2.884 0 6.566 2.596 12.526 6.818 16.91l-0.007-0.008 479.727 484.881c4.367 4.418 10.428 7.153 17.127 7.153s12.76-2.736 17.125-7.151l0.002-0.002c4.399-4.444 7.116-10.559 7.116-17.309s-2.717-12.865-7.118-17.311l0.002 0.002z" />
<glyph unicode="&#xe91a;" glyph-name="notifications" d="M522.099-128c66.129 0 120.231 57.469 120.231 123.598h-247.188c0-66.129 60.837-123.598 126.966-123.598zM902.74 175.436v330.621c0 186.36-126.236 336.644-300.567 378.725-227.479 64.517-475.353-160.86-480.913-378.725v-330.621l-120.231-120.231v-60.115h1021.942v60.115z" />
<glyph unicode="&#xe91b;" glyph-name="remove" d="M839.312 578.997v-556.178c0-32.866-12.044-63.781-33.109-85.918-20.968-22.187-50.127-34.816-80.652-34.865h-427.057c-30.525 0.049-59.685 12.678-80.652 34.865-21.065 22.138-33.109 53.053-33.109 85.918v556.178c-41.838 11.118-68.998 51.541-63.39 94.501s42.179 75.045 85.528 75.093h115.566v28.184c-0.146 23.747 9.216 46.519 26.039 63.293 16.774 16.774 39.595 26.088 63.342 25.893h200.411c23.747 0.195 46.519-9.118 63.342-25.893 16.774-16.774 26.185-39.546 26.039-63.293v-28.184h115.566c43.301-0.049 79.872-32.134 85.48-75.093s-21.504-83.383-63.342-94.501zM229.886 22.818c0-42.472 29.989-75.63 68.608-75.63h427.057c38.571 0 68.608 33.158 68.608 75.63v554.179h-564.273v-554.179zM656.455 776.775c0.146 11.752-4.437 23.064-12.776 31.403-8.338 8.29-19.7 12.824-31.451 12.629h-200.411c-11.8 0.195-23.113-4.34-31.451-12.629-8.338-8.338-12.971-19.651-12.824-31.403v-28.184h288.914v28.184zM817.174 703.437h-610.304c-22.479 0-40.667-18.188-40.667-40.667 0-22.43 18.188-40.619 40.667-40.619h610.304c22.43 0 40.619 18.188 40.619 40.619 0 22.479-18.188 40.667-40.619 40.667zM645.191 44.907c-12.483 0-22.577 10.142-22.577 22.577v426.667c0 12.483 10.094 22.577 22.577 22.577s22.577-10.094 22.577-22.577v-426.667c0-12.434-10.094-22.577-22.577-22.577zM512.022 44.907c-12.483 0-22.577 10.142-22.577 22.577v426.667c0 12.483 10.094 22.577 22.577 22.577 12.434 0 22.577-10.094 22.577-22.577v-426.667c0-12.434-10.142-22.577-22.577-22.577zM378.853 44.907c-12.483 0-22.577 10.142-22.577 22.577v426.667c0 12.483 10.094 22.577 22.577 22.577s22.577-10.094 22.577-22.577v-426.667c0-12.434-10.094-22.577-22.577-22.577z" />
<glyph unicode="&#xe91c;" glyph-name="check" d="M0 404.76l401.78-393.123 622.22 638.138-110.778 106.589-511.441-529.873-292.585 285.696-109.196-107.427z" />
<glyph unicode="&#xe91d;" glyph-name="message" d="M509.999-21.308c-66.17 0-130.292 10.532-190.854 31.402-61.245-57.003-143.653-89.332-229.132-89.332-26.721 0-40.034 31.257-21.211 49.444 45.007 43.447 63.147 106.398 48.177 165.888-75.483 77.677-116.979 175.689-116.979 276.87 0 237.519 225.232 434.274 510.001 434.274 285.404 0 513.999-197.193 513.999-434.274 0-236.935-228.401-434.274-513.999-434.274zM509.999 789.749c-248.149 0-450.414-169.253-450.414-376.784 0-88.454 37.888-174.47 105.959-242.103 3.463-3.463 5.998-7.655 7.314-12.24 17.213-58.417 9.996-120.052-18.286-172.325 51.346 12.24 98.45 38.863 134.68 77.093 8.387 8.875 21.65 11.801 33.207 7.363 59.002-22.674 122.099-34.572 187.538-34.572 250.344 0 454.412 169.253 454.412 376.784s-204.068 376.784-454.412 376.784zM754.003 326.121c-49.64 0-90.015 38.961-90.015 86.845s40.375 86.845 90.015 86.845c49.64 0 90.015-38.961 90.015-86.845s-40.375-86.845-90.015-86.845zM754.003 441.93c-16.53 0-29.988-13.020-29.988-28.964 0-15.993 13.458-28.964 29.988-28.964s29.988 12.971 29.988 28.964c0 15.946-13.458 28.964-29.988 28.964zM509.999 326.121c-49.64 0-90.015 38.961-90.015 86.845s40.375 86.845 90.015 86.845c49.64 0 90.015-38.961 90.015-86.845s-40.375-86.845-90.015-86.845zM509.999 441.93c-16.53 0-29.988-13.020-29.988-28.964 0-15.993 13.458-28.964 29.988-28.964s29.988 12.971 29.988 28.964c0 15.946-13.458 28.964-29.988 28.964zM269.992 326.121c-49.64 0-90.015 38.961-90.015 86.845s40.375 86.845 90.015 86.845c49.64 0 90.015-38.961 90.015-86.845s-40.375-86.845-90.015-86.845zM269.992 441.93c-16.53 0-29.988-13.020-29.988-28.964 0-15.993 13.458-28.964 29.988-28.964s29.988 12.971 29.988 28.964c0 15.946-13.458 28.964-29.988 28.964z" />
<glyph unicode="&#xe91e;" glyph-name="diamond" horiz-adv-x="1132" d="M1127.483 561.53l-180.655 317.224c-6.036 10.617-17.516 17.246-30.019 17.246h-701.602c-12.45 0-23.929-6.575-30.019-17.246l-180.655-317.224c-6.845-12.072-5.551-27.001 3.341-37.672l531.51-639.407c0.162-0.216 0.377-0.377 0.539-0.593 0.539-0.647 1.132-1.24 1.725-1.832 0.054-0.108 0.162-0.162 0.216-0.216 0.162-0.162 0.323-0.323 0.485-0.431 0.054-0.054 0.108-0.108 0.162-0.162 0.593-0.593 1.24-1.132 1.886-1.617 0.269-0.269 0.593-0.485 0.916-0.701 0.647-0.539 1.347-0.97 2.048-1.401 0.323-0.216 0.647-0.431 0.97-0.647 0.593-0.323 1.186-0.647 1.832-0.97 0.269-0.162 0.485-0.269 0.755-0.377 0.216-0.108 0.431-0.269 0.701-0.377 0.647-0.269 1.347-0.539 2.102-0.808 0.431-0.162 0.862-0.377 1.347-0.539 0.054 0 0.108-0.054 0.216-0.054 0.054 0 0.054-0.054 0.108-0.054 0.269-0.108 0.593-0.162 0.916-0.216 1.186-0.377 2.371-0.647 3.557-0.862 0.485-0.054 0.97-0.162 1.455-0.216 1.455-0.216 2.856-0.323 4.312-0.323 0.162 0 0.269-0.054 0.377-0.054h0.054c0.108 0 0.269 0.054 0.377 0.054 1.455 0 2.91 0.108 4.312 0.323 0.485 0.054 0.97 0.162 1.455 0.216 1.24 0.216 2.425 0.485 3.557 0.862 0.323 0.054 0.647 0.108 0.916 0.216 0.054 0 0.054 0 0.108 0.054 0.108 0 0.162 0.054 0.269 0.108 0.431 0.108 0.862 0.323 1.293 0.485 0.701 0.269 1.455 0.539 2.102 0.808 0.269 0.108 0.485 0.269 0.755 0.377 0.216 0.108 0.431 0.216 0.701 0.323 0.593 0.323 1.24 0.647 1.832 1.024 0.323 0.216 0.647 0.431 1.024 0.647 0.647 0.431 1.347 0.862 1.994 1.401 0.323 0.216 0.647 0.431 0.916 0.701 0.647 0.485 1.293 1.024 1.886 1.617 0.108 0.054 0.162 0.108 0.216 0.162 0.108 0.108 0.269 0.216 0.431 0.377 0.054 0.054 0.108 0.162 0.216 0.216 0.593 0.647 1.186 1.24 1.725 1.886 0.162 0.216 0.377 0.377 0.539 0.539l531.456 639.461c8.839 10.671 10.186 25.6 3.341 37.672zM633.861 828.686l97.334-249.91h-330.321l97.388 249.91h135.599zM733.566 511.462l-167.505-498.203-167.559 498.203h335.064zM326.122 511.462l149.019-443.123-368.317 443.123h219.298zM805.947 511.462h219.244l-368.263-443.123 149.019 443.123zM1038.934 578.777h-234.227l-97.28 249.91h189.224l142.282-249.91zM235.364 828.686h189.332l-97.388-249.91h-234.227l142.282 249.91z" />
<glyph unicode="&#xe91f;" glyph-name="cube" d="M953.227 113.825l-561.923-232.482c-13.928-5.746-28.634-8.669-43.681-8.669v0c-46.652 0-88.337 27.757-106.161 70.661l-232.726 561.241c-11.688 28.147-11.639 59.265 0.098 87.607 11.737 28.294 33.747 50.354 61.943 61.992l561.923 232.482c13.928 5.746 28.634 8.669 43.633 8.669 46.701 0 88.386-27.709 106.21-70.661l232.726-561.192c24.203-58.34-3.652-125.493-62.041-149.648zM959.849 240.536l-232.775 561.192c-8.474 20.453-28.391 33.699-50.743 33.699-7.11 0-14.073-1.412-20.648-4.14l-561.923-232.482c-13.392-5.552-23.91-16.022-29.511-29.559s-5.649-28.342-0.098-41.734l232.775-561.241c8.474-20.453 28.391-33.65 50.694-33.65 7.11 0 14.073 1.363 20.697 4.091l561.923 232.482c27.855 11.542 41.15 43.536 29.608 71.342zM814.876 183.999c-11.979-4.919-24.544-7.451-37.4-7.451-39.689 0-75.141 23.667-90.286 60.287-10.032 24.056-9.983 50.597 0 74.702s28.78 42.853 52.885 52.837c11.931 4.919 24.495 7.451 37.351 7.451 39.689 0 75.141-23.667 90.334-60.287 9.983-24.105 9.983-50.645 0-74.702-9.983-24.105-28.78-42.853-52.885-52.837zM812.345 288.601c-5.892 14.122-19.576 23.277-34.916 23.277-4.919 0-9.788-0.974-14.415-2.873-9.302-3.847-16.557-11.103-20.404-20.404s-3.847-19.528 0-28.829c5.843-14.171 19.528-23.277 34.868-23.277 4.919 0 9.788 0.974 14.415 2.873 9.302 3.847 16.557 11.103 20.453 20.404 3.847 9.302 3.847 19.528 0 28.829zM659.336 558.971c-11.931-4.967-24.495-7.451-37.351-7.451-39.689 0-75.141 23.667-90.286 60.239-20.648 49.769 3.068 106.94 52.837 127.539 11.979 4.967 24.544 7.451 37.4 7.451 39.689 0 75.141-23.667 90.286-60.239 10.032-24.105 10.032-50.645 0-74.702-9.983-24.105-28.732-42.853-52.885-52.837zM656.804 663.573c-5.843 14.122-19.528 23.277-34.868 23.277-4.919 0-9.788-0.974-14.415-2.873-19.236-7.986-28.391-30.046-20.404-49.233 5.843-14.171 19.528-23.326 34.868-23.326 4.919 0 9.788 1.023 14.415 2.922 9.302 3.847 16.557 11.103 20.404 20.355 3.847 9.302 3.847 19.576 0 28.878zM602.263 421.351c20.648-49.72-3.068-106.94-52.837-127.539-11.979-4.919-24.544-7.451-37.4-7.451-39.689 0-75.141 23.667-90.334 60.287-20.599 49.72 3.117 106.94 52.934 127.539 11.931 4.919 24.495 7.451 37.351 7.451 39.689 0 75.141-23.667 90.286-60.287zM546.845 398.415c-5.843 14.171-19.528 23.277-34.868 23.277-4.919 0-9.788-0.974-14.415-2.873-19.236-7.938-28.391-30.046-20.404-49.233 5.843-14.122 19.528-23.277 34.868-23.277 4.919 0 9.788 0.974 14.415 2.873 19.236 7.938 28.391 30.046 20.404 49.233zM492.352 156.241c20.599-49.72-3.117-106.94-52.934-127.539-11.931-4.967-24.495-7.451-37.351-7.451-39.689 0-75.141 23.667-90.334 60.287-20.599 49.72 3.117 106.891 52.934 127.491 11.931 4.967 24.495 7.451 37.351 7.451 39.689 0 75.141-23.667 90.334-60.239zM436.885 133.305c-5.843 14.122-19.528 23.277-34.868 23.277-4.919 0-9.788-0.974-14.415-2.922-19.236-7.938-28.391-29.997-20.404-49.233 5.843-14.122 19.528-23.228 34.868-23.228 4.919 0 9.788 0.925 14.415 2.873 19.236 7.938 28.391 30.046 20.404 49.233zM283.926 403.674c-11.931-4.967-24.495-7.451-37.351-7.451-39.689 0-75.141 23.619-90.334 60.239-20.599 49.72 3.117 106.94 52.885 127.539 11.979 4.967 24.544 7.451 37.4 7.451 39.64 0 75.092-23.667 90.286-60.287 20.648-49.72-3.117-106.891-52.885-127.491zM281.394 508.276c-5.843 14.122-19.576 23.228-34.868 23.228-4.967 0-9.788-0.974-14.415-2.873-19.236-7.938-28.391-30.046-20.453-49.233 5.892-14.122 19.576-23.277 34.916-23.277 4.919 0 9.788 0.974 14.415 2.873 19.187 7.986 28.342 30.046 20.404 49.282z" />
<glyph unicode="&#xe920;" glyph-name="rocket" d="M993.983 658.101c-26.477-106.979-82.452-258.913-198.695-375.156-13.506-13.506-27.501-26.184-41.836-38.081 12.775-94.252-13.701-184.847-77.82-264.228-54.61-67.63-117.266-103.175-119.9-104.638-4.73-2.682-9.996-3.998-15.261-3.998-5.169 0-10.289 1.268-14.969 3.803-9.411 5.169-15.554 14.774-16.237 25.501l-11.068 177.289-48.565-48.565c-5.851-5.9-13.799-9.167-22.088-9.167s-16.237 3.267-22.088 9.167l-24.575 24.526c-0.293-0.341-0.634-0.683-0.975-1.024-105.321-105.272-268.47-108.539-275.345-108.637h-0.39c-8.29 0-16.237 3.267-22.088 9.167-5.949 5.949-9.265 14.042-9.167 22.478 0.098 6.875 3.365 170.025 108.637 275.345 0.341 0.341 0.683 0.683 1.024 1.024l-24.526 24.526c-5.851 5.851-9.167 13.799-9.167 22.088s3.316 16.237 9.167 22.088l48.565 48.565-177.289 11.068c-10.727 0.683-20.333 6.827-25.501 16.237-5.12 9.46-5.071 20.869 0.195 30.231 1.463 2.633 37.008 65.289 104.687 119.948 79.332 64.070 169.927 90.547 264.179 77.771 11.946 14.335 24.575 28.33 38.081 41.836 116.242 116.242 268.177 172.219 375.107 198.695 115.218 28.573 202.644 29.939 206.302 30.036 8.338 0.146 16.529-3.218 22.478-9.167s9.216-14.091 9.118-22.478c-0.049-3.657-1.463-91.083-29.988-206.253zM568.166-38.966c18.285 14.92 39.983 35.204 60.12 60.413 44.469 55.683 66.508 115.804 65.923 179.484-45.005-29.744-91.62-53.245-136.575-71.775l10.532-168.123zM427.543 96.294l53.343 53.343-203.23 203.23-53.343-53.343 203.23-203.23zM138.546 10.477c48.272 6.534 136.478 26.525 197.183 87.231 0.341 0.341 0.683 0.683 1.024 1.024l-110.002 110.002c-0.341-0.341-0.683-0.683-1.024-1.024-60.706-60.706-80.648-148.912-87.182-197.232zM149.468 500.266c-25.209-20.138-45.444-41.836-60.413-60.12l168.123-10.532c18.529 44.956 42.031 91.571 71.775 136.575-63.631 0.585-123.8-21.454-179.484-65.923zM741.848 788.63c-90.986-28.915-200.304-79.137-286.706-165.539-64.85-64.85-109.758-142.622-140.769-218.54l218.199-218.199c74.017 30.378 152.91 75.138 218.54 140.769 86.402 86.402 136.624 195.721 165.49 286.706l-174.755 174.803zM809.38 807.354l125.995-125.995c15.066 63.241 21.503 117.364 24.185 150.18-32.815-2.682-86.938-9.118-150.18-24.185zM745.163 439.219c-23.746-23.795-55.342-36.862-88.938-36.862-33.644 0-65.24 13.067-88.986 36.862-49.101 49.052-49.101 128.872 0 177.972 23.746 23.746 55.342 36.862 88.986 36.862 33.595 0 65.192-13.116 88.938-36.862 23.795-23.795 36.862-55.391 36.862-88.986 0-33.644-13.067-65.24-36.862-88.986zM700.987 573.016c-11.946 11.946-27.842 18.529-44.761 18.529-16.968 0-32.864-6.583-44.859-18.529-24.673-24.721-24.673-64.948 0-89.62 11.994-11.994 27.891-18.577 44.859-18.577 16.919 0 32.815 6.583 44.761 18.577 11.994 11.946 18.577 27.842 18.577 44.81 0 16.919-6.583 32.815-18.577 44.81z" />
<glyph unicode="&#xe921;" glyph-name="close-circle" d="M703.57 529.94c-0.364 12.506-5.519 23.742-13.685 31.994l0.004-0.004c-8.262 8.138-19.489 13.286-31.915 13.679l-0.074 0.002c-0.763 0.044-1.655 0.069-2.553 0.069-13.005 0-24.784-5.252-33.33-13.752l-110.017-110.058-110.019 110.060c-8.575 8.496-20.378 13.745-33.408 13.745-0.87 0-1.734-0.023-2.593-0.070l0.12 0.005c-12.504-0.377-23.736-5.53-31.995-13.685l0.005 0.005c-8.148-8.256-13.299-19.486-13.679-31.918l-0.002-0.072c-0.573-12.943 3.809-26.010 13.681-35.881l110.019-110.060-110.019-110.019c-9.871-9.871-14.213-22.938-13.681-35.881 0.451-11.592 4.792-23.101 13.681-31.99 8.847-8.847 20.398-13.23 31.99-13.681 12.943-0.573 26.010 3.809 35.881 13.681l110.019 110.019 110.060-110.060c9.871-9.871 22.938-14.213 35.84-13.681 11.633 0.492 23.142 4.792 32.031 13.681 8.847 8.888 13.189 20.398 13.681 32.031 0.040 0.732 0.063 1.588 0.063 2.45 0 13.024-5.249 24.822-13.747 33.393l-110.057 110.057 110.019 110.019c9.871 9.871 14.254 22.938 13.681 35.922zM512 896c-282.747 0-512-229.253-512-512s229.253-512 512-512 512 229.253 512 512-229.253 512-512 512zM512-31.99c-229.376 0-415.99 186.614-415.99 415.99s186.614 415.99 415.99 415.99c229.376 0 415.99-186.614 415.99-415.99s-186.614-415.99-415.99-415.99z" />
<glyph unicode="&#xe922;" glyph-name="full" d="M1024.301-72.523c-0.571-30.831-25.698-55.605-56.612-55.605-0.321 0-0.641 0.003-0.961 0.008l0.048-0.001h-244.073c-31.744 0-57.404 24.877-57.404 55.597 0 30.66 25.66 55.537 57.404 55.657h116.796l-216.184 223.352c-9.755 10.217-15.759 24.089-15.759 39.364s6.004 29.147 15.78 39.386l-0.021-0.022c9.568 10.066 23.057 16.327 38.008 16.327s28.44-6.261 37.987-16.305l0.021-0.022 217.208-224.678v121.254c0 32.407 24.335 58.488 53.911 58.609 29.816 0 53.79-26.202 53.79-58.609h0.060v-248.772c0-1.084-0.241-2.229-0.361-3.253l0.361-2.289zM970.451 527.24c-29.576 0.12-53.911 26.263-53.911 58.549v121.254l-217.208-224.497c-9.546-10.113-23.042-16.409-38.008-16.409s-28.463 6.296-37.985 16.384l-0.024 0.025c-9.757 10.183-15.765 24.027-15.765 39.273s6.007 29.091 15.784 39.294l-0.019-0.020 216.184 223.413h-116.796c-31.744 0.060-57.404 24.998-57.404 55.657 0 30.84 25.66 55.657 57.404 55.657h244.073c0.253 0.004 0.552 0.006 0.851 0.006 30.934 0 56.075-24.807 56.612-55.613l0.001-0.051-0.301-2.289c0.060-0.964 0.301-2.108 0.301-3.192v-248.892c0-32.286-23.974-58.549-53.79-58.549zM185.404-16.926h116.736c31.744-0.060 57.404-24.937 57.404-55.657s-25.66-55.597-57.404-55.597h-244.073c-0.254-0.004-0.553-0.006-0.852-0.006-30.913 0-56.040 24.773-56.611 55.55l-0.001 0.053 0.301 2.289c-0.060 1.024-0.361 2.168-0.361 3.253l0.060 248.832c0 32.407 24.034 58.609 53.79 58.609 29.636-0.12 53.911-26.202 53.911-58.609v-121.254l217.088 224.678c9.596 10.057 23.103 16.31 38.070 16.31 14.997 0 28.527-6.278 38.107-16.348l0.021-0.022c9.698-10.231 15.662-24.086 15.662-39.334s-5.964-29.103-15.686-39.359l0.024 0.026-216.184-223.413zM325.391 482.545l-217.088 224.437v-121.254c0-32.286-24.275-58.368-53.911-58.488-29.756 0-53.79 26.202-53.79 58.488l-0.060 248.952c0 1.144 0.301 2.229 0.361 3.192l-0.301 2.289c0.538 30.856 25.679 55.664 56.613 55.664 0.299 0 0.598-0.002 0.896-0.007l-0.045 0.001h244.073c31.744 0 57.404-24.817 57.404-55.657 0-30.66-25.66-55.597-57.404-55.657h-116.736l216.184-223.413c9.704-10.206 15.673-24.043 15.673-39.273s-5.969-29.067-15.696-39.298l0.023 0.024c-9.575-10.122-23.101-16.422-38.099-16.422s-28.523 6.3-38.076 16.398l-0.023 0.024z" />
<glyph unicode="&#xe923;" glyph-name="popular" d="M457.053 837.698l-124.976-252.145-279.646-40.569c-50.127-7.266-70.217-68.753-33.889-104.008l202.36-196.167-47.883-277.061c-8.582-50.078 44.421-87.624 88.794-64.218l250.194 130.875 250.145-130.827c44.421-23.259 97.425 14.092 88.843 64.17l-47.883 277.061 202.311 196.167c36.376 35.255 16.287 96.742-33.84 104.008l-279.646 40.569-125.025 252.145c-22.381 44.909-87.283 45.495-109.86 0v0z" />
<glyph unicode="&#xe924;" glyph-name="recently" d="M976.644 267.203c-20.597-207.485-188.693-374.214-396.324-393.298-245.409-22.549-454.65 157.896-478.957 392.419h-43.244c-26.308 0-42.707 28.505-29.578 51.249l96.738 167.56c13.13 22.745 46.026 22.745 59.156 0l96.738-167.56c13.13-22.745-3.319-51.249-29.578-51.249h-37.68c24.453-175.124 187.473-306.419 374.409-279.037 138.274 20.255 250.484 129.391 273.962 267.226 35.191 206.264-123.485 385.733-323.356 385.733-64.769 0-127.341-18.791-181.079-54.373-24.941-16.546-59.498-13.275-77.752 10.396-19.963 25.771-13.715 62.572 12.836 80.485 57.643 38.949 122.998 63.304 191.475 71.797v63.5h-44.806c-15.423 0-27.918 12.495-27.918 27.918v28.113c0 15.423 12.495 27.918 27.918 27.918h207.777c15.423 0 27.918-12.495 27.918-27.918v-28.113c0-15.423-12.495-27.918-27.918-27.918h-49.345v-64.183c228.96-30.895 402.669-238.478 378.607-480.665zM991.14 689.737l-84.195 77.8c-11.324 10.494-28.992 9.811-39.437-1.513l-22.305-24.111c-10.445-11.324-9.762-28.992 1.561-39.437l84.195-77.8c11.324-10.494 28.992-9.811 39.437 1.513l22.257 24.111c10.494 11.324 9.762 28.992-1.513 39.437zM537.612 582.895v-273.083h270.301c0.049 166.29-126.12 273.083-270.301 273.083z" />
<glyph unicode="&#xe925;" glyph-name="live" d="M825.281 205.824l-149.376 29.973c-15.829 3.2-27.371 17.28-27.371 33.451v38.976c149.163 14.208 170.667 44.715 170.667 75.776 0 91.819-61.035 305.024-71.125 339.691-1.237 53.589-11.051 83.755-35.563 110.123-17.344 18.773-42.795 23.147-63.36 26.624-8.064 1.429-19.179 3.285-23.275 5.525-36.395 19.733-72.363 29.227-115.307 30.037-89.899-3.691-200.427-60.885-238.251-165.483-2.731-9.749-67.52-240.64-67.52-346.517 0-44.16 49.963-67.456 170.667-78.101v-36.651c0-16.171-11.541-30.251-27.435-33.451l-149.163-29.909c-95.445-18.773-164.736-103.211-164.736-200.768v-64.853c0-37.611 30.656-68.267 68.267-68.267h819.2c37.611 0 68.267 30.656 68.267 68.267v64.853c0 97.557-69.291 181.995-164.587 200.704z" />
<glyph unicode="&#xe926;" glyph-name="other-live" d="M975.319 153.497c-4.306-9.319-10.307-17.789-17.683-25.026l-222.16-218.701c-38.404-37.803-96.538-49.099-151.53-24.567-9.459 4.271-18.072 10.165-25.413 17.401l-222.16 218.701c-38.439 37.803-49.91 95.019-24.991 149.13 4.341 9.353 10.307 17.825 17.683 25.061l222.196 218.666c38.368 37.803 96.502 49.099 151.495 24.567 9.459-4.235 18.072-10.13 25.413-17.401l222.196-218.701c38.368-37.768 49.839-95.019 24.955-149.13zM643.35 254.694c-24.002 0-43.416-19.131-43.416-42.71 0-23.614 19.414-42.745 43.416-42.745 23.967 0 43.416 19.131 43.416 42.745 0 23.578-19.449 42.71-43.416 42.71zM313.075 340.184h-190.746c-47.969 0-86.83 38.262-86.83 85.49v384.633c0 47.227 38.862 85.49 86.83 85.49h390.775c47.933 0 86.83-38.262 86.83-85.49v-221.207c-30.073-7.589-57.499-23.049-79.383-44.686l-207.476-204.229zM209.16 767.597c-23.967 0-43.416-19.167-43.416-42.745 0-23.614 19.449-42.745 43.416-42.745s43.416 19.131 43.416 42.745c0 23.578-19.449 42.745-43.416 42.745zM209.16 553.873c-23.967 0-43.416-19.131-43.416-42.71 0-23.614 19.449-42.745 43.416-42.745s43.416 19.131 43.416 42.745c0 23.578-19.449 42.71-43.416 42.71zM426.273 767.597c-24.002 0-43.451-19.167-43.451-42.745 0-23.614 19.449-42.745 43.451-42.745 23.967 0 43.416 19.131 43.416 42.745 0 23.578-19.449 42.745-43.416 42.745zM426.273 596.618c-24.002 0-43.451-19.131-43.451-42.745 0-23.578 19.449-42.71 43.451-42.71 23.967 0 43.416 19.131 43.416 42.71 0 23.614-19.449 42.745-43.416 42.745z" />
<glyph unicode="&#xe927;" glyph-name="lightning" d="M576.246-65.159l66.045 130.384c124.736 51.596 212.77 174.966 212.77 318.591 0 151.558-98.044 280.577-233.787 326.472l12.637 110.312c190.099-53.541 329.888-229.085 329.888-436.786 0-228.218-168.74-417.554-387.553-448.975zM746.379 475.923c9.458 0 18.232-3.232 23.171-11.323 4.939-8.065 5.333-17.366 1.078-25.825l-279.578-551.854c-4.729-9.353-14.213-14.922-24.249-14.922-2.575 0-5.202 0.21-7.777 0.999-12.61 3.757-20.702 14.791-19.23 27.9l41.824 373.735h-203.969c-9.431 0-18.154 6.541-23.119 14.581s-5.438 19.309-1.235 27.743l279.526 563.885c4.676 9.431 14.16 15.158 24.196 15.158 2.627 0 5.281-0.367 7.881-1.156 12.663-3.783 20.807-17.418 19.283-30.579l-44.503-388.341h206.702zM168.964 383.816c0-151.506 97.939-280.498 233.63-326.447l-12.347-110.366c-190.177 53.489-330.046 229.058-330.046 436.811 0 228.349 168.976 417.791 387.974 449.028l-64.26-129.544c-125.891-51.045-214.951-175.019-214.951-319.485z" />
<glyph unicode="&#xe928;" glyph-name="money" d="M785.589-94.504h-635.755v508.12h874.167v-508.12h-238.412zM960.406 241.613l-25.932 25.511c-3.314-0.631-6.312-1.919-9.81-1.919-28.509 0-51.602 22.67-51.602 50.68 0 3.445 1.315 6.47 1.999 9.704l-25.906 25.485h-524.478l-25.958-25.538c0.684-3.235 1.999-6.206 1.999-9.652 0-28.010-23.039-50.707-51.548-50.707-3.498 0-6.549 1.262-9.837 1.946l-25.906-25.485v-164.14l25.932-25.511c3.314 0.631 6.312 1.919 9.81 1.919 28.509 0 51.575-22.67 51.575-50.68 0-3.419-1.315-6.47-1.973-9.704l25.906-25.485h524.478l25.958 25.538c-0.684 3.235-1.999 6.206-1.999 9.652 0 28.010 23.039 50.733 51.548 50.733 3.498 0 6.549-1.288 9.837-1.973l25.906 25.485v164.14zM845.186 108.823c-28.484 0-51.575 22.724-51.575 50.733s23.091 50.733 51.575 50.733c28.484 0 51.575-22.724 51.575-50.733s-23.091-50.733-51.575-50.733zM586.917 26.109c-86.16 0-155.987 59.754-155.987 133.447s69.827 133.422 155.987 133.422c86.16 0 155.987-59.727 155.987-133.422s-69.827-133.447-155.987-133.447zM328.65 108.849c-28.457 0-51.548 22.724-51.548 50.707 0 28.010 23.091 50.707 51.548 50.707s51.548-22.697 51.548-50.707c0-27.983-23.091-50.707-51.548-50.707zM734.014 605.897c28.457 0 51.523-22.697 51.523-50.68 0-28.010-23.066-50.707-51.523-50.707s-51.548 22.697-51.548 50.707c0 27.983 23.091 50.68 51.548 50.68zM644.277 506.825c6.128-10.967 9.6-22.67 11.887-34.585h-287.383c13.992 31.113 38.897 59.333 73.51 77.954 75.56 40.686 165.955 21.277 201.986-43.369zM831.799 472.239c4.102 11.362 11.835 21.619 23.486 27.878 3.050 1.631 6.39 1.973 9.521 2.919l10.309 34.637-80.163 143.914-35.242 10.152c-2.498-2.156-4.55-4.708-7.575-6.339-25.037-13.439-56.361-4.471-70.012 20.146-1.709 2.999-2.077 6.285-3.077 9.389l-35.163 10.099-459.992-247.801-1.447-4.997h-32.612c-32.876 0-59.596-26.274-59.596-58.623v-126.216l-90.236 162.088 766.757 413.019 217.267-390.269h-152.226z" />
<glyph unicode="&#xe929;" glyph-name="security" d="M899.907 212.185c-27.382-74.611-68.783-139.455-123.074-192.749-61.799-60.697-142.763-108.897-240.581-143.262-3.203-1.129-6.537-2.048-9.924-2.73-4.726-0.946-9.53-1.444-14.334-1.444-4.778 0-9.556 0.498-14.308 1.444-3.386 0.683-6.694 1.575-9.872 2.704-97.95 34.312-178.993 82.513-240.844 143.183-54.317 53.293-95.718 118.111-123.074 192.696-49.723 135.623-46.888 285.028-44.603 405.109l0.027 1.838c0.446 9.897 0.761 20.294 0.919 31.818 0.84 56.444 45.496 103.147 101.678 106.298 117.115 6.59 207.713 44.971 285.133 120.816l0.656 0.63c25.255 23.286 63.348 23.286 88.604 0l0.656-0.63c77.419-75.844 168.019-114.227 285.159-120.79 56.155-3.177 100.811-49.881 101.651-106.324 0.184-11.578 0.473-22 0.919-31.818l0.027-0.814c2.258-120.265 5.093-269.959-44.814-405.974zM511.994 639.188c-139.98 0-253.866-114.489-253.866-255.205s113.885-255.178 253.866-255.178c139.98 0 253.866 114.463 253.866 255.178s-113.885 255.205-253.866 255.205zM511.994 188.872c-107.033 0-194.088 87.527-194.088 195.111s87.055 195.111 194.088 195.111c107.007 0 194.088-87.527 194.088-195.111s-87.081-195.111-194.088-195.111zM627.218 463.215c-11.656 11.735-30.585 11.735-42.267 0l-117.902-118.532-32.029 32.16c-11.656 11.735-30.585 11.735-42.241 0-11.683-11.735-11.683-30.743 0-42.477l53.135-53.398c5.828-5.88 13.468-8.821 21.134-8.821 7.64 0 15.306 2.94 21.134 8.821l139.036 139.77c11.683 11.735 11.683 30.743 0 42.477z" />
<glyph unicode="&#xe92a;" glyph-name="transaction" d="M1018.794 367.227l-108.295-157.8c-5.535-8.018-14.613-12.828-24.338-12.828-7.32 0-14.251 2.69-19.579 7.424-1.785 1.578-3.388 3.414-4.785 5.406l-108.295 157.8c-6.208 9.053-6.906 20.821-1.81 30.52 5.121 9.751 15.183 15.829 26.149 15.829h28.089c-14.872 149.29-141.013 266.276-293.925 266.276-109.588 0-206.684-59.23-257.765-150.946l-43.349 63.161c-16.553 24.106-43.84 38.486-73.041 38.486-2.095 0-4.19-0.104-6.285-0.258 17.303 26.718 37.426 51.703 60.161 74.49 85.56 85.689 199.286 132.892 320.281 132.892 120.969 0 234.72-47.203 320.254-132.892 78.551-78.68 124.693-181.155 131.702-291.209h30.494c10.966 0 21.028-6.078 26.149-15.804 5.096-9.725 4.423-21.493-1.81-30.546zM489.503 413.576h45.004c41.125 0 74.542-33.495 74.542-74.671v-22.528c0-38.797-29.692-70.765-67.506-74.334v-15.855c0-16.346-13.217-29.563-29.538-29.563s-29.538 13.217-29.538 29.563v15.855c-37.814 3.569-67.532 35.538-67.532 74.334 0 16.32 13.243 29.563 29.563 29.563 16.295 0 29.538-13.243 29.538-29.563 0-8.561 6.932-15.519 15.467-15.519h45.004c8.536 0 15.467 6.958 15.467 15.519v22.528c0 8.536-6.932 15.493-15.467 15.493h-45.004c-41.125 0-74.567 33.495-74.567 74.671v22.554c0 38.797 29.719 70.765 67.532 74.309v15.855c0 16.346 13.217 29.589 29.538 29.589s29.538-13.243 29.538-29.589v-15.855c37.814-3.544 67.506-35.512 67.506-74.309 0-16.346-13.217-29.589-29.538-29.589-16.295 0-29.538 13.243-29.538 29.589 0 8.536-6.932 15.493-15.467 15.493h-45.004c-8.536 0-15.467-6.958-15.467-15.493v-22.554c0-8.536 6.932-15.493 15.467-15.493zM137.849 571.401c9.725 0 18.83-4.837 24.338-12.855l108.32-157.8c6.208-9.053 6.906-20.795 1.785-30.546-5.096-9.699-15.156-15.804-26.123-15.804h-28.089c14.872-149.29 141.013-266.276 293.925-266.276 109.562 0 206.684 59.23 257.765 150.971l43.349-63.187c16.527-24.106 43.84-38.486 73.016-38.486 2.12 0 4.216 0.104 6.311 0.258-17.303-26.718-37.452-51.703-60.187-74.49-85.534-85.689-199.286-132.866-320.254-132.866-120.994 0-234.72 47.177-320.281 132.866-78.524 78.68-124.667 181.155-131.702 291.209h-30.469c-10.966 0-21.028 6.104-26.149 15.829s-4.423 21.468 1.81 30.52l108.295 157.8c2.405 3.517 5.509 6.414 9.053 8.561 2.535 1.526 5.277 2.664 8.173 3.388 1.138 0.285 2.302 0.517 3.517 0.647 1.189 0.155 2.38 0.258 3.595 0.258z" />
<glyph unicode="&#xe92b;" glyph-name="user" d="M762.151 327.448l-123.78 30.162-10.518 41.105c33.101 31.98 55.8 75.869 62.489 120.957 18.368 5.027 32.599 20.379 35.034 39.636l8.082 63.031c1.702 13.264-2.475 26.759-11.524 36.813-5.298 5.917-11.987 10.402-19.412 13.148l2.977 59.318 12.104 11.832c18.174 18.871 33.255 51.198 1.74 98.181-24.246 36.079-65.39 54.369-122.389 54.369-22.467 0-74.245 0-122.426-31.592-137.623-2.785-156.378-65.119-156.378-125.946 0-14.153 3.519-46.017 5.839-65.235-8.275-2.552-15.816-7.27-21.693-13.805-9.203-10.171-13.457-23.666-11.755-37.123l8.082-63.031c2.63-20.534 18.638-36.697 38.863-40.564 6.69-43.31 28.19-85.807 59.396-117.245l-11.215-43.89-123.78-30.201c-81.012-19.682-137.547-247.87-137.547-329.346 0-8.7 7.231-15.777 16.125-15.777 0 0 183.137-110.246 371.534-110.246 183.021 0 371.534 110.246 371.534 110.246 8.894 0 16.125 7.115 16.125 15.816 0 81.437-56.535 309.625-137.508 329.385z" />
<glyph unicode="&#xe92c;" glyph-name="daily-sprint" d="M896-128h-768c-70.592 0-128 57.472-128 128v640c0 70.592 57.408 128 128 128h42.624v85.376c0 23.552 19.136 42.624 42.688 42.624h42.688c23.552 0 42.688-19.072 42.688-42.624v-85.376h426.624v85.376c0 23.552 19.136 42.624 42.688 42.624h42.688c23.552 0 42.624-19.072 42.624-42.624v-85.376h42.688c70.592 0 128-57.408 128-128v-640c0-70.528-57.408-128-128-128zM938.688 467.648h-853.376v-467.648c0-23.488 19.2-42.624 42.688-42.624h768c23.488 0 42.688 19.136 42.688 42.624v467.648zM864 256h-106.688c-17.664 0-32 14.336-32 32v106.688c0 17.664 14.336 32 32 32h106.688c17.664 0 32-14.336 32-32v-106.688c0-17.664-14.336-32-32-32zM565.312 0h-106.624c-17.664 0-32 14.336-32 32v106.688c0 17.664 14.336 32 32 32h106.624c17.664 0 32-14.336 32-32v-106.688c0-17.664-14.336-32-32-32zM565.312 256h-106.624c-17.664 0-32 14.336-32 32v106.688c0 17.664 14.336 32 32 32h106.624c17.664 0 32-14.336 32-32v-106.688c0-17.664-14.336-32-32-32zM266.688 0h-106.688c-17.664 0-32 14.336-32 32v106.688c0 17.664 14.336 32 32 32h106.688c17.664 0 32-14.336 32-32v-106.688c0-17.664-14.336-32-32-32zM266.688 256h-106.688c-17.664 0-32 14.336-32 32v106.688c0 17.664 14.336 32 32 32h106.688c17.664 0 32-14.336 32-32v-106.688c0-17.664-14.336-32-32-32z" />
<glyph unicode="&#xe92d;" glyph-name="regular-lottery" d="M493.969 727.129v-161.926c-16.384-2.805-31.521-9.305-44.522-18.744l-141.089 143.182c45.279 41.227 102.801 68.697 166.333 76.622l19.278-39.135zM584.081 457.149c0-40.337-32.323-73.149-72.081-73.149s-72.081 32.813-72.081 73.149c0 40.337 32.323 73.149 72.081 73.149s72.081-32.813 72.081-73.149zM283.115 663.552l140.867-142.915c-9.305-13.223-15.716-28.583-18.477-45.19h-199.012c4.051 71.546 32.189 137.127 76.622 188.104zM405.505 438.851c2.76-16.607 9.171-31.967 18.477-45.145l-140.555-142.648c-44.344 50.666-72.57 115.935-76.845 187.837l198.923-0.045zM449.448 367.839c13-9.439 28.138-15.939 44.522-18.744v-201.862c-70.834 4.185-135.168 32.857-185.077 77.958l140.555 142.648zM530.032 349.095c16.384 2.805 31.521 9.305 44.522 18.744l140.555-142.648c-49.909-45.101-114.243-73.728-185.077-77.958v201.862zM740.575 251.058l-140.511 142.603c9.261 13.223 15.672 28.583 18.432 45.19h198.923c-4.23-71.858-32.501-137.171-76.845-187.793v0zM618.497 475.448c-2.76 16.607-9.171 31.967-18.477 45.19l140.867 142.915c44.433-51.022 72.526-116.602 76.577-188.104h-198.968zM574.554 546.46c-13 9.439-28.138 15.939-44.522 18.744v161.926l19.278 39.135c63.533-7.88 121.010-35.395 166.333-76.622l-141.089-143.182zM572.951 896l-60.95-123.681-60.95 123.681h121.901zM746.274-109.702c0-10.062-8.103-18.298-18.031-18.298h-432.484c-9.928 0-18.031 8.237-18.031 18.298s8.103 18.254 18.031 18.254h432.484c9.928 0 18.031-8.192 18.031-18.254zM638.131-54.851h-252.26v111.527c39.802-13.045 82.143-20.079 126.13-20.079s86.328 7.034 126.13 20.079v-111.527zM512.001 73.149c-208.673 0-378.435 173.145-378.435 385.959 0 184.587 130.271 343.619 305.953 378.479l18.076-36.641c-163.617-26.713-288.011-172.077-288.011-343.352 0-191.8 153.6-347.893 342.417-347.893s342.372 156.093 342.372 347.893c0 171.231-124.394 316.594-287.967 343.307l18.076 36.686c175.683-34.861 305.953-193.892 305.953-378.479 0-212.814-169.761-385.959-378.435-385.959v0z" />
<glyph unicode="&#xe92e;" glyph-name="woo_choice" d="M642.184-127.591c-38.785 3.313-67.587 39.89-86.407 105.27-18.818 59.814-37.681 117.462-56.501 172.856-17.714-57.605-35.472-113-53.188-166.184-18.818-57.605-47.664-79.781-83.094-73.11-36.577 7.774-64.274 39.89-85.302 90.867-43.204 159.56-85.302 291.376-126.296 393.333-6.626 15.505-9.984 32.116-9.984 48.769 0 16.61 6.626 37.681 19.924 64.274s36.577 55.396 70.902 81.989c34.368 26.593 58.709 21.071 72.006-18.818 22.176-68.693 44.309-144.055 67.587-227.145 13.297 43.204 27.698 88.659 40.996 135.176 18.818 64.274 46.517 107.478 84.199 122.984s66.483-4.418 86.407-62.066c14.401-42.098 28.802-86.407 44.309-131.863 23.28 114.104 46.517 232.668 69.797 353.443 14.401 72.006 39.89 116.358 78.675 128.504 38.785 12.192 66.483 3.313 81.989-25.489 15.505-27.698 23.28-58.709 24.385-90.867 0-32.116-3.313-66.483-11.088-104.165-43.204-220.474-88.659-452.039-137.384-698.006-23.237-72.049-53.143-104.209-91.928-99.746z" />
<glyph unicode="&#xe92f;" glyph-name="slots" d="M923.77 843.166c-55.232 0-100.182-40.298-100.182-89.85 0-38.976 28.007-71.929 66.788-84.317v-245.069h-66.788v49.895c0 203.645-184.744 369.292-411.794 369.292s-411.794-165.647-411.794-369.292v-459.142c0-49.553 44.95-89.85 100.182-89.85h623.272c55.232 0 100.182 40.298 100.182 89.85v349.364h100.182c18.411 0 33.394 13.417 33.394 29.966v274.986c38.78 12.388 66.788 45.341 66.788 84.317-0.049 49.553-44.999 89.85-100.231 89.85zM191.453 583.702c33.051 83.583 121.579 139.696 220.391 139.696s187.34-56.163 220.391-139.696c6.17-15.571-2.938-32.708-20.321-38.242-17.236-5.533-36.43 2.547-42.649 18.215-23.601 59.737-86.864 99.839-157.421 99.839s-133.821-40.102-157.421-99.839c-6.17-15.571-25.266-23.797-42.649-18.215-17.383 5.533-26.49 22.622-20.321 38.242zM445.237 573.665c0-16.55-14.934-29.966-33.394-29.966s-33.394 13.417-33.394 29.966c0 16.55 14.934 29.966 33.394 29.966 18.411 0 33.394-13.417 33.394-29.966zM578.764 44.649h-333.891c-18.411 0-33.394 13.417-33.394 29.966s14.934 29.966 33.394 29.966h333.891c18.411 0 33.394-13.417 33.394-29.966s-14.934-29.966-33.394-29.966zM678.946 194.384c0-16.55-14.934-29.966-33.394-29.966h-467.467c-18.411 0-33.394 13.417-33.394 29.966v259.513c0 16.55 14.934 29.966 33.394 29.966h467.418c18.411 0 33.394-13.417 33.394-29.966l0.049-259.513zM391.767 438.62h89.018v-199.629h-89.018v199.629zM235.962 438.62h89.018v-199.629h-89.018v199.629zM547.622 438.62h89.018v-199.629h-89.018v199.629z" />
<glyph unicode="&#xe930;" glyph-name="arrow-bold" d="M461.333 115.283l-440.33 436.857c-28.005 27.782-28.005 72.839 0 100.577 28.005 27.782 73.418 27.782 101.423 0l389.574-386.546 389.574 386.546c28.050 27.782 73.418 27.782 101.423 0s28.005-72.839 0-100.621l-440.285-436.812c-14.024-13.891-32.368-20.837-50.711-20.837s-36.687 6.946-50.667 20.837z" />
<glyph unicode="&#xe931;" glyph-name="pwa" d="M192.4 896h651c15.8 0 28.6-12.8 28.6-28.6v-64.8c0-15.8-12.8-28.6-28.6-28.6h-662.8c-15.8 0-28.6 12.8-28.6 28.6v53c0 22.4 18 40.4 40.4 40.4zM510.8 204v0c9 0 15.4 8.8 12.6 17.4v0c-4 12-21.2 12-25.2 0v0c-2.8-8.6 3.6-17.4 12.6-17.4zM519.4 547.2c-5 4.2-12.2 4.2-17 0-89-75.2-169.2-134.4-169.2-200.4 0-47.2 31.8-82.8 73.8-82.8 17.4 0 32.4 6.4 45.6 19.2 4.8 4.6 12.2 5 17.4 0.8l11.8-9.4c1.2-1 2.6-1.8 4-2.2l20.8-7c2.8-1 5.6-1 8.4 0l20.4 6.8c1.4 0.4 2.8 1.2 4 2.2l11.8 9.4c5.2 4.2 12.8 3.8 17.4-0.8 13.2-12.8 28.2-19.2 45.6-19.2 42.2 0 73.8 35.6 73.8 82.8 0.6 68.2-84 129.2-168.6 200.6zM838.8 714h-655.4c-17.4 0-31.4-14-31.4-31.4v-591.2c0-20.6 16.6-37.2 37.2-37.2h645.4c20.6 0 37.2 16.6 37.2 37.2v589.4c0.2 18.4-14.6 33.2-33 33.2zM614.6 204c-1.2 0-2.2 0-3.4 0-9.2 0.4-16-8.8-13-17.6l8.4-25c2.8-8.6-3.6-17.4-12.6-17.4h-166.4c-9 0-15.4 8.8-12.6 17.4l8.4 25c3 8.8-3.8 18-13 17.6-1.2 0-2.2 0-3.4 0-75 0-133.8 62.6-133.8 142.8 0 101.4 98 165.8 218 270l11 9.6c5 4.4 12.4 4.4 17.4 0l11-9.6c115.8-100.6 218-168.2 218-270 0-80.2-58.8-142.8-134-142.8zM183-6h658c17 0 31-13.8 31-31v-58c0-18.2-14.8-33.2-33.2-33.2h-653.6c-18.2 0-33.2 14.8-33.2 33.2v58c0 17.2 13.8 31 31 31z" />
<glyph unicode="&#xe932;" glyph-name="slot-battle" d="M68.883 65.864l62.491 62.491 124.982-124.982-62.491-62.491-124.982 124.982zM29.115-98.885c34.086-34.086 90.896-34.086 124.982 0l-124.982 124.982c-39.767-34.086-39.767-90.896 0-124.982zM761.964 3.373l124.982 124.982 62.491-62.491-124.982-124.982-62.491 62.491zM869.903-98.885c34.086-34.086 90.896-34.086 124.982 0s34.086 90.896 0 124.982l-124.982-124.982zM847.178 173.803l-39.767 39.767 62.491 62.491c11.362 11.362 11.362 28.405 0 39.767s-28.405 11.362-39.767 0l-255.645-255.645c-11.362-11.362-11.362-28.405 0-39.767s28.405-11.362 39.767 0l62.491 62.491 39.767-39.767 130.662 130.662zM256.355 344.233l-39.767-39.767-17.043 22.724c-11.362 11.362-28.405 11.362-39.767 0s-11.362-28.405 0-39.767l62.491-62.491-45.448-45.448 124.982-124.982 45.448 45.448 62.491-62.491c11.362-11.362 28.405-11.362 39.767 0s11.362 28.405 0 39.767l-22.724 22.724 39.767 39.767-210.197 204.516zM994.885 895.29h-170.43c-5.681 0-17.043-5.681-22.724-11.362l-249.964-244.283 210.197-210.197 249.964 249.964c5.681 0 11.362 5.681 11.362 17.043v170.43c0 17.043-11.362 28.405-28.405 28.405v0zM222.27 883.927c-5.681 5.681-11.362 11.362-22.724 11.362h-170.43c-17.043 0-28.405-11.362-28.405-28.405v-170.43c0-5.681 5.681-17.043 11.362-22.724l545.375-545.375 210.197 210.197-545.375 545.375z" />
<glyph unicode="&#xe933;" glyph-name="the-drops-and-wins-network-promotion" d="M560.926 244.204l14.37-162.441v-4.373l1.25-7.497 44.359 11.871-16.869 174.311-43.109-11.871zM719.618 507.857c-6.786 2.515-14.625 3.97-22.804 3.97s-16.018-1.455-23.272-4.121l0.468 0.15-11.871-3.749-47.483-13.745-11.871-3.749v-9.996c4.373-54.355 9.372-108.71 14.37-163.065 16.487 2.047 31.468 6.671 45.169 13.485l-0.81-0.364c-0.555 16.268-1.9 31.59-4.014 46.667l0.265-2.308c0 6.872 0 10.621 0 16.869l31.239 8.747c67.475 23.117 68.1 95.59 30.614 111.209zM685.255 432.26l-29.364-8.747c0 14.37-3.749 26.865-3.749 40.61 9.599 4.002 20.766 7.065 32.399 8.666l0.714 0.080c15.619 0 20.617-31.239 0-40.61zM758.978 489.739c0-74.973 94.965-23.117 94.965-62.477 0-14.995-34.362-33.113-40.61-5.623-10.621 0-37.486-11.246-46.858-12.495 0-21.738 17.622-39.361 39.361-39.361v0c1.833-0.128 3.972-0.201 6.128-0.201 27.513 0 52.256 11.856 69.4 30.737l0.069 0.077c21.867 21.242 29.364 74.348-19.368 80.595-17.494 0-70.599-4.373-56.229 24.366 4.032 6.436 11.086 10.653 19.124 10.653 4.24 0 8.206-1.173 11.591-3.213l-0.101 0.057c1.726-2.655 3.396-5.731 4.826-8.939l0.172-0.433h11.871l23.741 7.497c8.122 0 16.244 0 6.872 18.743-17.494 36.862-76.222 20.617-101.213 0-6.983-5.349-12.966-11.531-17.941-18.483l-0.177-0.26c-2.959-6.201-4.963-13.413-5.607-21.012l-0.016-0.23zM917.67 219.213c0-22.492-34.987-33.113-40.61-8.747-14.664-2.853-27.242-6.309-39.43-10.591l1.944 0.595c-9.372 0-13.12 0-5.623-19.368 6.997-12.961 20.198-21.782 35.518-22.488l0.094-0.003c1.331-0.061 2.891-0.096 4.459-0.096 23.012 0 44.264 7.54 61.418 20.285l-0.276-0.196c34.362 25.616 43.734 83.095-7.497 91.217-14.37 0-58.104 0-58.104 13.12s0 12.495 7.497 17.494c3.458 2.539 7.799 4.064 12.495 4.064s9.038-1.524 12.555-4.105l-0.059 0.042s0-5.623 4.998-9.372 40.61 12.495 46.858 13.12c-0.671 21.118-17.618 38.065-38.673 38.734l-0.063 0.002c-1.277 0.058-2.774 0.092-4.279 0.092-13.783 0-26.915-2.79-38.862-7.835l0.656 0.246c-17.442-5.962-31.819-17.108-41.677-31.58l-0.182-0.284c-13.745-19.368-16.244-62.477 24.991-71.224 5.332-0.447 11.539-0.702 17.806-0.702s12.475 0.255 18.613 0.755l-0.807-0.053c10.621 0 24.991 0 24.991-13.12zM357.875 297.934s-4.373 0-4.998 7.497 4.998 3.749 11.246 9.996c13.267 11.395 21.674 28.126 21.867 46.824v0.033c0.029 0.592 0.045 1.285 0.045 1.983 0 23.070-17.863 41.968-40.513 43.617l-0.142 0.008h-3.749c-19.266-3.011-36.506-7.8-52.868-14.32l1.637 0.575c-16.869-4.373-31.863-10.621-48.107-14.37v-27.49c0-37.486 6.248-74.973 9.996-111.834s0-36.237 10.621-33.113l36.862 9.996c0 24.366-4.998 42.484-4.998 66.226 4.998 0 3.749 0 8.747 0s6.872-8.747 9.996-13.745l33.113-39.985 49.357 14.37zM310.392 322.3l-16.244-4.998c0 13.745 0 28.115 0 41.235l14.37 4.373c14.995 4.373 35.612 10.621 35.612-13.12s-19.993-23.741-33.738-27.49zM287.276-4.455l-34.362 23.741 10.621 28.739c3.8 7.94 7.617 17.668 10.787 27.683l0.459 1.681-36.237-9.996c-8.747 0-8.122 0-11.871-11.246-2.143-4.429-4.264-9.81-6.008-15.359l-0.24-0.885c-19.396 10.246-35.74 20.398-51.336 31.532l1.354-0.919c-32.488 23.741 11.871 44.984 13.745 21.242l10.621 3.124 19.993 5.623 11.871 3.124c0 38.111-48.732 45.608-86.218 18.118-13.458-9.341-22.614-24.068-24.346-40.993l-0.020-0.242c0-11.246 4.373-29.364 14.37-32.488 0-5.623-6.248-5.623-9.996-10.621-12.661-12.183-20.525-29.271-20.525-48.197 0-7.106 1.109-13.952 3.162-20.376l-0.131 0.473c6.203-13.991 19.697-23.71 35.531-24.363l0.081-0.003c1.587-0.080 3.447-0.125 5.317-0.125 26.664 0 51.173 9.229 70.507 24.666l-0.227-0.175c6.248 4.373 10.621 10.621 15.619 13.745 18.743-12.495 14.37-11.246 31.863-5.623 6.872 0 30.614 8.122 35.612 10.621s-1.874 3.124-9.996 7.497zM162.322-16.95c-0.13-0.002-0.283-0.004-0.436-0.004-5.215 0-10.048 1.639-14.011 4.429l0.077-0.052c-11.246 8.122-3.749 27.49 9.372 39.361l19.993-12.495 20.617-11.871c-8.695-10.242-20.872-17.297-34.681-19.331l-0.306-0.037zM584.667 414.766l-3.749 8.122c-3.22 6.43-6.965 11.971-11.326 16.962l0.080-0.093h-3.124c-1.546 3.207-3.651 5.911-6.213 8.094l-0.034 0.028c-12.85 8.55-28.641 13.643-45.62 13.643-10.080 0-19.74-1.795-28.679-5.082l0.576 0.185c-45.682-14.677-78.636-55.652-81.208-104.675l-0.012-0.287c0-82.47 88.718-99.963 148.071-45.608v0 0c15.752 15.426 26.875 35.521 31.131 58.044l0.108 0.684c2.14 7.493 3.37 16.098 3.37 24.991s-1.23 17.498-3.53 25.655l0.16-0.664zM541.558 359.162c-5.876-24.889-27.902-43.127-54.187-43.127-0.499 0-0.996 0.007-1.491 0.020l0.073-0.002c-41.235 0-51.231 76.847 0 98.714 41.235 16.869 64.976-16.869 55.605-55.605zM216.677 324.175c-4.342 6.914-9.753 12.723-16.071 17.372l-0.173 0.121c-40.61 28.115-93.091-1.25-139.949-9.996v-21.867l13.12-143.073c0-14.37 0-10.621 27.49 0l13.12 4.373 13.12 3.124c8.747 3.124 16.869 4.373 24.991 8.122 8.651 3.107 16.071 6.688 23.044 10.933l-0.552-0.312c27.906 15.764 47.592 43.281 52.411 75.651l0.070 0.571c0.507 3.537 0.796 7.621 0.796 11.772 0 15.889-4.237 30.789-11.642 43.631l0.225-0.423zM161.072 224.211c-8.99-7.251-20.015-12.342-32.087-14.316l-0.401-0.054-11.871-3.124c0 6.872 0 17.494 0 24.366-4.998 24.366-5.623 46.233-9.372 73.098v0c11.96 4.799 25.805 7.938 40.274 8.732l0.337 0.015c0.562 0.032 1.219 0.050 1.881 0.050 19.668 0 35.612-15.944 35.612-35.612 0-0.237-0.002-0.474-0.007-0.71l0.001 0.035c0.445-2.536 0.699-5.456 0.699-8.436 0-18.639-9.953-34.952-24.835-43.916l-0.231-0.129zM747.732 298.559c0-19.368 8.747-84.969 9.372-104.962-23.741 24.366-46.233 49.357-69.974 73.098-1.874 2.499-1.874 8.122-8.747 11.246l-38.736-8.747c-4.373 0-5.623 0-4.373-14.995 5.623-62.477 9.996-104.337 14.37-156.818 0-6.872 8.747 0 22.492 0 8.763 1.964 16.479 4.759 23.703 8.389l-0.586-0.267c0 16.244 0 16.869-4.998 50.606 0 13.745 0 18.118-3.124 38.111-0.824 3.538-1.487 7.804-1.851 12.156l-0.023 0.339 19.993-19.368 59.353-62.477 44.359 13.12-16.244 174.311zM517.192-87.55c-2.544-0.093-5.533-0.146-8.534-0.146-15.532 0-30.734 1.417-45.482 4.129l1.535-0.234h-15.619c-34.38 6.904-64.903 17.708-93.242 32.178l2.026-0.939c-16.244 8.122-9.372 8.747-38.736 0l-28.115-8.122c25.721-17.838 55.256-33.047 86.719-44.175l2.623-0.809 25.616-8.122 13.12-3.749c27.033-6.404 58.071-10.075 89.967-10.075s62.934 3.671 92.715 10.615l-2.748-0.54c9.996 0 19.368 4.373 28.739 7.497l26.865 4.373 24.991 11.246 24.366 11.871 22.492 13.745c13.519 8.826 25.132 17.46 36.202 26.721l-0.59-0.48 5.623 4.373c19.436 16.896 36.84 35.093 52.463 54.767l0.642 0.838c17.858 22.513 33.887 47.939 47.035 75.024l1.072 2.448c2.24 3.942 4.158 8.506 5.516 13.305l0.107 0.44c-10.032-1.249-19.113-3.441-27.768-6.529l0.903 0.281c-28.739-9.372-23.741 0-33.113-19.368-23.935-39.641-53.93-73.021-89.116-99.962l-0.851-0.626c-56.786-43.967-128.997-70.509-207.403-70.599h-0.021zM479.081 96.133c-4.072 7.643-7.69 16.558-10.375 25.868l-0.246 0.997-24.991 69.35c-1.973 4.16-3.497 8.989-4.33 14.051l-0.043 0.319c-16.371-3.006-30.438-6.685-44.089-11.271l2.23 0.65c-11.246-3.124-8.122-3.749-9.996-16.869l-6.872-45.608c0-8.122 0-14.995 0-23.741l-7.497-47.483-35.612 114.333-48.107-13.12 62.477-161.191 48.732 13.745c4.998 0 4.373 0 5.623 7.497l16.244 111.209c9.191-19.471 18.928-44.079 27.293-69.313l1.446-5.035 8.747-25.616 54.355 14.37 29.989 187.431c-15.796-3.143-29.209-6.812-42.243-11.297l2.258 0.675c-9.372 0-8.747-4.373-9.372-15.619-6.872-36.862-13.12-78.096-15.619-114.333zM152.95 407.894l19.993 4.998h6.872l12.495 3.749c18.118 5.623 9.996 0 19.368 15.619l6.872 11.871c64.379 97.942 173.759 161.711 298.034 161.711 57.34 0 111.509-13.576 159.469-37.688l-2.045 0.931c21.242-11.246 10.621-13.745 44.359 0l29.364 9.372c0 3.749 0 0-3.749 4.373l-5.623 4.373c-62.037 42.242-138.622 67.446-221.094 67.446-39.203 0-77.076-5.695-112.837-16.303l2.802 0.713c-117.717-33.015-210.602-118.303-253.399-228.578l-0.883-2.587zM313.516 861.478c0.458-33.107 2.715-65.164 6.681-96.689l-0.433 4.222 12.495-78.721c-6.348 12.609-13.626 23.48-22.055 33.338l0.188-0.225c-19.386 18.786-44.038 32.243-71.53 37.947l-0.943 0.164c-3.097 0.446-6.673 0.7-10.309 0.7s-7.212-0.255-10.712-0.747l0.403 0.046s0 0 0 0v0c29.545-19.091 53.834-43.779 71.905-72.745l0.569-0.978c5.523-8.218 11.131-17.83 16.15-27.791l0.719-1.574c4.373-9.372 11.246-29.364 13.12-32.488l29.989 18.118c20.548 10.043 44.412 18.054 69.423 22.83l1.801 0.286c12.399 2.253 27.033 3.822 41.93 4.358l0.555 0.016c0 5.623 0 10.621-4.373 15.619-2.346 10.422-4.124 22.826-4.959 35.487l-0.040 0.749c-0.769 7.421-1.208 16.035-1.208 24.752 0 36.213 7.57 70.658 21.213 101.838l-0.638-1.636c-17.755-13.356-32.087-30.286-42.106-49.795l-0.379-0.812c-10.67-21.507-16.913-46.834-16.913-73.62 0-1.354 0.016-2.705 0.048-4.051l-0.004 0.2v4.998c-27.468 64.405-60.561 119.956-99.957 170.34l1.244-1.651c-1.192-9.75-1.873-21.039-1.874-32.486v-0.002z" />
<glyph unicode="&#xe934;" glyph-name="wheel" d="M912 438c0 91.273-31.547 180.547-88.844 251.375-51.781 64.023-122.586 110.773-201.156 133.273v73.352h-220v-73.352c-77.891-22.297-148.102-68.367-199.805-131.609-58.164-71.133-90.195-161-90.195-253.039 0-160.633 95.188-299.43 232.109-363.008l-26.977-142.992h-57.133v-60h504v60h-57.133l-26.977 142.992c136.922 63.578 232.109 202.375 232.109 363.008zM776.508 651.648c42.383-52.406 68.18-116.695 74.148-183.648h-253.813c-3.734 10.508-9.359 20.117-16.469 28.43l126.914 219.828c25.813-18.133 49.188-39.844 69.219-64.609zM462 836h100v-31.57l-50-50-50 50zM417.039 764.539l94.961-94.969 94.977 94.977c16.586-4.828 32.766-10.938 48.391-18.234l-126.93-219.844c-5.336 0.992-10.82 1.531-16.438 1.531s-11.102-0.539-16.437-1.531l-126.922 219.836c15.617 7.297 31.797 13.398 48.398 18.234zM542 438c0-16.539-13.461-30-30-30s-30 13.461-30 30 13.461 30 30 30 30-13.461 30-30zM248.641 653.055c19.789 24.203 42.75 45.445 68.055 63.219l126.93-219.844c-7.109-8.313-12.742-17.922-16.469-28.43h-253.813c6.016 67.578 32.219 132.367 75.297 185.055zM316.75 159.812c-79.781 56.164-134.406 145.727-143.414 248.188h253.82c3.734-10.508 9.359-20.117 16.469-28.43zM378.188-68l22.953 121.641c35.219-10.172 72.414-15.641 110.859-15.641s75.641 5.469 110.859 15.641l22.953-121.641zM512 98c-51.187 0-99.75 11.391-143.336 31.734l126.898 219.797c5.336-0.984 10.82-1.531 16.437-1.531s11.102 0.539 16.438 1.531l126.898-219.797c-43.586-20.344-92.148-31.734-143.336-31.734zM707.25 159.812l-126.875 219.758c7.109 8.313 12.742 17.922 16.469 28.43h253.82c-9.008-102.461-63.633-192.023-143.414-248.188z" />
<glyph unicode="&#xe935;" glyph-name="cashdays" horiz-adv-x="1006" d="M556.138 896c-18.762-0.089-37.125-1.434-55.112-3.954l2.146 0.246c-15.879 2.318-34.246 3.665-52.918 3.708h-0.048c-133.547-2.028-251.948-65.146-328.756-162.58l-0.689-0.907c-0.723-0.796-1.418-1.659-2.061-2.563l-0.058-0.086c-25.405-31.327-47.747-66.841-65.582-104.888l-1.331-3.161c-0.436-0.745-0.852-1.618-1.196-2.527l-0.040-0.122c-11.304-24.055-21.905-52.805-30.136-82.54l-0.938-3.97c-0.627-1.579-1.121-3.424-1.397-5.34l-0.016-0.133c-11.439-42.899-18.008-92.151-18.008-142.936 0-0.087 0-0.174 0-0.261v0.014c-0.001-0.402-0.002-0.877-0.002-1.353 0-77.965 15.704-152.262 44.122-219.9l-1.395 3.741 0.883-2.119c17.537-41.403 38.065-77.072 62.283-109.848l-1.020 1.445c0.658-0.93 1.296-1.735 1.972-2.506l-0.030 0.034c24.545-32.977 52.082-61.635 82.801-86.522l0.885-0.694c0.864-0.954 1.852-1.773 2.943-2.439l0.058-0.033c69.472-56.74 159.005-91.293 256.593-91.806h0.114c18.72 0.043 37.086 1.389 55.060 3.953l-2.094-0.245c15.84-2.274 34.204-3.619 52.864-3.707h0.101c248.232 0 450.207 229.517 450.207 512s-201.975 512-450.207 512zM860.16 539.366c1.708 0.606 3.679 0.956 5.731 0.956 7.69 0 14.232-4.917 16.654-11.779l0.038-0.124c3.884-11.476 7.415-23.305 10.24-35.31 0.259-1.133 0.407-2.435 0.407-3.771 0-8.138-5.506-14.99-12.995-17.034l-0.124-0.029c-0.662-0.082-1.429-0.129-2.207-0.129s-1.544 0.047-2.298 0.138l0.091-0.009c-0.153-0.005-0.333-0.007-0.514-0.007-8.249 0-15.177 5.657-17.115 13.303l-0.026 0.122c-2.648 10.77-5.826 21.539-9.534 32.132-0.408 1.414-0.642 3.039-0.642 4.718 0 7.836 5.104 14.479 12.17 16.786l0.125 0.035zM87.040 154.483h66.913c2.648-6.179 5.473-12.535 8.474-17.655 1.412-2.648 2.648-5.297 4.061-7.768 3.531-7.239 7.239-14.124 11.299-21.010l4.237-7.768c3.178-5.297 6.356-10.417 9.71-15.537h-63.382c-14.446 20.072-28.191 42.919-40.033 66.875l-1.28 2.863zM79.448 595.862h67.090c-3.178-7.768-6.179-15.537-8.828-23.481-0.883-2.119-1.589-4.237-2.295-6.532-2.648-7.592-4.943-15.183-7.239-22.952h-68.855c6.935 21.683 13.759 39.222 21.466 56.277l-1.339-3.311zM142.124 701.793h60.91l-6.532-9.357c-5.12-7.768-10.24-15.713-15.007-23.834l-4.237-7.768c-4.061-6.886-7.768-13.771-11.299-21.010-1.412-2.472-2.648-5.12-4.061-7.768v-0.883h-66.030c14.468 26.949 29.625 50.054 46.548 71.713l-0.822-1.092zM429.197 715.388c-2.309-1.208-5.041-1.924-7.939-1.942h-0.006c-0.021 0-0.046 0-0.072 0-9.751 0-17.655 7.904-17.655 17.655 0 6.812 3.858 12.723 9.508 15.667l0.098 0.046c9.047 4.812 20.218 9.863 31.709 14.269l2.189 0.737c1.845 0.715 3.979 1.129 6.211 1.129 7.557 0 14.005-4.748 16.524-11.424l0.040-0.122c0.678-1.801 1.071-3.882 1.071-6.056 0-7.535-4.721-13.968-11.366-16.502l-0.121-0.041c-12.388-4.58-22.517-9.099-32.316-14.169l1.596 0.751zM437.672 28.601c-2.972-5.806-8.913-9.711-15.767-9.711-0.043 0-0.086 0-0.129 0h0.007c-0.058-0.001-0.127-0.001-0.196-0.001-2.837 0-5.506 0.72-7.835 1.986l0.086-0.043c-12.878 6.306-23.341 12.181-33.468 18.541l1.512-0.886c-4.857 3.214-8.016 8.653-8.016 14.83 0 9.79 7.936 17.727 17.727 17.727 3.613 0 6.974-1.081 9.776-2.937l-0.066 0.041c8.001-5.412 17.361-10.927 27.056-15.879l1.546-0.717c5.385-3.092 8.953-8.81 8.953-15.362 0-2.758-0.633-5.369-1.761-7.695l0.046 0.105zM231.989 296.783c1.319 0.353 2.833 0.555 4.394 0.555 8.256 0 15.188-5.666 17.119-13.322l0.026-0.122c2.648-10.77 5.826-21.716 9.357-32.132 0.606-1.708 0.956-3.679 0.956-5.731 0-7.69-4.917-14.232-11.779-16.654l-0.124-0.038c-1.68-0.511-3.617-0.83-5.621-0.882l-0.029-0.001c-0.014 0-0.030 0-0.046 0-7.729 0-14.298 4.966-16.69 11.882l-0.037 0.124c-3.884 11.299-7.415 23.128-10.24 35.31-0.283 1.183-0.445 2.541-0.445 3.937 0 8.151 5.524 15.012 13.033 17.044l0.124 0.028zM206.036 384v0c0 12.006 0 24.188 1.412 35.31 0.818 9.065 8.38 16.114 17.588 16.114 0.459 0 0.913-0.017 1.363-0.052l-0.060 0.004c9.145-0.731 16.29-8.332 16.29-17.602 0-0.454-0.017-0.903-0.051-1.348l0.004 0.059c-0.883-10.946-1.236-22.069-1.236-33.192 0-9.751-7.904-17.655-17.655-17.655v0c-0.004 0-0.009 0-0.014 0-9.751 0-17.655 7.904-17.655 17.655 0 0.248 0.005 0.496 0.015 0.741l-0.001-0.035zM262.709 515.884c-2.422-7.052-8.997-12.030-16.735-12.030-0.324 0-0.645 0.009-0.965 0.026l0.045-0.002c-2.028 0.039-3.967 0.359-5.798 0.922l0.149-0.039c-7.068 2.413-12.060 8.996-12.060 16.745 0 2.032 0.343 3.984 0.975 5.801l-0.038-0.124c3.884 11.476 8.474 22.952 13.241 34.074 2.778 6.328 8.989 10.667 16.213 10.667 2.566 0 5.004-0.547 7.203-1.532l-0.112 0.045c6.248-2.811 10.519-8.981 10.519-16.149 0-2.591-0.558-5.051-1.56-7.267l0.045 0.111c-3.531-10.593-7.592-21.892-11.123-31.603zM282.659 166.841c2.773 1.899 6.201 3.032 9.893 3.032 6.074 0 11.432-3.067 14.608-7.737l0.039-0.061c6.356-9.181 13.065-17.655 19.95-26.659 2.502-3.024 4.020-6.943 4.020-11.216 0-5.502-2.516-10.416-6.461-13.653l-0.031-0.025c-3.024-2.502-6.943-4.020-11.216-4.020-5.502 0-10.416 2.516-13.653 6.461l-0.025 0.031c-7.592 9.357-15.007 19.244-21.892 29.308-1.899 2.773-3.032 6.201-3.032 9.893 0 6.074 3.067 11.432 7.737 14.608l0.061 0.039zM326.621 631.172c-3.239-3.97-8.118-6.495-13.588-6.532h-0.006c-4.245 0.035-8.126 1.563-11.151 4.084l0.028-0.023c-4.038 3.263-6.598 8.214-6.598 13.764 0 4.234 1.49 8.12 3.975 11.161l-0.025-0.032c8.128 9.863 16.207 18.726 24.701 27.172l0.017 0.017c3.201 3.223 7.635 5.218 12.535 5.218 9.756 0 17.665-7.909 17.665-17.665 0-4.856-1.959-9.255-5.131-12.448l0.001 0.001c-7.768-7.062-15.183-15.183-22.422-24.717zM35.31 384c0 11.829 0 23.658 1.412 35.31h70.621v-0.883c0-11.299-1.059-22.775-1.059-34.428 0-5.826 0-11.829 0-17.655h-70.621c0.177 5.826-0.353 11.652-0.353 17.655zM108.403 331.034c0-7.415 1.412-14.83 2.472-22.246-0.037-0.239-0.058-0.514-0.058-0.794s0.021-0.556 0.062-0.825l-0.004 0.030c1.236-9.71 2.825-19.421 4.59-29.131h-69.385c-3.123 14.374-5.926 32.445-7.769 50.799l-0.176 2.167zM119.349 507.586c0-2.119 0-4.237-1.412-6.356s0-4.59-1.412-6.886c-2.119-11.123-4.061-22.246-5.473-33.545-0.046-0.265-0.072-0.571-0.072-0.883s0.026-0.617 0.076-0.915l-0.004 0.032v-4.414h-70.621c2.596 20.857 5.878 38.846 10.061 56.486l-0.704-3.521zM123.41 242.759c0-2.119 1.059-4.414 1.766-6.532v-2.295c3.001-10.77 6.179-21.363 9.71-31.779 0-2.295 1.589-4.414 2.295-6.532s1.236-3.884 1.942-5.826h-67.443c-5.845 13.941-11.872 31.563-16.865 49.616l-0.79 3.35zM503.172 8.121c1.038 8.853 8.495 15.657 17.542 15.657 0.724 0 1.439-0.044 2.14-0.128l-0.085 0.008c9.428-1.239 20.33-1.946 31.397-1.946 0.507 0 1.013 0.001 1.52 0.004h-0.078c9.751 0 17.655-7.904 17.655-17.655v0c0-0.007 0-0.014 0-0.022 0-9.44-7.409-17.15-16.729-17.631l-0.043-0.002h-0.353c-0.025 0-0.056 0-0.086 0-13.034 0-25.888 0.77-38.519 2.266l1.529-0.147c-9.015 0.871-16.006 8.408-16.006 17.578 0 0.712 0.042 1.413 0.124 2.103l-0.008-0.083zM589.859 744.342h-2.119c-9.433 1.183-20.405 1.887-31.53 1.942h-0.073c-9.751 0-17.655 7.904-17.655 17.655v0c0 9.751 7.904 17.655 17.655 17.655v0 0c12.522-0.066 24.794-0.77 36.885-2.081l-1.574 0.138c9.339-0.529 16.711-8.231 16.711-17.655 0-9.765-7.916-17.682-17.682-17.682-0.342 0-0.681 0.010-1.018 0.029l0.047-0.002zM369.17 850.273l-17.655-9.534-9.534-5.65c-4.943-3.001-9.71-6.179-14.477-9.357h-33.015c23.097 11.238 50.032 20.715 78.153 27.062l2.532 0.48c-1.766-1.236-3.531-2.472-5.473-3.354zM233.578 790.069h48.728c-4.237-3.884-8.651-7.592-12.888-11.652l-10.593-10.417-10.24-10.593c-3.354-3.531-6.532-6.886-9.71-10.593l-8.298-9.71h-58.262c18.415 19.265 38.448 36.665 59.987 52.096l1.276 0.869zM155.719 48.552h60.734c1.942-2.648 3.884-5.297 6.003-7.768q7.945-10.063 16.419-19.597c3.178-3.708 6.356-7.062 9.71-10.593l10.417-10.77 4.061-4.237h-52.966c-19.898 16.357-37.684 33.694-53.913 52.417l-0.465 0.548zM375.172-84.921c-43.172 9.585-81.35 25.192-115.923 46.151l1.694-0.953h42.726l6.886-5.12 11.123-7.945c6.886-4.943 13.948-9.534 21.186-13.948l9.534-5.65 17.655-9.534c1.589-0.883 3.354-2.119 5.12-3.001zM700.381 21.010c-9.047-4.812-20.218-9.863-31.709-14.269l-2.189-0.737c-1.747-0.782-3.786-1.238-5.932-1.238-0.087 0-0.174 0.001-0.261 0.002h0.013c-0.047 0-0.102-0.001-0.158-0.001-9.751 0-17.655 7.904-17.655 17.655 0 7.59 4.79 14.062 11.511 16.557l0.122 0.040c12.107 4.603 21.995 9.117 31.56 14.161l-1.546-0.744c2.344 1.229 5.12 1.949 8.064 1.949 6.856 0 12.799-3.908 15.724-9.618l0.046-0.1c1.078-2.217 1.708-4.823 1.708-7.575 0-6.69-3.721-12.512-9.207-15.507l-0.092-0.046zM735.691 704.265c-3.184-4.907-8.632-8.111-14.829-8.121h-0.002c-3.544 0.009-6.841 1.062-9.601 2.866l0.068-0.041c-7.934 5.326-17.291 10.838-26.963 15.828l-1.638 0.768c-5.848 2.958-9.787 8.922-9.787 15.805 0 2.861 0.681 5.564 1.889 7.954l-0.046-0.101c2.971 5.81 8.914 9.718 15.77 9.718 2.945 0 5.721-0.721 8.162-1.996l-0.097 0.046c12.878-6.306 23.341-12.181 33.468-18.541l-1.512 0.886c4.732-3.216 7.799-8.574 7.799-14.648 0-3.692-1.133-7.12-3.071-9.953l0.039 0.061zM813.727 113.699c-7.768-9.534-15.89-18.714-24.364-27.366-3.19-3.253-7.624-5.276-12.531-5.297h-0.004c-0.030 0-0.067 0-0.103 0-9.751 0-17.655 7.904-17.655 17.655 0 4.901 1.997 9.335 5.222 12.534l0.001 0.001c7.592 7.768 15.007 16.066 22.069 24.717 3.25 4.395 8.414 7.214 14.237 7.214 9.751 0 17.655-7.904 17.655-17.655 0-4.546-1.718-8.691-4.54-11.82l0.014 0.016zM819.553 598.157c-0.008 0-0.017 0-0.027 0-6.061 0-11.409 3.054-14.588 7.708l-0.039 0.061c-6.852 10.153-13.408 18.842-20.372 27.179l0.422-0.519c-2.528 3.044-4.062 6.993-4.062 11.299 0 9.8 7.945 17.745 17.745 17.745 5.494 0 10.404-2.496 13.659-6.417l0.024-0.029c7.592-9.357 15.007-19.244 21.892-29.484 1.899-2.773 3.032-6.201 3.032-9.893 0-6.074-3.067-11.432-7.737-14.608l-0.061-0.039c-2.591-1.577-5.723-2.51-9.074-2.51-0.41 0-0.817 0.014-1.221 0.042l0.055-0.003zM883.641 241.346c-3.884-11.476-8.298-22.952-13.065-34.074-2.794-6.288-8.985-10.593-16.181-10.593-0.022 0-0.043 0-0.065 0h0.003c-2.553 0.046-4.974 0.561-7.197 1.461l0.135-0.048c-6.2 2.83-10.431 8.976-10.431 16.109 0 2.811 0.657 5.469 1.826 7.828l-0.046-0.103c4.414 10.063 8.474 20.657 12.006 31.25 2.431 7.064 9.020 12.049 16.772 12.049 9.775 0 17.698-7.924 17.698-17.698 0-2.022-0.339-3.964-0.963-5.774l0.037 0.124zM905.004 348.69c-0.665-9.204-8.296-16.419-17.612-16.419-0.015 0-0.030 0-0.046 0h-1.41c-9.145 0.731-16.29 8.332-16.29 17.602 0 0.454 0.017 0.903 0.051 1.348l-0.004-0.059c0.883 10.77 1.236 21.716 1.236 32.486 0 9.751 7.904 17.655 17.655 17.655v0c9.751 0 17.655-7.904 17.655-17.655v0 0.353c0-11.829-0.353-23.481-1.236-35.31z" />
<glyph unicode="&#xe936;" glyph-name="bgaming-slot-battle" d="M512 714c-182 0-330-148-330-330s148-330 330-330 330 148 330 330-148 330-330 330zM768.78 467.44c0.931-2.768 1.468-5.956 1.468-9.269 0-8.413-3.463-16.018-9.042-21.465l-0.006-0.006-102.86-100.24 24.28-141.54c0.272-1.518 0.428-3.265 0.428-5.049 0-16.569-13.431-30-30-30-5.093 0-9.889 1.269-14.090 3.508l0.162-0.079-127.12 66.7-127.12-66.8c-4.039-2.16-8.835-3.429-13.928-3.429-16.569 0-30 13.431-30 30 0 1.784 0.156 3.531 0.454 5.229l-0.026-0.18 24.26 141.54-102.84 100.34c-5.585 5.453-9.048 13.058-9.048 21.471 0 15.047 11.078 27.507 25.524 29.668l0.165 0.020 142 20.66 63.58 128.76c10 20.5 43.72 20.5 53.8 0l63.56-128.76 142-20.66c11.429-1.706 20.646-9.654 24.159-20.208l0.061-0.212zM555.66 467.82l-43.66 88.42-43.66-88.42c-4.371-8.708-12.618-14.912-22.415-16.38l-0.165-0.020-97.56-14.18 70.6-68.86c5.586-5.454 9.051-13.059 9.051-21.474 0-1.79-0.157-3.543-0.457-5.246l0.026 0.18-16.64-97.14 87.22 45.84c4.036 2.192 8.838 3.48 13.94 3.48s9.904-1.288 14.097-3.558l-0.157 0.078 87.28-45.84-16.66 97.14c-0.276 1.528-0.434 3.287-0.434 5.083 0 8.406 3.458 16.005 9.028 21.452l70.646 68.865-97.56 14.18c-9.97 1.467-18.225 7.679-22.502 16.227l-0.078 0.173zM512 896c-281.66 0-512-230.34-512-512s230.34-512 512-512 512 230.34 512 512-230.34 512-512 512zM512-6c-215.040 0-390 174.96-390 390s174.96 390 390 390 390-174.96 390-390-174.96-390-390-390z" />
<glyph unicode="&#xe937;" glyph-name="game-show" d="M0 701.793h158.897v-70.621h-158.897zM39.724 896h119.172v-158.897h-158.897v119.172c0 21.939 17.785 39.724 39.724 39.724v0zM0 489.931h158.897v-70.621h-158.897zM0 384h158.897v-70.621h-158.897zM194.207 172.138h70.621v-158.897h-70.621zM406.069 172.138h70.621v-158.897h-70.621zM512 172.138h70.621v-158.897h-70.621zM300.138 172.138h70.621v-158.897h-70.621zM406.069 896h70.621v-158.897h-70.621zM0 278.069h158.897v-70.621h-158.897zM759.172 507.586h123.586v88.276h-158.897v-116.281l22.819 22.841c3.194 3.191 7.605 5.164 12.477 5.164 0.005 0 0.010 0 0.015 0h-0.001zM512 896h70.621v-158.897h-70.621zM723.862 896h119.172c21.939 0 39.724-17.785 39.724-39.724v0-119.172h-158.897zM723.862 701.793h158.897v-70.621h-158.897zM0 172.138h158.897v-158.897h-119.172c-21.939 0-39.724 17.785-39.724 39.724v0zM194.207 896h70.621v-158.897h-70.621zM617.931 13.241h52.966v158.897h-52.966zM300.138 896h70.621v-158.897h-70.621zM0 595.862h158.897v-70.621h-158.897zM794.483-57.379c0-9.751-7.904-17.655-17.655-17.655s-17.655 7.904-17.655 17.655c0 9.751 7.904 17.655 17.655 17.655s17.655-7.904 17.655-17.655zM617.931 896h70.621v-158.897h-70.621zM900.414 48.552c0-9.751-7.904-17.655-17.655-17.655s-17.655 7.904-17.655 17.655c0 9.751 7.904 17.655 17.655 17.655s17.655-7.904 17.655-17.655zM706.207 154.483h247.172v247.172h-247.172zM829.793 331.034c29.252 0 52.966-23.713 52.966-52.966s-23.713-52.966-52.966-52.966c-29.252 0-52.966 23.713-52.966 52.966v0c0 29.252 23.713 52.966 52.966 52.966v0zM766.477 472.276l-35.31-35.31h232.563l35.31 35.31zM847.448 278.069c0-9.751-7.904-17.655-17.655-17.655s-17.655 7.904-17.655 17.655c0 9.751 7.904 17.655 17.655 17.655s17.655-7.904 17.655-17.655zM706.207-128h207.448c21.939 0 39.724 17.785 39.724 39.724v0 207.448h-247.172zM878.345 101.341c1.271 0.108 2.75 0.17 4.244 0.17 29.252 0 52.966-23.713 52.966-52.966s-23.713-52.966-52.966-52.966c-29.252 0-52.966 23.713-52.966 52.966 0 1.494 0.062 2.973 0.183 4.435l-0.013-0.192c2.145 25.906 22.646 46.407 48.36 48.539l0.192 0.013zM772.414-4.59c1.271 0.108 2.75 0.17 4.244 0.17 29.252 0 52.966-23.713 52.966-52.966s-23.713-52.966-52.966-52.966c-29.252 0-52.966 23.713-52.966 52.966 0 1.494 0.062 2.973 0.183 4.435l-0.013-0.192c2.145 25.906 22.646 46.407 48.36 48.539l0.192 0.013zM988.69-103.040l35.31 35.31v232.563l-35.31-35.31zM342.665 419.31l134.025 133.914 63.183-63.294-133.804-133.914zM519.172 313.379l63.294 63.294 28.006-27.983-63.294-63.294zM988.69 412.006v-232.563l35.31 35.31v232.563zM194.207 207.448h476.69v211.862c0 0.004 0 0.009 0 0.014 0 4.872 1.973 9.283 5.164 12.477v0l12.491 12.469v257.523h-494.345zM648.077 361.181c3.199-3.196 5.178-7.612 5.178-12.491s-1.979-9.295-5.178-12.491v0l-88.276-88.276c-3.196-3.199-7.612-5.178-12.491-5.178s-9.295 1.979-12.491 5.178v0l-52.966 52.966c-3.199 3.196-5.178 7.612-5.178 12.491s1.979 9.295 5.178 12.491v0l88.276 88.276c3.196 3.199 7.612 5.178 12.491 5.178s9.295-1.979 12.491-5.178v0zM489.181 590.698l88.276-88.276c3.199-3.196 5.178-7.612 5.178-12.491s-1.979-9.295-5.178-12.491v0l-158.897-158.897c-3.196-3.199-7.612-5.178-12.491-5.178s-9.295 1.979-12.491 5.178v0l-88.276 88.276c-3.199 3.196-5.178 7.612-5.178 12.491s1.979 9.295 5.178 12.491v0l158.897 158.897c3.196 3.199 7.612 5.178 12.491 5.178s9.295-1.979 12.491-5.178v0zM234.681 573.043l88.276 88.276c3.196 3.199 7.612 5.178 12.491 5.178s9.295-1.979 12.491-5.178v0l52.966-52.966c3.199-3.196 5.178-7.612 5.178-12.491s-1.979-9.295-5.178-12.491v0l-88.276-88.276c-3.196-3.199-7.612-5.178-12.491-5.178s-9.295 1.979-12.491 5.178v0l-52.966 52.966c-3.199 3.196-5.178 7.612-5.178 12.491s1.979 9.295 5.178 12.491v0zM272.066 560.552l63.382 63.294 27.895-27.983-63.206-63.316z" />
<glyph unicode="&#xe938;" glyph-name="trick-or-treat" d="M608 768h-45.92c10.709 52.089 38.656 96.368 77.499 127.671l0.421 0.329h-192v-128h-32c-231.821-9.179-416.275-199.331-416.275-432.565 0-5.428 0.1-10.833 0.298-16.212l-0.023 0.778c0-247.424 192-448 512-448s512 200.576 512 448c0.175 4.602 0.275 10.007 0.275 15.435 0 233.234-184.455 423.387-415.445 432.539l-0.831 0.026zM736 608l96-160h-192zM288 608l96-160h-192zM512 64c-320 0-384 256-384 256h128l64-128 106.048 47.36 85.952-111.36 85.952 111.36 106.048-47.36 64 128h128s-64-256-384-256z" />
<glyph unicode="&#xe939;" glyph-name="lucky-clover" d="M878.8 647.2c-43.8 0-96.8-18.4-158.4-54.8 36.4 61.6 54.8 114.8 54.8 158.4 0 77.2-52.2 145.2-143.2 145.2-39.4 0-84-22-120-57.8-36 35.8-80.6 57.8-120 57.8-90 0-143.2-67-143.2-145.2 0-43.8 18.4-96.8 54.8-158.4-61.6 36.4-114.8 54.8-158.4 54.8-77.2 0-145.2-52.2-145.2-143.2 0-39.4 22-84 57.8-120-35.8-36-57.8-80.6-57.8-120 0-90 67-143.2 145.2-143.2 43.8 0 96.8 18.4 158.4 54.8-36.4-61.6-54.8-114.8-54.8-158.4 0-77.4 52.2-145.2 143.2-145.2 39.4 0 84 22 120 57.8 36-35.8 80.6-57.8 120-57.8 90 0 143.2 67 143.2 145.2 0 43.8-18.4 96.8-54.8 158.4 61.6-36.4 114.8-54.8 158.4-54.8 77.4 0 145.2 52.2 145.2 143.2 0 39.4-22 84-57.8 120 35.8 36 57.8 80.6 57.8 120 0 90-67 143.2-145.2 143.2zM392 836c29 0 69.4-25.8 96-61.4 12-16 36.2-16 48 0 26.6 35.6 67 61.4 96 61.4 80.8 0 83.2-76.6 83.2-85.2 0-94.4-120-239.6-203.2-322-76.4 75.6-203.2 225.4-203.2 322 0 8.6 2.4 85.2 83.2 85.2v0zM60 264c0 29 25.8 69.4 61.4 96 16 12 16 36.2 0 48-35.6 26.6-61.4 67-61.4 96 0 80.8 76.6 83.2 85.2 83.2 97.6 0 246.4-127 322-203.2-84.2-85-229.8-203.2-322-203.2-8.6 0-85.2 2.4-85.2 83.2zM632-68c-29 0-69.4 25.8-96 61.4-12 16-36.2 16-48 0-26.6-35.6-66.8-61.4-96-61.4-80.8 0-83.2 76.6-83.2 85.2 0 97.8 127.4 247 203.2 322 92.2-91.2 203.2-233 203.2-322 0-8.6-2.4-85.2-83.2-85.2zM902.6 360c35.6-26.6 61.4-66.8 61.4-96 0-80.8-76.6-83.2-85.2-83.2-94.4 0-239.6 120.2-322 203.2 75.6 76.4 224.8 203.2 322 203.2 8.8 0 85.2-2.4 85.2-83.2 0-29-25.8-69.4-61.4-96-16-12-16-36 0-48z" />
<glyph unicode="&#xe93a;" glyph-name="truelab-tournament" horiz-adv-x="1152" d="M262.898 232.255l-201.663-129.738v562.924l201.663-129.678zM298.931 611.835l-207.535 133.437 120.769 120.646 134.604-206.41zM346.767 108.55l-134.482-206.368-120.89 120.527 207.554 133.498zM734.61 612.195l71.022-70.941v-314.449l-71.060-70.941h-317.145l-71.060 70.941v314.449l71.022 70.941zM729.202 72.356l130.541-200.356h-567.488l130.541 200.356zM422.735 695.706l-130.541 200.294h567.609l-130.541-200.294zM853.045 156.207l207.554-133.498-120.811-120.527-134.562 206.368zM805.331 659.508l134.462 206.368 120.769-120.646-207.494-133.396zM1090.763 665.441v-562.924l-201.663 129.738v303.509z" />
<glyph unicode="&#xe93b;" glyph-name="booongo-trn" horiz-adv-x="902" d="M889.079 501.062c-35.425 141.294-124.185 257.445-243.121 328.156l-2.429 1.337c-73.175 41.184-160.634 65.445-253.76 65.445-20.745 0-41.208-1.204-61.324-3.546l2.447 0.232c-123.291-13.704-231.386-69.941-311.129-153.478l-0.187-0.197c-11.984-9.788-19.574-24.565-19.574-41.115 0-5.615 0.874-11.026 2.492-16.104l-0.103 0.375c6.314-19.709 24.475-33.727 45.91-33.727 14.153 0 26.879 6.112 35.683 15.84l0.037 0.041c62.406 68.607 147.534 115.576 243.417 128.975l2.133 0.244c18.062 2.791 38.897 4.385 60.105 4.385 228.708 0 414.113-185.405 414.113-414.113s-185.405-414.113-414.113-414.113c-20.856 0-41.351 1.542-61.379 4.517l2.264-0.276c-89.091 11.77-167.208 51.708-226.757 110.426l0.045-0.045c-17.185 13.88-31.396 39.328-57.173 33.709-25.022-3.301-44.134-24.497-44.134-50.157 0-12.547 4.57-24.027 12.135-32.866l-0.058 0.069c68.824-75.894 160.353-130.064 263.821-151.789l3.21-0.564c31.987-6.819 68.738-10.724 106.4-10.724 94.205 0 182.704 24.431 259.507 67.302l-2.705-1.387c86.141 52.735 155.332 125.421 202.44 211.873l1.467 2.941c33.691 67.587 53.41 147.221 53.41 231.459 0 41.435-4.771 81.755-13.792 120.442l0.701-3.57zM340.807 653.081c-4.679 22.377-24.244 38.942-47.678 38.942-21.388 0-39.554-13.8-46.078-32.982l-0.101-0.343c-4.958-66.758-1.322-133.844-1.986-200.604-0.043-0.77-0.067-1.671-0.067-2.577 0-25.871 19.855-47.106 45.159-49.296l0.185-0.013c50.234-0.661 100.467 3.966 150.701-1.652 47.154-13.225 81.154-55.828 81.154-106.372 0-44.742-26.642-83.261-64.927-100.559l-0.695-0.281c-56.513-8.592-114.347-3.305-171.19-9.254-16.265-1.822-29.732-12.207-35.912-26.482l-0.111-0.287c-2.591-5.75-4.1-12.465-4.1-19.532 0-26.295 20.895-47.71 46.986-48.546l0.077-0.002c47.92-1.321 96.171-2.644 144.088-1.652 73.937 5.051 136.698 48.425 168.998 110.237l0.54 1.136c13.545 27.916 21.462 60.721 21.462 95.376 0 15.368-1.557 30.372-4.522 44.864l0.245-1.435c-17.301 82.532-83.379 145.714-166.099 158.49l-1.125 0.143c-7.455 0.848-16.095 1.331-24.848 1.331-32.553 0-63.544-6.688-91.675-18.764l1.514 0.578c0.662 56.183 2.644 113.025 0 169.539zM302.14 252.204c6.976-3.836 15.288-6.093 24.127-6.093 28.064 0 50.815 22.751 50.815 50.815s-22.751 50.815-50.815 50.815c-28.064 0-50.815-22.751-50.815-50.815 0-11.752 3.99-22.573 10.689-31.181l-0.086 0.114c4.342-5.591 9.698-10.171 15.821-13.523l0.264-0.132z" />
</font>
</defs>
</svg>
