<svg id="Capa_1" enable-background="new 0 0 512 512" height="512" viewBox="0 0 512 512" width="512" xmlns="http://www.w3.org/2000/svg"><g id="XMLID_1203_"><g id="XMLID_304_"><path id="XMLID_305_" d="m462 66h-161c-5.523 0-10 4.477-10 10s4.477 10 10 10h161c16.542 0 30 13.458 30 30v280c0 16.542-13.458 30-30 30h-412c-16.542 0-30-13.458-30-30v-280c0-16.542 13.458-30 30-30h161c5.523 0 10-4.477 10-10s-4.477-10-10-10h-161c-27.57 0-50 22.43-50 50v280c0 27.57 22.43 50 50 50h412c27.57 0 50-22.43 50-50v-280c0-27.57-22.43-50-50-50z"/><path id="XMLID_581_" d="m44 120v272c0 5.523 4.477 10 10 10h404c5.523 0 10-4.477 10-10v-272c0-5.523-4.477-10-10-10h-404c-5.523 0-10 4.477-10 10zm155 262v-252h114v252zm249 0h-115v-252h115zm-384-252h115v252h-115z"/><path id="XMLID_1073_" d="m156.874 201.454c-1.847-2.829-4.996-4.534-8.374-4.534h-54c-5.523 0-10 4.477-10 10s4.477 10 10 10h38.681l-36.985 84.135c-2.222 5.056.075 10.956 5.13 13.179 1.31.575 2.675.848 4.019.848 3.846 0 7.513-2.231 9.16-5.978l43.149-98.159c1.36-3.093 1.066-6.662-.78-9.491z"/><path id="XMLID_1074_" d="m363.5 216.92h38.681l-36.985 84.135c-2.222 5.056.075 10.956 5.13 13.179 1.31.575 2.675.848 4.019.848 3.846 0 7.513-2.231 9.16-5.978l43.149-98.159c1.359-3.092 1.066-6.662-.78-9.491-1.847-2.829-4.996-4.534-8.374-4.534h-54c-5.523 0-10 4.477-10 10s4.477 10 10 10z"/><path id="XMLID_1077_" d="m291.374 201.454c-1.847-2.829-4.996-4.534-8.374-4.534h-54c-5.523 0-10 4.477-10 10s4.477 10 10 10h38.681l-36.985 84.135c-2.222 5.056.075 10.956 5.13 13.179 1.31.575 2.675.848 4.019.848 3.846 0 7.513-2.231 9.16-5.978l43.149-98.159c1.36-3.093 1.066-6.662-.78-9.491z"/><path id="XMLID_1078_" d="m256 86c2.63 0 5.21-1.07 7.07-2.93s2.93-4.44 2.93-7.07-1.07-5.21-2.93-7.07-4.44-2.93-7.07-2.93-5.21 1.07-7.07 2.93-2.93 4.44-2.93 7.07 1.07 5.21 2.93 7.07 4.44 2.93 7.07 2.93z"/></g></g></svg>