<svg xmlns="http://www.w3.org/2000/svg" height="642.509" width="498.107"><defs><clipPath id="a" clipPathUnits="userSpaceOnUse"><path d="M0 481.882h373.58V0H0z"/></clipPath></defs><g clip-path="url(#a)" transform="matrix(1.33333 0 0 -1.33333 0 642.51)"><path d="M180.706 0C75.294 0 0 60.235 0 165.647c0 158.117 188.236 173.176 150.589 316.235 75.294-60.235 120.47-105.412 120.47-210.824 37.647 22.588 37.647 97.882 22.588 158.118C384 323.764 452.72 0 180.706 0" fill="#fc6100"/><path d="M74.782 26.066l280.945 280.937c-13.77 45.553-34.146 86.633-56.29 115.034-1.928 2.424-3.878 4.902-5.79 7.138 15.06-60.235 15.06-135.529-22.588-158.118 0 105.413-45.176 150.59-120.47 210.825C188.236 338.823 0 323.764 0 165.647c0-59.03 24.087-109.854 74.782-139.58" fill="#ff8000"/><path d="M256 137.035c0-42.67-33.453-76.8-75.294-76.8-41.827 0-75.294 34.379-75.294 76.8 0 76.8 67.765 69.27 67.765 171.67 16.738-25.6 82.823-94.87 82.823-171.67" fill="#fff4d1"/><path d="M173.177 308.706c0-102.4-67.765-94.872-67.765-171.67 0-22.258 9.27-42.242 24.072-56.276l114.771 114.778c-19.765 51.773-58.753 94.321-71.078 113.168" fill="#fff"/></g></svg>