<svg height="512" viewBox="0 0 497 497" width="512" xmlns="http://www.w3.org/2000/svg"><path d="M446.082 251.442s13.72 121.221-90.994 173.172H141.912C37.198 372.662 50.918 251.442 50.918 251.442z" fill="#f9f097"/><path d="M80.918 251.442h-30s-13.72 121.221 90.994 173.172h30C67.198 372.662 80.918 251.442 80.918 251.442z" fill="#fccb88"/><circle cx="68.177" cy="226.877" fill="#ffcabd" r="45.232"/><circle cx="428.823" cy="226.877" fill="#ffcabd" r="45.232"/><path d="M320.217 371.386S383.591 407.643 383.591 497H113.409c0-89.357 63.374-125.614 63.374-125.614z" fill="#ffa2e7"/><path d="M199.783 371.386h-23S113.409 407.643 113.409 497h23c0-89.357 63.374-125.614 63.374-125.614z" fill="#ff8ce2"/><path d="M433.197 201.184c0 101.842-82.854 184.696-184.697 184.696-101.842 0-184.696-82.854-184.696-184.696z" fill="#ffdcce"/><path d="M93.804 201.184h-30c0 101.842 82.854 184.696 184.697 184.696 5.05 0 10.051-.212 15-.612-94.854-7.66-169.697-87.293-169.697-184.084z" fill="#ffcabd"/><path d="M248.5 13.516c-103.651 0-187.673 84.021-187.673 187.663 0 4.314.146 8.594.432 12.836 1.959 28.976 26.087 51.456 55.129 51.456 23.287 0 46.138-6.392 66.056-18.481 20.294-12.317 43.175-18.481 66.055-18.481s45.761 6.164 66.055 18.481a127.387 127.387 0 0031.769 13.774 127.095 127.095 0 0034.286 4.707c29.042 0 53.17-22.48 55.129-51.456.287-4.241.432-8.521.432-12.836.003-103.642-84.018-187.663-187.67-187.663z" fill="#ffa2e7"/><path d="M90.828 201.179c0-98.592 76.036-179.423 172.673-187.065-4.949-.392-9.95-.597-15-.597-103.651 0-187.673 84.021-187.673 187.663 0 4.314.146 8.594.432 12.835 1.347 19.928 13.18 36.783 29.885 45.366-.211-14.177-.317-54.508-.317-58.202z" fill="#ff8ce2"/><path d="M180.888 222.081a7.5 7.5 0 01-7.5-7.5c0-6.61-5.378-11.988-11.988-11.988s-11.988 5.378-11.988 11.988a7.5 7.5 0 01-15 0c0-14.881 12.106-26.988 26.988-26.988s26.988 12.107 26.988 26.988a7.5 7.5 0 01-7.5 7.5zM355.088 222.081a7.5 7.5 0 01-7.5-7.5c0-6.61-5.378-11.988-11.988-11.988s-11.988 5.378-11.988 11.988a7.5 7.5 0 01-15 0c0-14.881 12.106-26.988 26.988-26.988s26.988 12.107 26.988 26.988a7.5 7.5 0 01-7.5 7.5zM248.5 273.104a34.92 34.92 0 01-26.326-11.99 7.5 7.5 0 0111.309-9.855 19.922 19.922 0 0015.017 6.845 19.922 19.922 0 0015.018-6.845 7.5 7.5 0 0111.309 9.855 34.921 34.921 0 01-26.327 11.99z" fill="#423e4f"/><path d="M215.819 66.432c4.142-22.98 8.433-46.078 8.433-46.078C226.323 8.581 236.549 0 248.5 0s22.177 8.581 24.248 20.354L248.5 83.331z" fill="#f9f097"/><path d="M281.974 70.871c3.567 19.848 6.808 38.478 6.808 40.648 0 22.246-18.035 40.281-40.281 40.281-17.44 0-32.294-11.089-37.893-26.597L248.5 83.331z" fill="#e8e8e8"/><path d="M156.851 497v-42.701a7.5 7.5 0 0115 0V497zM325.149 497v-42.701a7.5 7.5 0 0115 0V497z" fill="#ff8ce2"/><path d="M248.5 421.445c-23.501-22.968-62.43 16.91-1.154 49.738.72.386 1.588.386 2.309 0 61.275-32.828 22.346-72.705-1.155-49.738z" fill="#f9f097"/><path d="M281.974 70.871c-10.028 17.252-33.92 50.329-71.367 54.333a40.17 40.17 0 01-2.388-13.685c0-2.339 3.736-23.654 7.6-45.087 37.764-2.131 56.929-46.078 56.929-46.078s4.866 26.18 9.226 50.517z" fill="#b08bd7"/></svg>