<svg height="512" viewBox="0 0 497 497" width="512" xmlns="http://www.w3.org/2000/svg"><path d="M428.983 123.474C400.897 51.219 330.684 0 248.5 0S96.103 51.219 68.017 123.474z" fill="#ffa2e7"/><path d="M263.5.575C258.55.196 253.548 0 248.5 0 166.316 0 96.103 51.219 68.017 123.474h30C124.378 55.657 187.851 6.373 263.5.575z" fill="#ff8ce2"/><path d="M442.077 279.454c-7.9 57.168 76.299 117.674-63.667 167.61H118.591c-139.966-49.936-55.768-110.442-63.667-167.61z" fill="#ffa2e7"/><path d="M54.924 279.454c7.19 52.034-61.911 106.834 31.164 153.912-45.379-42.221 5.029-89.092-1.164-133.912z" fill="#ff8ce2"/><path d="M328.322 369.98H168.679S100.731 404.418 100.731 497h63.923l83.846-23.354L332.346 497h63.923c0-92.582-67.947-127.02-67.947-127.02z" fill="#ffdcce"/><path d="M198.679 369.981h-30s-67.948 34.438-67.948 127.02h30c0-92.583 67.948-127.02 67.948-127.02z" fill="#ffcabd"/><path d="M68.017 123.474c-8.45 21.738-13.094 45.377-13.094 70.103 0 106.909 86.667 193.577 193.577 193.577s193.577-86.667 193.577-193.577c0-24.726-4.644-48.364-13.094-70.103z" fill="#ffdcce"/><path d="M94.924 193.576c0-24.726 4.644-48.364 13.094-70.103h-40c-8.45 21.738-13.094 45.377-13.094 70.103 0 106.91 86.667 193.577 193.577 193.577 6.753 0 13.425-.348 20-1.023-97.513-10.009-173.577-92.397-173.577-192.554z" fill="#ffcabd"/><path d="M472.375 58.979c-4.152-12.381-19.439-16.61-29.572-8.373-15.965 12.977-44.487 28.395-93.449 34.952-30.407 4.072-61.14-4.768-84.78-24.321-9.327-7.715-22.82-7.715-32.147 0-23.64 19.553-54.373 28.394-84.78 24.321-48.962-6.557-77.484-21.975-93.449-34.952-10.133-8.237-25.42-4.008-29.572 8.373-44.89 133.854 10.648 234.516 63.792 294.592 6.525 7.376 17.489 8.796 25.631 3.256l10.197-6.939c9.718-6.613 11.396-20.226 3.63-29.05-23.726-26.956-62.23-86.301-28.4-161.361h71.244c22.198 0 43.878 6.704 62.201 19.235l1.344.919a25.22 25.22 0 0028.471 0l1.344-.919a110.193 110.193 0 0162.201-19.235h71.244c33.83 75.06-4.674 134.405-28.4 161.361-7.767 8.824-6.088 22.437 3.63 29.05l10.197 6.939c8.142 5.54 19.106 4.12 25.631-3.256 53.144-60.076 108.682-160.737 63.792-294.592z" fill="#c6ade3"/><path d="M118.417 353.571C65.273 293.495 9.735 192.834 54.625 58.979a18.488 18.488 0 013.067-5.653 110.51 110.51 0 01-3.495-2.72c-10.133-8.237-25.42-4.008-29.572 8.373-44.89 133.854 10.648 234.516 63.792 294.592 6.525 7.376 17.489 8.796 25.631 3.256l4.534-3.085c-.053-.059-.112-.11-.165-.171z" fill="#b08bd7"/><g fill="#ffb5ec"><ellipse cx="146.811" cy="249.575" rx="37.521" ry="29.88"/><ellipse cx="350.189" cy="249.575" rx="37.521" ry="29.88"/></g><path d="M168.679 228.311a7.5 7.5 0 01-7.5-7.5v-15.338a7.5 7.5 0 0115 0v15.338a7.5 7.5 0 01-7.5 7.5zM328.322 228.311a7.5 7.5 0 01-7.5-7.5v-15.338a7.5 7.5 0 0115 0v15.338a7.5 7.5 0 01-7.5 7.5zM248.5 247.87a35.41 35.41 0 01-26.698-12.16 7.5 7.5 0 0111.308-9.856c3.886 4.458 9.495 7.015 15.391 7.015s11.505-2.557 15.39-7.015a7.5 7.5 0 0111.309 9.855 35.413 35.413 0 01-26.7 12.161z" fill="#423e4f"/><ellipse cx="248.5" cy="123.474" fill="#e8e8e8" rx="21.044" ry="26.527"/><path d="M302.571 439.481L248.5 450.359l-54.071-10.878c-15.397-3.098-29.775 8.676-29.775 24.382V497h167.692v-33.138c0-15.706-14.378-27.479-29.775-24.381z" fill="#c6ade3"/><path d="M207.483 442.107l-13.053-2.626c-15.397-3.098-29.775 8.676-29.775 24.382V497h30v-33.138c-.001-9.5 5.263-17.553 12.828-21.755z" fill="#b08bd7"/></svg>