<svg height="512" viewBox="0 0 497 497" width="512" xmlns="http://www.w3.org/2000/svg"><g fill="#76e6d5"><path d="M407.593 497h-26.861l-66.116-59.664-8.601-59.664h29.41c-.001.001 72.168 44.399 72.168 119.328zM321.073 497H175.927l6.457-59.663 66.116-56.246 66.116 56.246z"/><path d="M190.986 377.673l-8.601 59.664L116.268 497H89.407c0-74.93 72.169-119.327 72.169-119.327z"/></g><path d="M190.926 378.086l.06-.413h-29.41S89.407 422.07 89.407 497h30.043c1.707-69.087 64.446-114.375 71.476-118.914z" fill="#00d6bc"/><path d="M248.5 381.091L175.927 497h-59.659l74.718-119.327h55.37z" fill="#f9f097"/><path d="M119.727 491.477L116.269 497h3.182c.045-1.86.144-3.699.276-5.523z" fill="#fccb88"/><path d="M380.732 497h-59.659L248.5 381.091l2.144-3.418h55.371zM443.557 152.957h-51.911V265.6h51.911c20.831 0 37.719-16.887 37.719-37.719v-37.206c0-20.831-16.887-37.718-37.719-37.718zM53.443 152.957h51.911V265.6H53.443c-20.831 0-37.719-16.887-37.719-37.719v-37.206c0-20.831 16.888-37.718 37.719-37.718z" fill="#f9f097"/><circle cx="141.839" cy="77.162" fill="#f9f097" r="36.485"/><path d="M161.839 93.647c-20.15 0-36.485-16.335-36.485-36.485 0-4.878.965-9.529 2.702-13.783-13.315 5.438-22.702 18.512-22.702 33.783 0 20.15 16.335 36.485 36.485 36.485 15.272 0 28.345-9.387 33.783-22.702a36.366 36.366 0 01-13.783 2.702z" fill="#fccb88"/><circle cx="355.161" cy="77.162" fill="#f9f097" r="36.485"/><path d="M338.676 97.162c0-20.15 16.335-36.485 36.485-36.485 4.878 0 9.529.965 13.783 2.702-5.438-13.315-18.511-22.702-33.783-22.702-20.15 0-36.485 16.335-36.485 36.485 0 15.272 9.387 28.345 22.702 33.783a36.374 36.374 0 01-2.702-13.783z" fill="#fccb88"/><circle cx="248.5" cy="219.897" fill="#76e6d5" r="180.109"/><path d="M98.392 219.897c0-94.419 72.657-171.858 165.109-179.482a182.418 182.418 0 00-15-.627c-99.471 0-180.109 80.638-180.109 180.109S149.029 400.006 248.5 400.006c5.052 0 10.053-.219 15-.626-92.451-7.625-165.108-85.064-165.108-179.483z" fill="#00d6bc"/><path d="M373.696 219.897c0 69.144-56.052 125.196-125.196 125.196s-125.196-56.052-125.196-125.196z" fill="#da9d81"/><path d="M377.287 127.063h-73.18a37.174 37.174 0 00-27.538 12.203l-.532.586c-14.754 16.27-40.322 16.27-55.076 0l-.532-.586a37.172 37.172 0 00-27.538-12.203h-73.18c-32.649 0-59.117 26.468-59.117 59.117v39.116c0 32.649 26.468 59.117 59.117 59.117h26.618a75 75 0 0034.266-8.285l33.636-17.275a75.005 75.005 0 0168.531-.001l33.64 17.277a74.994 74.994 0 0034.264 8.284h26.618c32.649 0 59.117-26.468 59.117-59.117V186.18c.003-32.649-26.464-59.117-59.114-59.117z" fill="#fccb88"/><path d="M90.596 225.297v-39.116c0-32.649 26.468-59.117 59.117-59.117h-30c-32.649 0-59.117 26.468-59.117 59.117v39.116c0 32.649 26.468 59.117 59.117 59.117h26.618c.71 0 1.42-.011 2.129-.032-32.069-.669-57.864-26.856-57.864-59.085z" fill="#fab659"/><path d="M160.762 235.66a7.5 7.5 0 01-7.5-7.5v-19.185a7.5 7.5 0 0115 0v19.185a7.5 7.5 0 01-7.5 7.5zM336.239 235.66a7.5 7.5 0 01-7.5-7.5v-19.185a7.5 7.5 0 0115 0v19.185a7.5 7.5 0 01-7.5 7.5zM248.5 298.454a35.028 35.028 0 01-26.408-12.027 7.5 7.5 0 0111.309-9.855c3.812 4.374 9.315 6.882 15.1 6.882s11.288-2.508 15.1-6.882a7.5 7.5 0 0111.309 9.855 35.034 35.034 0 01-26.41 12.027z" fill="#423e4f"/><path d="M295.368 46.868c0 25.884-20.983 26.641-46.868 26.641s-46.868-.757-46.868-26.641S222.616 0 248.5 0s46.868 20.984 46.868 46.868z" fill="#f9f097"/><path d="M231.632 46.868c0-20.636 13.343-38.145 31.868-44.401A46.788 46.788 0 00248.5 0c-25.884 0-46.868 20.983-46.868 46.868 0 25.884 20.983 26.641 46.868 26.641 5.248 0 10.289-.036 15-.301-18.524-1.043-31.868-5.704-31.868-26.34z" fill="#fccb88"/></svg>