<svg height="512" viewBox="0 0 497 497" width="512" xmlns="http://www.w3.org/2000/svg"><path d="M371.987 399.738l-246.944-.04C108.934 423.053 93.289 456.222 93.289 497h129.945l25.281-14.15 25.25 14.15H403.71c.001-40.758-15.624-73.917-31.723-97.262z" fill="#ff748f"/><path d="M93.289 497h40c0-40.774 15.641-73.94 31.749-97.295l-39.995-.007C108.934 423.053 93.289 456.221 93.289 497z" fill="#fd5f7e"/><path d="M371.987 399.738c-17.13-24.821-34.785-38.565-34.785-38.565H159.798s-17.645 13.724-34.755 38.525c30.104 17.616 63.554 28.512 98.192 32.086V497h50.531v-65.211a244.307 244.307 0 0098.221-32.051z" fill="#a4e6ff"/><path d="M155.602 414.798a197.52 197.52 0 019.441-15.1c17.11-24.8 34.755-38.524 34.755-38.524h-40c-.209.207-17.426 13.407-34.755 38.524a243.434 243.434 0 0030.559 15.1z" fill="#5bd6fd"/><path d="M75.024 275.829c32.017 63.315 97.677 106.725 173.475 106.725 74.417 0 139.061-41.841 171.691-103.282L248.5 210.887z" fill="#ffdcce"/><path d="M75.024 275.829c32.017 63.315 97.677 106.725 173.475 106.725 6.756 0 13.431-.35 20.01-1.022-67.234-6.873-124.319-48.025-153.485-105.702h-40z" fill="#ffcabd"/><path d="M75.629 179.096s-23.858 10.292-37.694 40.661c-6.553 14.383-6.837 30.8-.946 45.466 8.061 20.07 25.333 51.151 61.019 79.263 10.809 8.515 26.758 4.141 31.622-8.731 9.632-25.486 34.824-64.655 100.711-95.199z" fill="#a4e6ff"/><path d="M75.629 179.096s-23.858 10.292-37.694 40.661c-6.553 14.383-6.837 30.8-.946 45.466a168.472 168.472 0 006.656 14.501 77.74 77.74 0 016.712-25.831c18.798-41.26 51.213-55.243 51.213-55.243z" fill="#5bd6fd"/><path d="M421.371 179.096s23.858 10.292 37.694 40.661c6.553 14.383 6.837 30.8.946 45.466-8.061 20.07-25.333 51.151-61.019 79.263-10.809 8.515-26.758 4.141-31.622-8.731-9.632-25.486-34.824-64.655-100.711-95.199zM208.075 23.246L169.43 4.697c-19.943-9.572-43.87-4.173-57.715 13.079-17.038 21.232-31.626 56.78-14.893 111.162l121.509 59.342 30.169-82.655z" fill="#a4e6ff"/><path d="M126.822 129.939c-16.733-54.382-2.144-89.93 14.894-111.162a47.381 47.381 0 0123.603-15.816c-19.033-7.042-40.698-1.266-53.603 14.816-17.038 21.232-31.626 56.78-14.894 111.162z" fill="#5bd6fd"/><path d="M385.284 17.777C371.44.524 347.512-4.875 327.57 4.697l-38.645 18.549-40.425 82.38 30.169 82.655 121.509-59.342c16.733-54.382 2.144-89.93-14.894-111.162z" fill="#a4e6ff"/><path d="M431.612 170.166l-17.655-41.481c-3.868-9.088-14.371-13.32-23.459-9.452l-101.573 43.231V23.246h-80.849v139.218l-101.573-43.231c-9.088-3.868-19.591.364-23.459 9.452l-17.655 41.481c-3.868 9.088.364 19.591 9.452 23.459l116.496 49.582a145.965 145.965 0 00114.326 0l116.497-49.582c9.088-3.868 13.32-14.371 9.452-23.459z" fill="#ff748f"/><path d="M94.842 184.449l18.382-43.191c3.212-7.546 10.817-11.86 18.565-11.262l-25.286-10.762c-9.088-3.868-19.591.364-23.459 9.452L65.39 170.167c-3.868 9.088.364 19.591 9.452 23.459l22.448 9.554c-4.015-5.164-5.191-12.288-2.448-18.731z" fill="#fd5f7e"/><g fill="#423e4f"><path d="M185.653 177.331l-31.434-8.423a7.5 7.5 0 00-3.883 14.489l12.014 3.219a7.46 7.46 0 00-1.581 4.594v13.541c0 4.143 3.358 7.5 7.5 7.5s7.5-3.357 7.5-7.5V191.21c0-.347-.032-.685-.077-1.02l6.079 1.629a7.504 7.504 0 009.186-5.304 7.5 7.5 0 00-5.304-9.184zM351.966 174.212a7.5 7.5 0 00-9.186-5.303l-31.434 8.423a7.502 7.502 0 003.882 14.49l6.079-1.629a7.453 7.453 0 00-.077 1.02v13.541c0 4.143 3.358 7.5 7.5 7.5s7.5-3.357 7.5-7.5v-13.541a7.46 7.46 0 00-1.581-4.594l12.014-3.219a7.504 7.504 0 005.303-9.188zM270.067 273.133a7.5 7.5 0 00-10.582.727c-2.773 3.182-6.777 5.008-10.985 5.008s-8.211-1.826-10.985-5.008a7.5 7.5 0 00-11.309 9.855c5.623 6.452 13.749 10.153 22.293 10.153s16.67-3.701 22.293-10.153a7.5 7.5 0 00-.725-10.582z"/></g></svg>