<svg width="271" height="105" xmlns="http://www.w3.org/2000/svg"><defs><linearGradient x1="49.996%" y1="-.058%" x2="49.996%" y2="99.938%" id="a"><stop stop-color="#9ED2F1" offset="12.73%"/><stop stop-color="#FFF" stop-opacity="0" offset="55.76%"/></linearGradient><linearGradient x1=".001%" y1="49.998%" x2="99.997%" y2="49.998%" id="b"><stop stop-color="#0093D4" offset="0%"/><stop stop-color="#0093D4" offset="18.18%"/><stop stop-color="#9ED2F1" offset="45%"/><stop stop-color="#9ED2F1" offset="55%"/><stop stop-color="#0093D4" offset="82%"/><stop stop-color="#132C64" offset="100%"/></linearGradient><linearGradient x1="0%" y1="50%" x2="99.999%" y2="50%" id="c"><stop stop-color="#132C64" offset="0%"/><stop stop-color="#0098CB" offset="18.18%"/><stop stop-color="#99CAE5" offset="50%"/><stop stop-color="#0098CB" offset="82%"/><stop stop-color="#132C64" offset="100%"/></linearGradient><linearGradient x1=".001%" y1="50.001%" x2="99.999%" y2="50.001%" id="d"><stop stop-color="#0056A2" offset="0%"/><stop stop-color="#51B1E0" offset="63.64%"/><stop stop-color="#51B1E0" offset="100%"/></linearGradient></defs><g fill="none" fill-rule="evenodd"><path d="m48.492 87.235-.074-10.46c.154-.012.374-.03.675-.043.784-.03 2.115-.03 4.242.129 1.754.135 3.078 2.759 2.98 5.322-.098 2.569-.926 4.96-3.268 5.027-1.87.056-3.108.056-3.875.043l-.68-.018Zm.233-31.496c13.256-2.563 12.82 15.996 0 14.077V55.74Zm29.105 2.894c.785-2.667 6.579-4.408 8.24.178.368 1.017.46 1.845.46 2.753 0 .864-.08 1.784-.092 2.967-6.573.466-9.92-1.44-8.608-5.898ZM178.976 73.69c1.662 1.6 2.312 2.888 1.576 3.642-1.741 1.79-3.605.73-4.23-.055-1.509-1.888-1.674-3.79-1.821-7.088 1.33.914 3.12 2.201 4.475 3.501Zm-92.728-2.544v.251c.012.3.043.68.067 1.104.056.815.117 1.778.037 2.507-.343 3.311-4.096 3.03-9.099.914-2.808-1.19-7.805 2.863-2.82 7.143 1.202 1.03 2.961 1.533 4.451 1.784 1.502.257 2.784.264 3.054.264 8.516 0 12.734-3.747 12.679-8.265l-.147-11.46h7.351c-.129 5.506.215 13.906.012 15.672-.214 1.852 1.355 3.52 3.109 4.016 1.71.484 3.599-.135 4.445-2.55 3.28 3.218 6.174 3.445 8.915 1.673 2.14-1.38 2.256-7.357-1.416-7.357-.767 0-1.423.012-2 0-.57-.013-1.041-.056-1.47-.16-.84-.202-1.583-.662-2.551-1.772-.693-.79-.87-1.974-.877-3.66-.006-1.606.141-3.568.055-5.862h10.89c.177 4.28.097 7.21.447 9.657.362 2.557 1.195 4.617 3.213 7.112 3.519 4.347 11.698 3.544 14.126 1.625.497-.392.975-.711 1.428-1.054.46-.35.902-.724 1.288-1.214.785-.981 1.312-2.373 1.465-4.807.197-3.03-1.508-4.298-3.396-4.243-1.778.049-3.704 1.312-3.875 3.176-.172 1.858-3.25 2.894-4.672 1.018-.87-1.147-1.214-2-1.312-3.446-.117-1.686-.264-2.937-.338-4.163a21.507 21.507 0 0 1 .105-3.955c.165-1.459.165-2.747.355-3.942.184-1.159.54-2.189 1.41-3.195 1.472-1.698 4.36-1.74 5.58.05 1.012 1.483 1.171 3.083 1.171 5.162 0 1.533.858 2.213 2.336 2.213h7.094c0 5.813-.037 8.186-.068 9.853-.03 1.699-.049 2.667-.006 5.782.08 6.113 6.48 5.224 8.02 2.275 1.44 1.814 4.243 3.268 7.075 2.268 4.157-1.459 3.14-7.504.601-7.707-.852-.067-1.772-.055-2.673-.08-.89-.024-1.723-.08-2.44-.275-1.355-.368-2.33-1.214-2.238-3.55.073-1.913-.141-4.574-.08-8.566h10.46c.319 3.526.3 5.843.454 7.916.153 2.158.484 4.059 1.532 6.726 1.527 3.887 4.5 5.53 8.455 6.26 3.943.723 6.843.036 9.951-2.753 3.839-3.446 2.882-10.098.552-12.483-2.256-2.312-3.599-3.391-5.224-4.488-1.581-1.073-3.44-2.165-6.726-4.495-.134-2.421 1.049-4.249 4.078-4.61 2.544-.3 4.666 2.489 4.371 5.463-.196 1.955 1.656 2.47 3.802 2.403 2.379-.08 3.654.19 5.984.08.827-.037 1.459-.068 1.943-.11.485-.044.87-.105 1.171-.24.669-.288.804-.87.957-1.643.135-.68.184-1.27.233-1.79.049-.515.092-.932.208-1.312.221-.718.73-1.368 2.293-2.17 2.324-1.19 5.482-.338 6.175 2.151.416 1.484-.148 2.612-1.19 3.612-.527.508-1.177.974-1.876 1.434-.705.46-1.453.908-2.158 1.355-4.758 3.035-9.571 6.248-7.106 13.342 1.49 4.28 6.486 5.812 8.056 6.186 2.342.558 7.376.895 11.024-1.95 3.384-2.642.901-7.97-3.01-6.689-1.11.362-2.03.865-2.931 1.227-.865.343-1.674.533-2.63.337-2.98-.613-2.177-3.17-1.3-3.918.987-.846 1.931-1.429 2.863-1.944.95-.527 1.876-.975 2.808-1.545 1.876-1.146 3.746-2.765 5.8-6.303l5.046-.018v12.79c-1.06.049-3.298.441-3.372 3.77-.043 2.005.865 3.078 1.821 3.63.466.27.938.405 1.281.478l.246.043c-.393 4.813.674-.16 3.795.05 3.268.214 4.831 3.586 4.378-1.865.533-.092.974 1.533 1.428 1.282.926-.515 1.833-1.545 1.913-3.513.08-1.975-.834-2.98-1.815-3.458a4.107 4.107 0 0 0-1.306-.38l-.251-.025-.018-13.072.018-8.455c.153-6.738-.754-8.068-3.998-8.265-4.181-.257-4.267 2.729-4.126 7.867l-5.42.092c-2.428-4.304-5.861-6.469-10.766-6.702-5.328-.257-9.387 1.993-12.024 6.677h-1.876c-2.33-4.837-6.505-7.327-11.815-6.996-4.813.3-8.216 2.612-10.312 6.996h-11.852v-4.543c0-1.925-1.938-3.243-3.808-3.458-1.93-.227-3.979.693-4.23 3.348-.178 1.9-.227 1.974-.166 4.653l-3.519.006c-1.49-5.886-5.868-7.48-10.92-7.474-5.076.006-9.27 2.208-10.907 7.468l-11.882.006a29.97 29.97 0 0 0-.068-2.753 19.68 19.68 0 0 1-.049-.858c-.006-.22 0-.405.03-.576.737-4.237-7.97-5.776-8.184-.147-.074 1.87.06 2.311-.056 4.322h-7.16c-.013-.803.073-1.465.134-2.127.074-.767.117-1.558-.049-2.545-.392-2.342-5.224-5.003-7.7-1.3-2.496-3.04-14.679-4.439-17.131 5.905l-3.495.092c-3.176-6.328-6.046-8.946-12.784-8.946-2.691 0-3.82-.03-4.942 0-1.122.03-2.238.123-4.892.356-1.876.165-3.446.926-3.489 2.68l-.025 30.674-.012 3.022c-.086 2.95 2.256 3.477 3.41 3.477h12.108c4.586 0 7.689 3.42 8.774-1.306 1.08-4.727.141-10.11-3.36-12.76.27-.134.632-.318 1.03-.551.865-.503 1.938-1.233 2.71-2.128.975-1.122 1.447-2.575 1.68-3.727.147-.736.203-1.368.22-1.73l3.95-.024.202.356c.135.245.288.54.503.87a7.692 7.692 0 0 0 2.145 2.226c2.091 1.447 5.794 2.649 12.637 2.28Z" fill="url(#a)"/><path d="M136.193 81.576H134.2C65.022 81.153 17.1 60.717 17.1 41.343c0-16.389 34.304-33.538 86.757-38.688-50.092 5.401-82.809 22.71-82.809 35.592 0 15.364 46.524 31.57 113.575 31.753h1.153c67.05-.184 113.575-16.389 113.575-31.753 0-12.882-32.717-30.19-82.809-35.592C218.995 7.799 253.3 24.948 253.3 41.343c-.006 19.374-47.928 39.81-117.106 40.233Z" fill="url(#b)"/><path d="M134.2 104.102C50.49 104.102 0 71.637 0 50.576 0 34.482 16.315 22.361 42.594 11.95c-19.1 7.848-30.669 18.118-30.669 29.356 0 24.531 55.09 44.44 123.275 44.63 68.179-.19 123.274-20.105 123.274-44.63 0-11.238-11.57-21.508-30.668-29.356 26.278 10.41 42.593 22.532 42.593 38.626 0 21.03-50.864 53.495-134.2 53.495l-1.999.031Z" fill="url(#c)"/><path fill="#00377B" d="m242.674 31.318-2.784-5.254-5.984 1.11 5.457-2.496-1.33-5.708 2.783 5.248 5.984-1.103-5.463 2.495z"/><path d="m48.492 7.866-.074 10.46c.154.012.374.03.675.043.784.03 2.115.03 4.242-.129 1.754-.135 3.078-2.759 2.98-5.322-.098-2.568-.926-4.96-3.268-5.027a86.525 86.525 0 0 0-3.875-.043l-.68.018Zm.233 31.49c13.256 2.563 12.82-15.996 0-14.077v14.077ZM77.83 36.47c.785 2.667 6.579 4.408 8.24-.178.368-1.018.46-1.846.46-2.753 0-.865-.08-1.784-.092-2.968-6.573-.472-9.92 1.435-8.608 5.899Zm101.146-15.065c1.662-1.6 2.312-2.888 1.576-3.642-1.741-1.79-3.605-.73-4.23.055-1.509 1.889-1.674 3.79-1.821 7.088 1.33-.914 3.12-2.201 4.475-3.5ZM86.248 23.95v-.252c.012-.3.043-.68.067-1.103.056-.816.117-1.779.037-2.508-.343-3.311-4.096-3.029-9.099-.914-2.808 1.19-7.805-2.863-2.82-7.143 1.202-1.03 2.961-1.532 4.451-1.784a18.885 18.885 0 0 1 3.054-.263c8.516 0 12.734 3.746 12.679 8.265l-.147 11.459h7.351c-.129-5.506.215-13.906.012-15.672-.214-1.851 1.355-3.519 3.109-4.016 1.71-.484 3.599.141 4.445 2.551 3.28-3.219 6.174-3.446 8.915-1.674 2.14 1.38 2.256 7.358-1.416 7.358-.767 0-1.423-.013-2 0-.57.012-1.041.055-1.47.16-.84.201-1.583.661-2.551 1.771-.693.79-.87 1.974-.877 3.66-.006 1.607.141 3.569.055 5.862h10.89c.177-4.28.097-7.21.447-9.657.362-2.557 1.195-4.617 3.213-7.112 3.519-4.347 11.698-3.544 14.126-1.625.497.393.975.711 1.428 1.055.46.35.902.723 1.288 1.214.785.98 1.312 2.372 1.465 4.807.197 3.028-1.508 4.298-3.396 4.242-1.778-.049-3.704-1.312-3.875-3.176-.172-1.857-3.25-2.894-4.672-1.017-.87 1.146-1.214 1.998-1.312 3.445-.117 1.686-.264 2.937-.338 4.163a21.507 21.507 0 0 0 .105 3.955c.165 1.46.165 2.747.355 3.942.184 1.16.54 2.19 1.41 3.195 1.472 1.698 4.36 1.741 5.58-.05 1.012-1.483 1.171-3.083 1.171-5.162 0-1.533.858-2.213 2.336-2.213h7.094c0-5.812-.037-8.185-.068-9.853-.03-1.698-.049-2.667-.006-5.782.08-6.113 6.48-5.224 8.02-2.274 1.44-1.815 4.243-3.268 7.075-2.269 4.157 1.46 3.14 7.505.601 7.707-.852.067-1.772.055-2.673.08-.89.024-1.723.08-2.44.276-1.355.367-2.33 1.214-2.238 3.55.073 1.913-.141 4.573-.08 8.565h10.46c.319-3.526.3-5.843.454-7.916.153-2.158.484-4.058 1.532-6.725 1.527-3.888 4.5-5.53 8.455-6.254 3.943-.724 6.843-.037 9.951 2.753 3.839 3.445 2.882 10.098.552 12.483-2.256 2.311-3.599 3.39-5.224 4.488-1.581 1.073-3.44 2.164-6.726 4.494-.134 2.422 1.049 4.249 4.078 4.61 2.544.301 4.666-2.489 4.371-5.462-.196-1.956 1.656-2.471 3.802-2.404 2.379.08 3.654-.19 5.984-.08.827.037 1.459.068 1.943.111.485.043.87.104 1.171.24.669.287.804.87.957 1.642.135.68.184 1.27.233 1.79.049.516.092.933.208 1.313.221.717.73 1.367 2.293 2.17 2.324 1.19 5.482.337 6.175-2.152.416-1.484-.148-2.612-1.19-3.611-.527-.51-1.177-.975-1.876-1.435-.705-.46-1.453-.907-2.158-1.355-4.758-3.035-9.571-6.248-7.106-13.341 1.49-4.28 6.486-5.813 8.056-6.187 2.342-.558 7.376-.895 11.024 1.95 3.384 2.642.901 7.97-3.01 6.689-1.11-.362-2.03-.864-2.931-1.226-.865-.344-1.674-.534-2.63-.337-2.98.613-2.177 3.17-1.3 3.917.987.847 1.931 1.429 2.863 1.944.95.527 1.876.975 2.808 1.545 1.876 1.147 3.746 2.765 5.8 6.303l5.046.018V16.916c-1.06-.049-3.298-.441-3.372-3.77-.043-2.006.865-3.079 1.821-3.63.466-.27.938-.405 1.281-.479l.246-.042c-.393-4.814.674-6.512 3.795-6.714 3.268-.215 4.831 1.336 4.378 6.787.533.092.974.215 1.428.466.926.515 1.833 1.545 1.913 3.513.08 1.974-.834 2.98-1.815 3.458-.472.233-.95.337-1.306.38l-.251.025-.018 13.072.018 8.455c.153 6.738-.754 8.068-3.998 8.265-4.181.257-4.267-2.729-4.126-7.867l-5.42-.092c-2.428 4.304-5.861 6.469-10.766 6.702-5.328.257-9.387-1.993-12.024-6.677h-1.876c-2.33 4.837-6.505 7.327-11.815 6.995-4.813-.3-8.216-2.611-10.312-6.995h-11.852v4.543c0 1.925-1.938 3.243-3.808 3.458-1.93.22-3.979-.693-4.23-3.348-.178-1.9-.227-1.974-.166-4.653l-3.519-.006c-1.49 5.886-5.868 7.48-10.92 7.474-5.076-.007-9.27-2.208-10.907-7.468l-11.882-.006a29.97 29.97 0 0 1-.068 2.753c-.024.343-.043.619-.049.858-.006.22 0 .405.03.576.737 4.237-7.97 5.776-8.184.147-.074-1.87.06-2.311-.056-4.322h-7.16c-.013.803.073 1.465.134 2.127.074.767.117 1.558-.049 2.545-.392 2.342-5.224 5.003-7.7 1.3-2.496 3.04-14.679 4.439-17.131-5.905l-3.495-.098c-3.176 6.328-6.046 8.946-12.784 8.946-2.691 0-3.82.03-4.942 0-1.122-.031-2.238-.123-4.892-.356-1.876-.166-3.446-.926-3.489-2.68l-.055-41.177C40.14.527 42.483 0 43.63 0h12.109c9.172 0 12.416 16.248 5.414 21.545.27.135.631.319 1.03.552.864.503 1.937 1.232 2.71 2.127.975 1.122 1.447 2.576 1.68 3.728.147.736.202 1.368.22 1.73l3.949.024.202-.356c.135-.245.289-.54.503-.87a7.692 7.692 0 0 1 2.146-2.226c2.11-1.472 5.812-2.673 12.655-2.305Z" fill="url(#d)"/></g></svg>