<svg width="83" height="80" fill="none" xmlns="http://www.w3.org/2000/svg"><path d="M55.012.35c18.477-3.057 32.693 14.431 24.995 31.445L64.843 66.898c-7.178 15.87-28.074 17.624-38.895 3.614L4.996 43.382C-5.824 29.372 1.865 9.146 19.097 6.295L55.012.35Z" fill="#069BE8"/><path d="M45.9 56.9c-3.97 0-7.569-.857-10.796-2.573-3.19-1.753-5.713-4.158-7.568-7.217-1.818-3.096-2.727-6.583-2.727-10.462 0-3.879.91-7.348 2.727-10.406 1.855-3.096 4.378-5.501 7.568-7.217 3.227-1.753 6.844-2.63 10.85-2.63 3.377 0 6.419.597 9.127 1.79 2.745 1.194 5.045 2.91 6.9 5.148l-5.788 5.37c-2.633-3.058-5.898-4.587-9.793-4.587-2.411 0-4.563.54-6.455 1.623-1.892 1.044-3.376 2.517-4.452 4.42-1.038 1.902-1.558 4.065-1.558 6.49 0 2.424.52 4.587 1.558 6.49a11.696 11.696 0 0 0 4.452 4.475c1.892 1.044 4.044 1.566 6.455 1.566 3.895 0 7.16-1.548 9.794-4.643l5.786 5.37c-1.854 2.276-4.154 4.01-6.9 5.204-2.745 1.193-5.805 1.79-9.18 1.79Z" fill="#fff"/></svg>