<svg xmlns="http://www.w3.org/2000/svg" xmlns:xlink="http://www.w3.org/1999/xlink" width="80" zoomAndPan="magnify" viewBox="0 0 60 60" height="80" preserveAspectRatio="xMidYMid meet" version="1.0"><defs><clipPath id="id1"><path d="M 26 1.671875 L 53.953125 1.671875 L 53.953125 35 L 26 35 Z M 26 1.671875 " clip-rule="nonzero"/></clipPath></defs><path fill="#e8e8e8" d="M 26.363281 33.253906 C 25.945312 34.496094 24.59375 35.171875 23.34375 34.757812 L 8.699219 29.902344 C 7.449219 29.488281 6.773438 28.140625 7.191406 26.898438 L 14.953125 3.710938 C 15.371094 2.464844 16.722656 1.792969 17.972656 2.207031 L 32.613281 7.066406 C 33.863281 7.480469 34.539062 8.824219 34.121094 10.070312 L 26.363281 33.253906 " fill-opacity="1" fill-rule="nonzero"/><path fill="#383536" d="M 25.785156 32.199219 L 25.660156 32.160156 C 25.367188 33.039062 24.554688 33.597656 23.6875 33.597656 C 23.480469 33.597656 23.265625 33.5625 23.054688 33.496094 L 9.695312 29.0625 C 8.839844 28.78125 8.304688 27.980469 8.304688 27.113281 C 8.304688 26.890625 8.335938 26.664062 8.414062 26.441406 L 15.652344 4.804688 C 15.949219 3.925781 16.765625 3.367188 17.625 3.367188 C 17.839844 3.367188 18.050781 3.402344 18.261719 3.46875 L 31.621094 7.902344 C 32.476562 8.183594 33.015625 8.984375 33.015625 9.851562 C 33.015625 10.074219 32.976562 10.300781 32.902344 10.527344 L 25.660156 32.160156 L 25.90625 32.238281 L 33.144531 10.605469 C 33.230469 10.355469 33.269531 10.101562 33.269531 9.851562 C 33.269531 8.878906 32.664062 7.976562 31.703125 7.660156 L 18.34375 3.226562 C 18.105469 3.148438 17.867188 3.113281 17.625 3.113281 C 16.652344 3.113281 15.742188 3.738281 15.410156 4.726562 L 8.167969 26.355469 C 8.085938 26.609375 8.046875 26.863281 8.046875 27.113281 C 8.042969 28.085938 8.648438 28.988281 9.613281 29.308594 L 22.972656 33.738281 C 23.210938 33.816406 23.453125 33.855469 23.6875 33.855469 C 24.664062 33.855469 25.574219 33.226562 25.90625 32.238281 L 25.785156 32.199219 " fill-opacity="1" fill-rule="nonzero"/><path fill="#d5d4d5" d="M 22.847656 25.125 C 22.613281 24.433594 22.367188 23.714844 22.117188 22.976562 C 22.28125 23.003906 22.449219 23.015625 22.613281 23.015625 C 23.945312 23.015625 25.1875 22.175781 25.632812 20.847656 C 26.527344 18.183594 22.527344 12.796875 22.527344 12.796875 C 22.527344 12.796875 20.84375 13.324219 19.089844 14.183594 C 17.386719 9.253906 15.996094 5.238281 15.996094 5.238281 C 16.28125 4.386719 17.078125 3.851562 17.933594 3.851562 C 18.144531 3.851562 18.363281 3.882812 18.578125 3.957031 L 28.023438 7.085938 L 27.652344 7.21875 C 26.410156 7.65625 25.757812 9.011719 26.195312 10.25 L 29.449219 19.417969 L 27.652344 24.78125 C 27.226562 24.425781 26.683594 24.222656 26.117188 24.222656 C 25.882812 24.222656 25.640625 24.257812 25.40625 24.332031 L 22.847656 25.125 " fill-opacity="1" fill-rule="nonzero"/><path fill="#383536" d="M 17.660156 5.679688 L 17.65625 6.65625 L 17.136719 6.484375 Z M 16.300781 7.761719 L 16.824219 6.957031 L 17.652344 7.230469 L 17.644531 8.207031 L 18.195312 8.386719 L 18.195312 8.382812 L 18.015625 4.488281 L 15.761719 7.582031 L 16.300781 7.761719 " fill-opacity="1" fill-rule="nonzero"/><path fill="#383536" d="M 23.863281 30.132812 L 23.855469 31.105469 L 23.339844 30.933594 L 23.863281 30.132812 M 22.503906 32.210938 L 23.03125 31.410156 L 23.855469 31.679688 L 23.851562 32.65625 L 24.398438 32.839844 L 24.398438 32.832031 L 24.222656 28.941406 L 21.964844 32.035156 L 22.503906 32.210938 " fill-opacity="1" fill-rule="nonzero"/><path fill="#383536" d="M 25.632812 20.847656 C 25.074219 22.507812 23.273438 23.40625 21.605469 22.851562 C 20.753906 22.570312 19.921875 21.425781 19.996094 20.355469 C 19.371094 21.277344 18.117188 21.695312 17.269531 21.414062 C 15.597656 20.859375 14.722656 19.078125 15.253906 17.40625 C 16.074219 14.808594 22.527344 12.796875 22.527344 12.796875 C 22.527344 12.796875 26.527344 18.183594 25.632812 20.847656 " fill-opacity="1" fill-rule="nonzero"/><path fill="#656263" d="M 22.546875 22.667969 C 22.230469 22.667969 21.910156 22.621094 21.597656 22.515625 C 21.207031 22.386719 20.816406 22.0625 20.53125 21.644531 C 21.230469 21.542969 21.9375 21.003906 22.382812 20.53125 C 23.101562 19.773438 23.542969 18.800781 23.710938 17.773438 C 23.898438 16.601562 23.742188 15.335938 23.171875 14.339844 C 24.855469 16.570312 25.882812 19.148438 25.386719 20.628906 C 24.96875 21.878906 23.796875 22.667969 22.546875 22.667969 " fill-opacity="1" fill-rule="nonzero"/><path fill="#322e2f" d="M 16.191406 20.253906 L 16.171875 20.253906 C 16.171875 20.253906 16.058594 20.136719 15.898438 19.902344 C 15.742188 19.667969 15.53125 19.3125 15.414062 18.835938 C 15.359375 18.597656 15.328125 18.332031 15.347656 18.050781 C 15.363281 17.765625 15.4375 17.472656 15.566406 17.1875 C 15.695312 16.90625 15.875 16.640625 16.089844 16.398438 C 16.308594 16.152344 16.550781 15.941406 16.820312 15.738281 C 17.085938 15.550781 17.355469 15.371094 17.621094 15.199219 C 17.894531 15.03125 18.15625 14.863281 18.421875 14.714844 C 18.691406 14.570312 18.949219 14.429688 19.203125 14.3125 C 19.457031 14.199219 19.691406 14.078125 19.917969 13.996094 C 20.144531 13.902344 20.355469 13.828125 20.539062 13.757812 C 20.726562 13.695312 20.894531 13.648438 21.03125 13.609375 C 21.304688 13.53125 21.457031 13.492188 21.457031 13.492188 L 21.472656 13.496094 L 21.46875 13.515625 C 21.46875 13.515625 21.320312 13.585938 21.0625 13.699219 C 20.933594 13.757812 20.777344 13.824219 20.597656 13.898438 C 20.421875 13.988281 20.222656 14.085938 20.007812 14.191406 C 19.789062 14.289062 19.566406 14.421875 19.320312 14.546875 C 19.199219 14.609375 19.070312 14.671875 18.949219 14.746094 C 18.820312 14.816406 18.691406 14.886719 18.5625 14.957031 C 18.292969 15.097656 18.03125 15.257812 17.753906 15.414062 C 17.484375 15.574219 17.210938 15.742188 16.941406 15.914062 C 16.6875 16.09375 16.441406 16.296875 16.226562 16.519531 C 16.019531 16.746094 15.835938 16.996094 15.707031 17.253906 C 15.574219 17.515625 15.503906 17.792969 15.472656 18.058594 C 15.441406 18.328125 15.460938 18.582031 15.507812 18.816406 C 15.601562 19.28125 15.789062 19.640625 15.9375 19.878906 C 16.082031 20.113281 16.191406 20.234375 16.191406 20.234375 L 16.191406 20.253906 " fill-opacity="1" fill-rule="nonzero"/><path fill="#383536" d="M 20.101562 20.023438 C 18.550781 23.890625 17.257812 23.660156 17.257812 23.660156 L 20.136719 24.613281 C 20.136719 24.613281 19.070312 24.105469 20.101562 20.023438 " fill-opacity="1" fill-rule="nonzero"/><path fill="#656263" d="M 19.65625 24.292969 L 19.632812 24.261719 C 19.617188 24.246094 19.59375 24.21875 19.574219 24.179688 C 19.558594 24.164062 19.546875 24.140625 19.53125 24.121094 C 19.519531 24.09375 19.507812 24.066406 19.492188 24.039062 C 19.464844 23.984375 19.4375 23.917969 19.417969 23.84375 C 19.398438 23.769531 19.378906 23.6875 19.363281 23.601562 C 19.347656 23.515625 19.34375 23.421875 19.339844 23.328125 C 19.335938 23.277344 19.335938 23.230469 19.335938 23.179688 C 19.339844 23.132812 19.339844 23.082031 19.34375 23.03125 C 19.351562 22.933594 19.359375 22.832031 19.371094 22.730469 C 19.414062 22.332031 19.5 21.933594 19.578125 21.644531 C 19.65625 21.355469 19.722656 21.164062 19.722656 21.164062 L 19.734375 21.167969 C 19.734375 21.167969 19.675781 21.359375 19.617188 21.652344 C 19.585938 21.800781 19.554688 21.972656 19.523438 22.160156 C 19.507812 22.25 19.496094 22.34375 19.480469 22.441406 C 19.472656 22.539062 19.460938 22.640625 19.457031 22.738281 C 19.449219 22.839844 19.441406 22.9375 19.441406 23.035156 L 19.441406 23.179688 C 19.445312 23.230469 19.445312 23.277344 19.449219 23.320312 C 19.449219 23.414062 19.457031 23.503906 19.464844 23.585938 C 19.472656 23.628906 19.476562 23.667969 19.480469 23.707031 C 19.488281 23.746094 19.492188 23.785156 19.5 23.824219 C 19.515625 23.894531 19.535156 23.957031 19.550781 24.015625 C 19.558594 24.042969 19.570312 24.070312 19.578125 24.097656 C 19.585938 24.121094 19.597656 24.144531 19.605469 24.164062 C 19.617188 24.203125 19.640625 24.230469 19.648438 24.253906 L 19.664062 24.285156 L 19.65625 24.292969 " fill-opacity="1" fill-rule="nonzero"/><g clip-path="url(#id1)"><path fill="#e8e8e8" d="M 53.421875 26.601562 C 53.863281 27.835938 53.210938 29.191406 51.96875 29.628906 L 37.414062 34.742188 C 36.171875 35.179688 34.808594 34.53125 34.371094 33.292969 L 26.195312 10.25 C 25.757812 9.011719 26.410156 7.65625 27.652344 7.21875 L 42.203125 2.105469 C 43.445312 1.667969 44.8125 2.316406 45.25 3.554688 L 53.421875 26.601562 " fill-opacity="1" fill-rule="nonzero"/></g><path fill="#ee275c" d="M 52.316406 26.121094 L 52.183594 26.167969 C 52.265625 26.402344 52.304688 26.640625 52.304688 26.871094 C 52.304688 27.722656 51.789062 28.511719 50.957031 28.800781 L 37.675781 33.46875 C 37.457031 33.546875 37.234375 33.582031 37.011719 33.582031 C 36.167969 33.582031 35.367188 33.042969 35.058594 32.183594 L 27.433594 10.679688 C 27.351562 10.449219 27.3125 10.210938 27.3125 9.976562 C 27.3125 9.125 27.832031 8.339844 28.660156 8.046875 L 41.941406 3.382812 C 42.160156 3.304688 42.382812 3.269531 42.605469 3.269531 C 43.453125 3.269531 44.253906 3.804688 44.558594 4.664062 L 52.183594 26.167969 L 52.316406 26.121094 L 52.445312 26.074219 L 44.820312 4.574219 C 44.476562 3.601562 43.570312 2.992188 42.605469 2.992188 C 42.351562 2.992188 42.097656 3.03125 41.851562 3.121094 L 28.570312 7.789062 C 27.621094 8.121094 27.035156 9.015625 27.035156 9.976562 C 27.035156 10.242188 27.078125 10.511719 27.171875 10.773438 L 34.800781 32.277344 C 35.144531 33.246094 36.050781 33.859375 37.011719 33.859375 C 37.265625 33.859375 37.519531 33.816406 37.769531 33.726562 L 51.050781 29.0625 C 51.996094 28.730469 52.585938 27.832031 52.585938 26.871094 C 52.585938 26.609375 52.539062 26.335938 52.445312 26.074219 L 52.316406 26.121094 " fill-opacity="1" fill-rule="nonzero"/><path fill="#d5d4d5" d="M 51.804688 26.425781 C 51.394531 26.105469 47.558594 23.582031 43.082031 20.660156 C 44.089844 18.800781 45.105469 16.367188 44.5625 14.828125 C 44.082031 13.476562 42.808594 12.632812 41.445312 12.632812 C 41.078125 12.632812 40.707031 12.695312 40.34375 12.824219 C 39.460938 13.132812 38.621094 14.335938 38.71875 15.445312 C 38.195312 14.707031 37.285156 14.296875 36.492188 14.296875 C 36.269531 14.296875 36.054688 14.328125 35.859375 14.398438 C 35.386719 14.566406 34.976562 14.828125 34.640625 15.15625 C 30.859375 12.699219 27.960938 10.816406 27.960938 10.816406 C 27.585938 9.761719 28.140625 8.601562 29.203125 8.230469 L 41.636719 3.859375 C 41.863281 3.78125 42.089844 3.742188 42.320312 3.742188 C 43.160156 3.742188 43.945312 4.265625 44.238281 5.097656 L 51.804688 26.425781 " fill-opacity="1" fill-rule="nonzero"/><path fill="#ee275c" d="M 44.5625 14.828125 C 43.953125 13.117188 42.066406 12.21875 40.34375 12.824219 C 39.460938 13.132812 38.621094 14.335938 38.71875 15.445312 C 38.046875 14.5 36.738281 14.085938 35.859375 14.398438 C 34.136719 15.003906 33.261719 16.875 33.84375 18.597656 C 34.746094 21.28125 41.484375 23.25 41.484375 23.25 C 41.484375 23.25 45.539062 17.585938 44.5625 14.828125 " fill-opacity="1" fill-rule="nonzero"/><path fill="#f25583" d="M 42.128906 21.636719 C 42.703125 20.59375 42.839844 19.277344 42.625 18.0625 C 42.429688 16.996094 41.953125 15.996094 41.191406 15.21875 C 40.71875 14.738281 39.976562 14.191406 39.25 14.097656 C 39.539062 13.660156 39.9375 13.3125 40.339844 13.171875 C 40.683594 13.050781 41.03125 12.996094 41.375 12.996094 C 42.65625 12.996094 43.863281 13.789062 44.3125 15.0625 C 44.851562 16.589844 43.835938 19.289062 42.128906 21.636719 " fill-opacity="1" fill-rule="nonzero"/><path fill="#b11c41" d="M 40.363281 22.550781 C 40.363281 22.550781 40.199219 22.511719 39.917969 22.433594 C 39.773438 22.398438 39.597656 22.351562 39.402344 22.292969 C 39.210938 22.222656 38.992188 22.144531 38.753906 22.054688 C 38.515625 21.972656 38.269531 21.855469 38.003906 21.738281 C 37.734375 21.625 37.46875 21.476562 37.1875 21.335938 C 36.910156 21.1875 36.628906 21.015625 36.34375 20.847656 C 36.0625 20.671875 35.777344 20.492188 35.5 20.300781 C 35.222656 20.101562 34.960938 19.878906 34.734375 19.632812 C 34.507812 19.382812 34.3125 19.109375 34.171875 18.816406 C 34.03125 18.527344 33.953125 18.222656 33.925781 17.929688 C 33.902344 17.636719 33.929688 17.355469 33.984375 17.109375 C 34.097656 16.613281 34.308594 16.238281 34.46875 15.992188 C 34.628906 15.746094 34.746094 15.625 34.746094 15.625 L 34.765625 15.621094 L 34.765625 15.640625 C 34.765625 15.640625 34.65625 15.765625 34.507812 16.019531 C 34.363281 16.265625 34.167969 16.640625 34.078125 17.128906 C 34.039062 17.371094 34.023438 17.636719 34.058594 17.914062 C 34.09375 18.191406 34.175781 18.476562 34.316406 18.746094 C 34.457031 19.015625 34.648438 19.273438 34.871094 19.5 C 35.097656 19.726562 35.359375 19.933594 35.625 20.117188 C 35.90625 20.292969 36.191406 20.460938 36.480469 20.621094 C 36.769531 20.777344 37.046875 20.941406 37.324219 21.078125 C 37.460938 21.152344 37.597656 21.226562 37.730469 21.296875 C 37.859375 21.367188 37.996094 21.429688 38.121094 21.496094 C 38.378906 21.621094 38.613281 21.753906 38.84375 21.851562 C 39.070312 21.953125 39.277344 22.054688 39.460938 22.144531 C 39.648438 22.21875 39.8125 22.285156 39.949219 22.34375 C 40.214844 22.453125 40.371094 22.523438 40.371094 22.523438 L 40.378906 22.542969 L 40.363281 22.550781 " fill-opacity="1" fill-rule="nonzero"/><path fill="#ee275c" d="M 29.546875 10.152344 L 30.144531 10.921875 L 29.628906 11.105469 Z M 29.753906 12.625 L 29.675781 11.667969 L 30.496094 11.378906 L 31.09375 12.152344 L 31.640625 11.960938 L 31.636719 11.953125 L 29.097656 8.992188 L 29.222656 12.808594 L 29.753906 12.625 " fill-opacity="1" fill-rule="nonzero"/><path fill="#ee275c" d="M 49.527344 25.664062 L 50.121094 26.433594 L 49.605469 26.613281 Z M 49.734375 28.132812 L 49.652344 27.179688 L 50.472656 26.890625 L 51.070312 27.664062 L 51.617188 27.472656 L 51.613281 27.46875 L 49.070312 24.503906 L 49.199219 28.324219 L 49.734375 28.132812 " fill-opacity="1" fill-rule="nonzero"/><path fill="#e8e8e8" d="M 46.660156 54.980469 C 46.398438 56.265625 45.136719 57.089844 43.84375 56.828125 L 28.726562 53.75 C 27.433594 53.484375 26.601562 52.230469 26.867188 50.945312 L 31.789062 27.003906 C 32.054688 25.71875 33.316406 24.890625 34.605469 25.152344 L 49.726562 28.234375 C 51.015625 28.496094 51.851562 29.75 51.585938 31.039062 L 46.660156 54.980469 " fill-opacity="1" fill-rule="nonzero"/><path fill="#383536" d="M 45.960938 54 L 45.835938 53.976562 C 45.632812 54.96875 44.765625 55.652344 43.808594 55.652344 C 43.675781 55.652344 43.542969 55.636719 43.40625 55.613281 L 29.609375 52.800781 C 28.644531 52.605469 27.980469 51.742188 27.980469 50.777344 C 27.980469 50.636719 27.992188 50.492188 28.023438 50.34375 L 32.617188 28.007812 C 32.820312 27.011719 33.6875 26.332031 34.640625 26.332031 C 34.773438 26.332031 34.910156 26.34375 35.046875 26.371094 L 48.84375 29.179688 C 49.804688 29.378906 50.472656 30.238281 50.472656 31.203125 C 50.472656 31.347656 50.457031 31.492188 50.429688 31.636719 L 45.835938 53.976562 L 45.960938 54 L 46.085938 54.027344 L 50.679688 31.6875 C 50.714844 31.527344 50.730469 31.367188 50.730469 31.203125 C 50.730469 30.121094 49.980469 29.152344 48.894531 28.929688 L 35.097656 26.117188 C 34.941406 26.089844 34.792969 26.074219 34.640625 26.074219 C 33.5625 26.074219 32.59375 26.84375 32.363281 27.957031 L 27.769531 50.292969 C 27.738281 50.453125 27.722656 50.617188 27.722656 50.777344 C 27.722656 51.859375 28.46875 52.828125 29.558594 53.050781 L 43.355469 55.863281 C 43.507812 55.894531 43.660156 55.90625 43.808594 55.90625 C 44.890625 55.90625 45.859375 55.136719 46.085938 54.027344 L 45.960938 54 " fill-opacity="1" fill-rule="nonzero"/><path fill="#d5d4d5" d="M 45.363281 54.003906 C 45.183594 53.527344 43.304688 49.605469 41.0625 44.976562 C 41.203125 44.996094 41.339844 45.007812 41.472656 45.007812 C 42.683594 45.007812 43.769531 44.160156 44.019531 42.9375 C 44.308594 41.535156 43.398438 40.167969 41.992188 39.878906 C 41.863281 39.851562 41.730469 39.835938 41.601562 39.832031 C 42 39.472656 42.292969 38.988281 42.410156 38.425781 C 42.695312 37.023438 41.792969 35.652344 40.382812 35.367188 C 40.207031 35.332031 40.03125 35.3125 39.859375 35.3125 C 38.679688 35.3125 37.625 36.113281 37.335938 37.285156 C 34.972656 32.421875 33.007812 28.394531 33.007812 28.394531 C 33.203125 27.433594 34.054688 26.773438 35 26.773438 C 35.136719 26.773438 35.277344 26.789062 35.414062 26.8125 L 48.332031 29.445312 C 49.4375 29.671875 50.148438 30.742188 49.921875 31.839844 L 45.363281 54.003906 " fill-opacity="1" fill-rule="nonzero"/><path fill="#383536" d="M 34.710938 28.640625 L 34.824219 29.605469 L 34.289062 29.496094 Z M 33.613281 30.863281 L 34.039062 30.003906 L 34.890625 30.175781 L 35.003906 31.148438 L 35.566406 31.261719 L 35.566406 31.257812 L 34.925781 27.410156 L 33.054688 30.75 L 33.613281 30.863281 " fill-opacity="1" fill-rule="nonzero"/><path fill="#383536" d="M 43.804688 52.175781 L 43.917969 53.140625 L 43.378906 53.035156 Z M 42.703125 54.402344 L 43.128906 53.542969 L 43.984375 53.714844 L 44.097656 54.6875 L 44.664062 54.800781 L 44.664062 54.792969 L 44.019531 50.953125 L 42.148438 54.289062 L 42.703125 54.402344 " fill-opacity="1" fill-rule="nonzero"/><path fill="#383536" d="M 38.957031 42.289062 C 37.867188 46.378906 36.53125 46.300781 36.53125 46.300781 L 39.550781 46.917969 C 39.550781 46.917969 38.417969 46.53125 38.957031 42.289062 " fill-opacity="1" fill-rule="nonzero"/><path fill="#656263" d="M 39.03125 46.648438 L 39.003906 46.625 C 38.984375 46.605469 38.957031 46.585938 38.929688 46.546875 L 38.882812 46.488281 C 38.867188 46.464844 38.847656 46.441406 38.832031 46.414062 C 38.800781 46.359375 38.765625 46.296875 38.734375 46.226562 C 38.703125 46.152344 38.671875 46.074219 38.648438 45.988281 C 38.625 45.902344 38.605469 45.808594 38.589844 45.714844 C 38.582031 45.664062 38.574219 45.617188 38.570312 45.570312 C 38.566406 45.515625 38.5625 45.464844 38.558594 45.417969 C 38.554688 45.316406 38.550781 45.214844 38.550781 45.113281 C 38.546875 44.699219 38.585938 44.292969 38.628906 43.988281 C 38.671875 43.683594 38.714844 43.484375 38.714844 43.484375 L 38.726562 43.488281 C 38.726562 43.488281 38.691406 43.6875 38.667969 43.992188 C 38.652344 44.144531 38.640625 44.320312 38.632812 44.515625 C 38.628906 44.609375 38.628906 44.707031 38.628906 44.804688 C 38.628906 44.90625 38.628906 45.007812 38.636719 45.105469 C 38.640625 45.207031 38.648438 45.3125 38.660156 45.40625 C 38.667969 45.460938 38.671875 45.507812 38.679688 45.554688 C 38.6875 45.601562 38.691406 45.652344 38.699219 45.695312 C 38.714844 45.789062 38.734375 45.878906 38.75 45.960938 C 38.761719 46.003906 38.769531 46.042969 38.785156 46.082031 C 38.792969 46.121094 38.804688 46.160156 38.816406 46.195312 C 38.839844 46.265625 38.863281 46.328125 38.886719 46.386719 C 38.902344 46.414062 38.914062 46.4375 38.925781 46.460938 C 38.941406 46.484375 38.949219 46.507812 38.960938 46.527344 C 38.980469 46.566406 39.003906 46.589844 39.019531 46.609375 L 39.039062 46.640625 L 39.03125 46.648438 " fill-opacity="1" fill-rule="nonzero"/><path fill="#383536" d="M 41.992188 39.878906 C 41.863281 39.851562 41.730469 39.835938 41.601562 39.832031 C 42 39.472656 42.292969 38.988281 42.410156 38.425781 C 42.695312 37.023438 41.792969 35.652344 40.382812 35.367188 C 38.972656 35.082031 37.597656 35.984375 37.3125 37.386719 C 37.195312 37.949219 37.273438 38.507812 37.5 38.992188 C 37.378906 38.949219 37.25 38.914062 37.117188 38.886719 C 35.710938 38.597656 34.335938 39.503906 34.046875 40.90625 C 33.757812 42.304688 34.667969 43.671875 36.074219 43.960938 C 37.222656 44.195312 38.347656 43.640625 38.882812 42.664062 C 38.988281 43.769531 39.800781 44.71875 40.949219 44.953125 C 42.359375 45.242188 43.730469 44.335938 44.019531 42.9375 C 44.308594 41.535156 43.398438 40.167969 41.992188 39.878906 " fill-opacity="1" fill-rule="nonzero"/><path fill="#656263" d="M 41.445312 44.785156 C 41.242188 44.785156 41.03125 44.761719 40.820312 44.707031 C 40.332031 44.578125 39.835938 44.285156 39.625 43.785156 C 39.929688 44.0625 40.253906 44.191406 40.566406 44.191406 C 40.984375 44.191406 41.382812 43.957031 41.667969 43.542969 C 42.1875 42.785156 41.871094 41.722656 41.390625 41.054688 C 40.988281 40.492188 40.351562 40.199219 39.699219 40.023438 C 40.011719 39.859375 40.304688 39.660156 40.546875 39.398438 C 40.871094 39.042969 41.011719 38.582031 41.050781 38.113281 C 41.113281 37.34375 41.027344 36.058594 40.335938 35.636719 C 41.613281 35.898438 42.390625 37.265625 42.128906 38.527344 C 42.027344 39.035156 41.582031 39.671875 41.222656 39.992188 C 41.339844 40 41.460938 40.011719 41.578125 40.039062 C 42.855469 40.296875 43.972656 41.558594 43.726562 42.828125 C 43.496094 44.019531 42.546875 44.785156 41.445312 44.785156 " fill-opacity="1" fill-rule="nonzero"/><path fill="#322e2f" d="M 36.132812 43.742188 C 36.132812 43.742188 36.105469 43.734375 36.054688 43.722656 C 36.027344 43.714844 35.996094 43.710938 35.957031 43.699219 L 35.898438 43.683594 C 35.875 43.679688 35.855469 43.671875 35.828125 43.660156 C 35.78125 43.644531 35.730469 43.625 35.671875 43.605469 C 35.617188 43.582031 35.558594 43.554688 35.496094 43.523438 C 35.433594 43.492188 35.371094 43.453125 35.300781 43.414062 C 35.234375 43.371094 35.171875 43.320312 35.097656 43.269531 C 35.066406 43.242188 35.035156 43.210938 35 43.183594 C 34.96875 43.152344 34.929688 43.125 34.898438 43.089844 C 34.839844 43.019531 34.765625 42.953125 34.710938 42.871094 C 34.585938 42.71875 34.484375 42.53125 34.398438 42.335938 C 34.378906 42.28125 34.359375 42.230469 34.339844 42.179688 C 34.324219 42.128906 34.3125 42.070312 34.296875 42.019531 L 34.273438 41.9375 L 34.257812 41.851562 C 34.253906 41.796875 34.238281 41.742188 34.234375 41.683594 C 34.230469 41.628906 34.226562 41.570312 34.222656 41.511719 L 34.21875 41.472656 L 34.222656 41.429688 L 34.226562 41.339844 C 34.226562 41.28125 34.226562 41.222656 34.238281 41.167969 L 34.265625 40.992188 C 34.308594 40.773438 34.386719 40.539062 34.492188 40.335938 C 34.515625 40.285156 34.550781 40.238281 34.578125 40.1875 C 34.589844 40.164062 34.605469 40.136719 34.621094 40.113281 L 34.671875 40.046875 C 34.707031 40 34.742188 39.953125 34.777344 39.910156 C 34.8125 39.871094 34.851562 39.828125 34.890625 39.789062 C 35.046875 39.632812 35.214844 39.5 35.394531 39.40625 C 35.484375 39.351562 35.574219 39.320312 35.660156 39.28125 C 35.703125 39.261719 35.75 39.25 35.792969 39.234375 C 35.835938 39.21875 35.878906 39.203125 35.917969 39.191406 C 36.007812 39.175781 36.089844 39.152344 36.167969 39.144531 C 36.246094 39.136719 36.324219 39.125 36.394531 39.121094 L 36.589844 39.121094 C 36.652344 39.125 36.707031 39.132812 36.757812 39.140625 C 36.785156 39.140625 36.804688 39.144531 36.832031 39.144531 C 36.851562 39.152344 36.871094 39.15625 36.890625 39.15625 C 36.929688 39.167969 36.960938 39.175781 36.988281 39.179688 C 37.039062 39.191406 37.070312 39.199219 37.070312 39.199219 L 37.074219 39.210938 L 37.066406 39.214844 C 37.066406 39.214844 37.039062 39.210938 36.984375 39.210938 C 36.957031 39.207031 36.925781 39.203125 36.886719 39.199219 L 36.824219 39.195312 L 36.753906 39.195312 C 36.703125 39.195312 36.648438 39.195312 36.589844 39.195312 C 36.53125 39.203125 36.46875 39.210938 36.402344 39.214844 C 36.335938 39.222656 36.265625 39.242188 36.1875 39.253906 C 36.152344 39.261719 36.113281 39.273438 36.074219 39.285156 C 36.035156 39.296875 35.996094 39.304688 35.957031 39.320312 C 35.917969 39.332031 35.878906 39.347656 35.839844 39.363281 C 35.800781 39.378906 35.757812 39.390625 35.71875 39.414062 C 35.640625 39.453125 35.554688 39.488281 35.476562 39.542969 C 35.3125 39.636719 35.15625 39.765625 35.011719 39.90625 C 34.976562 39.945312 34.9375 39.980469 34.902344 40.019531 C 34.867188 40.058594 34.839844 40.101562 34.804688 40.140625 L 34.753906 40.207031 L 34.710938 40.273438 C 34.683594 40.316406 34.652344 40.359375 34.625 40.410156 C 34.601562 40.457031 34.578125 40.503906 34.550781 40.554688 L 34.53125 40.589844 L 34.519531 40.628906 L 34.488281 40.703125 C 34.445312 40.796875 34.421875 40.914062 34.390625 41.023438 C 34.351562 41.234375 34.328125 41.460938 34.34375 41.675781 C 34.351562 41.730469 34.359375 41.78125 34.367188 41.835938 L 34.375 41.917969 L 34.394531 41.996094 C 34.410156 42.046875 34.417969 42.101562 34.433594 42.148438 C 34.453125 42.199219 34.46875 42.25 34.488281 42.296875 C 34.566406 42.492188 34.65625 42.671875 34.773438 42.824219 C 34.824219 42.90625 34.890625 42.972656 34.949219 43.042969 C 34.976562 43.078125 35.011719 43.105469 35.042969 43.136719 C 35.074219 43.167969 35.105469 43.199219 35.136719 43.226562 C 35.203125 43.277344 35.265625 43.332031 35.328125 43.371094 C 35.394531 43.414062 35.453125 43.457031 35.515625 43.488281 C 35.574219 43.519531 35.632812 43.550781 35.6875 43.574219 C 35.742188 43.597656 35.792969 43.617188 35.839844 43.636719 C 35.859375 43.644531 35.882812 43.652344 35.90625 43.660156 L 35.964844 43.679688 C 36 43.6875 36.03125 43.699219 36.058594 43.703125 C 36.109375 43.71875 36.136719 43.726562 36.136719 43.726562 L 36.144531 43.734375 L 36.132812 43.742188 " fill-opacity="1" fill-rule="nonzero"/><path fill="#322e2f" d="M 37.554688 37.566406 L 37.546875 37.558594 C 37.546875 37.558594 37.554688 37.503906 37.566406 37.410156 C 37.570312 37.386719 37.574219 37.363281 37.578125 37.332031 C 37.585938 37.304688 37.59375 37.273438 37.601562 37.242188 C 37.609375 37.210938 37.617188 37.175781 37.628906 37.140625 C 37.636719 37.101562 37.652344 37.066406 37.664062 37.027344 C 37.679688 36.988281 37.695312 36.945312 37.710938 36.90625 C 37.730469 36.863281 37.75 36.824219 37.769531 36.777344 C 37.78125 36.761719 37.792969 36.738281 37.800781 36.714844 L 37.839844 36.652344 C 37.867188 36.609375 37.894531 36.566406 37.921875 36.523438 C 37.984375 36.4375 38.046875 36.347656 38.125 36.269531 C 38.195312 36.1875 38.28125 36.117188 38.367188 36.042969 C 38.457031 35.976562 38.542969 35.90625 38.640625 35.851562 C 38.734375 35.789062 38.835938 35.75 38.933594 35.703125 C 38.984375 35.6875 39.03125 35.671875 39.082031 35.65625 C 39.105469 35.648438 39.128906 35.640625 39.15625 35.632812 C 39.179688 35.628906 39.203125 35.625 39.226562 35.621094 C 39.273438 35.613281 39.320312 35.601562 39.367188 35.597656 C 39.410156 35.589844 39.453125 35.589844 39.496094 35.585938 C 39.527344 35.582031 39.558594 35.582031 39.585938 35.582031 C 39.636719 35.582031 39.683594 35.585938 39.726562 35.589844 C 39.761719 35.589844 39.792969 35.59375 39.820312 35.597656 C 39.851562 35.601562 39.878906 35.605469 39.902344 35.609375 C 39.996094 35.628906 40.050781 35.640625 40.050781 35.640625 L 40.054688 35.652344 L 40.046875 35.660156 C 40.046875 35.660156 39.992188 35.664062 39.898438 35.667969 C 39.875 35.667969 39.847656 35.667969 39.820312 35.667969 C 39.792969 35.671875 39.761719 35.675781 39.726562 35.679688 C 39.695312 35.683594 39.664062 35.6875 39.625 35.691406 C 39.589844 35.691406 39.550781 35.707031 39.511719 35.710938 C 39.472656 35.71875 39.433594 35.726562 39.390625 35.734375 C 39.351562 35.742188 39.304688 35.757812 39.261719 35.769531 C 39.238281 35.773438 39.21875 35.777344 39.195312 35.785156 C 39.175781 35.789062 39.152344 35.800781 39.128906 35.808594 C 39.082031 35.824219 39.039062 35.839844 38.992188 35.855469 C 38.902344 35.894531 38.804688 35.925781 38.710938 35.976562 C 38.617188 36.019531 38.53125 36.085938 38.441406 36.140625 C 38.359375 36.207031 38.273438 36.269531 38.203125 36.347656 C 38.125 36.417969 38.0625 36.5 37.996094 36.574219 C 37.964844 36.617188 37.9375 36.65625 37.910156 36.695312 L 37.871094 36.753906 L 37.835938 36.816406 L 37.769531 36.933594 C 37.75 36.972656 37.734375 37.011719 37.71875 37.046875 C 37.703125 37.082031 37.683594 37.121094 37.671875 37.152344 C 37.664062 37.1875 37.652344 37.222656 37.640625 37.25 C 37.632812 37.28125 37.621094 37.3125 37.613281 37.339844 C 37.605469 37.367188 37.597656 37.390625 37.59375 37.414062 C 37.574219 37.507812 37.5625 37.5625 37.5625 37.5625 L 37.554688 37.566406 " fill-opacity="1" fill-rule="nonzero"/><path fill="#e8e8e8" d="M 35.703125 49.222656 C 36.09375 50.472656 35.390625 51.804688 34.136719 52.199219 L 19.402344 56.769531 C 18.144531 57.160156 16.804688 56.460938 16.414062 55.207031 L 9.105469 31.878906 C 8.710938 30.625 9.414062 29.296875 10.671875 28.902344 L 25.40625 24.332031 C 26.664062 23.941406 28 24.640625 28.394531 25.890625 L 35.703125 49.222656 " fill-opacity="1" fill-rule="nonzero"/><path fill="#ee275c" d="M 34.613281 48.703125 L 34.492188 48.738281 C 34.558594 48.953125 34.589844 49.167969 34.589844 49.375 C 34.589844 50.261719 34.03125 51.070312 33.160156 51.34375 L 19.714844 55.515625 C 19.519531 55.578125 19.316406 55.605469 19.117188 55.605469 C 18.238281 55.605469 17.417969 55.027344 17.136719 54.128906 L 10.316406 32.359375 C 10.25 32.148438 10.21875 31.933594 10.21875 31.726562 C 10.21875 30.839844 10.777344 30.027344 11.648438 29.757812 L 25.089844 25.585938 C 25.289062 25.523438 25.492188 25.496094 25.6875 25.496094 C 26.566406 25.496094 27.390625 26.074219 27.671875 26.972656 L 34.492188 48.738281 L 34.734375 48.664062 L 27.917969 26.898438 C 27.601562 25.890625 26.679688 25.238281 25.6875 25.238281 C 25.464844 25.238281 25.238281 25.273438 25.015625 25.339844 L 11.570312 29.515625 C 10.585938 29.820312 9.960938 30.734375 9.960938 31.726562 C 9.960938 31.960938 9.996094 32.199219 10.070312 32.4375 L 16.890625 54.203125 C 17.203125 55.210938 18.128906 55.863281 19.117188 55.863281 C 19.34375 55.863281 19.570312 55.828125 19.792969 55.757812 L 33.238281 51.585938 C 34.21875 51.28125 34.84375 50.367188 34.84375 49.375 C 34.84375 49.140625 34.8125 48.902344 34.734375 48.664062 L 34.613281 48.703125 " fill-opacity="1" fill-rule="nonzero"/><path fill="#d5d4d5" d="M 34.089844 48.992188 C 33.699219 48.660156 30.105469 46.09375 25.851562 43.089844 L 27.289062 39.035156 L 20.363281 34.035156 L 18.894531 38.175781 C 14.488281 35.070312 10.84375 32.511719 10.84375 32.511719 C 10.511719 31.441406 11.109375 30.304688 12.183594 29.96875 L 24.773438 26.0625 C 24.976562 26 25.179688 25.972656 25.378906 25.972656 C 26.25 25.972656 27.054688 26.527344 27.328125 27.398438 L 34.089844 48.992188 " fill-opacity="1" fill-rule="nonzero"/><path fill="#ee275c" d="M 12.457031 31.90625 L 13.023438 32.695312 L 12.503906 32.859375 Z M 12.574219 34.382812 L 12.527344 33.421875 L 13.359375 33.164062 L 13.929688 33.960938 L 14.480469 33.789062 L 14.476562 33.785156 L 12.046875 30.730469 L 12.03125 34.550781 L 12.574219 34.382812 " fill-opacity="1" fill-rule="nonzero"/><path fill="#ee275c" d="M 31.84375 48.140625 L 32.410156 48.933594 L 31.886719 49.097656 Z M 31.960938 50.617188 L 31.914062 49.664062 L 32.742188 49.402344 L 33.316406 50.199219 L 33.863281 50.027344 L 33.863281 50.023438 L 31.433594 46.96875 L 31.414062 50.789062 L 31.960938 50.617188 " fill-opacity="1" fill-rule="nonzero"/><path fill="#ee275c" d="M 27.289062 39.035156 L 24.441406 47.066406 L 17.515625 42.066406 L 20.363281 34.035156 L 27.289062 39.035156 " fill-opacity="1" fill-rule="nonzero"/><path fill="#f25583" d="M 24.230469 46.492188 L 25.617188 39.710938 L 20.53125 34.476562 L 26.789062 39.273438 L 24.230469 46.492188 " fill-opacity="1" fill-rule="nonzero"/><path fill="#b11c41" d="M 21.949219 44.835938 C 21.78125 44.71875 21.617188 44.605469 21.449219 44.488281 C 21.285156 44.371094 21.121094 44.25 20.957031 44.132812 C 20.792969 44.011719 20.628906 43.898438 20.464844 43.773438 L 19.976562 43.414062 L 19.492188 43.050781 L 19.011719 42.683594 C 18.851562 42.5625 18.691406 42.4375 18.53125 42.3125 L 18.054688 41.9375 L 18.050781 41.9375 C 18.023438 41.914062 18.011719 41.875 18.023438 41.84375 L 19.175781 38.503906 L 20.332031 35.167969 L 20.339844 35.164062 L 20.347656 35.175781 L 19.273438 38.535156 L 18.207031 41.839844 L 18.644531 42.167969 C 18.804688 42.289062 18.96875 42.410156 19.125 42.535156 L 19.605469 42.90625 L 20.082031 43.28125 L 20.554688 43.660156 C 20.710938 43.789062 20.867188 43.917969 21.023438 44.042969 C 21.179688 44.171875 21.339844 44.300781 21.492188 44.429688 C 21.648438 44.558594 21.804688 44.6875 21.960938 44.820312 L 21.960938 44.835938 L 21.949219 44.835938 " fill-opacity="1" fill-rule="nonzero"/></svg>