<svg xmlns="http://www.w3.org/2000/svg" width="600" height="250" shape-rendering="geometricPrecision" text-rendering="geometricPrecision" image-rendering="optimizeQuality" fill-rule="evenodd" clip-rule="evenodd"><defs><linearGradient id="c" gradientUnits="userSpaceOnUse" x1="-1.128" y1="121.64" x2="126.01" y2="128.126"><stop offset="0" stop-color="#6a0804"/><stop offset=".231" stop-color="#a5080f"/><stop offset="1" stop-color="#fd121b"/></linearGradient><linearGradient id="b" gradientUnits="userSpaceOnUse" x1="99.171" y1="120.719" x2="114.843" y2="253.93"><stop offset="0" stop-color="#550804"/><stop offset=".231" stop-color="#792307"/><stop offset="1" stop-color="#fea702"/></linearGradient><linearGradient id="a" gradientUnits="userSpaceOnUse" x1="99.171" y1="129.047" x2="114.843" y2="-4.164"><stop offset="0" stop-color="#0b0a54"/><stop offset=".231" stop-color="#03246d"/><stop offset="1" stop-color="#01acee"/></linearGradient></defs><path d="M214 48S181 0 107 0C46 0 0 34 0 54c0 23 46 35 46 71h79c0-21-69-32-69-77 0-41 107-38 158 0z" fill="url(#a)"/><path d="M214 202s-33 48-107 48C46 250 0 216 0 196c0-23 46-36 46-71h79c0 21-69 32-69 77 0 41 107 38 158 0z" fill="url(#b)"/><path d="M1 47c-1 3-1 5-1 7 0 23 46 35 46 71 0 35-46 48-46 71 0 2 0 4 1 6-6-22 74-41 111-61 8-5 13-10 13-16s-5-11-13-16C75 89-5 70 1 47z" fill="url(#c)"/><path d="M180 134h8c-1 4-3 7-7 9-3 2-7 4-13 4s-11-2-14-6c-4-3-6-8-6-15 0-6 2-11 6-15 3-3 8-5 14-5 7 0 12 2 16 5 3 4 5 9 5 15v3h-29c0 3 1 5 3 7 1 1 3 2 6 2 2 0 3 0 5-1h1c0-1 0-1 1-1 0-1 0-1 1-1 1-1 2-1 3-1zm-20-12h17c0-2-1-4-2-5-2-2-4-2-6-2-3 0-5 0-6 2-2 1-3 3-3 5zm78 24h-6c-1 0-3-1-4-2-1 0-1-2-1-3v-20c0-2-1-4-3-5-1-1-3-2-5-2s-4 1-5 2c-2 1-2 3-2 5v25h-12v-23c0-7 2-11 6-13 4-3 8-4 13-4s9 1 13 3c4 3 6 7 6 14v23zm40-51h6c2 0 3 1 4 2s2 2 2 3v29c0 7-3 12-7 14-5 2-9 4-15 4-3 0-5-1-8-2-3 0-5-2-7-4-3-3-4-8-4-14 0-7 1-12 4-15 4-4 8-6 13-6 3 0 5 1 7 2s4 2 5 4V95zm-18 31c0 4 1 7 2 9 2 2 4 3 7 3s6-1 7-3c2-2 2-5 2-9 0-3 0-6-2-8s-4-3-7-3-5 1-7 3c-1 2-2 5-2 8zm47 16c-3-1-4-4-5-7s-2-6-2-9 1-5 1-8c1-3 2-5 4-7 3-2 7-4 11-5 5 0 9 0 12 1 5 2 8 4 10 8 2 3 2 7 2 11 0 3 0 6-1 8 0 2-1 4-3 6-2 3-6 5-10 6-3 1-7 1-11 0-3-1-6-2-8-4zm7-25c-2 2-3 5-3 10 1 4 1 7 3 9 1 1 2 1 4 2h5c1 0 3-1 4-3s2-5 2-9c0-3 0-6-2-8-1-1-2-3-4-3-2-1-3-1-5 0-2 0-3 1-4 2zm38 29v-19c0-4 0-7 2-10 1-2 3-4 5-6 2-1 4-2 7-3s6-1 9-1h1v10h-3c-4 0-6 1-7 2-2 2-3 4-3 7v20h-11zm46 9c0 2 0 3-1 4-2 1-3 1-4 1h-6v-36c0-7 2-12 7-14 4-3 9-4 14-4 3 0 6 1 9 1 3 1 5 3 6 4 4 4 5 9 5 15s-1 11-5 15c-3 4-7 6-12 6-3 0-5-1-8-2-2-1-3-2-5-4v14zm19-28c0-4-1-7-2-9-2-2-4-3-8-3-3 0-5 1-6 3-2 2-3 5-3 9 0 3 1 6 3 8 1 2 4 3 7 3s5-1 7-3c1-2 2-5 2-8zm50-9c-1-2-4-3-6-3-4 0-6 1-8 3-1 2-2 4-2 8v20h-11V96h5c2 0 3 0 4 1s2 2 2 3v12c2-3 5-5 8-5 4-1 7-1 11 0 3 1 5 3 7 6 3 2 4 6 4 10v23h-11v-20c0-2-1-3-1-4 0-2-1-3-2-4zm26-11h6c1 0 3 0 4 1s2 3 2 4v34h-12v-39zm0-11h6c1 0 3 0 4 1s2 2 2 3v4h-12v-8zm60 50h-6c-2 0-3-1-4-2-1 0-2-2-2-3v-20c0-2 0-4-2-5s-3-2-5-2-4 1-6 2c-1 1-2 3-2 5v25h-11v-23c0-7 1-11 5-13 4-3 9-4 13-4 5 0 10 1 14 3 4 3 6 7 6 14v23zm36-20c-1 1-3 2-6 2-3 1-4 1-4 1-2 0-3 1-4 2s-1 2-1 3 0 3 1 4c1 0 3 1 4 1 4 0 6-1 8-3 1-1 2-3 2-6v-4zm3 18c-2 1-5 2-7 2-3 0-5 1-7 1-4 0-8-1-11-3s-4-5-4-10c0-4 1-7 4-8 3-2 6-3 10-4h2c1 0 2 0 3-1 5 0 7-1 7-3s-1-3-2-3c-2-1-4-1-5-1-2 0-3 0-4 1-1 0-2 1-3 2h-11c1-3 2-6 5-8s7-3 12-3c7 0 11 1 14 3s5 5 5 8v13c0 4-1 7-2 10-2 2-4 3-6 4z" fill="#fff" fill-rule="nonzero"/></svg>