<svg width="80" height="77" viewBox="0 0 80 77" fill="none" xmlns="http://www.w3.org/2000/svg">
<path d="M48.8114 27.4636L49.5878 32.3813L46.3525 33.2872C46.2231 37.9461 47.129 61.7582 52.3055 74.4407L45.4466 75.9937L42.5995 58.5228L34.5759 59.817L31.3406 76.6407L25.5169 74.6995C27.5876 69.1348 30.4347 49.8521 29.917 37.0402L27.717 37.4285L26.5523 31.2166C26.5523 30.9578 29.2699 30.4401 48.8114 27.4636ZM25.5169 24.3577C25.1287 27.7224 24.2228 30.9578 23.0581 34.0637C18.3992 30.5695 13.6109 31.9931 9.46968 33.2872C8.6932 36.3931 7.91672 43.3815 9.08144 46.2286C11.9285 46.6168 14.7756 45.9697 17.1051 44.2874L16.5874 53.9934C14.4305 51.1894 12.3635 51.6208 10.1617 52.0672L9.71946 52.1557C9.42335 52.2135 9.12458 52.2679 8.82261 52.311V53.7345C8.6932 60.8523 9.85792 67.97 12.4462 74.6995H3.64608L3.77549 72.6289C4.55197 59.0405 4.8108 40.5344 1.31664 27.7224C1.9637 27.8519 2.74018 27.8519 3.38725 27.8519C10.505 27.8519 20.7286 24.3577 25.2581 24.3577H25.5169ZM34.5759 1.1927C37.0347 -0.230852 41.3054 -0.230853 44.6701 0.416214C47.6466 0.933868 50.2349 2.61624 52.0467 4.94568C54.1173 7.0163 56.4468 8.56926 59.1644 9.47515C61.7527 10.381 65.1175 8.82809 67.7057 7.40454C69.5175 6.36923 71.7175 5.85158 73.7882 5.98099C75.7294 6.49865 77.2823 7.92219 77.8 9.86339C78.5765 13.0987 78.9647 16.5929 78.8353 19.9576C78.8353 22.2871 79.0941 24.3577 79.4823 26.8166L79.4624 26.6876L79.4823 26.6871C79.4795 26.713 79.4766 26.7388 79.4738 26.7646L79.4823 26.8166L79.4671 26.8254C77.8094 41.9254 79.3549 57.7924 80 72.8877H75.2117C74.2901 71.2071 71.6878 66.9147 68.9557 62.4461L67.895 60.7128C64.4482 55.0849 61.1126 49.6755 60.9762 49.3345C60.588 58.6523 59.5527 62.1464 60.3292 71.0759L52.5644 69.1347C54.5056 59.0405 56.835 46.4874 55.5409 31.7343H61.7527C63.3057 39.6285 70.294 53.864 74.4352 58.6523C74.4352 54.8372 74.335 50.2704 74.2228 45.6355L74.1609 43.1047C74.0368 38.0461 73.9176 33.0543 73.9176 29.0166V27.7224C73.7882 26.2989 73.5293 20.6047 73.3999 19.0517C73.1411 17.24 72.8823 15.4282 72.494 13.6164C72.4617 13.4546 72.4293 13.3009 72.397 13.1513L72.2028 12.2697L72.1058 11.8046C72.1058 11.8046 72.8823 11.934 73.3999 13.487C73.9176 15.1693 74.3058 16.8517 74.694 18.6635C74.925 19.9336 75.877 24.2941 76.0796 27.1496C76.7406 27.0222 77.4084 26.9101 78.089 26.8235C77.9544 25.6921 77.7724 23.9525 77.6706 22.9341C77.2823 19.8282 76.8941 15.8164 76.3764 12.0634C75.9882 9.08691 74.8235 8.18102 73.9176 7.66337C71.847 7.0163 69.5175 7.40454 67.8351 8.69867C65.1175 10.381 61.8821 11.1575 58.7762 10.7693C56.3173 10.6399 52.5644 8.05161 50.882 6.36923C49.0702 4.55744 46.7407 3.1339 44.2819 2.09859C41.176 1.32211 37.8112 1.45152 34.7053 2.35742C31.47 3.52214 28.8817 7.66337 27.9758 9.73398C27.0699 11.8046 26.5523 16.9811 26.0346 19.9576C25.5169 22.9342 23.5757 22.6753 20.3404 23.0636C16.3286 23.5812 11.6697 23.7106 6.88141 24.3577C4.8108 24.6165 2.74018 25.1342 0.928396 26.0401L0.902543 26.0559C0.694777 26.1821 -0.667703 26.9987 0.410742 26.0401C2.35194 24.7459 4.55197 23.84 6.752 23.5812C8.82261 23.193 17.6227 22.4165 19.5639 21.8988C22.6699 21.1224 24.4816 20.7341 24.9993 19.1812C25.7758 16.8517 25.5169 13.2281 27.1993 9.08692C28.6229 5.72217 31.2111 2.87507 34.5759 1.1927ZM41.176 36.9108C39.2348 37.0402 37.1642 37.299 35.223 37.6873C35.0935 37.6873 34.8347 37.6873 34.7053 37.8167L34.8347 51.9228C37.1642 51.9228 39.3642 51.6639 41.5642 51.2757L41.4348 51.1463C41.4348 46.358 41.176 41.8285 41.176 36.9108ZM50.2349 9.34574C52.3055 8.05161 52.1761 11.4164 51.6585 12.8399C50.1055 16.3341 48.4231 19.6988 46.4819 22.9341C45.9643 23.5812 45.0584 27.2048 40.1407 26.5577C35.223 25.9107 31.3405 21.1224 30.1758 19.5694C28.8817 18.0164 29.3994 16.3341 31.8582 16.4635C33.7994 16.5929 36.1288 17.1105 38.07 17.1105C39.1054 17.1105 40.1407 16.7223 41.0466 16.0752C42.5995 15.0399 43.6348 14.134 45.0584 13.0987C46.7407 11.934 48.1643 10.6399 50.2349 9.34574ZM34.0582 5.72217C36.7759 5.33393 37.8112 7.92219 37.9406 10.1222C38.07 12.3222 37.0347 14.6517 34.5759 14.6517C32.3759 14.6517 31.3406 12.1928 31.3406 10.1222C31.3406 7.66337 32.8935 5.85158 34.0582 5.72217ZM44.1525 5.0751C45.0584 4.68686 46.0937 4.55744 46.9996 4.68686C48.4231 4.81627 49.1996 5.33392 49.4584 6.23982C49.5878 6.75747 49.329 7.0163 48.0349 7.14571C46.4819 7.0163 45.0584 7.27513 43.6348 7.79278C42.3407 8.43985 41.9524 9.47515 41.4348 9.47515C40.9171 9.47515 41.0466 8.56926 41.4348 7.53395C42.0819 6.36923 42.9878 5.59275 44.1525 5.0751Z" fill="black"/>
</svg>
