<svg width="80" height="79" viewBox="0 0 80 79" fill="none" xmlns="http://www.w3.org/2000/svg">
<path d="M0 0.045833C0.774415 -0.0106825 1.54883 -0.0015178 2.32477 0.00459199C22.4871 0.0122292 42.6494 0.0275037 62.8116 0.0412507C63.5983 0.0336135 64.3819 0.0213939 65.1654 0.0977662C64.8218 0.957719 64.3101 1.69395 63.8564 2.4928C62.2633 5.22846 60.6579 7.95495 59.0816 10.6982C58.8953 11.019 58.6937 11.3291 58.492 11.6407C57.2945 11.7568 56.0756 11.6941 54.8689 11.6987C52.9367 11.6147 50.9999 11.6636 49.0646 11.6514C39.8526 11.6376 30.6314 11.6392 21.4194 11.6223C21.0879 11.6269 20.7565 11.6437 20.425 11.6651C20.7504 12.4579 21.23 13.1467 21.6607 13.8814C22.8216 15.8717 24.0267 17.836 25.1723 19.837C25.3358 20.0966 25.5038 20.425 25.7619 20.6022C26.3912 20.6893 27.045 20.6266 27.6804 20.6358C35.2672 20.6343 42.8525 20.6358 50.4393 20.6358C51.313 20.6328 52.1821 20.6129 53.0543 20.6725C52.6877 21.4652 52.2112 22.1877 51.7743 22.9423C49.9826 26.0399 48.1589 29.1208 46.3794 32.2261C45.2857 32.2948 44.2028 32.2475 43.1076 32.2581C40.0527 32.2566 36.9978 32.2627 33.9429 32.2536C33.5672 32.2566 33.1929 32.2734 32.8172 32.2963C33.1609 33.115 33.6405 33.8436 34.0804 34.6089C35.8767 37.6989 37.6699 40.7889 39.46 43.8805C38.4535 45.5439 37.4637 47.218 36.4831 48.8966C35.171 51.0503 33.9475 53.2605 32.5972 55.3898C29.5103 50.1552 26.4019 44.9329 23.3669 39.6663C21.705 36.8466 20.1134 33.9826 18.4042 31.1905C12.5877 21.3751 6.76812 11.5628 0.951599 1.74741C0.607924 1.19447 0.27494 0.636955 0 0.045833Z" fill="#D51A20"/>
<path d="M60.0837 20.6724C60.6748 20.5777 61.298 20.6373 61.8952 20.6281C66.9862 20.6327 72.0787 20.6281 77.1697 20.6296C78.1167 20.6327 79.053 20.6006 80.0001 20.6663C79.7175 21.3124 79.3539 21.9081 78.9858 22.5068C68.3456 40.6331 57.6993 58.7547 47.0607 76.8809C46.7781 77.3804 46.4848 77.8722 46.1595 78.3442C45.7822 77.8203 45.4553 77.2673 45.1361 76.7083C40.9646 69.598 36.7535 62.5076 32.5973 55.3897C33.9476 53.2605 35.171 51.0502 36.4831 48.8965C37.4637 47.2179 38.4535 45.5438 39.4601 43.8804C40.9845 46.4862 42.4875 49.1043 44.0088 51.7116C44.7344 52.9473 45.4126 54.2151 46.1916 55.4172C46.552 54.9391 46.8575 54.4274 47.1508 53.9066C51.0534 47.3202 54.9591 40.7369 58.8587 34.1506C59.2314 33.5381 59.6102 32.9332 59.9218 32.284C57.6871 32.2061 55.4464 32.2917 53.2102 32.2428C55.3028 28.5754 57.4718 24.9447 59.575 21.2818C59.7125 21.0863 59.8515 20.7564 60.0837 20.6724Z" fill="#18161C"/>
</svg>
