<svg width="80" height="80" fill="none" xmlns="http://www.w3.org/2000/svg"><path d="M73.17 25.822v-.162a8.917 8.917 0 0 0-4.492-7.744l.013-.022-8.52-4.922L26.764 32.28v15.806l12.823 7.229L51.69 48.63v-9.352l-12.103 7.045v-9.483l20.41-11.74.09 28.181-20.679 11.83-20.77-11.745-.101-25.872L51.938 8.221l-7.083-4.092a8.915 8.915 0 0 0-9.393-.243l-.013-.024L11.14 17.894l.015.024a8.914 8.914 0 0 0-4.49 7.742V53.763a8.917 8.917 0 0 0 5.17 8.083l23.346 13.492a8.922 8.922 0 0 0 10.019-.315l22.752-13.136a8.923 8.923 0 0 0 5.221-8.12v-.162l-.004-27.783Z" fill="#8BC53F"/></svg>
