<svg xmlns="http://www.w3.org/2000/svg" xmlns:xlink="http://www.w3.org/1999/xlink" width="80" zoomAndPan="magnify" viewBox="0 0 60 60" height="80" preserveAspectRatio="xMidYMid meet" version="1.0"><defs><g/><clipPath id="id1"><path d="M 0.824219 0.824219 L 11 0.824219 L 11 11 L 0.824219 11 Z M 0.824219 0.824219 " clip-rule="nonzero"/></clipPath><clipPath id="id2"><path d="M 13 0.824219 L 24 0.824219 L 24 11 L 13 11 Z M 13 0.824219 " clip-rule="nonzero"/></clipPath><clipPath id="id3"><path d="M 26 0.824219 L 37 0.824219 L 37 11 L 26 11 Z M 26 0.824219 " clip-rule="nonzero"/></clipPath><clipPath id="id4"><path d="M 38 0.824219 L 49 0.824219 L 49 11 L 38 11 Z M 38 0.824219 " clip-rule="nonzero"/></clipPath><clipPath id="id5"><path d="M 51.484375 0.824219 L 60 0.824219 L 60 10.917969 L 51.484375 10.917969 Z M 51.484375 0.824219 " clip-rule="nonzero"/></clipPath><clipPath id="id6"><path d="M 0.824219 13 L 11 13 L 11 24 L 0.824219 24 Z M 0.824219 13 " clip-rule="nonzero"/></clipPath><clipPath id="id7"><path d="M 51.484375 13.441406 L 60 13.441406 L 60 23.535156 L 51.484375 23.535156 Z M 51.484375 13.441406 " clip-rule="nonzero"/></clipPath><clipPath id="id8"><path d="M 0.824219 26 L 11 26 L 11 37 L 0.824219 37 Z M 0.824219 26 " clip-rule="nonzero"/></clipPath><clipPath id="id9"><path d="M 51.484375 26.152344 L 60 26.152344 L 60 36.246094 L 51.484375 36.246094 Z M 51.484375 26.152344 " clip-rule="nonzero"/></clipPath><clipPath id="id10"><path d="M 0.824219 38 L 11 38 L 11 49 L 0.824219 49 Z M 0.824219 38 " clip-rule="nonzero"/></clipPath><clipPath id="id11"><path d="M 51.484375 38.863281 L 60 38.863281 L 60 48.957031 L 51.484375 48.957031 Z M 51.484375 38.863281 " clip-rule="nonzero"/></clipPath><clipPath id="id12"><path d="M 0.824219 51 L 11 51 L 11 60 L 0.824219 60 Z M 0.824219 51 " clip-rule="nonzero"/></clipPath><clipPath id="id13"><path d="M 51.484375 51.480469 L 60 51.480469 L 60 60 L 51.484375 60 Z M 51.484375 51.480469 " clip-rule="nonzero"/></clipPath></defs><g clip-path="url(#id1)"><path fill="#c7e6ff" d="M 10.839844 0.824219 L 0.828125 0.824219 L 0.828125 10.835938 L 10.839844 10.835938 L 10.839844 0.824219 " fill-opacity="1" fill-rule="nonzero"/></g><g clip-path="url(#id2)"><path fill="#c7e6ff" d="M 23.523438 0.824219 L 13.511719 0.824219 L 13.511719 10.835938 L 23.523438 10.835938 L 23.523438 0.824219 " fill-opacity="1" fill-rule="nonzero"/></g><g clip-path="url(#id3)"><path fill="#c7e6ff" d="M 36.207031 0.824219 L 26.195312 0.824219 L 26.195312 10.835938 L 36.207031 10.835938 L 36.207031 0.824219 " fill-opacity="1" fill-rule="nonzero"/></g><g clip-path="url(#id4)"><path fill="#c7e6ff" d="M 48.890625 0.824219 L 38.878906 0.824219 L 38.878906 10.835938 L 48.890625 10.835938 L 48.890625 0.824219 " fill-opacity="1" fill-rule="nonzero"/></g><g clip-path="url(#id5)"><path fill="#c7e6ff" d="M 61.574219 0.824219 L 51.5625 0.824219 L 51.5625 10.835938 L 61.574219 10.835938 L 61.574219 0.824219 " fill-opacity="1" fill-rule="nonzero"/></g><g clip-path="url(#id6)"><path fill="#c7e6ff" d="M 10.839844 13.507812 L 0.828125 13.507812 L 0.828125 23.523438 L 10.839844 23.523438 L 10.839844 13.507812 " fill-opacity="1" fill-rule="nonzero"/></g><path fill="#c7e6ff" d="M 23.523438 13.507812 L 13.511719 13.507812 L 13.511719 23.523438 L 23.523438 23.523438 L 23.523438 13.507812 " fill-opacity="1" fill-rule="nonzero"/><path fill="#c7e6ff" d="M 36.207031 13.507812 L 26.195312 13.507812 L 26.195312 23.523438 L 36.207031 23.523438 L 36.207031 13.507812 " fill-opacity="1" fill-rule="nonzero"/><path fill="#c7e6ff" d="M 48.890625 13.507812 L 38.878906 13.507812 L 38.878906 23.523438 L 48.890625 23.523438 L 48.890625 13.507812 " fill-opacity="1" fill-rule="nonzero"/><g clip-path="url(#id7)"><path fill="#c7e6ff" d="M 61.574219 13.507812 L 51.5625 13.507812 L 51.5625 23.523438 L 61.574219 23.523438 L 61.574219 13.507812 " fill-opacity="1" fill-rule="nonzero"/></g><g clip-path="url(#id8)"><path fill="#c7e6ff" d="M 10.839844 26.195312 L 0.828125 26.195312 L 0.828125 36.207031 L 10.839844 36.207031 L 10.839844 26.195312 " fill-opacity="1" fill-rule="nonzero"/></g><path fill="#c7e6ff" d="M 23.523438 26.195312 L 13.511719 26.195312 L 13.511719 36.207031 L 23.523438 36.207031 L 23.523438 26.195312 " fill-opacity="1" fill-rule="nonzero"/><path fill="#c7e6ff" d="M 36.207031 26.195312 L 26.195312 26.195312 L 26.195312 36.207031 L 36.207031 36.207031 L 36.207031 26.195312 " fill-opacity="1" fill-rule="nonzero"/><path fill="#c7e6ff" d="M 48.890625 26.195312 L 38.878906 26.195312 L 38.878906 36.207031 L 48.890625 36.207031 L 48.890625 26.195312 " fill-opacity="1" fill-rule="nonzero"/><g clip-path="url(#id9)"><path fill="#c7e6ff" d="M 61.574219 26.195312 L 51.5625 26.195312 L 51.5625 36.207031 L 61.574219 36.207031 L 61.574219 26.195312 " fill-opacity="1" fill-rule="nonzero"/></g><g clip-path="url(#id10)"><path fill="#c7e6ff" d="M 10.839844 38.878906 L 0.828125 38.878906 L 0.828125 48.890625 L 10.839844 48.890625 L 10.839844 38.878906 " fill-opacity="1" fill-rule="nonzero"/></g><path fill="#c7e6ff" d="M 23.523438 38.878906 L 13.511719 38.878906 L 13.511719 48.890625 L 23.523438 48.890625 L 23.523438 38.878906 " fill-opacity="1" fill-rule="nonzero"/><path fill="#c7e6ff" d="M 36.207031 38.878906 L 26.195312 38.878906 L 26.195312 48.890625 L 36.207031 48.890625 L 36.207031 38.878906 " fill-opacity="1" fill-rule="nonzero"/><path fill="#c7e6ff" d="M 48.890625 38.878906 L 38.878906 38.878906 L 38.878906 48.890625 L 48.890625 48.890625 L 48.890625 38.878906 " fill-opacity="1" fill-rule="nonzero"/><g clip-path="url(#id11)"><path fill="#c7e6ff" d="M 61.574219 38.878906 L 51.5625 38.878906 L 51.5625 48.890625 L 61.574219 48.890625 L 61.574219 38.878906 " fill-opacity="1" fill-rule="nonzero"/></g><g clip-path="url(#id12)"><path fill="#c7e6ff" d="M 10.839844 51.5625 L 0.828125 51.5625 L 0.828125 61.574219 L 10.839844 61.574219 L 10.839844 51.5625 " fill-opacity="1" fill-rule="nonzero"/></g><path fill="#c7e6ff" d="M 23.523438 51.5625 L 13.511719 51.5625 L 13.511719 61.574219 L 23.523438 61.574219 L 23.523438 51.5625 " fill-opacity="1" fill-rule="nonzero"/><path fill="#c7e6ff" d="M 36.207031 51.5625 L 26.195312 51.5625 L 26.195312 61.574219 L 36.207031 61.574219 L 36.207031 51.5625 " fill-opacity="1" fill-rule="nonzero"/><path fill="#c7e6ff" d="M 48.890625 51.5625 L 38.878906 51.5625 L 38.878906 61.574219 L 48.890625 61.574219 L 48.890625 51.5625 " fill-opacity="1" fill-rule="nonzero"/><g clip-path="url(#id13)"><path fill="#c7e6ff" d="M 61.574219 51.5625 L 51.5625 51.5625 L 51.5625 61.574219 L 61.574219 61.574219 L 61.574219 51.5625 " fill-opacity="1" fill-rule="nonzero"/></g><path fill="#ebedef" d="M 11.886719 4.726562 C 15.90625 4.726562 19.164062 7.984375 19.164062 12 C 19.164062 16.019531 15.90625 19.277344 11.886719 19.277344 C 7.867188 19.277344 4.609375 16.019531 4.609375 12 C 4.609375 7.984375 7.867188 4.726562 11.886719 4.726562 " fill-opacity="1" fill-rule="nonzero"/><path fill="#834896" d="M 11.886719 17.5625 C 8.816406 17.5625 6.324219 15.074219 6.324219 12 C 6.324219 8.925781 8.816406 6.4375 11.886719 6.4375 C 14.957031 6.4375 17.449219 8.925781 17.449219 12 C 17.449219 15.074219 14.957031 17.5625 11.886719 17.5625 Z M 11.886719 5.621094 C 8.363281 5.621094 5.507812 8.476562 5.507812 12 C 5.507812 15.523438 8.363281 18.378906 11.886719 18.378906 C 15.410156 18.378906 18.265625 15.523438 18.265625 12 C 18.265625 8.476562 15.410156 5.621094 11.886719 5.621094 " fill-opacity="1" fill-rule="nonzero"/><path fill="#9b5ab6" d="M 19.164062 12 C 19.164062 7.984375 15.90625 4.726562 11.886719 4.726562 C 7.867188 4.726562 4.609375 7.984375 4.609375 12 C 4.609375 16.019531 7.867188 19.277344 11.886719 19.277344 C 15.90625 19.277344 19.164062 16.019531 19.164062 12 Z M 11.886719 1.769531 C 17.535156 1.769531 22.117188 6.351562 22.117188 12 C 22.117188 17.652344 17.535156 22.230469 11.886719 22.230469 C 6.234375 22.230469 1.65625 17.652344 1.65625 12 C 1.65625 6.351562 6.234375 1.769531 11.886719 1.769531 " fill-opacity="1" fill-rule="nonzero"/><path fill="#2c414f" d="M 13.382812 12.972656 C 13.371094 12.996094 13.347656 13.027344 13.3125 13.0625 C 13.316406 13.082031 13.324219 13.105469 13.335938 13.144531 C 13.347656 13.179688 13.363281 13.210938 13.375 13.238281 C 13.386719 13.269531 13.394531 13.292969 13.394531 13.304688 C 13.398438 13.316406 13.390625 13.304688 13.375 13.277344 C 13.410156 13.355469 13.464844 13.429688 13.535156 13.503906 C 13.605469 13.578125 13.671875 13.640625 13.738281 13.6875 C 13.785156 13.722656 13.839844 13.753906 13.894531 13.785156 C 13.953125 13.816406 14.011719 13.835938 14.078125 13.847656 C 14.195312 13.867188 14.316406 13.867188 14.433594 13.855469 C 14.554688 13.84375 14.667969 13.800781 14.773438 13.722656 C 14.859375 13.667969 14.921875 13.589844 14.964844 13.484375 C 15.007812 13.382812 15.035156 13.273438 15.042969 13.15625 C 15.046875 13.039062 15.03125 12.925781 14.996094 12.816406 C 14.960938 12.707031 14.902344 12.621094 14.828125 12.5625 C 14.742188 12.496094 14.652344 12.457031 14.554688 12.4375 C 14.457031 12.421875 14.355469 12.417969 14.257812 12.429688 C 14.097656 12.445312 13.957031 12.496094 13.835938 12.574219 C 13.75 12.621094 13.667969 12.679688 13.59375 12.75 C 13.515625 12.820312 13.449219 12.898438 13.382812 12.972656 Z M 14.765625 9.984375 C 14.527344 10.199219 14.316406 10.429688 14.136719 10.675781 C 13.953125 10.925781 13.785156 11.1875 13.632812 11.464844 C 13.75 11.417969 13.871094 11.382812 14 11.359375 C 14.121094 11.335938 14.253906 11.328125 14.390625 11.332031 C 14.582031 11.34375 14.753906 11.371094 14.90625 11.414062 C 15.0625 11.453125 15.226562 11.519531 15.398438 11.609375 C 15.625 11.734375 15.796875 11.902344 15.910156 12.121094 C 16.027344 12.339844 16.097656 12.574219 16.121094 12.820312 C 16.144531 13.070312 16.125 13.320312 16.066406 13.570312 C 16.007812 13.820312 15.917969 14.042969 15.800781 14.230469 C 15.636719 14.488281 15.417969 14.671875 15.140625 14.785156 C 14.859375 14.894531 14.578125 14.957031 14.292969 14.960938 C 13.996094 14.972656 13.707031 14.917969 13.425781 14.792969 C 13.105469 14.65625 12.84375 14.433594 12.632812 14.132812 C 12.414062 13.816406 12.28125 13.484375 12.238281 13.128906 C 12.191406 12.773438 12.207031 12.421875 12.277344 12.074219 C 12.347656 11.722656 12.46875 11.378906 12.632812 11.042969 C 12.800781 10.707031 12.988281 10.394531 13.195312 10.109375 C 13.3125 9.945312 13.445312 9.773438 13.59375 9.597656 C 13.738281 9.421875 13.898438 9.277344 14.070312 9.15625 C 14.210938 9.054688 14.351562 9.019531 14.488281 9.046875 C 14.625 9.070312 14.734375 9.132812 14.820312 9.234375 C 14.902344 9.332031 14.945312 9.449219 14.945312 9.589844 C 14.949219 9.730469 14.890625 9.859375 14.765625 9.984375 " fill-opacity="1" fill-rule="nonzero"/><path fill="#2c414f" d="M 9.898438 14.5625 C 9.855469 14.667969 9.792969 14.753906 9.707031 14.816406 C 9.625 14.878906 9.539062 14.917969 9.445312 14.929688 C 9.351562 14.945312 9.261719 14.933594 9.167969 14.894531 C 9.078125 14.855469 9 14.785156 8.933594 14.6875 C 8.855469 14.574219 8.828125 14.445312 8.847656 14.308594 C 8.871094 14.167969 8.886719 14.042969 8.90625 13.929688 C 9.019531 13.257812 9.195312 12.597656 9.441406 11.957031 C 9.683594 11.316406 10.003906 10.714844 10.394531 10.15625 L 8.203125 10.15625 C 8.039062 10.15625 7.914062 10.113281 7.820312 10.023438 C 7.722656 9.933594 7.667969 9.828125 7.648438 9.707031 C 7.628906 9.585938 7.652344 9.464844 7.714844 9.347656 C 7.777344 9.234375 7.886719 9.148438 8.039062 9.09375 C 8.105469 9.078125 8.175781 9.066406 8.246094 9.066406 C 8.804688 9.066406 9.359375 9.066406 9.910156 9.0625 C 10.460938 9.0625 11.011719 9.0625 11.574219 9.066406 C 11.679688 9.066406 11.78125 9.121094 11.875 9.21875 C 11.96875 9.320312 12.023438 9.421875 12.035156 9.523438 C 12.046875 9.703125 12.003906 9.851562 11.902344 9.96875 C 11.800781 10.089844 11.699219 10.210938 11.597656 10.335938 C 11.492188 10.476562 11.390625 10.625 11.296875 10.777344 C 11.199219 10.925781 11.109375 11.082031 11.019531 11.234375 C 10.726562 11.753906 10.492188 12.28125 10.304688 12.816406 C 10.121094 13.355469 9.992188 13.917969 9.921875 14.507812 L 9.898438 14.5625 " fill-opacity="1" fill-rule="nonzero"/><path fill="#ebedef" d="M 50.519531 43.125 C 54.535156 43.125 57.792969 46.382812 57.792969 50.398438 C 57.792969 54.417969 54.535156 57.675781 50.519531 57.675781 C 46.496094 57.675781 43.242188 54.417969 43.242188 50.398438 C 43.242188 46.382812 46.496094 43.125 50.519531 43.125 " fill-opacity="1" fill-rule="nonzero"/><path fill="#bd3e25" d="M 50.515625 55.960938 C 47.445312 55.960938 44.957031 53.472656 44.957031 50.402344 C 44.957031 47.328125 47.445312 44.839844 50.515625 44.839844 C 53.589844 44.839844 56.078125 47.328125 56.078125 50.402344 C 56.078125 53.472656 53.589844 55.960938 50.515625 55.960938 Z M 50.515625 44.019531 C 46.992188 44.019531 44.136719 46.878906 44.136719 50.402344 C 44.136719 53.921875 46.992188 56.78125 50.515625 56.78125 C 54.039062 56.78125 56.898438 53.921875 56.898438 50.402344 C 56.898438 46.878906 54.039062 44.019531 50.515625 44.019531 " fill-opacity="1" fill-rule="nonzero"/><path fill="#e05b49" d="M 57.792969 50.398438 C 57.792969 46.382812 54.535156 43.125 50.519531 43.125 C 46.496094 43.125 43.242188 46.382812 43.242188 50.398438 C 43.242188 54.417969 46.496094 57.675781 50.519531 57.675781 C 54.535156 57.675781 57.792969 54.417969 57.792969 50.398438 Z M 50.519531 40.167969 C 56.167969 40.167969 60.746094 44.75 60.746094 50.398438 C 60.746094 56.050781 56.167969 60.632812 50.519531 60.632812 C 44.867188 60.632812 40.285156 56.050781 40.285156 50.398438 C 40.285156 44.75 44.867188 40.167969 50.519531 40.167969 " fill-opacity="1" fill-rule="nonzero"/><path fill="#2c414f" d="M 49.859375 48.796875 C 49.847656 48.832031 49.847656 48.863281 49.855469 48.894531 C 49.863281 48.921875 49.871094 48.953125 49.882812 48.988281 C 49.964844 49.117188 50.058594 49.230469 50.160156 49.335938 C 50.265625 49.4375 50.378906 49.539062 50.5 49.636719 C 50.640625 49.546875 50.769531 49.445312 50.898438 49.339844 C 51.023438 49.230469 51.136719 49.105469 51.234375 48.960938 C 51.257812 48.898438 51.273438 48.851562 51.277344 48.824219 C 51.285156 48.796875 51.273438 48.742188 51.253906 48.667969 C 51.164062 48.582031 51.058594 48.523438 50.933594 48.492188 C 50.808594 48.460938 50.675781 48.445312 50.539062 48.457031 C 50.402344 48.464844 50.273438 48.496094 50.152344 48.550781 C 50.03125 48.605469 49.9375 48.675781 49.867188 48.761719 C 49.863281 48.773438 49.859375 48.785156 49.859375 48.796875 Z M 50.421875 50.839844 C 50.269531 50.9375 50.136719 51.042969 50.011719 51.148438 C 49.886719 51.253906 49.777344 51.382812 49.675781 51.535156 C 49.675781 51.546875 49.667969 51.5625 49.652344 51.589844 C 49.632812 51.617188 49.625 51.679688 49.625 51.785156 C 49.625 51.8125 49.625 51.84375 49.628906 51.878906 C 49.632812 51.914062 49.640625 51.953125 49.660156 52 C 49.761719 52.152344 49.902344 52.253906 50.082031 52.304688 C 50.253906 52.355469 50.433594 52.367188 50.613281 52.335938 C 50.789062 52.304688 50.953125 52.234375 51.097656 52.121094 C 51.242188 52.011719 51.339844 51.871094 51.390625 51.699219 C 51.367188 51.601562 51.320312 51.507812 51.246094 51.425781 C 51.167969 51.34375 51.085938 51.265625 50.988281 51.195312 C 50.894531 51.125 50.796875 51.0625 50.695312 51 C 50.59375 50.941406 50.503906 50.886719 50.421875 50.839844 Z M 48.558594 51.898438 C 48.554688 51.8125 48.554688 51.710938 48.558594 51.59375 C 48.558594 51.445312 48.589844 51.304688 48.648438 51.171875 C 48.703125 51.039062 48.777344 50.914062 48.867188 50.796875 C 48.957031 50.683594 49.058594 50.574219 49.171875 50.476562 C 49.28125 50.378906 49.398438 50.292969 49.523438 50.21875 C 49.417969 50.125 49.320312 50.027344 49.230469 49.921875 C 49.140625 49.820312 49.0625 49.703125 48.992188 49.570312 C 48.804688 49.234375 48.730469 48.933594 48.78125 48.664062 C 48.828125 48.394531 48.953125 48.167969 49.144531 47.984375 C 49.339844 47.800781 49.582031 47.660156 49.878906 47.566406 C 50.175781 47.46875 50.480469 47.429688 50.78125 47.4375 C 51.085938 47.449219 51.371094 47.515625 51.636719 47.640625 C 51.90625 47.765625 52.109375 47.957031 52.25 48.210938 C 52.304688 48.3125 52.335938 48.425781 52.34375 48.546875 C 52.347656 48.667969 52.347656 48.785156 52.34375 48.894531 C 52.335938 49.007812 52.320312 49.121094 52.285156 49.230469 C 52.25 49.339844 52.203125 49.445312 52.144531 49.542969 C 52.058594 49.691406 51.949219 49.824219 51.816406 49.9375 C 51.683594 50.050781 51.546875 50.15625 51.410156 50.253906 C 51.546875 50.355469 51.695312 50.464844 51.84375 50.578125 C 52 50.691406 52.125 50.820312 52.222656 50.972656 C 52.375 51.203125 52.457031 51.425781 52.472656 51.648438 C 52.492188 51.867188 52.457031 52.070312 52.375 52.261719 C 52.289062 52.453125 52.164062 52.625 51.992188 52.78125 C 51.820312 52.9375 51.617188 53.066406 51.382812 53.171875 C 51.1875 53.257812 50.96875 53.316406 50.734375 53.34375 C 50.496094 53.371094 50.261719 53.371094 50.027344 53.335938 C 49.792969 53.300781 49.574219 53.234375 49.367188 53.132812 C 49.160156 53.03125 48.980469 52.890625 48.835938 52.71875 C 48.738281 52.605469 48.671875 52.476562 48.632812 52.332031 C 48.597656 52.183594 48.574219 52.042969 48.558594 51.898438 " fill-opacity="1" fill-rule="nonzero"/><path fill="#ebedef" d="M 37.390625 17.894531 C 41.40625 17.894531 44.664062 21.152344 44.664062 25.167969 C 44.664062 29.1875 41.40625 32.445312 37.390625 32.445312 C 33.371094 32.445312 30.113281 29.1875 30.113281 25.167969 C 30.113281 21.152344 33.371094 17.894531 37.390625 17.894531 " fill-opacity="1" fill-rule="nonzero"/><path fill="#efc84a" d="M 44.664062 25.167969 C 44.664062 21.152344 41.40625 17.894531 37.390625 17.894531 C 33.371094 17.894531 30.113281 21.152344 30.113281 25.167969 C 30.113281 29.1875 33.371094 32.445312 37.390625 32.445312 C 41.40625 32.445312 44.664062 29.1875 44.664062 25.167969 Z M 37.390625 14.9375 C 43.039062 14.9375 47.621094 19.519531 47.621094 25.167969 C 47.621094 30.820312 43.039062 35.398438 37.390625 35.398438 C 31.738281 35.398438 27.15625 30.820312 27.15625 25.167969 C 27.15625 19.519531 31.738281 14.9375 37.390625 14.9375 " fill-opacity="1" fill-rule="nonzero"/><path fill="#e8a243" d="M 37.390625 30.730469 C 34.316406 30.730469 31.828125 28.242188 31.828125 25.167969 C 31.828125 22.097656 34.316406 19.605469 37.390625 19.605469 C 40.460938 19.605469 42.949219 22.097656 42.949219 25.167969 C 42.949219 28.242188 40.460938 30.730469 37.390625 30.730469 Z M 37.390625 18.789062 C 33.867188 18.789062 31.007812 21.644531 31.007812 25.167969 C 31.007812 28.691406 33.867188 31.546875 37.390625 31.546875 C 40.910156 31.546875 43.769531 28.691406 43.769531 25.167969 C 43.769531 21.644531 40.910156 18.789062 37.390625 18.789062 " fill-opacity="1" fill-rule="nonzero"/><path fill="#2c414f" d="M 35.519531 23.667969 C 35.417969 23.460938 35.289062 23.351562 35.136719 23.34375 C 34.980469 23.332031 34.808594 23.394531 34.609375 23.523438 C 34.515625 23.582031 34.414062 23.667969 34.304688 23.773438 C 34.195312 23.878906 34.082031 23.96875 33.960938 24.039062 C 33.84375 24.109375 33.722656 24.148438 33.601562 24.148438 C 33.480469 24.148438 33.359375 24.074219 33.242188 23.925781 C 33.140625 23.800781 33.101562 23.671875 33.132812 23.542969 C 33.15625 23.414062 33.214844 23.289062 33.304688 23.171875 C 33.394531 23.058594 33.496094 22.953125 33.621094 22.859375 C 33.742188 22.761719 33.84375 22.683594 33.925781 22.625 C 34.121094 22.484375 34.335938 22.375 34.566406 22.300781 C 34.796875 22.226562 35.027344 22.195312 35.253906 22.207031 C 35.484375 22.21875 35.699219 22.285156 35.894531 22.398438 C 36.09375 22.515625 36.261719 22.695312 36.390625 22.9375 C 36.515625 23.167969 36.59375 23.402344 36.628906 23.640625 C 36.664062 23.875 36.65625 24.109375 36.605469 24.332031 C 36.550781 24.558594 36.457031 24.773438 36.324219 24.972656 C 36.191406 25.175781 36.015625 25.355469 35.804688 25.507812 C 35.671875 25.601562 35.527344 25.695312 35.371094 25.785156 C 35.214844 25.871094 35.0625 25.96875 34.917969 26.078125 C 34.773438 26.183594 34.644531 26.300781 34.535156 26.433594 C 34.425781 26.5625 34.351562 26.71875 34.316406 26.90625 C 34.382812 26.90625 34.480469 26.910156 34.605469 26.921875 C 34.734375 26.933594 34.875 26.941406 35.023438 26.949219 C 35.175781 26.953125 35.332031 26.953125 35.496094 26.9375 C 35.660156 26.929688 35.804688 26.902344 35.9375 26.859375 C 35.914062 26.882812 35.894531 26.898438 35.882812 26.90625 C 35.972656 26.816406 36.054688 26.734375 36.136719 26.660156 C 36.214844 26.585938 36.328125 26.554688 36.46875 26.566406 C 36.570312 26.570312 36.660156 26.605469 36.742188 26.667969 C 36.820312 26.730469 36.882812 26.804688 36.921875 26.894531 C 36.964844 26.984375 36.984375 27.078125 36.980469 27.183594 C 36.976562 27.289062 36.941406 27.382812 36.871094 27.464844 C 36.734375 27.628906 36.582031 27.769531 36.417969 27.882812 C 36.25 27.996094 36.054688 28.050781 35.828125 28.050781 L 33.710938 28.050781 C 33.578125 28.050781 33.457031 28.007812 33.355469 27.917969 C 33.257812 27.828125 33.191406 27.71875 33.160156 27.589844 C 33.136719 27.488281 33.136719 27.386719 33.15625 27.285156 C 33.175781 27.1875 33.195312 27.085938 33.207031 26.984375 C 33.242188 26.742188 33.292969 26.519531 33.367188 26.324219 C 33.4375 26.128906 33.527344 25.953125 33.640625 25.792969 C 33.753906 25.632812 33.890625 25.484375 34.046875 25.351562 C 34.203125 25.21875 34.386719 25.089844 34.59375 24.964844 C 34.6875 24.910156 34.804688 24.839844 34.941406 24.75 C 35.074219 24.660156 35.203125 24.5625 35.3125 24.449219 C 35.425781 24.335938 35.507812 24.214844 35.558594 24.082031 C 35.609375 23.945312 35.59375 23.808594 35.519531 23.667969 " fill-opacity="1" fill-rule="nonzero"/><path fill="#2c414f" d="M 38.222656 27.410156 C 38.15625 27.308594 38.117188 27.203125 38.105469 27.09375 C 38.09375 26.984375 38.109375 26.882812 38.152344 26.792969 C 38.191406 26.699219 38.257812 26.628906 38.351562 26.574219 C 38.441406 26.519531 38.554688 26.5 38.683594 26.511719 C 38.828125 26.523438 38.949219 26.574219 39.050781 26.660156 C 39.148438 26.746094 39.25 26.828125 39.355469 26.898438 C 39.460938 26.972656 39.570312 27.023438 39.6875 27.050781 C 39.808594 27.078125 39.953125 27.039062 40.125 26.929688 C 40.167969 26.902344 40.203125 26.871094 40.234375 26.835938 C 40.261719 26.804688 40.292969 26.769531 40.320312 26.734375 C 40.355469 26.6875 40.382812 26.648438 40.402344 26.613281 C 40.417969 26.582031 40.4375 26.539062 40.453125 26.484375 C 40.488281 26.386719 40.511719 26.289062 40.523438 26.203125 C 40.535156 26.113281 40.535156 26.015625 40.523438 25.917969 C 40.4375 25.75 40.324219 25.640625 40.191406 25.589844 C 40.058594 25.535156 39.917969 25.5 39.773438 25.484375 C 39.628906 25.46875 39.484375 25.453125 39.34375 25.4375 C 39.199219 25.417969 39.078125 25.367188 38.976562 25.277344 C 38.890625 25.199219 38.832031 25.109375 38.8125 25.011719 C 38.792969 24.910156 38.796875 24.8125 38.832031 24.71875 C 38.863281 24.628906 38.917969 24.546875 39 24.476562 C 39.078125 24.40625 39.175781 24.359375 39.289062 24.34375 C 39.378906 24.324219 39.476562 24.308594 39.578125 24.292969 C 39.683594 24.277344 39.78125 24.253906 39.875 24.222656 C 39.972656 24.191406 40.058594 24.148438 40.144531 24.09375 C 40.226562 24.039062 40.292969 23.96875 40.347656 23.878906 C 40.351562 23.816406 40.355469 23.75 40.351562 23.6875 C 40.347656 23.628906 40.332031 23.566406 40.304688 23.507812 C 40.246094 23.453125 40.160156 23.417969 40.050781 23.394531 C 39.941406 23.375 39.824219 23.367188 39.703125 23.371094 C 39.582031 23.371094 39.46875 23.386719 39.359375 23.410156 C 39.253906 23.433594 39.167969 23.460938 39.101562 23.488281 C 38.960938 23.632812 38.816406 23.695312 38.667969 23.6875 C 38.519531 23.679688 38.394531 23.628906 38.292969 23.53125 C 38.191406 23.4375 38.128906 23.320312 38.105469 23.175781 C 38.082031 23.035156 38.125 22.90625 38.230469 22.792969 C 38.3125 22.699219 38.40625 22.625 38.511719 22.566406 C 38.613281 22.511719 38.730469 22.464844 38.855469 22.429688 C 39.15625 22.347656 39.472656 22.304688 39.800781 22.300781 C 40.128906 22.296875 40.4375 22.371094 40.722656 22.519531 C 40.953125 22.636719 41.125 22.792969 41.242188 22.992188 C 41.355469 23.1875 41.421875 23.394531 41.4375 23.613281 C 41.453125 23.832031 41.417969 24.050781 41.335938 24.265625 C 41.25 24.484375 41.125 24.675781 40.953125 24.839844 C 41.167969 24.988281 41.328125 25.160156 41.4375 25.351562 C 41.546875 25.542969 41.613281 25.742188 41.640625 25.945312 C 41.667969 26.152344 41.65625 26.359375 41.605469 26.570312 C 41.554688 26.78125 41.472656 26.976562 41.351562 27.160156 C 41.234375 27.34375 41.085938 27.511719 40.910156 27.664062 C 40.738281 27.816406 40.539062 27.9375 40.320312 28.023438 C 40.132812 28.101562 39.945312 28.136719 39.761719 28.132812 C 39.578125 28.125 39.398438 28.09375 39.222656 28.03125 C 39.046875 27.972656 38.878906 27.894531 38.714844 27.789062 C 38.550781 27.683594 38.398438 27.570312 38.257812 27.445312 L 38.222656 27.410156 " fill-opacity="1" fill-rule="nonzero"/><g fill="#9f3f73" fill-opacity="1"><g transform="translate(5.869316, 46.611816)"><g><path d="M 4.855469 0 L 2.488281 -2.757812 L 4.625 -4.933594 L 3.300781 -4.933594 L 1.527344 -3.019531 L 1.527344 -4.933594 L 0.5 -4.933594 L 0.5 0 L 1.527344 0 L 1.527344 -2.386719 L 3.484375 0 Z M 4.855469 0 "/></g></g></g><g fill="#9f3f73" fill-opacity="1"><g transform="translate(10.519557, 46.611816)"><g><path d="M 3.570312 -4.027344 L 3.570312 -4.933594 L 0.539062 -4.933594 L 0.539062 0 L 3.570312 0 L 3.570312 -0.90625 L 1.566406 -0.90625 L 1.566406 -2.011719 L 3.296875 -2.011719 L 3.296875 -2.921875 L 1.566406 -2.921875 L 1.566406 -4.027344 Z M 3.570312 -4.027344 "/></g></g></g><g fill="#9f3f73" fill-opacity="1"><g transform="translate(14.387084, 46.611816)"><g><path d="M 4.039062 -4.933594 L 4.039062 -1.539062 L 1.550781 -4.933594 L 0.5 -4.933594 L 0.5 0 L 1.527344 0 L 1.527344 -3.40625 L 4.007812 0 L 5.058594 0 L 5.058594 -4.933594 Z M 4.039062 -4.933594 "/></g></g></g><g fill="#9f3f73" fill-opacity="1"><g transform="translate(19.94501, 46.611816)"><g><path d="M 2.855469 0.0664062 C 3.550781 0.0664062 4.152344 -0.175781 4.644531 -0.671875 C 5.136719 -1.164062 5.386719 -1.761719 5.386719 -2.464844 C 5.386719 -3.164062 5.136719 -3.761719 4.644531 -4.257812 C 4.152344 -4.75 3.550781 -5 2.855469 -5 C 2.152344 -5 1.550781 -4.75 1.058594 -4.257812 C 0.566406 -3.761719 0.324219 -3.164062 0.324219 -2.464844 C 0.324219 -1.761719 0.566406 -1.164062 1.058594 -0.671875 C 1.550781 -0.175781 2.152344 0.0664062 2.855469 0.0664062 Z M 2.855469 -0.941406 C 2.421875 -0.941406 2.058594 -1.085938 1.769531 -1.382812 C 1.472656 -1.671875 1.328125 -2.03125 1.328125 -2.464844 C 1.328125 -2.894531 1.472656 -3.257812 1.769531 -3.550781 C 2.058594 -3.839844 2.421875 -3.992188 2.855469 -3.992188 C 3.28125 -3.992188 3.644531 -3.839844 3.941406 -3.550781 C 4.230469 -3.257812 4.382812 -2.894531 4.382812 -2.464844 C 4.382812 -2.03125 4.230469 -1.671875 3.941406 -1.382812 C 3.644531 -1.085938 3.28125 -0.941406 2.855469 -0.941406 Z M 2.855469 -0.941406 "/></g></g></g><path stroke-linecap="butt" transform="matrix(0.0343245, 0, 0, 0.0343245, 3, 40.417856)" fill="none" stroke-linejoin="miter" d="M 217.592694 172.984935 L 148.513843 92.753321 L 210.878275 29.250852 L 172.298818 29.250852 L 120.631934 85.014669 L 120.631934 29.250852 L 90.701559 29.250852 L 90.701559 172.984935 L 120.631934 172.984935 L 120.631934 103.45087 L 177.761396 172.984935 Z M 315.69149 55.653312 L 315.69149 29.250852 L 227.379812 29.250852 L 227.379812 172.984935 L 315.69149 172.984935 L 315.69149 146.582475 L 257.196384 146.582475 L 257.196384 114.376026 L 307.611427 114.376026 L 307.611427 87.859762 L 257.196384 87.859762 L 257.196384 55.653312 Z M 442.013606 29.250852 L 442.013606 128.146274 L 369.520644 29.250852 L 338.793643 29.250852 L 338.793643 172.984935 L 368.724018 172.984935 L 368.724018 73.748102 L 440.989373 172.984935 L 471.716374 172.984935 L 471.716374 29.250852 Z M 569.359955 174.919598 C 589.730819 174.919598 607.142786 167.749965 621.482054 153.410697 C 635.935125 139.07143 643.218562 121.659463 643.218562 101.174795 C 643.218562 80.803932 635.935125 63.391964 621.482054 49.052697 C 607.142786 34.599626 589.730819 27.316189 569.359955 27.316189 C 548.875288 27.316189 531.463321 34.599626 517.01025 49.052697 C 502.670982 63.391964 495.615153 80.803932 495.615153 101.174795 C 495.615153 121.659463 502.670982 139.07143 517.01025 153.410697 C 531.463321 167.749965 548.875288 174.919598 569.359955 174.919598 Z M 569.359955 145.558242 C 556.727744 145.558242 546.143999 141.347504 537.722525 132.812226 C 529.187246 124.390752 524.862706 113.807007 524.862706 101.174795 C 524.862706 88.656388 529.187246 78.072643 537.722525 69.537365 C 546.143999 61.11589 556.727744 56.677546 569.359955 56.677546 C 581.878363 56.677546 592.348304 61.11589 600.997386 69.537365 C 609.418861 78.072643 613.857205 88.656388 613.857205 101.174795 C 613.857205 113.807007 609.418861 124.390752 600.997386 132.812226 C 592.348304 141.347504 581.878363 145.558242 569.359955 145.558242 Z M 569.359955 145.558242 " stroke="#f8a9ad" stroke-width="7.186751" stroke-opacity="1" stroke-miterlimit="4"/></svg>