<svg width="80" height="80" fill="none" xmlns="http://www.w3.org/2000/svg"><path d="M35.07.085c6.082-.209 12.187-.05 18.233.668 4.536.573 9.097 1.393 13.338 3.156 2.749 1.164 5.417 2.828 7.104 5.352 1.658 2.482 2.394 5.462 2.666 8.404.522 6.057-.383 12.105-.933 18.127-.712 8.132-1.573 16.277-3.372 24.25-.66 2.832-1.428 5.656-2.602 8.324-.788 1.79-1.83 3.501-3.277 4.835-1.96 1.812-4.394 3.021-6.885 3.927-3.755 1.347-7.71 2.04-11.666 2.461-7.397.754-14.924.498-22.217-.994-3.05-.658-6.079-1.57-8.829-3.069-1.868-1.023-3.61-2.351-4.85-4.103-1.374-1.927-2.24-4.16-2.969-6.396-1.266-3.984-2.056-8.098-2.733-12.215-.8-4.896-1.337-9.829-1.769-14.769-.477-5.476-1.258-10.935-1.308-16.444-.02-4.279.438-8.83 2.909-12.46 2.314-3.32 6.17-5.094 9.915-6.282C22.055.969 28.59.355 35.069.084l.002.001ZM36.946 2.8c-5.704.142-11.424.601-17.006 1.829-2.414.55-4.813 1.25-7.047 2.337-1.694.834-3.314 1.918-4.468 3.433-1.184 1.579-1.841 3.49-2.209 5.413-.6 3.285-.494 6.644-.278 9.96.311 4.298.831 8.576 1.204 12.87.452 5.082 1.053 10.15 1.915 15.179.676 3.834 1.446 7.67 2.72 11.356.742 2.065 1.64 4.155 3.197 5.747 1.48 1.48 3.359 2.487 5.282 3.266 3.026 1.201 6.234 1.872 9.448 2.332a72.22 72.22 0 0 0 16.116.448c3.834-.33 7.674-.883 11.358-2.024 2.412-.76 4.803-1.773 6.763-3.411 1.31-1.087 2.246-2.556 2.948-4.092 1.143-2.518 1.862-5.204 2.491-7.89 1.723-7.629 2.581-15.418 3.26-23.197.489-5.396 1.258-10.783 1.148-16.21-.112-3.326-.565-6.851-2.547-9.631-1.553-2.089-3.92-3.37-6.292-4.307-3.859-1.484-7.963-2.19-12.047-2.71-5.293-.628-10.63-.803-15.956-.698Z" fill="#002A5B"/><path d="M36.928 6.729c5.802-.112 11.623.096 17.373.916 3.086.466 6.173 1.065 9.1 2.174 1.422.557 2.84 1.222 3.986 2.255.979.87 1.509 2.12 1.857 3.357.634 2.35.655 4.808.612 7.225-.153 4.855-.807 9.676-1.229 14.511-.423 4.815-.943 9.622-1.711 14.396-.64 3.906-1.38 7.81-2.579 11.588-.487 1.457-1.03 2.915-1.876 4.206-.778 1.177-2.001 1.958-3.24 2.578-2.19 1.068-4.564 1.69-6.94 2.185-4.455.888-9.01 1.233-13.547 1.175-4.54-.087-9.093-.543-13.506-1.644-2.25-.59-4.52-1.315-6.456-2.64-.96-.64-1.704-1.56-2.213-2.588-1.183-2.325-1.837-4.87-2.459-7.388-1.72-7.454-2.557-15.075-3.232-22.682-.457-5.18-1.201-10.35-1.166-15.561.05-2.43.216-4.952 1.314-7.165.827-1.709 2.574-2.684 4.239-3.432 3.423-1.463 7.12-2.139 10.787-2.655 3.61-.488 7.248-.72 10.886-.81v-.001ZM18.31 21.499c-.256.848-.488 1.718-.57 2.6-.002.868.952 1.11 1.62 1.295 1.62.36 3.344.697 4.657 1.785 1.164.988 1.449 2.664 1.172 4.102-1.128 5.548-2.27 11.093-3.4 16.641-.18.877-.47 1.763-1.043 2.467-.575.685-1.491.956-2.351 1.039-.58.097-1.284.01-1.737.453-.416.625-.472 1.417-.573 2.141-.03.76.807 1.115 1.454 1.079 5.618.036 11.236.078 16.855.121.514.023 1.149-.149 1.295-.714.212-.772.334-1.57.432-2.361.064-.629-.62-.84-1.106-.914-1.015-.17-1.977-.647-2.685-1.401-.567-.684-.53-1.648-.367-2.47.495-2.692.96-5.389 1.46-8.075.064-.341.333-.8.746-.667.33.04.54.317.684.59 2.75 4.939 5.503 9.878 8.262 14.812a2.171 2.171 0 0 0 2.044 1.201c4.576 0 9.154-.079 13.729-.096.571-.014 1.27.022 1.662-.481.467-.592.506-1.388.683-2.096.192-.624-.064-1.395-.729-1.594-1.668-.6-3.588-.854-4.866-2.21-.422-.413-.293-1.05-.181-1.563 1.556-6.381 3.108-12.763 4.659-19.143a3.616 3.616 0 0 1 1.155-1.96c.874-.682 2.007-.82 3.02-1.189.583-.208.65-.893.795-1.408.128-.688.44-1.36.407-2.068-.073-.564-.717-.706-1.19-.695-5.264-.011-10.529.002-15.793-.007-.415-.013-.847.066-1.173.339-.719.503-.684 1.463-.904 2.225-.139.496-.243 1.276.383 1.481 1.018.233 2.217.367 2.91 1.246.41.757.283 1.676.138 2.489-.763 3.635-1.518 7.274-2.275 10.912-2.948-5.595-5.871-11.203-8.808-16.804-.605-1.063-1.69-1.91-2.962-1.881-5.259-.013-10.517.002-15.777-.007-.641-.004-1.498.06-1.732.785Z" fill="#002A5B"/></svg>