<svg width="80" height="80" fill="none" xmlns="http://www.w3.org/2000/svg"><path fill-rule="evenodd" clip-rule="evenodd" d="M29.493 22h3.194v3.173h-3.194V22ZM0 25.677h3.194v3.172H0v-3.172Zm3.672 29.295h3.194v3.173H3.672v-3.173Zm18.447-7.324h3.194v3.173h-3.194v-3.173ZM10.567 22H7.373v3.173h3.194V22Zm-3.701 0H3.67v3.173h3.194V22Zm4.179 3.173h3.194V22h-3.194v3.173ZM17.94 22h-3.194v3.173h3.194V22Zm3.672 0h-3.194v3.173h3.194V22Zm7.373 0H25.79v3.173h3.194V22ZM3.672 28.85h3.194v-3.174H3.67v3.173ZM0 32.495h3.194v-3.173H0v3.173Zm3.67 0h3.196v-3.173H3.67v3.173ZM0 36.173h3.194V33H0v3.172Zm3.67 0h3.196V33H3.67v3.172ZM0 39.82h3.194v-3.172H0v3.172Zm3.67 0h3.196v-3.172H3.67v3.172ZM0 43.498h3.194v-3.173H0v3.173Zm3.67 0h3.196v-3.173H3.67v3.173ZM0 47.145h3.194v-3.173H0v3.173Zm3.67 0h3.196v-3.173H3.67v3.173ZM0 50.82h3.194v-3.173H0v3.173Zm3.67 0h3.196v-3.173H3.67v3.173Zm3.703-3.676h3.194v-3.173H7.373v3.173Zm0 3.676h3.194v-3.173H7.373v3.173Zm3.672-3.676h3.194v-3.173h-3.194v3.173Zm0 3.676h3.194v-3.173h-3.194v3.173Zm3.7-3.676h3.195v-3.173h-3.194v3.173Zm0 3.676h3.195v-3.173h-3.194v3.173Zm3.673-3.676h3.194v-3.173h-3.194v3.173Zm0 3.676h3.194v-3.173h-3.194v3.173Zm7.373-3.676h3.194v-3.173H25.79v3.173ZM0 54.468h3.194v-3.173H0v3.173Zm0 3.677h3.194v-3.173H0v3.173Zm3.67-3.677h3.196v-3.173H3.67v3.173ZM7.374 28.85h3.194v-3.172H7.373v3.172Zm3.672 0h3.194v-3.172h-3.194v3.172Zm3.7 0h3.195v-3.172h-3.194v3.172Zm3.673 0h3.194v-3.172h-3.194v3.172Zm3.7-3.676h3.195V22H22.12v3.173Zm0 21.972h3.195v-3.173H22.12v3.173Zm0-18.294h3.195v-3.174H22.12v3.174Zm3.673 0h3.194v-3.174H25.79v3.174Zm3.702 0h3.194v-3.174h-3.194v3.174Zm-3.702 3.647h3.194v-3.174H25.79v3.174Zm3.702 0h3.194v-3.174h-3.194v3.174Zm3.67-3.174v3.172h3.195v-3.173h-3.195Zm-3.67 6.849h3.194V33h-3.194v3.172Zm3.67 0h3.195V33h-3.193v3.172h-.002Zm-3.67 3.647h3.194v-3.172h-3.194v3.172Zm3.67 0h3.195v-3.172h-3.193v3.172h-.002Zm-3.67 3.678h3.194v-3.173h-3.194v3.173Zm0 3.647h3.194v-3.173h-3.194v3.173Zm-3.702-3.647h3.194v-3.173H25.79v3.173Zm7.374 0h3.193v-3.173h-3.193v3.173Zm10.477-7.325h3.193V33h-3.193v3.172Zm0 3.647h3.193v-3.172h-3.193v3.172Zm0 3.678h3.193v-3.173h-3.193v3.173Zm0 3.647h3.193v-3.173h-3.193v3.173Zm0 3.676h3.193v-3.173h-3.193v3.173Zm3.67-18.325h3.195v-3.173h-3.194v3.173Zm0-3.647h3.195v-3.172h-3.194v3.172Zm3.703 3.647h3.194v-3.173h-3.194v3.173Zm0-3.647h3.194v-3.172h-3.194v3.172Zm6.866-3.172h-3.194v3.172h3.194v-3.172Zm-3.194-.504h3.194V22h-3.194v3.173Zm3.701 3.676h3.194v-3.172h-3.194v3.172Zm0-3.676h3.194V22h-3.194v3.173Zm3.67 3.676h3.196v-3.172H62.06v3.172ZM65.255 22H62.06v3.173h3.194V22h.001Zm3.701 3.677h-3.194v3.172h3.194v-3.172Zm-3.194-.504h3.194V22h-3.194v3.173Zm-18.447 11h3.193V33h-3.194v3.172h.001Zm0 3.647h3.193v-3.172h-3.194v3.172h.001Zm0 3.678h3.193v-3.173h-3.194v3.173h.001ZM62.06 39.82h3.194v-3.172H62.06v3.172h.001Zm0 3.678h3.194v-3.173H62.06v3.173h.001Zm6.894-6.85h-3.193v3.172h3.194v-3.172Zm0 3.677h-3.193v3.173h3.194v-3.173Zm.479-.505h3.194v-3.172h-3.194v3.172Zm0 3.678h3.194v-3.173h-3.194v3.173Zm0 7.323h3.194v-3.173h-3.194v3.173Zm3.701-11h3.194v-3.173h-3.194v3.173Zm0 3.677h3.194v-3.173h-3.194v3.173ZM69.433 28.85h3.194v-3.174h-3.194v3.174Zm0 3.647h3.194v-3.174h-3.194v3.174Zm3.701-3.647h3.194v-3.174h-3.194v3.174Zm0 3.647h3.194v-3.174h-3.194v3.174ZM47.313 47.145h3.194v-3.173h-3.194v3.173Zm0 3.676h3.194v-3.173h-3.194v3.173Zm3.702 0h3.194v-3.173h-3.194v3.173Zm0 3.647h3.194v-3.173h-3.194v3.173Zm0 3.677h3.194v-3.173h-3.194v3.173Zm6.866-6.85h-3.194v3.173h3.194v-3.173Zm-3.194 6.85h3.194v-3.173h-3.194v3.173Zm3.701-3.677h3.194v-3.173h-3.194v3.173Zm0 3.677h3.194v-3.173h-3.194v3.173Zm3.67-3.677h3.196v-3.173H62.06v3.173Zm0 3.677h3.196v-3.173H62.06v3.173Zm6.897-6.85h-3.194v3.173h3.194v-3.173Zm-3.194 6.85h3.194v-3.173h-3.194v3.173Zm3.67-3.677h3.196v-3.173h-3.194v3.173h-.001Zm3.703 0h3.194v-3.173h-3.194v3.173Zm0-7.323h3.194v-3.173h-3.194v3.173Zm0 3.676h3.194v-3.173h-3.194v3.173Zm3.672-10.496v3.173H80v-3.173h-3.194Zm0 6.82H80v-3.173h-3.194v3.173ZM43.642 29.323h3.194v3.173h-3.194v-3.173ZM51.015 22h3.194v3.173h-3.194V22Zm-3.7 29.295h3.193v3.173h-3.194v-3.173Zm22.118 3.677h3.194v3.173h-3.194v-3.173Zm7.373-18.324H80v3.173h-3.194v-3.173Zm0 11H80v3.173h-3.194v-3.173Z" fill="#fff"/></svg>