<svg width="80" height="80" fill="none" xmlns="http://www.w3.org/2000/svg"><path d="M44.26 31.557c3.2 0 5.796-2.587 5.796-5.778 0-3.192-2.595-5.779-5.796-5.779-3.2 0-5.795 2.587-5.795 5.779 0 3.191 2.594 5.778 5.795 5.778ZM80 25.779c0 3.21-2.576 5.778-5.688 5.778-3.22 0-5.796-2.568-5.796-5.67 0-3.211 2.576-5.78 5.688-5.78 3.22 0 5.796 2.569 5.796 5.672ZM44.26 59.596c3.2 0 5.796-2.588 5.796-5.78 0-3.19-2.595-5.778-5.796-5.778-3.2 0-5.795 2.587-5.795 5.779 0 3.191 2.594 5.779 5.795 5.779ZM80 53.817a5.763 5.763 0 0 1-5.796 5.779 5.765 5.765 0 0 1-5.795-5.78 5.763 5.763 0 0 1 5.795-5.778A5.763 5.763 0 0 1 80 53.817Zm-15.026-14.02a5.763 5.763 0 0 1-5.795 5.78 5.76 5.76 0 0 1-5.796-5.78 5.763 5.763 0 0 1 5.796-5.778c3.327 0 5.795 2.568 5.795 5.779Zm-30.01 18.717-9.061-15.47c4.584-.973 7.888-4.22 7.888-11.36C33.792 22.164 27.61 20 19.721 20H.747a.735.735 0 0 0-.747.758V58.73c0 .432.32.758.747.758h6.715a.735.735 0 0 0 .747-.758V43.909h9.486l8.421 15.037c.214.433.64.65 1.066.65h7.25c.318 0 .639-.325.639-.65 0-.216-.107-.325-.107-.432ZM19.828 36.985H8.209v-9.953h11.619c4.37 0 5.65 2.163 5.65 4.868 0 2.704-1.28 5.085-5.65 5.085Z" fill="#fff"/></svg>