<svg width="80" height="80" fill="none" xmlns="http://www.w3.org/2000/svg"><mask id="a" style="mask-type:alpha" maskUnits="userSpaceOnUse" x="0" y="2" width="80" height="77"><path d="M0 2h80v76.878H0V2Z" fill="#fff"/></mask><g mask="url(#a)"><path fill-rule="evenodd" clip-rule="evenodd" d="M40 71.885c-16.338 0-29.583-13.244-29.583-29.583 0-16.338 13.245-29.581 29.582-29.581 16.338 0 29.583 13.244 29.583 29.581 0 16.338-13.245 29.583-29.582 29.583Zm40-34.678a40.103 40.103 0 0 0-4.364-13.732C63.81 20.963 53.9 13.276 48.39 2.893A40.488 40.488 0 0 0 39.962 2c-3.014 0-5.947.338-8.772.965C25.725 13.207 15.977 20.81 4.335 23.394A40.071 40.071 0 0 0 0 36.63c7.23 7.298 11.7 17.336 11.7 28.42a40.68 40.68 0 0 1-.414 5.746A40.479 40.479 0 0 0 22.7 78.878a40.214 40.214 0 0 1 17.3-3.89 40.21 40.21 0 0 1 17.252 3.868 40.53 40.53 0 0 0 11.936-8.635 40.667 40.667 0 0 1-.34-5.171c0-10.799 4.247-20.598 11.152-27.845" fill="#3D263A"/></g><path fill-rule="evenodd" clip-rule="evenodd" d="m34.273 57.11-4.928-13.905v-2.702h4.38v-9.478h-5.632v26.084h-4.458V27.233h11.85c1.798 0 2.697.913 2.697 2.738v10.872c0 1.773-.887 2.684-2.658 2.736h-1.526l4.928 13.374v.157h-4.654Zm19.435 0h-9.385c-1.774 0-2.66-.913-2.66-2.739V29.97c0-1.825.9-2.738 2.699-2.738h9.346c1.824 0 2.737.903 2.737 2.71v6.362H51.95v-5.28h-5.827v22.292h5.827v-8.409h-3.323v-3.792h7.82V54.37c0 1.826-.912 2.738-2.737 2.738" fill="#3D263A"/></svg>