<svg xmlns="http://www.w3.org/2000/svg" xml:space="preserve" width="600" height="184" style="shape-rendering:geometricPrecision;text-rendering:geometricPrecision;image-rendering:optimizeQuality;fill-rule:evenodd;clip-rule:evenodd" viewBox="0 0 578 177"><defs><style>.fil0{fill:#01549a}</style></defs><g id="Layer_x0020_1"><g id="_358949814640"><path class="fil0" d="M204 175 233 3h47l-29 172zM420 7c-9-3-23-7-42-7-46 0-78 23-79 57 0 24 24 38 41 46 19 9 25 14 25 22 0 11-15 16-28 16-19 0-29-2-44-9l-7-2-6 38c11 5 31 9 52 9 49 0 81-23 82-58 0-20-13-35-40-47-16-8-26-13-26-21 0-7 9-15 27-15 15 0 26 3 35 6l4 2 6-37zM541 3h-37c-11 0-19 3-24 14l-70 158h49s8-21 10-26h60c2 6 6 26 6 26h43L541 3zm-58 111c4-10 18-48 18-48s4-10 7-17l3 15s9 41 11 50h-39zM164 3l-45 117-5-24c-9-27-35-57-65-72l42 151h49L214 3h-50z"/><path d="M76 3H1L0 7c59 14 98 48 114 89L97 18C95 7 86 3 76 3z" style="fill:#f7a707"/></g></g></svg>