<svg width="271" height="61" xmlns="http://www.w3.org/2000/svg"><g fill="none" fill-rule="evenodd"><path d="M266.3684 31.0049c-7.6065-6.8181-34.0968-9.3495-37.823-12.928-.7145-.6344-1.0347-1.7368-1.0347-2.6176 0-2.9317 2.7038-4.8349 7.7666-4.8349 3.018 0 5.4015.4004 7.0644 1.589 1.743 1.1888 2.7655 3.172 2.9318 6.3378h23.6262C268.6042 6.738 261.2255 0 236.8725 0c-18.7175 0-29.7977 3.7632-33.253 11.9548V1.509h-36.7081l-11.5791 38.3773h-.154L143.205 1.509H87.071l-7.5387 35.7658h-.234L68.7478 1.509H41.8695L31.1588 37.2748h-.2402L23.3122 1.509H0l13.4022 57.2487h30.5983l10.3227-34.8112h.234l10.2241 34.805h30.3705l11.4929-48.5336v48.5337h20.4605v-43.046h.2402l14.7448 43.046h23.3122l15.6995-43.046h.1601v43.0521h22.3575l.0555-8.4256c2.8886 5.888 10.4088 9.9284 31.1403 9.9284 26.09 0 36.08-7.2923 36.08-18.6374 0-5.5431-2.2912-8.635-4.527-10.6182zm-30.9248 18.6374c-3.172 0-5.303-.7884-6.892-2.2974-1.509-1.509-2.1373-3.8001-2.2173-6.9782h-22.7148V24.1005c.6406 1.4782 1.5583 2.8886 2.8887 4.0527 7.6865 6.738 35.0452 9.4357 38.3033 13.082.6344.7144 1.0225 1.5828 1.0225 2.6175 0 4.607-5.3893 5.7896-10.3904 5.7896z" fill="#006DB0" fill-rule="nonzero"/><path d="M155.3384 39.8863h-.154l-7.0583-22.6716-61.8064-11.961-6.7442 32.058h-.2464L68.7909 1.5522H41.9065L31.202 37.3118h-.2464L23.343 1.552H.037L13.4453 58.807h30.6045l10.3103-34.8235h.234L64.8307 58.807h30.3643l11.499-48.546v48.546h20.4482V15.7488h.2402l14.751 43.0582h23.3184l12.9094-35.5441c-11.8008-2.3035-16.999-3.326-16.999-3.326l-6.0237 19.9494M203.675 50.332c2.8886 5.8882 10.452 9.984 31.1711 9.984 26.0961 0 36.0923-7.2985 36.0923-18.6374 0-.1786-33.4192-6.7874-63.3524-12.6693 8.8506 6.153 34.1398 8.7767 37.2687 12.269.6343.7205 1.0285 1.589 1.0285 2.6237 0 4.6008-5.3892 5.7895-10.3842 5.7895-3.178 0-5.3153-.8006-6.8982-2.2973-1.5274-1.5151-2.1618-3.8125-2.2296-6.9844H203.675M203.675 40.4036l-.0555-11.8193-22.3513-4.4838v34.6572h22.3513l.0555-8.4256" fill="#fff"/></g></svg>