<svg xmlns="http://www.w3.org/2000/svg" viewBox="0 0 54 54"><defs><style>.cls-1{fill:#050505;stroke:#000;stroke-miterlimit:10;}</style></defs><title>5</title><g id="Layer_2" data-name="Layer 2"><g id="mail"><path class="cls-1" d="M27,53.5A26.5,26.5,0,1,1,53.5,27,26.55,26.55,0,0,1,27,53.5Zm0-50A23.5,23.5,0,1,0,50.5,27,23.47,23.47,0,0,0,27,3.5Z"/><path class="cls-1" d="M34,23.2A5.16,5.16,0,0,0,28.8,18H28V17a1.5,1.5,0,0,0-3,0v1H21.5A1.42,1.42,0,0,0,20,19.5a1.5,1.5,0,0,0,1,1.4V33a1.5,1.5,0,0,0-1,1.4,1.47,1.47,0,0,0,1.5,1.5H25v1a1.47,1.47,0,0,0,1.5,1.5A1.54,1.54,0,0,0,28,36.9v-1h.8A5.16,5.16,0,0,0,34,30.7a5.29,5.29,0,0,0-1.6-3.8A4.9,4.9,0,0,0,34,23.2ZM28.8,33H24V28.5h4.8A2.22,2.22,0,0,1,31,30.7,2.31,2.31,0,0,1,28.8,33Zm0-7.5H24V21h4.8A2.22,2.22,0,0,1,31,23.2,2.31,2.31,0,0,1,28.8,25.5Z"/></g></g></svg>