<svg xmlns="http://www.w3.org/2000/svg" viewBox="0 0 53 43.65"><title>8</title><g id="Layer_2" data-name="Layer 2"><g id="mail"><path d="M52.74,14.73,44.08.82A1.73,1.73,0,0,0,42.61,0H10.39A1.73,1.73,0,0,0,8.92.82L.26,14.73a1.73,1.73,0,0,0,.21,2.1L25.24,43.1a1.72,1.72,0,0,0,2.52,0L52.53,16.83A1.73,1.73,0,0,0,52.74,14.73ZM26.5,39.39l-22.59-24,7.44-12h30.3l7.44,12Z"/><rect x="1.73" y="13.91" width="49.54" height="3.46"/><path d="M17.79,15.48,20.46,2.07l-3.4-.68L14.29,15.31a1.82,1.82,0,0,0,.09,1L24.89,42.56l3.22-1.29Z"/><path d="M38.82,15.17,35.93,1.66l-3.39.72,2.78,13L24.89,41.27l3.22,1.29L38.73,16.18A1.74,1.74,0,0,0,38.82,15.17Z"/></g></g></svg>