<svg xmlns="http://www.w3.org/2000/svg" viewBox="0 0 512 512"><defs><style>.cls-1{fill:#ff4d4d;}.cls-2{fill:#ff001e;}.cls-3{fill:#ff9f00;}.cls-4{fill:#ffd400;}.cls-5{fill:#ffe470;}.cls-6{fill:#fdbf00;}</style></defs><title>1</title><g id="Layer_2" data-name="Layer 2"><g id="Layer_1-2" data-name="Layer 1"><path class="cls-1" d="M31,175.86V382.21l45-45,45,45V228.73Z"/><path class="cls-2" d="M391,224.93V382.21l45-45,45,45V194.49Z"/><path class="cls-3" d="M391,241V211a90.1,90.1,0,0,0,90-90V61H406V31H512v90C512,187.17,457.17,241,391,241Z"/><path class="cls-4" d="M112.82,236.09C47,218.81,0,159.14,0,91V31H106V61H31V91a120.05,120.05,0,0,0,89.44,116.09Z"/><path class="cls-4" d="M226,301h60V482H226Z"/><path class="cls-3" d="M256,301h30V482H256Z"/><path class="cls-5" d="M91,0V166c0,90.9,74.1,165,165,165s165-74.1,165-165V0Z"/><path class="cls-6" d="M421,0V166c0,90.9-74.1,165-165,165V0Z"/><path class="cls-6" d="M348.1,124l-63.6-9.3L256,57.1l-28.5,57.6L163.9,124l46.2,45L199,232.3l57-30,57,30L301.9,169Z"/><path class="cls-3" d="M301.9,169,313,232.3l-57-30V57.1l28.5,57.6,63.6,9.3Z"/><path class="cls-5" d="M361,482v30H151V482a30.09,30.09,0,0,1,30-30H331A30.09,30.09,0,0,1,361,482Z"/><path class="cls-6" d="M361,482v30H256V452h75A30.09,30.09,0,0,1,361,482Z"/></g></g></svg>