<svg version="1.1" id="Capa_1" xmlns="http://www.w3.org/2000/svg" x="0" y="0" viewBox="0 0 512 512" xml:space="preserve"><style>.st0{fill:#fecf05}.st1{fill:#ee3835}.st2{fill:#c0272d}.st3{fill:#fff}.st4{opacity:.1;enable-background:new}</style><path class="st0" d="M256 512c-68.26 0-132.44-26.63-180.71-74.98C27.02 388.67.44 324.38.44 256S27.02 123.33 75.29 74.98C123.56 26.63 187.74 0 256 0s132.44 26.63 180.71 74.98c48.27 48.35 74.85 112.64 74.85 181.02s-26.58 132.67-74.85 181.02C388.44 485.37 324.26 512 256 512z"/><ellipse class="st1" cx="256" cy="256" rx="213.24" ry="213.6"/><path class="st2" d="M465.77 294.53c2.27-12.5 3.47-25.37 3.47-38.53 0-13.15-1.19-26.03-3.47-38.53L259.26 256l206.51 38.53zM377.12 80.19L258.3 253.69l173.21-119.02c-14.69-21.28-33.14-39.76-54.39-54.48zM256 252.74l38.46-206.87c-12.48-2.28-25.33-3.47-38.46-3.47-13.13 0-25.99 1.2-38.46 3.47L256 252.74zM80.49 134.67l173.2 119.02-118.81-173.5c-21.25 14.72-39.69 33.2-54.39 54.48zM46.23 217.47c-2.27 12.5-3.47 25.38-3.47 38.53 0 13.15 1.19 26.03 3.47 38.53L252.74 256 46.23 217.47zM134.88 431.81l118.82-173.5L80.49 377.33c14.69 21.28 33.14 39.76 54.39 54.48zM256 469.6c13.13 0 25.99-1.2 38.46-3.47L256 259.26l-38.46 206.87c12.47 2.28 25.33 3.47 38.46 3.47zM431.51 377.33L258.3 258.31l118.82 173.5c21.25-14.72 39.7-33.2 54.39-54.48z"/><g><path class="st3" d="M257.63 491.71c-.17-4.26 3.15-7.86 7.42-8.02 4.27-.17 7.85 3.15 8.02 7.42.17 4.27-3.16 7.86-7.42 8.02h-.31c-4.13 0-7.55-3.25-7.71-7.42zm-29.14 6.06c-4.24-.47-7.29-4.3-6.81-8.54.47-4.24 4.31-7.29 8.54-6.81 4.24.47 7.29 4.31 6.81 8.54-.44 3.95-3.79 6.86-7.66 6.86-.29.01-.59 0-.88-.05zm65.04-9.03c-.81-4.19 1.92-8.24 6.11-9.05v-.01c4.19-.81 8.24 1.93 9.07 6.12.81 4.18-1.93 8.24-6.11 9.06-.51.09-1 .14-1.49.14-3.63-.01-6.86-2.57-7.58-6.26zm-101.57 2.03c-4.12-1.12-6.55-5.37-5.42-9.49 1.12-4.11 5.37-6.54 9.49-5.41 4.11 1.12 6.54 5.37 5.42 9.49-.94 3.43-4.05 5.69-7.45 5.69-.68 0-1.36-.1-2.04-.28zm136.59-10.47c-1.44-4.02.63-8.44 4.65-9.89 4.01-1.45 8.44.63 9.89 4.64 1.45 4.02-.63 8.45-4.64 9.9l-.01-.01c-.86.32-1.75.46-2.62.46-3.15 0-6.12-1.96-7.27-5.1zm-171.63-2.08c-3.89-1.74-5.63-6.32-3.89-10.21 1.74-3.89 6.32-5.64 10.21-3.89 3.9 1.74 5.63 6.31 3.9 10.21-1.29 2.87-4.11 4.57-7.06 4.57-1.07 0-2.14-.22-3.16-.68zm204.93-11.64c-2.05-3.74-.68-8.44 3.06-10.49 3.75-2.05 8.45-.67 10.49 3.07 2.05 3.75.68 8.44-3.06 10.49-1.18.65-2.45.95-3.71.95-2.73 0-5.38-1.46-6.78-4.02zm-237.62-6.14c-3.58-2.32-4.61-7.11-2.29-10.68 2.32-3.59 7.11-4.61 10.68-2.29 3.59 2.32 4.6 7.11 2.29 10.69-1.48 2.28-3.96 3.52-6.49 3.52-1.44 0-2.89-.4-4.19-1.24zm268.42-12.52c-2.6-3.39-1.96-8.24 1.43-10.84 3.39-2.6 8.24-1.95 10.84 1.43 2.6 3.39 1.95 8.24-1.43 10.84-1.41 1.07-3.06 1.6-4.7 1.6-2.33 0-4.61-1.04-6.14-3.03zM94.64 437.89c-3.18-2.84-3.47-7.72-.63-10.91 2.83-3.18 7.73-3.47 10.91-.63 3.18 2.85 3.47 7.72.63 10.91-1.52 1.71-3.65 2.58-5.77 2.58-1.83.01-3.66-.64-5.14-1.95zm325.63-13.12c-3.08-2.95-3.18-7.84-.23-10.92s7.84-3.18 10.92-.23c3.08 2.96 3.18 7.84.23 10.92-1.52 1.59-3.54 2.38-5.57 2.38-1.93.01-3.85-.7-5.35-2.15zM68.84 411.11c-2.72-3.29-2.26-8.16 1.03-10.88 3.29-2.72 8.16-2.26 10.88 1.03 2.72 3.29 2.26 8.16-1.03 10.88-1.44 1.2-3.18 1.77-4.92 1.77-2.22.01-4.44-.95-5.96-2.8zm375.22-13.4c-3.49-2.45-4.34-7.27-1.89-10.77 2.45-3.49 7.27-4.34 10.77-1.89 3.49 2.45 4.34 7.27 1.89 10.77-1.5 2.14-3.9 3.29-6.34 3.29-1.54 0-3.08-.45-4.43-1.4zM47.4 380.74c-2.19-3.67-1-8.41 2.67-10.6 3.66-2.18 8.41-.99 10.59 2.68 2.19 3.66 1 8.41-2.67 10.59-1.24.74-2.61 1.09-3.96 1.09-2.62.01-5.19-1.33-6.63-3.76zm416.07-13.4c-3.82-1.89-5.4-6.53-3.5-10.35 1.89-3.83 6.52-5.4 10.35-3.5 3.82 1.89 5.39 6.52 3.49 10.35-1.34 2.72-4.08 4.3-6.92 4.3-1.16 0-2.32-.26-3.42-.8zM30.83 347.46c-1.61-3.96.31-8.46 4.26-10.05 3.96-1.61 8.46.3 10.06 4.26 1.61 3.96-.3 8.46-4.25 10.07-.96.38-1.94.57-2.9.57-3.06-.02-5.95-1.84-7.17-4.85zM478 334.35c-4.07-1.28-6.33-5.61-5.05-9.68 1.29-4.07 5.63-6.33 9.69-5.05 4.07 1.28 6.33 5.61 5.05 9.68-1.04 3.31-4.08 5.41-7.37 5.41-.76-.01-1.54-.12-2.32-.36zM19.55 312.02c-.98-4.16 1.6-8.32 5.75-9.29 4.16-.98 8.31 1.6 9.29 5.75.98 4.15-1.6 8.31-5.75 9.29-.6.13-1.19.21-1.77.21-3.51 0-6.68-2.4-7.52-5.96zm467.76-12.47c-4.21-.65-7.11-4.58-6.47-8.81.65-4.21 4.58-7.12 8.81-6.47 4.21.64 7.12 4.58 6.47 8.8-.59 3.82-3.87 6.56-7.63 6.56-.39 0-.78-.02-1.18-.08zM13.84 275.27c-.34-4.24 2.84-7.96 7.1-8.3 4.25-.33 7.97 2.85 8.3 7.1.34 4.26-2.84 7.97-7.1 8.31-.21.01-.4.02-.61.02-4-.01-7.38-3.09-7.69-7.13zM483.46 256c0-.22.01-.42.02-.63-.01-.21-.02-.41-.02-.63-.03-4.26 3.42-7.75 7.68-7.77 4.27-.02 7.74 3.42 7.77 7.69 0 .23-.01.45-.03.68.02.22.03.43.03.66 0 4.27-3.46 7.73-7.73 7.73-4.26 0-7.72-3.46-7.72-7.73zm15.46-1.34zm-478.04-8.29c-4.26-.31-7.46-4.02-7.15-8.27.31-4.26 4.01-7.46 8.26-7.14 4.26.31 7.46 4.01 7.15 8.26-.3 4.07-3.69 7.17-7.7 7.17-.19 0-.37-.01-.56-.02zm459.76-26.35c-.66-4.21 2.21-8.17 6.43-8.84 4.21-.66 8.17 2.21 8.84 6.43.67 4.21-2.2 8.17-6.43 8.84-.4.06-.81.09-1.21.09-3.73 0-7.02-2.71-7.63-6.52zm-455.6-9.44c-4.15-.96-6.76-5.1-5.8-9.26.95-4.16 5.1-6.76 9.26-5.8 4.15.95 6.76 5.1 5.8 9.25-.82 3.59-4.01 6.01-7.52 6.01-.57-.01-1.15-.07-1.74-.2zm447.54-24.44c-1.31-4.06.94-8.42 5-9.71 4.07-1.31 8.42.93 9.73 5 1.3 4.06-.94 8.41-5 9.71-.79.25-1.59.37-2.37.37-3.27 0-6.31-2.09-7.36-5.37zM34.65 175.82c-3.97-1.58-5.89-6.08-4.32-10.03 1.59-3.97 6.08-5.9 10.04-4.32 3.96 1.58 5.89 6.08 4.31 10.03-1.21 3.03-4.11 4.87-7.17 4.87-.96.01-1.93-.17-2.86-.55zm424.76-21.91c-1.91-3.82-.37-8.46 3.45-10.37 3.81-1.92 8.46-.37 10.36 3.45 1.92 3.81.37 8.45-3.44 10.36-1.11.56-2.3.82-3.45.82-2.83 0-5.56-1.56-6.92-4.26zM49.46 142.96c-3.68-2.16-4.9-6.9-2.73-10.58 2.16-3.68 6.9-4.89 10.58-2.73 3.68 2.17 4.89 6.91 2.73 10.58-1.44 2.44-4.02 3.8-6.67 3.8-1.33 0-2.68-.34-3.91-1.07zm392.01-18.9c-2.46-3.48-1.65-8.3 1.83-10.78 3.48-2.47 8.3-1.65 10.77 1.82h-.01c2.47 3.48 1.66 8.3-1.82 10.78-1.36.97-2.92 1.42-4.47 1.42-2.4.01-4.78-1.11-6.3-3.24zM69.1 112.74c-3.3-2.7-3.79-7.56-1.08-10.87 2.7-3.3 7.56-3.79 10.87-1.08 3.31 2.7 3.79 7.56 1.09 10.87-1.54 1.86-3.75 2.83-5.99 2.83-1.71 0-3.44-.56-4.89-1.75zm350.11-15.46c-2.98-3.07-2.89-7.95.17-10.93 3.07-2.97 7.95-2.89 10.93.18 2.97 3.06 2.89 7.95-.17 10.93-1.49 1.45-3.44 2.17-5.38 2.17-2.02 0-4.03-.78-5.55-2.35zM93.12 85.88c-2.85-3.17-2.6-8.06.57-10.91 3.17-2.85 8.07-2.6 10.92.58 2.85 3.16 2.6 8.06-.58 10.91-1.48 1.33-3.33 1.98-5.17 1.98-2.12-.01-4.22-.87-5.74-2.56zm300.01-11.7c-3.4-2.59-4.07-7.43-1.48-10.83 2.58-3.4 7.42-4.07 10.82-1.49 3.4 2.57 4.07 7.43 1.49 10.83-1.52 2.01-3.83 3.06-6.17 3.06-1.62 0-3.26-.52-4.66-1.57zM120.91 62.97c-2.34-3.56-1.34-8.37 2.22-10.7 3.57-2.34 8.36-1.34 10.7 2.23 2.34 3.57 1.34 8.37-2.23 10.7-1.31.85-2.78 1.27-4.23 1.27-2.5-.01-4.97-1.25-6.46-3.5zm242.93-7.66v.01c-3.75-2.03-5.15-6.72-3.12-10.48 2.02-3.75 6.72-5.15 10.47-3.12 3.75 2.03 5.15 6.72 3.12 10.47-1.4 2.58-4.06 4.06-6.8 4.06-1.25 0-2.51-.3-3.67-.94zM151.87 44.56c-1.77-3.88-.05-8.47 3.83-10.23 3.88-1.76 8.47-.05 10.23 3.83 1.77 3.88.05 8.47-3.83 10.23v.01c-1.04.46-2.12.69-3.19.69-2.94 0-5.75-1.68-7.04-4.53zm180.14-3.39c-4.03-1.43-6.13-5.85-4.7-9.87 1.43-4.02 5.85-6.12 9.87-4.7 4.02 1.43 6.12 5.84 4.7 9.87-1.13 3.16-4.11 5.14-7.28 5.14-.87 0-1.74-.14-2.59-.44zM185.29 31.1c-1.14-4.11 1.26-8.36 5.37-9.52 4.11-1.14 8.38 1.26 9.52 5.37 1.15 4.11-1.25 8.38-5.36 9.52-.7.2-1.4.29-2.09.29-3.38 0-6.48-2.24-7.44-5.66zm113.1.98c-4.19-.79-6.94-4.83-6.16-9.02.79-4.19 4.83-6.95 9.04-6.16 4.19.79 6.94 4.83 6.15 9.02-.7 3.71-3.93 6.29-7.58 6.29-.48 0-.96-.04-1.45-.13zm-78-9.12c-.5-4.23 2.52-8.09 6.77-8.58 4.23-.51 8.08 2.52 8.58 6.76.49 4.23-2.53 8.08-6.77 8.58-.31.04-.62.06-.92.06-3.86 0-7.2-2.89-7.66-6.82zm43.39 5.31c-4.27-.14-7.6-3.72-7.46-7.98.13-4.26 3.71-7.61 7.97-7.47v.01c4.27.13 7.61 3.71 7.47 7.97-.14 4.17-3.58 7.47-7.73 7.47h-.25zM441.57 256c0 33.62-27.21 60.87-60.77 60.87H131.2c-33.56 0-60.77-27.26-60.77-60.87 0-33.62 27.21-60.87 60.77-60.87h249.6c33.56 0 60.77 27.25 60.77 60.87z"/></g><path class="st4" d="M90.9 256c0-33.62 27.21-60.87 60.77-60.87H131.2c-33.56 0-60.77 27.26-60.77 60.87s27.21 60.87 60.77 60.87h20.47c-33.56 0-60.77-27.25-60.77-60.87z"/><path class="st0" d="M380.8 324.37H131.2c-37.64 0-68.27-30.67-68.27-68.37s30.63-68.37 68.27-68.37h249.6c37.64 0 68.27 30.67 68.27 68.37s-30.63 68.37-68.27 68.37zM131.2 202.63c-29.37 0-53.27 23.94-53.27 53.37s23.9 53.37 53.27 53.37h249.6c29.37 0 53.27-23.94 53.27-53.37s-23.9-53.37-53.27-53.37H131.2z"/><g><path class="st1" d="M141.65 217.85h-23.51c-4.14 0-7.5 3.36-7.5 7.5v61.3c0 4.14 3.36 7.5 7.5 7.5h23.51c12.54 0 22.74-10.27 22.74-22.89 0-5.86-2.21-11.22-5.82-15.27 3.61-4.05 5.82-9.39 5.82-15.25-.01-12.62-10.21-22.89-22.74-22.89zm0 61.3h-16.01v-15.78h16.01c4.27 0 7.74 3.54 7.74 7.89-.01 4.35-3.48 7.89-7.74 7.89zm0-30.52h-16.01v-15.78h16.01c4.27 0 7.74 3.54 7.74 7.89-.01 4.35-3.48 7.89-7.74 7.89zM196.15 217.85c-14.59 0-26.46 11.92-26.46 26.57v23.16c0 14.65 11.87 26.57 26.46 26.57 14.6 0 26.47-11.92 26.47-26.57v-23.16c0-14.65-11.88-26.57-26.47-26.57zm11.47 49.73c0 6.38-5.15 11.57-11.47 11.57s-11.46-5.19-11.46-11.57v-23.16c0-6.38 5.14-11.57 11.46-11.57 6.32 0 11.47 5.19 11.47 11.57v23.16zM381.37 248.5h-11.85c-2.71 0-4.99-2.91-4.99-6.37v-2.92c0-3.45 2.29-6.37 4.99-6.37h17.99c4.14 0 7.5-3.36 7.5-7.5s-3.36-7.5-7.5-7.5h-17.99c-11.02 0-19.99 9.59-19.99 21.37v2.92c0 11.78 8.97 21.37 19.99 21.37h11.85c2.71 0 4.99 2.92 4.99 6.36v2.92c0 3.45-2.29 6.36-4.99 6.36h-20.53c-4.14 0-7.5 3.36-7.5 7.5s3.36 7.5 7.5 7.5h20.53c11.02 0 19.99-9.58 19.99-21.36v-2.92c0-11.78-8.96-21.36-19.99-21.36zM255.62 217.85c-14.59 0-26.47 11.92-26.47 26.57v42.23c0 4.14 3.36 7.5 7.5 7.5s7.5-3.36 7.5-7.5v-42.23c0-6.38 5.14-11.57 11.47-11.57 6.32 0 11.47 5.19 11.47 11.57v42.23c0 4.14 3.36 7.5 7.5 7.5s7.5-3.36 7.5-7.5v-42.23c0-14.65-11.87-26.57-26.47-26.57zM336.34 217.85c-4.14 0-7.5 3.36-7.5 7.5v42.23c0 6.38-5.14 11.57-11.46 11.57-6.33 0-11.47-5.19-11.47-11.57v-42.23c0-4.14-3.36-7.5-7.5-7.5s-7.5 3.36-7.5 7.5v42.23c0 14.65 11.88 26.57 26.47 26.57 14.59 0 26.46-11.92 26.46-26.57v-42.23c0-4.14-3.36-7.5-7.5-7.5z"/></g><g><path class="st0" d="M191.84 408.19c-.6 0-1.21-.11-1.8-.33l-14.95-5.59-14.95 5.59c-.58.22-1.19.33-1.8.33-1.06 0-2.12-.33-3-.97-1.39-1.01-2.18-2.64-2.1-4.35l.72-15.9-9.95-12.44c-1.07-1.34-1.4-3.12-.86-4.75.53-1.63 1.85-2.88 3.5-3.33l15.39-4.23 8.79-13.28c.95-1.43 2.55-2.29 4.26-2.29s3.32.86 4.26 2.29l8.79 13.28 15.39 4.23c1.65.45 2.97 1.71 3.5 3.33.53 1.63.21 3.41-.86 4.75l-9.96 12.44.72 15.9c.07 1.71-.71 3.34-2.1 4.35-.87.64-1.93.97-2.99.97zM272.74 408.19c-.61 0-1.21-.11-1.8-.33L256 402.27l-14.95 5.59c-.58.22-1.19.33-1.8.33-1.06 0-2.12-.33-3.01-.97-1.39-1.01-2.18-2.64-2.1-4.35l.72-15.9-9.96-12.44c-1.07-1.34-1.4-3.12-.86-4.75.53-1.63 1.85-2.88 3.5-3.33l15.39-4.23 8.79-13.28c.95-1.43 2.55-2.29 4.26-2.29 1.72 0 3.32.86 4.26 2.29l8.8 13.28 15.39 4.23c1.65.45 2.97 1.71 3.5 3.33.53 1.63.2 3.41-.86 4.75l-9.95 12.44.72 15.9c.08 1.71-.71 3.34-2.1 4.35-.88.64-1.94.97-3 .97zM353.64 408.19c-.61 0-1.21-.11-1.8-.33l-14.95-5.59-14.95 5.59c-.58.22-1.19.33-1.8.33-1.06 0-2.12-.33-3.01-.97-1.39-1.01-2.18-2.64-2.1-4.35l.72-15.9-9.96-12.44c-1.07-1.34-1.39-3.12-.86-4.75.53-1.63 1.85-2.88 3.5-3.33l15.39-4.23 8.79-13.28c.95-1.43 2.55-2.29 4.27-2.29 1.72 0 3.32.86 4.26 2.29l8.8 13.28 15.39 4.23c1.65.45 2.97 1.71 3.5 3.33.53 1.63.21 3.41-.86 4.75l-9.95 12.44.72 15.9c.08 1.71-.71 3.34-2.1 4.35-.88.64-1.93.97-3 .97zM189.54 159.93c-.6 0-1.21-.11-1.8-.33l-14.95-5.59-14.95 5.59c-.58.22-1.19.33-1.8.33-1.06 0-2.12-.33-3-.97-1.39-1.01-2.18-2.64-2.1-4.35l.72-15.9-9.96-12.44c-1.07-1.34-1.4-3.12-.86-4.75.53-1.63 1.85-2.88 3.5-3.34l15.39-4.23 8.79-13.28c.95-1.43 2.55-2.29 4.26-2.29s3.32.86 4.26 2.29l8.79 13.28 15.39 4.23c1.65.46 2.97 1.71 3.5 3.34.53 1.63.21 3.41-.86 4.75l-9.96 12.44.72 15.9c.07 1.71-.71 3.35-2.1 4.35-.86.64-1.92.97-2.98.97zM355.94 159.93c-.61 0-1.21-.11-1.8-.33l-14.95-5.59-14.95 5.59c-.58.22-1.19.33-1.8.33-1.06 0-2.12-.33-3.01-.97-1.39-1.01-2.18-2.64-2.1-4.35l.72-15.9-9.96-12.44c-1.07-1.34-1.39-3.12-.86-4.75.53-1.63 1.85-2.88 3.5-3.34l15.39-4.23 8.79-13.28c.95-1.43 2.55-2.29 4.27-2.29 1.72 0 3.32.86 4.26 2.29l8.8 13.28 15.39 4.23c1.65.46 2.97 1.71 3.5 3.34.53 1.63.21 3.41-.86 4.75l-9.95 12.44.72 15.9c.08 1.71-.71 3.35-2.1 4.35-.88.64-1.93.97-3 .97zM284.64 166.37c-1.04 0-2.08-.18-3.07-.56L256 156.25l-25.57 9.57c-1 .38-2.04.56-3.07.56-1.82 0-3.62-.57-5.14-1.66-2.38-1.72-3.72-4.51-3.59-7.44l1.23-27.2-17.03-21.28c-1.83-2.29-2.39-5.34-1.48-8.13.91-2.78 3.16-4.93 5.99-5.7l26.33-7.24L248.7 65c1.62-2.44 4.36-3.91 7.3-3.91 2.94 0 5.68 1.47 7.29 3.91l15.05 22.72 26.33 7.24c2.83.78 5.08 2.92 5.99 5.7.91 2.79.35 5.84-1.48 8.13l-17.03 21.28 1.23 27.2c.13 2.92-1.22 5.72-3.6 7.44-1.52 1.1-3.32 1.66-5.14 1.66z"/></g><path class="st4" d="M93.76 437.02C45.49 388.67 18.91 324.38 18.91 256S45.49 123.33 93.76 74.98C139.85 28.82 200.44 2.47 265.24.18 262.16.07 259.09 0 256 0 187.74 0 123.56 26.63 75.29 74.98 27.02 123.33.44 187.62.44 256s26.58 132.67 74.85 181.02C123.56 485.37 187.74 512 256 512c3.09 0 6.16-.07 9.23-.18-64.8-2.29-125.39-28.64-171.47-74.8z"/></svg>