<svg xmlns="http://www.w3.org/2000/svg" width="499.483" height="486.059" viewBox="0 0 132.155 128.603" version="1.1" id="svg8"><g id="layer1" transform="translate(-8.135 -166.526)"><g transform="matrix(1 0 0 1 6.479 1.562)" id="layer1-9"><g transform="translate(-3.068 196.033) scale(.19049)" id="g270" stroke-width="1.389"><g id="g168"><path class="st0" d="M408.8-142c-15.2 2-32.8 15-39.1 28.9L303.6 31.2c-6.4 13.9-4.1 35.3 4.9 47.6l99.7 134.9c9.1 12.3 28.9 20.7 44.1 18.7l157.4-20.8c15.2-2 32.8-15 39.1-28.9l66.1-144.3c6.4-13.9 4.1-35.3-4.9-47.6l-99.7-134.9c-9.1-12.3-28.9-20.7-44.1-18.7z" id="path124" fill="#9b62cd" stroke-width="1.389"/><path class="st1" d="M632.6 201.7L519.1 48.1c-9-12.2-23.9-18.5-39-16.5L320.4 52.7c-12.3 1.6-19.3 15.9-11.9 26 0 .1.1.1.1.2l99.7 134.9c9.1 12.3 28.9 20.7 44.1 18.7l157.4-20.8c7.5-1 15.7-4.8 22.8-10z" id="path126" fill="#c7cfe2" stroke-width="1.389"/><path class="st2" d="M632.6 201.7L519.1 48.1c-9-12.2-10.7-28.3-4.4-42.1l67.1-146.5c5.2-11.3 20.9-13.7 28.4-3.8 0 .1.1.1.1.2L710-9.2c9.1 12.3 11.3 33.7 4.9 47.6l-66.1 144.3c-3.1 7-9.1 13.7-16.2 19z" id="path128" fill="#d7deed" stroke-width="1.389"/><path class="st3" d="M516.5 2.2l65.8-143.8c4.9-10.8-3.9-22.7-15.7-21.2l-156.8 20.7c-17.8 2.3-33.1 13.7-40.5 30L303.4 31.7c-4.9 10.8 3.9 22.7 15.7 21.2l156.8-20.7c17.8-2.4 33.1-13.8 40.6-30z" id="path130" fill="#d1d8e5" stroke-width="1.389"/><path class="st4" d="M488.7 129.9c9.6 13 6.1 24.7-7.8 26.3-13.9 1.6-32.9-7.7-42.4-20.6-9.5-12.9-6.1-24.7 7.8-26.3 13.8-1.6 32.8 7.7 42.4 20.6z" id="path132" fill="#4d5967" stroke-width="1.389"/><path class="st5" d="M446.2 109.3c-10 1.1-14.5 7.6-12.7 16 2.2-1.9 5.2-3.2 9.1-3.6 13.9-1.6 32.9 7.7 42.4 20.6 2.7 3.6 4.2 7.1 4.9 10.3 5.6-4.7 5.6-13.4-1.3-22.7-9.5-12.9-28.5-22.2-42.4-20.6z" id="path134" fill="#515262" stroke-width="1.389"/><path class="st6" d="M616.4 133c9.6 13 21.9 13.1 27.4.3 5.5-12.8 2.3-33.7-7.3-46.6-9.6-12.9-21.9-13.1-27.4-.3-5.5 12.8-2.3 33.7 7.3 46.6z" id="path136" fill="#707487" stroke-width="1.389"/><path class="st4" d="M609.1 86.4c-.7 1.7-1.3 3.5-1.7 5.5 6.2-4.1 14.5-1.6 21.5 7.8 8.3 11.2 11.8 28.4 9 41.2 2.4-1.6 4.4-4 5.9-7.5 5.6-12.8 2.3-33.7-7.3-46.6-9.5-13.1-21.8-13.2-27.4-.4z" id="path138" fill="#4d5967" stroke-width="1.389"/><path class="st6" d="M597.6-44.4c9.6 13 21.9 13.1 27.4.3 5.6-12.8 2.3-33.7-7.3-46.6-9.6-12.9-21.9-13.1-27.4-.3-5.5 12.8-2.3 33.6 7.3 46.6z" id="path140" fill="#707487" stroke-width="1.389"/><path class="st4" d="M590.3-91c-.7 1.7-1.3 3.5-1.7 5.5 6.2-4.1 14.5-1.6 21.5 7.8 8.3 11.2 11.8 28.4 9 41.2 2.4-1.6 4.4-4 5.9-7.5 5.6-12.8 2.3-33.7-7.3-46.6-9.5-13.1-21.8-13.2-27.4-.4z" id="path142" fill="#4d5967" stroke-width="1.389"/><path class="st6" d="M607.8 43c9.6 13 21.9 13.1 27.4.3 5.6-12.8 2.3-33.7-7.3-46.6-9.6-13-21.9-13.1-27.4-.3-5.5 12.8-2.3 33.7 7.3 46.6z" id="path144" fill="#707487" stroke-width="1.389"/><path class="st4" d="M600.5-3.6c-.7 1.7-1.3 3.5-1.7 5.5 6.2-4.1 14.5-1.6 21.5 7.8 8.3 11.2 11.8 28.4 9 41.2 2.4-1.6 4.4-4 5.9-7.5 5.6-12.8 2.3-33.7-7.3-46.6-9.5-13-21.8-13.2-27.4-.4z" id="path146" fill="#4d5967" stroke-width="1.389"/><ellipse transform="rotate(-36.464 441.752 -56.599)" class="st6" cx="441.7" cy="-56.6" rx="34.7" ry="17.4" id="ellipse148" fill="#707487" stroke-width="1.389"/><path class="st7" d="M431.4-70.6c-13.2 9.8-20.8 22.5-19.2 30.8 2.8-6.9 9-14.6 17.7-21.1 15.4-11.4 32.6-14.4 38.3-6.7.8 1.1 1.3 2.4 1.6 3.8 2.2-5.3 2.4-10.2-.1-13.5-5.8-7.6-22.9-4.7-38.3 6.7z" id="path150" fill="#65687a" stroke-width="1.389"/><ellipse transform="rotate(-36.464 412.846 -95.71)" class="st6" cx="412.8" cy="-95.7" rx="34.7" ry="17.4" id="ellipse152" fill="#707487" stroke-width="1.389"/><path class="st7" d="M402.5-109.7c-13.2 9.8-20.8 22.5-19.2 30.8 2.8-6.9 9-14.6 17.7-21.1 15.4-11.4 32.6-14.4 38.3-6.7.8 1.1 1.3 2.4 1.6 3.8 2.2-5.3 2.4-10.2-.1-13.5-5.8-7.7-22.9-4.7-38.3 6.7z" id="path154" fill="#65687a" stroke-width="1.389"/><ellipse transform="rotate(-36.464 470.657 -17.489)" class="st6" cx="470.6" cy="-17.5" rx="34.7" ry="17.4" id="ellipse156" fill="#707487" stroke-width="1.389"/><path class="st7" d="M460.3-31.4C447.1-21.7 439.5-9 441.1-.6c2.8-6.9 9-14.6 17.7-21.1 15.4-11.4 32.6-14.4 38.3-6.7.8 1.1 1.3 2.4 1.6 3.8 2.2-5.3 2.4-10.2-.1-13.5-5.7-7.7-22.9-4.8-38.3 6.7z" id="path158" fill="#65687a" stroke-width="1.389"/><ellipse transform="rotate(-36.464 514.386 -110.28)" class="st6" cx="514.3" cy="-110.3" rx="34.7" ry="17.4" id="ellipse160" fill="#707487" stroke-width="1.389"/><path class="st7" d="M504-124.2c-13.2 9.8-20.8 22.5-19.2 30.8 2.8-6.9 9-14.6 17.7-21.1 15.4-11.4 32.6-14.4 38.3-6.7.8 1.1 1.3 2.4 1.6 3.8 2.2-5.3 2.4-10.2-.1-13.5-5.7-7.7-22.9-4.7-38.3 6.7z" id="path162" fill="#65687a" stroke-width="1.389"/><ellipse transform="rotate(-36.464 369.118 -2.917)" class="st6" cx="369.1" cy="-2.9" rx="34.7" ry="17.4" id="ellipse164" fill="#707487" stroke-width="1.389"/><path class="st7" d="M358.8-16.9C345.6-7.1 338 5.6 339.6 13.9c2.8-6.9 9-14.6 17.7-21.1 15.4-11.4 32.6-14.4 38.3-6.7.8 1.1 1.3 2.4 1.6 3.8 2.2-5.3 2.4-10.2-.1-13.5-5.8-7.7-22.9-4.7-38.3 6.7z" id="path166" fill="#65687a" stroke-width="1.389"/></g><g id="g214"><path class="st0" d="M286 7.4c-16.5-9.1-43.5-9.1-60 0L54.8 102.1c-16.5 9.1-30 32-30 50.8v206.8c0 18.8 13.5 41.7 30 50.8L226 505.2c16.5 9.1 43.5 9.1 60 0l171.2-94.7c16.5-9.1 30-32 30-50.8V152.9c0-18.8-13.5-41.7-30-50.8z" id="path170" fill="#9b62cd" stroke-width="1.389"/><path class="st1" d="M256 512V276.6c0-18.7-10.2-35.9-26.5-45l-173.8-96c-13.4-7.4-30.8 1.7-30.9 17v207.1c0 18.8 13.5 41.7 30 50.8L226 505.2c8.3 4.5 19.1 6.8 30 6.8z" id="path172" fill="#c7cfe2" stroke-width="1.389"/><path class="st2" d="M256 512V276.6c0-18.7 10.2-35.9 26.5-45l173.8-96.1c13.4-7.4 30.8 1.7 30.9 17v207.1c0 18.8-13.5 41.7-30 50.8L286 505.2c-8.3 4.5-19.1 6.8-30 6.8z" id="path174" fill="#d7deed" stroke-width="1.389"/><path class="st3" d="M287.1 229.2l170.6-94.3c12.8-7.1 12.8-25.4 0-32.5L287.1 8A64.081 64.081 0 00225 8L54.3 102.4c-12.8 7.1-12.8 25.4 0 32.5l170.6 94.3c19.4 10.7 42.8 10.7 62.2 0z" id="path176" fill="#d1d8e5" stroke-width="1.389"/><path class="st4" d="M165.9 335.5c0 19.9-12.1 29-27 20.4-14.9-8.6-27-31.7-27-51.5s12.1-29 27-20.4c14.9 8.6 27 31.6 27 51.5z" id="path178" fill="#4d5967" stroke-width="1.389"/><path class="st5" d="M138.9 284c-10.8-6.2-20-3.1-24.3 6.6 3.5-.2 7.5.6 11.6 3.1 14.9 8.6 27 31.7 27 51.5 0 5.5-1 10.1-2.7 13.8 9-.6 15.3-9.2 15.3-23.5.1-19.9-12-42.9-26.9-51.5z" id="path180" fill="#515262" stroke-width="1.389"/><path class="st6" d="M290.3 432.1c0 19.9 12.1 29 27 20.4 14.9-8.6 27-31.7 27-51.5s-12.1-29-27-20.4c-15 8.6-27 31.6-27 51.5z" id="path182" fill="#707487" stroke-width="1.389"/><path class="st4" d="M317.2 380.6c-2 1.1-3.9 2.5-5.7 4.1 9.2.4 15.6 9.1 15.6 23.5 0 17.2-9.1 36.9-21.2 47.4 3.5.2 7.3-.7 11.4-3.1 14.9-8.6 27-31.7 27-51.5-.1-19.9-12.2-29-27.1-20.4z" id="path184" fill="#4d5967" stroke-width="1.389"/><path class="st6" d="M401.6 242.4c0 19.9 12.1 29 27 20.4 14.9-8.6 27-31.7 27-51.5s-12.1-29-27-20.4c-14.9 8.6-27 31.6-27 51.5z" id="path186" fill="#707487" stroke-width="1.389"/><path class="st4" d="M428.5 190.9c-2 1.1-3.9 2.6-5.7 4.1 9.2.4 15.6 9.1 15.6 23.5 0 17.2-9.1 36.9-21.2 47.4 3.5.2 7.3-.7 11.4-3.1 14.9-8.6 27-31.7 27-51.5-.1-19.9-12.2-29-27.1-20.4z" id="path188" fill="#4d5967" stroke-width="1.389"/><path class="st6" d="M347.6 336.6c0 19.9 12.1 29 27 20.4 14.9-8.6 27-31.7 27-51.5 0-19.9-12.1-29-27-20.4-14.9 8.6-27 31.6-27 51.5z" id="path190" fill="#707487" stroke-width="1.389"/><path class="st4" d="M374.6 285.1c-2 1.1-3.9 2.5-5.7 4.1 9.2.4 15.6 9.1 15.6 23.5 0 17.2-9.1 36.9-21.2 47.4 3.5.2 7.3-.7 11.4-3.1 14.9-8.6 27-31.7 27-51.5-.1-19.9-12.2-29-27.1-20.4z" id="path192" fill="#4d5967" stroke-width="1.389"/><ellipse class="st6" cx="256" cy="116.2" rx="42.8" ry="21.4" id="ellipse194" fill="#707487" stroke-width="1.389"/><path class="st7" d="M256 94.8c-20.2 0-37.1 7-41.6 16.5 7.9-4.8 19.6-7.9 33-7.9 23.6 0 42.8 9.6 42.8 21.4 0 1.7-.5 3.3-1.2 4.9 6-3.7 9.8-8.3 9.8-13.5 0-11.9-19.2-21.4-42.8-21.4z" id="path196" fill="#65687a" stroke-width="1.389"/><ellipse class="st6" cx="256" cy="56.2" rx="42.8" ry="21.4" id="ellipse198" fill="#707487" stroke-width="1.389"/><path class="st7" d="M256 34.8c-20.2 0-37.1 7-41.6 16.5 7.9-4.8 19.6-7.9 33-7.9 23.6 0 42.8 9.6 42.8 21.4 0 1.7-.5 3.3-1.2 4.9 6-3.7 9.8-8.3 9.8-13.5 0-11.8-19.2-21.4-42.8-21.4z" id="path200" fill="#65687a" stroke-width="1.389"/><ellipse class="st6" cx="256" cy="176.1" rx="42.8" ry="21.4" id="ellipse202" fill="#707487" stroke-width="1.389"/><path class="st7" d="M256 154.7c-20.2 0-37.1 7-41.6 16.5 7.9-4.8 19.6-7.9 33-7.9 23.6 0 42.8 9.6 42.8 21.4 0 1.7-.5 3.3-1.2 4.9 6-3.7 9.8-8.3 9.8-13.5 0-11.8-19.2-21.4-42.8-21.4z" id="path204" fill="#65687a" stroke-width="1.389"/><ellipse class="st6" cx="367.3" cy="116.2" rx="42.8" ry="21.4" id="ellipse206" fill="#707487" stroke-width="1.389"/><path class="st7" d="M367.3 94.8c-20.2 0-37.1 7-41.6 16.5 7.9-4.8 19.6-7.9 33-7.9 23.6 0 42.8 9.6 42.8 21.4 0 1.7-.5 3.3-1.2 4.9 6-3.7 9.8-8.3 9.8-13.5 0-11.9-19.1-21.4-42.8-21.4z" id="path208" fill="#65687a" stroke-width="1.389"/><ellipse class="st6" cx="144.7" cy="116.2" rx="42.8" ry="21.4" id="ellipse210" fill="#707487" stroke-width="1.389"/><path class="st7" d="M144.7 94.8c-20.2 0-37.1 7-41.6 16.5 7.9-4.8 19.6-7.9 33-7.9 23.6 0 42.8 9.6 42.8 21.4 0 1.7-.5 3.3-1.2 4.9 6-3.7 9.8-8.3 9.8-13.5 0-11.9-19.2-21.4-42.8-21.4z" id="path212" fill="#65687a" stroke-width="1.389"/></g></g></g></g><style id="style10" type="text/css">.st0{fill:#9b62cd}.st1{fill:#c7cfe2}.st2{fill:#d7deed}.st3{fill:#d1d8e5}.st4{fill:#4d5967}.st5{fill:url(#SVGID_1_)}.st6{fill:url(#SVGID_2_)}.st7{fill:#e51f82}</style><style id="style122" type="text/css">.st0{fill:#e3e8f4}.st1{fill:#c7cfe2}.st2{fill:#d7deed}.st3{fill:#eff2fa}.st4{fill:#5b5d6e}.st5{fill:#515262}.st6{fill:#707487}.st7{fill:#65687a}</style><style type="text/css" id="style10-2">.st0{fill:#9b62cd}.st1{fill:#c7cfe2}.st2{fill:#d7deed}.st3{fill:#d1d8e5}.st4{fill:#4d5967}</style><style type="text/css" id="style10-1">.st0{fill:#9b62cd}.st1{fill:#c7cfe2}.st2{fill:#d7deed}.st3{fill:#d1d8e5}.st4{fill:#4d5967}.st5{fill:url(#SVGID_1_)}.st6{fill:url(#SVGID_2_)}.st7{fill:#e51f82}</style><style type="text/css" id="style122-1">.st0{fill:#e3e8f4}.st1{fill:#c7cfe2}.st2{fill:#d7deed}.st3{fill:#eff2fa}.st4{fill:#5b5d6e}.st5{fill:#515262}.st6{fill:#707487}.st7{fill:#65687a}</style></svg>