<svg version="1.1" id="Layer_1" xmlns="http://www.w3.org/2000/svg" x="0" y="0" viewBox="0 30 512 476" xml:space="preserve"><style>.st6{fill:#fff}.st8{fill:#10a9f7}</style><linearGradient id="SVGID_1_" gradientUnits="userSpaceOnUse" x1="120.536" y1="84.444" x2="419.173" y2="660.573"><stop offset="0" stop-color="#fffcf8"/><stop offset=".188" stop-color="#faf8f6"/><stop offset=".404" stop-color="#eceef2"/><stop offset=".635" stop-color="#d5dcea"/><stop offset=".875" stop-color="#b5c4df"/><stop offset="1" stop-color="#a1b5d8"/></linearGradient><path d="M363.4 504.1H103.6c-27.2 0-49.5-22.3-49.5-49.5V150.1c0-27.2 22.3-49.5 49.5-49.5h259.8c27.2 0 49.5 22.3 49.5 49.5v304.6c-.1 27.1-22.3 49.4-49.5 49.4z" fill="url(#SVGID_1_)"/><path d="M332.1 470.9H134.8c-28.1 0-51.2-23-51.2-51.2V185c0-28.1 23-51.2 51.2-51.2h197.3c28.1 0 51.2 23 51.2 51.2v234.8c0 28.1-23 51.1-51.2 51.1z" opacity=".19" fill="#6f7486"/><linearGradient id="SVGID_2_" gradientUnits="userSpaceOnUse" x1="233.482" y1="423.709" x2="233.482" y2="530.184"><stop offset="0" stop-color="#a1b5d8" stop-opacity="0"/><stop offset=".309" stop-color="#90a2bd" stop-opacity=".31"/><stop offset=".755" stop-color="#7c8b9c" stop-opacity=".757"/><stop offset="1" stop-color="#748290"/></linearGradient><path d="M365.5 504.1H101.4c-26 0-47.3-21.3-47.3-47.3v-29.3c0-2 1.6-3.6 3.6-3.6h351.5c2 0 3.6 1.6 3.6 3.6v29.3c0 26-21.3 47.3-47.3 47.3z" fill="url(#SVGID_2_)"/><linearGradient id="SVGID_3_" gradientUnits="userSpaceOnUse" x1="321.239" y1="74.99" x2="41.219" y2="355.01" gradientTransform="matrix(1 0 0 -1 0 511)"><stop offset="0" stop-color="#a1b5d8" stop-opacity="0"/><stop offset=".309" stop-color="#90a2bd" stop-opacity=".31"/><stop offset=".755" stop-color="#7c8b9c" stop-opacity=".757"/><stop offset="1" stop-color="#748290"/></linearGradient><path d="M337.1 472.8c38.8-3.2 69.4-26.9 73.5-56.9 4.5-32.9.4-65 1-97.9l-92.1-77.3c-5.1-4.9-9.7-5.3-19.2-6.7-7.7-1.2-15.6-2-23.4-2.2-25.1-.8-50.1-1.5-75.2-1.7-36.8-.3-73.6-.2-110.3 3.1-15.8 1.4-32.5 11-34.3 24.1-.9 6.7-2.5 13.4-3 20.1-1.8 24.5-2.2 49.1 2.2 73.5 1.5 8.2-15.4 15.6-8.3 20.2l162.4 107.6c42.3-.4 84.5-2.4 126.7-5.9z" fill="url(#SVGID_3_)"/><linearGradient id="SVGID_4_" gradientUnits="userSpaceOnUse" x1="423.8" y1="198.28" x2="464.26" y2="198.28"><stop offset="0" stop-color="#e52d68"/><stop offset="1" stop-color="#b31274"/></linearGradient><path d="M453.3 85.3c-3.2 0-6.2-.6-9-1.6v210.1h-20.5v20h30.5c5.5 0 10-4.5 10-10v-221c-3.4 1.6-7.1 2.5-11 2.5z" fill="url(#SVGID_4_)"/><linearGradient id="SVGID_5_" gradientUnits="userSpaceOnUse" x1="34.058" y1="303.74" x2="425.111" y2="303.74"><stop offset="0" stop-color="#00adff"/><stop offset="1" stop-color="#0070ff"/></linearGradient><path d="M404 226.9H55.2c-11.7 0-21.2 9.5-21.2 21.1v111.4c0 11.7 9.5 21.1 21.2 21.1H404c11.7 0 21.1-9.5 21.1-21.1V248c0-11.7-9.5-21.1-21.1-21.1z" fill="url(#SVGID_5_)"/><path class="st6" d="M58.1 258.8v22.5h47.3c-9.7 12.1-16.8 23.4-21.3 34s-7.8 23.7-9.9 39.3h26.5c.9-11.2 2.6-21 5.1-29.2 3.2-10.6 7.5-20.2 13-28.8 4.5-7.1 10.2-13.7 16.9-19.8v-18H58.1zM190.7 258.8v22.5H238c-9.7 12.1-16.8 23.4-21.3 34-4.5 10.6-7.8 23.7-9.9 39.3h26.5c.9-11.2 2.6-21 5.1-29.2 3.2-10.6 7.5-20.2 13-28.8 4.5-7.1 10.2-13.7 16.9-19.8v-18h-77.6zM323.4 258.8v22.5h47.3c-9.7 12.1-16.8 23.4-21.3 34s-7.8 23.7-9.9 39.3H366c.9-11.2 2.6-21 5.1-29.2 3.2-10.6 7.5-20.2 13-28.8 4.5-7.1 10.2-13.7 16.9-19.8v-18h-77.6z"/><linearGradient id="SVGID_6_" gradientUnits="userSpaceOnUse" x1="427.264" y1="59.26" x2="479.264" y2="59.26"><stop offset="0" stop-color="#00adff"/><stop offset="1" stop-color="#0070ff"/></linearGradient><circle cx="453.3" cy="59.3" r="26" fill="url(#SVGID_6_)"/><circle class="st8" cx="100.9" cy="443.2" r="19.3"/><circle transform="rotate(-45.001 186.606 443.333)" class="st8" cx="186.6" cy="443.3" r="19.3"/><circle class="st8" cx="272.7" cy="443.4" r="19.3"/><circle class="st8" cx="358.2" cy="443.3" r="19.3"/><linearGradient id="SVGID_7_" gradientUnits="userSpaceOnUse" x1="157.548" y1="121.627" x2="301.622" y2="121.627"><stop offset="0" stop-color="#e52d68"/><stop offset="1" stop-color="#b31274"/></linearGradient><circle cx="229.6" cy="121.6" r="72" fill="url(#SVGID_7_)"/><path class="st6" d="M203.2 160.2c21.1-12.9 41.6-25.5 62.8-38.5-21.1-13-41.7-25.6-62.8-38.6v77.1z"/></svg>