<svg xmlns="http://www.w3.org/2000/svg" viewBox="0 0 273.75 198.58"><defs><style>.cls-1{isolation:isolate;}.cls-2{fill:#c2d77f;}.cls-3{fill:#528c00;}.cls-4{fill:#b39e9e;opacity:0.5;mix-blend-mode:multiply;}</style></defs><title>kassa</title><g class="cls-1"><g id="Layer_2" data-name="Layer 2"><g id="_ÎÓÈ_1" data-name="—ÎÓÈ_1"><rect class="cls-2" x="119.68" y="68.01" width="170.51" height="72.6" transform="translate(385.81 -37.7) rotate(114.89)"/><path class="cls-3" d="M273.74,42.27,207.88,11.71,136.12,166.39,202,197Zm-129.12,121L211,20.21l54.25,25.17L198.87,188.45Z"/><path class="cls-3" d="M210.28,104.1l-.05.08,6.29,2.92c.08-.27,0-.21,0-.28a4.93,4.93,0,0,0-.53-2.06,3.2,3.2,0,0,0-1.48-1.36,3.42,3.42,0,0,0-2.16-.23A6.63,6.63,0,0,0,210.28,104.1Z"/><path class="cls-3" d="M183.74,94.56a23.31,23.31,0,1,0,30.95-11.33A23.31,23.31,0,0,0,183.74,94.56ZM220.57,99A9.1,9.1,0,0,1,222,103a15.59,15.59,0,0,1-.37,5,13.11,13.11,0,0,1-.34,1.27l2.21,1-1.87,4-1.9-.88a39.67,39.67,0,0,1-2.5,4.63,21.61,21.61,0,0,1-2.26,3l-4.85-2.25a8.09,8.09,0,0,0,.86-.76,18,18,0,0,0,1.77-1.92,21.36,21.36,0,0,0,1.5-2.11,22,22,0,0,0,1.14-2.1c.07-.14.17-.4.17-.4l-9.11-4.22c-.23.2-.49.46-.74.72a36,36,0,0,1-3.39,3,13.94,13.94,0,0,1-3.19,1.87,7.77,7.77,0,0,1-3.12.6,9.38,9.38,0,0,1-6.94-3.74,8.86,8.86,0,0,1-1.38-4,15.19,15.19,0,0,1,.46-5c.14-.56.31-1.14.48-1.67l-2.07-1,1.87-4,1.85.86A35.4,35.4,0,0,1,193,90,18.89,18.89,0,0,1,196,86.52l5.22,2.42a21.64,21.64,0,0,0-3.49,3,19.64,19.64,0,0,0-3.3,4.92l9.48,4.39,1.17-1.18a17,17,0,0,1,6.37-4.33,7.66,7.66,0,0,1,5.76.42A7.87,7.87,0,0,1,220.57,99Z"/><path class="cls-3" d="M193.78,104.1a3.38,3.38,0,0,0,1.44,1.26,3.62,3.62,0,0,0,2.47.22,7.53,7.53,0,0,0,2.34-1.09c.05,0,.1-.09.13-.07l-7-3.26c0,.31,0,.68,0,1A4.2,4.2,0,0,0,193.78,104.1Z"/><path class="cls-3" d="M179.89,92.78a27.55,27.55,0,1,0,36.58-13.4A27.56,27.56,0,0,0,179.89,92.78Zm48.28,22.4a25.68,25.68,0,1,1-12.49-34.1A25.71,25.71,0,0,1,228.17,115.18Z"/><path class="cls-3" d="M177.48,146.3a7.21,7.21,0,1,0,9.58-3.51A7.21,7.21,0,0,0,177.48,146.3Z"/><path class="cls-3" d="M219.86,54.93a7.21,7.21,0,1,0,9.58-3.51A7.21,7.21,0,0,0,219.86,54.93Z"/><path class="cls-3" d="M257.87,56.65l4.79-10.33-10.24-4.75A13.46,13.46,0,0,0,257.87,56.65Z"/><path class="cls-3" d="M222.18,27.54,211.94,22.8l-4.81,10.35A13.48,13.48,0,0,0,222.18,27.54Z"/><path class="cls-3" d="M187.57,181.06l10.35,4.8,4.78-10.28A13.48,13.48,0,0,0,187.57,181.06Z"/><path class="cls-3" d="M152,152.09l-4.75,10.25,10.2,4.73A13.3,13.3,0,0,0,152,152.09Z"/><polygon class="cls-4" points="246.15 29.47 207.89 11.7 136.12 166.39 195.13 193.75 246.15 29.47"/><rect class="cls-2" x="94.15" y="57.53" width="170.51" height="72.6" transform="translate(320.35 -51.53) rotate(106.51)"/><path class="cls-3" d="M238.43,22.42,168.82,1.79,120.37,165.27,190,185.9ZM128.33,161,173.14,9.74l57.34,17L185.67,178Z"/><path class="cls-3" d="M184.66,92.84l0,.08,6.65,2c0-.27,0-.2,0-.26a5,5,0,0,0-.82-2,3.22,3.22,0,0,0-1.67-1.12,3.36,3.36,0,0,0-2.17.08A6.8,6.8,0,0,0,184.66,92.84Z"/><path class="cls-3" d="M157,87.29a23.3,23.3,0,1,0,29-15.72A23.29,23.29,0,0,0,157,87.29Zm37.08-1a9.11,9.11,0,0,1,2,3.81,15.37,15.37,0,0,1,.36,5,13,13,0,0,1-.14,1.3l2.34.69-1.27,4.27-2-.6a40.74,40.74,0,0,1-1.8,5,23.41,23.41,0,0,1-1.8,3.27l-5.13-1.52a8.19,8.19,0,0,0,.73-.86,19.15,19.15,0,0,0,1.48-2.16,20.74,20.74,0,0,0,1.17-2.3,20.25,20.25,0,0,0,.83-2.26l.11-.42-9.62-2.86c-.2.24-.42.55-.64.84a36.39,36.39,0,0,1-2.92,3.43,14.24,14.24,0,0,1-2.88,2.31,7.8,7.8,0,0,1-3,1,8.2,8.2,0,0,1-3.43-.34,8.39,8.39,0,0,1-4-2.35,8.78,8.78,0,0,1-1.95-3.8,15.05,15.05,0,0,1-.27-5c.06-.57.15-1.18.23-1.73l-2.19-.65,1.27-4.27,2,.58a35.65,35.65,0,0,1,2-5.22,18.49,18.49,0,0,1,2.41-3.9l5.51,1.63a20.81,20.81,0,0,0-3,3.46A19.53,19.53,0,0,0,167.89,88l10,3c.33-.49.65-.9,1-1.34a17,17,0,0,1,5.67-5.2,7.66,7.66,0,0,1,5.77-.42A7.89,7.89,0,0,1,194.09,86.26Z"/><path class="cls-3" d="M168.33,95.26a3.44,3.44,0,0,0,1.61,1,3.63,3.63,0,0,0,2.47-.14,7.73,7.73,0,0,0,2.17-1.43s.09-.11.11-.11l-7.41-2.19c.05.3.08.68.15,1A4.24,4.24,0,0,0,168.33,95.26Z"/><path class="cls-3" d="M152.94,86.08A27.55,27.55,0,1,0,187.18,67.5,27.59,27.59,0,0,0,152.94,86.08Zm51,15.13a25.68,25.68,0,1,1-17.32-31.92A25.71,25.71,0,0,1,204,101.21Z"/><path class="cls-3" d="M158.35,139.38a7.22,7.22,0,1,0,9-4.87A7.22,7.22,0,0,0,158.35,139.38Z"/><path class="cls-3" d="M187,42.82a7.21,7.21,0,1,0,9-4.87A7.2,7.2,0,0,0,187,42.82Z"/><path class="cls-3" d="M224.82,39l3.24-10.93-10.82-3.21A13.48,13.48,0,0,0,224.82,39Z"/><path class="cls-3" d="M185.27,15.37l-10.82-3.21-3.25,11A13.48,13.48,0,0,0,185.27,15.37Z"/><path class="cls-3" d="M173.41,172.29l10.94,3.24,3.22-10.85A13.45,13.45,0,0,0,173.41,172.29Z"/><path class="cls-3" d="M134,148.83l-3.2,10.81,10.78,3.2A13.28,13.28,0,0,0,134,148.83Z"/><polygon class="cls-4" points="210.23 14.04 168.83 1.77 120.37 165.27 187.57 185.19 210.23 14.04"/><rect class="cls-2" x="69.54" y="53.05" width="170.51" height="72.6" transform="translate(259.12 -55.78) rotate(95.72)"/><path class="cls-3" d="M199.41,8.13,127.17.9l-17,169.67,72.23,7.23ZM117.19,164.84,132.9,7.9l59.51,6L176.7,170.79Z"/><path class="cls-3" d="M159.78,87.38l0,.09,6.9.69c0-.28,0-.2-.07-.26a5,5,0,0,0-1.17-1.76,3.2,3.2,0,0,0-1.85-.8,3.32,3.32,0,0,0-2.11.49A6.47,6.47,0,0,0,159.78,87.38Z"/><path class="cls-3" d="M131.57,87.1a23.31,23.31,0,1,0,25.51-20.86A23.3,23.3,0,0,0,131.57,87.1Zm36.23-7.95a9,9,0,0,1,2.65,3.38,15.42,15.42,0,0,1,1.29,4.85,10.79,10.79,0,0,1,.1,1.3l2.43.24-.44,4.43-2.09-.21a38.77,38.77,0,0,1-.84,5.2,22.39,22.39,0,0,1-1.16,3.55l-5.32-.54a8.77,8.77,0,0,0,.56-1A20.36,20.36,0,0,0,166,98a23.33,23.33,0,0,0,.72-2.49,21.63,21.63,0,0,0,.39-2.37l0-.44-10-1c-.15.27-.31.61-.47.94a37.79,37.79,0,0,1-2.22,3.92,14.36,14.36,0,0,1-2.41,2.81,7.82,7.82,0,0,1-2.75,1.6,8.24,8.24,0,0,1-3.43.3,8.38,8.38,0,0,1-4.36-1.56,8.86,8.86,0,0,1-2.62-3.37,14.89,14.89,0,0,1-1.2-4.85c-.05-.57-.08-1.18-.1-1.74l-2.27-.23.45-4.43,2,.2a35.43,35.43,0,0,1,1-5.51,18.34,18.34,0,0,1,1.63-4.28l5.72.57a20.72,20.72,0,0,0-2.31,4,19.6,19.6,0,0,0-1.51,5.72l10.4,1c.24-.53.48-1,.71-1.49a17,17,0,0,1,4.6-6.17,7.66,7.66,0,0,1,5.58-1.5A7.91,7.91,0,0,1,167.8,79.15Z"/><path class="cls-3" d="M144.19,92.81a3.41,3.41,0,0,0,1.77.72,3.58,3.58,0,0,0,2.41-.6,7.5,7.5,0,0,0,1.85-1.81s.07-.13.1-.12l-7.69-.77c.1.29.2.65.33.94A4.2,4.2,0,0,0,144.19,92.81Z"/><path class="cls-3" d="M127.35,86.68A27.55,27.55,0,1,0,157.5,62,27.57,27.57,0,0,0,127.35,86.68Zm53,5.3a25.68,25.68,0,1,1-23-28.11A25.71,25.71,0,0,1,180.31,92Z"/><path class="cls-3" d="M142.64,138a7.22,7.22,0,1,0,7.9-6.46A7.22,7.22,0,0,0,142.64,138Z"/><path class="cls-3" d="M152.68,37.81a7.21,7.21,0,1,0,7.89-6.47A7.2,7.2,0,0,0,152.68,37.81Z"/><path class="cls-3" d="M189.14,27l1.13-11.35L179,14.48A13.48,13.48,0,0,0,189.14,27Z"/><path class="cls-3" d="M145.87,11.16,134.64,10,133.5,21.41A13.47,13.47,0,0,0,145.87,11.16Z"/><path class="cls-3" d="M163.6,167.53,175,168.66l1.13-11.26A13.47,13.47,0,0,0,163.6,167.53Z"/><path class="cls-3" d="M120.44,151.87l-1.12,11.22,11.19,1.12A13.29,13.29,0,0,0,120.44,151.87Z"/><polygon class="cls-4" points="127.17 0.9 112.47 170.79 182.42 177.8 165.73 4.76 127.17 0.9"/><rect class="cls-2" x="43.47" y="53.97" width="170.51" height="72.6" transform="translate(195.22 -52.2) rotate(79.98)"/><path class="cls-3" d="M149.64,0,78.15,12.63l29.67,167.92,71.49-12.64ZM113,173.13,85.56,17.82,144.45,7.41,171.9,162.72Z"/><path class="cls-3" d="M133,87v.09l6.82-1.21c-.08-.27-.09-.17-.13-.23a5,5,0,0,0-1.61-1.38,3.2,3.2,0,0,0-2-.26,3.39,3.39,0,0,0-1.9,1A6.52,6.52,0,0,0,133,87Z"/><path class="cls-3" d="M105.76,94.41a23.31,23.31,0,1,0,18.9-27A23.31,23.31,0,0,0,105.76,94.41Zm32.72-17.48a9.11,9.11,0,0,1,3.46,2.53,15.44,15.44,0,0,1,2.56,4.32A12.46,12.46,0,0,1,145,85l2.4-.43.78,4.38-2.06.37a39.06,39.06,0,0,1,.6,5.23,22.5,22.5,0,0,1-.16,3.73l-5.26.93a8.86,8.86,0,0,0,.27-1.1,18.76,18.76,0,0,0,.36-2.59,22.26,22.26,0,0,0,0-2.58,21,21,0,0,0-.27-2.39l-.09-.43-9.89,1.74c-.07.3-.13.68-.19,1a35.35,35.35,0,0,1-1.08,4.37,14.28,14.28,0,0,1-1.55,3.36,7.92,7.92,0,0,1-2.21,2.29,9.46,9.46,0,0,1-7.84.9,8.85,8.85,0,0,1-3.44-2.53A14.79,14.79,0,0,1,112.87,97c-.21-.54-.4-1.12-.57-1.66l-2.25.4-.77-4.38,2-.36a35.5,35.5,0,0,1-.51-5.58,18.32,18.32,0,0,1,.41-4.57l5.66-1a20.94,20.94,0,0,0-1.16,4.44,19.88,19.88,0,0,0,.11,5.92l10.29-1.82c.09-.58.18-1.1.28-1.63a17,17,0,0,1,2.75-7.19,7.65,7.65,0,0,1,5-3A7.88,7.88,0,0,1,138.48,76.93Z"/><path class="cls-3" d="M119.46,96.48a3.34,3.34,0,0,0,1.9.21,3.61,3.61,0,0,0,2.15-1.22,7.7,7.7,0,0,0,1.3-2.25s0-.14,0-.15l-7.61,1.35c.18.25.38.57.58.82A4.18,4.18,0,0,0,119.46,96.48Z"/><path class="cls-3" d="M101.58,95.15a27.55,27.55,0,1,0,22.34-31.92A27.6,27.6,0,0,0,101.58,95.15ZM154,85.89a25.68,25.68,0,1,1-29.76-20.82A25.71,25.71,0,0,1,154,85.89Z"/><path class="cls-3" d="M130.23,140.42a7.21,7.21,0,1,0,5.85-8.36A7.23,7.23,0,0,0,130.23,140.42Z"/><path class="cls-3" d="M112.71,41.24a7.21,7.21,0,1,0,5.85-8.36A7.22,7.22,0,0,0,112.71,41.24Z"/><path class="cls-3" d="M144.86,20.9l-2-11.23-11.11,2A13.49,13.49,0,0,0,144.86,20.9Z"/><path class="cls-3" d="M98.93,17.44l-11.11,2,2,11.26A13.49,13.49,0,0,0,98.93,17.44Z"/><path class="cls-3" d="M158.41,163.13l11.23-2-2-11.15A13.44,13.44,0,0,0,158.41,163.13Z"/><path class="cls-3" d="M112.62,159.77l2,11.11,11.08-2A13.29,13.29,0,0,0,112.62,159.77Z"/><polygon class="cls-4" points="121.06 5.62 78.15 12.63 107.82 180.54 176.43 168.42 121.06 5.62"/><rect class="cls-2" x="17.48" y="59.56" width="170.51" height="72.6" transform="translate(152.03 -35.72) rotate(67.52)"/><path class="cls-3" d="M103.68,3.2,36.6,31l65.18,157.56,67.09-27.75Zm1.57,177L45,34.42l55.27-22.86,60.29,145.73Z"/><path class="cls-3" d="M106.19,91.77l0,.09,6.41-2.65c-.14-.25-.13-.16-.19-.2a4.85,4.85,0,0,0-1.86-1,3.22,3.22,0,0,0-2,.17,3.34,3.34,0,0,0-1.63,1.43A6.85,6.85,0,0,0,106.19,91.77Z"/><path class="cls-3" d="M81.2,104.85A23.31,23.31,0,1,0,93.83,74.41,23.3,23.3,0,0,0,81.2,104.85Zm28.18-24.13a9.17,9.17,0,0,1,3.92,1.73,15.31,15.31,0,0,1,3.43,3.66c.23.34.43.62.71,1.1l2.25-.93,1.7,4.11-1.93.8a38.45,38.45,0,0,1,1.71,5,22.53,22.53,0,0,1,.66,3.68l-4.94,2a10.24,10.24,0,0,0,0-1.13,20.86,20.86,0,0,0-.21-2.61,20.47,20.47,0,0,0-.54-2.52,20.24,20.24,0,0,0-.78-2.28l-.18-.4-9.27,3.84c0,.3,0,.68,0,1a34.38,34.38,0,0,1-.11,4.5,14.4,14.4,0,0,1-.78,3.61,8,8,0,0,1-1.67,2.71,8.2,8.2,0,0,1-2.89,1.89,8.4,8.4,0,0,1-4.57.68A8.81,8.81,0,0,1,92,109.5a14.76,14.76,0,0,1-3.34-3.71c-.32-.48-.63-1-.91-1.49l-2.11.87L84,101.06l1.88-.78a36.11,36.11,0,0,1-1.7-5.34,18.68,18.68,0,0,1-.59-4.55l5.32-2.2a21,21,0,0,0-.18,4.59,19.9,19.9,0,0,0,1.38,5.75l9.66-4c0-.59-.06-1.11-.08-1.66a17,17,0,0,1,1.13-7.61,7.72,7.72,0,0,1,4.22-4A8,8,0,0,1,109.38,80.72Z"/><path class="cls-3" d="M95,103.92a3.43,3.43,0,0,0,1.9-.2,3.65,3.65,0,0,0,1.84-1.67,7.63,7.63,0,0,0,.78-2.47.34.34,0,0,1,0-.16l-7.14,3c.23.21.49.48.74.67A4.14,4.14,0,0,0,95,103.92Z"/><path class="cls-3" d="M77.28,106.47a27.55,27.55,0,1,0,14.92-36A27.58,27.58,0,0,0,77.28,106.47Zm49.18-20.35A25.68,25.68,0,1,1,92.92,72.21,25.7,25.7,0,0,1,126.46,86.12Z"/><path class="cls-3" d="M115,144.5a7.21,7.21,0,1,0,3.9-9.43A7.21,7.21,0,0,0,115,144.5Z"/><path class="cls-3" d="M76.51,51.43A7.22,7.22,0,1,0,80.42,42,7.23,7.23,0,0,0,76.51,51.43Z"/><path class="cls-3" d="M103.52,24.63,99.16,14.1,88.73,18.41A13.47,13.47,0,0,0,103.52,24.63Z"/><path class="cls-3" d="M57.93,31.16,47.5,35.47,51.87,46A13.49,13.49,0,0,0,57.93,31.16Z"/><path class="cls-3" d="M147.42,160.6,158,156.24l-4.33-10.46A13.46,13.46,0,0,0,147.42,160.6Z"/><path class="cls-3" d="M102,167.19l4.31,10.42,10.4-4.3A13.29,13.29,0,0,0,102,167.19Z"/><polygon class="cls-4" points="75.18 14.99 36.6 30.95 101.78 188.51 168.87 160.76 75.18 14.99"/><rect class="cls-2" x="-4.72" y="72.46" width="170.51" height="72.6" transform="matrix(0.61, 0.8, -0.8, 0.61, 118.25, -21.21)"/><path class="cls-3" d="M57.75,19,0,62.94,103.33,198.58l57.75-44Zm46.79,170.66L9,64.15,56.54,27.91l95.57,125.46Z"/><path class="cls-3" d="M82.84,103.93l0,.08,5.51-4.2c-.19-.2-.16-.12-.22-.14a4.77,4.77,0,0,0-2.07-.49,3.14,3.14,0,0,0-1.89.68A3.35,3.35,0,0,0,83,101.65,6.4,6.4,0,0,0,82.84,103.93Z"/><path class="cls-3" d="M62,123a23.3,23.3,0,1,0,4.41-32.66A23.31,23.31,0,0,0,62,123ZM83.09,92.43a9.27,9.27,0,0,1,4.24.67,15.43,15.43,0,0,1,4.25,2.66c.31.27.57.49,1,.89l1.95-1.48,2.69,3.54L95.52,100a39.7,39.7,0,0,1,2.93,4.37,23.66,23.66,0,0,1,1.57,3.39L95.77,111a9.21,9.21,0,0,0-.26-1.11,20.18,20.18,0,0,0-2-4.77,22.39,22.39,0,0,0-1.33-2l-.28-.34-8,6.09c.07.29.19.65.3,1a34.66,34.66,0,0,1,1,4.38,14.27,14.27,0,0,1,.17,3.7,8,8,0,0,1-.92,3,8.47,8.47,0,0,1-2.31,2.57,8.28,8.28,0,0,1-4.25,1.82,8.77,8.77,0,0,1-4.22-.67A15.13,15.13,0,0,1,69.5,122c-.43-.38-.86-.81-1.26-1.21l-1.81,1.39-2.7-3.54,1.62-1.24a35.89,35.89,0,0,1-3-4.73,18.57,18.57,0,0,1-1.73-4.24l4.57-3.49a20.75,20.75,0,0,0,1,4.48,19.81,19.81,0,0,0,2.8,5.21l8.32-6.34c-.19-.55-.34-1.06-.5-1.57A16.94,16.94,0,0,1,76,99,7.64,7.64,0,0,1,79,94.13,8,8,0,0,1,83.09,92.43Z"/><path class="cls-3" d="M75.15,118.53a3.28,3.28,0,0,0,1.78-.68,3.58,3.58,0,0,0,1.35-2.08,7.53,7.53,0,0,0,.12-2.59c0-.06,0-.14,0-.15l-6.15,4.68c.27.14.59.34.89.46A4.16,4.16,0,0,0,75.15,118.53Z"/><path class="cls-3" d="M58.65,125.54a27.55,27.55,0,1,0,5.22-38.61A27.58,27.58,0,0,0,58.65,125.54ZM101,93.28a25.68,25.68,0,1,1-36-4.86A25.7,25.7,0,0,1,101,93.28Z"/><path class="cls-3" d="M104.86,152.64a7.21,7.21,0,1,0,1.37-10.11A7.21,7.21,0,0,0,104.86,152.64Z"/><path class="cls-3" d="M43.82,72.52a7.21,7.21,0,1,0,1.37-10.11A7.22,7.22,0,0,0,43.82,72.52Z"/><path class="cls-3" d="M63.08,39.71l-6.91-9.07-9,6.84A13.48,13.48,0,0,0,63.08,39.71Z"/><path class="cls-3" d="M20.67,57.68l-9,6.84,6.93,9.1A13.48,13.48,0,0,0,20.67,57.68Z"/><path class="cls-3" d="M140.31,159.92l9.07-6.92-6.86-9A13.47,13.47,0,0,0,140.31,159.92Z"/><path class="cls-3" d="M98.08,177.92l6.83,9,9-6.82A13.28,13.28,0,0,0,98.08,177.92Z"/></g></g></g></svg>