<svg xmlns="http://www.w3.org/2000/svg" width="100" height="100" viewBox="0 0 26.4583 26.4583"><path d="M17.062 17.7835H7.171L5.6873 21.904c-.4945.8675-.7418 1.735-.7418 2.1687 0 .4338.2473.8675.4945 1.0844.4946.2169 1.2364.4337 2.4728.6506v.6506H0v-.6506c.9891-.2169 1.731-.4337 1.9782-.8675.7418-.6506 1.4836-1.735 2.2255-3.6868L12.8583 0H13.6l8.6546 21.4703c.4945 1.735 1.2363 2.8193 1.7309 3.47.7418.4337 1.4836.6505 2.4727.8674v.6506h-9.891v-.6506c.9892-.2169 1.731-.2169 1.9783-.6506.4945-.2169.4945-.6506.4945-1.0844 0-.4337-.2473-1.3012-.7418-2.6024zm-.742-1.3013L12.1165 6.0724 7.9128 16.4822z" fill="#2472ff" fill-rule="nonzero" stroke-width=".5362"/></svg>