<svg width="80" height="76" fill="none" xmlns="http://www.w3.org/2000/svg"><path d="M43.52 0c.594 1.218 1.076 2.49 1.625 3.73 1.995 4.735 3.956 9.483 6.01 14.194 1.943 4.578 3.836 9.18 5.809 13.746 1.53 3.526 2.991 7.08 4.471 10.626-1.896 1.826-3.826 3.611-5.706 5.453-1.798-2.116-3.46-4.34-5.251-6.462-4.11-5.077-8.211-10.167-12.343-15.23-4.329 4.533-8.691 9.124-13.041 13.668-1.716 1.857-3.515 3.63-5.22 5.498-1.113 1.223-2.307 2.365-3.437 3.573-3.354 3.587-6.795 7.087-10.143 10.68-2.15 2.14-4.158 4.415-6.294 6.565 2.435-4.77 4.985-9.496 7.498-14.225 2-3.892 4.076-7.741 6.13-11.603 2.353-4.564 4.8-9.077 7.196-13.62 2.721-5.297 5.618-10.498 8.317-15.807.3-.596.569-1.156 1.15-1.534 2.28-1.556 4.504-3.189 6.772-4.766 1.781-1.237 3.57-2.466 5.323-3.746A14.23 14.23 0 0 1 43.52 0Z" fill="#fff"/><path d="M80 24.623c-.507.759-1.097 1.45-1.703 2.13-2.179 2.56-4.38 5.1-6.529 7.688a2046.49 2046.49 0 0 0-9.096 10.714c-1.548 1.808-3.086 3.626-4.626 5.442-3.123 3.62-6.176 7.303-9.3 10.925-1.777 2.072-3.49 4.197-5.296 6.242-2.28 2.643-4.463 5.36-6.78 7.968-1.879-2.69-3.546-5.529-5.369-8.256-2.496-3.755-4.832-7.618-7.37-11.343.942.688 1.77 1.492 2.655 2.249 3.095 2.752 6.28 5.397 9.341 8.187 2.194-1.975 4.253-4.089 6.43-6.08 2.342-2.264 4.711-4.496 7.063-6.75 2.142-1.956 4.177-4.022 6.309-5.99 1.88-1.842 3.81-3.627 5.706-5.454 1.489-1.41 3.012-2.783 4.457-4.238 2.78-2.651 5.6-5.262 8.344-7.948 1.447-1.367 2.933-2.694 4.331-4.12.46-.475.934-.933 1.433-1.366Z" fill="#79FFFF"/><path d="M62.672 45.155c1.485 3.476 2.967 6.953 4.414 10.448 1.819 4.321 3.695 8.623 5.509 12.945-1.885-2.21-3.672-4.507-5.52-6.752-2.986-3.752-6.068-7.426-9.029-11.199 1.54-1.816 3.078-3.634 4.626-5.442Z" fill="#fff"/></svg>