<svg width="80" height="80" fill="none" xmlns="http://www.w3.org/2000/svg"><path d="M23.296 0c7.884 5.666 16.63 9.731 25.991 12.318-4.434 6.529-8.622 13.427-10.47 21.064 4.188-4.557 6.405-10.593 9.978-15.52 2.463-3.573 6.652-6.16 10.963-6.16 3.695 0 7.39 2.464 8.5 6.036.615 1.848.246 3.819.246 5.79 2.463-2.217 3.449-5.42 4.188-8.5a237.725 237.725 0 0 0 5.543 14.043c-2.463-1.848-5.297-3.326-8.376-3.45 1.355 1.972 3.326 3.45 3.819 5.914.862 3.572-.616 7.514-3.696 9.608-3.203 2.217-7.145 3.08-10.963 2.34-6.036-.985-11.58-3.572-17.615-4.434 2.956 3.08 7.021 4.68 10.47 6.898 4.312 2.34 8.87 5.666 10.224 10.717 1.602 4.558-.862 10.1-5.42 11.579-2.463.985-5.173.123-7.514-.862-.862 1.847-1.724 3.818-3.449 4.927-3.326 2.464-8.376 1.97-11.21-.986-2.956-2.956-4.188-7.39-3.695-11.455.37-3.82 1.971-7.391 2.71-11.087-1.601 1.109-1.97 2.956-2.587 4.681-2.587 7.268-5.912 14.412-6.159 22.296-.246 1.355.247 3.203-.985 4.188-1.109.123-2.218 0-3.326 0-.493-5.912.985-11.702 3.572-16.999 3.203-6.405 6.775-12.564 9.978-18.97 1.601-2.956.985-6.652-1.232-9.115-1.97-2.094-4.68-2.957-7.268-3.942-4.804-1.725-9.608-3.45-14.535-4.928C16.644 18.108 20.832 9.24 23.296 0Z" fill="#810F26"/><path d="M4.572 39.541c-.616-3.325 1.602-7.02 5.05-7.76 1.848-.246 3.943-.246 5.544.862 1.478.863 2.094 2.464 2.956 3.819 2.587-1.725 6.16-2.34 8.746-.37 3.08 2.095 3.696 6.652 1.478 9.609-1.355 2.094-3.941 2.71-6.282 2.833.862 2.71.37 6.036-1.97 7.883-2.957 2.71-8.13 1.971-10.225-1.478-1.724-2.463-.739-5.42-.246-8.007-2.587 1.602-3.573 4.558-4.435 7.391-1.232-4.065-2.71-8.13-4.188-12.072 2.217 1.848 4.804 3.203 7.76 3.326-1.478-1.97-3.818-3.449-4.188-6.035Z" fill="#810F26"/></svg>