<svg width="80" height="80" fill="none" xmlns="http://www.w3.org/2000/svg"><path fill-rule="evenodd" clip-rule="evenodd" d="M41.838 30.972c0 1.938.296 3.864.879 5.712a21.441 21.441 0 0 1 4.991-5.646 13.102 13.102 0 0 1 8.49-12.225 4.638 4.638 0 0 0 5.543 2.411 4.533 4.533 0 0 0 3.117-3.393 4.599 4.599 0 1 0-2.737-8.778 4.454 4.454 0 0 0-4.494-.983 4.625 4.625 0 0 0-3.184 5.03 18.894 18.894 0 0 0-12.605 17.872" fill="#fff"/><mask id="a" style="mask-type:alpha" maskUnits="userSpaceOnUse" x="1" y="0" width="79" height="50"><path d="M1 0h78.612v49.967H1V0Z" fill="#fff"/></mask><g mask="url(#a)"><path fill-rule="evenodd" clip-rule="evenodd" d="M6.87 30.974V5.816h66.82v25.158c-.062 7.234-5.979 13.05-13.213 12.988a13.112 13.112 0 0 1-8.38-3.123 11.291 11.291 0 0 0-2.253 5.648c8.492 6.027 20.26 4.03 26.288-4.46a18.852 18.852 0 0 0 3.48-11.002V0H1v30.975c.003 1.937.299 3.863.877 5.711a21.19 21.19 0 0 1 4.992-5.712" fill="#fff"/></g><path fill-rule="evenodd" clip-rule="evenodd" d="M57.574 70.553a4.456 4.456 0 0 0 4.495-.983 4.597 4.597 0 0 0 2.738-8.777 4.55 4.55 0 0 0-3.118-3.395 4.614 4.614 0 0 0-5.544 2.412c-6.832-2.384-10.438-9.856-8.054-16.688 2.383-6.83 9.854-10.439 16.686-8.053a13.064 13.064 0 0 1 4.47 2.65 11.279 11.279 0 0 0 2.254-5.647c-8.53-5.97-20.287-3.892-26.257 4.639a18.863 18.863 0 0 0-3.405 10.823A19.103 19.103 0 0 0 54.39 65.403a4.612 4.612 0 0 0 3.184 5.15Zm-18.8-23.02a18.927 18.927 0 0 0-.878-5.608 21.631 21.631 0 0 1-4.993 5.647 13.102 13.102 0 0 1-8.49 12.223 4.625 4.625 0 0 0-5.542-2.409 4.558 4.558 0 0 0-3.131 3.392 4.6 4.6 0 0 0 2.751 8.78 4.455 4.455 0 0 0 4.494.982 4.613 4.613 0 0 0 3.17-5.162 18.92 18.92 0 0 0 12.619-17.844ZM26.156 13.102a4.547 4.547 0 0 0-3.17-5.149 4.691 4.691 0 0 0-4.495.983 4.6 4.6 0 1 0-2.751 8.778 4.625 4.625 0 0 0 8.674.983c6.831 2.382 10.438 9.853 8.055 16.686-2.384 6.832-9.854 10.439-16.687 8.055a13.102 13.102 0 0 1-4.47-2.652 10.304 10.304 0 0 0-2.254 5.648c8.556 5.984 20.343 3.9 26.328-4.656 5.985-8.557 3.901-20.345-4.655-26.328a18.864 18.864 0 0 0-4.575-2.348" fill="#fff"/><mask id="b" style="mask-type:alpha" maskUnits="userSpaceOnUse" x="1" y="28" width="79" height="52"><path d="M1 28.59h78.612V80H1V28.59Z" fill="#fff"/></mask><g mask="url(#b)"><path fill-rule="evenodd" clip-rule="evenodd" d="M78.735 41.925a21.225 21.225 0 0 1-4.994 5.648v25.155H6.922V47.585c.062-7.235 5.978-13.05 13.215-12.989a13.112 13.112 0 0 1 8.377 3.124 11.303 11.303 0 0 0 2.254-5.648c-8.49-6.028-20.26-4.03-26.289 4.46a18.85 18.85 0 0 0-3.479 11v32.469h78.612V47.585a19.234 19.234 0 0 0-.877-5.66" fill="#fff"/></g></svg>