<svg width="80" height="80" viewBox="0 0 80 80" fill="none" xmlns="http://www.w3.org/2000/svg">
<path d="M11.4285 74.2858V14.9599L61.5071 39.9992L33.1418 54.1819V39.9992C33.1418 38.4837 32.5398 37.0303 31.4681 35.9587C30.3965 34.887 28.9431 34.285 27.4276 34.285C25.9121 34.285 24.4586 34.887 23.387 35.9587C22.3154 37.0303 21.7133 38.4837 21.7133 39.9992V63.4291C21.7136 64.4031 21.9628 65.3609 22.4373 66.2116C22.9118 67.0622 23.5958 67.7775 24.4244 68.2895C25.253 68.8015 26.1987 69.0933 27.1717 69.1371C28.1448 69.1809 29.1128 68.9753 29.9841 68.5398L76.8403 45.1111C77.7893 44.6365 78.5874 43.907 79.1452 43.0043C79.703 42.1016 79.9985 41.0615 79.9985 40.0004C79.9985 38.9393 79.703 37.8992 79.1452 36.9965C78.5874 36.0939 77.7893 35.3644 76.8403 34.8897L8.26957 0.6032C7.39831 0.167599 6.43016 -0.0380478 5.45706 0.00579065C4.48396 0.0496291 3.53822 0.341498 2.70965 0.853677C1.88109 1.36586 1.19722 2.08134 0.722972 2.93218C0.248725 3.78302 -0.00014212 4.74098 6.08879e-08 5.71506V74.2858C6.08879e-08 75.8013 0.602034 77.2547 1.67366 78.3263C2.74528 79.398 4.19871 80 5.71422 80C7.22973 80 8.68317 79.398 9.7548 78.3263C10.8264 77.2547 11.4285 75.8013 11.4285 74.2858V74.2858Z" fill="#FF002A"/>
</svg>
