<svg xmlns="http://www.w3.org/2000/svg" width="80" height="80" style="enable-background:new 0 0 80 80" xml:space="preserve"><path d="M40.2 77.9c-10.7.1-20.4-6.3-24.6-16.1s-2-21.3 5.6-28.9 19-9.9 28.9-5.8 16.4 13.7 16.4 24.5c0 14.4-11.7 26.3-26.3 26.3zm0-50.1c-13 .1-23.5 10.7-23.5 23.7S27.2 75 40.2 75.2c13.1 0 23.7-10.6 23.7-23.7S53.3 27.8 40.2 27.8zm8 14.5c-9 .6-12.7-10.1-4.5-10.6 8.6-.6 13.3 10 4.5 10.6zm-9.7-20.1c-4.5.2-9 1.5-12.8 3.9-.6-1.8-3.1-8.6-9.6-12.3 4.6.3 8.8 2.9 11 7 0 0-2.5-10.7-1.8-18.8 5.1 6.3 9 16.5 9 16.5-.5-4.6 1.5-9.2 5.1-12-3.3 6.9-1.4 14-.9 15.7z" style="fill:#f79520"/><path d="M.1 45.5H80v26.7H.1z"/><path d="m20.1 65.1-.9 5.1H2.4L6 47.3h6L9.2 65.1h10.9zm2.2 5L26 47.2h6l-3.7 22.9h-6zm17.3 0-5.5-22.9h6.5L44 63.1l8.5-15.9H59L46 70.1h-6.4zm26.2-17.8-.6 3.9H75l-.7 4.6h-9.8l-.6 4.3h11.3l-.9 5.1H56.9l3.7-22.9h17.1l-.9 5.1h-11v-.1z" style="fill:#fff"/></svg>