<svg width="108" height="100" fill="none" xmlns="http://www.w3.org/2000/svg"><path d="M72.693 33.742V13.987c0-5.796-1.766-8.416-3.79-10.197C66.608 1.771 62.506 0 53.893 0 45.282 0 41.18 1.771 38.885 3.79c-2.024 1.78-3.79 4.4-3.79 10.197v20.152a13.877 13.877 0 0 0 4.452 10.19l5.395 4.991a1.224 1.224 0 0 0 1.815-.168l4.572-6.164a1.223 1.223 0 0 0-.153-1.628l-3.824-3.538a8.163 8.163 0 0 1-2.618-5.99v-13.7c0-4.15 1.592-5.926 2.195-6.395.693-.54 2.162-1.826 6.966-1.826 4.803 0 6.272 1.285 6.965 1.826.603.469 2.195 2.246 2.195 6.395v12.917a9.8 9.8 0 0 1-1.928 5.835L49.735 52.256a1.223 1.223 0 0 0 .153 1.628l4.006 3.716 1.612 1.492 1.059.98 1.323 1.224c.453.417 1.046.649 1.661.65h10.754a1.223 1.223 0 0 0 .83-2.117l-8.529-7.894 7.357-9.926a13.88 13.88 0 0 0 2.732-8.267ZM105.537 81.19V94.572L99.17 83.017c-.771-1.376-1.302-1.824-2.306-1.824s-1.713.694-1.713 2.08v14.74h2.25V84.63l6.366 11.555c.772 1.376 1.303 1.825 2.307 1.825 1.003 0 1.712-.694 1.712-2.08V81.19h-2.249ZM60.687 81.2h-3.085l-6.208 6.617V81.2h-2.25v16.824h2.25v-6.91l.664-.708 5.71 7.625h2.92l-7.074-9.281 7.073-7.55ZM84.138 82.21c-1.253-.826-2.688-1.01-4.102-1.01h-4.155v16.825h2.333v-5.91h1.813c1.414 0 2.849-.189 4.102-1.009 1.253-.82 2.287-2.229 2.287-4.448 0-2.22-1.043-3.63-2.278-4.448Zm-1.194 7.027c-.626.493-1.598.801-2.908.801h-1.813v-6.76h1.813c1.31 0 2.282.306 2.908.802a3.27 3.27 0 0 1 0 5.157ZM10.44 96.051c.295-.37.549-.773.757-1.198.606-1.25.603-2.685.599-3.634v-3.311c0-.946 0-2.384-.6-3.634-1.075-2.215-3-3.325-5.28-3.33H5.88c-2.28 0-4.204 1.117-5.278 3.33-.606 1.25-.603 2.685-.6 3.634v3.311c0 .946 0 2.384.6 3.634 1.078 2.219 3.006 3.33 5.293 3.33a6.001 6.001 0 0 0 2.57-.548l1.81 2.365h3.187l-3.02-3.949Zm-.903-4.726c0 .77.01 1.82-.378 2.613-.405.835-1.374 2.1-3.267 2.102-1.892.002-2.862-1.267-3.268-2.102-.406-.836-.378-2.027-.378-2.798v-3.145c0-.77-.03-1.963.378-2.798.408-.836 1.376-2.1 3.268-2.1 1.893 0 2.862 1.264 3.267 2.1.404.835.378 2.028.378 2.797v3.331ZM39.646 83.923c1.54-1.16 3.297-1.28 6.006-.65v-1.556s-1.343-.773-3.471-.773-3.372.55-4.361 1.43c-1.134 1.004-1.996 2.607-2.246 5.105a23.04 23.04 0 0 0 0 4.292c.25 2.492 1.12 4.095 2.246 5.104.989.881 2.215 1.43 4.361 1.43s3.47-.772 3.47-.772v-1.558c-2.708.632-4.464.51-6.005-.648-1.569-1.181-1.88-3.384-1.89-5.695-.01-2.312.321-4.528 1.89-5.71ZM69.279 82.912c1.148.047 2.292.167 3.425.357v-1.813a14.95 14.95 0 0 0-4.546-.492c-.892.033-1.78.155-2.647.367-1.236.318-1.924.907-2.306 1.486a2.77 2.77 0 0 0-.287 2.491c.024.074.053.15.085.223.437 1.123 1.098 1.985 2.036 3 1.005 1.09 3.09 3.038 3.97 4.085.544.671 1.187 1.566.867 2.337-.35.845-1.9 1.43-3.728 1.378a30.886 30.886 0 0 1-3.425-.354v1.802s1.424.627 4.546.503c3.123-.125 4.36-.96 4.95-1.853a3.433 3.433 0 0 0 .483-1.633v-.047c0-.095 0-.19-.011-.288-.046-.865-.223-1.512-1.323-2.786-1.237-1.423-3.448-3.522-4.446-4.558l-.273-.287c-.73-.782-1.529-1.758-1.156-2.688.39-.981 2.132-1.265 3.786-1.23ZM32.395 81.199h-2.333v16.833h2.333V81.2ZM91.641 81.172H89.31v16.834h2.332V81.172ZM17.221 81.2h-2.25v11.03c0 1.974.666 6.06 5.727 6.06 5.06 0 5.725-4.086 5.725-6.06V81.2h-2.25v11.03c0 3.519-2.41 3.97-3.475 3.97-1.067 0-3.477-.455-3.477-3.97V81.2Z" fill="#FF7800"/></svg>