<svg width="73" height="80" viewBox="0 0 73 80" fill="none" xmlns="http://www.w3.org/2000/svg">
<path d="M36.3936 79.9851C34.6882 79.8921 32.9881 79.799 31.2879 79.706C29.288 79.6027 27.2881 79.4993 25.2882 79.3804C25.1591 79.3753 25.0195 79.2719 24.9007 79.1789C20.7614 75.7424 16.6272 72.3007 12.4931 68.8643C10.7154 67.3811 8.9326 65.898 7.15493 64.4097C7.02573 64.3012 6.90171 64.1152 6.8397 63.924C5.60463 60.2084 4.35405 56.498 3.16032 52.7515C2.7159 51.3562 2.41618 49.8783 2.06478 48.4262C1.38264 45.6046 0.721185 42.7779 0.0390538 39.9564C-0.0229582 39.698 -0.00745867 39.4964 0.0597209 39.2536C0.509308 37.7291 0.958895 36.2046 1.39298 34.6698C3.14998 28.4945 4.90182 22.3243 6.65883 16.1489C6.7105 15.9577 6.78285 15.7717 6.81386 15.5753C6.89137 15.1154 7.13426 14.8932 7.41331 14.6968C7.51149 14.6297 7.60451 14.5418 7.69752 14.4591C10.5811 11.865 13.444 9.22427 16.3534 6.67662C17.5523 5.62241 18.8338 4.75942 20.0792 3.80857C21.6916 2.589 23.309 1.37977 24.9265 0.175706C25.0402 0.0878562 25.1797 0.0413422 25.3089 0.0413422C32.6522 0.0206716 40.0006 0.00516766 47.3438 0C47.4524 0 47.566 0.041347 47.6591 0.118862C50.7183 2.40814 53.7879 4.67673 56.8265 7.01769C57.8393 7.798 58.7747 8.76952 59.7359 9.66353C61.6893 11.4722 63.6478 13.2861 65.596 15.1051C65.7149 15.2136 65.8234 15.3996 65.8802 15.5857C68.092 23.2855 70.2986 30.9956 72.5052 38.7006C72.5155 38.7316 72.5155 38.7626 72.5258 38.7885C72.8772 39.3776 72.7171 39.9615 72.562 40.592C71.5957 44.4832 70.681 48.3951 69.6888 52.2812C69.3322 53.6817 68.8258 55.0253 68.3814 56.3844C67.5494 58.9113 66.7071 61.4332 65.8802 63.9601C65.7976 64.2082 65.689 64.3736 65.5237 64.5131C59.8031 69.2725 54.0773 74.0267 48.3619 78.812C47.8709 79.2254 47.3903 79.4321 46.8219 79.4528C45.1476 79.5148 43.4784 79.6182 41.8041 79.7112C40.1866 79.8042 38.5691 79.9024 36.9465 79.9954C36.7656 80.0057 36.5899 79.9954 36.4091 79.9954C36.3936 79.9954 36.3936 79.9902 36.3936 79.9851ZM47.3645 56.3637C49.5763 59.8518 51.7725 63.309 53.9739 66.7765C54.0049 66.7352 54.0256 66.7093 54.0463 66.6732C54.7388 65.3347 55.4261 63.9963 56.1134 62.6579C56.1547 62.5804 56.1857 62.4719 56.1909 62.3788C56.227 61.7742 56.2529 61.1748 56.2839 60.5702C56.3821 58.715 56.4803 56.8495 56.5784 54.9891C56.6301 54.0848 56.6715 53.1752 56.718 52.2399C56.6249 52.2657 56.5526 52.2761 56.4803 52.2967C54.2478 53.0047 52.0206 53.7127 49.7881 54.4206C49.7261 54.4413 49.6538 54.4568 49.6021 54.5085C48.858 55.1183 48.1293 55.7332 47.3645 56.3637ZM16.033 52.2295C16.0846 53.1752 16.1208 54.0641 16.1725 54.9477C16.3017 57.3765 16.4257 59.8157 16.5601 62.2445C16.5704 62.415 16.6169 62.6062 16.6893 62.7509C17.3301 64.0118 17.976 65.2676 18.6271 66.5233C18.6736 66.6112 18.7201 66.6938 18.777 66.792C20.9888 63.309 23.185 59.8467 25.3916 56.374C24.6268 55.7384 23.8878 55.1234 23.1488 54.5085C23.0972 54.4671 23.0248 54.4516 22.9576 54.431C21.304 53.9039 19.6452 53.3716 17.9915 52.8497C17.3404 52.6378 16.6996 52.4414 16.033 52.2295ZM13.506 43.3205C13.5887 43.212 13.6455 43.1293 13.7024 43.0518C15.0098 41.1708 16.3172 39.2794 17.6349 37.4139C17.9502 36.9695 18.1879 36.4992 18.3326 35.9153C18.5186 35.1814 18.7357 34.4683 18.9475 33.7138C15.3663 32.3806 11.8058 31.0576 8.21946 29.7244C8.34349 31.254 8.46234 32.732 8.5967 34.2048C8.61737 34.4425 8.70005 34.6957 8.8034 34.8869C9.88861 36.8558 10.9842 38.8091 12.0745 40.7729C12.55 41.61 13.0254 42.4523 13.506 43.3205ZM59.2088 43.3412C59.2656 43.2637 59.2811 43.243 59.2915 43.2171C60.8728 40.3749 62.4592 37.5379 64.0406 34.6957C64.0871 34.6078 64.1181 34.4993 64.1284 34.396C64.1852 33.8017 64.2369 33.1971 64.2834 32.5976C64.3661 31.6571 64.4385 30.7114 64.5211 29.7141C60.9296 31.0473 57.3691 32.3702 53.7931 33.7035C54.0825 34.7112 54.3512 35.6879 54.6302 36.6542C54.6561 36.7524 54.7233 36.8403 54.7801 36.9178C56.2064 38.9745 57.6378 41.0261 59.0641 43.0828C59.1106 43.1603 59.1571 43.243 59.2088 43.3412ZM53.39 67.2209C51.1782 63.7328 48.9975 60.2911 46.8012 56.8339C46.0106 57.4902 45.2303 58.1362 44.4551 58.7925C44.4034 58.8442 44.3569 58.9165 44.3156 58.9889C43.065 61.1541 41.8093 63.3245 40.5587 65.4949C40.5277 65.5466 40.507 65.6035 40.476 65.6758C40.5432 65.7017 40.5949 65.7275 40.6465 65.7378C43.4526 66.575 46.2586 67.4121 49.0698 68.2338C49.1784 68.2648 49.292 68.2648 49.4006 68.239C50.3462 68.0064 51.2919 67.7584 52.2376 67.5207C52.6149 67.4225 52.9869 67.3243 53.39 67.2209ZM32.2801 65.6758C32.2491 65.6086 32.2336 65.5776 32.2181 65.5466C30.9468 63.3452 29.6756 61.1438 28.4043 58.9475C28.3682 58.8855 28.3268 58.8183 28.2803 58.7822C27.5103 58.1362 26.7404 57.4954 25.9549 56.8391C23.7638 60.2963 21.5779 63.7431 19.3764 67.2158C19.454 67.2468 19.4901 67.2675 19.5263 67.2778C20.6787 67.5723 21.8311 67.8669 22.9835 68.1511C23.2315 68.2131 23.4951 68.2906 23.7276 68.2235C26.1099 67.5413 28.487 66.8282 30.8642 66.1202C31.3189 65.9652 31.7892 65.8257 32.2801 65.6758ZM46.393 15.9112C46.3258 15.813 46.2793 15.7407 46.2379 15.6787C44.4293 13.162 42.6206 10.6402 40.8067 8.12356C40.7344 8.02538 40.6414 7.94269 40.5484 7.89619C39.3443 7.29157 38.1351 6.69729 36.931 6.09268C36.8741 6.06167 36.8121 6.041 36.7398 6.02033C36.7398 10.2992 36.7398 14.547 36.7398 18.8206C36.8328 18.8206 36.9155 18.8206 36.993 18.8206C37.7888 18.8206 38.595 18.8258 39.3908 18.8155C39.5303 18.8155 39.675 18.7845 39.8094 18.7276C40.8584 18.2832 41.9023 17.8336 42.9462 17.3892C44.083 16.8983 45.2199 16.4125 46.393 15.9112ZM36.0112 18.8206C36.0112 14.5315 36.0112 10.2888 36.0112 6.01516C35.9233 6.05133 35.851 6.08234 35.7838 6.11334C34.6159 6.69212 33.4583 7.2709 32.2956 7.86002C32.1457 7.93753 31.9855 8.06672 31.8718 8.22692C30.12 10.6505 28.3733 13.0845 26.6267 15.5082C26.5388 15.6322 26.42 15.7045 26.3114 15.8027C26.4406 15.9371 26.5078 15.9681 26.5698 15.9939C28.5697 16.8569 30.5696 17.7096 32.5695 18.5726C32.7659 18.6604 32.9674 18.8 33.1689 18.8051C34.1095 18.831 35.0551 18.8206 36.0112 18.8206ZM64.2886 28.8511C64.1801 28.7322 64.1129 28.6702 64.0561 28.5978C63.2602 27.5695 62.4747 26.5359 61.6738 25.5231C61.5549 25.368 61.3999 25.2389 61.2448 25.1665C59.1571 24.2208 57.0642 23.2803 54.9765 22.3346C54.3253 22.0453 53.6742 21.7507 53.0076 21.4561C52.9973 21.606 52.9869 21.7249 52.9818 21.8489C52.8887 24.3035 52.7957 26.7582 52.6924 29.2128C52.6769 29.6004 52.7182 29.9569 52.8267 30.3135C53.0386 31.0163 53.2298 31.7243 53.4313 32.4271C53.4727 32.5666 53.514 32.7061 53.5554 32.8457C57.1262 31.5227 60.6661 30.1998 64.2886 28.8511ZM19.1956 32.8508C19.485 31.838 19.764 30.8561 20.0379 29.8743C20.0689 29.7657 20.0586 29.6365 20.0534 29.5125C19.9707 27.3679 19.8932 25.2182 19.8105 23.0684C19.795 22.5413 19.764 22.0091 19.7434 21.4716C19.671 21.4975 19.6297 21.513 19.5883 21.5336C16.8546 22.7635 14.1158 23.9934 11.3872 25.2285C11.2942 25.2699 11.2012 25.3577 11.1289 25.4559C10.3072 26.5153 9.48554 27.5798 8.66905 28.6444C8.61737 28.7115 8.57087 28.7839 8.50369 28.8821C12.0849 30.205 15.6299 31.5227 19.1956 32.8508ZM36.745 41.0002C36.745 45.5943 36.745 50.116 36.745 54.6377C39.6233 54.6377 42.4914 54.6377 45.3956 54.6377C42.5069 50.0798 39.6388 45.5633 36.745 41.0002ZM27.3501 54.6429C30.2647 54.6429 33.1328 54.6429 35.9956 54.6429C35.9956 50.1056 35.9956 45.5839 35.9956 41.0106C33.1018 45.5684 30.2389 50.085 27.3501 54.6429ZM36.7346 21.5181C36.7346 27.1561 36.7346 32.7475 36.7346 38.4112C39.0911 34.7008 41.4113 31.0422 43.7471 27.3576C41.401 25.4094 39.0807 23.4715 36.7346 21.5181ZM36.0215 38.4216C36.0215 32.7423 36.0215 27.1509 36.0215 21.513C33.6702 23.4715 31.3447 25.3991 28.9986 27.3576C31.3344 31.0422 33.6599 34.7008 36.0215 38.4216ZM46.0261 54.2346C46.9252 51.0617 47.8089 47.9352 48.7029 44.7985C44.9254 43.398 41.1788 41.9976 37.3651 40.5765C40.2693 45.1654 43.1322 49.6716 46.0261 54.2346ZM26.7197 54.2346C29.6136 49.6767 32.4713 45.1705 35.3342 40.654C35.3239 40.6333 35.3187 40.623 35.3135 40.6023C31.567 41.9976 27.8101 43.3929 24.0428 44.7985C24.9368 47.9456 25.8205 51.0617 26.7197 54.2346ZM21.4073 33.6725C26.0686 35.4088 30.673 37.1193 35.2773 38.835C35.2877 38.8091 35.298 38.7936 35.3083 38.7678C33.0036 35.1349 30.6988 31.4969 28.3888 27.864C26.0686 29.7967 23.7586 31.7191 21.4073 33.6725ZM44.3569 27.8589C42.047 31.5021 39.7422 35.1298 37.4426 38.7626C37.4529 38.7885 37.4633 38.804 37.4736 38.8298C42.078 37.1141 46.6824 35.4037 51.3384 33.6673C48.9871 31.7191 46.6824 29.7967 44.3569 27.8589ZM34.988 39.7341C34.988 39.7135 34.9931 39.698 34.9931 39.6721C30.3836 37.9565 25.7792 36.246 21.1231 34.5096C22.0223 37.6826 22.9008 40.7832 23.7845 43.8941C27.5413 42.5092 31.2672 41.1242 34.988 39.7341ZM37.7526 39.6721C37.7526 39.6928 37.7527 39.7083 37.7475 39.7341C41.4785 41.1242 45.2096 42.5144 48.951 43.9045C49.8398 40.778 50.7183 37.6774 51.6123 34.52C46.9563 36.246 42.357 37.9616 37.7526 39.6721ZM66.4435 31.8948C65.9009 32.8715 65.3738 33.812 64.8519 34.7629C64.8002 34.8559 64.7744 34.9851 64.764 35.0988C64.6503 36.4113 64.5418 37.7239 64.4385 39.0365C64.2834 40.9175 64.1232 42.7986 63.9682 44.6848C63.8597 45.9819 63.7512 47.2841 63.6426 48.6225C63.7046 48.5657 63.7512 48.5347 63.7925 48.4933C65.3841 46.7673 66.9809 45.0362 68.5674 43.2998C68.6243 43.2327 68.6708 43.0776 68.6656 42.9691C68.6449 42.2456 68.6036 41.517 68.5726 40.7935C68.4744 38.7575 68.3762 36.7266 68.2677 34.6905C68.2625 34.5872 68.247 34.458 68.1953 34.3805C67.6217 33.5588 67.043 32.7475 66.4435 31.8948ZM9.1083 48.6535C9.05663 48.0334 9.01528 47.4856 8.96877 46.9379C8.65355 43.1861 8.33832 39.4344 8.03859 35.6775C7.99208 35.1298 7.87323 34.6698 7.61485 34.2358C7.1911 33.5485 6.81386 32.8095 6.41078 32.0963C6.37461 32.0343 6.33843 31.9775 6.29192 31.9103C5.70281 32.7475 5.12403 33.564 4.55559 34.3908C4.50908 34.4528 4.49358 34.5768 4.48841 34.6698C4.34888 37.4397 4.21452 40.2044 4.0905 42.9794C4.08533 43.1035 4.15251 43.2688 4.22485 43.3463C5.27906 44.5039 6.3436 45.6511 7.3978 46.8035C7.95591 47.403 8.50885 48.0076 9.1083 48.6535ZM56.6973 66.2288C57.6223 65.9394 58.5112 65.6706 59.4052 65.3813C59.4878 65.3554 59.5602 65.2572 59.617 65.1797C61.126 63.0713 62.6194 60.9526 64.1336 58.8493C64.2679 58.6633 64.2886 58.4979 64.2524 58.2602C63.9785 56.6376 63.7202 55.0046 63.4566 53.3768C63.3222 52.5551 63.1879 51.7283 63.0432 50.8601C62.9967 50.9325 62.976 50.9687 62.9553 51.0152C60.9555 54.8961 58.9556 58.777 56.9557 62.6579C56.9195 62.7302 56.8782 62.8181 56.873 62.9059C56.811 63.9911 56.7541 65.0867 56.6973 66.2288ZM9.71808 50.8653C9.69741 50.9531 9.68191 51.0048 9.67158 51.0617C9.27883 53.5111 8.87575 55.9554 8.48818 58.4049C8.47267 58.5238 8.52435 58.6995 8.58636 58.7925C10.0953 60.9267 11.6094 63.0558 13.1236 65.1745C13.2063 65.2934 13.3251 65.3812 13.444 65.4226C13.9039 65.5828 14.3586 65.712 14.8186 65.8515C15.2216 65.9755 15.6247 66.0996 16.0485 66.2184C15.9916 65.1487 15.9399 64.1255 15.8779 63.1126C15.8624 62.9214 15.8211 62.7096 15.7384 62.5545C13.7902 58.7511 11.8265 54.9529 9.87311 51.1547C9.83177 51.0668 9.78009 50.9842 9.71808 50.8653ZM53.9946 14.1956C53.9791 14.2317 53.9584 14.2679 53.9429 14.2989C53.9946 14.3299 54.0463 14.3506 54.0825 14.3971C56.6249 17.6889 59.1674 20.9859 61.7099 24.2777C61.7926 24.381 61.9011 24.4689 62.0148 24.5154C62.8416 24.8978 63.6685 25.2647 64.5005 25.6419C64.5676 25.6729 64.6348 25.6936 64.7175 25.7195C64.7278 25.5851 64.7382 25.4869 64.7433 25.3836C64.7795 24.5361 64.8209 23.6834 64.8415 22.8359C64.8467 22.6654 64.8002 22.4483 64.7227 22.314C63.4876 20.0919 62.2319 17.8904 60.9968 15.658C60.8004 15.3014 60.5834 15.1723 60.2785 15.1309C58.5422 14.8829 56.8058 14.6141 55.0695 14.3558C54.7129 14.2938 54.3512 14.2472 53.9946 14.1956ZM8.02309 25.7246C8.12644 25.6833 8.20913 25.6574 8.27631 25.6213C9.08246 25.2595 9.89379 24.903 10.6999 24.5257C10.8343 24.4637 10.9738 24.3552 11.0772 24.2157C13.6042 20.9549 16.1156 17.6889 18.6375 14.4229C18.684 14.3609 18.7202 14.2938 18.7822 14.2162C18.6891 14.2162 18.622 14.2111 18.5548 14.2162C16.4257 14.5366 14.2966 14.857 12.1676 15.1878C12.0797 15.1981 11.9712 15.2859 11.9143 15.3841C10.6018 17.7096 9.28917 20.035 7.98692 22.3656C7.93524 22.4587 7.89907 22.6034 7.90424 22.7222C7.91974 23.2958 7.94557 23.8643 7.96625 24.4379C7.97658 24.8668 8.00242 25.2802 8.02309 25.7246ZM39.2564 4.55788C39.2358 4.59922 39.2151 4.6509 39.1944 4.69224C39.7784 5.45705 40.3623 6.2167 40.9514 6.97634C41.06 7.1107 41.184 7.23473 41.3183 7.30191C44.8582 9.07442 48.4084 10.8314 51.9534 12.5988C52.0206 12.6298 52.0877 12.6556 52.1859 12.6969C52.1498 12.5988 52.1342 12.5419 52.1136 12.4954C51.1989 10.294 50.2842 8.08739 49.3592 5.8808C49.3075 5.75678 49.1732 5.65342 49.0647 5.62242C46.7185 4.90411 44.3776 4.19614 42.0315 3.48817C41.9488 3.46233 41.8454 3.43133 41.7679 3.4675C40.9256 3.81891 40.0936 4.18581 39.2564 4.55788ZM20.5495 12.6969C20.6477 12.6453 20.6942 12.6349 20.7355 12.6091C24.3219 10.8263 27.9134 9.04341 31.4946 7.25023C31.5876 7.19855 31.6806 7.12104 31.7478 7.02286C32.2904 6.27871 32.8279 5.52424 33.3705 4.76976C33.417 4.70775 33.4532 4.64056 33.51 4.55271C32.647 4.17547 31.8098 3.80857 30.9727 3.44683C30.9003 3.41582 30.8073 3.4365 30.7298 3.45717C28.3733 4.1703 26.0117 4.88344 23.6553 5.59658C23.5106 5.63792 23.4279 5.73094 23.3555 5.91181C22.4667 8.06672 21.5727 10.2165 20.6735 12.3714C20.6425 12.4592 20.6115 12.5471 20.5495 12.6969ZM37.4891 72.2077C37.577 72.2697 37.608 72.2956 37.639 72.3163C39.52 73.4842 41.401 74.6572 43.282 75.8199C43.3751 75.8819 43.5146 75.8819 43.6179 75.8406C45.8969 74.8381 48.1758 73.8304 50.4496 72.8072C50.5633 72.7555 50.6718 72.6418 50.7442 72.5178C51.1576 71.815 51.5555 71.1019 51.9586 70.3887C52.0102 70.3112 52.0516 70.2234 52.1136 70.1045C51.3126 69.8668 50.5375 69.6704 49.783 69.4017C49.3437 69.2467 48.9251 69.2725 48.4807 69.3914C45.5506 70.1562 42.6154 70.89 39.6802 71.6341C38.9774 71.8305 38.2591 72.0114 37.4891 72.2077ZM35.2618 72.2232C35.143 72.1871 35.0861 72.1612 35.0293 72.1509C31.4171 71.2362 27.8101 70.3164 24.203 69.3914C23.7793 69.2828 23.3865 69.2725 22.968 69.4224C22.3892 69.6239 21.8001 69.7738 21.2213 69.9443C21.0301 70.0011 20.8389 70.0683 20.627 70.1355C21.0973 70.9675 21.5469 71.7581 22.0016 72.5488C22.074 72.6728 22.1877 72.7814 22.3013 72.833C24.5596 73.8459 26.8282 74.8432 29.0865 75.8509C29.2415 75.9181 29.3655 75.913 29.5102 75.8199C30.6885 75.0758 31.8719 74.342 33.0501 73.6133C33.7684 73.1482 34.4919 72.7038 35.2618 72.2232ZM23.5519 20.2417C23.5106 20.3761 23.4796 20.4639 23.4537 20.557C22.6786 23.2803 21.9189 26.014 21.1283 28.727C20.8802 29.5694 20.7097 30.3962 20.8079 31.3109C20.8596 31.8018 20.8492 32.3134 20.8647 32.8095C20.8647 32.8663 20.8751 32.9283 20.8854 33.0317C23.247 31.0628 25.5828 29.1198 27.9393 27.1561C26.482 24.8513 25.0247 22.5568 23.5519 20.2417ZM51.8707 33.042C51.9069 32.0085 51.9482 31.0422 51.9792 30.0706C51.9844 29.9828 51.9482 29.8898 51.9276 29.8071C51.049 26.7065 50.1705 23.611 49.292 20.5208C49.2714 20.4433 49.2404 20.3606 49.199 20.2521C47.7262 22.5724 46.2741 24.8616 44.8117 27.1664C47.1578 29.1146 49.4884 31.0577 51.8707 33.042ZM49.6124 44.1473C51.9844 45.031 54.3409 45.9043 56.7283 46.7983C56.687 46.6433 56.6663 46.54 56.6353 46.4366C55.9273 43.9406 55.1883 41.4601 54.5217 38.9383C54.1858 37.6567 53.7259 36.5354 52.9818 35.6362C52.744 35.352 52.5425 35.0109 52.3048 34.6698C51.4004 37.848 50.5116 40.9796 49.6124 44.1473ZM16.0071 46.7983C18.4049 45.9043 20.7562 45.0258 23.1333 44.1473C22.2342 40.9796 21.3453 37.8428 20.441 34.6698C19.8777 35.4812 19.3403 36.2563 18.7977 37.0366C18.746 37.109 18.7253 37.2175 18.6995 37.3054C18.162 39.2019 17.6246 41.0984 17.0872 42.9949C16.7306 44.2455 16.3792 45.4961 16.0071 46.7983ZM56.4389 47.6717C54.0618 46.788 51.7208 45.9198 49.3644 45.0413C48.4756 48.1781 47.5919 51.289 46.6979 54.4465C46.8167 54.4206 46.8787 54.4103 46.9408 54.3845C47.4989 54.2139 48.057 54.0176 48.6203 53.8625C49.0647 53.7385 49.4626 53.506 49.8553 53.1804C51.9689 51.4027 54.0876 49.6509 56.2115 47.8836C56.2684 47.8319 56.3356 47.7647 56.4389 47.6717ZM16.3069 47.682C16.4205 47.7802 16.4929 47.8422 16.5601 47.9042C18.6788 49.6716 20.7975 51.4234 22.9111 53.2011C23.2987 53.5266 23.6966 53.7695 24.1462 53.878C24.4614 53.9555 24.7715 54.0744 25.0815 54.1726C25.3916 54.2708 25.7017 54.3638 26.0479 54.4672C26.0117 54.3276 25.9962 54.2398 25.9704 54.1519C25.1384 51.2064 24.2961 48.266 23.4692 45.3152C23.4124 45.1137 23.3504 45.0568 23.1953 45.1189C21.7174 45.677 20.2291 46.2247 18.746 46.7777C17.9398 47.0722 17.144 47.3668 16.3069 47.682ZM36.745 55.5834C36.745 58.4153 36.745 61.2265 36.745 64.0635C36.8328 63.9963 36.9052 63.9446 36.9723 63.8878C38.9567 62.2393 40.9256 60.5547 42.9255 58.9475C43.7058 58.3222 44.3879 57.5936 44.8892 56.5549C45.0442 56.2293 45.2458 55.9348 45.4473 55.5834C42.5224 55.5834 39.644 55.5834 36.745 55.5834ZM27.2933 55.5834C27.7429 56.3585 28.1563 57.082 28.5749 57.8055C28.6421 57.9243 28.7247 58.0277 28.8229 58.1052C31.1535 60.0482 33.4893 61.9913 35.8251 63.9343C35.8768 63.9757 35.9388 64.0118 35.9956 64.0583C35.9956 61.2161 35.9956 58.4049 35.9956 55.5885C33.1018 55.5834 30.2234 55.5834 27.2933 55.5834ZM44.1916 26.6548C45.6385 24.3707 47.0751 22.1073 48.5531 19.7766C48.4032 19.7766 48.3154 19.7766 48.2327 19.7766C45.5765 19.7766 42.9255 19.7818 40.2745 19.7715C39.8145 19.7715 39.3753 19.8438 38.936 20.0557C38.3728 20.3244 37.794 20.5518 37.179 20.8205C39.5303 22.7739 41.8454 24.7014 44.1916 26.6548ZM24.1927 19.7766C25.6758 22.1124 27.1124 24.3759 28.5542 26.6548C30.89 24.7118 33.2103 22.7791 35.5564 20.8257C35.4737 20.7843 35.4169 20.7533 35.3652 20.7275C34.6986 20.4381 34.0268 20.1487 33.355 19.8748C33.2206 19.818 33.0759 19.787 32.9364 19.787C30.12 19.7818 27.3036 19.7818 24.4821 19.7818C24.4149 19.7766 24.3322 19.7766 24.1927 19.7766ZM62.945 48.669C63.2912 44.5556 63.6271 40.5145 63.963 36.4785C63.9475 36.4734 63.9269 36.4682 63.9114 36.4527C62.5109 38.9642 61.1105 41.4705 59.7049 43.9975C60.7746 45.5478 61.8391 47.0774 62.945 48.669ZM9.80593 48.669C10.9066 47.0877 11.9712 45.5581 13.0461 44.0078C11.6405 41.4808 10.2349 38.9642 8.83442 36.4475C8.81891 36.4579 8.80341 36.4682 8.78274 36.4785C9.1238 40.5145 9.4597 44.5504 9.80593 48.669ZM10.333 50.4209C12.1469 53.9452 13.9297 57.4024 15.7126 60.8647C15.7281 60.8544 15.7487 60.8441 15.7642 60.8337C15.6092 57.8882 15.4542 54.9426 15.2992 51.997C13.6455 51.4751 12.0177 50.9583 10.333 50.4209ZM56.9815 60.8389C56.997 60.844 57.0229 60.8492 57.0384 60.8595C58.816 57.4024 60.5989 53.9452 62.4127 50.426C60.7281 50.9635 59.0951 51.4802 57.4466 52.0022C57.2916 54.9477 57.1366 57.8985 56.9815 60.8389ZM19.485 14.6141C17.1388 17.6579 14.8341 20.65 12.5241 23.6369C12.5861 23.6731 12.6223 23.6679 12.6533 23.6576C14.9478 22.624 17.2474 21.5853 19.5418 20.557C19.6813 20.495 19.7072 20.4019 19.6968 20.2262C19.64 18.8103 19.5883 17.4047 19.5366 15.9887C19.5263 15.5495 19.5056 15.1154 19.485 14.6141ZM60.1855 23.6989C60.1958 23.6782 60.2061 23.6576 60.2165 23.6369C57.9117 20.65 55.6018 17.6579 53.266 14.6245C53.2505 14.7795 53.2453 14.857 53.2401 14.9397C53.173 16.6812 53.1161 18.4227 53.0386 20.1539C53.0283 20.4123 53.0903 20.5053 53.2608 20.5776C54.9713 21.3424 56.6766 22.1073 58.3871 22.8772C58.9866 23.1511 59.586 23.425 60.1855 23.6989ZM30.4559 8.84187C30.4456 8.81603 30.4404 8.80053 30.4249 8.77469C27.2468 10.356 24.0687 11.9373 20.8389 13.5393C22.3995 14.2111 23.893 14.8415 25.3864 15.4978C25.5518 15.5702 25.65 15.5392 25.774 15.3686C26.8282 13.8855 27.8928 12.4179 28.947 10.9399C29.4534 10.2475 29.9546 9.54467 30.4559 8.84187ZM51.8397 13.5703C51.8397 13.5496 51.8397 13.5289 51.8397 13.5083C48.6667 11.927 45.4886 10.3508 42.3105 8.76952C42.295 8.80053 42.2744 8.8367 42.2589 8.86771C42.3829 9.02274 42.5172 9.16743 42.6413 9.3328C44.0934 11.3482 45.5455 13.3791 47.0028 15.3893C47.0596 15.4668 47.1888 15.5443 47.2612 15.5133C48.7959 14.8829 50.3152 14.2266 51.8397 13.5703ZM37.179 71.3551C40.6207 70.4766 43.9952 69.6187 47.3645 68.7609C47.3128 68.6937 47.2611 68.6679 47.2095 68.6575C44.853 67.9547 42.5017 67.2623 40.1453 66.5543C40.0058 66.513 39.9282 66.575 39.8456 66.7145C39.1841 67.8669 38.5226 69.0141 37.8612 70.1613C37.6493 70.5386 37.4323 70.9106 37.179 71.3551ZM25.3761 68.7041C25.3761 68.7247 25.3761 68.7402 25.3761 68.7609C28.7506 69.6239 32.1302 70.4817 35.5461 71.3499C35.4995 71.2569 35.4892 71.2207 35.4737 71.1897C34.6107 69.6962 33.7477 68.208 32.8899 66.7042C32.7814 66.5181 32.6832 66.5233 32.5436 66.5698C30.9107 67.0556 29.2777 67.5413 27.6447 68.0219C26.8902 68.2493 26.1357 68.4767 25.3761 68.7041ZM22.5597 5.96349C22.4925 5.96865 22.4512 5.96865 22.4202 5.98415C20.8544 6.45958 19.2834 6.9195 17.728 7.42593C17.3869 7.53446 17.0717 7.81867 16.7203 8.03571C17.7538 9.65836 18.7357 11.2035 19.7382 12.7848C20.6839 10.4904 21.614 8.24759 22.5597 5.96349ZM50.1757 5.94798C51.1369 8.25276 52.0671 10.5059 53.0128 12.79C54.0205 11.1983 55.0023 9.65319 56.0255 8.04088C55.6896 7.82384 55.4002 7.55512 55.0902 7.45177C53.9843 7.07453 52.8681 6.7593 51.7519 6.41823C51.2403 6.25804 50.7286 6.11335 50.1757 5.94798ZM63.6633 50.364C64.0716 52.8548 64.4695 55.3043 64.8829 57.852C64.9759 57.6918 65.0224 57.5988 65.0792 57.5212C66.0559 56.1415 67.0326 54.7514 68.0248 53.3923C68.278 53.046 68.3659 52.6171 68.5054 52.1675C66.8879 51.5629 65.2911 50.9635 63.6633 50.364ZM7.79055 57.821C7.82155 57.79 7.85255 57.759 7.88356 57.7279C8.28147 55.2836 8.67938 52.8393 9.08763 50.3589C7.44431 50.9686 5.85268 51.5629 4.25587 52.1572C4.37989 52.674 4.52458 53.1081 4.79847 53.4853C5.76999 54.8134 6.72084 56.1725 7.68202 57.5264C7.72853 57.6091 7.75437 57.7228 7.79055 57.821ZM68.7328 44.2765C67.1205 46.0284 65.5392 47.7389 63.9372 49.4804C65.5702 50.0901 67.1618 50.6793 68.7431 51.2684C69.0429 50.395 69.0428 50.395 68.986 49.4907C68.9602 49.0618 68.9447 48.638 68.924 48.204C68.862 46.9224 68.8 45.6356 68.7328 44.2765ZM4.01815 44.2869C4.00782 44.3954 4.00265 44.4471 4.00265 44.4936C3.91997 46.2506 3.84245 48.0076 3.7391 49.7646C3.7081 50.3175 3.84245 50.7774 4.00265 51.2787C5.59946 50.6844 7.18593 50.0901 8.81374 49.4804C7.20143 47.7337 5.63046 46.0335 4.01815 44.2869ZM60.1648 14.1852C59.2553 12.5678 58.3871 11.0381 57.5293 9.493C57.2761 9.03824 56.904 8.86771 56.5836 8.55765C55.5966 10.1131 54.6302 11.6376 53.6329 13.2137C55.8136 13.5444 57.9582 13.8597 60.1648 14.1852ZM19.1232 13.2137C18.1207 11.6272 17.144 10.0976 16.1518 8.52664C15.8521 8.8212 15.511 9.03824 15.2992 9.39481C14.4155 10.8883 13.5732 12.4282 12.7153 13.9527C12.6843 14.0147 12.6585 14.0767 12.6068 14.1852C14.7876 13.8597 16.927 13.5444 19.1232 13.2137ZM42.5017 76.347C40.5535 75.1275 38.657 73.9492 36.745 72.7555C36.745 74.6882 36.745 76.5899 36.745 78.4658C37.086 78.4658 37.4374 78.5691 37.7371 78.4451C39.3133 77.7888 40.8739 77.0757 42.5017 76.347ZM36.006 72.7555C34.0836 73.9544 32.1871 75.1378 30.2544 76.347C30.3629 76.3987 30.4249 76.4245 30.4869 76.4555C31.9184 77.0912 33.3498 77.7165 34.7812 78.3676C35.1895 78.5536 35.5874 78.4761 36.006 78.4968C36.006 76.5847 36.006 74.6882 36.006 72.7555ZM71.9161 39.667C70.9497 38.2975 69.9989 36.9488 69.017 35.5535C69.1307 37.8945 69.2392 40.1424 69.3529 42.4523C70.2314 41.4963 71.0582 40.592 71.9161 39.667ZM3.7236 35.6414C3.7081 35.6362 3.69259 35.6207 3.67708 35.6155C2.7314 36.9539 1.78572 38.3027 0.829705 39.6618C1.6927 40.5972 2.52469 41.5015 3.39286 42.442C3.50655 40.1321 3.61508 37.8893 3.7236 35.6414ZM7.81639 21.0841C8.90676 19.1462 9.9558 17.2807 11.0462 15.3428C9.84728 15.5237 8.72589 15.6942 7.58384 15.8647C7.66652 17.6062 7.73887 19.3012 7.81639 21.0841ZM65.1568 15.8647C64.0095 15.6942 62.8882 15.5288 61.6944 15.348C62.79 17.2858 63.839 19.1565 64.9242 21.0892C65.0069 19.2909 65.0844 17.6011 65.1568 15.8647ZM11.9298 64.9575C11.9402 64.9368 11.9453 64.9162 11.9505 64.8955C10.7309 63.1798 9.51138 61.4693 8.26597 59.7175C8.04893 61.0508 7.84222 62.3272 7.63035 63.6294C9.07213 64.0738 10.5036 64.5131 11.9298 64.9575ZM60.7849 64.9007C60.7953 64.9213 60.8004 64.9368 60.8108 64.9575C62.2422 64.5131 63.6736 64.0738 65.1102 63.6243C64.8932 62.3117 64.6865 61.0404 64.4746 59.7123C63.2241 61.4848 62.0045 63.1902 60.7849 64.9007ZM44.3724 76.5176C45.3646 77.1377 46.2948 77.7113 47.225 78.3004C47.3697 78.3934 47.442 78.3676 47.5402 78.197C48.2688 76.9051 48.9975 75.6236 49.7261 74.342C49.7623 74.28 49.7881 74.2128 49.8501 74.0888C48.0156 74.8949 46.2225 75.6907 44.3724 76.5176ZM28.3733 76.5072C26.5233 75.6856 24.7301 74.8897 22.937 74.0939C23.7018 75.5202 24.4821 76.9051 25.2727 78.2746C25.2986 78.3263 25.3968 78.3469 25.4381 78.3262C26.4045 77.7475 27.3605 77.1428 28.3733 76.5072ZM29.5464 2.86289C29.4896 2.81121 29.4637 2.79054 29.4379 2.77504C28.1356 2.2066 26.8385 1.64332 25.5415 1.06971C25.4174 1.01287 25.3658 1.07487 25.3141 1.20407C25.0505 1.85519 24.7766 2.50115 24.5079 3.15228C24.3219 3.60186 24.1359 4.05662 23.924 4.56305C25.8102 3.9946 27.6602 3.4365 29.5464 2.86289ZM43.1787 2.85772C45.0856 3.43649 46.9304 3.99461 48.8166 4.56822C48.7649 4.43386 48.7339 4.35117 48.7029 4.27366C48.2895 3.2763 47.8709 2.28928 47.4679 1.28675C47.3852 1.08004 47.3128 1.02837 47.1423 1.10071C45.9072 1.64849 44.6722 2.18076 43.4371 2.72336C43.3596 2.75437 43.2924 2.7957 43.1787 2.85772ZM13.9194 44.0647C14.3793 44.8966 14.8341 45.708 15.3095 46.5555C16.0278 44.0336 16.7203 41.579 17.4179 39.1244C17.4024 39.114 17.3921 39.0985 17.3766 39.0882C16.2293 40.7418 15.077 42.3955 13.9194 44.0647ZM58.8264 44.0647C57.6637 42.3903 56.5164 40.7418 55.3692 39.0882C55.3537 39.0985 55.3434 39.114 55.3279 39.1244C56.0255 41.5842 56.7231 44.0388 57.4363 46.5503C57.9117 45.6925 58.3613 44.8915 58.8264 44.0647ZM22.8078 20.1229C22.7561 20.1177 22.7354 20.1125 22.7199 20.1177C21.9964 20.4433 21.2781 20.7688 20.5547 21.0892C20.4255 21.1461 20.4358 21.2598 20.441 21.3993C20.4927 22.8307 20.5495 24.257 20.6012 25.6936C20.6218 26.2879 20.6529 26.8873 20.6787 27.4816C20.6942 27.4816 20.7097 27.4868 20.7252 27.4868C21.4125 25.0425 22.105 22.5982 22.8078 20.1229ZM52.0257 27.4868C52.0412 27.4868 52.0567 27.4816 52.0722 27.4816C52.0826 27.3834 52.0878 27.2801 52.0929 27.1819C52.1704 25.2389 52.2428 23.301 52.3151 21.3579C52.3255 21.1771 52.2634 21.1306 52.1601 21.0892C51.4728 20.7895 50.7855 20.4743 50.1034 20.1642C50.0569 20.1435 50.0103 20.1384 49.938 20.1229C50.6408 22.5982 51.3333 25.0373 52.0257 27.4868ZM29.996 60.2033C30.0218 60.2911 30.027 60.3118 30.0373 60.3273C30.9933 61.9809 31.9494 63.6346 32.9002 65.2934C32.9829 65.4433 33.0707 65.4536 33.1896 65.4174C33.7012 65.2572 34.2076 65.1125 34.7192 64.9575C34.9414 64.8903 35.1688 64.8232 35.4479 64.7405C33.603 63.2057 31.815 61.7226 29.996 60.2033ZM42.7446 60.2756C42.7343 60.2653 42.7291 60.2498 42.7188 60.2343C40.9308 61.7226 39.1428 63.2108 37.3444 64.7043C37.3702 64.7353 37.3806 64.756 37.3961 64.7611C38.1402 64.9833 38.8792 65.2159 39.6233 65.4174C39.6957 65.4381 39.8146 65.3399 39.8714 65.2469C40.7344 63.7793 41.5819 62.2962 42.4346 60.8182C42.5327 60.6373 42.6413 60.4565 42.7446 60.2756ZM15.9761 51.2735C17.7073 51.8213 19.4178 52.3639 21.1283 52.9117C21.1334 52.8858 21.1438 52.8703 21.1438 52.8445C19.3816 51.3821 17.6194 49.9093 15.8211 48.4158C15.8779 49.408 15.9296 50.3227 15.9761 51.2735ZM56.9195 48.4107C55.1108 49.9093 53.359 51.3769 51.602 52.8393C51.6123 52.8652 51.6175 52.8807 51.6227 52.9065C53.3332 52.3639 55.0488 51.8161 56.7645 51.2787C56.8213 50.333 56.8627 49.4132 56.9195 48.4107ZM30.8538 18.8155C30.766 18.7638 30.735 18.7483 30.704 18.7276C29.1278 18.0506 27.5414 17.3685 25.96 16.7019C25.8877 16.6709 25.7585 16.7381 25.7017 16.8207C25.2572 17.415 24.8283 18.0248 24.3942 18.6346C24.3632 18.6759 24.3374 18.7379 24.2961 18.8155C26.4768 18.8155 28.6317 18.8155 30.8538 18.8155ZM48.429 18.8155C48.4445 18.7793 48.4704 18.7431 48.4859 18.7121C47.9846 18.0558 47.4885 17.3892 46.9769 16.7432C46.9304 16.6864 46.8116 16.6915 46.7392 16.7226C45.5507 17.229 44.3621 17.7354 43.1684 18.247C42.7601 18.4175 42.3519 18.5984 41.9436 18.7689C41.9488 18.7793 41.9488 18.8 41.954 18.8103C44.114 18.8155 46.2741 18.8155 48.429 18.8155ZM52.558 14.9914C52.5425 14.9862 52.527 14.9811 52.5063 14.9707C51.6485 16.3246 50.7907 17.6837 49.9122 19.0687C50.7442 19.4459 51.5348 19.8025 52.3565 20.1694C52.4236 18.4124 52.4908 16.7019 52.558 14.9914ZM20.2343 14.9707C20.2188 14.9811 20.2033 14.9914 20.1878 15.0017C20.2549 16.7122 20.317 18.4227 20.3841 20.1745C21.2161 19.7973 22.0068 19.4408 22.8284 19.0738C21.9499 17.6734 21.0921 16.3246 20.2343 14.9707ZM36.7398 70.6729C37.6028 69.1846 38.4193 67.7584 39.2668 66.2959C38.4038 66.0375 37.5821 65.7998 36.7398 65.5466C36.7398 67.252 36.7398 68.9211 36.7398 70.6729ZM36.006 70.6574C36.006 68.9108 36.006 67.2364 36.006 65.5414C35.1636 65.7947 34.342 66.0376 33.4842 66.2908C34.3265 67.7635 35.1481 69.1846 36.006 70.6574ZM25.0867 16.3246C23.6604 15.7149 22.2703 15.1206 20.8854 14.5211C20.8751 14.5315 20.8699 14.5521 20.8647 14.5625C21.7174 15.9112 22.5752 17.2496 23.3917 18.5416C23.955 17.7974 24.5079 17.0791 25.0867 16.3246ZM47.6694 16.3143C48.243 17.0688 48.7959 17.8026 49.354 18.5467C50.1809 17.2497 51.0335 15.9061 51.881 14.5676C51.8707 14.5573 51.8655 14.5366 51.8604 14.5263C50.4754 15.1154 49.0853 15.7149 47.6694 16.3143ZM59.2915 44.7416C58.8264 45.5788 58.3716 46.3901 57.9014 47.2376C59.3018 47.7595 60.6712 48.2711 62.0407 48.7827C62.051 48.7621 62.0562 48.7466 62.0613 48.731C61.1518 47.403 60.232 46.08 59.2915 44.7416ZM14.8444 47.2376C14.369 46.3849 13.9142 45.5684 13.4491 44.7416C12.5086 46.0955 11.5939 47.4185 10.6793 48.731C10.6896 48.7517 10.6948 48.7672 10.6999 48.7879C12.0745 48.2711 13.4388 47.7595 14.8444 47.2376ZM61.7306 49.6974C61.7306 49.6767 61.7306 49.6612 61.7306 49.6406C60.3818 49.1341 59.0279 48.638 57.6533 48.1264C57.6016 49.1238 57.55 50.0643 57.5035 51.041C58.9297 50.5811 60.3302 50.1418 61.7306 49.6974ZM15.2475 51.0358C15.1958 50.0385 15.1441 49.098 15.0925 48.1213C13.7127 48.6329 12.3639 49.1341 11.0203 49.6354C11.0203 49.6561 11.0203 49.6716 11.0203 49.6974C12.4208 50.1418 13.816 50.5914 15.2475 51.0358ZM71.5957 41.2586C71.5853 41.2379 71.575 41.2276 71.5647 41.2069C70.867 41.9614 70.1694 42.7159 69.4821 43.4755C69.4304 43.5324 69.4149 43.6977 69.4201 43.8011C69.4666 44.8708 69.5234 45.9457 69.5751 47.0206C69.5906 47.3513 69.6061 47.6924 69.6268 48.0231C69.6423 48.0282 69.6578 48.0282 69.6785 48.0334C70.3141 45.7803 70.9549 43.5169 71.5957 41.2586ZM3.09314 48.0954C3.11381 47.9869 3.12931 47.9456 3.12931 47.9094C3.19649 46.5141 3.26884 45.1085 3.32569 43.7133C3.33085 43.6099 3.26367 43.4652 3.20166 43.398C2.5557 42.6849 1.90458 41.9821 1.25345 41.2741C1.23278 41.2483 1.20178 41.2379 1.1346 41.1966C1.79089 43.5221 2.43168 45.7803 3.09314 48.0954ZM67.5701 55.4542C67.5546 55.449 67.5442 55.4335 67.5287 55.4283C66.8673 56.3585 66.2265 57.3249 65.5392 58.2034C65.1516 58.6943 65.0379 59.1491 65.1981 59.8415C65.379 60.627 65.4772 61.4487 65.6219 62.3427C66.2833 59.9862 66.9241 57.7176 67.5701 55.4542ZM7.12391 62.3117C7.15492 62.1773 7.1756 62.0946 7.18593 62.0223C7.34096 61.0611 7.49082 60.1051 7.65618 59.1491C7.68719 58.9579 7.65619 58.8493 7.56317 58.7201C6.83453 57.6969 6.10072 56.6737 5.37208 55.6454C5.32557 55.5834 5.28423 55.5369 5.23256 55.4748C5.21705 55.4852 5.20672 55.5007 5.19121 55.511C5.832 57.7589 6.46762 60.0069 7.12391 62.3117ZM24.2444 1.89653C24.234 1.8862 24.2237 1.8707 24.2134 1.86036C22.6011 3.20912 20.9784 4.54754 19.3661 5.8963C20.5495 5.59658 21.7174 5.24517 22.875 4.88344C22.9576 4.8576 23.0558 4.74908 23.1023 4.63539C23.4227 3.89642 23.7276 3.14711 24.0325 2.39779C24.11 2.22209 24.1772 2.05673 24.2444 1.89653ZM48.5376 1.86036C48.5272 1.8707 48.5169 1.88103 48.5066 1.89137C48.5376 1.96888 48.5634 2.05156 48.5944 2.12391C48.9355 2.9404 49.2765 3.76206 49.6073 4.58372C49.6848 4.77492 49.783 4.86277 49.9277 4.90411C50.5323 5.08498 51.1369 5.26585 51.7415 5.45188C52.2789 5.61208 52.8164 5.77228 53.359 5.93248C53.3642 5.91181 53.3693 5.90147 53.3745 5.8808C51.7622 4.54754 50.1447 3.20912 48.5376 1.86036ZM63.9372 14.7537C63.9424 14.733 63.9475 14.7123 63.9475 14.6917C62.3404 13.3584 60.7384 12.02 59.1313 10.6816C59.7566 11.8908 60.4025 13.0535 61.0588 14.2059C61.1001 14.2731 61.1777 14.3248 61.2448 14.3351C62.144 14.485 63.0432 14.6193 63.9372 14.7537ZM13.6403 10.7436C13.6248 10.7229 13.6145 10.7074 13.6042 10.6919C11.997 12.0251 10.395 13.3687 8.78274 14.702C9.69741 14.6245 10.5966 14.485 11.4906 14.3454C11.5578 14.3351 11.6405 14.2834 11.6766 14.2162C12.3433 13.0535 12.9892 11.9011 13.6403 10.7436ZM5.01551 28.0811C5.47544 28.9131 5.91468 29.6986 6.31259 30.4065C6.68467 29.9466 7.05157 29.4815 7.41847 29.0216C7.43914 28.9906 7.46498 28.9286 7.45982 28.8872C7.43915 28.2774 7.41331 27.6677 7.38747 27.0165C6.58131 27.3731 5.81133 27.7193 5.01551 28.0811ZM66.4383 30.4065C66.8362 29.6934 67.2755 28.8976 67.7354 28.0811C66.9344 27.7193 66.1593 27.3731 65.3635 27.0165C65.3376 27.6677 65.3066 28.2568 65.2911 28.8562C65.2911 28.9131 65.3066 28.9854 65.3376 29.0216C65.6994 29.4867 66.0663 29.9414 66.4383 30.4065ZM37.9697 4.1548C37.4116 3.41583 36.8741 2.71302 36.3884 2.0774C35.8768 2.74403 35.3445 3.43649 34.7864 4.16513C35.3187 4.39768 35.8199 4.61989 36.3264 4.83693C36.3677 4.8576 36.4142 4.83694 36.4556 4.8266C36.9413 4.59922 37.4323 4.38735 37.9697 4.1548ZM55.9221 67.4173C55.364 67.5878 54.8318 67.748 54.3047 67.9134C54.253 67.9341 54.191 67.9754 54.1548 68.0374C53.8809 68.5129 53.6122 68.9831 53.3228 69.4999C54.1548 69.7479 54.961 69.9856 55.7774 70.2337C55.824 69.2828 55.8705 68.3785 55.9221 67.4173ZM19.4281 69.5051C19.1336 68.9831 18.87 68.5129 18.5961 68.0529C18.5651 67.9961 18.5134 67.9496 18.4721 67.9341C17.9295 67.7635 17.3869 67.5982 16.8236 67.4225C16.8753 68.3733 16.9218 69.2932 16.9735 70.2337C17.7951 69.9908 18.591 69.7479 19.4281 69.5051ZM26.9212 78.4244C26.9212 78.4451 26.9264 78.4658 26.9264 78.4864C28.8436 78.4864 30.7711 78.4864 32.7245 78.4864C32.678 78.4451 32.6677 78.4193 32.647 78.4141C31.5721 77.9335 30.4921 77.4529 29.412 76.9827C29.3604 76.9568 29.2932 76.9568 29.2415 76.9878C28.4612 77.4632 27.6912 77.9438 26.9212 78.4244ZM45.8245 78.4813C45.8245 78.4658 45.8297 78.4451 45.8297 78.4193C45.0597 77.9387 44.2897 77.4529 43.5094 76.9775C43.4422 76.9361 43.3337 76.9671 43.2562 77.0033C42.4759 77.3392 41.6956 77.6906 40.9153 78.042C40.6259 78.1712 40.3416 78.3004 40.0523 78.4296C40.0574 78.4503 40.0574 78.4658 40.0626 78.4761C41.9798 78.4813 43.9022 78.4813 45.8245 78.4813ZM1.56868 37.2743C1.62035 37.233 1.6462 37.2175 1.65653 37.202C2.34383 36.2305 3.03113 35.259 3.70809 34.2823C3.7701 34.1893 3.80111 34.0291 3.80628 33.8947C3.84762 33.2746 3.87346 32.6441 3.8993 32.024C3.91997 31.5279 3.94064 31.0215 3.96131 30.5254C3.9458 30.5202 3.9303 30.5202 3.90963 30.515C3.13965 32.7475 2.3645 34.9799 1.56868 37.2743ZM71.1202 37.2433C71.1357 37.233 71.1461 37.2227 71.1564 37.2123C70.3761 34.9747 69.601 32.732 68.8206 30.4944C68.8258 31.6829 68.8775 32.8508 68.9395 34.0135C68.9447 34.1014 68.9757 34.1996 69.017 34.2616C69.7198 35.2538 70.4226 36.2511 71.1202 37.2433ZM65.7976 18.2884C65.7821 18.2884 65.7665 18.2884 65.751 18.2935C65.6942 19.5544 65.6322 20.8205 65.5857 22.0814C65.5805 22.1848 65.6322 22.314 65.6787 22.407C66.1955 23.3372 66.7122 24.257 67.2342 25.182C67.26 25.2337 67.2858 25.2802 67.3168 25.3319C67.3324 25.3215 67.3375 25.306 67.353 25.2905C66.8363 22.9599 66.3143 20.6241 65.7976 18.2884ZM6.99472 18.3039C6.97922 18.2987 6.96372 18.2935 6.94821 18.2832C6.42628 20.619 5.90952 22.9599 5.38241 25.3215C5.41859 25.3009 5.43409 25.2957 5.43926 25.2854C5.99737 24.3035 6.55547 23.3113 7.10841 22.3191C7.14458 22.252 7.16009 22.1486 7.16009 22.0659C7.11358 20.8205 7.05673 19.5596 6.99472 18.3039ZM53.9171 72.3214C53.8499 72.3266 53.8293 72.3214 53.8034 72.3266C52.9042 72.7245 51.9999 73.1224 51.1059 73.5306C51.0284 73.5668 50.956 73.6599 50.9043 73.7529C50.3772 74.6779 49.845 75.6029 49.3179 76.5382C49.2817 76.6054 49.2507 76.6726 49.2145 76.7398C49.2249 76.7501 49.23 76.7604 49.2404 76.7708C50.7907 75.2928 52.341 73.82 53.9171 72.3214ZM23.5054 76.7656C23.5157 76.7553 23.5209 76.7346 23.5364 76.7243C23.1695 76.0732 22.7664 75.4582 22.4357 74.7709C22.012 73.8717 21.4642 73.2878 20.689 73.1121C20.5702 73.0862 20.4668 73.0139 20.348 72.957C19.8674 72.7503 19.3868 72.5333 18.9062 72.3214C18.8958 72.3421 18.8907 72.3576 18.8855 72.3834C20.4255 73.8407 21.9654 75.3032 23.5054 76.7656ZM62.9708 65.3089C62.9708 65.2882 62.9657 65.2779 62.9657 65.2572C62.945 65.2572 62.9192 65.2521 62.8985 65.2572C61.9321 65.557 60.9658 65.8567 59.9994 66.1616C59.9064 66.1926 59.8134 66.2804 59.7411 66.3683C59.245 67.0556 58.7489 67.7584 58.2528 68.456C58.1649 68.58 58.0564 68.6834 57.953 68.7919C57.9737 68.8229 57.9996 68.8591 58.0151 68.8901C59.6687 67.7015 61.3224 66.5078 62.9708 65.3089ZM14.7204 68.8953C14.7359 68.8746 14.741 68.8591 14.7566 68.8384C14.1468 67.9858 13.537 67.1228 12.9272 66.2753C12.8755 66.2081 12.798 66.1822 12.7308 66.1564C12.0745 65.9549 11.4234 65.7482 10.7671 65.5466C10.4416 65.4484 10.1108 65.3451 9.78526 65.2469C9.7801 65.2676 9.77493 65.2882 9.76976 65.3089C11.4234 66.5026 13.0719 67.7015 14.7204 68.8953ZM44.7342 1.18856C44.7342 1.16789 44.7342 1.15239 44.7342 1.12655C42.8428 1.26608 40.9514 1.40561 39.0601 1.54513C39.1117 1.60715 39.1686 1.63815 39.2254 1.64849C39.8507 1.83969 40.4863 1.98438 41.1013 2.22726C41.6129 2.42363 42.078 2.39263 42.5741 2.13941C43.282 1.79318 44.0107 1.50896 44.7342 1.18856ZM33.7012 1.60198C33.7012 1.58131 33.696 1.57097 33.696 1.5503C31.8047 1.41077 29.9133 1.27125 27.9496 1.12655C28.0323 1.18857 28.0581 1.21441 28.084 1.22474C28.9831 1.61748 29.8875 2.01022 30.7866 2.39779C30.859 2.4288 30.9468 2.42881 31.0243 2.40297C31.5515 2.24794 32.0734 2.0929 32.6005 1.93787C32.9622 1.82935 33.3291 1.71567 33.7012 1.60198ZM66.8311 31.2075C67.291 31.7811 67.7509 32.3444 68.1695 32.8663C68.1178 31.7346 68.0507 30.4789 67.9938 29.2231C67.9783 29.218 67.9628 29.2128 67.9421 29.2025C67.5856 29.8536 67.2238 30.5047 66.8311 31.2075ZM4.80364 29.2128C4.78814 29.218 4.7623 29.2231 4.74679 29.2335C4.68995 30.484 4.62794 31.7294 4.5711 32.8508C4.98968 32.3341 5.44442 31.7656 5.90435 31.1972C5.52711 30.5047 5.16021 29.8588 4.80364 29.2128ZM65.5082 23.6834C65.472 24.4999 65.441 25.2234 65.4203 25.9417C65.4203 25.9933 65.472 26.0657 65.503 26.0812C66.0869 26.3499 66.6709 26.6186 67.322 26.908C66.7071 25.8073 66.1283 24.7841 65.5082 23.6834ZM7.2376 23.6834C6.61748 24.7841 6.03871 25.8073 5.42376 26.908C6.07488 26.6135 6.65882 26.3551 7.2376 26.0812C7.27894 26.0605 7.32545 25.9623 7.32545 25.9107C7.30478 25.1975 7.26861 24.4895 7.2376 23.6834ZM56.5216 69.5361C57.2347 68.5335 57.9014 67.5982 58.568 66.6628C57.9427 66.7972 57.3484 66.9781 56.7541 67.1744C56.7076 67.1848 56.6456 67.2675 56.6405 67.3243C56.5991 68.0219 56.5629 68.7299 56.5216 69.5361ZM16.2138 69.2828C16.1828 68.7041 16.1467 67.9961 16.1053 67.2881C16.1001 67.2364 16.0433 67.1796 16.002 67.1641C15.4025 66.9729 14.7979 66.7869 14.1984 66.606C14.1829 66.6318 14.1778 66.6473 14.1623 66.6732C14.8547 67.562 15.5524 68.4457 16.2138 69.2828ZM54.6819 70.9417C54.6819 70.9158 54.6768 70.89 54.6768 70.8745C54.098 70.7039 53.5192 70.5283 52.9404 70.3629C52.8991 70.3526 52.8267 70.3732 52.806 70.4197C52.4701 70.9985 52.1394 71.5824 51.8087 72.1664C51.819 72.1871 51.8242 72.1974 51.8345 72.2181C52.7802 71.784 53.7311 71.3654 54.6819 70.9417ZM40.4708 3.05409C40.4708 3.03342 40.4708 3.01792 40.4708 2.99725C39.4735 2.69752 38.4865 2.39263 37.4891 2.0929C37.4736 2.12391 37.4529 2.14975 37.4374 2.18075C37.8353 2.70269 38.2332 3.22462 38.6312 3.74139C38.6673 3.78273 38.7448 3.8034 38.7862 3.78273C39.3546 3.55019 39.9127 3.30214 40.4708 3.05409ZM20.9836 72.2387C20.7614 71.846 20.5753 71.5204 20.3893 71.2C20.2291 70.9158 20.0999 70.5024 19.8932 70.399C19.671 70.2957 19.3764 70.4869 19.1181 70.5592C18.7667 70.6574 18.4204 70.766 18.069 70.8797C18.069 70.9055 18.069 70.921 18.069 70.9468C19.0199 71.3654 19.9759 71.7891 20.9836 72.2387ZM32.2749 3.00758C32.2749 3.02825 32.2749 3.04376 32.2749 3.06443C32.833 3.31247 33.3911 3.56052 33.9544 3.79823C34.0009 3.8189 34.0784 3.79823 34.1094 3.75689C34.5074 3.24013 34.9053 2.71819 35.3032 2.19626C35.2877 2.17042 35.2722 2.13941 35.2515 2.11874C34.2593 2.40297 33.2671 2.70269 32.2749 3.00758ZM64.9449 32.9852C64.9604 32.9904 64.9707 33.0058 64.9862 33.011C65.317 32.4219 65.6477 31.8225 65.9888 31.2127C65.7097 30.8613 65.4513 30.5357 65.1826 30.1895C65.0999 31.1145 65.0224 32.0498 64.9449 32.9852ZM7.75954 33.0059C7.77504 33.0007 7.78538 32.9852 7.80605 32.98C7.72337 32.0447 7.65102 31.1093 7.57351 30.2205C7.30479 30.5512 7.04124 30.8768 6.76735 31.2179C7.10325 31.8276 7.43398 32.4167 7.75954 33.0059ZM16.7306 64.4666C16.7151 64.4718 16.6893 64.4769 16.6738 64.4872C16.7048 65.1022 16.7409 65.7171 16.7771 66.3321C16.7823 66.3786 16.8133 66.4561 16.8443 66.4665C17.1905 66.5853 17.5368 66.6887 17.945 66.8127C17.5109 65.9807 17.1233 65.2211 16.7306 64.4666ZM56.072 64.4924C56.0565 64.4872 56.0307 64.4821 56.0152 64.4717C55.6224 65.2366 55.2297 65.991 54.8059 66.823C55.1987 66.699 55.5346 66.6008 55.8653 66.4923C55.9118 66.482 55.9687 66.3993 55.9738 66.3476C56.01 65.7223 56.041 65.1074 56.072 64.4924ZM8.12128 28.0604C8.66388 27.3524 9.16514 26.7065 9.66124 26.0553C9.1393 26.2207 8.64838 26.4429 8.15228 26.6755C8.11094 26.6961 8.0696 26.8098 8.0696 26.877C8.0851 27.2439 8.10577 27.616 8.12128 28.0604ZM64.6193 28.0604C64.6348 27.6315 64.6452 27.2749 64.671 26.9184C64.6813 26.753 64.6297 26.6858 64.5211 26.6341C64.1232 26.4636 63.7253 26.2776 63.3274 26.0967C63.2499 26.0605 63.1724 26.0347 63.0949 25.9985C63.0897 26.0192 63.0845 26.0347 63.0794 26.0553C63.5806 26.7065 64.0767 27.3524 64.6193 28.0604ZM35.3342 5.3537C34.9569 5.18833 34.6417 5.04364 34.3265 4.91445C34.2955 4.90412 34.2386 4.92478 34.2076 4.96612C33.8614 5.41054 33.5203 5.86013 33.1741 6.30455C33.1896 6.33555 33.2103 6.36656 33.2258 6.39757C33.9079 6.06684 34.5849 5.73094 35.3342 5.3537ZM39.5148 6.40273C39.5303 6.36656 39.551 6.33555 39.5665 6.29938C39.2306 5.86013 38.8999 5.42604 38.564 4.99713C38.5278 4.94545 38.4503 4.90928 38.4089 4.92995C38.0989 5.05398 37.7888 5.1935 37.4168 5.35887C38.1557 5.73094 38.8327 6.06167 39.5148 6.40273ZM53.2143 68.208C52.4495 68.4043 51.7363 68.5852 51.0232 68.7661C51.5141 68.9676 52.0051 69.1175 52.496 69.2518C52.5477 69.2622 52.6252 69.2208 52.6613 69.164C52.8422 68.8694 53.0076 68.5697 53.2143 68.208ZM19.5315 68.208C19.7382 68.5697 19.9139 68.8849 20.0947 69.1898C20.1206 69.2312 20.1878 69.2622 20.2239 69.257C20.7252 69.1175 21.2213 68.9676 21.7226 68.8177C21.7226 68.7971 21.7226 68.7816 21.7174 68.7609C21.0094 68.58 20.2963 68.4043 19.5315 68.208ZM52.8526 33.1092C52.7699 32.8146 52.6975 32.5563 52.6252 32.303C52.6097 32.3082 52.589 32.3134 52.5735 32.3134C52.5735 32.608 52.5735 32.9025 52.5735 33.2126C52.6614 33.1764 52.744 33.1454 52.8526 33.1092ZM20.1723 33.2126C20.1723 32.887 20.1723 32.6028 20.1723 32.3134C20.1568 32.3082 20.1413 32.3082 20.1206 32.303C20.0431 32.5666 19.9707 32.8301 19.8932 33.1092C20.0069 33.1505 20.0844 33.1764 20.1723 33.2126ZM19.6503 33.9619C19.5676 34.2409 19.5005 34.489 19.4281 34.7422C19.4436 34.7525 19.4488 34.7629 19.4643 34.7732C19.6193 34.551 19.7692 34.3288 19.9449 34.0756C19.8364 34.0394 19.7588 34.0084 19.6503 33.9619ZM52.8009 34.0756C52.9818 34.334 53.1316 34.5562 53.2866 34.7784C53.297 34.7732 53.3073 34.7577 53.3177 34.7525C53.2453 34.4941 53.1678 34.2358 53.0954 33.9722C52.9921 34.0084 52.9197 34.0291 52.8009 34.0756ZM26.9626 56.5549C26.9781 56.5342 26.9832 56.5239 26.9987 56.5032C26.8696 56.2758 26.7352 56.0536 26.5905 55.8004C26.5285 55.9089 26.4768 55.9916 26.42 56.0898C26.6163 56.2655 26.7869 56.4102 26.9626 56.5549ZM46.1553 55.8108C46.0054 56.064 45.8762 56.2913 45.747 56.5135C45.7574 56.5342 45.7677 56.5446 45.778 56.5652C45.9641 56.4102 46.1398 56.2655 46.362 56.0846C46.2741 55.9658 46.2224 55.8986 46.1553 55.8108ZM25.9755 55.3818C25.7843 55.325 25.6138 55.2733 25.4123 55.2113C25.7482 55.635 25.836 55.6557 25.9755 55.3818ZM47.3542 55.201C47.132 55.2681 46.9614 55.325 46.7857 55.3818C46.9046 55.6712 46.9563 55.6505 47.3542 55.201ZM36.7501 20.0454C36.9 19.9782 37.0499 19.9162 37.2566 19.8231C36.7708 19.725 36.7191 19.7456 36.7501 20.0454ZM36.006 20.0505C36.0111 19.756 35.8871 19.7043 35.5254 19.8438C35.7011 19.9162 35.8458 19.9782 36.006 20.0505Z" fill="#FFA700"/>
</svg>
