<svg width="80" height="80" fill="none" xmlns="http://www.w3.org/2000/svg"><path d="M55.453 55.3c.445-.103.685-.583.583-1.029-.103-.343-.103-.583-.103-.891 0-.446 0-.789.103-1.131.102-.343-.103-.789-.446-.892-4.32-2.057-6.788-5.897-6.788-10.216 0-3.189 1.234-6 3.634-8.263 2.503-2.262 5.794-3.497 9.874-3.497 2.845 0 5.45.686 7.576 1.92.103.103.343.103.583.103l8.4-1.714c.445-.103.891.24.891.788l.24 6.583c0 .343-.24.686-.686.788l-3.188.583c-.446.103-.686.446-.686.892.103.685.24 1.234.24 1.817 0 3.05-1.131 5.657-3.497 7.92-2.16 2.056-4.868 3.29-8.4 3.496-.445 0-.685.343-.685.789v.583c.103.342.343.685.789.685 4.182.24 7.576 1.132 10.32 2.709 2.845 1.714 4.182 4.182 4.182 7.473 0 3.292-1.474 5.897-4.526 7.577-3.051 1.714-6.925 2.606-11.69 2.606-4.869 0-8.743-.789-11.794-2.503-2.949-1.714-4.526-4.183-4.526-7.714.309-4.8 3.84-7.988 9.6-9.462Zm6.925 11.553c4.526 0 6.788-.685 6.788-2.056 0-1.475-2.262-2.16-6.788-2.16-4.525 0-6.788.685-6.788 2.16.103 1.405 2.366 2.056 6.788 2.056Zm3.977-25.712c0-2.16-1.371-3.634-3.977-3.634-5.211-.24-5.451 7.473 0 6.925 2.366.103 3.977-1.132 3.977-3.291Z" fill="#3C3C3B"/><path d="m6.084 10.765-.343 2.606c-.445 3.394 2.126 6.342 5.486 6.342h32.912L5.844 32.502c-2.022.686-3.325 2.366-3.668 4.423L.633 47.244.05 50.98c-.445 3.394 2.126 6.343 5.486 6.343h36.272c2.674 0 5.04-2.057 5.485-4.766l.343-2.605c.446-3.394-2.125-6.343-5.485-6.343H11.5L47.328 31.61c2.022-.686 3.325-2.366 3.668-4.423l1.543-10.32.685-4.525C53.67 8.948 51.1 6 47.74 6H11.467a5.436 5.436 0 0 0-5.383 4.765Z" fill="#EF7D0F"/></svg>