<svg width="80" height="48" fill="none" xmlns="http://www.w3.org/2000/svg"><path d="M72.876 26.283 76.28 5.156l3.153 14.462L76.91 0H45.264l-6.241 26.283 7.69 21.692 31.08-.314L80 26.786l-3.026 18.486-4.098-18.99Zm-18.85-12.576c-1.386-.44-3.719-1.572-3.719-3.71 0-2.137 1.702-3.96 2.711-4.59 1.009-.628 3.593-2.075 8.196-2.075 4.602 0 7.817 1.51 7.817 1.51l-2.837 4.087s-.505-.19-1.072-.44c-.567-.19-2.332-.818-4.728-.88-2.459-.064-2.9.942-2.9 1.13-.063.19-.19.818 2.71 1.196 2.838.377 4.918 1.006 5.864 1.383.945.44 2.206 1.76 2.206 3.144 0 1.383-.315 2.452-1.765 3.898-1.45 1.446-3.972 2.767-9.645 2.83-5.674.063-8.952-1.635-8.952-1.635s3.278-4.339 3.341-4.339c0 0 .693.378 1.891.88 1.198.504 3.846.88 4.665.88.82 0 2.837-.062 3.215-1.194.316-1.132-5.61-1.635-6.997-2.075Zm-6.43 33.137-7.312-20.436 31.331-.125 4.413 20.246-28.432.315Z" fill="#fff"/><path d="M70.418 38.041H67.77l-.63-2.2h-6.746l.441 2.2-2.648-.063 5.864-8.11h-7.566l-6.556 8.928 1.009 3.018 10.843.063.693 2.39h6.81l-.569-2.453h2.711l-1.008-3.773ZM44.255 42.253l-.63 2.955-10.087-10.25 4.476-31.752 4.413 6.98.378-1.573-4.728-7.482-32.845.314L0 34.895l13.932 11.067 30.639.314.441-1.949-.757-2.074ZM15.004 6.287l.063-.063H25.91l-2.9 22.258h-7.439l2.27-16.536h-3.657l.82-5.66Zm-.63 38.418-12.42-9.81h29.882L41.86 45.083l-27.486-.377Z" fill="#fff"/><path d="m25.658 38.984-6.998-2.578-1.197 2.578-7.061.503 7.754 2.138 1.954 2.578 5.737-1.195 8.196 1.258-3.657-2.704 3.594-2.075-8.322-.503Z" fill="#fff"/></svg>