<svg width="80" height="80" fill="none" xmlns="http://www.w3.org/2000/svg"><path fill-rule="evenodd" clip-rule="evenodd" d="m24.521 56.15-.397-.047 2.645-3.686c2.681-3.738 5.305-7.395 7.959-11.03.518-.71.55-1.151.029-1.886-3.289-4.64-6.53-9.316-9.77-13.99-.186-.27-.372-.539-.559-.807a3.565 3.565 0 0 0-.21-.265c-.227-.27-.462-.548-.442-.988.64 0 1.28.005 1.918.01 1.57.01 3.131.021 4.69-.035.944-.034 1.461.312 1.978 1.068 1.697 2.48 3.43 4.934 5.191 7.43.637.902 1.278 1.81 1.922 2.726.667-.922 1.331-1.836 1.99-2.743a625.576 625.576 0 0 0 5.368-7.461c.533-.757 1.085-1.184 2.004-1.005.705.138 1.077-.252 1.463-.783 3.643-5.002 7.298-9.997 10.985-14.966.5-.673.494-.98-.24-1.463-2.874-1.89-5.992-3.207-9.252-4.226C45.041-.109 38.185-.66 31.26.876 22.672 2.78 15.397 7.034 9.658 13.78 2.14 22.615-1.062 32.898.309 44.425 1.566 55 6.666 63.617 14.515 70.66c.747.67 1.026.46 1.508-.25 2.186-3.229 4.395-6.44 6.604-9.653.832-1.209 1.664-2.418 2.494-3.628.109-.158.21-.322.326-.512l.204-.33-1.13-.136Zm-3.216-12.074c.001-1.041.003-2.082.003-3.124h-.084c0-1.193.005-2.387.01-3.58.012-2.797.024-5.593-.03-8.388-.053-2.823-1.771-4.623-4.555-5.098-1.576-.269-3.159-.236-4.74-.203-.526.011-1.052.022-1.577.022-1.16 0-1.68-.13-1.915.07-.24.208-.18.766-.207 2.178-.015.773.287.916.982.927 3.14.053 3.708.669 3.708 3.869l.002 5.239c.003 5.583.007 11.166-.022 16.749-.005.972.257 1.274 1.233 1.237 2.064-.076 4.133-.053 6.2-.017.773.014 1.024-.217 1.015-1.035a684.488 684.488 0 0 1-.023-8.846Z" fill="#009344"/><path fill-rule="evenodd" clip-rule="evenodd" d="M42.459 48.11c-.652-.922-1.31-1.853-1.973-2.795-.664.92-1.323 1.829-1.975 2.73a967.4 967.4 0 0 0-5.338 7.423c-.513.723-1.033 1.246-1.987 1.062-.754-.146-1.152.285-1.549.876-3.377 5.03-6.759 10.057-10.205 15.039-.633.914-.536 1.322.386 1.872 9.011 5.371 18.72 6.895 28.858 4.741 11.066-2.351 19.65-8.56 25.565-18.316 5.458-9 7.008-18.761 4.771-29.013-1.957-8.97-6.772-16.316-13.538-22.41-.644-.58-.982-.56-1.487.185-2.158 3.19-4.34 6.363-6.523 9.536-.931 1.355-1.863 2.71-2.793 4.066-.02.03-.045.06-.069.09-.104.13-.214.268-.098.465.153.097.33.095.515.093.243-.003.498-.006.725.219-.1.145-.196.288-.291.43-.202.297-.397.585-.6.868l-2.142 2.983c-2.49 3.47-4.98 6.939-7.505 10.382-.51.696-.48 1.147-.01 1.81 2.155 3.036 4.284 6.091 6.414 9.146l1.257 1.804a792.96 792.96 0 0 1 2.356 3.402l1.187 1.72c-.722 0-1.42-.003-2.103-.006a157.724 157.724 0 0 0-4.741.024c-.866.021-1.4-.245-1.906-.984a587.555 587.555 0 0 0-5.201-7.442ZM57.39 34.465c.005.68.01 1.382.01 2.116.488-.352.95-.693 1.396-1.023.966-.714 1.86-1.374 2.79-1.978 1.504-.977 2.77-2.017 2.307-4.093-.027-.119.006-.252.037-.383l.03-.13c.223-1.152.918-1.686 2.085-1.686 1.2-.001 2.402.174 2.608 1.562.419 2.818.368 5.548-2.274 7.49-1.151.847-2.266 1.743-3.38 2.64-.6.482-1.2.964-1.805 1.439-2.46 1.928-4.208 4.174-3.83 7.598.17 1.537.09 3.113.01 4.665l-.002.017c-.05.978.251 1.245 1.222 1.235 3.498-.037 6.996-.032 10.495-.026l3.72.003c2.372 0 2.372 0 2.396-2.361l.001-.14c.011-1.05-.266-1.439-1.372-1.412-1.682.04-3.365.033-5.048.026-1.29-.005-2.58-.01-3.869.006-.781.01-1.025-.226-1.045-1.026-.054-2.11.587-3.901 2.07-5.4 1.151-1.161 2.454-2.129 3.757-3.096a55.628 55.628 0 0 0 2.188-1.68c1.741-1.43 3.249-3.004 3.31-5.457.03-1.17.043-2.344-.003-3.514-.111-2.875-1.065-4.314-3.686-5.134-3.308-1.036-6.671-1.167-10-.014-2.49.863-4.014 2.913-4.096 5.57-.041 1.36-.032 2.723-.022 4.186Z" fill="#929497"/></svg>