<svg xmlns="http://www.w3.org/2000/svg" xmlns:xlink="http://www.w3.org/1999/xlink" width="80" zoomAndPan="magnify" viewBox="0 0 60 60" height="80" preserveAspectRatio="xMidYMid meet" version="1.0"><defs><clipPath id="id1"><path d="M 3 41 L 56.925781 41 L 56.925781 53 L 3 53 Z M 3 41 " clip-rule="nonzero"/></clipPath><clipPath id="id2"><path d="M 22 3.148438 L 38 3.148438 L 38 8 L 22 8 Z M 22 3.148438 " clip-rule="nonzero"/></clipPath><clipPath id="id3"><path d="M 2.925781 3.148438 L 56.925781 3.148438 L 56.925781 57.148438 L 2.925781 57.148438 Z M 2.925781 3.148438 " clip-rule="nonzero"/></clipPath></defs><path fill="#57a4ff" d="M 48.242188 16.1875 L 52.597656 10.960938 L 7.308594 10.960938 L 11.660156 16.1875 Z M 48.242188 16.1875 " fill-opacity="1" fill-rule="nonzero"/><g clip-path="url(#id1)"><path fill="#57a4ff" d="M 48.242188 42.316406 L 19.265625 42.316406 C 19.109375 42.046875 18.898438 41.835938 18.628906 41.679688 C 18.359375 41.523438 18.070312 41.445312 17.757812 41.445312 C 17.449219 41.445312 17.15625 41.523438 16.886719 41.679688 C 16.617188 41.835938 16.40625 42.046875 16.25 42.316406 L 11.660156 42.316406 L 3.824219 52.769531 L 3.824219 52.902344 L 56.082031 52.902344 L 56.082031 52.769531 Z M 11.660156 50.15625 L 14.273438 46.671875 L 21.242188 46.671875 L 22.113281 50.15625 Z M 35.179688 50.15625 C 34.945312 50.15625 34.726562 50.109375 34.511719 50.023438 C 34.296875 49.933594 34.109375 49.808594 33.945312 49.644531 C 33.78125 49.480469 33.65625 49.292969 33.570312 49.078125 C 33.480469 48.867188 33.4375 48.644531 33.4375 48.414062 C 33.4375 48.183594 33.480469 47.960938 33.570312 47.746094 C 33.65625 47.53125 33.78125 47.34375 33.945312 47.179688 C 34.109375 47.019531 34.296875 46.890625 34.511719 46.804688 C 34.726562 46.714844 34.945312 46.671875 35.179688 46.671875 C 35.410156 46.671875 35.632812 46.714844 35.84375 46.804688 C 36.058594 46.890625 36.246094 47.019531 36.410156 47.179688 C 36.574219 47.34375 36.699219 47.53125 36.789062 47.746094 C 36.875 47.960938 36.921875 48.183594 36.921875 48.414062 C 36.921875 48.644531 36.875 48.867188 36.789062 49.078125 C 36.699219 49.292969 36.574219 49.480469 36.410156 49.644531 C 36.246094 49.808594 36.058594 49.933594 35.84375 50.023438 C 35.632812 50.109375 35.410156 50.15625 35.179688 50.15625 Z M 41.273438 50.15625 C 41.042969 50.15625 40.820312 50.109375 40.609375 50.023438 C 40.394531 49.933594 40.207031 49.808594 40.042969 49.644531 C 39.878906 49.480469 39.753906 49.292969 39.664062 49.078125 C 39.578125 48.867188 39.53125 48.644531 39.53125 48.414062 C 39.53125 48.183594 39.578125 47.960938 39.664062 47.746094 C 39.753906 47.53125 39.878906 47.34375 40.042969 47.179688 C 40.207031 47.019531 40.394531 46.890625 40.609375 46.804688 C 40.820312 46.714844 41.042969 46.671875 41.273438 46.671875 C 41.503906 46.671875 41.726562 46.714844 41.941406 46.804688 C 42.15625 46.890625 42.34375 47.019531 42.507812 47.179688 C 42.667969 47.34375 42.796875 47.53125 42.882812 47.746094 C 42.972656 47.960938 43.015625 48.183594 43.015625 48.414062 C 43.015625 48.644531 42.972656 48.867188 42.882812 49.078125 C 42.796875 49.292969 42.667969 49.480469 42.507812 49.644531 C 42.34375 49.808594 42.15625 49.933594 41.941406 50.023438 C 41.726562 50.109375 41.503906 50.15625 41.273438 50.15625 Z M 47.371094 50.15625 C 47.140625 50.15625 46.917969 50.109375 46.703125 50.023438 C 46.492188 49.933594 46.304688 49.808594 46.140625 49.644531 C 45.976562 49.480469 45.851562 49.292969 45.761719 49.078125 C 45.675781 48.867188 45.628906 48.644531 45.628906 48.414062 C 45.628906 48.183594 45.675781 47.960938 45.761719 47.746094 C 45.851562 47.53125 45.976562 47.34375 46.140625 47.179688 C 46.304688 47.019531 46.492188 46.890625 46.703125 46.804688 C 46.917969 46.714844 47.140625 46.671875 47.371094 46.671875 C 47.601562 46.671875 47.824219 46.714844 48.039062 46.804688 C 48.25 46.890625 48.441406 47.019531 48.601562 47.179688 C 48.765625 47.34375 48.890625 47.53125 48.980469 47.746094 C 49.070312 47.960938 49.113281 48.183594 49.113281 48.414062 C 49.113281 48.644531 49.070312 48.867188 48.980469 49.078125 C 48.890625 49.292969 48.765625 49.480469 48.601562 49.644531 C 48.441406 49.808594 48.25 49.933594 48.039062 50.023438 C 47.824219 50.109375 47.601562 50.15625 47.371094 50.15625 Z M 47.371094 50.15625 " fill-opacity="1" fill-rule="nonzero"/></g><path fill="#57a4ff" d="M 19.066406 19.671875 L 40.839844 19.671875 C 41.128906 19.671875 41.40625 19.726562 41.671875 19.835938 C 41.9375 19.949219 42.175781 20.105469 42.378906 20.308594 C 42.582031 20.511719 42.742188 20.75 42.851562 21.015625 C 42.960938 21.28125 43.015625 21.558594 43.015625 21.847656 L 43.015625 36.65625 C 43.015625 36.945312 42.960938 37.222656 42.851562 37.488281 C 42.742188 37.753906 42.582031 37.992188 42.378906 38.195312 C 42.175781 38.398438 41.9375 38.554688 41.671875 38.667969 C 41.40625 38.777344 41.128906 38.832031 40.839844 38.832031 L 19.066406 38.832031 C 18.777344 38.832031 18.5 38.777344 18.230469 38.667969 C 17.964844 38.554688 17.730469 38.398438 17.527344 38.195312 C 17.320312 37.992188 17.164062 37.753906 17.054688 37.488281 C 16.941406 37.222656 16.886719 36.945312 16.886719 36.65625 L 16.886719 21.847656 C 16.886719 21.558594 16.941406 21.28125 17.054688 21.015625 C 17.164062 20.75 17.320312 20.511719 17.527344 20.308594 C 17.730469 20.105469 17.964844 19.949219 18.230469 19.835938 C 18.5 19.726562 18.777344 19.671875 19.066406 19.671875 Z M 19.066406 19.671875 " fill-opacity="1" fill-rule="nonzero"/><g clip-path="url(#id2)"><path fill="#57a4ff" d="M 22.113281 3.992188 L 37.789062 3.992188 L 37.789062 7.476562 L 22.113281 7.476562 Z M 22.113281 3.992188 " fill-opacity="1" fill-rule="nonzero"/></g><g clip-path="url(#id3)"><path fill="#004fac" d="M 56.75 52.273438 L 49.085938 42.054688 L 49.085938 16.53125 L 53.238281 11.546875 C 53.375 11.382812 53.441406 11.199219 53.441406 10.988281 L 53.441406 4.019531 C 53.441406 3.78125 53.355469 3.574219 53.1875 3.40625 C 53.015625 3.234375 52.8125 3.148438 52.570312 3.148438 L 7.28125 3.148438 C 7.039062 3.148438 6.835938 3.234375 6.664062 3.40625 C 6.492188 3.574219 6.410156 3.78125 6.410156 4.019531 L 6.410156 10.988281 C 6.410156 11.199219 6.476562 11.382812 6.609375 11.546875 L 10.765625 16.53125 L 10.765625 42.054688 L 3.097656 52.273438 C 2.984375 52.425781 2.925781 52.601562 2.925781 52.796875 L 2.925781 56.277344 C 2.925781 56.519531 3.011719 56.726562 3.179688 56.894531 C 3.351562 57.066406 3.554688 57.148438 3.796875 57.148438 L 56.054688 57.148438 C 56.292969 57.148438 56.5 57.066406 56.667969 56.894531 C 56.839844 56.726562 56.925781 56.519531 56.925781 56.277344 L 56.925781 52.796875 C 56.925781 52.601562 56.867188 52.425781 56.75 52.273438 Z M 22.957031 4.890625 L 36.894531 4.890625 L 36.894531 6.632812 L 22.957031 6.632812 Z M 8.152344 4.890625 L 21.214844 4.890625 L 21.214844 7.503906 C 21.214844 7.746094 21.300781 7.949219 21.46875 8.121094 C 21.640625 8.289062 21.847656 8.375 22.085938 8.375 L 37.765625 8.375 C 38.003906 8.375 38.210938 8.289062 38.378906 8.121094 C 38.550781 7.949219 38.632812 7.746094 38.632812 7.503906 L 38.632812 4.890625 L 51.699219 4.890625 L 51.699219 10.117188 L 8.152344 10.117188 Z M 9.140625 11.859375 L 50.710938 11.859375 L 47.808594 15.34375 L 12.042969 15.34375 Z M 17.730469 49.3125 C 17.972656 49.3125 18.175781 49.226562 18.347656 49.054688 C 18.515625 48.886719 18.601562 48.679688 18.601562 48.441406 L 18.601562 47.570312 L 20.535156 47.570312 L 20.96875 49.3125 L 13.375 49.3125 L 14.683594 47.570312 L 16.859375 47.570312 L 16.859375 48.441406 C 16.859375 48.679688 16.945312 48.886719 17.117188 49.054688 C 17.285156 49.226562 17.492188 49.3125 17.730469 49.3125 Z M 17.730469 44.085938 C 17.492188 44.085938 17.285156 44 17.117188 43.832031 C 16.945312 43.660156 16.859375 43.453125 16.859375 43.214844 C 16.859375 42.972656 16.945312 42.769531 17.117188 42.597656 C 17.285156 42.429688 17.492188 42.34375 17.730469 42.34375 C 17.972656 42.34375 18.175781 42.429688 18.347656 42.597656 C 18.515625 42.769531 18.601562 42.972656 18.601562 43.214844 C 18.601562 43.453125 18.515625 43.660156 18.347656 43.828125 C 18.175781 44 17.972656 44.085938 17.730469 44.085938 Z M 17.730469 40.601562 C 16.953125 40.601562 16.304688 40.890625 15.785156 41.472656 L 12.503906 41.472656 L 12.503906 17.085938 L 47.34375 17.085938 L 47.34375 41.472656 L 19.675781 41.472656 C 19.160156 40.890625 18.511719 40.601562 17.730469 40.601562 Z M 12.070312 43.214844 L 15.117188 43.214844 C 15.121094 43.769531 15.28125 44.269531 15.597656 44.722656 C 15.917969 45.175781 16.339844 45.492188 16.859375 45.675781 L 16.859375 45.828125 L 14.246094 45.828125 C 13.957031 45.828125 13.726562 45.945312 13.550781 46.175781 L 10.9375 49.660156 C 10.722656 49.945312 10.695312 50.25 10.855469 50.570312 C 11.015625 50.894531 11.277344 51.054688 11.632812 51.054688 L 22.085938 51.054688 C 22.21875 51.054688 22.347656 51.023438 22.46875 50.964844 C 22.589844 50.90625 22.691406 50.824219 22.773438 50.71875 C 22.855469 50.613281 22.910156 50.492188 22.9375 50.363281 C 22.964844 50.230469 22.964844 50.101562 22.929688 49.972656 L 22.058594 46.488281 C 22.011719 46.292969 21.910156 46.136719 21.75 46.011719 C 21.59375 45.890625 21.414062 45.828125 21.214844 45.828125 L 18.601562 45.828125 L 18.601562 45.675781 C 19.125 45.492188 19.542969 45.175781 19.863281 44.722656 C 20.183594 44.269531 20.34375 43.769531 20.34375 43.214844 L 47.78125 43.214844 L 54.3125 51.925781 L 5.539062 51.925781 Z M 55.183594 55.40625 L 4.667969 55.40625 L 4.667969 53.667969 L 55.183594 53.667969 Z M 55.183594 55.40625 " fill-opacity="1" fill-rule="nonzero"/></g><path fill="#004fac" d="M 19.039062 39.730469 L 40.8125 39.730469 C 41.214844 39.730469 41.605469 39.652344 41.976562 39.496094 C 42.351562 39.34375 42.679688 39.121094 42.964844 38.835938 C 43.253906 38.550781 43.472656 38.222656 43.628906 37.847656 C 43.78125 37.476562 43.859375 37.085938 43.859375 36.683594 L 43.859375 21.875 C 43.859375 21.472656 43.78125 21.082031 43.628906 20.710938 C 43.472656 20.335938 43.253906 20.007812 42.964844 19.722656 C 42.679688 19.4375 42.351562 19.214844 41.976562 19.058594 C 41.605469 18.90625 41.214844 18.828125 40.8125 18.828125 L 19.039062 18.828125 C 18.632812 18.828125 18.246094 18.90625 17.871094 19.058594 C 17.5 19.214844 17.167969 19.4375 16.882812 19.722656 C 16.597656 20.007812 16.378906 20.335938 16.222656 20.710938 C 16.066406 21.082031 15.988281 21.472656 15.988281 21.875 L 15.988281 36.683594 C 15.988281 37.085938 16.066406 37.476562 16.222656 37.847656 C 16.378906 38.222656 16.597656 38.550781 16.882812 38.835938 C 17.167969 39.121094 17.5 39.34375 17.871094 39.496094 C 18.246094 39.652344 18.632812 39.730469 19.039062 39.730469 Z M 17.730469 21.875 C 17.730469 21.703125 17.765625 21.535156 17.832031 21.375 C 17.898438 21.214844 17.992188 21.074219 18.113281 20.953125 C 18.238281 20.828125 18.378906 20.734375 18.539062 20.667969 C 18.699219 20.601562 18.863281 20.570312 19.039062 20.570312 L 40.8125 20.570312 C 40.984375 20.570312 41.152344 20.601562 41.3125 20.667969 C 41.472656 20.734375 41.613281 20.828125 41.734375 20.953125 C 41.859375 21.074219 41.953125 21.214844 42.019531 21.375 C 42.085938 21.535156 42.117188 21.703125 42.117188 21.875 L 42.117188 36.683594 C 42.117188 36.855469 42.085938 37.023438 42.019531 37.183594 C 41.953125 37.34375 41.859375 37.484375 41.734375 37.605469 C 41.613281 37.726562 41.472656 37.824219 41.3125 37.890625 C 41.152344 37.957031 40.984375 37.988281 40.8125 37.988281 L 19.039062 37.988281 C 18.863281 37.988281 18.699219 37.957031 18.539062 37.890625 C 18.378906 37.824219 18.238281 37.726562 18.113281 37.605469 C 17.992188 37.484375 17.898438 37.34375 17.832031 37.183594 C 17.765625 37.023438 17.730469 36.855469 17.730469 36.683594 Z M 17.730469 21.875 " fill-opacity="1" fill-rule="nonzero"/><path fill="#004fac" d="M 41.246094 51.054688 C 41.59375 51.054688 41.925781 50.988281 42.246094 50.855469 C 42.566406 50.722656 42.851562 50.53125 43.09375 50.289062 C 43.339844 50.042969 43.527344 49.761719 43.660156 49.441406 C 43.792969 49.121094 43.859375 48.785156 43.859375 48.441406 C 43.859375 48.09375 43.792969 47.761719 43.660156 47.441406 C 43.527344 47.121094 43.339844 46.835938 43.09375 46.59375 C 42.851562 46.347656 42.566406 46.160156 42.246094 46.027344 C 41.925781 45.894531 41.59375 45.828125 41.246094 45.828125 C 40.902344 45.828125 40.566406 45.894531 40.246094 46.027344 C 39.925781 46.160156 39.644531 46.347656 39.398438 46.59375 C 39.15625 46.835938 38.964844 47.121094 38.832031 47.441406 C 38.699219 47.761719 38.632812 48.09375 38.632812 48.441406 C 38.636719 48.785156 38.703125 49.121094 38.835938 49.441406 C 38.96875 49.757812 39.15625 50.042969 39.402344 50.285156 C 39.644531 50.53125 39.929688 50.722656 40.25 50.855469 C 40.566406 50.984375 40.902344 51.054688 41.246094 51.054688 Z M 41.246094 47.570312 C 41.488281 47.570312 41.695312 47.65625 41.863281 47.824219 C 42.035156 47.996094 42.117188 48.199219 42.117188 48.441406 C 42.117188 48.679688 42.035156 48.886719 41.863281 49.054688 C 41.695312 49.226562 41.488281 49.3125 41.246094 49.3125 C 41.007812 49.3125 40.800781 49.226562 40.632812 49.054688 C 40.460938 48.886719 40.375 48.679688 40.375 48.441406 C 40.375 48.199219 40.460938 47.996094 40.632812 47.824219 C 40.800781 47.65625 41.007812 47.570312 41.246094 47.570312 Z M 41.246094 47.570312 " fill-opacity="1" fill-rule="nonzero"/><path fill="#004fac" d="M 47.34375 51.054688 C 47.691406 51.054688 48.023438 50.988281 48.34375 50.855469 C 48.664062 50.722656 48.945312 50.53125 49.191406 50.289062 C 49.4375 50.042969 49.625 49.761719 49.757812 49.441406 C 49.890625 49.121094 49.957031 48.785156 49.957031 48.441406 C 49.957031 48.09375 49.890625 47.761719 49.757812 47.441406 C 49.625 47.121094 49.4375 46.835938 49.191406 46.59375 C 48.945312 46.347656 48.664062 46.160156 48.34375 46.027344 C 48.023438 45.894531 47.691406 45.828125 47.34375 45.828125 C 46.996094 45.828125 46.664062 45.894531 46.34375 46.027344 C 46.023438 46.160156 45.742188 46.347656 45.496094 46.59375 C 45.25 46.835938 45.0625 47.121094 44.929688 47.441406 C 44.796875 47.761719 44.730469 48.09375 44.730469 48.441406 C 44.730469 48.785156 44.796875 49.121094 44.929688 49.441406 C 45.0625 49.757812 45.253906 50.042969 45.496094 50.285156 C 45.742188 50.53125 46.023438 50.722656 46.34375 50.855469 C 46.664062 50.984375 46.996094 51.054688 47.34375 51.054688 Z M 47.34375 47.570312 C 47.585938 47.570312 47.789062 47.65625 47.960938 47.824219 C 48.128906 47.996094 48.214844 48.199219 48.214844 48.441406 C 48.214844 48.679688 48.128906 48.886719 47.960938 49.054688 C 47.789062 49.226562 47.585938 49.3125 47.34375 49.3125 C 47.105469 49.3125 46.898438 49.226562 46.726562 49.054688 C 46.558594 48.886719 46.472656 48.679688 46.472656 48.441406 C 46.472656 48.199219 46.558594 47.996094 46.730469 47.824219 C 46.898438 47.65625 47.105469 47.570312 47.34375 47.570312 Z M 47.34375 47.570312 " fill-opacity="1" fill-rule="nonzero"/><path fill="#004fac" d="M 35.152344 51.054688 C 35.496094 51.054688 35.832031 50.988281 36.152344 50.855469 C 36.472656 50.722656 36.753906 50.53125 37 50.289062 C 37.242188 50.042969 37.433594 49.761719 37.566406 49.441406 C 37.699219 49.121094 37.765625 48.785156 37.765625 48.441406 C 37.765625 48.09375 37.699219 47.761719 37.566406 47.441406 C 37.433594 47.121094 37.242188 46.835938 37 46.59375 C 36.753906 46.347656 36.472656 46.160156 36.152344 46.027344 C 35.832031 45.894531 35.496094 45.828125 35.152344 45.828125 C 34.804688 45.828125 34.472656 45.894531 34.152344 46.027344 C 33.832031 46.160156 33.546875 46.347656 33.304688 46.59375 C 33.058594 46.835938 32.871094 47.121094 32.738281 47.441406 C 32.605469 47.761719 32.539062 48.09375 32.539062 48.441406 C 32.539062 48.785156 32.605469 49.121094 32.738281 49.441406 C 32.871094 49.757812 33.058594 50.042969 33.304688 50.285156 C 33.550781 50.53125 33.832031 50.722656 34.152344 50.855469 C 34.472656 50.984375 34.804688 51.054688 35.152344 51.054688 Z M 35.152344 47.570312 C 35.390625 47.570312 35.597656 47.65625 35.765625 47.824219 C 35.9375 47.996094 36.023438 48.199219 36.023438 48.441406 C 36.023438 48.679688 35.9375 48.886719 35.765625 49.054688 C 35.597656 49.226562 35.390625 49.3125 35.152344 49.3125 C 34.910156 49.3125 34.703125 49.226562 34.535156 49.054688 C 34.363281 48.886719 34.28125 48.679688 34.28125 48.441406 C 34.28125 48.199219 34.367188 47.996094 34.535156 47.824219 C 34.707031 47.65625 34.910156 47.570312 35.152344 47.570312 Z M 35.152344 47.570312 " fill-opacity="1" fill-rule="nonzero"/></svg>