<svg width="60" height="60" xmlns="http://www.w3.org/2000/svg"><g fill="none" fill-rule="evenodd"><path fill="#0052B4" d="M0 0h60v60H0z"/><path d="m23.582 36.742 1.845 3.858 4.167-.963-1.866 3.849 3.35 2.657-4.172.94.012 4.277-3.336-2.676-3.337 2.676.012-4.277-4.172-.94 3.35-2.657-1.865-3.849 4.167.963zm21.752 4.918.88 1.84 1.988-.46-.89 1.836 1.598 1.268-1.99.448.006 2.04-1.592-1.276-1.59 1.276.005-2.04-1.99-.448 1.598-1.268-.89-1.835 1.988.46zm-8.187-19.522.88 1.84 1.988-.46-.89 1.836 1.598 1.268-1.99.448.005 2.04-1.59-1.276-1.592 1.276.005-2.04-1.99-.448 1.599-1.268-.89-1.835 1.987.46zm8.187-11.156.88 1.84 1.988-.459-.89 1.836 1.598 1.267-1.99.449.006 2.04-1.592-1.277-1.59 1.276.005-2.04-1.99-.448 1.598-1.267-.89-1.836 1.988.46zm7.152 8.367.88 1.84 1.988-.46-.89 1.836 1.598 1.268-1.99.448.005 2.04-1.591-1.276-1.591 1.276.005-2.04-1.99-.448 1.598-1.268-.89-1.835 1.988.46zm-5.114 9.761.693 2.13h2.24l-1.813 1.317.693 2.13-1.813-1.316-1.812 1.317.692-2.13-1.812-1.317h2.24zM30 0v5.73l-4.705 4.705H30v9.13h-6.157L30 25.722V30h-2.78l-7.655-7.657V30h-9.13v-9.108L1.328 30H0v-5.73l4.705-4.705H0v-9.13h6.157L0 4.278V0h2.78l7.655 7.657V0h9.13v9.108L28.672 0z" fill="#F0F0F0"/><path fill="#D80027" d="M0 17.813h12.187V30h5.626V17.813H30v-5.625H17.812V0h-5.624v12.188H0z"/><path fill="#0052B4" d="M19.565 19.565 30 30v-2.95l-7.484-7.485z"/><path fill="#F0F0F0" d="M19.565 19.565 30 30v-2.95l-7.484-7.485z"/><path d="M19.565 19.565 30 30v-2.95l-7.484-7.485zm-12.081.001L0 27.049V30l10.434-10.434z" fill="#D80027"/><path fill="#0052B4" d="M10.435 10.435 0 0v2.95l7.484 7.485z"/><path fill="#F0F0F0" d="M10.435 10.435 0 0v2.95l7.484 7.485z"/><path d="M10.435 10.435 0 0v2.95l7.484 7.485zm12.081-.001L30 2.951V0L19.566 10.434z" fill="#D80027"/></g></svg>