<svg xmlns="http://www.w3.org/2000/svg" width="80" height="80" fill="none"><g clip-path="url(#a)" fill="#fff"><path d="M19.01 25.033v2.302c0 4.534-2.435 8.92-8.558 8.92C4.329 36.256 1 32.042 1 26.13S4.338 16 10.452 16c4.482 0 7.302 2.353 8.04 5.937h-4.245c-.431-1.45-1.696-2.301-3.804-2.301-3.506 0-5.255 2.763-5.255 6.477 0 3.713 1.75 6.528 5.264 6.528 3.023 0 4.378-1.779 4.46-4.27h-4.607v-3.338h8.705ZM33.337 30.616H25.91l-1.584 5.285H20.3l6.214-19.547h6.321l6.244 19.547h-4.132l-1.61-5.285Zm-6.386-3.558h5.311l-2.05-6.788h-1.193l-2.068 6.788ZM41.161 16.354h6.27l3.204 7.885h.712l3.174-7.885h6.296v19.547h-3.804V21.337H56.3l-3.286 7.884h-4.08l-3.256-7.884h-.712V35.9H41.16V16.354ZM79.41 32.261v3.64H64.651V16.354h14.457v3.64H68.745v4.102h8.074v3.558h-8.074v4.607H79.41ZM17.52 53.292a5.077 5.077 0 0 1 2.544 4.42c0 4.74-3.848 6.997-8.207 6.997H2L5.978 42h9c3.21 0 6.14 1.78 6.14 5.182a5.79 5.79 0 0 1-3.467 5.438l-.13.672Zm-6.019 9.53c3.466 0 6.456-1.464 6.456-5.181 0-2.8-2.483-3.847-4.931-3.847H6.003l-1.59 9.029H11.5Zm-5.142-10.96h7.023c3.085 0 5.629-1.144 5.629-4.515 0-2.417-2.133-3.436-4.264-3.436H7.759l-1.4 7.951ZM39.056 62.798l-.316 1.906H23.024L27.002 42h15.2l-.317 1.906H28.782l-1.43 8.026h10.655l-.316 1.907h-10.66l-1.59 8.969 13.615-.01ZM60.05 64.71h-2.198l-1.274-7.35H46.34l-3.818 7.35h-2.287L52.129 42h3.847l4.073 22.71Zm-12.722-9.256h8.919L54.34 44.227h-1.21l-5.803 11.227ZM79.824 43.911h-7.525L68.642 64.71h-2.096l3.656-20.798h-7.524l.316-1.906H80.17l-.346 1.906Z"/></g><defs><clipPath id="a"><path fill="#fff" d="M0 0h80v80H0z"/></clipPath></defs></svg>