<svg width="80" height="81" fill="none" xmlns="http://www.w3.org/2000/svg"><path d="M68.442 57.067c-10.235-.544-16.406-6.934-16.563-17.062.156-10.207 6.25-16.518 16.563-17.063 6.797-.39 11.64-5.377 11.485-11.765C79.692 5.02 74.692.113 68.52.035c-6.328 0-11.797 4.675-11.563 11.22.314 7.946-3.203 12.622-10.234 15.27-7.265 2.727-13.827 1.168-19.687-3.583-2.89-2.338-3.985-5.455-4.063-9.116.078-2.182-.234-4.364-.86-6.468C20.16 1.905 14.38-1.056 8.755.346 2.74 1.827-1.089 7.982.316 14.06c1.172 5.064 5.625 8.65 10.782 8.805 6.953.389 12.5 3.116 15.703 9.505a16.793 16.793 0 0 1 0 15.193c-3.203 6.39-8.828 9.038-15.703 9.505C4.77 57.38-.152 62.6.004 68.91c.156 5.143 3.828 9.584 8.828 10.753 5.625 1.402 11.406-1.637 13.36-7.012.624-2.104.859-4.286.859-6.468.078-3.661 1.172-6.856 4.063-9.116 5.86-4.752 12.422-6.31 19.687-3.584 7.032 2.65 10.546 7.324 10.234 15.271-.312 6.545 5.157 11.22 11.485 11.22 6.172-.078 11.172-4.986 11.406-11.142.156-6.39-4.766-11.375-11.484-11.765Z" fill="url(#a)"/><path d="M39.923 57.04c-6.328.078-11.406 5.298-11.328 11.61.078 6.31 5.235 11.375 11.562 11.297 6.328-.078 11.406-5.297 11.328-11.609 0-6.311-5.234-11.375-11.562-11.298Zm-28.36-28.67C5.156 28.369 0 33.589 0 39.979c0 6.389 5.157 11.53 11.563 11.53 6.248 0 11.328-5.065 11.328-11.375v-.312c.078-6.233-4.923-11.375-11.25-11.453h-.078ZM80 39.511c-.235-6.233-5.47-11.22-11.797-11.142-6.407.235-11.406 5.611-11.173 12a11.579 11.579 0 0 0 11.173 11.14A11.636 11.636 0 0 0 80 40.446v-.935ZM39.922 22.837c6.327-.078 11.406-5.22 11.328-11.531C51.172 5.23 46.328.242 40.234.008c-6.328-.233-11.64 4.754-11.875 11.064-.235 6.312 4.688 11.531 11.017 11.765h.546Z" fill="#010101"/><defs><linearGradient id="a" x1="3.336" y1="3.481" x2="76.413" y2="76.758" gradientUnits="userSpaceOnUse"><stop offset=".02" stop-color="#FFCE00"/><stop offset=".44" stop-color="#FF1C03"/><stop offset="1" stop-color="#DE0021"/></linearGradient></defs></svg>