<svg xmlns="http://www.w3.org/2000/svg" xml:space="preserve" width="600" height="101" style="shape-rendering:geometricPrecision;text-rendering:geometricPrecision;image-rendering:optimizeQuality;fill-rule:evenodd;clip-rule:evenodd"><defs><style>.fil0{fill:#8cc540;fill-rule:nonzero}</style></defs><g id="Layer_x0020_1"><g id="_358955163120"><path class="fil0" d="M529 43c-3 2-8 3-14 3h-6l4-26h5c5 0 9 1 12 2 2 2 4 4 4 10s-2 9-5 11zM151 76h-49l3-18h31l3-19h-30l3-17h49l-10 54zM556 7c-8-5-19-7-33-7h-37l-14 76h-49l3-18h29l4-19h-30l4-17h30l4-22h-62l-13 72h-23l14-72h-33l-13 72h-22l13-72h-32l-14 76h-49l3-18h29l4-19h-30l3-17h31l4-22H84L73 60 52 0H18L0 98h32l11-62 21 62h115l14-76h18l-14 76h302l9-48 14 48h32l-15-39 4-1c7-2 13-5 17-10s6-12 6-20c0-9-3-16-10-21zM582 86h7c0-1 0-1 1-1v-2c0-1 0-1-1-2h-7v5zm-2 9V80l6-1h4c0 1 1 1 1 2 1 0 1 1 1 2s0 2-1 3c0 1-2 1-3 2h1l2 2 3 4h-3l-2-3c0-1-1-1-1-2-1 0-1-1-1-1h-5v7h-2z"/><path class="fil0" d="M574 87c0-3 1-6 3-8s5-4 8-4c7 0 12 5 13 11v1c0 6-5 11-12 12-6 0-12-5-12-12zm11-14c-4 0-7 1-10 4s-4 7-4 11c1 8 7 14 15 13 8 0 14-7 14-15s-7-14-15-13z"/></g></g></svg>