<svg xmlns="http://www.w3.org/2000/svg" xmlns:xlink="http://www.w3.org/1999/xlink" width="588.39" height="207.99"><defs><radialGradient id="a" cx="299.7" cy="-12.28" r="153.83" gradientUnits="userSpaceOnUse"><stop offset=".09" stop-color="#e3e3e3"/><stop offset=".19" stop-color="#dfdfdf"/><stop offset=".3" stop-color="#d3d3d3"/><stop offset=".4" stop-color="#bfbfc0"/><stop offset=".51" stop-color="#a2a2a5"/><stop offset=".62" stop-color="#7e7e82"/><stop offset=".72" stop-color="#515157"/><stop offset=".83" stop-color="#1d1d25"/><stop offset=".88" stop-color="#000009"/></radialGradient><radialGradient id="b" cx="354.9" cy="23.2" r="194.97" xlink:href="#a"/><radialGradient id="c" cx="334" cy="-7.23" r="154.14" gradientUnits="userSpaceOnUse"><stop offset="0" stop-color="#d7483e"/><stop offset=".17" stop-color="#bf3f35"/><stop offset=".24" stop-color="#b23a31"/><stop offset=".4" stop-color="#992d26"/><stop offset=".73" stop-color="#5b0c0a"/><stop offset=".83" stop-color="#450000"/></radialGradient><radialGradient id="d" cx="310.47" cy="-12.89" r="183.39" gradientUnits="userSpaceOnUse"><stop offset=".06" stop-color="#e3e3e3"/><stop offset=".15" stop-color="#dedede"/><stop offset=".26" stop-color="#cfcfd0"/><stop offset=".38" stop-color="#b6b6b8"/><stop offset=".5" stop-color="#949497"/><stop offset=".63" stop-color="#68686d"/><stop offset=".77" stop-color="#33333a"/><stop offset=".88" stop-color="#000009"/></radialGradient><radialGradient id="e" cx="380.02" cy="55.8" r="174.16" xlink:href="#a"/><radialGradient id="f" cx="390.04" cy="-18.62" fx="369.419" r="277.31" gradientUnits="userSpaceOnUse"><stop offset="0" stop-color="#c54138"/><stop offset=".42" stop-color="#b23a31"/><stop offset=".53" stop-color="#992d26"/><stop offset=".76" stop-color="#5b0c0a"/><stop offset=".83" stop-color="#450000"/></radialGradient></defs><g data-name="Layer 2"><g data-name="Layer 1"><path fill="url(#a)" d="M317.68 44.47 295.22 0h-79.54l48.16 89.87 53.84-45.4z"/><path fill="url(#b)" d="m288.63 131.15 16.09 32.69h79.52l-46.17-87.45-49.44 54.76z"/><path d="M396.81.48c1.55 0 2 .94 1.75 2.07L252.34 162.1c-1.86 1.94-2 2.06-5.53 2.06h-57c-1.55 0-1.86-.82-.69-1.82l187-160.17a8.77 8.77 0 0 1 4.95-1.8z" fill="url(#c)"/><path d="m217.62 1.15 46.57 86.9 52-43.87-21.74-43z" fill="url(#d)"/><path d="m290 131.33 15.42 31.35h76.87L337.81 78.4z" fill="url(#e)"/><path d="M190.23 162.94 376.89 3.09A7.63 7.63 0 0 1 381 1.58l15.79.11c.39 0 .55.09.56.12s0 .08 0 .21l-146 159.26c-1.59 1.66-1.59 1.66-4.64 1.66z" fill="url(#f)"/><g fill="#fff"><path d="M38.33 199.73 8.59 177.42H0v30.11h8.42v-22.3l29.74 22.31h8.59v-30.12h-8.42zm86.48-15.04h-5.88l-8.85 5.91-3.1 2.2c-.73-.62-1.78-1.42-3.24-2.46l-8-5.65H87l15.55 11-15.9 10.69v-2.43H60v-6.41h24.06v-3.59H60v-5.67h25.68v-3.58H53.17v22.85h40.56l11.11-7.62 1.84-1.36 1.51 1.1 11.15 7.88h8.88l-17-12 13.64-9.36v2.06h14.34v19.27h6.8v-19.25h14.41v-3.58h-35.6zm66.09 11.45H208v4.53a37.51 37.51 0 0 1-6.79 1.9 48.77 48.77 0 0 1-9.65 1 44.42 44.42 0 0 1-10.73-1.26 16.23 16.23 0 0 1-7.55-3.75 8.17 8.17 0 0 1-2.51-6.14 8.58 8.58 0 0 1 2.1-5.53 12.47 12.47 0 0 1 3.51-2.75 22.12 22.12 0 0 1 6.06-2.06 44.87 44.87 0 0 1 9-.79 37.8 37.8 0 0 1 7.9.76 16 16 0 0 1 5.37 2 9.89 9.89 0 0 1 3.09 3.32l.17.29 8-1.09-.33-.65a12.62 12.62 0 0 0-4.58-5 24.36 24.36 0 0 0-8.15-2.92 58.68 58.68 0 0 0-11.49-1 60.29 60.29 0 0 0-15.42 1.71c-4.5 1.21-8 3.09-10.43 5.6a11.8 11.8 0 0 0-3.69 8.27 11.15 11.15 0 0 0 3.72 8.12c2.43 2.36 6.05 4.19 10.78 5.42A62 62 0 0 0 192 208a66.81 66.81 0 0 0 12.45-1.15 63.88 63.88 0 0 0 11.77-3.42l.33-.12v-11.63H190.9zm37.23 1.39h24.08v-3.59h-24.08v-5.67h25.71v-3.58h-32.5v22.85h33.51v-3.59h-26.72zm59.27 3.76-22.13-16.6h-6.62v22.85h6.58v-16.62l22.13 16.61H294v-22.84h-6.6zm85.03 2.01v-11.62h-25.65v4.47h17.1v4.53a37.76 37.76 0 0 1-6.79 1.9 48.69 48.69 0 0 1-9.63 1 44.32 44.32 0 0 1-10.74-1.26 16.2 16.2 0 0 1-7.54-3.75 8.15 8.15 0 0 1-2.52-6.14 8.64 8.64 0 0 1 2.09-5.53 12.62 12.62 0 0 1 3.53-2.75 22 22 0 0 1 6-2.06 44.83 44.83 0 0 1 9-.79 37.62 37.62 0 0 1 7.89.76 16 16 0 0 1 5.37 2 9.92 9.92 0 0 1 3.09 3.32l.18.29 8-1.09-.33-.65a12.63 12.63 0 0 0-4.58-5 24.32 24.32 0 0 0-8.15-2.92 58.65 58.65 0 0 0-11.47-1 60.26 60.26 0 0 0-15.46 1.81c-4.51 1.21-8 3.09-10.44 5.6a11.8 11.8 0 0 0-3.69 8.27 11.16 11.16 0 0 0 3.72 8.12c2.42 2.36 6.05 4.19 10.78 5.42a61.94 61.94 0 0 0 15.68 1.77 66.73 66.73 0 0 0 12.45-1.15 63.72 63.72 0 0 0 11.78-3.42zm65.45-3.22-1.88 2.84-1.66-2.57-10.45-15.67h-9.44v22.6L396 184.69h-6.75l-17.49 22.85h7.42l4.75-6.61h17.75l5.05 6.61H421v-17.42l11.78 17.41h5.75l11.89-17.12v17.12H457v-22.84h-8.5zm-38.76-2.55h-12.73l4.15-5.58a21.45 21.45 0 0 0 2-3.44c.66 1.07 1.51 2.3 2.63 3.8zm64.07-12.84h6.79v22.85h-6.79zm41.57 16.6-22.13-16.6H476v22.85h6.57v-16.62l22.12 16.61h6.62v-22.84h-6.57zm32.56-5.93V199h12.81v3.21a27.67 27.67 0 0 1-5 1.41 36.3 36.3 0 0 1-7.21.72 33.46 33.46 0 0 1-8-.94 12.15 12.15 0 0 1-5.6-2.8 6.05 6.05 0 0 1-1.85-4.53A6.37 6.37 0 0 1 524 192a9.17 9.17 0 0 1 2.6-2 16.16 16.16 0 0 1 4.5-1.54 33.4 33.4 0 0 1 6.73-.6 28.52 28.52 0 0 1 5.91.57 11.89 11.89 0 0 1 4 1.45 7.43 7.43 0 0 1 2.28 2.46l.17.29 6.25-.86-.33-.65a9.58 9.58 0 0 0-3.49-3.77 18.32 18.32 0 0 0-6.15-2.21 43.78 43.78 0 0 0-8.64-.78 45.29 45.29 0 0 0-11.64 1.35 16.93 16.93 0 0 0-7.89 4.25 9 9 0 0 0-2.8 6.3 8.51 8.51 0 0 0 2.83 6.2 18.14 18.14 0 0 0 8.15 4.11 46.44 46.44 0 0 0 11.8 1.4 50 50 0 0 0 9.35-.87 47.28 47.28 0 0 0 8.85-2.58l.34-.13v-9zM562.68 200.25v.65h4.5v6.1h2.14v-6.1h4.52v-1.12h-11.16zM575 207h2.07v-5.48l3.7 5.48h1.8l3.74-5.39V207h2.06v-7.18h-2.67l-3.33 4.83-.6.9-.51-.81-3.26-4.97h-3V207z"/></g></g></g></svg>