<svg width="71" height="80" fill="none" xmlns="http://www.w3.org/2000/svg"><path fill-rule="evenodd" clip-rule="evenodd" d="M26.86 53.832H0v10.464c0 5.233 0 10.466.002 15.699h2.497c2.083 0 4.165.001 6.246-.001.003-1.449.002-2.898.002-4.346 0-1.45 0-2.898.002-4.347 1.04-.002 2.078-.001 3.117-.001l3.119-.001c1.302 1.527 2.6 3.07 3.896 4.612a870.897 870.897 0 0 0 3.425 4.059c.178.034.365.031.55.028.076 0 .152-.002.227 0a1458.3 1458.3 0 0 1 4.183-.002c1.395 0 2.79 0 4.183-.002-1.279-1.543-2.566-3.08-3.853-4.615-1.137-1.357-2.274-2.713-3.405-4.074a16.86 16.86 0 0 1 1.115-.005c.738.013 1.485.025 2.18-.147 1.53-.35 2.852-1.535 3.509-2.943.344-.734.454-1.525.453-2.331v-2.814c0-1.34.001-2.68-.002-4.018-.003-1.125-.326-2.225-1.016-3.12-.866-1.166-2.133-1.896-3.57-2.095Zm-4.155 7.946-.001-.943h-5.748c-2.736 0-5.473-.001-8.21.003v1.343c0 .703 0 1.407.004 2.11 2.657.002 5.314.002 7.97.001h5.98c.009-.837.007-1.676.006-2.514Z" fill="#F05B24"/><path d="M44.575 53.833c8.517.002 17.034-.003 25.55.002 0 2.33.005 4.661-.002 6.991-7.523.005-15.046 0-22.568.003-.004 4.023-.004 8.044.001 12.067H61.43c0-.864.011-1.727-.008-2.59-3.762.003-7.525.005-11.287-.001-.003-2.31-.008-4.621.003-6.931 6.66-.005 13.322-.003 19.983-.002.015 5.264 0 10.53.007 15.793.002.248-.008.497-.02.745H43.98c-.862-.095-1.688-.242-2.446-.684-1.138-.656-2.075-1.755-2.44-3.025-.205-.621-.208-1.232-.215-1.88.007-5.132-.007-10.272.007-15.404-.029-2.393 1.854-4.586 4.195-4.995.498-.103.99-.09 1.495-.09Z" fill="#F4831F"/><path fill-rule="evenodd" clip-rule="evenodd" d="M12.337 10.983a9.33 9.33 0 0 1-.334.016 7.686 7.686 0 0 0-.022.853c.001.125.003.25.001.377v17.899c0 .171-.005.341-.012.512.192.078.4.073.608.068a4622.32 4622.32 0 0 1 5.474-.002c2.146 0 4.292.001 6.437-.002.006-2.827.005-5.657.003-8.486-.002-3.722-.004-7.445.012-11.163-.185-.085-.398-.08-.607-.074a12703.081 12703.081 0 0 1-8.724.003h-2.836Zm7.345 6.324h-3.564c-.563-.022-1.074.471-1.053 1.038 0 .51.438.962.946.981.478.01.956.008 1.434.007.414-.002.828-.003 1.241.003-.48.793-.971 1.581-1.462 2.369-.31.496-.619.992-.926 1.49-.274.402-.288.903.02 1.291.34.476 1.108.527 1.53.138.159-.15.273-.357.383-.556.033-.06.066-.119.1-.176l.86-1.513c.64-1.128 1.28-2.255 1.926-3.379.124-.19.089-.392.041-.601a1.536 1.536 0 0 0-1.476-1.092Zm15.866-6.322-7.12.001a8940.28 8940.28 0 0 0-.002 19.72c4.156.002 8.311.002 12.467 0 .008-3.624.007-7.25.006-10.875-.001-2.719-.002-5.438 0-8.157 0-.23-.005-.46-.01-.69l-5.341.001Zm-.383 6.323c-.866-.001-1.734-.002-2.6.003-.534.028-.999.483-.959 1.034-.026.512.458.992.965.983.482.009.963.007 1.445.006a69.26 69.26 0 0 1 1.206.002c-.373.606-.75 1.21-1.126 1.815-.448.72-.895 1.438-1.337 2.16-.368.608.016 1.455.724 1.557.463.067.868-.099 1.107-.508.522-.911 1.042-1.826 1.562-2.741.5-.882 1.002-1.763 1.505-2.641.13-.187.08-.37.029-.57l-.012-.043a1.525 1.525 0 0 0-1.426-1.056l-1.082-.001Zm16.738-6.323c-2.308 0-4.617.001-6.925-.002a24.2 24.2 0 0 0-.012 1.043v7.593c0 3.696 0 7.391.003 11.087 2.97.002 5.941.002 8.912.001h3.566a11707.511 11707.511 0 0 0-.003-19.72c-1.847-.002-3.694-.002-5.54-.002Zm-.758 6.323c-.594 0-1.188.001-1.782-.002-.452-.02-.884.214-1.052.646-.274.583.197 1.336.835 1.372.521.014 1.044.012 1.566.01.386-.002.773-.003 1.158.002a807.382 807.382 0 0 0-2.456 3.955c-.357.57-.062 1.325.56 1.545.312.077.693.07.955-.142.212-.155.331-.367.454-.588l.068-.12c.437-.772.877-1.544 1.316-2.316a818.88 818.88 0 0 0 1.543-2.716c.124-.182.077-.343.022-.53l-.016-.054a1.525 1.525 0 0 0-1.39-1.06c-.593-.003-1.187-.002-1.78-.002Z" fill="#F05B24"/><path fill-rule="evenodd" clip-rule="evenodd" d="M0 0h66.343c.87.096 1.703.396 2.396.937a4.473 4.473 0 0 1 1.757 3.537v16.611c0 9.973.001 19.945-.002 29.916h-66.2c-.784-.098-1.538-.316-2.201-.754a4.6 4.6 0 0 1-2.047-3.151A9.563 9.563 0 0 1 0 46.762V0Zm12.303 7.007 25.883-.001H57.6c.492-.01.978 0 1.459.12 1.498.317 2.795 1.414 3.318 2.858.28.72.276 1.425.27 2.175v18.039c.013.741-.027 1.458-.324 2.148-.669 1.676-2.367 2.801-4.164 2.83-8.71.003-17.422.002-26.133.002H12.412a4.692 4.692 0 0 1-2.422-.653c-1.325-.775-2.203-2.224-2.213-3.767v-8.245c0-3.665 0-7.329-.002-10.993a4.356 4.356 0 0 1 .65-2.314c.809-1.347 2.317-2.164 3.878-2.2Zm27.58 33.501H9.953a2.122 2.122 0 0 0-1.537.566c-.607.552-.815 1.417-.566 2.194.246.731.933 1.32 1.704 1.414.25.023.502.021.753.019.107 0 .213-.002.318 0l16.479-.001H60.06c.095-.001.188 0 .28.001.375.004.724.008 1.09-.15.774-.308 1.332-1.097 1.303-1.938.032-.839-.506-1.623-1.275-1.94-.404-.179-.81-.172-1.231-.166a189593.406 189593.406 0 0 0-20.344.001Z" fill="#F05B24"/></svg>