<svg width="519" height="59" xmlns="http://www.w3.org/2000/svg"><g fill="none" fill-rule="evenodd"><path d="M53.3 57.6 1.8 6.2C-.2 4.2 1.2.9 4 .9h51.5c1.7 0 3.1 1.4 3.1 3.1v51.4c0 2.7-3.3 4.1-5.3 2.2m11.6-2.2V4c0-1.7 1.4-3.1 3.1-3.1h51.5c2.8 0 4.2 3.3 2.2 5.3L70.2 57.6c-2 1.9-5.3.5-5.3-2.2m63.1 0V4c0-1.7 1.4-3.1 3.1-3.1h51.5c2.8 0 4.2 3.3 2.2 5.3l-51.5 51.4c-2 1.9-5.3.5-5.3-2.2" fill="#E23535"/><g fill="#fff"><path d="M256.4.8v35.5L244 11.2h-7.1l-12.6 25.4V.8h-11.2v57.7h11.1l16.1-31.4 16.2 31.4h11V.8z"/><path d="m298.6 17.4 6.5 20.3H292l6.6-20.3zM293 .8l-20.1 57.6h12.5l3.5-10.9h19.3l3.5 10.9h12.5L304.1.8H293z" fill-rule="nonzero"/><path d="M326.5.8v10H350l-23.5 40v7.7h39v-9.9h-24.1l23.3-40.1V.8z"/><path d="M404.1 33.4v-7.5c0-9.9-2.7-15.1-10.5-15.1h-8.8v37.8h8.8c7.8 0 10.5-5.2 10.5-15.2zm-31 25.1V.9h20.5c13.1 0 22.2 6.7 22.2 25.1v7.5c0 18.3-9.1 25.1-22.2 25.1h-20.5v-.1zm70.3-41.1 6.5 20.3h-13.1l6.6-20.3zM437.8.8l-20.1 57.6h12.5l3.5-10.9H453l3.5 10.9H469L449 .8h-11.2z" fill-rule="nonzero"/><path d="M506.9.8V37L484.3.8h-9.7v57.7h11.1V22.8l22.5 35.7h9.8V.8z"/></g></g></svg>