<svg width="80" height="80" fill="none" xmlns="http://www.w3.org/2000/svg"><path fill-rule="evenodd" clip-rule="evenodd" d="M28.818 15.922c-.714-2.027-1.41-4.02-1.968-6.056a55.008 55.008 0 0 1-1.326-6.353c-.18-1.193-.152-1.228.993-1.626 2.317-.806 4.68-1.439 7.108-1.81 1.124-.17 1.18-.134 1.332 1.016.641 4.845 2 9.479 4.067 13.904.234.5.36 1.317.898 1.343.684.034.773-.832 1.019-1.356a46.074 46.074 0 0 0 4.03-13.763c.168-1.297.204-1.327 1.51-1.134 2.432.361 4.782 1.047 7.101 1.838 1.056.36 1.036.404.87 1.55-.555 3.836-1.551 7.556-2.867 11.197-.147.41-.599.898-.157 1.285.349.304.794-.091 1.169-.247 3.788-1.573 7.102-3.856 10.02-6.725.136-.132.268-.266.402-.398 1.068-1.059 1.065-1.055 2.258-.06 1.775 1.478 3.479 3.03 4.967 4.803.752.896.744.91-.033 1.724-5.683 5.946-12.542 9.85-20.522 11.809-.366.09-.739.157-1.099.266-.862.26-.923.446-.262 1.12 2.183 2.226 4.594 4.181 7.19 5.906.808.538.839.517 1.783-.366 3.992-3.73 8.497-6.694 13.466-8.949 1.456-.66 2.957-1.227 4.457-1.783 1.017-.376 1.187-.289 1.606.722.938 2.264 1.742 4.575 2.256 6.977.23 1.08.217 1.131-.883 1.52a40.688 40.688 0 0 0-6.922 3.177 44.458 44.458 0 0 0-4.124 2.718c-.367.272-.953.495-.893 1 .076.629.785.583 1.244.729a45.941 45.941 0 0 0 10.374 2.011c2.661.205 2.144.12 1.934 2.377a32.932 32.932 0 0 1-1.206 6.228c-.32 1.085-.35 1.127-1.476 1.044a54.338 54.338 0 0 1-11.373-2.062c-9.414-2.76-17.557-7.656-24.495-14.574-1.357-1.352-1.108-1.502-2.565-.034-7.368 7.42-16.119 12.455-26.238 15.094a52.89 52.89 0 0 1-9.318 1.566c-1.453.11-1.433.07-1.84-1.286C.65 48.089.323 45.856.068 43.61c-.17-1.496-.14-1.546 1.444-1.657 3.443-.24 6.824-.813 10.132-1.801a37.469 37.469 0 0 0 1.744-.57c.499-.177.556-.506.169-.834a20.813 20.813 0 0 0-1.683-1.282c-3.121-2.14-6.435-3.91-10.018-5.157C.61 31.877.6 31.858.895 30.608c.541-2.294 1.233-4.54 2.195-6.699.535-1.2.554-1.231 1.778-.809a50.491 50.491 0 0 1 11.48 5.702c2.28 1.515 4.402 3.227 6.43 5.06.9.813.9.8 1.9.133a42.649 42.649 0 0 0 6.44-5.263c.233-.232.474-.46.683-.713.333-.402.182-.692-.264-.854-.264-.096-.544-.15-.819-.214-8.112-1.867-15.06-5.796-20.862-11.755-.132-.135-.26-.272-.394-.406-.35-.353-.417-.712-.061-1.112 1.849-2.08 3.828-4.023 6.022-5.744.452-.355.76-.149 1.088.188 1.116 1.15 2.272 2.252 3.53 3.249a30.926 30.926 0 0 0 7.787 4.526c.25.1.51.26.99.025Z" fill="#E6642B"/><path fill-rule="evenodd" clip-rule="evenodd" d="M39.85 79.656c-1.176 0-2.354.049-3.527-.014-1.039-.056-1.186-.25-1.19-1.313-.012-3.575-.043-7.151.016-10.726.019-1.154-.313-2.054-1.018-2.96-3.9-5.009-7.752-10.056-11.61-15.097-.987-1.29-.97-1.298.534-2.022 1.953-.938 3.866-1.947 5.703-3.099 1.39-.872 1.4-.854 2.36.399 2.604 3.397 5.208 6.793 7.814 10.188 1.042 1.358 1.07 1.355 2.082.034 2.66-3.473 5.32-6.946 7.984-10.416.814-1.06.831-1.075 1.915-.393 2.074 1.305 4.237 2.441 6.45 3.49.962.455.992.601.347 1.446-3.998 5.233-7.988 10.471-12.026 15.673-.618.797-.891 1.582-.881 2.576.037 3.575.017 7.15.012 10.726-.002 1.29-.045 1.397-1.297 1.481-1.218.083-2.445.019-3.667.019v.008Z" fill="#E6642B"/></svg>