<svg xmlns="http://www.w3.org/2000/svg" viewBox="0 0 20 18" style="fill: #fff"><defs><style>.cls-1{fill-rule:evenodd;}</style></defs><title>2</title><g id="Layer_2" data-name="Layer 2"><g id="Layer_1-2" data-name="Layer 1"><path id="icon" class="cls-1" d="M11,16V14.93a7,7,0,0,0,4.78-3C18.5,11.57,20,9.22,20,6V3a2,2,0,0,0-2-2H16.73A2,2,0,0,0,15,0H5A2,2,0,0,0,3.27,1H2A2,2,0,0,0,0,3V6C0,9.22,1.5,11.57,4.22,12a7,7,0,0,0,4.78,3V16H8a2,2,0,0,0-2,2h8a2,2,0,0,0-2-2ZM2,3H3V8a6.55,6.55,0,0,0,.13,1.34A4.37,4.37,0,0,1,2,6ZM17,3V8a6.55,6.55,0,0,1-.13,1.34A4.37,4.37,0,0,0,18,6V3ZM5,8V2H15V8A5,5,0,0,1,5,8Z"/></g></g></svg>