<svg xmlns="http://www.w3.org/2000/svg" width="45.1" height="48.3"><path d="M42.1 36a18.3 18.3 0 00-6.8-4.9A34.5 34.5 0 0022.6 29a34.7 34.7 0 00-12.8 2.1A18.3 18.3 0 003 36a12.6 12.6 0 00-3 7.5 4.8 4.8 0 004.8 4.8h35.5a4.8 4.8 0 004.8-4.8 12.6 12.6 0 00-3-7.5zm-1.8 9.1H4.8a1.6 1.6 0 01-1.6-1.6 9.8 9.8 0 012.4-5.6c3.1-3.7 9-5.7 17-5.7s13.8 2 16.9 5.7a9.8 9.8 0 012.4 5.6 1.6 1.6 0 01-1.6 1.6zM22.6 25.8A12.9 12.9 0 109.7 12.9a12.8 12.8 0 0012.9 12.9zm0-22.6a9.7 9.7 0 11-9.7 9.7 9.7 9.7 0 019.7-9.7z" fill="#000"/></svg>